<svg width="93" height="93" viewBox="0 0 93 93" fill="none" xmlns="http://www.w3.org/2000/svg">
<path d="M92 40.7048V39.7048H91H62.9045L82.7709 19.8384L83.478 19.1313L82.7709 18.4242L74.5758 10.2291L73.8687 9.52203L73.1616 10.2291L53.2952 30.0955V2V1H52.2952H40.7048H39.7048V2V30.0955L19.8384 10.2291L19.1313 9.52203L18.4242 10.2291L10.2291 18.4242L9.52203 19.1313L10.2291 19.8384L30.0955 39.7048H2H1V40.7048V52.2952V53.2952H2H30.0955L10.2291 73.1616L9.52208 73.8687L10.2291 74.5758L18.4241 82.7721L19.1312 83.4793L19.8384 82.7721L39.7048 62.9046V91V92H40.7048H52.2952H53.2952V91V62.9046L73.1616 82.7721L73.8688 83.4793L74.5759 82.7721L82.7709 74.5758L83.4779 73.8687L82.7709 73.1616L62.9045 53.2952H91H92V52.2952V40.7048Z" fill="#FF2C54" stroke="black" stroke-width="2"/>
</svg>
