<svg width="424" height="150" viewBox="0 0 424 150" fill="none" xmlns="http://www.w3.org/2000/svg">
<mask id="path-1-outside-1_733_6" maskUnits="userSpaceOnUse" x="0.043457" y="0" width="424" height="150" fill="black">
<rect fill="white" x="0.043457" width="424" height="150"/>
<path fill-rule="evenodd" clip-rule="evenodd" d="M42.0435 2C19.9521 2 2.04346 19.9086 2.04346 42V69C2.04346 91.0914 19.9521 109 42.0435 109H56.6438C56.6914 110.039 57.31 129.39 38.5058 147.947C38.5058 147.947 86.666 151.081 92.1724 109H382C387.325 109 392.406 107.96 397.053 106.071C404.868 102.994 411.335 97.605 415.651 90.6335C419.669 84.3966 422 76.9706 422 69V42C422 19.9086 404.091 2 382 2H42.0435Z"/>
</mask>
<path fill-rule="evenodd" clip-rule="evenodd" d="M42.0435 2C19.9521 2 2.04346 19.9086 2.04346 42V69C2.04346 91.0914 19.9521 109 42.0435 109H56.6438C56.6914 110.039 57.31 129.39 38.5058 147.947C38.5058 147.947 86.666 151.081 92.1724 109H382C387.325 109 392.406 107.96 397.053 106.071C404.868 102.994 411.335 97.605 415.651 90.6335C419.669 84.3966 422 76.9706 422 69V42C422 19.9086 404.091 2 382 2H42.0435Z" fill="white"/>
<path d="M56.6438 109L58.6417 108.909L58.5543 107H56.6438V109ZM38.5058 147.947L37.101 146.524L33.9293 149.654L38.376 149.943L38.5058 147.947ZM92.1724 109V107H90.417L90.1893 108.741L92.1724 109ZM397.053 106.071L396.32 104.21L396.31 104.214L396.3 104.218L397.053 106.071ZM415.651 90.6335L413.969 89.5504L413.96 89.5655L413.95 89.5808L415.651 90.6335ZM4.04346 42C4.04346 21.0132 21.0566 4 42.0435 4V0C18.8475 0 0.043457 18.804 0.043457 42H4.04346ZM4.04346 69V42H0.043457V69H4.04346ZM42.0435 107C21.0567 107 4.04346 89.9868 4.04346 69H0.043457C0.043457 92.196 18.8475 111 42.0435 111V107ZM56.6438 107H42.0435V111H56.6438V107ZM39.9106 149.371C59.2714 130.264 58.7034 110.256 58.6417 108.909L54.6459 109.091C54.6794 109.823 55.3486 128.516 37.101 146.524L39.9106 149.371ZM90.1893 108.741C87.562 128.819 74.857 138.06 62.6106 142.367C56.4572 144.531 50.4463 145.431 45.9592 145.786C43.7202 145.963 41.8724 146.003 40.5912 146C39.9509 145.998 39.453 145.985 39.1195 145.974C38.9528 145.968 38.8273 145.962 38.7457 145.958C38.7049 145.956 38.6751 145.954 38.6567 145.953C38.6474 145.952 38.641 145.952 38.6375 145.952C38.6358 145.952 38.6347 145.952 38.6344 145.951C38.6342 145.951 38.6346 145.952 38.6345 145.952C38.635 145.952 38.6356 145.952 38.5058 147.947C38.376 149.943 38.377 149.943 38.3782 149.943C38.3789 149.943 38.3803 149.943 38.3816 149.943C38.3842 149.944 38.3875 149.944 38.3916 149.944C38.3998 149.945 38.4108 149.945 38.4248 149.946C38.4526 149.948 38.492 149.95 38.5425 149.952C38.6435 149.958 38.7891 149.964 38.9765 149.971C39.3512 149.984 39.8933 149.998 40.5807 150C41.9548 150.003 43.9124 149.96 46.2745 149.773C50.9896 149.4 57.3629 148.453 63.9378 146.141C77.1481 141.494 91.2764 131.262 94.1555 109.259L90.1893 108.741ZM382 107H92.1724V111H382V107ZM396.3 104.218C391.888 106.011 387.062 107 382 107V111C387.587 111 392.924 109.908 397.806 107.924L396.3 104.218ZM413.95 89.5808C409.865 96.1796 403.741 101.288 396.32 104.21L397.785 107.932C405.996 104.699 412.805 99.0304 417.351 91.6862L413.95 89.5808ZM420 69C420 76.575 417.785 83.6267 413.969 89.5504L417.332 91.7166C421.552 85.1665 424 77.3661 424 69H420ZM420 42V69H424V42H420ZM382 4C402.987 4 420 21.0132 420 42H424C424 18.804 405.196 0 382 0V4ZM42.0435 4H382V0H42.0435V4Z" fill="black" mask="url(#path-1-outside-1_733_6)"/>
<path d="M52.0016 47H41.1096V28.24H51.6096C52.8229 28.24 53.8496 28.4173 54.6896 28.772C55.5483 29.1267 56.2016 29.6493 56.6496 30.34C57.1163 31.0307 57.3496 31.8707 57.3496 32.86C57.3496 33.9613 57.0229 34.8947 56.3696 35.66C55.7349 36.4253 54.6989 36.892 53.2616 37.06V37.256C54.8669 37.4427 56.0616 37.9467 56.8456 38.768C57.6296 39.5707 58.0216 40.588 58.0216 41.82C58.0216 42.884 57.7883 43.808 57.3216 44.592C56.8549 45.376 56.1736 45.9733 55.2776 46.384C54.3816 46.7947 53.2896 47 52.0016 47ZM44.1056 38.6V44.284H51.6656C52.7856 44.284 53.6163 44.06 54.1576 43.612C54.7176 43.1453 54.9976 42.408 54.9976 41.4C54.9976 40.4107 54.7176 39.7013 54.1576 39.272C53.6163 38.824 52.7856 38.6 51.6656 38.6H44.1056ZM44.1056 30.956V36.108H51.1896C52.2536 36.108 53.0469 35.9027 53.5696 35.492C54.0923 35.0627 54.3536 34.4093 54.3536 33.532C54.3536 32.6547 54.1016 32.0107 53.5976 31.6C53.0936 31.1707 52.3189 30.956 51.2736 30.956H44.1056ZM65.7761 47.28C64.4694 47.28 63.3867 47.0187 62.5281 46.496C61.6694 45.9733 61.0254 45.2733 60.5961 44.396C60.1667 43.5187 59.9521 42.5387 59.9521 41.456V33.084H62.9481V40.644C62.9481 41.932 63.2654 42.912 63.9001 43.584C64.5534 44.2373 65.6174 44.564 67.0921 44.564C68.6414 44.564 69.7707 44.1813 70.4801 43.416C71.2081 42.632 71.5721 41.484 71.5721 39.972L72.1041 39.944L72.2721 42.688H71.6281C71.4974 43.472 71.1987 44.2093 70.7321 44.9C70.2654 45.5907 69.6214 46.16 68.8001 46.608C67.9974 47.056 66.9894 47.28 65.7761 47.28ZM74.5961 47H71.8241V42.632L71.5721 42.492V33.084H74.5961V47ZM86.4714 47H83.2794C81.786 47 80.6007 46.636 79.7234 45.908C78.8647 45.18 78.4354 43.976 78.4354 42.296V30.032H81.4314V42.128C81.4314 42.9867 81.6367 43.5653 82.0474 43.864C82.458 44.144 83.0927 44.284 83.9514 44.284H86.4714V47ZM86.4714 35.604H76.0834V33.084H86.4714V35.604ZM97.236 47H94.212V33.84C94.212 32.664 94.464 31.6653 94.968 30.844C95.4907 30.004 96.2467 29.36 97.236 28.912C98.2254 28.464 99.4294 28.24 100.848 28.24H102.22V30.48H100.372C99.1774 30.48 98.3094 30.704 97.768 31.152C97.2267 31.5813 97.0494 32.4027 97.236 33.616V34.176V47ZM102.22 35.604H92.112V33.084H102.22V35.604ZM106.924 47H103.9V33.084H106.924V47ZM106.924 31.46H103.9V28.24H106.924V31.46ZM112.742 47H109.718V33.084H112.49V37.032L112.742 37.172V47ZM112.742 39.188H112.07V36.836H112.686C112.817 36.0707 113.078 35.3893 113.47 34.792C113.862 34.176 114.385 33.6907 115.038 33.336C115.71 32.9813 116.522 32.804 117.474 32.804C118.538 32.804 119.406 33.028 120.078 33.476C120.75 33.924 121.236 34.5213 121.534 35.268C121.852 36.0147 122.01 36.8267 122.01 37.704V39.524H119.014V38.292C119.014 37.284 118.79 36.5467 118.342 36.08C117.894 35.6133 117.148 35.38 116.102 35.38C114.908 35.38 114.049 35.7067 113.526 36.36C113.004 37.0133 112.742 37.956 112.742 39.188ZM130.49 47.28C128.25 47.28 126.514 46.8507 125.282 45.992C124.068 45.1333 123.462 43.9013 123.462 42.296V42.212H126.486V42.436C126.486 43.3507 126.784 43.9853 127.382 44.34C127.998 44.676 129.034 44.844 130.49 44.844C131.852 44.844 132.776 44.704 133.262 44.424C133.766 44.1253 134.018 43.668 134.018 43.052C134.018 42.4733 133.822 42.0627 133.43 41.82C133.056 41.5773 132.366 41.3907 131.358 41.26L127.55 40.756C126.224 40.588 125.188 40.2147 124.442 39.636C123.695 39.0387 123.322 38.152 123.322 36.976C123.322 36.1547 123.564 35.436 124.05 34.82C124.535 34.1853 125.263 33.6907 126.234 33.336C127.204 32.9813 128.399 32.804 129.818 32.804C131.236 32.804 132.45 32.9907 133.458 33.364C134.484 33.7373 135.268 34.2973 135.81 35.044C136.37 35.7907 136.65 36.7147 136.65 37.816V37.9H133.654V37.732C133.654 37.1907 133.542 36.7333 133.318 36.36C133.094 35.9867 132.692 35.7067 132.114 35.52C131.554 35.3147 130.76 35.212 129.734 35.212C128.446 35.212 127.55 35.3613 127.046 35.66C126.542 35.9587 126.29 36.4347 126.29 37.088C126.29 37.6293 126.476 38.0213 126.85 38.264C127.223 38.5067 127.923 38.7027 128.95 38.852L132.17 39.3C133.812 39.5053 135.026 39.9067 135.81 40.504C136.594 41.1013 136.986 41.9787 136.986 43.136C136.986 43.9947 136.715 44.7413 136.174 45.376C135.632 45.992 134.876 46.468 133.906 46.804C132.935 47.1213 131.796 47.28 130.49 47.28ZM148.296 47H145.104C143.61 47 142.425 46.636 141.548 45.908C140.689 45.18 140.26 43.976 140.26 42.296V30.032H143.256V42.128C143.256 42.9867 143.461 43.5653 143.872 43.864C144.282 44.144 144.917 44.284 145.776 44.284H148.296V47ZM148.296 35.604H137.908V33.084H148.296V35.604ZM153.435 47H149.627V42.66H153.435V47ZM150.691 50.136H149.683V48.288H150.607C150.85 48.288 151.027 48.2413 151.139 48.148C151.251 48.0733 151.307 47.8867 151.307 47.588V46.356H153.435V47.56C153.435 48.4373 153.192 49.0813 152.707 49.492C152.24 49.9213 151.568 50.136 150.691 50.136ZM163.492 47H160.468V28.24H163.492V47ZM173.293 47.28C171.781 47.28 170.455 47 169.317 46.44C168.178 45.88 167.291 45.0587 166.657 43.976C166.041 42.8933 165.733 41.5867 165.733 40.056C165.733 38.6 166.041 37.3307 166.657 36.248C167.291 35.1653 168.169 34.3253 169.289 33.728C170.409 33.112 171.725 32.804 173.237 32.804C174.674 32.804 175.934 33.0653 177.017 33.588C178.118 34.092 178.967 34.8387 179.565 35.828C180.181 36.7987 180.489 37.9933 180.489 39.412C180.489 39.6547 180.479 39.888 180.461 40.112C180.442 40.3173 180.414 40.5227 180.377 40.728H167.665V39.048H178.389L177.605 40.084C177.623 39.8973 177.633 39.72 177.633 39.552C177.633 39.3653 177.633 39.1787 177.633 38.992C177.633 37.704 177.259 36.752 176.513 36.136C175.785 35.5013 174.674 35.184 173.181 35.184C171.519 35.184 170.334 35.5667 169.625 36.332C168.915 37.0973 168.561 38.1987 168.561 39.636V40.364C168.561 41.82 168.915 42.9307 169.625 43.696C170.334 44.4613 171.529 44.844 173.209 44.844C174.665 44.844 175.71 44.62 176.345 44.172C176.998 43.7053 177.325 43.0613 177.325 42.24V42.016H180.349V42.268C180.349 43.2573 180.041 44.1347 179.425 44.9C178.827 45.6467 177.997 46.2347 176.933 46.664C175.887 47.0747 174.674 47.28 173.293 47.28ZM191.882 47H188.69C187.196 47 186.011 46.636 185.134 45.908C184.275 45.18 183.846 43.976 183.846 42.296V30.032H186.842V42.128C186.842 42.9867 187.047 43.5653 187.458 43.864C187.868 44.144 188.503 44.284 189.362 44.284H191.882V47ZM191.882 35.604H181.494V33.084H191.882V35.604ZM223.17 47H220.174V39.44C220.174 38.0587 219.885 37.06 219.306 36.444C218.728 35.828 217.757 35.52 216.394 35.52C214.92 35.52 213.874 35.9027 213.258 36.668C212.661 37.4147 212.362 38.5627 212.362 40.112L211.83 40.14L211.662 37.396H212.278C212.409 36.5933 212.68 35.8467 213.09 35.156C213.501 34.4653 214.089 33.9053 214.854 33.476C215.62 33.028 216.581 32.804 217.738 32.804C218.952 32.804 219.96 33.056 220.762 33.56C221.565 34.064 222.162 34.7547 222.554 35.632C222.965 36.5093 223.17 37.508 223.17 38.628V47ZM201.582 47H198.558V33.084H201.33V37.452L201.582 37.592V47ZM212.362 47H209.366V39.44C209.366 38.0587 209.077 37.06 208.498 36.444C207.92 35.828 206.958 35.52 205.614 35.52C204.121 35.52 203.076 35.9027 202.478 36.668C201.881 37.4147 201.582 38.5627 201.582 40.112L201.05 40.14L200.91 37.284H201.498C201.629 36.5 201.89 35.772 202.282 35.1C202.674 34.428 203.244 33.8773 203.99 33.448C204.737 33.0187 205.689 32.804 206.846 32.804C208.06 32.804 209.058 33.0653 209.842 33.588C210.626 34.092 211.214 34.7827 211.606 35.66C211.998 36.5373 212.194 37.5267 212.194 38.628H212.362V47ZM232.875 47.28C231.363 47.28 230.037 47 228.899 46.44C227.76 45.88 226.873 45.0587 226.239 43.976C225.623 42.8933 225.315 41.5867 225.315 40.056C225.315 38.6 225.623 37.3307 226.239 36.248C226.873 35.1653 227.751 34.3253 228.871 33.728C229.991 33.112 231.307 32.804 232.819 32.804C234.256 32.804 235.516 33.0653 236.599 33.588C237.7 34.092 238.549 34.8387 239.147 35.828C239.763 36.7987 240.071 37.9933 240.071 39.412C240.071 39.6547 240.061 39.888 240.043 40.112C240.024 40.3173 239.996 40.5227 239.959 40.728H227.247V39.048H237.971L237.187 40.084C237.205 39.8973 237.215 39.72 237.215 39.552C237.215 39.3653 237.215 39.1787 237.215 38.992C237.215 37.704 236.841 36.752 236.095 36.136C235.367 35.5013 234.256 35.184 232.763 35.184C231.101 35.184 229.916 35.5667 229.207 36.332C228.497 37.0973 228.143 38.1987 228.143 39.636V40.364C228.143 41.82 228.497 42.9307 229.207 43.696C229.916 44.4613 231.111 44.844 232.791 44.844C234.247 44.844 235.292 44.62 235.927 44.172C236.58 43.7053 236.907 43.0613 236.907 42.24V42.016H239.931V42.268C239.931 43.2573 239.623 44.1347 239.007 44.9C238.409 45.6467 237.579 46.2347 236.515 46.664C235.469 47.0747 234.256 47.28 232.875 47.28ZM254.149 47.28C252.618 47.28 251.283 46.9813 250.145 46.384C249.006 45.768 248.119 44.9187 247.485 43.836C246.869 42.7347 246.561 41.4747 246.561 40.056C246.561 38.6 246.869 37.3307 247.485 36.248C248.119 35.1653 249.006 34.3253 250.145 33.728C251.283 33.112 252.618 32.804 254.149 32.804C255.549 32.804 256.79 33.0467 257.873 33.532C258.955 34.0173 259.805 34.6987 260.421 35.576C261.055 36.4347 261.373 37.452 261.373 38.628V38.908H258.377V38.74C258.377 37.6573 258.003 36.8547 257.257 36.332C256.51 35.7907 255.455 35.52 254.093 35.52C252.525 35.52 251.377 35.9027 250.649 36.668C249.921 37.4147 249.557 38.544 249.557 40.056C249.557 41.5493 249.921 42.6787 250.649 43.444C251.377 44.1907 252.525 44.564 254.093 44.564C255.455 44.564 256.51 44.3027 257.257 43.78C258.003 43.2387 258.377 42.4267 258.377 41.344V41.148H261.373V41.456C261.373 42.6133 261.055 43.6307 260.421 44.508C259.805 45.3853 258.955 46.0667 257.873 46.552C256.79 47.0373 255.549 47.28 254.149 47.28ZM278.253 47H275.257V39.44C275.257 38.04 274.93 37.0413 274.277 36.444C273.624 35.828 272.569 35.52 271.113 35.52C270.012 35.52 269.134 35.716 268.481 36.108C267.828 36.4813 267.352 37.0227 267.053 37.732C266.773 38.4227 266.633 39.2627 266.633 40.252L266.045 40.28L266.185 37.34H266.801C266.969 36.556 267.268 35.8187 267.697 35.128C268.145 34.4373 268.77 33.8773 269.573 33.448C270.376 33.0187 271.365 32.804 272.541 32.804C273.81 32.804 274.865 33.0653 275.705 33.588C276.564 34.092 277.198 34.792 277.609 35.688C278.038 36.5653 278.253 37.5733 278.253 38.712V47ZM266.633 47H263.609V28.24H266.633V47ZM287.972 47.28C286.46 47.28 285.135 47 283.996 46.44C282.858 45.88 281.971 45.0587 281.336 43.976C280.72 42.8933 280.412 41.5867 280.412 40.056C280.412 38.6 280.72 37.3307 281.336 36.248C281.971 35.1653 282.848 34.3253 283.968 33.728C285.088 33.112 286.404 32.804 287.916 32.804C289.354 32.804 290.614 33.0653 291.696 33.588C292.798 34.092 293.647 34.8387 294.244 35.828C294.86 36.7987 295.168 37.9933 295.168 39.412C295.168 39.6547 295.159 39.888 295.14 40.112C295.122 40.3173 295.094 40.5227 295.056 40.728H282.344V39.048H293.068L292.284 40.084C292.303 39.8973 292.312 39.72 292.312 39.552C292.312 39.3653 292.312 39.1787 292.312 38.992C292.312 37.704 291.939 36.752 291.192 36.136C290.464 35.5013 289.354 35.184 287.86 35.184C286.199 35.184 285.014 35.5667 284.304 36.332C283.595 37.0973 283.24 38.1987 283.24 39.636V40.364C283.24 41.82 283.595 42.9307 284.304 43.696C285.014 44.4613 286.208 44.844 287.888 44.844C289.344 44.844 290.39 44.62 291.024 44.172C291.678 43.7053 292.004 43.0613 292.004 42.24V42.016H295.028V42.268C295.028 43.2573 294.72 44.1347 294.104 44.9C293.507 45.6467 292.676 46.2347 291.612 46.664C290.567 47.0747 289.354 47.28 287.972 47.28ZM304.461 47.28C302.931 47.28 301.596 46.9813 300.457 46.384C299.319 45.768 298.432 44.9187 297.797 43.836C297.181 42.7347 296.873 41.4747 296.873 40.056C296.873 38.6 297.181 37.3307 297.797 36.248C298.432 35.1653 299.319 34.3253 300.457 33.728C301.596 33.112 302.931 32.804 304.461 32.804C305.861 32.804 307.103 33.0467 308.185 33.532C309.268 34.0173 310.117 34.6987 310.733 35.576C311.368 36.4347 311.685 37.452 311.685 38.628V38.908H308.689V38.74C308.689 37.6573 308.316 36.8547 307.569 36.332C306.823 35.7907 305.768 35.52 304.405 35.52C302.837 35.52 301.689 35.9027 300.961 36.668C300.233 37.4147 299.869 38.544 299.869 40.056C299.869 41.5493 300.233 42.6787 300.961 43.444C301.689 44.1907 302.837 44.564 304.405 44.564C305.768 44.564 306.823 44.3027 307.569 43.78C308.316 43.2387 308.689 42.4267 308.689 41.344V41.148H311.685V41.456C311.685 42.6133 311.368 43.6307 310.733 44.508C310.117 45.3853 309.268 46.0667 308.185 46.552C307.103 47.0373 305.861 47.28 304.461 47.28ZM328.593 47H325.037L320.921 41.316H315.601V38.6H320.921L325.093 33.084H328.621L323.385 39.776L328.593 47ZM316.945 47H313.921V28.24H316.945V47ZM47.8296 81.28C45.5896 81.28 43.8536 80.8507 42.6216 79.992C41.4083 79.1333 40.8016 77.9013 40.8016 76.296V76.212H43.8256V76.436C43.8256 77.3507 44.1243 77.9853 44.7216 78.34C45.3376 78.676 46.3736 78.844 47.8296 78.844C49.1923 78.844 50.1163 78.704 50.6016 78.424C51.1056 78.1253 51.3576 77.668 51.3576 77.052C51.3576 76.4733 51.1616 76.0627 50.7696 75.82C50.3963 75.5773 49.7056 75.3907 48.6976 75.26L44.8896 74.756C43.5643 74.588 42.5283 74.2147 41.7816 73.636C41.0349 73.0387 40.6616 72.152 40.6616 70.976C40.6616 70.1547 40.9043 69.436 41.3896 68.82C41.8749 68.1853 42.6029 67.6907 43.5736 67.336C44.5443 66.9813 45.7389 66.804 47.1576 66.804C48.5763 66.804 49.7896 66.9907 50.7976 67.364C51.8243 67.7373 52.6083 68.2973 53.1496 69.044C53.7096 69.7907 53.9896 70.7147 53.9896 71.816V71.9H50.9936V71.732C50.9936 71.1907 50.8816 70.7333 50.6576 70.36C50.4336 69.9867 50.0323 69.7067 49.4536 69.52C48.8936 69.3147 48.1003 69.212 47.0736 69.212C45.7856 69.212 44.8896 69.3613 44.3856 69.66C43.8816 69.9587 43.6296 70.4347 43.6296 71.088C43.6296 71.6293 43.8163 72.0213 44.1896 72.264C44.5629 72.5067 45.2629 72.7027 46.2896 72.852L49.5096 73.3C51.1523 73.5053 52.3656 73.9067 53.1496 74.504C53.9336 75.1013 54.3256 75.9787 54.3256 77.136C54.3256 77.9947 54.0549 78.7413 53.5136 79.376C52.9723 79.992 52.2163 80.468 51.2456 80.804C50.2749 81.1213 49.1363 81.28 47.8296 81.28ZM63.6194 81.28C62.0888 81.28 60.7354 80.9813 59.5594 80.384C58.4021 79.768 57.4968 78.9187 56.8434 77.836C56.2088 76.7347 55.8914 75.4747 55.8914 74.056C55.8914 72.6 56.2088 71.3307 56.8434 70.248C57.4968 69.1653 58.4021 68.3253 59.5594 67.728C60.7354 67.112 62.0888 66.804 63.6194 66.804C65.1874 66.804 66.5501 67.112 67.7074 67.728C68.8648 68.3253 69.7608 69.1653 70.3954 70.248C71.0488 71.3307 71.3754 72.6 71.3754 74.056C71.3754 75.4747 71.0488 76.7347 70.3954 77.836C69.7608 78.9187 68.8648 79.768 67.7074 80.384C66.5501 80.9813 65.1874 81.28 63.6194 81.28ZM63.6194 78.592C65.3181 78.592 66.5408 78.2093 67.2874 77.444C68.0341 76.66 68.4074 75.5307 68.4074 74.056C68.4074 72.5813 68.0341 71.452 67.2874 70.668C66.5408 69.8653 65.3181 69.464 63.6194 69.464C61.9394 69.464 60.7261 69.8653 59.9794 70.668C59.2328 71.452 58.8594 72.5813 58.8594 74.056C58.8594 75.5307 59.2328 76.66 59.9794 77.444C60.7261 78.2093 61.9394 78.592 63.6194 78.592ZM98.1819 81H95.1859V73.44C95.1859 72.0587 94.8966 71.06 94.3179 70.444C93.7393 69.828 92.7686 69.52 91.4059 69.52C89.9313 69.52 88.8859 69.9027 88.2699 70.668C87.6726 71.4147 87.3739 72.5627 87.3739 74.112L86.8419 74.14L86.6739 71.396H87.2899C87.4206 70.5933 87.6913 69.8467 88.1019 69.156C88.5126 68.4653 89.1006 67.9053 89.8659 67.476C90.6313 67.028 91.5926 66.804 92.7499 66.804C93.9633 66.804 94.9713 67.056 95.7739 67.56C96.5766 68.064 97.1739 68.7547 97.5659 69.632C97.9766 70.5093 98.1819 71.508 98.1819 72.628V81ZM76.5939 81H73.5699V67.084H76.3419V71.452L76.5939 71.592V81ZM87.3739 81H84.3779V73.44C84.3779 72.0587 84.0886 71.06 83.5099 70.444C82.9313 69.828 81.9699 69.52 80.6259 69.52C79.1326 69.52 78.0873 69.9027 77.4899 70.668C76.8926 71.4147 76.5939 72.5627 76.5939 74.112L76.0619 74.14L75.9219 71.284H76.5099C76.6406 70.5 76.9019 69.772 77.2939 69.1C77.6859 68.428 78.2553 67.8773 79.0019 67.448C79.7486 67.0187 80.7006 66.804 81.8579 66.804C83.0713 66.804 84.0699 67.0653 84.8539 67.588C85.6379 68.092 86.2259 68.7827 86.6179 69.66C87.0099 70.5373 87.2059 71.5267 87.2059 72.628H87.3739V81ZM107.886 81.28C106.374 81.28 105.049 81 103.91 80.44C102.772 79.88 101.885 79.0587 101.25 77.976C100.634 76.8933 100.326 75.5867 100.326 74.056C100.326 72.6 100.634 71.3307 101.25 70.248C101.885 69.1653 102.762 68.3253 103.882 67.728C105.002 67.112 106.318 66.804 107.83 66.804C109.268 66.804 110.528 67.0653 111.61 67.588C112.712 68.092 113.561 68.8387 114.158 69.828C114.774 70.7987 115.082 71.9933 115.082 73.412C115.082 73.6547 115.073 73.888 115.054 74.112C115.036 74.3173 115.008 74.5227 114.97 74.728H102.258V73.048H112.982L112.198 74.084C112.217 73.8973 112.226 73.72 112.226 73.552C112.226 73.3653 112.226 73.1787 112.226 72.992C112.226 71.704 111.853 70.752 111.106 70.136C110.378 69.5013 109.268 69.184 107.774 69.184C106.113 69.184 104.928 69.5667 104.218 70.332C103.509 71.0973 103.154 72.1987 103.154 73.636V74.364C103.154 75.82 103.509 76.9307 104.218 77.696C104.928 78.4613 106.122 78.844 107.802 78.844C109.258 78.844 110.304 78.62 110.938 78.172C111.592 77.7053 111.918 77.0613 111.918 76.24V76.016H114.942V76.268C114.942 77.2573 114.634 78.1347 114.018 78.9C113.421 79.6467 112.59 80.2347 111.526 80.664C110.481 81.0747 109.268 81.28 107.886 81.28ZM126.475 81H123.283C121.79 81 120.605 80.636 119.727 79.908C118.869 79.18 118.439 77.976 118.439 76.296V64.032H121.435V76.128C121.435 76.9867 121.641 77.5653 122.051 77.864C122.462 78.144 123.097 78.284 123.955 78.284H126.475V81ZM126.475 69.604H116.087V67.084H126.475V69.604ZM143.011 81H140.015V73.44C140.015 72.04 139.688 71.0413 139.035 70.444C138.381 69.828 137.327 69.52 135.871 69.52C134.769 69.52 133.892 69.716 133.239 70.108C132.585 70.4813 132.109 71.0227 131.811 71.732C131.531 72.4227 131.391 73.2627 131.391 74.252L130.803 74.28L130.943 71.34H131.559C131.727 70.556 132.025 69.8187 132.455 69.128C132.903 68.4373 133.528 67.8773 134.331 67.448C135.133 67.0187 136.123 66.804 137.299 66.804C138.568 66.804 139.623 67.0653 140.463 67.588C141.321 68.092 141.956 68.792 142.367 69.688C142.796 70.5653 143.011 71.5733 143.011 72.712V81ZM131.391 81H128.367V62.24H131.391V81ZM148.754 81H145.73V67.084H148.754V81ZM148.754 65.46H145.73V62.24H148.754V65.46ZM166.086 81H163.062V73.44C163.062 72.1333 162.745 71.1533 162.11 70.5C161.494 69.8467 160.458 69.52 159.002 69.52C157.49 69.52 156.37 69.912 155.642 70.696C154.933 71.4613 154.578 72.6 154.578 74.112L154.046 74.14L153.906 71.396H154.522C154.672 70.612 154.97 69.8747 155.418 69.184C155.885 68.4747 156.52 67.9053 157.322 67.476C158.144 67.028 159.142 66.804 160.318 66.804C161.606 66.804 162.68 67.0653 163.538 67.588C164.397 68.1107 165.032 68.8107 165.442 69.688C165.872 70.5653 166.086 71.5453 166.086 72.628V81ZM154.578 81H151.554V67.084H154.326V71.452L154.578 71.592V81ZM176.089 86.04C174.708 86.04 173.494 85.8253 172.449 85.396C171.404 84.9853 170.582 84.388 169.985 83.604C169.406 82.82 169.117 81.868 169.117 80.748H172.113C172.113 81.42 172.253 81.9613 172.533 82.372C172.813 82.7827 173.252 83.072 173.849 83.24C174.465 83.4267 175.268 83.52 176.257 83.52C177.321 83.52 178.161 83.3987 178.777 83.156C179.412 82.932 179.869 82.5307 180.149 81.952C180.429 81.3733 180.569 80.5707 180.569 79.544V71.396L180.793 71.2V67.084H183.565V79.376C183.565 80.9253 183.257 82.1853 182.641 83.156C182.025 84.1453 181.157 84.8733 180.037 85.34C178.917 85.8067 177.601 86.04 176.089 86.04ZM174.829 79.74C173.448 79.74 172.262 79.4693 171.273 78.928C170.302 78.3867 169.546 77.6307 169.005 76.66C168.482 75.6893 168.221 74.56 168.221 73.272C168.221 71.984 168.492 70.8547 169.033 69.884C169.593 68.9133 170.377 68.1573 171.385 67.616C172.412 67.0747 173.625 66.804 175.025 66.804C176.481 66.804 177.713 67.1307 178.721 67.784C179.748 68.4187 180.382 69.3427 180.625 70.556H181.269L181.101 72.992H180.569C180.569 72.208 180.382 71.5547 180.009 71.032C179.636 70.4907 179.104 70.0893 178.413 69.828C177.722 69.5667 176.882 69.436 175.893 69.436C174.941 69.436 174.11 69.5573 173.401 69.8C172.71 70.0427 172.178 70.444 171.805 71.004C171.45 71.5453 171.273 72.3013 171.273 73.272C171.273 74.224 171.45 74.98 171.805 75.54C172.16 76.1 172.673 76.5107 173.345 76.772C174.036 77.0147 174.857 77.136 175.809 77.136C177.34 77.136 178.516 76.8187 179.337 76.184C180.158 75.5493 180.569 74.616 180.569 73.384H181.101V76.128H180.373C180.13 77.192 179.542 78.06 178.609 78.732C177.676 79.404 176.416 79.74 174.829 79.74ZM204.308 81H201.536V77.416L201.34 77.332V72.572C201.34 71.4147 201.06 70.612 200.5 70.164C199.959 69.6973 199.016 69.464 197.672 69.464C196.384 69.464 195.423 69.688 194.788 70.136C194.153 70.584 193.836 71.3213 193.836 72.348V72.46H190.84V72.348C190.84 71.284 191.12 70.3413 191.68 69.52C192.24 68.68 193.043 68.0173 194.088 67.532C195.152 67.0467 196.421 66.804 197.896 66.804C199.371 66.804 200.575 67.056 201.508 67.56C202.46 68.0453 203.16 68.7173 203.608 69.576C204.075 70.4347 204.308 71.424 204.308 72.544V81ZM195.236 81.28C193.799 81.28 192.651 80.9627 191.792 80.328C190.952 79.6747 190.532 78.7787 190.532 77.64C190.532 76.912 190.709 76.3053 191.064 75.82C191.437 75.316 191.96 74.924 192.632 74.644C193.304 74.364 194.097 74.168 195.012 74.056L201.62 73.356V75.148L195.88 75.792C195.096 75.8853 194.508 76.0533 194.116 76.296C193.743 76.52 193.556 76.9027 193.556 77.444C193.556 78.004 193.752 78.424 194.144 78.704C194.555 78.9653 195.189 79.096 196.048 79.096C197.112 79.096 198.036 78.9653 198.82 78.704C199.604 78.424 200.22 77.9947 200.668 77.416C201.116 76.8373 201.34 76.0907 201.34 75.176L201.732 75.232V77.528H201.34C200.967 78.704 200.248 79.628 199.184 80.3C198.139 80.9533 196.823 81.28 195.236 81.28ZM215.771 81.28C214.185 81.28 212.897 80.916 211.907 80.188C210.918 79.4413 210.274 78.3773 209.975 76.996H209.303L209.499 74.196H210.031C210.031 75.148 210.218 75.9507 210.591 76.604C210.983 77.2573 211.534 77.7427 212.243 78.06C212.971 78.3587 213.83 78.508 214.819 78.508C215.846 78.508 216.705 78.368 217.395 78.088C218.105 77.808 218.637 77.3413 218.991 76.688C219.365 76.0347 219.551 75.1573 219.551 74.056C219.551 72.936 219.365 72.0493 218.991 71.396C218.618 70.7427 218.086 70.276 217.395 69.996C216.705 69.6973 215.865 69.548 214.875 69.548C213.307 69.548 212.103 69.9213 211.263 70.668C210.442 71.396 210.031 72.4973 210.031 73.972H209.499V70.864H210.199C210.479 69.688 211.086 68.7173 212.019 67.952C212.971 67.1867 214.278 66.804 215.939 66.804C217.377 66.804 218.581 67.112 219.551 67.728C220.541 68.3253 221.287 69.1653 221.791 70.248C222.314 71.3307 222.575 72.6 222.575 74.056C222.575 75.4747 222.314 76.7347 221.791 77.836C221.287 78.9187 220.522 79.768 219.495 80.384C218.487 80.9813 217.246 81.28 215.771 81.28ZM209.779 81H207.007V62.24H210.031V76.268L209.779 76.632V81ZM231.783 81.28C230.253 81.28 228.899 80.9813 227.723 80.384C226.566 79.768 225.661 78.9187 225.007 77.836C224.373 76.7347 224.055 75.4747 224.055 74.056C224.055 72.6 224.373 71.3307 225.007 70.248C225.661 69.1653 226.566 68.3253 227.723 67.728C228.899 67.112 230.253 66.804 231.783 66.804C233.351 66.804 234.714 67.112 235.871 67.728C237.029 68.3253 237.925 69.1653 238.559 70.248C239.213 71.3307 239.539 72.6 239.539 74.056C239.539 75.4747 239.213 76.7347 238.559 77.836C237.925 78.9187 237.029 79.768 235.871 80.384C234.714 80.9813 233.351 81.28 231.783 81.28ZM231.783 78.592C233.482 78.592 234.705 78.2093 235.451 77.444C236.198 76.66 236.571 75.5307 236.571 74.056C236.571 72.5813 236.198 71.452 235.451 70.668C234.705 69.8653 233.482 69.464 231.783 69.464C230.103 69.464 228.89 69.8653 228.143 70.668C227.397 71.452 227.023 72.5813 227.023 74.056C227.023 75.5307 227.397 76.66 228.143 77.444C228.89 78.2093 230.103 78.592 231.783 78.592ZM247.53 81.28C246.223 81.28 245.141 81.0187 244.282 80.496C243.423 79.9733 242.779 79.2733 242.35 78.396C241.921 77.5187 241.706 76.5387 241.706 75.456V67.084H244.702V74.644C244.702 75.932 245.019 76.912 245.654 77.584C246.307 78.2373 247.371 78.564 248.846 78.564C250.395 78.564 251.525 78.1813 252.234 77.416C252.962 76.632 253.326 75.484 253.326 73.972L253.858 73.944L254.026 76.688H253.382C253.251 77.472 252.953 78.2093 252.486 78.9C252.019 79.5907 251.375 80.16 250.554 80.608C249.751 81.056 248.743 81.28 247.53 81.28ZM256.35 81H253.578V76.632L253.326 76.492V67.084H256.35V81ZM268.225 81H265.033C263.54 81 262.355 80.636 261.477 79.908C260.619 79.18 260.189 77.976 260.189 76.296V64.032H263.185V76.128C263.185 76.9867 263.391 77.5653 263.801 77.864C264.212 78.144 264.847 78.284 265.705 78.284H268.225V81ZM268.225 69.604H257.837V67.084H268.225V69.604ZM277.142 85.76H275.154V83.016H277.87C278.486 83.016 278.943 82.9133 279.242 82.708C279.559 82.5213 279.821 82.1947 280.026 81.728L280.894 79.852L280.558 81.392L273.502 67.084H276.89L280.446 74.476L281.818 77.808H282.042L283.358 74.448L286.634 67.084H289.966L282.714 82.512C282.341 83.3333 281.902 83.9773 281.398 84.444C280.894 84.9293 280.297 85.2653 279.606 85.452C278.915 85.6573 278.094 85.76 277.142 85.76ZM298.557 81.28C297.026 81.28 295.673 80.9813 294.497 80.384C293.34 79.768 292.434 78.9187 291.781 77.836C291.146 76.7347 290.829 75.4747 290.829 74.056C290.829 72.6 291.146 71.3307 291.781 70.248C292.434 69.1653 293.34 68.3253 294.497 67.728C295.673 67.112 297.026 66.804 298.557 66.804C300.125 66.804 301.488 67.112 302.645 67.728C303.802 68.3253 304.698 69.1653 305.333 70.248C305.986 71.3307 306.313 72.6 306.313 74.056C306.313 75.4747 305.986 76.7347 305.333 77.836C304.698 78.9187 303.802 79.768 302.645 80.384C301.488 80.9813 300.125 81.28 298.557 81.28ZM298.557 78.592C300.256 78.592 301.478 78.2093 302.225 77.444C302.972 76.66 303.345 75.5307 303.345 74.056C303.345 72.5813 302.972 71.452 302.225 70.668C301.478 69.8653 300.256 69.464 298.557 69.464C296.877 69.464 295.664 69.8653 294.917 70.668C294.17 71.452 293.797 72.5813 293.797 74.056C293.797 75.5307 294.17 76.66 294.917 77.444C295.664 78.2093 296.877 78.592 298.557 78.592ZM314.303 81.28C312.997 81.28 311.914 81.0187 311.055 80.496C310.197 79.9733 309.553 79.2733 309.123 78.396C308.694 77.5187 308.479 76.5387 308.479 75.456V67.084H311.475V74.644C311.475 75.932 311.793 76.912 312.427 77.584C313.081 78.2373 314.145 78.564 315.619 78.564C317.169 78.564 318.298 78.1813 319.007 77.416C319.735 76.632 320.099 75.484 320.099 73.972L320.631 73.944L320.799 76.688H320.155C320.025 77.472 319.726 78.2093 319.259 78.9C318.793 79.5907 318.149 80.16 317.327 80.608C316.525 81.056 315.517 81.28 314.303 81.28ZM323.123 81H320.351V76.632L320.099 76.492V67.084H323.123V81ZM329.119 81H325.311V76.66H329.119V81ZM334.615 81H330.807V76.66H334.615V81ZM340.111 81H336.303V76.66H340.111V81Z" fill="black"/>
</svg>
