<svg width="357" height="73" viewBox="0 0 357 73" fill="none" xmlns="http://www.w3.org/2000/svg">
<rect x="1" y="1" width="355" height="71" rx="35.5" fill="white" stroke="black" stroke-width="2"/>
<path d="M46.716 48H44.16V23.88H46.716V48ZM62.016 48H44.952V45.66H62.016V48ZM67.4582 48H64.9022V23.88H67.4582V48ZM83.2262 48H65.7662V45.66H83.2262V48ZM82.6862 37.02H65.7662V34.716H82.6862V37.02ZM83.2262 26.22H65.7662V23.88H83.2262V26.22ZM97.5325 48H94.9765V23.88H97.5325V48ZM107.433 26.22H85.0405V23.88H107.433V26.22ZM112.061 28.884H108.893V23.88H112.061V28.884ZM109.613 32.052H108.857V30.504H109.577C109.817 30.504 109.997 30.456 110.117 30.36C110.237 30.24 110.297 30.024 110.297 29.712V28.056H112.061V29.676C112.061 30.492 111.845 31.092 111.413 31.476C110.981 31.86 110.381 32.052 109.613 32.052ZM124.676 48.36C122.324 48.36 120.368 48.012 118.808 47.316C117.272 46.62 116.132 45.672 115.388 44.472C114.644 43.248 114.272 41.88 114.272 40.368V40.152H116.864V40.62C116.864 41.772 117.116 42.744 117.62 43.536C118.148 44.328 118.988 44.928 120.14 45.336C121.292 45.744 122.804 45.948 124.676 45.948C126.308 45.948 127.628 45.804 128.636 45.516C129.668 45.228 130.436 44.784 130.94 44.184C131.444 43.56 131.696 42.792 131.696 41.88C131.696 40.536 131.276 39.564 130.436 38.964C129.62 38.34 128.324 37.848 126.548 37.488L121.436 36.516C120.14 36.252 118.952 35.88 117.872 35.4C116.816 34.92 115.964 34.26 115.316 33.42C114.692 32.556 114.38 31.452 114.38 30.108C114.38 29.292 114.56 28.5 114.92 27.732C115.304 26.94 115.88 26.232 116.648 25.608C117.416 24.96 118.412 24.456 119.636 24.096C120.884 23.712 122.372 23.52 124.1 23.52C126.38 23.52 128.24 23.88 129.68 24.6C131.12 25.32 132.188 26.292 132.884 27.516C133.58 28.716 133.928 30.048 133.928 31.512V31.728H131.336V31.296C131.336 30.144 131.084 29.172 130.58 28.38C130.076 27.564 129.284 26.952 128.204 26.544C127.124 26.136 125.696 25.932 123.92 25.932C122.336 25.932 121.028 26.088 119.996 26.4C118.964 26.688 118.196 27.132 117.692 27.732C117.212 28.308 116.972 29.04 116.972 29.928C116.972 30.816 117.152 31.536 117.512 32.088C117.896 32.64 118.46 33.072 119.204 33.384C119.972 33.696 120.944 33.984 122.12 34.248L127.196 35.256C128.636 35.52 129.884 35.916 130.94 36.444C131.996 36.972 132.812 37.668 133.388 38.532C133.988 39.372 134.288 40.416 134.288 41.664C134.288 42.792 133.952 43.872 133.28 44.904C132.608 45.936 131.564 46.776 130.148 47.424C128.732 48.048 126.908 48.36 124.676 48.36ZM155.015 48.36C152.735 48.36 150.707 47.856 148.931 46.848C147.179 45.816 145.799 44.376 144.791 42.528C143.807 40.656 143.315 38.46 143.315 35.94C143.315 33.42 143.831 31.236 144.863 29.388C145.895 27.516 147.323 26.076 149.147 25.068C150.995 24.036 153.119 23.52 155.519 23.52C157.607 23.52 159.479 23.88 161.135 24.6C162.791 25.32 164.087 26.34 165.023 27.66C165.983 28.956 166.463 30.504 166.463 32.304V32.628H163.691V32.304C163.691 30.312 162.983 28.764 161.567 27.66C160.175 26.556 158.147 26.004 155.483 26.004C153.443 26.004 151.715 26.388 150.299 27.156C148.907 27.9 147.839 29.004 147.095 30.468C146.375 31.932 146.015 33.756 146.015 35.94C146.015 38.1 146.375 39.924 147.095 41.412C147.815 42.876 148.871 43.992 150.263 44.76C151.679 45.504 153.383 45.876 155.375 45.876C157.295 45.876 158.879 45.636 160.127 45.156C161.399 44.652 162.347 43.896 162.971 42.888C163.595 41.88 163.907 40.596 163.907 39.036V38.496L166.463 38.748V39.324L164.483 42.744H164.015C163.607 44.04 162.971 45.108 162.107 45.948C161.243 46.764 160.199 47.376 158.975 47.784C157.775 48.168 156.455 48.36 155.015 48.36ZM166.463 48H164.195V42.24L163.907 41.844V36.588H166.463V48ZM166.463 38.136H154.331V36.12H166.463V38.136ZM181.604 48.36C179.228 48.36 177.116 47.856 175.268 46.848C173.444 45.816 172.016 44.376 170.984 42.528C169.952 40.656 169.436 38.46 169.436 35.94C169.436 33.42 169.952 31.236 170.984 29.388C172.016 27.516 173.444 26.076 175.268 25.068C177.116 24.036 179.228 23.52 181.604 23.52C184.028 23.52 186.152 24.036 187.976 25.068C189.8 26.076 191.228 27.516 192.26 29.388C193.316 31.236 193.844 33.42 193.844 35.94C193.844 38.46 193.316 40.656 192.26 42.528C191.228 44.376 189.8 45.816 187.976 46.848C186.152 47.856 184.028 48.36 181.604 48.36ZM181.604 45.876C183.644 45.876 185.372 45.504 186.788 44.76C188.204 43.992 189.284 42.876 190.028 41.412C190.772 39.924 191.144 38.1 191.144 35.94C191.144 33.756 190.772 31.932 190.028 30.468C189.284 29.004 188.204 27.9 186.788 27.156C185.372 26.388 183.644 26.004 181.604 26.004C179.588 26.004 177.872 26.388 176.456 27.156C175.04 27.9 173.96 29.004 173.216 30.468C172.496 31.932 172.136 33.756 172.136 35.94C172.136 38.1 172.496 39.924 173.216 41.412C173.96 42.876 175.04 43.992 176.456 44.76C177.872 45.504 179.588 45.876 181.604 45.876Z" fill="black"/>
<path d="M324 37C324 37 308.736 35.6672 308.736 22" stroke="black" stroke-width="2" stroke-miterlimit="10"/>
<path d="M218 37L324 37.2204" stroke="black" stroke-width="2" stroke-miterlimit="10"/>
<path d="M324 37C324 37 308.736 38.244 308.736 51" stroke="black" stroke-width="2" stroke-miterlimit="10"/>
</svg>
