<svg width="535" height="121" viewBox="0 0 535 121" fill="none" xmlns="http://www.w3.org/2000/svg">
<path d="M87.2042 81.8212L87.3221 80.9562H88.1951L452.091 80.9562C475.308 80.9562 493 64.5233 493 42.5C493 20.4543 475.285 3 452.091 3.00002L452.086 2.99999L42.9363 1C42.9352 1 42.9341 1 42.933 1C19.7357 1.0017 1 18.9384 1 40.9781C1 63.0074 19.7375 80.9562 42.9483 80.9562H50.9628H51.9019L51.9608 81.8934L50.9628 81.9562C51.9608 81.8934 51.9608 81.894 51.9609 81.8947L51.961 81.8965L51.9613 81.9013L51.9621 81.9164L51.9647 81.9682C51.9667 82.0122 51.9692 82.0752 51.9715 82.1564C51.976 82.3189 51.9797 82.5546 51.9769 82.8583C51.9714 83.4657 51.9399 84.3457 51.8377 85.4575C51.6332 87.6808 51.1454 90.8331 50.0144 94.5866C47.8812 101.666 43.4636 110.87 34.3702 120C35.7268 119.998 37.6109 119.952 39.8655 119.782C44.6347 119.422 51.0387 118.508 57.6073 116.301C70.725 111.894 84.4025 102.383 87.2042 81.8212Z" fill="white" stroke="black" stroke-width="2"/>
<path d="M66.424 50H63.4V31.24H66.424V50ZM77.0334 50H74.0094V31.24H77.0334V50ZM82.8576 50H79.8336V36.084H82.8576V50ZM82.8576 34.46H79.8336V31.24H82.8576V34.46ZM100.33 50H96.7738L92.6578 44.316H87.3378V41.6H92.6578L96.8298 36.084H100.358L95.1218 42.776L100.33 50ZM88.6818 50H85.6578V31.24H88.6818V50ZM108.845 50.28C107.333 50.28 106.008 50 104.869 49.44C103.731 48.88 102.844 48.0587 102.209 46.976C101.593 45.8933 101.285 44.5867 101.285 43.056C101.285 41.6 101.593 40.3307 102.209 39.248C102.844 38.1653 103.721 37.3253 104.841 36.728C105.961 36.112 107.277 35.804 108.789 35.804C110.227 35.804 111.487 36.0653 112.569 36.588C113.671 37.092 114.52 37.8387 115.117 38.828C115.733 39.7987 116.041 40.9933 116.041 42.412C116.041 42.6547 116.032 42.888 116.013 43.112C115.995 43.3173 115.967 43.5227 115.929 43.728H103.217V42.048H113.941L113.157 43.084C113.176 42.8973 113.185 42.72 113.185 42.552C113.185 42.3653 113.185 42.1787 113.185 41.992C113.185 40.704 112.812 39.752 112.065 39.136C111.337 38.5013 110.227 38.184 108.733 38.184C107.072 38.184 105.887 38.5667 105.177 39.332C104.468 40.0973 104.113 41.1987 104.113 42.636V43.364C104.113 44.82 104.468 45.9307 105.177 46.696C105.887 47.4613 107.081 47.844 108.761 47.844C110.217 47.844 111.263 47.62 111.897 47.172C112.551 46.7053 112.877 46.0613 112.877 45.24V45.016H115.901V45.268C115.901 46.2573 115.593 47.1347 114.977 47.9C114.38 48.6467 113.549 49.2347 112.485 49.664C111.44 50.0747 110.227 50.28 108.845 50.28ZM137.735 50H134.739V42.44C134.739 41.04 134.413 40.0413 133.759 39.444C133.106 38.828 132.051 38.52 130.595 38.52C129.494 38.52 128.617 38.716 127.963 39.108C127.31 39.4813 126.834 40.0227 126.535 40.732C126.255 41.4227 126.115 42.2627 126.115 43.252L125.527 43.28L125.667 40.34H126.283C126.451 39.556 126.75 38.8187 127.179 38.128C127.627 37.4373 128.253 36.8773 129.055 36.448C129.858 36.0187 130.847 35.804 132.023 35.804C133.293 35.804 134.347 36.0653 135.187 36.588C136.046 37.092 136.681 37.792 137.091 38.688C137.521 39.5653 137.735 40.5733 137.735 41.712V50ZM126.115 50H123.091V31.24H126.115V50ZM147.567 50.28C146.036 50.28 144.683 49.9813 143.507 49.384C142.349 48.768 141.444 47.9187 140.791 46.836C140.156 45.7347 139.839 44.4747 139.839 43.056C139.839 41.6 140.156 40.3307 140.791 39.248C141.444 38.1653 142.349 37.3253 143.507 36.728C144.683 36.112 146.036 35.804 147.567 35.804C149.135 35.804 150.497 36.112 151.655 36.728C152.812 37.3253 153.708 38.1653 154.343 39.248C154.996 40.3307 155.323 41.6 155.323 43.056C155.323 44.4747 154.996 45.7347 154.343 46.836C153.708 47.9187 152.812 48.768 151.655 49.384C150.497 49.9813 149.135 50.28 147.567 50.28ZM147.567 47.592C149.265 47.592 150.488 47.2093 151.235 46.444C151.981 45.66 152.355 44.5307 152.355 43.056C152.355 41.5813 151.981 40.452 151.235 39.668C150.488 38.8653 149.265 38.464 147.567 38.464C145.887 38.464 144.673 38.8653 143.927 39.668C143.18 40.452 142.807 41.5813 142.807 43.056C142.807 44.5307 143.18 45.66 143.927 46.444C144.673 47.2093 145.887 47.592 147.567 47.592ZM164.181 50H160.429L156.257 36.084H159.393L161.717 43.98L162.361 47.564H162.585L163.621 43.7L166.533 36.084H170.397L173.337 43.7L174.373 47.564H174.597L175.241 43.98L177.565 36.084H180.645L176.417 50H172.665L169.613 41.992L168.549 38.576H168.325L167.261 41.992L164.181 50ZM193.994 50.28C192.464 50.28 191.129 49.9813 189.99 49.384C188.852 48.768 187.965 47.9187 187.33 46.836C186.714 45.7347 186.406 44.4747 186.406 43.056C186.406 41.6 186.714 40.3307 187.33 39.248C187.965 38.1653 188.852 37.3253 189.99 36.728C191.129 36.112 192.464 35.804 193.994 35.804C195.394 35.804 196.636 36.0467 197.718 36.532C198.801 37.0173 199.65 37.6987 200.266 38.576C200.901 39.4347 201.218 40.452 201.218 41.628V41.908H198.222V41.74C198.222 40.6573 197.849 39.8547 197.102 39.332C196.356 38.7907 195.301 38.52 193.938 38.52C192.37 38.52 191.222 38.9027 190.494 39.668C189.766 40.4147 189.402 41.544 189.402 43.056C189.402 44.5493 189.766 45.6787 190.494 46.444C191.222 47.1907 192.37 47.564 193.938 47.564C195.301 47.564 196.356 47.3027 197.102 46.78C197.849 46.2387 198.222 45.4267 198.222 44.344V44.148H201.218V44.456C201.218 45.6133 200.901 46.6307 200.266 47.508C199.65 48.3853 198.801 49.0667 197.718 49.552C196.636 50.0373 195.394 50.28 193.994 50.28ZM218.099 50H215.103V42.44C215.103 41.04 214.776 40.0413 214.123 39.444C213.469 38.828 212.415 38.52 210.959 38.52C209.857 38.52 208.98 38.716 208.327 39.108C207.673 39.4813 207.197 40.0227 206.899 40.732C206.619 41.4227 206.479 42.2627 206.479 43.252L205.891 43.28L206.031 40.34H206.647C206.815 39.556 207.113 38.8187 207.543 38.128C207.991 37.4373 208.616 36.8773 209.419 36.448C210.221 36.0187 211.211 35.804 212.387 35.804C213.656 35.804 214.711 36.0653 215.551 36.588C216.409 37.092 217.044 37.792 217.455 38.688C217.884 39.5653 218.099 40.5733 218.099 41.712V50ZM206.479 50H203.455V31.24H206.479V50ZM223.842 50H220.818V36.084H223.842V50ZM223.842 34.46H220.818V31.24H223.842V34.46ZM229.666 50H226.642V31.24H229.666V50ZM235.49 50H232.466V31.24H235.49V50ZM245.316 54.76H243.328V52.016H246.044C246.66 52.016 247.117 51.9133 247.416 51.708C247.733 51.5213 247.994 51.1947 248.2 50.728L249.068 48.852L248.732 50.392L241.676 36.084H245.064L248.62 43.476L249.992 46.808H250.216L251.532 43.448L254.808 36.084H258.14L250.888 51.512C250.514 52.3333 250.076 52.9773 249.572 53.444C249.068 53.9293 248.47 54.2653 247.78 54.452C247.089 54.6573 246.268 54.76 245.316 54.76ZM266.731 50.28C265.2 50.28 263.847 49.9813 262.671 49.384C261.513 48.768 260.608 47.9187 259.955 46.836C259.32 45.7347 259.003 44.4747 259.003 43.056C259.003 41.6 259.32 40.3307 259.955 39.248C260.608 38.1653 261.513 37.3253 262.671 36.728C263.847 36.112 265.2 35.804 266.731 35.804C268.299 35.804 269.661 36.112 270.819 36.728C271.976 37.3253 272.872 38.1653 273.507 39.248C274.16 40.3307 274.487 41.6 274.487 43.056C274.487 44.4747 274.16 45.7347 273.507 46.836C272.872 47.9187 271.976 48.768 270.819 49.384C269.661 49.9813 268.299 50.28 266.731 50.28ZM266.731 47.592C268.429 47.592 269.652 47.2093 270.399 46.444C271.145 45.66 271.519 44.5307 271.519 43.056C271.519 41.5813 271.145 40.452 270.399 39.668C269.652 38.8653 268.429 38.464 266.731 38.464C265.051 38.464 263.837 38.8653 263.091 39.668C262.344 40.452 261.971 41.5813 261.971 43.056C261.971 44.5307 262.344 45.66 263.091 46.444C263.837 47.2093 265.051 47.592 266.731 47.592ZM282.477 50.28C281.171 50.28 280.088 50.0187 279.229 49.496C278.371 48.9733 277.727 48.2733 277.297 47.396C276.868 46.5187 276.653 45.5387 276.653 44.456V36.084H279.649V43.644C279.649 44.932 279.967 45.912 280.601 46.584C281.255 47.2373 282.319 47.564 283.793 47.564C285.343 47.564 286.472 47.1813 287.181 46.416C287.909 45.632 288.273 44.484 288.273 42.972L288.805 42.944L288.973 45.688H288.329C288.199 46.472 287.9 47.2093 287.433 47.9C286.967 48.5907 286.323 49.16 285.501 49.608C284.699 50.056 283.691 50.28 282.477 50.28ZM291.297 50H288.525V45.632L288.273 45.492V36.084H291.297V50ZM311.99 50H309.218V46.416L309.022 46.332V41.572C309.022 40.4147 308.742 39.612 308.182 39.164C307.64 38.6973 306.698 38.464 305.354 38.464C304.066 38.464 303.104 38.688 302.47 39.136C301.835 39.584 301.518 40.3213 301.518 41.348V41.46H298.522V41.348C298.522 40.284 298.802 39.3413 299.362 38.52C299.922 37.68 300.724 37.0173 301.77 36.532C302.834 36.0467 304.103 35.804 305.578 35.804C307.052 35.804 308.256 36.056 309.19 36.56C310.142 37.0453 310.842 37.7173 311.29 38.576C311.756 39.4347 311.99 40.424 311.99 41.544V50ZM302.918 50.28C301.48 50.28 300.332 49.9627 299.474 49.328C298.634 48.6747 298.214 47.7787 298.214 46.64C298.214 45.912 298.391 45.3053 298.746 44.82C299.119 44.316 299.642 43.924 300.314 43.644C300.986 43.364 301.779 43.168 302.694 43.056L309.302 42.356V44.148L303.562 44.792C302.778 44.8853 302.19 45.0533 301.798 45.296C301.424 45.52 301.238 45.9027 301.238 46.444C301.238 47.004 301.434 47.424 301.826 47.704C302.236 47.9653 302.871 48.096 303.73 48.096C304.794 48.096 305.718 47.9653 306.502 47.704C307.286 47.424 307.902 46.9947 308.35 46.416C308.798 45.8373 309.022 45.0907 309.022 44.176L309.414 44.232V46.528H309.022C308.648 47.704 307.93 48.628 306.866 49.3C305.82 49.9533 304.504 50.28 302.918 50.28ZM317.713 50H314.689V36.084H317.461V40.032L317.713 40.172V50ZM317.713 42.188H317.041V39.836H317.657C317.788 39.0707 318.049 38.3893 318.441 37.792C318.833 37.176 319.356 36.6907 320.009 36.336C320.681 35.9813 321.493 35.804 322.445 35.804C323.509 35.804 324.377 36.028 325.049 36.476C325.721 36.924 326.206 37.5213 326.505 38.268C326.822 39.0147 326.981 39.8267 326.981 40.704V42.524H323.985V41.292C323.985 40.284 323.761 39.5467 323.313 39.08C322.865 38.6133 322.118 38.38 321.073 38.38C319.878 38.38 319.02 38.7067 318.497 39.36C317.974 40.0133 317.713 40.956 317.713 42.188ZM335.88 50.28C334.368 50.28 333.043 50 331.904 49.44C330.766 48.88 329.879 48.0587 329.244 46.976C328.628 45.8933 328.32 44.5867 328.32 43.056C328.32 41.6 328.628 40.3307 329.244 39.248C329.879 38.1653 330.756 37.3253 331.876 36.728C332.996 36.112 334.312 35.804 335.824 35.804C337.262 35.804 338.522 36.0653 339.604 36.588C340.706 37.092 341.555 37.8387 342.152 38.828C342.768 39.7987 343.076 40.9933 343.076 42.412C343.076 42.6547 343.067 42.888 343.048 43.112C343.03 43.3173 343.002 43.5227 342.964 43.728H330.252V42.048H340.976L340.192 43.084C340.211 42.8973 340.22 42.72 340.22 42.552C340.22 42.3653 340.22 42.1787 340.22 41.992C340.22 40.704 339.847 39.752 339.1 39.136C338.372 38.5013 337.262 38.184 335.768 38.184C334.107 38.184 332.922 38.5667 332.212 39.332C331.503 40.0973 331.148 41.1987 331.148 42.636V43.364C331.148 44.82 331.503 45.9307 332.212 46.696C332.922 47.4613 334.116 47.844 335.796 47.844C337.252 47.844 338.298 47.62 338.932 47.172C339.586 46.7053 339.912 46.0613 339.912 45.24V45.016H342.936V45.268C342.936 46.2573 342.628 47.1347 342.012 47.9C341.415 48.6467 340.584 49.2347 339.52 49.664C338.475 50.0747 337.262 50.28 335.88 50.28Z" fill="black"/>
</svg>
