<svg width="414" height="121" viewBox="0 0 414 121" fill="none" xmlns="http://www.w3.org/2000/svg">
<path d="M83.1864 81.8272L83.2997 80.9562H84.1781L373.5 80.9562C395.593 80.9562 412.5 64.5663 412.5 42.5C412.5 20.4105 395.569 3 373.5 3.00002L373.494 2.99998L40.9807 1C40.9795 1 40.9784 1 40.9772 1C18.9042 1.00187 1 18.8951 1 40.9781C1 63.0508 18.9061 80.9562 40.9922 80.9562H48.6416H49.5834L49.6398 81.8963L48.6416 81.9562C49.6398 81.8963 49.6398 81.8969 49.6399 81.8975L49.64 81.8992L49.6402 81.9039L49.641 81.9189L49.6435 81.9703C49.6454 82.014 49.6478 82.0767 49.6499 82.1577C49.6543 82.3197 49.6578 82.5547 49.6551 82.8579C49.6498 83.4641 49.6198 84.3429 49.5224 85.4534C49.3274 87.674 48.8624 90.8236 47.7836 94.5745C45.748 101.652 41.5296 110.862 32.8375 120C34.1277 119.998 35.9115 119.951 38.0428 119.782C42.5895 119.422 48.6942 118.51 54.9554 116.306C67.4474 111.909 80.5097 102.409 83.1864 81.8272Z" fill="white" stroke="black" stroke-width="2"/>
<path d="M49.948 44.7H47.148L38.804 32.24H42.5L46.924 38.904L48.492 41.284H48.716L50.256 38.904L54.652 32.24H58.376L49.948 44.7ZM50.032 51H47.036V42.74H50.032V51ZM66.5406 51.28C65.0286 51.28 63.7033 51 62.5646 50.44C61.426 49.88 60.5393 49.0587 59.9046 47.976C59.2886 46.8933 58.9806 45.5867 58.9806 44.056C58.9806 42.6 59.2886 41.3307 59.9046 40.248C60.5393 39.1653 61.4166 38.3253 62.5366 37.728C63.6566 37.112 64.9726 36.804 66.4846 36.804C67.922 36.804 69.182 37.0653 70.2646 37.588C71.366 38.092 72.2153 38.8387 72.8126 39.828C73.4286 40.7987 73.7366 41.9933 73.7366 43.412C73.7366 43.6547 73.7273 43.888 73.7086 44.112C73.69 44.3173 73.662 44.5227 73.6246 44.728H60.9126V43.048H71.6366L70.8526 44.084C70.8713 43.8973 70.8806 43.72 70.8806 43.552C70.8806 43.3653 70.8806 43.1787 70.8806 42.992C70.8806 41.704 70.5073 40.752 69.7606 40.136C69.0326 39.5013 67.922 39.184 66.4286 39.184C64.7673 39.184 63.582 39.5667 62.8726 40.332C62.1633 41.0973 61.8086 42.1987 61.8086 43.636V44.364C61.8086 45.82 62.1633 46.9307 62.8726 47.696C63.582 48.4613 64.7766 48.844 66.4566 48.844C67.9126 48.844 68.958 48.62 69.5926 48.172C70.246 47.7053 70.5726 47.0613 70.5726 46.24V46.016H73.5966V46.268C73.5966 47.2573 73.2886 48.1347 72.6726 48.9C72.0753 49.6467 71.2446 50.2347 70.1806 50.664C69.1353 51.0747 67.922 51.28 66.5406 51.28ZM89.1616 51H86.3896V47.416L86.1936 47.332V42.572C86.1936 41.4147 85.9136 40.612 85.3536 40.164C84.8122 39.6973 83.8696 39.464 82.5256 39.464C81.2376 39.464 80.2762 39.688 79.6416 40.136C79.0069 40.584 78.6896 41.3213 78.6896 42.348V42.46H75.6936V42.348C75.6936 41.284 75.9736 40.3413 76.5336 39.52C77.0936 38.68 77.8962 38.0173 78.9416 37.532C80.0056 37.0467 81.2749 36.804 82.7496 36.804C84.2242 36.804 85.4282 37.056 86.3616 37.56C87.3136 38.0453 88.0136 38.7173 88.4616 39.576C88.9282 40.4347 89.1616 41.424 89.1616 42.544V51ZM80.0896 51.28C78.6522 51.28 77.5042 50.9627 76.6456 50.328C75.8056 49.6747 75.3856 48.7787 75.3856 47.64C75.3856 46.912 75.5629 46.3053 75.9176 45.82C76.2909 45.316 76.8136 44.924 77.4856 44.644C78.1576 44.364 78.9509 44.168 79.8656 44.056L86.4736 43.356V45.148L80.7336 45.792C79.9496 45.8853 79.3616 46.0533 78.9696 46.296C78.5962 46.52 78.4096 46.9027 78.4096 47.444C78.4096 48.004 78.6056 48.424 78.9976 48.704C79.4082 48.9653 80.0429 49.096 80.9016 49.096C81.9656 49.096 82.8896 48.9653 83.6736 48.704C84.4576 48.424 85.0736 47.9947 85.5216 47.416C85.9696 46.8373 86.1936 46.0907 86.1936 45.176L86.5856 45.232V47.528H86.1936C85.8202 48.704 85.1016 49.628 84.0376 50.3C82.9922 50.9533 81.6762 51.28 80.0896 51.28ZM106.505 51H103.509V43.44C103.509 42.04 103.182 41.0413 102.529 40.444C101.876 39.828 100.821 39.52 99.3649 39.52C98.2636 39.52 97.3863 39.716 96.7329 40.108C96.0796 40.4813 95.6036 41.0227 95.3049 41.732C95.0249 42.4227 94.8849 43.2627 94.8849 44.252L94.2969 44.28L94.4369 41.34H95.0529C95.2209 40.556 95.5196 39.8187 95.9489 39.128C96.3969 38.4373 97.0223 37.8773 97.8249 37.448C98.6276 37.0187 99.6169 36.804 100.793 36.804C102.062 36.804 103.117 37.0653 103.957 37.588C104.816 38.092 105.45 38.792 105.861 39.688C106.29 40.5653 106.505 41.5733 106.505 42.712V51ZM94.8849 51H91.8609V32.24H94.8849V51ZM112.472 51H108.664V46.66H112.472V51ZM109.728 54.136H108.72V52.288H109.644C109.887 52.288 110.064 52.2413 110.176 52.148C110.288 52.0733 110.344 51.8867 110.344 51.588V50.356H112.472V51.56C112.472 52.4373 112.23 53.0813 111.744 53.492C111.278 53.9213 110.606 54.136 109.728 54.136ZM128.633 51H125.441C123.948 51 122.763 50.636 121.885 49.908C121.027 49.18 120.597 47.976 120.597 46.296V34.032H123.593V46.128C123.593 46.9867 123.799 47.5653 124.209 47.864C124.62 48.144 125.255 48.284 126.113 48.284H128.633V51ZM128.633 39.604H118.245V37.084H128.633V39.604ZM145.169 51H142.173V43.44C142.173 42.04 141.846 41.0413 141.193 40.444C140.54 39.828 139.485 39.52 138.029 39.52C136.928 39.52 136.05 39.716 135.397 40.108C134.744 40.4813 134.268 41.0227 133.969 41.732C133.689 42.4227 133.549 43.2627 133.549 44.252L132.961 44.28L133.101 41.34H133.717C133.885 40.556 134.184 39.8187 134.613 39.128C135.061 38.4373 135.686 37.8773 136.489 37.448C137.292 37.0187 138.281 36.804 139.457 36.804C140.726 36.804 141.781 37.0653 142.621 37.588C143.48 38.092 144.114 38.792 144.525 39.688C144.954 40.5653 145.169 41.5733 145.169 42.712V51ZM133.549 51H130.525V32.24H133.549V51ZM154.888 51.28C153.376 51.28 152.051 51 150.912 50.44C149.774 49.88 148.887 49.0587 148.252 47.976C147.636 46.8933 147.328 45.5867 147.328 44.056C147.328 42.6 147.636 41.3307 148.252 40.248C148.887 39.1653 149.764 38.3253 150.884 37.728C152.004 37.112 153.32 36.804 154.832 36.804C156.27 36.804 157.53 37.0653 158.612 37.588C159.714 38.092 160.563 38.8387 161.16 39.828C161.776 40.7987 162.084 41.9933 162.084 43.412C162.084 43.6547 162.075 43.888 162.056 44.112C162.038 44.3173 162.01 44.5227 161.972 44.728H149.26V43.048H159.984L159.2 44.084C159.219 43.8973 159.228 43.72 159.228 43.552C159.228 43.3653 159.228 43.1787 159.228 42.992C159.228 41.704 158.855 40.752 158.108 40.136C157.38 39.5013 156.27 39.184 154.776 39.184C153.115 39.184 151.93 39.5667 151.22 40.332C150.511 41.0973 150.156 42.1987 150.156 43.636V44.364C150.156 45.82 150.511 46.9307 151.22 47.696C151.93 48.4613 153.124 48.844 154.804 48.844C156.26 48.844 157.306 48.62 157.94 48.172C158.594 47.7053 158.92 47.0613 158.92 46.24V46.016H161.944V46.268C161.944 47.2573 161.636 48.1347 161.02 48.9C160.423 49.6467 159.592 50.2347 158.528 50.664C157.483 51.0747 156.27 51.28 154.888 51.28ZM166.589 55.76H164.601V53.016H167.317C167.933 53.016 168.391 52.9133 168.689 52.708C169.007 52.5213 169.268 52.1947 169.473 51.728L170.341 49.852L170.005 51.392L162.949 37.084H166.337L169.893 44.476L171.265 47.808H171.489L172.805 44.448L176.081 37.084H179.413L172.161 52.512C171.788 53.3333 171.349 53.9773 170.845 54.444C170.341 54.9293 169.744 55.2653 169.053 55.452C168.363 55.6573 167.541 55.76 166.589 55.76ZM184.14 36.58H180.332V32.24H184.14V36.58ZM181.396 39.744H180.388V37.896H181.312C181.555 37.896 181.732 37.8493 181.844 37.756C181.956 37.6627 182.012 37.4667 182.012 37.168V35.936H184.14V37.14C184.14 38.0173 183.898 38.6707 183.412 39.1C182.946 39.5293 182.274 39.744 181.396 39.744ZM189.412 51H186.388V37.084H189.16V41.032L189.412 41.172V51ZM189.412 43.188H188.74V40.836H189.356C189.487 40.0707 189.748 39.3893 190.14 38.792C190.532 38.176 191.055 37.6907 191.708 37.336C192.38 36.9813 193.192 36.804 194.144 36.804C195.208 36.804 196.076 37.028 196.748 37.476C197.42 37.924 197.906 38.5213 198.204 39.268C198.522 40.0147 198.68 40.8267 198.68 41.704V43.524H195.684V42.292C195.684 41.284 195.46 40.5467 195.012 40.08C194.564 39.6133 193.818 39.38 192.772 39.38C191.578 39.38 190.719 39.7067 190.196 40.36C189.674 41.0133 189.412 41.956 189.412 43.188ZM207.58 51.28C206.068 51.28 204.742 51 203.604 50.44C202.465 49.88 201.578 49.0587 200.944 47.976C200.328 46.8933 200.02 45.5867 200.02 44.056C200.02 42.6 200.328 41.3307 200.944 40.248C201.578 39.1653 202.456 38.3253 203.576 37.728C204.696 37.112 206.012 36.804 207.524 36.804C208.961 36.804 210.221 37.0653 211.304 37.588C212.405 38.092 213.254 38.8387 213.852 39.828C214.468 40.7987 214.776 41.9933 214.776 43.412C214.776 43.6547 214.766 43.888 214.748 44.112C214.729 44.3173 214.701 44.5227 214.664 44.728H201.952V43.048H212.676L211.892 44.084C211.91 43.8973 211.92 43.72 211.92 43.552C211.92 43.3653 211.92 43.1787 211.92 42.992C211.92 41.704 211.546 40.752 210.8 40.136C210.072 39.5013 208.961 39.184 207.468 39.184C205.806 39.184 204.621 39.5667 203.912 40.332C203.202 41.0973 202.848 42.1987 202.848 43.636V44.364C202.848 45.82 203.202 46.9307 203.912 47.696C204.621 48.4613 205.816 48.844 207.496 48.844C208.952 48.844 209.997 48.62 210.632 48.172C211.285 47.7053 211.612 47.0613 211.612 46.24V46.016H214.636V46.268C214.636 47.2573 214.328 48.1347 213.712 48.9C213.114 49.6467 212.284 50.2347 211.22 50.664C210.174 51.0747 208.961 51.28 207.58 51.28ZM230.758 51H227.062L220.566 37.084H223.898L228.854 48.06H229.078L234.034 37.084H237.31L230.758 51ZM245.861 51.28C244.349 51.28 243.024 51 241.885 50.44C240.746 49.88 239.86 49.0587 239.225 47.976C238.609 46.8933 238.301 45.5867 238.301 44.056C238.301 42.6 238.609 41.3307 239.225 40.248C239.86 39.1653 240.737 38.3253 241.857 37.728C242.977 37.112 244.293 36.804 245.805 36.804C247.242 36.804 248.502 37.0653 249.585 37.588C250.686 38.092 251.536 38.8387 252.133 39.828C252.749 40.7987 253.057 41.9933 253.057 43.412C253.057 43.6547 253.048 43.888 253.029 44.112C253.01 44.3173 252.982 44.5227 252.945 44.728H240.233V43.048H250.957L250.173 44.084C250.192 43.8973 250.201 43.72 250.201 43.552C250.201 43.3653 250.201 43.1787 250.201 42.992C250.201 41.704 249.828 40.752 249.081 40.136C248.353 39.5013 247.242 39.184 245.749 39.184C244.088 39.184 242.902 39.5667 242.193 40.332C241.484 41.0973 241.129 42.1987 241.129 43.636V44.364C241.129 45.82 241.484 46.9307 242.193 47.696C242.902 48.4613 244.097 48.844 245.777 48.844C247.233 48.844 248.278 48.62 248.913 48.172C249.566 47.7053 249.893 47.0613 249.893 46.24V46.016H252.917V46.268C252.917 47.2573 252.609 48.1347 251.993 48.9C251.396 49.6467 250.565 50.2347 249.501 50.664C248.456 51.0747 247.242 51.28 245.861 51.28ZM258.346 51H255.322V37.084H258.094V41.032L258.346 41.172V51ZM258.346 43.188H257.674V40.836H258.29C258.421 40.0707 258.682 39.3893 259.074 38.792C259.466 38.176 259.989 37.6907 260.642 37.336C261.314 36.9813 262.126 36.804 263.078 36.804C264.142 36.804 265.01 37.028 265.682 37.476C266.354 37.924 266.839 38.5213 267.138 39.268C267.455 40.0147 267.614 40.8267 267.614 41.704V43.524H264.618V42.292C264.618 41.284 264.394 40.5467 263.946 40.08C263.498 39.6133 262.751 39.38 261.706 39.38C260.511 39.38 259.653 39.7067 259.13 40.36C258.607 41.0133 258.346 41.956 258.346 43.188ZM271.753 55.76H269.765V53.016H272.481C273.097 53.016 273.555 52.9133 273.853 52.708C274.171 52.5213 274.432 52.1947 274.637 51.728L275.505 49.852L275.169 51.392L268.113 37.084H271.501L275.057 44.476L276.429 47.808H276.653L277.969 44.448L281.245 37.084H284.577L277.325 52.512C276.952 53.3333 276.513 53.9773 276.009 54.444C275.505 54.9293 274.908 55.2653 274.217 55.452C273.527 55.6573 272.705 55.76 271.753 55.76ZM297.869 51.28C296.339 51.28 295.004 50.9813 293.865 50.384C292.727 49.768 291.84 48.9187 291.205 47.836C290.589 46.7347 290.281 45.4747 290.281 44.056C290.281 42.6 290.589 41.3307 291.205 40.248C291.84 39.1653 292.727 38.3253 293.865 37.728C295.004 37.112 296.339 36.804 297.869 36.804C299.269 36.804 300.511 37.0467 301.593 37.532C302.676 38.0173 303.525 38.6987 304.141 39.576C304.776 40.4347 305.093 41.452 305.093 42.628V42.908H302.097V42.74C302.097 41.6573 301.724 40.8547 300.977 40.332C300.231 39.7907 299.176 39.52 297.813 39.52C296.245 39.52 295.097 39.9027 294.369 40.668C293.641 41.4147 293.277 42.544 293.277 44.056C293.277 45.5493 293.641 46.6787 294.369 47.444C295.097 48.1907 296.245 48.564 297.813 48.564C299.176 48.564 300.231 48.3027 300.977 47.78C301.724 47.2387 302.097 46.4267 302.097 45.344V45.148H305.093V45.456C305.093 46.6133 304.776 47.6307 304.141 48.508C303.525 49.3853 302.676 50.0667 301.593 50.552C300.511 51.0373 299.269 51.28 297.869 51.28ZM313.126 51.28C311.819 51.28 310.736 51.0187 309.878 50.496C309.019 49.9733 308.375 49.2733 307.946 48.396C307.516 47.5187 307.302 46.5387 307.302 45.456V37.084H310.298V44.644C310.298 45.932 310.615 46.912 311.25 47.584C311.903 48.2373 312.967 48.564 314.442 48.564C315.991 48.564 317.12 48.1813 317.83 47.416C318.558 46.632 318.922 45.484 318.922 43.972L319.454 43.944L319.622 46.688H318.978C318.847 47.472 318.548 48.2093 318.082 48.9C317.615 49.5907 316.971 50.16 316.15 50.608C315.347 51.056 314.339 51.28 313.126 51.28ZM321.946 51H319.174V46.632L318.922 46.492V37.084H321.946V51ZM333.821 51H330.629C329.136 51 327.95 50.636 327.073 49.908C326.214 49.18 325.785 47.976 325.785 46.296V34.032H328.781V46.128C328.781 46.9867 328.986 47.5653 329.397 47.864C329.808 48.144 330.442 48.284 331.301 48.284H333.821V51ZM333.821 39.604H323.433V37.084H333.821V39.604ZM342.713 51.28C341.201 51.28 339.875 51 338.737 50.44C337.598 49.88 336.711 49.0587 336.077 47.976C335.461 46.8933 335.153 45.5867 335.153 44.056C335.153 42.6 335.461 41.3307 336.077 40.248C336.711 39.1653 337.589 38.3253 338.709 37.728C339.829 37.112 341.145 36.804 342.657 36.804C344.094 36.804 345.354 37.0653 346.437 37.588C347.538 38.092 348.387 38.8387 348.985 39.828C349.601 40.7987 349.909 41.9933 349.909 43.412C349.909 43.6547 349.899 43.888 349.881 44.112C349.862 44.3173 349.834 44.5227 349.797 44.728H337.085V43.048H347.809L347.025 44.084C347.043 43.8973 347.053 43.72 347.053 43.552C347.053 43.3653 347.053 43.1787 347.053 42.992C347.053 41.704 346.679 40.752 345.933 40.136C345.205 39.5013 344.094 39.184 342.601 39.184C340.939 39.184 339.754 39.5667 339.045 40.332C338.335 41.0973 337.981 42.1987 337.981 43.636V44.364C337.981 45.82 338.335 46.9307 339.045 47.696C339.754 48.4613 340.949 48.844 342.629 48.844C344.085 48.844 345.13 48.62 345.765 48.172C346.418 47.7053 346.745 47.0613 346.745 46.24V46.016H349.769V46.268C349.769 47.2573 349.461 48.1347 348.845 48.9C348.247 49.6467 347.417 50.2347 346.353 50.664C345.307 51.0747 344.094 51.28 342.713 51.28ZM355.421 51H351.613V46.66H355.421V51ZM360.918 51H357.11V46.66H360.918V51ZM366.414 51H362.606V46.66H366.414V51Z" fill="black"/>
</svg>
