<svg width="424" height="221" viewBox="0 0 424 221" fill="none" xmlns="http://www.w3.org/2000/svg">
<mask id="path-1-outside-1_733_5" maskUnits="userSpaceOnUse" x="0.043457" y="0" width="424" height="221" fill="black">
<rect fill="white" x="0.043457" width="424" height="221"/>
<path fill-rule="evenodd" clip-rule="evenodd" d="M42.0435 2C19.9521 2 2.04346 19.9086 2.04346 42V138.312C2.04346 160.404 19.9521 178.312 42.0435 178.312H56.6438C56.6914 179.397 57.31 199.585 38.5058 218.945C38.5058 218.945 86.666 222.214 92.1724 178.312H382C404.091 178.312 422 160.404 422 138.312V42C422 19.9086 404.091 2 382 2H42.0435Z"/>
</mask>
<path fill-rule="evenodd" clip-rule="evenodd" d="M42.0435 2C19.9521 2 2.04346 19.9086 2.04346 42V138.312C2.04346 160.404 19.9521 178.312 42.0435 178.312H56.6438C56.6914 179.397 57.31 199.585 38.5058 218.945C38.5058 218.945 86.666 222.214 92.1724 178.312H382C404.091 178.312 422 160.404 422 138.312V42C422 19.9086 404.091 2 382 2H42.0435Z" fill="white"/>
<path d="M56.6438 178.312L58.6419 178.225L58.5579 176.312H56.6438V178.312ZM38.5058 218.945L37.0711 217.552L34.0635 220.648L38.3704 220.94L38.5058 218.945ZM92.1724 178.312V176.312H90.4075L90.1879 178.064L92.1724 178.312ZM4.04346 42C4.04346 21.0132 21.0566 4 42.0435 4V0C18.8475 0 0.043457 18.804 0.043457 42H4.04346ZM4.04346 138.312V42H0.043457V138.312H4.04346ZM42.0435 176.312C21.0567 176.312 4.04346 159.299 4.04346 138.312H0.043457C0.043457 161.508 18.8475 180.312 42.0435 180.312V176.312ZM56.6438 176.312H42.0435V180.312H56.6438V176.312ZM39.9405 220.339C59.2801 200.427 58.702 179.596 58.6419 178.225L54.6457 178.4C54.6808 179.198 55.3399 198.743 37.0711 217.552L39.9405 220.339ZM90.1879 178.064C87.5506 199.09 74.801 208.732 62.5852 213.214C56.4384 215.47 50.4342 216.407 45.9525 216.777C43.7161 216.961 41.8706 217.003 40.5914 217C39.9521 216.998 39.4552 216.985 39.1226 216.972C38.9564 216.966 38.8313 216.96 38.7501 216.956C38.7095 216.954 38.6799 216.952 38.6617 216.951C38.6525 216.95 38.6462 216.95 38.6428 216.95C38.6411 216.95 38.6401 216.95 38.6398 216.95C38.6397 216.95 38.6401 216.95 38.64 216.95C38.6405 216.95 38.6412 216.95 38.5058 218.945C38.3704 220.94 38.3714 220.941 38.3727 220.941C38.3734 220.941 38.3748 220.941 38.3761 220.941C38.3788 220.941 38.3822 220.941 38.3863 220.942C38.3946 220.942 38.4057 220.943 38.4198 220.944C38.4478 220.945 38.4874 220.948 38.5381 220.95C38.6395 220.956 38.7855 220.963 38.9734 220.97C39.349 220.984 39.8921 220.998 40.5805 221C41.9566 221.004 43.9166 220.958 46.2813 220.763C51.0016 220.374 57.3817 219.384 63.9631 216.969C77.2041 212.111 91.2878 201.436 94.1568 178.561L90.1879 178.064ZM382 176.312H92.1724V180.312H382V176.312ZM420 138.312C420 159.299 402.987 176.312 382 176.312V180.312C405.196 180.312 424 161.508 424 138.312H420ZM420 42V138.312H424V42H420ZM382 4C402.987 4 420 21.0132 420 42H424C424 18.804 405.196 0 382 0V4ZM42.0435 4H382V0H42.0435V4Z" fill="black" mask="url(#path-1-outside-1_733_5)"/>
<path d="M50.108 48H42.548V45.284H50.108C51.564 45.284 52.7493 45.0693 53.664 44.64C54.5973 44.192 55.288 43.4827 55.736 42.512C56.184 41.5227 56.408 40.2253 56.408 38.62C56.408 36.996 56.184 35.6987 55.736 34.728C55.288 33.7573 54.5973 33.0573 53.664 32.628C52.7493 32.18 51.564 31.956 50.108 31.956H42.548V29.24H50.108C52.068 29.24 53.748 29.6227 55.148 30.388C56.5667 31.1347 57.6587 32.208 58.424 33.608C59.208 35.008 59.6 36.6787 59.6 38.62C59.6 40.5613 59.208 42.232 58.424 43.632C57.6587 45.032 56.5667 46.1147 55.148 46.88C53.748 47.6267 52.068 48 50.108 48ZM44.564 48H41.568V29.24H44.564V48ZM68.9651 48.28C67.4345 48.28 66.0811 47.9813 64.9051 47.384C63.7478 46.768 62.8425 45.9187 62.1891 44.836C61.5545 43.7347 61.2371 42.4747 61.2371 41.056C61.2371 39.6 61.5545 38.3307 62.1891 37.248C62.8425 36.1653 63.7478 35.3253 64.9051 34.728C66.0811 34.112 67.4345 33.804 68.9651 33.804C70.5331 33.804 71.8958 34.112 73.0531 34.728C74.2105 35.3253 75.1065 36.1653 75.7411 37.248C76.3945 38.3307 76.7211 39.6 76.7211 41.056C76.7211 42.4747 76.3945 43.7347 75.7411 44.836C75.1065 45.9187 74.2105 46.768 73.0531 47.384C71.8958 47.9813 70.5331 48.28 68.9651 48.28ZM68.9651 45.592C70.6638 45.592 71.8865 45.2093 72.6331 44.444C73.3798 43.66 73.7531 42.5307 73.7531 41.056C73.7531 39.5813 73.3798 38.452 72.6331 37.668C71.8865 36.8653 70.6638 36.464 68.9651 36.464C67.2851 36.464 66.0718 36.8653 65.3251 37.668C64.5785 38.452 64.2051 39.5813 64.2051 41.056C64.2051 42.5307 64.5785 43.66 65.3251 44.444C66.0718 45.2093 67.2851 45.592 68.9651 45.592ZM85.9408 52.76H83.9528V50.016H86.6688C87.2848 50.016 87.7421 49.9133 88.0408 49.708C88.3581 49.5213 88.6194 49.1947 88.8248 48.728L89.6928 46.852L89.3568 48.392L82.3008 34.084H85.6888L89.2448 41.476L90.6168 44.808H90.8408L92.1568 41.448L95.4328 34.084H98.7648L91.5128 49.512C91.1394 50.3333 90.7008 50.9773 90.1968 51.444C89.6928 51.9293 89.0954 52.2653 88.4048 52.452C87.7141 52.6573 86.8928 52.76 85.9408 52.76ZM107.356 48.28C105.825 48.28 104.472 47.9813 103.296 47.384C102.138 46.768 101.233 45.9187 100.58 44.836C99.9451 43.7347 99.6278 42.4747 99.6278 41.056C99.6278 39.6 99.9451 38.3307 100.58 37.248C101.233 36.1653 102.138 35.3253 103.296 34.728C104.472 34.112 105.825 33.804 107.356 33.804C108.924 33.804 110.286 34.112 111.444 34.728C112.601 35.3253 113.497 36.1653 114.132 37.248C114.785 38.3307 115.112 39.6 115.112 41.056C115.112 42.4747 114.785 43.7347 114.132 44.836C113.497 45.9187 112.601 46.768 111.444 47.384C110.286 47.9813 108.924 48.28 107.356 48.28ZM107.356 45.592C109.054 45.592 110.277 45.2093 111.024 44.444C111.77 43.66 112.144 42.5307 112.144 41.056C112.144 39.5813 111.77 38.452 111.024 37.668C110.277 36.8653 109.054 36.464 107.356 36.464C105.676 36.464 104.462 36.8653 103.716 37.668C102.969 38.452 102.596 39.5813 102.596 41.056C102.596 42.5307 102.969 43.66 103.716 44.444C104.462 45.2093 105.676 45.592 107.356 45.592ZM123.102 48.28C121.796 48.28 120.713 48.0187 119.854 47.496C118.996 46.9733 118.352 46.2733 117.922 45.396C117.493 44.5187 117.278 43.5387 117.278 42.456V34.084H120.274V41.644C120.274 42.932 120.592 43.912 121.226 44.584C121.88 45.2373 122.944 45.564 124.418 45.564C125.968 45.564 127.097 45.1813 127.806 44.416C128.534 43.632 128.898 42.484 128.898 40.972L129.43 40.944L129.598 43.688H128.954C128.824 44.472 128.525 45.2093 128.058 45.9C127.592 46.5907 126.948 47.16 126.126 47.608C125.324 48.056 124.316 48.28 123.102 48.28ZM131.922 48H129.15V43.632L128.898 43.492V34.084H131.922V48ZM154.127 48H150.571L146.455 42.316H141.135V39.6H146.455L150.627 34.084H154.155L148.919 40.776L154.127 48ZM142.479 48H139.455V29.24H142.479V48ZM170.174 48H167.15V40.44C167.15 39.1333 166.833 38.1533 166.198 37.5C165.582 36.8467 164.546 36.52 163.09 36.52C161.578 36.52 160.458 36.912 159.73 37.696C159.021 38.4613 158.666 39.6 158.666 41.112L158.134 41.14L157.994 38.396H158.61C158.76 37.612 159.058 36.8747 159.506 36.184C159.973 35.4747 160.608 34.9053 161.41 34.476C162.232 34.028 163.23 33.804 164.406 33.804C165.694 33.804 166.768 34.0653 167.626 34.588C168.485 35.1107 169.12 35.8107 169.53 36.688C169.96 37.5653 170.174 38.5453 170.174 39.628V48ZM158.666 48H155.642V34.084H158.414V38.452L158.666 38.592V48ZM179.981 48.28C178.45 48.28 177.097 47.9813 175.921 47.384C174.763 46.768 173.858 45.9187 173.205 44.836C172.57 43.7347 172.253 42.4747 172.253 41.056C172.253 39.6 172.57 38.3307 173.205 37.248C173.858 36.1653 174.763 35.3253 175.921 34.728C177.097 34.112 178.45 33.804 179.981 33.804C181.549 33.804 182.911 34.112 184.069 34.728C185.226 35.3253 186.122 36.1653 186.757 37.248C187.41 38.3307 187.737 39.6 187.737 41.056C187.737 42.4747 187.41 43.7347 186.757 44.836C186.122 45.9187 185.226 46.768 184.069 47.384C182.911 47.9813 181.549 48.28 179.981 48.28ZM179.981 45.592C181.679 45.592 182.902 45.2093 183.649 44.444C184.395 43.66 184.769 42.5307 184.769 41.056C184.769 39.5813 184.395 38.452 183.649 37.668C182.902 36.8653 181.679 36.464 179.981 36.464C178.301 36.464 177.087 36.8653 176.341 37.668C175.594 38.452 175.221 39.5813 175.221 41.056C175.221 42.5307 175.594 43.66 176.341 44.444C177.087 45.2093 178.301 45.592 179.981 45.592ZM196.595 48H192.843L188.671 34.084H191.807L194.131 41.98L194.775 45.564H194.999L196.035 41.7L198.947 34.084H202.811L205.751 41.7L206.787 45.564H207.011L207.655 41.98L209.979 34.084H213.059L208.831 48H205.079L202.027 39.992L200.963 36.576H200.739L199.675 39.992L196.595 48ZM228.508 48H225.316C223.823 48 222.638 47.636 221.76 46.908C220.902 46.18 220.472 44.976 220.472 43.296V31.032H223.468V43.128C223.468 43.9867 223.674 44.5653 224.084 44.864C224.495 45.144 225.13 45.284 225.988 45.284H228.508V48ZM228.508 36.604H218.12V34.084H228.508V36.604ZM245.044 48H242.048V40.44C242.048 39.04 241.721 38.0413 241.068 37.444C240.415 36.828 239.36 36.52 237.904 36.52C236.803 36.52 235.925 36.716 235.272 37.108C234.619 37.4813 234.143 38.0227 233.844 38.732C233.564 39.4227 233.424 40.2627 233.424 41.252L232.836 41.28L232.976 38.34H233.592C233.76 37.556 234.059 36.8187 234.488 36.128C234.936 35.4373 235.561 34.8773 236.364 34.448C237.167 34.0187 238.156 33.804 239.332 33.804C240.601 33.804 241.656 34.0653 242.496 34.588C243.355 35.092 243.989 35.792 244.4 36.688C244.829 37.5653 245.044 38.5733 245.044 39.712V48ZM233.424 48H230.4V29.24H233.424V48ZM260.923 48H258.151V44.416L257.955 44.332V39.572C257.955 38.4147 257.675 37.612 257.115 37.164C256.574 36.6973 255.631 36.464 254.287 36.464C252.999 36.464 252.038 36.688 251.403 37.136C250.769 37.584 250.451 38.3213 250.451 39.348V39.46H247.455V39.348C247.455 38.284 247.735 37.3413 248.295 36.52C248.855 35.68 249.658 35.0173 250.703 34.532C251.767 34.0467 253.037 33.804 254.511 33.804C255.986 33.804 257.19 34.056 258.123 34.56C259.075 35.0453 259.775 35.7173 260.223 36.576C260.69 37.4347 260.923 38.424 260.923 39.544V48ZM251.851 48.28C250.414 48.28 249.266 47.9627 248.407 47.328C247.567 46.6747 247.147 45.7787 247.147 44.64C247.147 43.912 247.325 43.3053 247.679 42.82C248.053 42.316 248.575 41.924 249.247 41.644C249.919 41.364 250.713 41.168 251.627 41.056L258.235 40.356V42.148L252.495 42.792C251.711 42.8853 251.123 43.0533 250.731 43.296C250.358 43.52 250.171 43.9027 250.171 44.444C250.171 45.004 250.367 45.424 250.759 45.704C251.17 45.9653 251.805 46.096 252.663 46.096C253.727 46.096 254.651 45.9653 255.435 45.704C256.219 45.424 256.835 44.9947 257.283 44.416C257.731 43.8373 257.955 43.0907 257.955 42.176L258.347 42.232V44.528H257.955C257.582 45.704 256.863 46.628 255.799 47.3C254.754 47.9533 253.438 48.28 251.851 48.28ZM272.751 48H269.559C268.065 48 266.88 47.636 266.003 46.908C265.144 46.18 264.715 44.976 264.715 43.296V31.032H267.711V43.128C267.711 43.9867 267.916 44.5653 268.327 44.864C268.737 45.144 269.372 45.284 270.231 45.284H272.751V48ZM272.751 36.604H262.363V34.084H272.751V36.604ZM282.451 48H279.427V29.24H282.451V48ZM303.197 48H300.425V44.416L300.229 44.332V39.572C300.229 38.4147 299.949 37.612 299.389 37.164C298.847 36.6973 297.905 36.464 296.561 36.464C295.273 36.464 294.311 36.688 293.677 37.136C293.042 37.584 292.725 38.3213 292.725 39.348V39.46H289.729V39.348C289.729 38.284 290.009 37.3413 290.569 36.52C291.129 35.68 291.931 35.0173 292.977 34.532C294.041 34.0467 295.31 33.804 296.785 33.804C298.259 33.804 299.463 34.056 300.397 34.56C301.349 35.0453 302.049 35.7173 302.497 36.576C302.963 37.4347 303.197 38.424 303.197 39.544V48ZM294.125 48.28C292.687 48.28 291.539 47.9627 290.681 47.328C289.841 46.6747 289.421 45.7787 289.421 44.64C289.421 43.912 289.598 43.3053 289.953 42.82C290.326 42.316 290.849 41.924 291.521 41.644C292.193 41.364 292.986 41.168 293.901 41.056L300.509 40.356V42.148L294.769 42.792C293.985 42.8853 293.397 43.0533 293.005 43.296C292.631 43.52 292.445 43.9027 292.445 44.444C292.445 45.004 292.641 45.424 293.033 45.704C293.443 45.9653 294.078 46.096 294.937 46.096C296.001 46.096 296.925 45.9653 297.709 45.704C298.493 45.424 299.109 44.9947 299.557 44.416C300.005 43.8373 300.229 43.0907 300.229 42.176L300.621 42.232V44.528H300.229C299.855 45.704 299.137 46.628 298.073 47.3C297.027 47.9533 295.711 48.28 294.125 48.28ZM330.508 48H327.512V40.44C327.512 39.0587 327.223 38.06 326.644 37.444C326.065 36.828 325.095 36.52 323.732 36.52C322.257 36.52 321.212 36.9027 320.596 37.668C319.999 38.4147 319.7 39.5627 319.7 41.112L319.168 41.14L319 38.396H319.616C319.747 37.5933 320.017 36.8467 320.428 36.156C320.839 35.4653 321.427 34.9053 322.192 34.476C322.957 34.028 323.919 33.804 325.076 33.804C326.289 33.804 327.297 34.056 328.1 34.56C328.903 35.064 329.5 35.7547 329.892 36.632C330.303 37.5093 330.508 38.508 330.508 39.628V48ZM308.92 48H305.896V34.084H308.668V38.452L308.92 38.592V48ZM319.7 48H316.704V40.44C316.704 39.0587 316.415 38.06 315.836 37.444C315.257 36.828 314.296 36.52 312.952 36.52C311.459 36.52 310.413 36.9027 309.816 37.668C309.219 38.4147 308.92 39.5627 308.92 41.112L308.388 41.14L308.248 38.284H308.836C308.967 37.5 309.228 36.772 309.62 36.1C310.012 35.428 310.581 34.8773 311.328 34.448C312.075 34.0187 313.027 33.804 314.184 33.804C315.397 33.804 316.396 34.0653 317.18 34.588C317.964 35.092 318.552 35.7827 318.944 36.66C319.336 37.5373 319.532 38.5267 319.532 39.628H319.7V48ZM45.488 82H42.464V68.84C42.464 67.664 42.716 66.6653 43.22 65.844C43.7427 65.004 44.4987 64.36 45.488 63.912C46.4773 63.464 47.6813 63.24 49.1 63.24H50.472V65.48H48.624C47.4293 65.48 46.5613 65.704 46.02 66.152C45.4787 66.5813 45.3013 67.4027 45.488 68.616V69.176V82ZM50.472 70.604H40.364V68.084H50.472V70.604ZM65.3061 82H62.5341V78.416L62.3381 78.332V73.572C62.3381 72.4147 62.0581 71.612 61.4981 71.164C60.9568 70.6973 60.0141 70.464 58.6701 70.464C57.3821 70.464 56.4208 70.688 55.7861 71.136C55.1514 71.584 54.8341 72.3213 54.8341 73.348V73.46H51.8381V73.348C51.8381 72.284 52.1181 71.3413 52.6781 70.52C53.2381 69.68 54.0408 69.0173 55.0861 68.532C56.1501 68.0467 57.4194 67.804 58.8941 67.804C60.3688 67.804 61.5728 68.056 62.5061 68.56C63.4581 69.0453 64.1581 69.7173 64.6061 70.576C65.0728 71.4347 65.3061 72.424 65.3061 73.544V82ZM56.2341 82.28C54.7968 82.28 53.6488 81.9627 52.7901 81.328C51.9501 80.6747 51.5301 79.7787 51.5301 78.64C51.5301 77.912 51.7074 77.3053 52.0621 76.82C52.4354 76.316 52.9581 75.924 53.6301 75.644C54.3021 75.364 55.0954 75.168 56.0101 75.056L62.6181 74.356V76.148L56.8781 76.792C56.0941 76.8853 55.5061 77.0533 55.1141 77.296C54.7408 77.52 54.5541 77.9027 54.5541 78.444C54.5541 79.004 54.7501 79.424 55.1421 79.704C55.5528 79.9653 56.1874 80.096 57.0461 80.096C58.1101 80.096 59.0341 79.9653 59.8181 79.704C60.6021 79.424 61.2181 78.9947 61.6661 78.416C62.1141 77.8373 62.3381 77.0907 62.3381 76.176L62.7301 76.232V78.528H62.3381C61.9648 79.704 61.2461 80.628 60.1821 81.3C59.1368 81.9533 57.8208 82.28 56.2341 82.28ZM92.6175 82H89.6215V74.44C89.6215 73.0587 89.3321 72.06 88.7535 71.444C88.1748 70.828 87.2041 70.52 85.8415 70.52C84.3668 70.52 83.3215 70.9027 82.7055 71.668C82.1081 72.4147 81.8095 73.5627 81.8095 75.112L81.2775 75.14L81.1095 72.396H81.7255C81.8561 71.5933 82.1268 70.8467 82.5375 70.156C82.9481 69.4653 83.5361 68.9053 84.3015 68.476C85.0668 68.028 86.0281 67.804 87.1855 67.804C88.3988 67.804 89.4068 68.056 90.2095 68.56C91.0121 69.064 91.6095 69.7547 92.0015 70.632C92.4121 71.5093 92.6175 72.508 92.6175 73.628V82ZM71.0295 82H68.0055V68.084H70.7775V72.452L71.0295 72.592V82ZM81.8095 82H78.8135V74.44C78.8135 73.0587 78.5241 72.06 77.9455 71.444C77.3668 70.828 76.4055 70.52 75.0615 70.52C73.5681 70.52 72.5228 70.9027 71.9255 71.668C71.3281 72.4147 71.0295 73.5627 71.0295 75.112L70.4975 75.14L70.3575 72.284H70.9455C71.0761 71.5 71.3375 70.772 71.7295 70.1C72.1215 69.428 72.6908 68.8773 73.4375 68.448C74.1841 68.0187 75.1361 67.804 76.2935 67.804C77.5068 67.804 78.5055 68.0653 79.2895 68.588C80.0735 69.092 80.6615 69.7827 81.0535 70.66C81.4455 71.5373 81.6415 72.5267 81.6415 73.628H81.8095V82ZM102.434 82.28C100.903 82.28 99.5499 81.9813 98.3739 81.384C97.2165 80.768 96.3112 79.9187 95.6579 78.836C95.0232 77.7347 94.7059 76.4747 94.7059 75.056C94.7059 73.6 95.0232 72.3307 95.6579 71.248C96.3112 70.1653 97.2165 69.3253 98.3739 68.728C99.5499 68.112 100.903 67.804 102.434 67.804C104.002 67.804 105.365 68.112 106.522 68.728C107.679 69.3253 108.575 70.1653 109.21 71.248C109.863 72.3307 110.19 73.6 110.19 75.056C110.19 76.4747 109.863 77.7347 109.21 78.836C108.575 79.9187 107.679 80.768 106.522 81.384C105.365 81.9813 104.002 82.28 102.434 82.28ZM102.434 79.592C104.133 79.592 105.355 79.2093 106.102 78.444C106.849 77.66 107.222 76.5307 107.222 75.056C107.222 73.5813 106.849 72.452 106.102 71.668C105.355 70.8653 104.133 70.464 102.434 70.464C100.754 70.464 99.5405 70.8653 98.7939 71.668C98.0472 72.452 97.6739 73.5813 97.6739 75.056C97.6739 76.5307 98.0472 77.66 98.7939 78.444C99.5405 79.2093 100.754 79.592 102.434 79.592ZM118.18 82.28C116.874 82.28 115.791 82.0187 114.932 81.496C114.074 80.9733 113.43 80.2733 113 79.396C112.571 78.5187 112.356 77.5387 112.356 76.456V68.084H115.352V75.644C115.352 76.932 115.67 77.912 116.304 78.584C116.958 79.2373 118.022 79.564 119.496 79.564C121.046 79.564 122.175 79.1813 122.884 78.416C123.612 77.632 123.976 76.484 123.976 74.972L124.508 74.944L124.676 77.688H124.032C123.902 78.472 123.603 79.2093 123.136 79.9C122.67 80.5907 122.026 81.16 121.204 81.608C120.402 82.056 119.394 82.28 118.18 82.28ZM127 82H124.228V77.632L123.976 77.492V68.084H127V82ZM136.328 82.28C134.088 82.28 132.352 81.8507 131.12 80.992C129.906 80.1333 129.3 78.9013 129.3 77.296V77.212H132.324V77.436C132.324 78.3507 132.622 78.9853 133.22 79.34C133.836 79.676 134.872 79.844 136.328 79.844C137.69 79.844 138.614 79.704 139.1 79.424C139.604 79.1253 139.856 78.668 139.856 78.052C139.856 77.4733 139.66 77.0627 139.268 76.82C138.894 76.5773 138.204 76.3907 137.196 76.26L133.388 75.756C132.062 75.588 131.026 75.2147 130.28 74.636C129.533 74.0387 129.16 73.152 129.16 71.976C129.16 71.1547 129.402 70.436 129.888 69.82C130.373 69.1853 131.101 68.6907 132.072 68.336C133.042 67.9813 134.237 67.804 135.656 67.804C137.074 67.804 138.288 67.9907 139.296 68.364C140.322 68.7373 141.106 69.2973 141.648 70.044C142.208 70.7907 142.488 71.7147 142.488 72.816V72.9H139.492V72.732C139.492 72.1907 139.38 71.7333 139.156 71.36C138.932 70.9867 138.53 70.7067 137.952 70.52C137.392 70.3147 136.598 70.212 135.572 70.212C134.284 70.212 133.388 70.3613 132.884 70.66C132.38 70.9587 132.128 71.4347 132.128 72.088C132.128 72.6293 132.314 73.0213 132.688 73.264C133.061 73.5067 133.761 73.7027 134.788 73.852L138.008 74.3C139.65 74.5053 140.864 74.9067 141.648 75.504C142.432 76.1013 142.824 76.9787 142.824 78.136C142.824 78.9947 142.553 79.7413 142.012 80.376C141.47 80.992 140.714 81.468 139.744 81.804C138.773 82.1213 137.634 82.28 136.328 82.28ZM153.879 82H150.855V68.84C150.855 67.664 151.107 66.6653 151.611 65.844C152.133 65.004 152.889 64.36 153.879 63.912C154.868 63.464 156.072 63.24 157.491 63.24H158.863V65.48H157.015C155.82 65.48 154.952 65.704 154.411 66.152C153.869 66.5813 153.692 67.4027 153.879 68.616V69.176V82ZM158.863 70.604H148.755V68.084H158.863V70.604ZM167.649 82.28C166.118 82.28 164.765 81.9813 163.589 81.384C162.431 80.768 161.526 79.9187 160.873 78.836C160.238 77.7347 159.921 76.4747 159.921 75.056C159.921 73.6 160.238 72.3307 160.873 71.248C161.526 70.1653 162.431 69.3253 163.589 68.728C164.765 68.112 166.118 67.804 167.649 67.804C169.217 67.804 170.579 68.112 171.737 68.728C172.894 69.3253 173.79 70.1653 174.425 71.248C175.078 72.3307 175.405 73.6 175.405 75.056C175.405 76.4747 175.078 77.7347 174.425 78.836C173.79 79.9187 172.894 80.768 171.737 81.384C170.579 81.9813 169.217 82.28 167.649 82.28ZM167.649 79.592C169.347 79.592 170.57 79.2093 171.317 78.444C172.063 77.66 172.437 76.5307 172.437 75.056C172.437 73.5813 172.063 72.452 171.317 71.668C170.57 70.8653 169.347 70.464 167.649 70.464C165.969 70.464 164.755 70.8653 164.009 71.668C163.262 72.452 162.889 73.5813 162.889 75.056C162.889 76.5307 163.262 77.66 164.009 78.444C164.755 79.2093 165.969 79.592 167.649 79.592ZM180.623 82H177.599V68.084H180.371V72.032L180.623 72.172V82ZM180.623 74.188H179.951V71.836H180.567C180.698 71.0707 180.959 70.3893 181.351 69.792C181.743 69.176 182.266 68.6907 182.919 68.336C183.591 67.9813 184.403 67.804 185.355 67.804C186.419 67.804 187.287 68.028 187.959 68.476C188.631 68.924 189.117 69.5213 189.415 70.268C189.733 71.0147 189.891 71.8267 189.891 72.704V74.524H186.895V73.292C186.895 72.284 186.671 71.5467 186.223 71.08C185.775 70.6133 185.029 70.38 183.983 70.38C182.789 70.38 181.93 70.7067 181.407 71.36C180.885 72.0133 180.623 72.956 180.623 74.188ZM221.188 82H218.192V74.44C218.192 73.0587 217.902 72.06 217.324 71.444C216.745 70.828 215.774 70.52 214.412 70.52C212.937 70.52 211.892 70.9027 211.276 71.668C210.678 72.4147 210.38 73.5627 210.38 75.112L209.848 75.14L209.68 72.396H210.296C210.426 71.5933 210.697 70.8467 211.108 70.156C211.518 69.4653 212.106 68.9053 212.872 68.476C213.637 68.028 214.598 67.804 215.756 67.804C216.969 67.804 217.977 68.056 218.78 68.56C219.582 69.064 220.18 69.7547 220.572 70.632C220.982 71.5093 221.188 72.508 221.188 73.628V82ZM199.6 82H196.576V68.084H199.348V72.452L199.6 72.592V82ZM210.38 82H207.384V74.44C207.384 73.0587 207.094 72.06 206.516 71.444C205.937 70.828 204.976 70.52 203.632 70.52C202.138 70.52 201.093 70.9027 200.496 71.668C199.898 72.4147 199.6 73.5627 199.6 75.112L199.068 75.14L198.928 72.284H199.516C199.646 71.5 199.908 70.772 200.3 70.1C200.692 69.428 201.261 68.8773 202.008 68.448C202.754 68.0187 203.706 67.804 204.864 67.804C206.077 67.804 207.076 68.0653 207.86 68.588C208.644 69.092 209.232 69.7827 209.624 70.66C210.016 71.5373 210.212 72.5267 210.212 73.628H210.38V82ZM226.132 86.76H224.144V84.016H226.86C227.476 84.016 227.934 83.9133 228.232 83.708C228.55 83.5213 228.811 83.1947 229.016 82.728L229.884 80.852L229.548 82.392L222.492 68.084H225.88L229.436 75.476L230.808 78.808H231.032L232.348 75.448L235.624 68.084H238.956L231.704 83.512C231.331 84.3333 230.892 84.9773 230.388 85.444C229.884 85.9293 229.287 86.2653 228.596 86.452C227.906 86.6573 227.084 86.76 226.132 86.76ZM248.244 82H245.22V68.084H248.244V82ZM248.244 66.46H245.22V63.24H248.244V66.46ZM265.577 82H262.553V74.44C262.553 73.1333 262.235 72.1533 261.601 71.5C260.985 70.8467 259.949 70.52 258.493 70.52C256.981 70.52 255.861 70.912 255.133 71.696C254.423 72.4613 254.069 73.6 254.069 75.112L253.537 75.14L253.397 72.396H254.013C254.162 71.612 254.461 70.8747 254.909 70.184C255.375 69.4747 256.01 68.9053 256.813 68.476C257.634 68.028 258.633 67.804 259.809 67.804C261.097 67.804 262.17 68.0653 263.029 68.588C263.887 69.1107 264.522 69.8107 264.933 70.688C265.362 71.5653 265.577 72.5453 265.577 73.628V82ZM254.069 82H251.045V68.084H253.817V72.452L254.069 72.592V82ZM275.299 82.28C273.768 82.28 272.434 81.9813 271.295 81.384C270.156 80.768 269.27 79.9187 268.635 78.836C268.019 77.7347 267.711 76.4747 267.711 75.056C267.711 73.6 268.019 72.3307 268.635 71.248C269.27 70.1653 270.156 69.3253 271.295 68.728C272.434 68.112 273.768 67.804 275.299 67.804C276.699 67.804 277.94 68.0467 279.023 68.532C280.106 69.0173 280.955 69.6987 281.571 70.576C282.206 71.4347 282.523 72.452 282.523 73.628V73.908H279.527V73.74C279.527 72.6573 279.154 71.8547 278.407 71.332C277.66 70.7907 276.606 70.52 275.243 70.52C273.675 70.52 272.527 70.9027 271.799 71.668C271.071 72.4147 270.707 73.544 270.707 75.056C270.707 76.5493 271.071 77.6787 271.799 78.444C272.527 79.1907 273.675 79.564 275.243 79.564C276.606 79.564 277.66 79.3027 278.407 78.78C279.154 78.2387 279.527 77.4267 279.527 76.344V76.148H282.523V76.456C282.523 77.6133 282.206 78.6307 281.571 79.508C280.955 80.3853 280.106 81.0667 279.023 81.552C277.94 82.0373 276.699 82.28 275.299 82.28ZM287.783 82H284.759V68.084H287.531V72.032L287.783 72.172V82ZM287.783 74.188H287.111V71.836H287.727C287.858 71.0707 288.119 70.3893 288.511 69.792C288.903 69.176 289.426 68.6907 290.079 68.336C290.751 67.9813 291.563 67.804 292.515 67.804C293.579 67.804 294.447 68.028 295.119 68.476C295.791 68.924 296.277 69.5213 296.575 70.268C296.893 71.0147 297.051 71.8267 297.051 72.704V74.524H294.055V73.292C294.055 72.284 293.831 71.5467 293.383 71.08C292.935 70.6133 292.189 70.38 291.143 70.38C289.949 70.38 289.09 70.7067 288.567 71.36C288.045 72.0133 287.783 72.956 287.783 74.188ZM305.951 82.28C304.439 82.28 303.113 82 301.975 81.44C300.836 80.88 299.949 80.0587 299.315 78.976C298.699 77.8933 298.391 76.5867 298.391 75.056C298.391 73.6 298.699 72.3307 299.315 71.248C299.949 70.1653 300.827 69.3253 301.947 68.728C303.067 68.112 304.383 67.804 305.895 67.804C307.332 67.804 308.592 68.0653 309.675 68.588C310.776 69.092 311.625 69.8387 312.223 70.828C312.839 71.7987 313.147 72.9933 313.147 74.412C313.147 74.6547 313.137 74.888 313.119 75.112C313.1 75.3173 313.072 75.5227 313.035 75.728H300.323V74.048H311.047L310.263 75.084C310.281 74.8973 310.291 74.72 310.291 74.552C310.291 74.3653 310.291 74.1787 310.291 73.992C310.291 72.704 309.917 71.752 309.171 71.136C308.443 70.5013 307.332 70.184 305.839 70.184C304.177 70.184 302.992 70.5667 302.283 71.332C301.573 72.0973 301.219 73.1987 301.219 74.636V75.364C301.219 76.82 301.573 77.9307 302.283 78.696C302.992 79.4613 304.187 79.844 305.867 79.844C307.323 79.844 308.368 79.62 309.003 79.172C309.656 78.7053 309.983 78.0613 309.983 77.24V77.016H313.007V77.268C313.007 78.2573 312.699 79.1347 312.083 79.9C311.485 80.6467 310.655 81.2347 309.591 81.664C308.545 82.0747 307.332 82.28 305.951 82.28ZM321.544 82.28C320.069 82.28 318.818 81.9813 317.792 81.384C316.784 80.768 316.018 79.9187 315.496 78.836C314.973 77.7347 314.712 76.4747 314.712 75.056C314.712 73.6 314.973 72.3307 315.496 71.248C316.018 70.1653 316.774 69.3253 317.764 68.728C318.753 68.112 319.948 67.804 321.348 67.804C322.99 67.804 324.288 68.1867 325.24 68.952C326.192 69.7173 326.808 70.688 327.088 71.864H327.788V74.972H327.256C327.256 73.4973 326.836 72.396 325.996 71.668C325.156 70.9213 323.961 70.548 322.412 70.548C321.46 70.548 320.629 70.6973 319.92 70.996C319.21 71.276 318.669 71.7427 318.296 72.396C317.941 73.0493 317.764 73.936 317.764 75.056C317.764 76.1573 317.941 77.0347 318.296 77.688C318.669 78.3413 319.21 78.808 319.92 79.088C320.629 79.368 321.478 79.508 322.468 79.508C323.457 79.508 324.306 79.3587 325.016 79.06C325.744 78.7427 326.294 78.2573 326.668 77.604C327.06 76.9507 327.256 76.148 327.256 75.196H327.788L327.984 77.996H327.312C327.032 79.3773 326.388 80.4413 325.38 81.188C324.39 81.916 323.112 82.28 321.544 82.28ZM330.28 82H327.508V77.632L327.256 77.268V63.24H330.28V82ZM336.1 82H333.076V68.084H336.1V82ZM336.1 66.46H333.076V63.24H336.1V66.46ZM347.664 82.28C346.077 82.28 344.789 81.916 343.8 81.188C342.811 80.4413 342.167 79.3773 341.868 77.996H341.196L341.392 75.196H341.924C341.924 76.148 342.111 76.9507 342.484 77.604C342.876 78.2573 343.427 78.7427 344.136 79.06C344.864 79.3587 345.723 79.508 346.712 79.508C347.739 79.508 348.597 79.368 349.288 79.088C349.997 78.808 350.529 78.3413 350.884 77.688C351.257 77.0347 351.444 76.1573 351.444 75.056C351.444 73.936 351.257 73.0493 350.884 72.396C350.511 71.7427 349.979 71.276 349.288 70.996C348.597 70.6973 347.757 70.548 346.768 70.548C345.2 70.548 343.996 70.9213 343.156 71.668C342.335 72.396 341.924 73.4973 341.924 74.972H341.392V71.864H342.092C342.372 70.688 342.979 69.7173 343.912 68.952C344.864 68.1867 346.171 67.804 347.832 67.804C349.269 67.804 350.473 68.112 351.444 68.728C352.433 69.3253 353.18 70.1653 353.684 71.248C354.207 72.3307 354.468 73.6 354.468 75.056C354.468 76.4747 354.207 77.7347 353.684 78.836C353.18 79.9187 352.415 80.768 351.388 81.384C350.38 81.9813 349.139 82.28 347.664 82.28ZM341.672 82H338.9V63.24H341.924V77.268L341.672 77.632V82ZM359.588 82H356.564V63.24H359.588V82ZM369.388 82.28C367.876 82.28 366.551 82 365.412 81.44C364.274 80.88 363.387 80.0587 362.752 78.976C362.136 77.8933 361.828 76.5867 361.828 75.056C361.828 73.6 362.136 72.3307 362.752 71.248C363.387 70.1653 364.264 69.3253 365.384 68.728C366.504 68.112 367.82 67.804 369.332 67.804C370.77 67.804 372.03 68.0653 373.112 68.588C374.214 69.092 375.063 69.8387 375.66 70.828C376.276 71.7987 376.584 72.9933 376.584 74.412C376.584 74.6547 376.575 74.888 376.556 75.112C376.538 75.3173 376.51 75.5227 376.472 75.728H363.76V74.048H374.484L373.7 75.084C373.719 74.8973 373.728 74.72 373.728 74.552C373.728 74.3653 373.728 74.1787 373.728 73.992C373.728 72.704 373.355 71.752 372.608 71.136C371.88 70.5013 370.77 70.184 369.276 70.184C367.615 70.184 366.43 70.5667 365.72 71.332C365.011 72.0973 364.656 73.1987 364.656 74.636V75.364C364.656 76.82 365.011 77.9307 365.72 78.696C366.43 79.4613 367.624 79.844 369.304 79.844C370.76 79.844 371.806 79.62 372.44 79.172C373.094 78.7053 373.42 78.0613 373.42 77.24V77.016H376.444V77.268C376.444 78.2573 376.136 79.1347 375.52 79.9C374.923 80.6467 374.092 81.2347 373.028 81.664C371.983 82.0747 370.77 82.28 369.388 82.28ZM50.528 116H47.336C45.8427 116 44.6573 115.636 43.78 114.908C42.9213 114.18 42.492 112.976 42.492 111.296V99.032H45.488V111.128C45.488 111.987 45.6933 112.565 46.104 112.864C46.5147 113.144 47.1493 113.284 48.008 113.284H50.528V116ZM50.528 104.604H40.14V102.084H50.528V104.604ZM65.5795 116H62.8075V112.416L62.6115 112.332V107.572C62.6115 106.415 62.3315 105.612 61.7715 105.164C61.2302 104.697 60.2875 104.464 58.9435 104.464C57.6555 104.464 56.6942 104.688 56.0595 105.136C55.4249 105.584 55.1075 106.321 55.1075 107.348V107.46H52.1115V107.348C52.1115 106.284 52.3915 105.341 52.9515 104.52C53.5115 103.68 54.3142 103.017 55.3595 102.532C56.4235 102.047 57.6929 101.804 59.1675 101.804C60.6422 101.804 61.8462 102.056 62.7795 102.56C63.7315 103.045 64.4315 103.717 64.8795 104.576C65.3462 105.435 65.5795 106.424 65.5795 107.544V116ZM56.5075 116.28C55.0702 116.28 53.9222 115.963 53.0635 115.328C52.2235 114.675 51.8035 113.779 51.8035 112.64C51.8035 111.912 51.9809 111.305 52.3355 110.82C52.7089 110.316 53.2315 109.924 53.9035 109.644C54.5755 109.364 55.3689 109.168 56.2835 109.056L62.8915 108.356V110.148L57.1515 110.792C56.3675 110.885 55.7795 111.053 55.3875 111.296C55.0142 111.52 54.8275 111.903 54.8275 112.444C54.8275 113.004 55.0235 113.424 55.4155 113.704C55.8262 113.965 56.4609 114.096 57.3195 114.096C58.3835 114.096 59.3075 113.965 60.0915 113.704C60.8755 113.424 61.4915 112.995 61.9395 112.416C62.3875 111.837 62.6115 111.091 62.6115 110.176L63.0035 110.232V112.528H62.6115C62.2382 113.704 61.5195 114.628 60.4555 115.3C59.4102 115.953 58.0942 116.28 56.5075 116.28ZM71.3029 116H68.2789V97.24H71.3029V116ZM81.1031 116.28C79.5911 116.28 78.2658 116 77.1271 115.44C75.9885 114.88 75.1018 114.059 74.4671 112.976C73.8511 111.893 73.5431 110.587 73.5431 109.056C73.5431 107.6 73.8511 106.331 74.4671 105.248C75.1018 104.165 75.9791 103.325 77.0991 102.728C78.2191 102.112 79.5351 101.804 81.0471 101.804C82.4845 101.804 83.7445 102.065 84.8271 102.588C85.9285 103.092 86.7778 103.839 87.3751 104.828C87.9911 105.799 88.2991 106.993 88.2991 108.412C88.2991 108.655 88.2898 108.888 88.2711 109.112C88.2525 109.317 88.2245 109.523 88.1871 109.728H75.4751V108.048H86.1991L85.4151 109.084C85.4338 108.897 85.4431 108.72 85.4431 108.552C85.4431 108.365 85.4431 108.179 85.4431 107.992C85.4431 106.704 85.0698 105.752 84.3231 105.136C83.5951 104.501 82.4845 104.184 80.9911 104.184C79.3298 104.184 78.1445 104.567 77.4351 105.332C76.7258 106.097 76.3711 107.199 76.3711 108.636V109.364C76.3711 110.82 76.7258 111.931 77.4351 112.696C78.1445 113.461 79.3391 113.844 81.0191 113.844C82.4751 113.844 83.5205 113.62 84.1551 113.172C84.8085 112.705 85.1351 112.061 85.1351 111.24V111.016H88.1591V111.268C88.1591 112.257 87.8511 113.135 87.2351 113.9C86.6378 114.647 85.8071 115.235 84.7431 115.664C83.6978 116.075 82.4845 116.28 81.1031 116.28ZM105.096 116H102.072V108.44C102.072 107.133 101.755 106.153 101.12 105.5C100.504 104.847 99.4681 104.52 98.0121 104.52C96.5001 104.52 95.3801 104.912 94.6521 105.696C93.9427 106.461 93.5881 107.6 93.5881 109.112L93.0561 109.14L92.9161 106.396H93.5321C93.6814 105.612 93.9801 104.875 94.4281 104.184C94.8947 103.475 95.5294 102.905 96.3321 102.476C97.1534 102.028 98.1521 101.804 99.3281 101.804C100.616 101.804 101.689 102.065 102.548 102.588C103.407 103.111 104.041 103.811 104.452 104.688C104.881 105.565 105.096 106.545 105.096 107.628V116ZM93.5881 116H90.5641V102.084H93.3361V106.452L93.5881 106.592V116ZM116.919 116H113.727C112.233 116 111.048 115.636 110.171 114.908C109.312 114.18 108.883 112.976 108.883 111.296V99.032H111.879V111.128C111.879 111.987 112.084 112.565 112.495 112.864C112.905 113.144 113.54 113.284 114.399 113.284H116.919V116ZM116.919 104.604H106.531V102.084H116.919V104.604ZM126.619 116H123.595V102.084H126.619V116ZM126.619 100.46H123.595V97.24H126.619V100.46ZM143.952 116H140.928V108.44C140.928 107.133 140.61 106.153 139.976 105.5C139.36 104.847 138.324 104.52 136.868 104.52C135.356 104.52 134.236 104.912 133.508 105.696C132.798 106.461 132.444 107.6 132.444 109.112L131.912 109.14L131.772 106.396H132.388C132.537 105.612 132.836 104.875 133.284 104.184C133.75 103.475 134.385 102.905 135.188 102.476C136.009 102.028 137.008 101.804 138.184 101.804C139.472 101.804 140.545 102.065 141.404 102.588C142.262 103.111 142.897 103.811 143.308 104.688C143.737 105.565 143.952 106.545 143.952 107.628V116ZM132.444 116H129.42V102.084H132.192V106.452L132.444 106.592V116ZM158.459 116.28C156.929 116.28 155.594 115.981 154.455 115.384C153.317 114.768 152.43 113.919 151.795 112.836C151.179 111.735 150.871 110.475 150.871 109.056C150.871 107.6 151.179 106.331 151.795 105.248C152.43 104.165 153.317 103.325 154.455 102.728C155.594 102.112 156.929 101.804 158.459 101.804C159.859 101.804 161.101 102.047 162.183 102.532C163.266 103.017 164.115 103.699 164.731 104.576C165.366 105.435 165.683 106.452 165.683 107.628V107.908H162.687V107.74C162.687 106.657 162.314 105.855 161.567 105.332C160.821 104.791 159.766 104.52 158.403 104.52C156.835 104.52 155.687 104.903 154.959 105.668C154.231 106.415 153.867 107.544 153.867 109.056C153.867 110.549 154.231 111.679 154.959 112.444C155.687 113.191 156.835 113.564 158.403 113.564C159.766 113.564 160.821 113.303 161.567 112.78C162.314 112.239 162.687 111.427 162.687 110.344V110.148H165.683V110.456C165.683 111.613 165.366 112.631 164.731 113.508C164.115 114.385 163.266 115.067 162.183 115.552C161.101 116.037 159.859 116.28 158.459 116.28ZM170.944 116H167.92V97.24H170.944V116ZM186.904 116H184.132V112.416L183.936 112.332V107.572C183.936 106.415 183.656 105.612 183.096 105.164C182.554 104.697 181.612 104.464 180.268 104.464C178.98 104.464 178.018 104.688 177.384 105.136C176.749 105.584 176.432 106.321 176.432 107.348V107.46H173.436V107.348C173.436 106.284 173.716 105.341 174.276 104.52C174.836 103.68 175.638 103.017 176.684 102.532C177.748 102.047 179.017 101.804 180.492 101.804C181.966 101.804 183.17 102.056 184.104 102.56C185.056 103.045 185.756 103.717 186.204 104.576C186.67 105.435 186.904 106.424 186.904 107.544V116ZM177.832 116.28C176.394 116.28 175.246 115.963 174.388 115.328C173.548 114.675 173.128 113.779 173.128 112.64C173.128 111.912 173.305 111.305 173.66 110.82C174.033 110.316 174.556 109.924 175.228 109.644C175.9 109.364 176.693 109.168 177.608 109.056L184.216 108.356V110.148L178.476 110.792C177.692 110.885 177.104 111.053 176.712 111.296C176.338 111.52 176.152 111.903 176.152 112.444C176.152 113.004 176.348 113.424 176.74 113.704C177.15 113.965 177.785 114.096 178.644 114.096C179.708 114.096 180.632 113.965 181.416 113.704C182.2 113.424 182.816 112.995 183.264 112.416C183.712 111.837 183.936 111.091 183.936 110.176L184.328 110.232V112.528H183.936C183.562 113.704 182.844 114.628 181.78 115.3C180.734 115.953 179.418 116.28 177.832 116.28ZM196.183 116.28C193.943 116.28 192.207 115.851 190.975 114.992C189.762 114.133 189.155 112.901 189.155 111.296V111.212H192.179V111.436C192.179 112.351 192.478 112.985 193.075 113.34C193.691 113.676 194.727 113.844 196.183 113.844C197.546 113.844 198.47 113.704 198.955 113.424C199.459 113.125 199.711 112.668 199.711 112.052C199.711 111.473 199.515 111.063 199.123 110.82C198.75 110.577 198.059 110.391 197.051 110.26L193.243 109.756C191.918 109.588 190.882 109.215 190.135 108.636C189.388 108.039 189.015 107.152 189.015 105.976C189.015 105.155 189.258 104.436 189.743 103.82C190.228 103.185 190.956 102.691 191.927 102.336C192.898 101.981 194.092 101.804 195.511 101.804C196.93 101.804 198.143 101.991 199.151 102.364C200.178 102.737 200.962 103.297 201.503 104.044C202.063 104.791 202.343 105.715 202.343 106.816V106.9H199.347V106.732C199.347 106.191 199.235 105.733 199.011 105.36C198.787 104.987 198.386 104.707 197.807 104.52C197.247 104.315 196.454 104.212 195.427 104.212C194.139 104.212 193.243 104.361 192.739 104.66C192.235 104.959 191.983 105.435 191.983 106.088C191.983 106.629 192.17 107.021 192.543 107.264C192.916 107.507 193.616 107.703 194.643 107.852L197.863 108.3C199.506 108.505 200.719 108.907 201.503 109.504C202.287 110.101 202.679 110.979 202.679 112.136C202.679 112.995 202.408 113.741 201.867 114.376C201.326 114.992 200.57 115.468 199.599 115.804C198.628 116.121 197.49 116.28 196.183 116.28ZM211.441 116.28C209.201 116.28 207.465 115.851 206.233 114.992C205.02 114.133 204.413 112.901 204.413 111.296V111.212H207.437V111.436C207.437 112.351 207.736 112.985 208.333 113.34C208.949 113.676 209.985 113.844 211.441 113.844C212.804 113.844 213.728 113.704 214.213 113.424C214.717 113.125 214.969 112.668 214.969 112.052C214.969 111.473 214.773 111.063 214.381 110.82C214.008 110.577 213.317 110.391 212.309 110.26L208.501 109.756C207.176 109.588 206.14 109.215 205.393 108.636C204.646 108.039 204.273 107.152 204.273 105.976C204.273 105.155 204.516 104.436 205.001 103.82C205.486 103.185 206.214 102.691 207.185 102.336C208.156 101.981 209.35 101.804 210.769 101.804C212.188 101.804 213.401 101.991 214.409 102.364C215.436 102.737 216.22 103.297 216.761 104.044C217.321 104.791 217.601 105.715 217.601 106.816V106.9H214.605V106.732C214.605 106.191 214.493 105.733 214.269 105.36C214.045 104.987 213.644 104.707 213.065 104.52C212.505 104.315 211.712 104.212 210.685 104.212C209.397 104.212 208.501 104.361 207.997 104.66C207.493 104.959 207.241 105.435 207.241 106.088C207.241 106.629 207.428 107.021 207.801 107.264C208.174 107.507 208.874 107.703 209.901 107.852L213.121 108.3C214.764 108.505 215.977 108.907 216.761 109.504C217.545 110.101 217.937 110.979 217.937 112.136C217.937 112.995 217.666 113.741 217.125 114.376C216.584 114.992 215.828 115.468 214.857 115.804C213.886 116.121 212.748 116.28 211.441 116.28ZM223.143 116H220.119V102.084H223.143V116ZM223.143 100.46H220.119V97.24H223.143V100.46ZM230.031 116H227.007V102.84C227.007 101.664 227.259 100.665 227.763 99.844C228.286 99.004 229.042 98.36 230.031 97.912C231.02 97.464 232.224 97.24 233.643 97.24H235.015V99.48H233.167C231.972 99.48 231.104 99.704 230.563 100.152C230.022 100.581 229.844 101.403 230.031 102.616V103.176V116ZM235.015 104.604H224.907V102.084H235.015V104.604ZM238.929 120.76H236.941V118.016H239.657C240.273 118.016 240.73 117.913 241.029 117.708C241.346 117.521 241.608 117.195 241.813 116.728L242.681 114.852L242.345 116.392L235.289 102.084H238.677L242.233 109.476L243.605 112.808H243.829L245.145 109.448L248.421 102.084H251.753L244.501 117.512C244.128 118.333 243.689 118.977 243.185 119.444C242.681 119.929 242.084 120.265 241.393 120.452C240.702 120.657 239.881 120.76 238.929 120.76ZM256.256 116H253.232V102.084H256.256V116ZM256.256 100.46H253.232V97.24H256.256V100.46ZM273.588 116H270.564V108.44C270.564 107.133 270.247 106.153 269.612 105.5C268.996 104.847 267.96 104.52 266.504 104.52C264.992 104.52 263.872 104.912 263.144 105.696C262.435 106.461 262.08 107.6 262.08 109.112L261.548 109.14L261.408 106.396H262.024C262.174 105.612 262.472 104.875 262.92 104.184C263.387 103.475 264.022 102.905 264.824 102.476C265.646 102.028 266.644 101.804 267.82 101.804C269.108 101.804 270.182 102.065 271.04 102.588C271.899 103.111 272.534 103.811 272.944 104.688C273.374 105.565 273.588 106.545 273.588 107.628V116ZM262.08 116H259.056V102.084H261.828V106.452L262.08 106.592V116ZM283.591 121.04C282.209 121.04 280.996 120.825 279.951 120.396C278.905 119.985 278.084 119.388 277.487 118.604C276.908 117.82 276.619 116.868 276.619 115.748H279.615C279.615 116.42 279.755 116.961 280.035 117.372C280.315 117.783 280.753 118.072 281.351 118.24C281.967 118.427 282.769 118.52 283.759 118.52C284.823 118.52 285.663 118.399 286.279 118.156C286.913 117.932 287.371 117.531 287.651 116.952C287.931 116.373 288.071 115.571 288.071 114.544V106.396L288.295 106.2V102.084H291.067V114.376C291.067 115.925 290.759 117.185 290.143 118.156C289.527 119.145 288.659 119.873 287.539 120.34C286.419 120.807 285.103 121.04 283.591 121.04ZM282.331 114.74C280.949 114.74 279.764 114.469 278.775 113.928C277.804 113.387 277.048 112.631 276.507 111.66C275.984 110.689 275.723 109.56 275.723 108.272C275.723 106.984 275.993 105.855 276.535 104.884C277.095 103.913 277.879 103.157 278.887 102.616C279.913 102.075 281.127 101.804 282.527 101.804C283.983 101.804 285.215 102.131 286.223 102.784C287.249 103.419 287.884 104.343 288.127 105.556H288.771L288.603 107.992H288.071C288.071 107.208 287.884 106.555 287.511 106.032C287.137 105.491 286.605 105.089 285.915 104.828C285.224 104.567 284.384 104.436 283.395 104.436C282.443 104.436 281.612 104.557 280.903 104.8C280.212 105.043 279.68 105.444 279.307 106.004C278.952 106.545 278.775 107.301 278.775 108.272C278.775 109.224 278.952 109.98 279.307 110.54C279.661 111.1 280.175 111.511 280.847 111.772C281.537 112.015 282.359 112.136 283.311 112.136C284.841 112.136 286.017 111.819 286.839 111.184C287.66 110.549 288.071 109.616 288.071 108.384H288.603V111.128H287.875C287.632 112.192 287.044 113.06 286.111 113.732C285.177 114.404 283.917 114.74 282.331 114.74ZM305.314 116H301.562L297.39 102.084H300.526L302.85 109.98L303.494 113.564H303.718L304.754 109.7L307.666 102.084H311.53L314.47 109.7L315.506 113.564H315.73L316.374 109.98L318.698 102.084H321.778L317.55 116H313.798L310.746 107.992L309.682 104.576H309.458L308.394 107.992L305.314 116ZM337.958 116H334.962V108.44C334.962 107.04 334.635 106.041 333.982 105.444C333.329 104.828 332.274 104.52 330.818 104.52C329.717 104.52 328.839 104.716 328.186 105.108C327.533 105.481 327.057 106.023 326.758 106.732C326.478 107.423 326.338 108.263 326.338 109.252L325.75 109.28L325.89 106.34H326.506C326.674 105.556 326.973 104.819 327.402 104.128C327.85 103.437 328.475 102.877 329.278 102.448C330.081 102.019 331.07 101.804 332.246 101.804C333.515 101.804 334.57 102.065 335.41 102.588C336.269 103.092 336.903 103.792 337.314 104.688C337.743 105.565 337.958 106.573 337.958 107.712V116ZM326.338 116H323.314V97.24H326.338V116ZM353.837 116H351.065V112.416L350.869 112.332V107.572C350.869 106.415 350.589 105.612 350.029 105.164C349.488 104.697 348.545 104.464 347.201 104.464C345.913 104.464 344.952 104.688 344.317 105.136C343.683 105.584 343.365 106.321 343.365 107.348V107.46H340.369V107.348C340.369 106.284 340.649 105.341 341.209 104.52C341.769 103.68 342.572 103.017 343.617 102.532C344.681 102.047 345.951 101.804 347.425 101.804C348.9 101.804 350.104 102.056 351.037 102.56C351.989 103.045 352.689 103.717 353.137 104.576C353.604 105.435 353.837 106.424 353.837 107.544V116ZM344.765 116.28C343.328 116.28 342.18 115.963 341.321 115.328C340.481 114.675 340.061 113.779 340.061 112.64C340.061 111.912 340.239 111.305 340.593 110.82C340.967 110.316 341.489 109.924 342.161 109.644C342.833 109.364 343.627 109.168 344.541 109.056L351.149 108.356V110.148L345.409 110.792C344.625 110.885 344.037 111.053 343.645 111.296C343.272 111.52 343.085 111.903 343.085 112.444C343.085 113.004 343.281 113.424 343.673 113.704C344.084 113.965 344.719 114.096 345.577 114.096C346.641 114.096 347.565 113.965 348.349 113.704C349.133 113.424 349.749 112.995 350.197 112.416C350.645 111.837 350.869 111.091 350.869 110.176L351.261 110.232V112.528H350.869C350.496 113.704 349.777 114.628 348.713 115.3C347.668 115.953 346.352 116.28 344.765 116.28ZM365.665 116H362.473C360.979 116 359.794 115.636 358.917 114.908C358.058 114.18 357.629 112.976 357.629 111.296V99.032H360.625V111.128C360.625 111.987 360.83 112.565 361.241 112.864C361.651 113.144 362.286 113.284 363.145 113.284H365.665V116ZM365.665 104.604H355.277V102.084H365.665V104.604ZM56.072 150H52.516L48.4 144.316H43.08V141.6H48.4L52.572 136.084H56.1L50.864 142.776L56.072 150ZM44.424 150H41.4V131.24H44.424V150ZM60.6115 150H57.5875V136.084H60.6115V150ZM60.6115 134.46H57.5875V131.24H60.6115V134.46ZM77.9437 150H74.9197V142.44C74.9197 141.133 74.6024 140.153 73.9677 139.5C73.3517 138.847 72.3157 138.52 70.8597 138.52C69.3477 138.52 68.2277 138.912 67.4997 139.696C66.7904 140.461 66.4357 141.6 66.4357 143.112L65.9037 143.14L65.7637 140.396H66.3797C66.5291 139.612 66.8277 138.875 67.2757 138.184C67.7424 137.475 68.3771 136.905 69.1797 136.476C70.0011 136.028 70.9997 135.804 72.1757 135.804C73.4637 135.804 74.5371 136.065 75.3957 136.588C76.2544 137.111 76.8891 137.811 77.2997 138.688C77.7291 139.565 77.9437 140.545 77.9437 141.628V150ZM66.4357 150H63.4117V136.084H66.1837V140.452L66.4357 140.592V150ZM86.7703 150.28C85.2956 150.28 84.0449 149.981 83.0183 149.384C82.0103 148.768 81.2449 147.919 80.7223 146.836C80.1996 145.735 79.9383 144.475 79.9383 143.056C79.9383 141.6 80.1996 140.331 80.7223 139.248C81.2449 138.165 82.0009 137.325 82.9903 136.728C83.9796 136.112 85.1743 135.804 86.5743 135.804C88.2169 135.804 89.5143 136.187 90.4663 136.952C91.4183 137.717 92.0343 138.688 92.3143 139.864H93.0143V142.972H92.4823C92.4823 141.497 92.0623 140.396 91.2223 139.668C90.3823 138.921 89.1876 138.548 87.6383 138.548C86.6863 138.548 85.8556 138.697 85.1463 138.996C84.4369 139.276 83.8956 139.743 83.5223 140.396C83.1676 141.049 82.9903 141.936 82.9903 143.056C82.9903 144.157 83.1676 145.035 83.5223 145.688C83.8956 146.341 84.4369 146.808 85.1463 147.088C85.8556 147.368 86.7049 147.508 87.6943 147.508C88.6836 147.508 89.5329 147.359 90.2423 147.06C90.9703 146.743 91.5209 146.257 91.8943 145.604C92.2863 144.951 92.4823 144.148 92.4823 143.196H93.0143L93.2103 145.996H92.5383C92.2583 147.377 91.6143 148.441 90.6063 149.188C89.6169 149.916 88.3383 150.28 86.7703 150.28ZM95.5063 150H92.7343V145.632L92.4823 145.268V131.24H95.5063V150ZM110.2 150.28C108.669 150.28 107.316 149.981 106.14 149.384C104.982 148.768 104.077 147.919 103.424 146.836C102.789 145.735 102.472 144.475 102.472 143.056C102.472 141.6 102.789 140.331 103.424 139.248C104.077 138.165 104.982 137.325 106.14 136.728C107.316 136.112 108.669 135.804 110.2 135.804C111.768 135.804 113.13 136.112 114.288 136.728C115.445 137.325 116.341 138.165 116.976 139.248C117.629 140.331 117.956 141.6 117.956 143.056C117.956 144.475 117.629 145.735 116.976 146.836C116.341 147.919 115.445 148.768 114.288 149.384C113.13 149.981 111.768 150.28 110.2 150.28ZM110.2 147.592C111.898 147.592 113.121 147.209 113.868 146.444C114.614 145.66 114.988 144.531 114.988 143.056C114.988 141.581 114.614 140.452 113.868 139.668C113.121 138.865 111.898 138.464 110.2 138.464C108.52 138.464 107.306 138.865 106.56 139.668C105.813 140.452 105.44 141.581 105.44 143.056C105.44 144.531 105.813 145.66 106.56 146.444C107.306 147.209 108.52 147.592 110.2 147.592ZM124.238 150H121.214V136.84C121.214 135.664 121.466 134.665 121.97 133.844C122.493 133.004 123.249 132.36 124.238 131.912C125.227 131.464 126.431 131.24 127.85 131.24H129.222V133.48H127.374C126.179 133.48 125.311 133.704 124.77 134.152C124.229 134.581 124.051 135.403 124.238 136.616V137.176V150ZM129.222 138.604H119.114V136.084H129.222V138.604ZM144.529 150.28C142.98 150.28 141.711 149.897 140.721 149.132C139.732 148.367 139.097 147.349 138.817 146.08H138.173V143.28H138.705C138.705 144.213 138.901 145.007 139.293 145.66C139.685 146.295 140.236 146.771 140.945 147.088C141.673 147.387 142.523 147.536 143.493 147.536C144.501 147.536 145.351 147.396 146.041 147.116C146.751 146.817 147.292 146.341 147.665 145.688C148.039 145.035 148.225 144.157 148.225 143.056C148.225 141.936 148.039 141.049 147.665 140.396C147.292 139.743 146.751 139.276 146.041 138.996C145.351 138.716 144.52 138.576 143.549 138.576C142 138.576 140.805 138.949 139.965 139.696C139.125 140.424 138.705 141.535 138.705 143.028H138.173L137.977 139.948H138.705C138.985 138.66 139.611 137.652 140.581 136.924C141.571 136.177 142.877 135.804 144.501 135.804C145.939 135.804 147.161 136.112 148.169 136.728C149.177 137.325 149.943 138.165 150.465 139.248C150.988 140.331 151.249 141.6 151.249 143.056C151.249 144.475 150.988 145.735 150.465 146.836C149.961 147.919 149.205 148.768 148.197 149.384C147.208 149.981 145.985 150.28 144.529 150.28ZM138.705 154.76H135.681V136.084H138.453V140.452L138.705 140.816V154.76ZM160.345 150.28C158.833 150.28 157.508 150 156.369 149.44C155.231 148.88 154.344 148.059 153.709 146.976C153.093 145.893 152.785 144.587 152.785 143.056C152.785 141.6 153.093 140.331 153.709 139.248C154.344 138.165 155.221 137.325 156.341 136.728C157.461 136.112 158.777 135.804 160.289 135.804C161.727 135.804 162.987 136.065 164.069 136.588C165.171 137.092 166.02 137.839 166.617 138.828C167.233 139.799 167.541 140.993 167.541 142.412C167.541 142.655 167.532 142.888 167.513 143.112C167.495 143.317 167.467 143.523 167.429 143.728H154.717V142.048H165.441L164.657 143.084C164.676 142.897 164.685 142.72 164.685 142.552C164.685 142.365 164.685 142.179 164.685 141.992C164.685 140.704 164.312 139.752 163.565 139.136C162.837 138.501 161.727 138.184 160.233 138.184C158.572 138.184 157.387 138.567 156.677 139.332C155.968 140.097 155.613 141.199 155.613 142.636V143.364C155.613 144.82 155.968 145.931 156.677 146.696C157.387 147.461 158.581 147.844 160.261 147.844C161.717 147.844 162.763 147.62 163.397 147.172C164.051 146.705 164.377 146.061 164.377 145.24V145.016H167.401V145.268C167.401 146.257 167.093 147.135 166.477 147.9C165.88 148.647 165.049 149.235 163.985 149.664C162.94 150.075 161.727 150.28 160.345 150.28ZM172.83 150H169.806V136.084H172.578V140.032L172.83 140.172V150ZM172.83 142.188H172.158V139.836H172.774C172.905 139.071 173.166 138.389 173.558 137.792C173.95 137.176 174.473 136.691 175.126 136.336C175.798 135.981 176.61 135.804 177.562 135.804C178.626 135.804 179.494 136.028 180.166 136.476C180.838 136.924 181.324 137.521 181.622 138.268C181.94 139.015 182.098 139.827 182.098 140.704V142.524H179.102V141.292C179.102 140.284 178.878 139.547 178.43 139.08C177.982 138.613 177.236 138.38 176.19 138.38C174.996 138.38 174.137 138.707 173.614 139.36C173.092 140.013 172.83 140.956 172.83 142.188ZM190.578 150.28C188.338 150.28 186.602 149.851 185.37 148.992C184.156 148.133 183.55 146.901 183.55 145.296V145.212H186.574V145.436C186.574 146.351 186.872 146.985 187.47 147.34C188.086 147.676 189.122 147.844 190.578 147.844C191.94 147.844 192.864 147.704 193.35 147.424C193.854 147.125 194.106 146.668 194.106 146.052C194.106 145.473 193.91 145.063 193.518 144.82C193.144 144.577 192.454 144.391 191.446 144.26L187.638 143.756C186.312 143.588 185.276 143.215 184.53 142.636C183.783 142.039 183.41 141.152 183.41 139.976C183.41 139.155 183.652 138.436 184.138 137.82C184.623 137.185 185.351 136.691 186.322 136.336C187.292 135.981 188.487 135.804 189.906 135.804C191.324 135.804 192.538 135.991 193.546 136.364C194.572 136.737 195.356 137.297 195.898 138.044C196.458 138.791 196.738 139.715 196.738 140.816V140.9H193.742V140.732C193.742 140.191 193.63 139.733 193.406 139.36C193.182 138.987 192.78 138.707 192.202 138.52C191.642 138.315 190.848 138.212 189.822 138.212C188.534 138.212 187.638 138.361 187.134 138.66C186.63 138.959 186.378 139.435 186.378 140.088C186.378 140.629 186.564 141.021 186.938 141.264C187.311 141.507 188.011 141.703 189.038 141.852L192.258 142.3C193.9 142.505 195.114 142.907 195.898 143.504C196.682 144.101 197.074 144.979 197.074 146.136C197.074 146.995 196.803 147.741 196.262 148.376C195.72 148.992 194.964 149.468 193.994 149.804C193.023 150.121 191.884 150.28 190.578 150.28ZM206.367 150.28C204.837 150.28 203.483 149.981 202.307 149.384C201.15 148.768 200.245 147.919 199.591 146.836C198.957 145.735 198.639 144.475 198.639 143.056C198.639 141.6 198.957 140.331 199.591 139.248C200.245 138.165 201.15 137.325 202.307 136.728C203.483 136.112 204.837 135.804 206.367 135.804C207.935 135.804 209.298 136.112 210.455 136.728C211.613 137.325 212.509 138.165 213.143 139.248C213.797 140.331 214.123 141.6 214.123 143.056C214.123 144.475 213.797 145.735 213.143 146.836C212.509 147.919 211.613 148.768 210.455 149.384C209.298 149.981 207.935 150.28 206.367 150.28ZM206.367 147.592C208.066 147.592 209.289 147.209 210.035 146.444C210.782 145.66 211.155 144.531 211.155 143.056C211.155 141.581 210.782 140.452 210.035 139.668C209.289 138.865 208.066 138.464 206.367 138.464C204.687 138.464 203.474 138.865 202.727 139.668C201.981 140.452 201.607 141.581 201.607 143.056C201.607 144.531 201.981 145.66 202.727 146.444C203.474 147.209 204.687 147.592 206.367 147.592ZM230.85 150H227.826V142.44C227.826 141.133 227.509 140.153 226.874 139.5C226.258 138.847 225.222 138.52 223.766 138.52C222.254 138.52 221.134 138.912 220.406 139.696C219.697 140.461 219.342 141.6 219.342 143.112L218.81 143.14L218.67 140.396H219.286C219.435 139.612 219.734 138.875 220.182 138.184C220.649 137.475 221.283 136.905 222.086 136.476C222.907 136.028 223.906 135.804 225.082 135.804C226.37 135.804 227.443 136.065 228.302 136.588C229.161 137.111 229.795 137.811 230.206 138.688C230.635 139.565 230.85 140.545 230.85 141.628V150ZM219.342 150H216.318V136.084H219.09V140.452L219.342 140.592V150ZM240.57 154.76H238.582V152.016H241.298C241.914 152.016 242.371 151.913 242.67 151.708C242.987 151.521 243.248 151.195 243.454 150.728L244.322 148.852L243.986 150.392L236.93 136.084H240.318L243.874 143.476L245.246 146.808H245.47L246.786 143.448L250.062 136.084H253.394L246.142 151.512C245.768 152.333 245.33 152.977 244.826 153.444C244.322 153.929 243.724 154.265 243.034 154.452C242.343 154.657 241.522 154.76 240.57 154.76ZM261.985 150.28C260.454 150.28 259.101 149.981 257.925 149.384C256.767 148.768 255.862 147.919 255.209 146.836C254.574 145.735 254.257 144.475 254.257 143.056C254.257 141.6 254.574 140.331 255.209 139.248C255.862 138.165 256.767 137.325 257.925 136.728C259.101 136.112 260.454 135.804 261.985 135.804C263.553 135.804 264.915 136.112 266.073 136.728C267.23 137.325 268.126 138.165 268.761 139.248C269.414 140.331 269.741 141.6 269.741 143.056C269.741 144.475 269.414 145.735 268.761 146.836C268.126 147.919 267.23 148.768 266.073 149.384C264.915 149.981 263.553 150.28 261.985 150.28ZM261.985 147.592C263.683 147.592 264.906 147.209 265.653 146.444C266.399 145.66 266.773 144.531 266.773 143.056C266.773 141.581 266.399 140.452 265.653 139.668C264.906 138.865 263.683 138.464 261.985 138.464C260.305 138.464 259.091 138.865 258.345 139.668C257.598 140.452 257.225 141.581 257.225 143.056C257.225 144.531 257.598 145.66 258.345 146.444C259.091 147.209 260.305 147.592 261.985 147.592ZM277.731 150.28C276.424 150.28 275.342 150.019 274.483 149.496C273.624 148.973 272.98 148.273 272.551 147.396C272.122 146.519 271.907 145.539 271.907 144.456V136.084H274.903V143.644C274.903 144.932 275.22 145.912 275.855 146.584C276.508 147.237 277.572 147.564 279.047 147.564C280.596 147.564 281.726 147.181 282.435 146.416C283.163 145.632 283.527 144.484 283.527 142.972L284.059 142.944L284.227 145.688H283.583C283.452 146.472 283.154 147.209 282.687 147.9C282.22 148.591 281.576 149.16 280.755 149.608C279.952 150.056 278.944 150.28 277.731 150.28ZM286.551 150H283.779V145.632L283.527 145.492V136.084H286.551V150ZM307.244 150H304.472V146.416L304.276 146.332V141.572C304.276 140.415 303.996 139.612 303.436 139.164C302.894 138.697 301.952 138.464 300.608 138.464C299.32 138.464 298.358 138.688 297.724 139.136C297.089 139.584 296.772 140.321 296.772 141.348V141.46H293.776V141.348C293.776 140.284 294.056 139.341 294.616 138.52C295.176 137.68 295.978 137.017 297.024 136.532C298.088 136.047 299.357 135.804 300.832 135.804C302.306 135.804 303.51 136.056 304.444 136.56C305.396 137.045 306.096 137.717 306.544 138.576C307.01 139.435 307.244 140.424 307.244 141.544V150ZM298.172 150.28C296.734 150.28 295.586 149.963 294.728 149.328C293.888 148.675 293.468 147.779 293.468 146.64C293.468 145.912 293.645 145.305 294 144.82C294.373 144.316 294.896 143.924 295.568 143.644C296.24 143.364 297.033 143.168 297.948 143.056L304.556 142.356V144.148L298.816 144.792C298.032 144.885 297.444 145.053 297.052 145.296C296.678 145.52 296.492 145.903 296.492 146.444C296.492 147.004 296.688 147.424 297.08 147.704C297.49 147.965 298.125 148.096 298.984 148.096C300.048 148.096 300.972 147.965 301.756 147.704C302.54 147.424 303.156 146.995 303.604 146.416C304.052 145.837 304.276 145.091 304.276 144.176L304.668 144.232V146.528H304.276C303.902 147.704 303.184 148.628 302.12 149.3C301.074 149.953 299.758 150.28 298.172 150.28ZM312.967 150H309.943V136.084H312.715V140.032L312.967 140.172V150ZM312.967 142.188H312.295V139.836H312.911C313.042 139.071 313.303 138.389 313.695 137.792C314.087 137.176 314.61 136.691 315.263 136.336C315.935 135.981 316.747 135.804 317.699 135.804C318.763 135.804 319.631 136.028 320.303 136.476C320.975 136.924 321.46 137.521 321.759 138.268C322.076 139.015 322.235 139.827 322.235 140.704V142.524H319.239V141.292C319.239 140.284 319.015 139.547 318.567 139.08C318.119 138.613 317.372 138.38 316.327 138.38C315.132 138.38 314.274 138.707 313.751 139.36C313.228 140.013 312.967 140.956 312.967 142.188ZM331.134 150.28C329.622 150.28 328.297 150 327.158 149.44C326.02 148.88 325.133 148.059 324.498 146.976C323.882 145.893 323.574 144.587 323.574 143.056C323.574 141.6 323.882 140.331 324.498 139.248C325.133 138.165 326.01 137.325 327.13 136.728C328.25 136.112 329.566 135.804 331.078 135.804C332.516 135.804 333.776 136.065 334.858 136.588C335.96 137.092 336.809 137.839 337.406 138.828C338.022 139.799 338.33 140.993 338.33 142.412C338.33 142.655 338.321 142.888 338.302 143.112C338.284 143.317 338.256 143.523 338.218 143.728H325.506V142.048H336.23L335.446 143.084C335.465 142.897 335.474 142.72 335.474 142.552C335.474 142.365 335.474 142.179 335.474 141.992C335.474 140.704 335.101 139.752 334.354 139.136C333.626 138.501 332.516 138.184 331.022 138.184C329.361 138.184 328.176 138.567 327.466 139.332C326.757 140.097 326.402 141.199 326.402 142.636V143.364C326.402 144.82 326.757 145.931 327.466 146.696C328.176 147.461 329.37 147.844 331.05 147.844C332.506 147.844 333.552 147.62 334.186 147.172C334.84 146.705 335.166 146.061 335.166 145.24V145.016H338.19V145.268C338.19 146.257 337.882 147.135 337.266 147.9C336.669 148.647 335.838 149.235 334.774 149.664C333.729 150.075 332.516 150.28 331.134 150.28ZM347.987 143.896H344.963V142.944C344.963 142.384 345.066 141.899 345.271 141.488C345.495 141.077 345.813 140.723 346.223 140.424C346.634 140.125 347.119 139.855 347.679 139.612L349.695 138.744C350.479 138.389 351.077 138.035 351.487 137.68C351.917 137.307 352.131 136.803 352.131 136.168C352.131 135.683 352.01 135.263 351.767 134.908C351.525 134.535 351.086 134.245 350.451 134.04C349.817 133.816 348.893 133.704 347.679 133.704C345.719 133.704 344.357 134.003 343.591 134.6C342.826 135.197 342.443 136.084 342.443 137.26V138.072H339.475V137.428C339.475 136.271 339.755 135.197 340.315 134.208C340.894 133.219 341.799 132.435 343.031 131.856C344.282 131.259 345.897 130.96 347.875 130.96C349.611 130.96 351.011 131.193 352.075 131.66C353.139 132.108 353.914 132.724 354.399 133.508C354.903 134.273 355.155 135.123 355.155 136.056C355.155 136.952 354.959 137.708 354.567 138.324C354.194 138.921 353.718 139.416 353.139 139.808C352.561 140.2 351.945 140.536 351.291 140.816L349.275 141.656C348.753 141.861 348.407 142.085 348.239 142.328C348.071 142.571 347.987 142.897 347.987 143.308V143.896ZM348.211 150H344.795V145.856H348.211V150Z" fill="black"/>
</svg>
