<svg width="420" height="178" viewBox="0 0 420 178" fill="none" xmlns="http://www.w3.org/2000/svg">
<rect x="1" y="1" width="417.956" height="176" rx="39" fill="white" stroke="black" stroke-width="2"/>
<path d="M47.9142 64H40.3542V61.284H47.9142C49.3702 61.284 50.5555 61.0693 51.4702 60.64C52.4035 60.192 53.0942 59.4827 53.5422 58.512C53.9902 57.5227 54.2142 56.2253 54.2142 54.62C54.2142 52.996 53.9902 51.6987 53.5422 50.728C53.0942 49.7573 52.4035 49.0573 51.4702 48.628C50.5555 48.18 49.3702 47.956 47.9142 47.956H40.3542V45.24H47.9142C49.8742 45.24 51.5542 45.6227 52.9542 46.388C54.3728 47.1347 55.4648 48.208 56.2302 49.608C57.0142 51.008 57.4062 52.6787 57.4062 54.62C57.4062 56.5613 57.0142 58.232 56.2302 59.632C55.4648 61.032 54.3728 62.1147 52.9542 62.88C51.5542 63.6267 49.8742 64 47.9142 64ZM42.3702 64H39.3742V45.24H42.3702V64ZM66.7713 64.28C65.2406 64.28 63.8873 63.9813 62.7113 63.384C61.5539 62.768 60.6486 61.9187 59.9953 60.836C59.3606 59.7347 59.0433 58.4747 59.0433 57.056C59.0433 55.6 59.3606 54.3307 59.9953 53.248C60.6486 52.1653 61.5539 51.3253 62.7113 50.728C63.8873 50.112 65.2406 49.804 66.7713 49.804C68.3393 49.804 69.7019 50.112 70.8593 50.728C72.0166 51.3253 72.9126 52.1653 73.5473 53.248C74.2006 54.3307 74.5273 55.6 74.5273 57.056C74.5273 58.4747 74.2006 59.7347 73.5473 60.836C72.9126 61.9187 72.0166 62.768 70.8593 63.384C69.7019 63.9813 68.3393 64.28 66.7713 64.28ZM66.7713 61.592C68.4699 61.592 69.6926 61.2093 70.4393 60.444C71.1859 59.66 71.5593 58.5307 71.5593 57.056C71.5593 55.5813 71.1859 54.452 70.4393 53.668C69.6926 52.8653 68.4699 52.464 66.7713 52.464C65.0913 52.464 63.8779 52.8653 63.1313 53.668C62.3846 54.452 62.0113 55.5813 62.0113 57.056C62.0113 58.5307 62.3846 59.66 63.1313 60.444C63.8779 61.2093 65.0913 61.592 66.7713 61.592ZM83.7469 68.76H81.7589V66.016H84.4749C85.0909 66.016 85.5483 65.9133 85.8469 65.708C86.1643 65.5213 86.4256 65.1947 86.6309 64.728L87.4989 62.852L87.1629 64.392L80.1069 50.084H83.4949L87.0509 57.476L88.4229 60.808H88.6469L89.9629 57.448L93.2389 50.084H96.5709L89.3189 65.512C88.9456 66.3333 88.5069 66.9773 88.0029 67.444C87.4989 67.9293 86.9016 68.2653 86.2109 68.452C85.5203 68.6573 84.6989 68.76 83.7469 68.76ZM105.162 64.28C103.631 64.28 102.278 63.9813 101.102 63.384C99.9446 62.768 99.0392 61.9187 98.3859 60.836C97.7512 59.7347 97.4339 58.4747 97.4339 57.056C97.4339 55.6 97.7512 54.3307 98.3859 53.248C99.0392 52.1653 99.9446 51.3253 101.102 50.728C102.278 50.112 103.631 49.804 105.162 49.804C106.73 49.804 108.093 50.112 109.25 50.728C110.407 51.3253 111.303 52.1653 111.938 53.248C112.591 54.3307 112.918 55.6 112.918 57.056C112.918 58.4747 112.591 59.7347 111.938 60.836C111.303 61.9187 110.407 62.768 109.25 63.384C108.093 63.9813 106.73 64.28 105.162 64.28ZM105.162 61.592C106.861 61.592 108.083 61.2093 108.83 60.444C109.577 59.66 109.95 58.5307 109.95 57.056C109.95 55.5813 109.577 54.452 108.83 53.668C108.083 52.8653 106.861 52.464 105.162 52.464C103.482 52.464 102.269 52.8653 101.522 53.668C100.775 54.452 100.402 55.5813 100.402 57.056C100.402 58.5307 100.775 59.66 101.522 60.444C102.269 61.2093 103.482 61.592 105.162 61.592ZM120.908 64.28C119.602 64.28 118.519 64.0187 117.66 63.496C116.802 62.9733 116.158 62.2733 115.728 61.396C115.299 60.5187 115.084 59.5387 115.084 58.456V50.084H118.08V57.644C118.08 58.932 118.398 59.912 119.032 60.584C119.686 61.2373 120.75 61.564 122.224 61.564C123.774 61.564 124.903 61.1813 125.612 60.416C126.34 59.632 126.704 58.484 126.704 56.972L127.236 56.944L127.404 59.688H126.76C126.63 60.472 126.331 61.2093 125.864 61.9C125.398 62.5907 124.754 63.16 123.932 63.608C123.13 64.056 122.122 64.28 120.908 64.28ZM129.728 64H126.956V59.632L126.704 59.492V50.084H129.728V64ZM151.933 64H148.377L144.261 58.316H138.941V55.6H144.261L148.433 50.084H151.961L146.725 56.776L151.933 64ZM140.285 64H137.261V45.24H140.285V64ZM167.98 64H164.956V56.44C164.956 55.1333 164.639 54.1533 164.004 53.5C163.388 52.8467 162.352 52.52 160.896 52.52C159.384 52.52 158.264 52.912 157.536 53.696C156.827 54.4613 156.472 55.6 156.472 57.112L155.94 57.14L155.8 54.396H156.416C156.566 53.612 156.864 52.8747 157.312 52.184C157.779 51.4747 158.414 50.9053 159.216 50.476C160.038 50.028 161.036 49.804 162.212 49.804C163.5 49.804 164.574 50.0653 165.432 50.588C166.291 51.1107 166.926 51.8107 167.336 52.688C167.766 53.5653 167.98 54.5453 167.98 55.628V64ZM156.472 64H153.448V50.084H156.22V54.452L156.472 54.592V64ZM177.787 64.28C176.256 64.28 174.903 63.9813 173.727 63.384C172.57 62.768 171.664 61.9187 171.011 60.836C170.376 59.7347 170.059 58.4747 170.059 57.056C170.059 55.6 170.376 54.3307 171.011 53.248C171.664 52.1653 172.57 51.3253 173.727 50.728C174.903 50.112 176.256 49.804 177.787 49.804C179.355 49.804 180.718 50.112 181.875 50.728C183.032 51.3253 183.928 52.1653 184.563 53.248C185.216 54.3307 185.543 55.6 185.543 57.056C185.543 58.4747 185.216 59.7347 184.563 60.836C183.928 61.9187 183.032 62.768 181.875 63.384C180.718 63.9813 179.355 64.28 177.787 64.28ZM177.787 61.592C179.486 61.592 180.708 61.2093 181.455 60.444C182.202 59.66 182.575 58.5307 182.575 57.056C182.575 55.5813 182.202 54.452 181.455 53.668C180.708 52.8653 179.486 52.464 177.787 52.464C176.107 52.464 174.894 52.8653 174.147 53.668C173.4 54.452 173.027 55.5813 173.027 57.056C173.027 58.5307 173.4 59.66 174.147 60.444C174.894 61.2093 176.107 61.592 177.787 61.592ZM194.401 64H190.649L186.477 50.084H189.613L191.937 57.98L192.581 61.564H192.805L193.841 57.7L196.753 50.084H200.617L203.557 57.7L204.593 61.564H204.817L205.461 57.98L207.785 50.084H210.865L206.637 64H202.885L199.833 55.992L198.769 52.576H198.545L197.481 55.992L194.401 64ZM226.315 64H223.123C221.629 64 220.444 63.636 219.567 62.908C218.708 62.18 218.279 60.976 218.279 59.296V47.032H221.275V59.128C221.275 59.9867 221.48 60.5653 221.891 60.864C222.301 61.144 222.936 61.284 223.795 61.284H226.315V64ZM226.315 52.604H215.927V50.084H226.315V52.604ZM242.85 64H239.854V56.44C239.854 55.04 239.527 54.0413 238.874 53.444C238.221 52.828 237.166 52.52 235.71 52.52C234.609 52.52 233.731 52.716 233.078 53.108C232.425 53.4813 231.949 54.0227 231.65 54.732C231.37 55.4227 231.23 56.2627 231.23 57.252L230.642 57.28L230.782 54.34H231.398C231.566 53.556 231.865 52.8187 232.294 52.128C232.742 51.4373 233.367 50.8773 234.17 50.448C234.973 50.0187 235.962 49.804 237.138 49.804C238.407 49.804 239.462 50.0653 240.302 50.588C241.161 51.092 241.795 51.792 242.206 52.688C242.635 53.5653 242.85 54.5733 242.85 55.712V64ZM231.23 64H228.206V45.24H231.23V64ZM258.729 64H255.957V60.416L255.761 60.332V55.572C255.761 54.4147 255.481 53.612 254.921 53.164C254.38 52.6973 253.437 52.464 252.093 52.464C250.805 52.464 249.844 52.688 249.209 53.136C248.575 53.584 248.257 54.3213 248.257 55.348V55.46H245.261V55.348C245.261 54.284 245.541 53.3413 246.101 52.52C246.661 51.68 247.464 51.0173 248.509 50.532C249.573 50.0467 250.843 49.804 252.317 49.804C253.792 49.804 254.996 50.056 255.929 50.56C256.881 51.0453 257.581 51.7173 258.029 52.576C258.496 53.4347 258.729 54.424 258.729 55.544V64ZM249.657 64.28C248.22 64.28 247.072 63.9627 246.213 63.328C245.373 62.6747 244.953 61.7787 244.953 60.64C244.953 59.912 245.131 59.3053 245.485 58.82C245.859 58.316 246.381 57.924 247.053 57.644C247.725 57.364 248.519 57.168 249.433 57.056L256.041 56.356V58.148L250.301 58.792C249.517 58.8853 248.929 59.0533 248.537 59.296C248.164 59.52 247.977 59.9027 247.977 60.444C247.977 61.004 248.173 61.424 248.565 61.704C248.976 61.9653 249.611 62.096 250.469 62.096C251.533 62.096 252.457 61.9653 253.241 61.704C254.025 61.424 254.641 60.9947 255.089 60.416C255.537 59.8373 255.761 59.0907 255.761 58.176L256.153 58.232V60.528H255.761C255.388 61.704 254.669 62.628 253.605 63.3C252.56 63.9533 251.244 64.28 249.657 64.28ZM270.557 64H267.365C265.871 64 264.686 63.636 263.809 62.908C262.95 62.18 262.521 60.976 262.521 59.296V47.032H265.517V59.128C265.517 59.9867 265.722 60.5653 266.133 60.864C266.543 61.144 267.178 61.284 268.037 61.284H270.557V64ZM270.557 52.604H260.169V50.084H270.557V52.604ZM280.257 64H277.233V45.24H280.257V64ZM301.003 64H298.231V60.416L298.035 60.332V55.572C298.035 54.4147 297.755 53.612 297.195 53.164C296.654 52.6973 295.711 52.464 294.367 52.464C293.079 52.464 292.118 52.688 291.483 53.136C290.848 53.584 290.531 54.3213 290.531 55.348V55.46H287.535V55.348C287.535 54.284 287.815 53.3413 288.375 52.52C288.935 51.68 289.738 51.0173 290.783 50.532C291.847 50.0467 293.116 49.804 294.591 49.804C296.066 49.804 297.27 50.056 298.203 50.56C299.155 51.0453 299.855 51.7173 300.303 52.576C300.77 53.4347 301.003 54.424 301.003 55.544V64ZM291.931 64.28C290.494 64.28 289.346 63.9627 288.487 63.328C287.647 62.6747 287.227 61.7787 287.227 60.64C287.227 59.912 287.404 59.3053 287.759 58.82C288.132 58.316 288.655 57.924 289.327 57.644C289.999 57.364 290.792 57.168 291.707 57.056L298.315 56.356V58.148L292.575 58.792C291.791 58.8853 291.203 59.0533 290.811 59.296C290.438 59.52 290.251 59.9027 290.251 60.444C290.251 61.004 290.447 61.424 290.839 61.704C291.25 61.9653 291.884 62.096 292.743 62.096C293.807 62.096 294.731 61.9653 295.515 61.704C296.299 61.424 296.915 60.9947 297.363 60.416C297.811 59.8373 298.035 59.0907 298.035 58.176L298.427 58.232V60.528H298.035C297.662 61.704 296.943 62.628 295.879 63.3C294.834 63.9533 293.518 64.28 291.931 64.28ZM328.314 64H325.318V56.44C325.318 55.0587 325.029 54.06 324.45 53.444C323.872 52.828 322.901 52.52 321.538 52.52C320.064 52.52 319.018 52.9027 318.402 53.668C317.805 54.4147 317.506 55.5627 317.506 57.112L316.974 57.14L316.806 54.396H317.422C317.553 53.5933 317.824 52.8467 318.234 52.156C318.645 51.4653 319.233 50.9053 319.998 50.476C320.764 50.028 321.725 49.804 322.882 49.804C324.096 49.804 325.104 50.056 325.906 50.56C326.709 51.064 327.306 51.7547 327.698 52.632C328.109 53.5093 328.314 54.508 328.314 55.628V64ZM306.726 64H303.702V50.084H306.474V54.452L306.726 54.592V64ZM317.506 64H314.51V56.44C314.51 55.0587 314.221 54.06 313.642 53.444C313.064 52.828 312.102 52.52 310.758 52.52C309.265 52.52 308.22 52.9027 307.622 53.668C307.025 54.4147 306.726 55.5627 306.726 57.112L306.194 57.14L306.054 54.284H306.642C306.773 53.5 307.034 52.772 307.426 52.1C307.818 51.428 308.388 50.8773 309.134 50.448C309.881 50.0187 310.833 49.804 311.99 49.804C313.204 49.804 314.202 50.0653 314.986 50.588C315.77 51.092 316.358 51.7827 316.75 52.66C317.142 53.5373 317.338 54.5267 317.338 55.628H317.506V64ZM348.964 64H346.192V60.416L345.996 60.332V55.572C345.996 54.4147 345.716 53.612 345.156 53.164C344.614 52.6973 343.672 52.464 342.328 52.464C341.04 52.464 340.078 52.688 339.444 53.136C338.809 53.584 338.492 54.3213 338.492 55.348V55.46H335.496V55.348C335.496 54.284 335.776 53.3413 336.336 52.52C336.896 51.68 337.698 51.0173 338.744 50.532C339.808 50.0467 341.077 49.804 342.552 49.804C344.026 49.804 345.23 50.056 346.164 50.56C347.116 51.0453 347.816 51.7173 348.264 52.576C348.73 53.4347 348.964 54.424 348.964 55.544V64ZM339.892 64.28C338.454 64.28 337.306 63.9627 336.448 63.328C335.608 62.6747 335.188 61.7787 335.188 60.64C335.188 59.912 335.365 59.3053 335.72 58.82C336.093 58.316 336.616 57.924 337.288 57.644C337.96 57.364 338.753 57.168 339.668 57.056L346.276 56.356V58.148L340.536 58.792C339.752 58.8853 339.164 59.0533 338.772 59.296C338.398 59.52 338.212 59.9027 338.212 60.444C338.212 61.004 338.408 61.424 338.8 61.704C339.21 61.9653 339.845 62.096 340.704 62.096C341.768 62.096 342.692 61.9653 343.476 61.704C344.26 61.424 344.876 60.9947 345.324 60.416C345.772 59.8373 345.996 59.0907 345.996 58.176L346.388 58.232V60.528H345.996C345.622 61.704 344.904 62.628 343.84 63.3C342.794 63.9533 341.478 64.28 339.892 64.28ZM48.3902 92.344H40.3542V89.628H48.1102C49.5288 89.628 50.5928 89.3387 51.3022 88.76C52.0302 88.1813 52.3942 87.192 52.3942 85.792C52.3942 84.4107 52.0302 83.4307 51.3022 82.852C50.5928 82.2547 49.5288 81.956 48.1102 81.956H40.3542V79.24H48.3902C49.7902 79.24 51.0128 79.5013 52.0582 80.024C53.1222 80.528 53.9435 81.2653 54.5222 82.236C55.1195 83.2067 55.4182 84.392 55.4182 85.792C55.4182 87.1733 55.1195 88.3493 54.5222 89.32C53.9435 90.2907 53.1222 91.0373 52.0582 91.56C51.0128 92.0827 49.7902 92.344 48.3902 92.344ZM42.2302 98H39.2062V79.24H42.2302V98ZM60.2497 98H57.2257V79.24H66.9697C68.3884 79.24 69.611 79.4547 70.6377 79.884C71.683 80.3133 72.4764 80.9387 73.0177 81.76C73.5777 82.5813 73.8577 83.58 73.8577 84.756C73.8577 85.8013 73.6337 86.6973 73.1857 87.444C72.7564 88.1907 72.1217 88.7787 71.2817 89.208C70.4604 89.6373 69.4617 89.8893 68.2857 89.964V90.16C69.0137 90.3467 69.5737 90.6547 69.9657 91.084C70.3764 91.4947 70.7497 91.9987 71.0857 92.596L74.2217 98H70.7497L67.7537 92.82C67.4737 92.316 67.1657 91.9147 66.8297 91.616C66.5124 91.2987 66.111 91.0747 65.6257 90.944C65.1404 90.7947 64.4964 90.72 63.6937 90.72H60.2497V98ZM60.2497 81.956V88.396H66.9417C68.1924 88.396 69.135 88.1533 69.7697 87.668C70.4044 87.1827 70.7217 86.352 70.7217 85.176C70.7217 84.0373 70.4044 83.216 69.7697 82.712C69.135 82.208 68.1924 81.956 66.9417 81.956H60.2497ZM85.2502 98.28C83.2902 98.28 81.5729 97.888 80.0982 97.104C78.6422 96.3013 77.5035 95.1813 76.6822 93.744C75.8795 92.288 75.4782 90.58 75.4782 88.62C75.4782 86.66 75.8795 84.9613 76.6822 83.524C77.5035 82.068 78.6422 80.948 80.0982 80.164C81.5729 79.3613 83.2902 78.96 85.2502 78.96C87.2475 78.96 88.9742 79.3613 90.4302 80.164C91.8862 80.948 93.0155 82.068 93.8182 83.524C94.6395 84.9613 95.0502 86.66 95.0502 88.62C95.0502 90.58 94.6395 92.288 93.8182 93.744C93.0155 95.1813 91.8862 96.3013 90.4302 97.104C88.9742 97.888 87.2475 98.28 85.2502 98.28ZM85.2502 95.368C86.7249 95.368 87.9475 95.1347 88.9182 94.668C89.9075 94.1827 90.6449 93.4453 91.1302 92.456C91.6155 91.448 91.8582 90.1693 91.8582 88.62C91.8582 87.052 91.6155 85.7733 91.1302 84.784C90.6449 83.7947 89.9075 83.0667 88.9182 82.6C87.9475 82.1147 86.7249 81.872 85.2502 81.872C83.7755 81.872 82.5435 82.1147 81.5542 82.6C80.5835 83.0667 79.8555 83.7947 79.3702 84.784C78.9035 85.7733 78.6702 87.052 78.6702 88.62C78.6702 90.1693 78.9035 91.448 79.3702 92.456C79.8555 93.4453 80.5835 94.1827 81.5542 94.668C82.5435 95.1347 83.7755 95.368 85.2502 95.368ZM105.093 98H102.069V84.084H105.093V98ZM105.093 82.46H102.069V79.24H105.093V82.46ZM122.426 98H119.402V90.44C119.402 89.1333 119.084 88.1533 118.45 87.5C117.834 86.8467 116.798 86.52 115.342 86.52C113.83 86.52 112.71 86.912 111.982 87.696C111.272 88.4613 110.918 89.6 110.918 91.112L110.386 91.14L110.246 88.396H110.862C111.011 87.612 111.31 86.8747 111.758 86.184C112.224 85.4747 112.859 84.9053 113.662 84.476C114.483 84.028 115.482 83.804 116.658 83.804C117.946 83.804 119.019 84.0653 119.878 84.588C120.736 85.1107 121.371 85.8107 121.782 86.688C122.211 87.5653 122.426 88.5453 122.426 89.628V98ZM110.918 98H107.894V84.084H110.666V88.452L110.918 88.592V98ZM141.719 98.28C140.188 98.28 138.853 97.9813 137.715 97.384C136.576 96.768 135.689 95.9187 135.055 94.836C134.439 93.7347 134.131 92.4747 134.131 91.056C134.131 89.6 134.439 88.3307 135.055 87.248C135.689 86.1653 136.576 85.3253 137.715 84.728C138.853 84.112 140.188 83.804 141.719 83.804C143.119 83.804 144.36 84.0467 145.443 84.532C146.525 85.0173 147.375 85.6987 147.991 86.576C148.625 87.4347 148.943 88.452 148.943 89.628V89.908H145.947V89.74C145.947 88.6573 145.573 87.8547 144.827 87.332C144.08 86.7907 143.025 86.52 141.663 86.52C140.095 86.52 138.947 86.9027 138.219 87.668C137.491 88.4147 137.127 89.544 137.127 91.056C137.127 92.5493 137.491 93.6787 138.219 94.444C138.947 95.1907 140.095 95.564 141.663 95.564C143.025 95.564 144.08 95.3027 144.827 94.78C145.573 94.2387 145.947 93.4267 145.947 92.344V92.148H148.943V92.456C148.943 93.6133 148.625 94.6307 147.991 95.508C147.375 96.3853 146.525 97.0667 145.443 97.552C144.36 98.0373 143.119 98.28 141.719 98.28ZM154.203 98H151.179V79.24H154.203V98ZM170.163 98H167.391V94.416L167.195 94.332V89.572C167.195 88.4147 166.915 87.612 166.355 87.164C165.814 86.6973 164.871 86.464 163.527 86.464C162.239 86.464 161.278 86.688 160.643 87.136C160.008 87.584 159.691 88.3213 159.691 89.348V89.46H156.695V89.348C156.695 88.284 156.975 87.3413 157.535 86.52C158.095 85.68 158.898 85.0173 159.943 84.532C161.007 84.0467 162.276 83.804 163.751 83.804C165.226 83.804 166.43 84.056 167.363 84.56C168.315 85.0453 169.015 85.7173 169.463 86.576C169.93 87.4347 170.163 88.424 170.163 89.544V98ZM161.091 98.28C159.654 98.28 158.506 97.9627 157.647 97.328C156.807 96.6747 156.387 95.7787 156.387 94.64C156.387 93.912 156.564 93.3053 156.919 92.82C157.292 92.316 157.815 91.924 158.487 91.644C159.159 91.364 159.952 91.168 160.867 91.056L167.475 90.356V92.148L161.735 92.792C160.951 92.8853 160.363 93.0533 159.971 93.296C159.598 93.52 159.411 93.9027 159.411 94.444C159.411 95.004 159.607 95.424 159.999 95.704C160.41 95.9653 161.044 96.096 161.903 96.096C162.967 96.096 163.891 95.9653 164.675 95.704C165.459 95.424 166.075 94.9947 166.523 94.416C166.971 93.8373 167.195 93.0907 167.195 92.176L167.587 92.232V94.528H167.195C166.822 95.704 166.103 96.628 165.039 97.3C163.994 97.9533 162.678 98.28 161.091 98.28ZM179.442 98.28C177.202 98.28 175.466 97.8507 174.234 96.992C173.021 96.1333 172.414 94.9013 172.414 93.296V93.212H175.438V93.436C175.438 94.3507 175.737 94.9853 176.334 95.34C176.95 95.676 177.986 95.844 179.442 95.844C180.805 95.844 181.729 95.704 182.214 95.424C182.718 95.1253 182.97 94.668 182.97 94.052C182.97 93.4733 182.774 93.0627 182.382 92.82C182.009 92.5773 181.318 92.3907 180.31 92.26L176.502 91.756C175.177 91.588 174.141 91.2147 173.394 90.636C172.648 90.0387 172.274 89.152 172.274 87.976C172.274 87.1547 172.517 86.436 173.002 85.82C173.488 85.1853 174.216 84.6907 175.186 84.336C176.157 83.9813 177.352 83.804 178.77 83.804C180.189 83.804 181.402 83.9907 182.41 84.364C183.437 84.7373 184.221 85.2973 184.762 86.044C185.322 86.7907 185.602 87.7147 185.602 88.816V88.9H182.606V88.732C182.606 88.1907 182.494 87.7333 182.27 87.36C182.046 86.9867 181.645 86.7067 181.066 86.52C180.506 86.3147 179.713 86.212 178.686 86.212C177.398 86.212 176.502 86.3613 175.998 86.66C175.494 86.9587 175.242 87.4347 175.242 88.088C175.242 88.6293 175.429 89.0213 175.802 89.264C176.176 89.5067 176.876 89.7027 177.902 89.852L181.122 90.3C182.765 90.5053 183.978 90.9067 184.762 91.504C185.546 92.1013 185.938 92.9787 185.938 94.136C185.938 94.9947 185.668 95.7413 185.126 96.376C184.585 96.992 183.829 97.468 182.858 97.804C181.888 98.1213 180.749 98.28 179.442 98.28ZM194.7 98.28C192.46 98.28 190.724 97.8507 189.492 96.992C188.279 96.1333 187.672 94.9013 187.672 93.296V93.212H190.696V93.436C190.696 94.3507 190.995 94.9853 191.592 95.34C192.208 95.676 193.244 95.844 194.7 95.844C196.063 95.844 196.987 95.704 197.472 95.424C197.976 95.1253 198.228 94.668 198.228 94.052C198.228 93.4733 198.032 93.0627 197.64 92.82C197.267 92.5773 196.576 92.3907 195.568 92.26L191.76 91.756C190.435 91.588 189.399 91.2147 188.652 90.636C187.906 90.0387 187.532 89.152 187.532 87.976C187.532 87.1547 187.775 86.436 188.26 85.82C188.746 85.1853 189.474 84.6907 190.444 84.336C191.415 83.9813 192.61 83.804 194.028 83.804C195.447 83.804 196.66 83.9907 197.668 84.364C198.695 84.7373 199.479 85.2973 200.02 86.044C200.58 86.7907 200.86 87.7147 200.86 88.816V88.9H197.864V88.732C197.864 88.1907 197.752 87.7333 197.528 87.36C197.304 86.9867 196.903 86.7067 196.324 86.52C195.764 86.3147 194.971 86.212 193.944 86.212C192.656 86.212 191.76 86.3613 191.256 86.66C190.752 86.9587 190.5 87.4347 190.5 88.088C190.5 88.6293 190.687 89.0213 191.06 89.264C191.434 89.5067 192.134 89.7027 193.16 89.852L196.38 90.3C198.023 90.5053 199.236 90.9067 200.02 91.504C200.804 92.1013 201.196 92.9787 201.196 94.136C201.196 94.9947 200.926 95.7413 200.384 96.376C199.843 96.992 199.087 97.468 198.116 97.804C197.146 98.1213 196.007 98.28 194.7 98.28ZM206.402 98H203.378V84.084H206.402V98ZM206.402 82.46H203.378V79.24H206.402V82.46ZM213.29 98H210.266V84.84C210.266 83.664 210.518 82.6653 211.022 81.844C211.545 81.004 212.301 80.36 213.29 79.912C214.28 79.464 215.484 79.24 216.902 79.24H218.274V81.48H216.426C215.232 81.48 214.364 81.704 213.822 82.152C213.281 82.5813 213.104 83.4027 213.29 84.616V85.176V98ZM218.274 86.604H208.166V84.084H218.274V86.604ZM222.188 102.76H220.2V100.016H222.916C223.532 100.016 223.99 99.9133 224.288 99.708C224.606 99.5213 224.867 99.1947 225.072 98.728L225.94 96.852L225.604 98.392L218.548 84.084H221.936L225.492 91.476L226.864 94.808H227.088L228.404 91.448L231.68 84.084H235.012L227.76 99.512C227.387 100.333 226.948 100.977 226.444 101.444C225.94 101.929 225.343 102.265 224.652 102.452C223.962 102.657 223.14 102.76 222.188 102.76ZM239.515 98H236.491V84.084H239.515V98ZM239.515 82.46H236.491V79.24H239.515V82.46ZM256.848 98H253.824V90.44C253.824 89.1333 253.506 88.1533 252.872 87.5C252.256 86.8467 251.22 86.52 249.764 86.52C248.252 86.52 247.132 86.912 246.404 87.696C245.694 88.4613 245.34 89.6 245.34 91.112L244.808 91.14L244.668 88.396H245.284C245.433 87.612 245.732 86.8747 246.18 86.184C246.646 85.4747 247.281 84.9053 248.084 84.476C248.905 84.028 249.904 83.804 251.08 83.804C252.368 83.804 253.441 84.0653 254.3 84.588C255.158 85.1107 255.793 85.8107 256.204 86.688C256.633 87.5653 256.848 88.5453 256.848 89.628V98ZM245.34 98H242.316V84.084H245.088V88.452L245.34 88.592V98ZM266.85 103.04C265.469 103.04 264.255 102.825 263.21 102.396C262.165 101.985 261.343 101.388 260.746 100.604C260.167 99.82 259.878 98.868 259.878 97.748H262.874C262.874 98.42 263.014 98.9613 263.294 99.372C263.574 99.7827 264.013 100.072 264.61 100.24C265.226 100.427 266.029 100.52 267.018 100.52C268.082 100.52 268.922 100.399 269.538 100.156C270.173 99.932 270.63 99.5307 270.91 98.952C271.19 98.3733 271.33 97.5707 271.33 96.544V88.396L271.554 88.2V84.084H274.326V96.376C274.326 97.9253 274.018 99.1853 273.402 100.156C272.786 101.145 271.918 101.873 270.798 102.34C269.678 102.807 268.362 103.04 266.85 103.04ZM265.59 96.74C264.209 96.74 263.023 96.4693 262.034 95.928C261.063 95.3867 260.307 94.6307 259.766 93.66C259.243 92.6893 258.982 91.56 258.982 90.272C258.982 88.984 259.253 87.8547 259.794 86.884C260.354 85.9133 261.138 85.1573 262.146 84.616C263.173 84.0747 264.386 83.804 265.786 83.804C267.242 83.804 268.474 84.1307 269.482 84.784C270.509 85.4187 271.143 86.3427 271.386 87.556H272.03L271.862 89.992H271.33C271.33 89.208 271.143 88.5547 270.77 88.032C270.397 87.4907 269.865 87.0893 269.174 86.828C268.483 86.5667 267.643 86.436 266.654 86.436C265.702 86.436 264.871 86.5573 264.162 86.8C263.471 87.0427 262.939 87.444 262.566 88.004C262.211 88.5453 262.034 89.3013 262.034 90.272C262.034 91.224 262.211 91.98 262.566 92.54C262.921 93.1 263.434 93.5107 264.106 93.772C264.797 94.0147 265.618 94.136 266.57 94.136C268.101 94.136 269.277 93.8187 270.098 93.184C270.919 92.5493 271.33 91.616 271.33 90.384H271.862V93.128H271.134C270.891 94.192 270.303 95.06 269.37 95.732C268.437 96.404 267.177 96.74 265.59 96.74ZM288.573 98H284.821L280.649 84.084H283.785L286.109 91.98L286.753 95.564H286.977L288.013 91.7L290.925 84.084H294.789L297.729 91.7L298.765 95.564H298.989L299.633 91.98L301.957 84.084H305.037L300.809 98H297.057L294.005 89.992L292.941 86.576H292.717L291.653 89.992L288.573 98ZM321.217 98H318.221V90.44C318.221 89.04 317.895 88.0413 317.241 87.444C316.588 86.828 315.533 86.52 314.077 86.52C312.976 86.52 312.099 86.716 311.445 87.108C310.792 87.4813 310.316 88.0227 310.017 88.732C309.737 89.4227 309.597 90.2627 309.597 91.252L309.009 91.28L309.149 88.34H309.765C309.933 87.556 310.232 86.8187 310.661 86.128C311.109 85.4373 311.735 84.8773 312.537 84.448C313.34 84.0187 314.329 83.804 315.505 83.804C316.775 83.804 317.829 84.0653 318.669 84.588C319.528 85.092 320.163 85.792 320.573 86.688C321.003 87.5653 321.217 88.5733 321.217 89.712V98ZM309.597 98H306.573V79.24H309.597V98ZM337.097 98H334.325V94.416L334.129 94.332V89.572C334.129 88.4147 333.849 87.612 333.289 87.164C332.747 86.6973 331.805 86.464 330.461 86.464C329.173 86.464 328.211 86.688 327.577 87.136C326.942 87.584 326.625 88.3213 326.625 89.348V89.46H323.629V89.348C323.629 88.284 323.909 87.3413 324.469 86.52C325.029 85.68 325.831 85.0173 326.877 84.532C327.941 84.0467 329.21 83.804 330.685 83.804C332.159 83.804 333.363 84.056 334.297 84.56C335.249 85.0453 335.949 85.7173 336.397 86.576C336.863 87.4347 337.097 88.424 337.097 89.544V98ZM328.025 98.28C326.587 98.28 325.439 97.9627 324.581 97.328C323.741 96.6747 323.321 95.7787 323.321 94.64C323.321 93.912 323.498 93.3053 323.853 92.82C324.226 92.316 324.749 91.924 325.421 91.644C326.093 91.364 326.886 91.168 327.801 91.056L334.409 90.356V92.148L328.669 92.792C327.885 92.8853 327.297 93.0533 326.905 93.296C326.531 93.52 326.345 93.9027 326.345 94.444C326.345 95.004 326.541 95.424 326.933 95.704C327.343 95.9653 327.978 96.096 328.837 96.096C329.901 96.096 330.825 95.9653 331.609 95.704C332.393 95.424 333.009 94.9947 333.457 94.416C333.905 93.8373 334.129 93.0907 334.129 92.176L334.521 92.232V94.528H334.129C333.755 95.704 333.037 96.628 331.973 97.3C330.927 97.9533 329.611 98.28 328.025 98.28ZM348.924 98H345.732C344.239 98 343.053 97.636 342.176 96.908C341.317 96.18 340.888 94.976 340.888 93.296V81.032H343.884V93.128C343.884 93.9867 344.089 94.5653 344.5 94.864C344.911 95.144 345.545 95.284 346.404 95.284H348.924V98ZM348.924 86.604H338.536V84.084H348.924V86.604ZM53.8782 132H50.3222L46.2062 126.316H40.8862V123.6H46.2062L50.3782 118.084H53.9062L48.6702 124.776L53.8782 132ZM42.2302 132H39.2062V113.24H42.2302V132ZM58.4177 132H55.3937V118.084H58.4177V132ZM58.4177 116.46H55.3937V113.24H58.4177V116.46ZM75.7499 132H72.7259V124.44C72.7259 123.133 72.4085 122.153 71.7739 121.5C71.1579 120.847 70.1219 120.52 68.6659 120.52C67.1539 120.52 66.0339 120.912 65.3059 121.696C64.5965 122.461 64.2419 123.6 64.2419 125.112L63.7099 125.14L63.5699 122.396H64.1859C64.3352 121.612 64.6339 120.875 65.0819 120.184C65.5485 119.475 66.1832 118.905 66.9859 118.476C67.8072 118.028 68.8059 117.804 69.9819 117.804C71.2699 117.804 72.3432 118.065 73.2019 118.588C74.0605 119.111 74.6952 119.811 75.1059 120.688C75.5352 121.565 75.7499 122.545 75.7499 123.628V132ZM64.2419 132H61.2179V118.084H63.9899V122.452L64.2419 122.592V132ZM84.5764 132.28C83.1018 132.28 81.8511 131.981 80.8244 131.384C79.8164 130.768 79.0511 129.919 78.5284 128.836C78.0058 127.735 77.7444 126.475 77.7444 125.056C77.7444 123.6 78.0058 122.331 78.5284 121.248C79.0511 120.165 79.8071 119.325 80.7964 118.728C81.7858 118.112 82.9804 117.804 84.3804 117.804C86.0231 117.804 87.3204 118.187 88.2724 118.952C89.2244 119.717 89.8404 120.688 90.1204 121.864H90.8204V124.972H90.2884C90.2884 123.497 89.8684 122.396 89.0284 121.668C88.1884 120.921 86.9938 120.548 85.4444 120.548C84.4924 120.548 83.6618 120.697 82.9524 120.996C82.2431 121.276 81.7018 121.743 81.3284 122.396C80.9738 123.049 80.7964 123.936 80.7964 125.056C80.7964 126.157 80.9738 127.035 81.3284 127.688C81.7018 128.341 82.2431 128.808 82.9524 129.088C83.6618 129.368 84.5111 129.508 85.5004 129.508C86.4898 129.508 87.3391 129.359 88.0484 129.06C88.7764 128.743 89.3271 128.257 89.7004 127.604C90.0924 126.951 90.2884 126.148 90.2884 125.196H90.8204L91.0164 127.996H90.3444C90.0644 129.377 89.4204 130.441 88.4124 131.188C87.4231 131.916 86.1444 132.28 84.5764 132.28ZM93.3124 132H90.5404V127.632L90.2884 127.268V113.24H93.3124V132ZM108.006 132.28C106.475 132.28 105.122 131.981 103.946 131.384C102.788 130.768 101.883 129.919 101.23 128.836C100.595 127.735 100.278 126.475 100.278 125.056C100.278 123.6 100.595 122.331 101.23 121.248C101.883 120.165 102.788 119.325 103.946 118.728C105.122 118.112 106.475 117.804 108.006 117.804C109.574 117.804 110.936 118.112 112.094 118.728C113.251 119.325 114.147 120.165 114.782 121.248C115.435 122.331 115.762 123.6 115.762 125.056C115.762 126.475 115.435 127.735 114.782 128.836C114.147 129.919 113.251 130.768 112.094 131.384C110.936 131.981 109.574 132.28 108.006 132.28ZM108.006 129.592C109.704 129.592 110.927 129.209 111.674 128.444C112.42 127.66 112.794 126.531 112.794 125.056C112.794 123.581 112.42 122.452 111.674 121.668C110.927 120.865 109.704 120.464 108.006 120.464C106.326 120.464 105.112 120.865 104.366 121.668C103.619 122.452 103.246 123.581 103.246 125.056C103.246 126.531 103.619 127.66 104.366 128.444C105.112 129.209 106.326 129.592 108.006 129.592ZM122.044 132H119.02V118.84C119.02 117.664 119.272 116.665 119.776 115.844C120.299 115.004 121.055 114.36 122.044 113.912C123.033 113.464 124.237 113.24 125.656 113.24H127.028V115.48H125.18C123.985 115.48 123.117 115.704 122.576 116.152C122.035 116.581 121.857 117.403 122.044 118.616V119.176V132ZM127.028 120.604H116.92V118.084H127.028V120.604ZM142.335 132.28C140.786 132.28 139.517 131.897 138.527 131.132C137.538 130.367 136.903 129.349 136.623 128.08H135.979V125.28H136.511C136.511 126.213 136.707 127.007 137.099 127.66C137.491 128.295 138.042 128.771 138.751 129.088C139.479 129.387 140.329 129.536 141.299 129.536C142.307 129.536 143.157 129.396 143.847 129.116C144.557 128.817 145.098 128.341 145.471 127.688C145.845 127.035 146.031 126.157 146.031 125.056C146.031 123.936 145.845 123.049 145.471 122.396C145.098 121.743 144.557 121.276 143.847 120.996C143.157 120.716 142.326 120.576 141.355 120.576C139.806 120.576 138.611 120.949 137.771 121.696C136.931 122.424 136.511 123.535 136.511 125.028H135.979L135.783 121.948H136.511C136.791 120.66 137.417 119.652 138.387 118.924C139.377 118.177 140.683 117.804 142.307 117.804C143.745 117.804 144.967 118.112 145.975 118.728C146.983 119.325 147.749 120.165 148.271 121.248C148.794 122.331 149.055 123.6 149.055 125.056C149.055 126.475 148.794 127.735 148.271 128.836C147.767 129.919 147.011 130.768 146.003 131.384C145.014 131.981 143.791 132.28 142.335 132.28ZM136.511 136.76H133.487V118.084H136.259V122.452L136.511 122.816V136.76ZM158.151 132.28C156.639 132.28 155.314 132 154.175 131.44C153.037 130.88 152.15 130.059 151.515 128.976C150.899 127.893 150.591 126.587 150.591 125.056C150.591 123.6 150.899 122.331 151.515 121.248C152.15 120.165 153.027 119.325 154.147 118.728C155.267 118.112 156.583 117.804 158.095 117.804C159.533 117.804 160.793 118.065 161.875 118.588C162.977 119.092 163.826 119.839 164.423 120.828C165.039 121.799 165.347 122.993 165.347 124.412C165.347 124.655 165.338 124.888 165.319 125.112C165.301 125.317 165.273 125.523 165.235 125.728H152.523V124.048H163.247L162.463 125.084C162.482 124.897 162.491 124.72 162.491 124.552C162.491 124.365 162.491 124.179 162.491 123.992C162.491 122.704 162.118 121.752 161.371 121.136C160.643 120.501 159.533 120.184 158.039 120.184C156.378 120.184 155.193 120.567 154.483 121.332C153.774 122.097 153.419 123.199 153.419 124.636V125.364C153.419 126.82 153.774 127.931 154.483 128.696C155.193 129.461 156.387 129.844 158.067 129.844C159.523 129.844 160.569 129.62 161.203 129.172C161.857 128.705 162.183 128.061 162.183 127.24V127.016H165.207V127.268C165.207 128.257 164.899 129.135 164.283 129.9C163.686 130.647 162.855 131.235 161.791 131.664C160.746 132.075 159.533 132.28 158.151 132.28ZM170.636 132H167.612V118.084H170.384V122.032L170.636 122.172V132ZM170.636 124.188H169.964V121.836H170.58C170.711 121.071 170.972 120.389 171.364 119.792C171.756 119.176 172.279 118.691 172.932 118.336C173.604 117.981 174.416 117.804 175.368 117.804C176.432 117.804 177.3 118.028 177.972 118.476C178.644 118.924 179.13 119.521 179.428 120.268C179.746 121.015 179.904 121.827 179.904 122.704V124.524H176.908V123.292C176.908 122.284 176.684 121.547 176.236 121.08C175.788 120.613 175.042 120.38 173.996 120.38C172.802 120.38 171.943 120.707 171.42 121.36C170.898 122.013 170.636 122.956 170.636 124.188ZM188.384 132.28C186.144 132.28 184.408 131.851 183.176 130.992C181.962 130.133 181.356 128.901 181.356 127.296V127.212H184.38V127.436C184.38 128.351 184.678 128.985 185.276 129.34C185.892 129.676 186.928 129.844 188.384 129.844C189.746 129.844 190.67 129.704 191.156 129.424C191.66 129.125 191.912 128.668 191.912 128.052C191.912 127.473 191.716 127.063 191.324 126.82C190.95 126.577 190.26 126.391 189.252 126.26L185.444 125.756C184.118 125.588 183.082 125.215 182.336 124.636C181.589 124.039 181.216 123.152 181.216 121.976C181.216 121.155 181.458 120.436 181.944 119.82C182.429 119.185 183.157 118.691 184.128 118.336C185.098 117.981 186.293 117.804 187.712 117.804C189.13 117.804 190.344 117.991 191.352 118.364C192.378 118.737 193.162 119.297 193.704 120.044C194.264 120.791 194.544 121.715 194.544 122.816V122.9H191.548V122.732C191.548 122.191 191.436 121.733 191.212 121.36C190.988 120.987 190.586 120.707 190.008 120.52C189.448 120.315 188.654 120.212 187.628 120.212C186.34 120.212 185.444 120.361 184.94 120.66C184.436 120.959 184.184 121.435 184.184 122.088C184.184 122.629 184.37 123.021 184.744 123.264C185.117 123.507 185.817 123.703 186.844 123.852L190.064 124.3C191.706 124.505 192.92 124.907 193.704 125.504C194.488 126.101 194.88 126.979 194.88 128.136C194.88 128.995 194.609 129.741 194.068 130.376C193.526 130.992 192.77 131.468 191.8 131.804C190.829 132.121 189.69 132.28 188.384 132.28ZM204.174 132.28C202.643 132.28 201.29 131.981 200.114 131.384C198.956 130.768 198.051 129.919 197.398 128.836C196.763 127.735 196.446 126.475 196.446 125.056C196.446 123.6 196.763 122.331 197.398 121.248C198.051 120.165 198.956 119.325 200.114 118.728C201.29 118.112 202.643 117.804 204.174 117.804C205.742 117.804 207.104 118.112 208.262 118.728C209.419 119.325 210.315 120.165 210.95 121.248C211.603 122.331 211.93 123.6 211.93 125.056C211.93 126.475 211.603 127.735 210.95 128.836C210.315 129.919 209.419 130.768 208.262 131.384C207.104 131.981 205.742 132.28 204.174 132.28ZM204.174 129.592C205.872 129.592 207.095 129.209 207.842 128.444C208.588 127.66 208.962 126.531 208.962 125.056C208.962 123.581 208.588 122.452 207.842 121.668C207.095 120.865 205.872 120.464 204.174 120.464C202.494 120.464 201.28 120.865 200.534 121.668C199.787 122.452 199.414 123.581 199.414 125.056C199.414 126.531 199.787 127.66 200.534 128.444C201.28 129.209 202.494 129.592 204.174 129.592ZM228.656 132H225.632V124.44C225.632 123.133 225.315 122.153 224.68 121.5C224.064 120.847 223.028 120.52 221.572 120.52C220.06 120.52 218.94 120.912 218.212 121.696C217.503 122.461 217.148 123.6 217.148 125.112L216.616 125.14L216.476 122.396H217.092C217.241 121.612 217.54 120.875 217.988 120.184C218.455 119.475 219.089 118.905 219.892 118.476C220.713 118.028 221.712 117.804 222.888 117.804C224.176 117.804 225.249 118.065 226.108 118.588C226.967 119.111 227.601 119.811 228.012 120.688C228.441 121.565 228.656 122.545 228.656 123.628V132ZM217.148 132H214.124V118.084H216.896V122.452L217.148 122.592V132ZM238.376 136.76H236.388V134.016H239.104C239.72 134.016 240.177 133.913 240.476 133.708C240.793 133.521 241.055 133.195 241.26 132.728L242.128 130.852L241.792 132.392L234.736 118.084H238.124L241.68 125.476L243.052 128.808H243.276L244.592 125.448L247.868 118.084H251.2L243.948 133.512C243.575 134.333 243.136 134.977 242.632 135.444C242.128 135.929 241.531 136.265 240.84 136.452C240.149 136.657 239.328 136.76 238.376 136.76ZM259.791 132.28C258.26 132.28 256.907 131.981 255.731 131.384C254.573 130.768 253.668 129.919 253.015 128.836C252.38 127.735 252.063 126.475 252.063 125.056C252.063 123.6 252.38 122.331 253.015 121.248C253.668 120.165 254.573 119.325 255.731 118.728C256.907 118.112 258.26 117.804 259.791 117.804C261.359 117.804 262.721 118.112 263.879 118.728C265.036 119.325 265.932 120.165 266.567 121.248C267.22 122.331 267.547 123.6 267.547 125.056C267.547 126.475 267.22 127.735 266.567 128.836C265.932 129.919 265.036 130.768 263.879 131.384C262.721 131.981 261.359 132.28 259.791 132.28ZM259.791 129.592C261.489 129.592 262.712 129.209 263.459 128.444C264.205 127.66 264.579 126.531 264.579 125.056C264.579 123.581 264.205 122.452 263.459 121.668C262.712 120.865 261.489 120.464 259.791 120.464C258.111 120.464 256.897 120.865 256.151 121.668C255.404 122.452 255.031 123.581 255.031 125.056C255.031 126.531 255.404 127.66 256.151 128.444C256.897 129.209 258.111 129.592 259.791 129.592ZM275.537 132.28C274.231 132.28 273.148 132.019 272.289 131.496C271.431 130.973 270.787 130.273 270.357 129.396C269.928 128.519 269.713 127.539 269.713 126.456V118.084H272.709V125.644C272.709 126.932 273.027 127.912 273.661 128.584C274.315 129.237 275.379 129.564 276.853 129.564C278.403 129.564 279.532 129.181 280.241 128.416C280.969 127.632 281.333 126.484 281.333 124.972L281.865 124.944L282.033 127.688H281.389C281.259 128.472 280.96 129.209 280.493 129.9C280.027 130.591 279.383 131.16 278.561 131.608C277.759 132.056 276.751 132.28 275.537 132.28ZM284.357 132H281.585V127.632L281.333 127.492V118.084H284.357V132ZM305.05 132H302.278V128.416L302.082 128.332V123.572C302.082 122.415 301.802 121.612 301.242 121.164C300.7 120.697 299.758 120.464 298.414 120.464C297.126 120.464 296.164 120.688 295.53 121.136C294.895 121.584 294.578 122.321 294.578 123.348V123.46H291.582V123.348C291.582 122.284 291.862 121.341 292.422 120.52C292.982 119.68 293.784 119.017 294.83 118.532C295.894 118.047 297.163 117.804 298.638 117.804C300.112 117.804 301.316 118.056 302.25 118.56C303.202 119.045 303.902 119.717 304.35 120.576C304.816 121.435 305.05 122.424 305.05 123.544V132ZM295.978 132.28C294.54 132.28 293.392 131.963 292.534 131.328C291.694 130.675 291.274 129.779 291.274 128.64C291.274 127.912 291.451 127.305 291.806 126.82C292.179 126.316 292.702 125.924 293.374 125.644C294.046 125.364 294.839 125.168 295.754 125.056L302.362 124.356V126.148L296.622 126.792C295.838 126.885 295.25 127.053 294.858 127.296C294.484 127.52 294.298 127.903 294.298 128.444C294.298 129.004 294.494 129.424 294.886 129.704C295.296 129.965 295.931 130.096 296.79 130.096C297.854 130.096 298.778 129.965 299.562 129.704C300.346 129.424 300.962 128.995 301.41 128.416C301.858 127.837 302.082 127.091 302.082 126.176L302.474 126.232V128.528H302.082C301.708 129.704 300.99 130.628 299.926 131.3C298.88 131.953 297.564 132.28 295.978 132.28ZM310.773 132H307.749V118.084H310.521V122.032L310.773 122.172V132ZM310.773 124.188H310.101V121.836H310.717C310.848 121.071 311.109 120.389 311.501 119.792C311.893 119.176 312.416 118.691 313.069 118.336C313.741 117.981 314.553 117.804 315.505 117.804C316.569 117.804 317.437 118.028 318.109 118.476C318.781 118.924 319.266 119.521 319.565 120.268C319.882 121.015 320.041 121.827 320.041 122.704V124.524H317.045V123.292C317.045 122.284 316.821 121.547 316.373 121.08C315.925 120.613 315.178 120.38 314.133 120.38C312.938 120.38 312.08 120.707 311.557 121.36C311.034 122.013 310.773 122.956 310.773 124.188ZM328.941 132.28C327.429 132.28 326.103 132 324.965 131.44C323.826 130.88 322.939 130.059 322.305 128.976C321.689 127.893 321.381 126.587 321.381 125.056C321.381 123.6 321.689 122.331 322.305 121.248C322.939 120.165 323.817 119.325 324.937 118.728C326.057 118.112 327.373 117.804 328.885 117.804C330.322 117.804 331.582 118.065 332.665 118.588C333.766 119.092 334.615 119.839 335.213 120.828C335.829 121.799 336.137 122.993 336.137 124.412C336.137 124.655 336.127 124.888 336.109 125.112C336.09 125.317 336.062 125.523 336.025 125.728H323.313V124.048H334.037L333.253 125.084C333.271 124.897 333.281 124.72 333.281 124.552C333.281 124.365 333.281 124.179 333.281 123.992C333.281 122.704 332.907 121.752 332.161 121.136C331.433 120.501 330.322 120.184 328.829 120.184C327.167 120.184 325.982 120.567 325.273 121.332C324.563 122.097 324.209 123.199 324.209 124.636V125.364C324.209 126.82 324.563 127.931 325.273 128.696C325.982 129.461 327.177 129.844 328.857 129.844C330.313 129.844 331.358 129.62 331.993 129.172C332.646 128.705 332.973 128.061 332.973 127.24V127.016H335.997V127.268C335.997 128.257 335.689 129.135 335.073 129.9C334.475 130.647 333.645 131.235 332.581 131.664C331.535 132.075 330.322 132.28 328.941 132.28ZM345.793 125.896H342.769V124.944C342.769 124.384 342.872 123.899 343.077 123.488C343.301 123.077 343.619 122.723 344.029 122.424C344.44 122.125 344.925 121.855 345.485 121.612L347.501 120.744C348.285 120.389 348.883 120.035 349.293 119.68C349.723 119.307 349.937 118.803 349.937 118.168C349.937 117.683 349.816 117.263 349.573 116.908C349.331 116.535 348.892 116.245 348.257 116.04C347.623 115.816 346.699 115.704 345.485 115.704C343.525 115.704 342.163 116.003 341.397 116.6C340.632 117.197 340.249 118.084 340.249 119.26V120.072H337.281V119.428C337.281 118.271 337.561 117.197 338.121 116.208C338.7 115.219 339.605 114.435 340.837 113.856C342.088 113.259 343.703 112.96 345.681 112.96C347.417 112.96 348.817 113.193 349.881 113.66C350.945 114.108 351.72 114.724 352.205 115.508C352.709 116.273 352.961 117.123 352.961 118.056C352.961 118.952 352.765 119.708 352.373 120.324C352 120.921 351.524 121.416 350.945 121.808C350.367 122.2 349.751 122.536 349.097 122.816L347.081 123.656C346.559 123.861 346.213 124.085 346.045 124.328C345.877 124.571 345.793 124.897 345.793 125.308V125.896ZM346.017 132H342.601V127.856H346.017V132Z" fill="black"/>
</svg>
