<svg width="424" height="221" viewBox="0 0 424 221" fill="none" xmlns="http://www.w3.org/2000/svg">
<mask id="path-1-outside-1_986_2" maskUnits="userSpaceOnUse" x="0.043457" y="0" width="424" height="221" fill="black">
<rect fill="white" x="0.043457" width="424" height="221"/>
<path fill-rule="evenodd" clip-rule="evenodd" d="M42.0435 2C19.9521 2 2.04346 19.9086 2.04346 42V138.312C2.04346 160.404 19.9521 178.312 42.0435 178.312H56.6438C56.6914 179.397 57.31 199.585 38.5058 218.945C38.5058 218.945 86.666 222.214 92.1724 178.312H382C404.091 178.312 422 160.404 422 138.312V42C422 19.9086 404.091 2 382 2H42.0435Z"/>
</mask>
<path fill-rule="evenodd" clip-rule="evenodd" d="M42.0435 2C19.9521 2 2.04346 19.9086 2.04346 42V138.312C2.04346 160.404 19.9521 178.312 42.0435 178.312H56.6438C56.6914 179.397 57.31 199.585 38.5058 218.945C38.5058 218.945 86.666 222.214 92.1724 178.312H382C404.091 178.312 422 160.404 422 138.312V42C422 19.9086 404.091 2 382 2H42.0435Z" fill="white"/>
<path d="M56.6438 178.312L58.6419 178.225L58.5579 176.312H56.6438V178.312ZM38.5058 218.945L37.0711 217.552L34.0635 220.648L38.3704 220.94L38.5058 218.945ZM92.1724 178.312V176.312H90.4075L90.1879 178.064L92.1724 178.312ZM4.04346 42C4.04346 21.0132 21.0566 4 42.0435 4V0C18.8475 0 0.043457 18.804 0.043457 42H4.04346ZM4.04346 138.312V42H0.043457V138.312H4.04346ZM42.0435 176.312C21.0567 176.312 4.04346 159.299 4.04346 138.312H0.043457C0.043457 161.508 18.8475 180.312 42.0435 180.312V176.312ZM56.6438 176.312H42.0435V180.312H56.6438V176.312ZM39.9405 220.339C59.2801 200.427 58.702 179.596 58.6419 178.225L54.6457 178.4C54.6808 179.198 55.3399 198.743 37.0711 217.552L39.9405 220.339ZM90.1879 178.064C87.5506 199.09 74.801 208.732 62.5852 213.214C56.4384 215.47 50.4342 216.407 45.9525 216.777C43.7161 216.961 41.8706 217.003 40.5914 217C39.9521 216.998 39.4552 216.985 39.1226 216.972C38.9564 216.966 38.8313 216.96 38.7501 216.956C38.7095 216.954 38.6799 216.952 38.6617 216.951C38.6525 216.95 38.6462 216.95 38.6428 216.95C38.6411 216.95 38.6401 216.95 38.6398 216.95C38.6397 216.95 38.6401 216.95 38.64 216.95C38.6405 216.95 38.6412 216.95 38.5058 218.945C38.3704 220.94 38.3714 220.941 38.3727 220.941C38.3734 220.941 38.3748 220.941 38.3761 220.941C38.3788 220.941 38.3822 220.941 38.3863 220.942C38.3946 220.942 38.4057 220.943 38.4198 220.944C38.4478 220.945 38.4874 220.948 38.5381 220.95C38.6395 220.956 38.7855 220.963 38.9734 220.97C39.349 220.984 39.8921 220.998 40.5805 221C41.9566 221.004 43.9166 220.958 46.2813 220.763C51.0016 220.374 57.3817 219.384 63.9631 216.969C77.2041 212.111 91.2878 201.436 94.1568 178.561L90.1879 178.064ZM382 176.312H92.1724V180.312H382V176.312ZM420 138.312C420 159.299 402.987 176.312 382 176.312V180.312C405.196 180.312 424 161.508 424 138.312H420ZM420 42V138.312H424V42H420ZM382 4C402.987 4 420 21.0132 420 42H424C424 18.804 405.196 0 382 0V4ZM42.0435 4H382V0H42.0435V4Z" fill="black" mask="url(#path-1-outside-1_986_2)"/>
<path d="M50.108 65H42.548V62.284H50.108C51.564 62.284 52.7493 62.0693 53.664 61.64C54.5973 61.192 55.288 60.4827 55.736 59.512C56.184 58.5227 56.408 57.2253 56.408 55.62C56.408 53.996 56.184 52.6987 55.736 51.728C55.288 50.7573 54.5973 50.0573 53.664 49.628C52.7493 49.18 51.564 48.956 50.108 48.956H42.548V46.24H50.108C52.068 46.24 53.748 46.6227 55.148 47.388C56.5667 48.1347 57.6587 49.208 58.424 50.608C59.208 52.008 59.6 53.6787 59.6 55.62C59.6 57.5613 59.208 59.232 58.424 60.632C57.6587 62.032 56.5667 63.1147 55.148 63.88C53.748 64.6267 52.068 65 50.108 65ZM44.564 65H41.568V46.24H44.564V65ZM68.9651 65.28C67.4345 65.28 66.0811 64.9813 64.9051 64.384C63.7478 63.768 62.8425 62.9187 62.1891 61.836C61.5545 60.7347 61.2371 59.4747 61.2371 58.056C61.2371 56.6 61.5545 55.3307 62.1891 54.248C62.8425 53.1653 63.7478 52.3253 64.9051 51.728C66.0811 51.112 67.4345 50.804 68.9651 50.804C70.5331 50.804 71.8958 51.112 73.0531 51.728C74.2105 52.3253 75.1065 53.1653 75.7411 54.248C76.3945 55.3307 76.7211 56.6 76.7211 58.056C76.7211 59.4747 76.3945 60.7347 75.7411 61.836C75.1065 62.9187 74.2105 63.768 73.0531 64.384C71.8958 64.9813 70.5331 65.28 68.9651 65.28ZM68.9651 62.592C70.6638 62.592 71.8865 62.2093 72.6331 61.444C73.3798 60.66 73.7531 59.5307 73.7531 58.056C73.7531 56.5813 73.3798 55.452 72.6331 54.668C71.8865 53.8653 70.6638 53.464 68.9651 53.464C67.2851 53.464 66.0718 53.8653 65.3251 54.668C64.5785 55.452 64.2051 56.5813 64.2051 58.056C64.2051 59.5307 64.5785 60.66 65.3251 61.444C66.0718 62.2093 67.2851 62.592 68.9651 62.592ZM85.9408 69.76H83.9528V67.016H86.6688C87.2848 67.016 87.7421 66.9133 88.0408 66.708C88.3581 66.5213 88.6194 66.1947 88.8248 65.728L89.6928 63.852L89.3568 65.392L82.3008 51.084H85.6888L89.2448 58.476L90.6168 61.808H90.8408L92.1568 58.448L95.4328 51.084H98.7648L91.5128 66.512C91.1394 67.3333 90.7008 67.9773 90.1968 68.444C89.6928 68.9293 89.0954 69.2653 88.4048 69.452C87.7141 69.6573 86.8928 69.76 85.9408 69.76ZM107.356 65.28C105.825 65.28 104.472 64.9813 103.296 64.384C102.138 63.768 101.233 62.9187 100.58 61.836C99.9451 60.7347 99.6278 59.4747 99.6278 58.056C99.6278 56.6 99.9451 55.3307 100.58 54.248C101.233 53.1653 102.138 52.3253 103.296 51.728C104.472 51.112 105.825 50.804 107.356 50.804C108.924 50.804 110.286 51.112 111.444 51.728C112.601 52.3253 113.497 53.1653 114.132 54.248C114.785 55.3307 115.112 56.6 115.112 58.056C115.112 59.4747 114.785 60.7347 114.132 61.836C113.497 62.9187 112.601 63.768 111.444 64.384C110.286 64.9813 108.924 65.28 107.356 65.28ZM107.356 62.592C109.054 62.592 110.277 62.2093 111.024 61.444C111.77 60.66 112.144 59.5307 112.144 58.056C112.144 56.5813 111.77 55.452 111.024 54.668C110.277 53.8653 109.054 53.464 107.356 53.464C105.676 53.464 104.462 53.8653 103.716 54.668C102.969 55.452 102.596 56.5813 102.596 58.056C102.596 59.5307 102.969 60.66 103.716 61.444C104.462 62.2093 105.676 62.592 107.356 62.592ZM123.102 65.28C121.796 65.28 120.713 65.0187 119.854 64.496C118.996 63.9733 118.352 63.2733 117.922 62.396C117.493 61.5187 117.278 60.5387 117.278 59.456V51.084H120.274V58.644C120.274 59.932 120.592 60.912 121.226 61.584C121.88 62.2373 122.944 62.564 124.418 62.564C125.968 62.564 127.097 62.1813 127.806 61.416C128.534 60.632 128.898 59.484 128.898 57.972L129.43 57.944L129.598 60.688H128.954C128.824 61.472 128.525 62.2093 128.058 62.9C127.592 63.5907 126.948 64.16 126.126 64.608C125.324 65.056 124.316 65.28 123.102 65.28ZM131.922 65H129.15V60.632L128.898 60.492V51.084H131.922V65ZM154.127 65H150.571L146.455 59.316H141.135V56.6H146.455L150.627 51.084H154.155L148.919 57.776L154.127 65ZM142.479 65H139.455V46.24H142.479V65ZM170.174 65H167.15V57.44C167.15 56.1333 166.833 55.1533 166.198 54.5C165.582 53.8467 164.546 53.52 163.09 53.52C161.578 53.52 160.458 53.912 159.73 54.696C159.021 55.4613 158.666 56.6 158.666 58.112L158.134 58.14L157.994 55.396H158.61C158.76 54.612 159.058 53.8747 159.506 53.184C159.973 52.4747 160.608 51.9053 161.41 51.476C162.232 51.028 163.23 50.804 164.406 50.804C165.694 50.804 166.768 51.0653 167.626 51.588C168.485 52.1107 169.12 52.8107 169.53 53.688C169.96 54.5653 170.174 55.5453 170.174 56.628V65ZM158.666 65H155.642V51.084H158.414V55.452L158.666 55.592V65ZM179.981 65.28C178.45 65.28 177.097 64.9813 175.921 64.384C174.763 63.768 173.858 62.9187 173.205 61.836C172.57 60.7347 172.253 59.4747 172.253 58.056C172.253 56.6 172.57 55.3307 173.205 54.248C173.858 53.1653 174.763 52.3253 175.921 51.728C177.097 51.112 178.45 50.804 179.981 50.804C181.549 50.804 182.911 51.112 184.069 51.728C185.226 52.3253 186.122 53.1653 186.757 54.248C187.41 55.3307 187.737 56.6 187.737 58.056C187.737 59.4747 187.41 60.7347 186.757 61.836C186.122 62.9187 185.226 63.768 184.069 64.384C182.911 64.9813 181.549 65.28 179.981 65.28ZM179.981 62.592C181.679 62.592 182.902 62.2093 183.649 61.444C184.395 60.66 184.769 59.5307 184.769 58.056C184.769 56.5813 184.395 55.452 183.649 54.668C182.902 53.8653 181.679 53.464 179.981 53.464C178.301 53.464 177.087 53.8653 176.341 54.668C175.594 55.452 175.221 56.5813 175.221 58.056C175.221 59.5307 175.594 60.66 176.341 61.444C177.087 62.2093 178.301 62.592 179.981 62.592ZM196.595 65H192.843L188.671 51.084H191.807L194.131 58.98L194.775 62.564H194.999L196.035 58.7L198.947 51.084H202.811L205.751 58.7L206.787 62.564H207.011L207.655 58.98L209.979 51.084H213.059L208.831 65H205.079L202.027 56.992L200.963 53.576H200.739L199.675 56.992L196.595 65ZM228.508 65H225.316C223.823 65 222.638 64.636 221.76 63.908C220.902 63.18 220.472 61.976 220.472 60.296V48.032H223.468V60.128C223.468 60.9867 223.674 61.5653 224.084 61.864C224.495 62.144 225.13 62.284 225.988 62.284H228.508V65ZM228.508 53.604H218.12V51.084H228.508V53.604ZM245.044 65H242.048V57.44C242.048 56.04 241.721 55.0413 241.068 54.444C240.415 53.828 239.36 53.52 237.904 53.52C236.803 53.52 235.925 53.716 235.272 54.108C234.619 54.4813 234.143 55.0227 233.844 55.732C233.564 56.4227 233.424 57.2627 233.424 58.252L232.836 58.28L232.976 55.34H233.592C233.76 54.556 234.059 53.8187 234.488 53.128C234.936 52.4373 235.561 51.8773 236.364 51.448C237.167 51.0187 238.156 50.804 239.332 50.804C240.601 50.804 241.656 51.0653 242.496 51.588C243.355 52.092 243.989 52.792 244.4 53.688C244.829 54.5653 245.044 55.5733 245.044 56.712V65ZM233.424 65H230.4V46.24H233.424V65ZM260.923 65H258.151V61.416L257.955 61.332V56.572C257.955 55.4147 257.675 54.612 257.115 54.164C256.574 53.6973 255.631 53.464 254.287 53.464C252.999 53.464 252.038 53.688 251.403 54.136C250.769 54.584 250.451 55.3213 250.451 56.348V56.46H247.455V56.348C247.455 55.284 247.735 54.3413 248.295 53.52C248.855 52.68 249.658 52.0173 250.703 51.532C251.767 51.0467 253.037 50.804 254.511 50.804C255.986 50.804 257.19 51.056 258.123 51.56C259.075 52.0453 259.775 52.7173 260.223 53.576C260.69 54.4347 260.923 55.424 260.923 56.544V65ZM251.851 65.28C250.414 65.28 249.266 64.9627 248.407 64.328C247.567 63.6747 247.147 62.7787 247.147 61.64C247.147 60.912 247.325 60.3053 247.679 59.82C248.053 59.316 248.575 58.924 249.247 58.644C249.919 58.364 250.713 58.168 251.627 58.056L258.235 57.356V59.148L252.495 59.792C251.711 59.8853 251.123 60.0533 250.731 60.296C250.358 60.52 250.171 60.9027 250.171 61.444C250.171 62.004 250.367 62.424 250.759 62.704C251.17 62.9653 251.805 63.096 252.663 63.096C253.727 63.096 254.651 62.9653 255.435 62.704C256.219 62.424 256.835 61.9947 257.283 61.416C257.731 60.8373 257.955 60.0907 257.955 59.176L258.347 59.232V61.528H257.955C257.582 62.704 256.863 63.628 255.799 64.3C254.754 64.9533 253.438 65.28 251.851 65.28ZM272.751 65H269.559C268.065 65 266.88 64.636 266.003 63.908C265.144 63.18 264.715 61.976 264.715 60.296V48.032H267.711V60.128C267.711 60.9867 267.916 61.5653 268.327 61.864C268.737 62.144 269.372 62.284 270.231 62.284H272.751V65ZM272.751 53.604H262.363V51.084H272.751V53.604ZM282.451 65H279.427V46.24H282.451V65ZM303.197 65H300.425V61.416L300.229 61.332V56.572C300.229 55.4147 299.949 54.612 299.389 54.164C298.847 53.6973 297.905 53.464 296.561 53.464C295.273 53.464 294.311 53.688 293.677 54.136C293.042 54.584 292.725 55.3213 292.725 56.348V56.46H289.729V56.348C289.729 55.284 290.009 54.3413 290.569 53.52C291.129 52.68 291.931 52.0173 292.977 51.532C294.041 51.0467 295.31 50.804 296.785 50.804C298.259 50.804 299.463 51.056 300.397 51.56C301.349 52.0453 302.049 52.7173 302.497 53.576C302.963 54.4347 303.197 55.424 303.197 56.544V65ZM294.125 65.28C292.687 65.28 291.539 64.9627 290.681 64.328C289.841 63.6747 289.421 62.7787 289.421 61.64C289.421 60.912 289.598 60.3053 289.953 59.82C290.326 59.316 290.849 58.924 291.521 58.644C292.193 58.364 292.986 58.168 293.901 58.056L300.509 57.356V59.148L294.769 59.792C293.985 59.8853 293.397 60.0533 293.005 60.296C292.631 60.52 292.445 60.9027 292.445 61.444C292.445 62.004 292.641 62.424 293.033 62.704C293.443 62.9653 294.078 63.096 294.937 63.096C296.001 63.096 296.925 62.9653 297.709 62.704C298.493 62.424 299.109 61.9947 299.557 61.416C300.005 60.8373 300.229 60.0907 300.229 59.176L300.621 59.232V61.528H300.229C299.855 62.704 299.137 63.628 298.073 64.3C297.027 64.9533 295.711 65.28 294.125 65.28ZM330.508 65H327.512V57.44C327.512 56.0587 327.223 55.06 326.644 54.444C326.065 53.828 325.095 53.52 323.732 53.52C322.257 53.52 321.212 53.9027 320.596 54.668C319.999 55.4147 319.7 56.5627 319.7 58.112L319.168 58.14L319 55.396H319.616C319.747 54.5933 320.017 53.8467 320.428 53.156C320.839 52.4653 321.427 51.9053 322.192 51.476C322.957 51.028 323.919 50.804 325.076 50.804C326.289 50.804 327.297 51.056 328.1 51.56C328.903 52.064 329.5 52.7547 329.892 53.632C330.303 54.5093 330.508 55.508 330.508 56.628V65ZM308.92 65H305.896V51.084H308.668V55.452L308.92 55.592V65ZM319.7 65H316.704V57.44C316.704 56.0587 316.415 55.06 315.836 54.444C315.257 53.828 314.296 53.52 312.952 53.52C311.459 53.52 310.413 53.9027 309.816 54.668C309.219 55.4147 308.92 56.5627 308.92 58.112L308.388 58.14L308.248 55.284H308.836C308.967 54.5 309.228 53.772 309.62 53.1C310.012 52.428 310.581 51.8773 311.328 51.448C312.075 51.0187 313.027 50.804 314.184 50.804C315.397 50.804 316.396 51.0653 317.18 51.588C317.964 52.092 318.552 52.7827 318.944 53.66C319.336 54.5373 319.532 55.5267 319.532 56.628H319.7V65ZM54.56 99H51.788V95.416L51.592 95.332V90.572C51.592 89.4147 51.312 88.612 50.752 88.164C50.2107 87.6973 49.268 87.464 47.924 87.464C46.636 87.464 45.6747 87.688 45.04 88.136C44.4053 88.584 44.088 89.3213 44.088 90.348V90.46H41.092V90.348C41.092 89.284 41.372 88.3413 41.932 87.52C42.492 86.68 43.2947 86.0173 44.34 85.532C45.404 85.0467 46.6733 84.804 48.148 84.804C49.6227 84.804 50.8267 85.056 51.76 85.56C52.712 86.0453 53.412 86.7173 53.86 87.576C54.3267 88.4347 54.56 89.424 54.56 90.544V99ZM45.488 99.28C44.0507 99.28 42.9027 98.9627 42.044 98.328C41.204 97.6747 40.784 96.7787 40.784 95.64C40.784 94.912 40.9613 94.3053 41.316 93.82C41.6893 93.316 42.212 92.924 42.884 92.644C43.556 92.364 44.3493 92.168 45.264 92.056L51.872 91.356V93.148L46.132 93.792C45.348 93.8853 44.76 94.0533 44.368 94.296C43.9947 94.52 43.808 94.9027 43.808 95.444C43.808 96.004 44.004 96.424 44.396 96.704C44.8067 96.9653 45.4413 97.096 46.3 97.096C47.364 97.096 48.288 96.9653 49.072 96.704C49.856 96.424 50.472 95.9947 50.92 95.416C51.368 94.8373 51.592 94.0907 51.592 93.176L51.984 93.232V95.528H51.592C51.2187 96.704 50.5 97.628 49.436 98.3C48.3907 98.9533 47.0747 99.28 45.488 99.28ZM71.2285 93.344H63.1925V90.628H70.9485C72.3672 90.628 73.4312 90.3387 74.1405 89.76C74.8685 89.1813 75.2325 88.192 75.2325 86.792C75.2325 85.4107 74.8685 84.4307 74.1405 83.852C73.4312 83.2547 72.3672 82.956 70.9485 82.956H63.1925V80.24H71.2285C72.6285 80.24 73.8512 80.5013 74.8965 81.024C75.9605 81.528 76.7819 82.2653 77.3605 83.236C77.9579 84.2067 78.2565 85.392 78.2565 86.792C78.2565 88.1733 77.9579 89.3493 77.3605 90.32C76.7819 91.2907 75.9605 92.0373 74.8965 92.56C73.8512 93.0827 72.6285 93.344 71.2285 93.344ZM65.0685 99H62.0445V80.24H65.0685V99ZM83.0881 99H80.0641V80.24H89.8081C91.2267 80.24 92.4494 80.4547 93.4761 80.884C94.5214 81.3133 95.3147 81.9387 95.8561 82.76C96.4161 83.5813 96.6961 84.58 96.6961 85.756C96.6961 86.8013 96.4721 87.6973 96.0241 88.444C95.5947 89.1907 94.9601 89.7787 94.1201 90.208C93.2987 90.6373 92.3001 90.8893 91.1241 90.964V91.16C91.8521 91.3467 92.4121 91.6547 92.8041 92.084C93.2147 92.4947 93.5881 92.9987 93.9241 93.596L97.0601 99H93.5881L90.5921 93.82C90.3121 93.316 90.0041 92.9147 89.6681 92.616C89.3507 92.2987 88.9494 92.0747 88.4641 91.944C87.9787 91.7947 87.3347 91.72 86.5321 91.72H83.0881V99ZM83.0881 82.956V89.396H89.7801C91.0307 89.396 91.9734 89.1533 92.6081 88.668C93.2427 88.1827 93.5601 87.352 93.5601 86.176C93.5601 85.0373 93.2427 84.216 92.6081 83.712C91.9734 83.208 91.0307 82.956 89.7801 82.956H83.0881ZM108.089 99.28C106.129 99.28 104.411 98.888 102.937 98.104C101.481 97.3013 100.342 96.1813 99.5206 94.744C98.7179 93.288 98.3166 91.58 98.3166 89.62C98.3166 87.66 98.7179 85.9613 99.5206 84.524C100.342 83.068 101.481 81.948 102.937 81.164C104.411 80.3613 106.129 79.96 108.089 79.96C110.086 79.96 111.813 80.3613 113.269 81.164C114.725 81.948 115.854 83.068 116.657 84.524C117.478 85.9613 117.889 87.66 117.889 89.62C117.889 91.58 117.478 93.288 116.657 94.744C115.854 96.1813 114.725 97.3013 113.269 98.104C111.813 98.888 110.086 99.28 108.089 99.28ZM108.089 96.368C109.563 96.368 110.786 96.1347 111.757 95.668C112.746 95.1827 113.483 94.4453 113.969 93.456C114.454 92.448 114.697 91.1693 114.697 89.62C114.697 88.052 114.454 86.7733 113.969 85.784C113.483 84.7947 112.746 84.0667 111.757 83.6C110.786 83.1147 109.563 82.872 108.089 82.872C106.614 82.872 105.382 83.1147 104.393 83.6C103.422 84.0667 102.694 84.7947 102.209 85.784C101.742 86.7733 101.509 88.052 101.509 89.62C101.509 91.1693 101.742 92.448 102.209 93.456C102.694 94.4453 103.422 95.1827 104.393 95.668C105.382 96.1347 106.614 96.368 108.089 96.368ZM127.932 99H124.908V85.084H127.932V99ZM127.932 83.46H124.908V80.24H127.932V83.46ZM145.264 99H142.24V91.44C142.24 90.1333 141.923 89.1533 141.288 88.5C140.672 87.8467 139.636 87.52 138.18 87.52C136.668 87.52 135.548 87.912 134.82 88.696C134.111 89.4613 133.756 90.6 133.756 92.112L133.224 92.14L133.084 89.396H133.7C133.849 88.612 134.148 87.8747 134.596 87.184C135.063 86.4747 135.697 85.9053 136.5 85.476C137.321 85.028 138.32 84.804 139.496 84.804C140.784 84.804 141.857 85.0653 142.716 85.588C143.575 86.1107 144.209 86.8107 144.62 87.688C145.049 88.5653 145.264 89.5453 145.264 90.628V99ZM133.756 99H130.732V85.084H133.504V89.452L133.756 89.592V99ZM159.772 99.28C158.241 99.28 156.906 98.9813 155.768 98.384C154.629 97.768 153.742 96.9187 153.108 95.836C152.492 94.7347 152.184 93.4747 152.184 92.056C152.184 90.6 152.492 89.3307 153.108 88.248C153.742 87.1653 154.629 86.3253 155.768 85.728C156.906 85.112 158.241 84.804 159.772 84.804C161.172 84.804 162.413 85.0467 163.496 85.532C164.578 86.0173 165.428 86.6987 166.044 87.576C166.678 88.4347 166.996 89.452 166.996 90.628V90.908H164V90.74C164 89.6573 163.626 88.8547 162.88 88.332C162.133 87.7907 161.078 87.52 159.716 87.52C158.148 87.52 157 87.9027 156.272 88.668C155.544 89.4147 155.18 90.544 155.18 92.056C155.18 93.5493 155.544 94.6787 156.272 95.444C157 96.1907 158.148 96.564 159.716 96.564C161.078 96.564 162.133 96.3027 162.88 95.78C163.626 95.2387 164 94.4267 164 93.344V93.148H166.996V93.456C166.996 94.6133 166.678 95.6307 166.044 96.508C165.428 97.3853 164.578 98.0667 163.496 98.552C162.413 99.0373 161.172 99.28 159.772 99.28ZM172.256 99H169.232V80.24H172.256V99ZM188.216 99H185.444V95.416L185.248 95.332V90.572C185.248 89.4147 184.968 88.612 184.408 88.164C183.867 87.6973 182.924 87.464 181.58 87.464C180.292 87.464 179.331 87.688 178.696 88.136C178.062 88.584 177.744 89.3213 177.744 90.348V90.46H174.748V90.348C174.748 89.284 175.028 88.3413 175.588 87.52C176.148 86.68 176.951 86.0173 177.996 85.532C179.06 85.0467 180.33 84.804 181.804 84.804C183.279 84.804 184.483 85.056 185.416 85.56C186.368 86.0453 187.068 86.7173 187.516 87.576C187.983 88.4347 188.216 89.424 188.216 90.544V99ZM179.144 99.28C177.707 99.28 176.559 98.9627 175.7 98.328C174.86 97.6747 174.44 96.7787 174.44 95.64C174.44 94.912 174.618 94.3053 174.972 93.82C175.346 93.316 175.868 92.924 176.54 92.644C177.212 92.364 178.006 92.168 178.92 92.056L185.528 91.356V93.148L179.788 93.792C179.004 93.8853 178.416 94.0533 178.024 94.296C177.651 94.52 177.464 94.9027 177.464 95.444C177.464 96.004 177.66 96.424 178.052 96.704C178.463 96.9653 179.098 97.096 179.956 97.096C181.02 97.096 181.944 96.9653 182.728 96.704C183.512 96.424 184.128 95.9947 184.576 95.416C185.024 94.8373 185.248 94.0907 185.248 93.176L185.64 93.232V95.528H185.248C184.875 96.704 184.156 97.628 183.092 98.3C182.047 98.9533 180.731 99.28 179.144 99.28ZM197.496 99.28C195.256 99.28 193.52 98.8507 192.288 97.992C191.074 97.1333 190.468 95.9013 190.468 94.296V94.212H193.492V94.436C193.492 95.3507 193.79 95.9853 194.388 96.34C195.004 96.676 196.04 96.844 197.496 96.844C198.858 96.844 199.782 96.704 200.268 96.424C200.772 96.1253 201.024 95.668 201.024 95.052C201.024 94.4733 200.828 94.0627 200.436 93.82C200.062 93.5773 199.372 93.3907 198.364 93.26L194.556 92.756C193.23 92.588 192.194 92.2147 191.448 91.636C190.701 91.0387 190.328 90.152 190.328 88.976C190.328 88.1547 190.57 87.436 191.056 86.82C191.541 86.1853 192.269 85.6907 193.24 85.336C194.21 84.9813 195.405 84.804 196.824 84.804C198.242 84.804 199.456 84.9907 200.464 85.364C201.49 85.7373 202.274 86.2973 202.816 87.044C203.376 87.7907 203.656 88.7147 203.656 89.816V89.9H200.66V89.732C200.66 89.1907 200.548 88.7333 200.324 88.36C200.1 87.9867 199.698 87.7067 199.12 87.52C198.56 87.3147 197.766 87.212 196.74 87.212C195.452 87.212 194.556 87.3613 194.052 87.66C193.548 87.9587 193.296 88.4347 193.296 89.088C193.296 89.6293 193.482 90.0213 193.856 90.264C194.229 90.5067 194.929 90.7027 195.956 90.852L199.176 91.3C200.818 91.5053 202.032 91.9067 202.816 92.504C203.6 93.1013 203.992 93.9787 203.992 95.136C203.992 95.9947 203.721 96.7413 203.18 97.376C202.638 97.992 201.882 98.468 200.912 98.804C199.941 99.1213 198.802 99.28 197.496 99.28ZM212.753 99.28C210.513 99.28 208.777 98.8507 207.545 97.992C206.332 97.1333 205.725 95.9013 205.725 94.296V94.212H208.749V94.436C208.749 95.3507 209.048 95.9853 209.645 96.34C210.261 96.676 211.297 96.844 212.753 96.844C214.116 96.844 215.04 96.704 215.525 96.424C216.029 96.1253 216.281 95.668 216.281 95.052C216.281 94.4733 216.085 94.0627 215.693 93.82C215.32 93.5773 214.629 93.3907 213.621 93.26L209.813 92.756C208.488 92.588 207.452 92.2147 206.705 91.636C205.959 91.0387 205.585 90.152 205.585 88.976C205.585 88.1547 205.828 87.436 206.313 86.82C206.799 86.1853 207.527 85.6907 208.497 85.336C209.468 84.9813 210.663 84.804 212.081 84.804C213.5 84.804 214.713 84.9907 215.721 85.364C216.748 85.7373 217.532 86.2973 218.073 87.044C218.633 87.7907 218.913 88.7147 218.913 89.816V89.9H215.917V89.732C215.917 89.1907 215.805 88.7333 215.581 88.36C215.357 87.9867 214.956 87.7067 214.377 87.52C213.817 87.3147 213.024 87.212 211.997 87.212C210.709 87.212 209.813 87.3613 209.309 87.66C208.805 87.9587 208.553 88.4347 208.553 89.088C208.553 89.6293 208.74 90.0213 209.113 90.264C209.487 90.5067 210.187 90.7027 211.213 90.852L214.433 91.3C216.076 91.5053 217.289 91.9067 218.073 92.504C218.857 93.1013 219.249 93.9787 219.249 95.136C219.249 95.9947 218.979 96.7413 218.437 97.376C217.896 97.992 217.14 98.468 216.169 98.804C215.199 99.1213 214.06 99.28 212.753 99.28ZM224.455 99H221.431V85.084H224.455V99ZM224.455 83.46H221.431V80.24H224.455V83.46ZM231.343 99H228.319V85.84C228.319 84.664 228.571 83.6653 229.075 82.844C229.598 82.004 230.354 81.36 231.343 80.912C232.333 80.464 233.537 80.24 234.955 80.24H236.327V82.48H234.479C233.285 82.48 232.417 82.704 231.875 83.152C231.334 83.5813 231.157 84.4027 231.343 85.616V86.176V99ZM236.327 87.604H226.219V85.084H236.327V87.604ZM240.242 103.76H238.254V101.016H240.97C241.586 101.016 242.043 100.913 242.342 100.708C242.659 100.521 242.92 100.195 243.126 99.728L243.994 97.852L243.658 99.392L236.602 85.084H239.99L243.546 92.476L244.918 95.808H245.142L246.458 92.448L249.734 85.084H253.066L245.814 100.512C245.44 101.333 245.002 101.977 244.498 102.444C243.994 102.929 243.396 103.265 242.706 103.452C242.015 103.657 241.194 103.76 240.242 103.76ZM257.569 99H254.545V85.084H257.569V99ZM257.569 83.46H254.545V80.24H257.569V83.46ZM274.901 99H271.877V91.44C271.877 90.1333 271.559 89.1533 270.925 88.5C270.309 87.8467 269.273 87.52 267.817 87.52C266.305 87.52 265.185 87.912 264.457 88.696C263.747 89.4613 263.393 90.6 263.393 92.112L262.861 92.14L262.721 89.396H263.337C263.486 88.612 263.785 87.8747 264.233 87.184C264.699 86.4747 265.334 85.9053 266.137 85.476C266.958 85.028 267.957 84.804 269.133 84.804C270.421 84.804 271.494 85.0653 272.353 85.588C273.211 86.1107 273.846 86.8107 274.257 87.688C274.686 88.5653 274.901 89.5453 274.901 90.628V99ZM263.393 99H260.369V85.084H263.141V89.452L263.393 89.592V99ZM284.903 104.04C283.522 104.04 282.309 103.825 281.263 103.396C280.218 102.985 279.397 102.388 278.799 101.604C278.221 100.82 277.931 99.868 277.931 98.748H280.927C280.927 99.42 281.067 99.9613 281.347 100.372C281.627 100.783 282.066 101.072 282.663 101.24C283.279 101.427 284.082 101.52 285.071 101.52C286.135 101.52 286.975 101.399 287.591 101.156C288.226 100.932 288.683 100.531 288.963 99.952C289.243 99.3733 289.383 98.5707 289.383 97.544V89.396L289.607 89.2V85.084H292.379V97.376C292.379 98.9253 292.071 100.185 291.455 101.156C290.839 102.145 289.971 102.873 288.851 103.34C287.731 103.807 286.415 104.04 284.903 104.04ZM283.643 97.74C282.262 97.74 281.077 97.4693 280.087 96.928C279.117 96.3867 278.361 95.6307 277.819 94.66C277.297 93.6893 277.035 92.56 277.035 91.272C277.035 89.984 277.306 88.8547 277.847 87.884C278.407 86.9133 279.191 86.1573 280.199 85.616C281.226 85.0747 282.439 84.804 283.839 84.804C285.295 84.804 286.527 85.1307 287.535 85.784C288.562 86.4187 289.197 87.3427 289.439 88.556H290.083L289.915 90.992H289.383C289.383 90.208 289.197 89.5547 288.823 89.032C288.45 88.4907 287.918 88.0893 287.227 87.828C286.537 87.5667 285.697 87.436 284.707 87.436C283.755 87.436 282.925 87.5573 282.215 87.8C281.525 88.0427 280.993 88.444 280.619 89.004C280.265 89.5453 280.087 90.3013 280.087 91.272C280.087 92.224 280.265 92.98 280.619 93.54C280.974 94.1 281.487 94.5107 282.159 94.772C282.85 95.0147 283.671 95.136 284.623 95.136C286.154 95.136 287.33 94.8187 288.151 94.184C288.973 93.5493 289.383 92.616 289.383 91.384H289.915V94.128H289.187C288.945 95.192 288.357 96.06 287.423 96.732C286.49 97.404 285.23 97.74 283.643 97.74ZM306.627 99H302.875L298.703 85.084H301.839L304.163 92.98L304.807 96.564H305.031L306.067 92.7L308.979 85.084H312.843L315.783 92.7L316.819 96.564H317.043L317.687 92.98L320.011 85.084H323.091L318.863 99H315.111L312.059 90.992L310.995 87.576H310.771L309.707 90.992L306.627 99ZM339.271 99H336.275V91.44C336.275 90.04 335.948 89.0413 335.295 88.444C334.641 87.828 333.587 87.52 332.131 87.52C331.029 87.52 330.152 87.716 329.499 88.108C328.845 88.4813 328.369 89.0227 328.071 89.732C327.791 90.4227 327.651 91.2627 327.651 92.252L327.063 92.28L327.203 89.34H327.819C327.987 88.556 328.285 87.8187 328.715 87.128C329.163 86.4373 329.788 85.8773 330.591 85.448C331.393 85.0187 332.383 84.804 333.559 84.804C334.828 84.804 335.883 85.0653 336.723 85.588C337.581 86.092 338.216 86.792 338.627 87.688C339.056 88.5653 339.271 89.5733 339.271 90.712V99ZM327.651 99H324.627V80.24H327.651V99ZM355.15 99H352.378V95.416L352.182 95.332V90.572C352.182 89.4147 351.902 88.612 351.342 88.164C350.801 87.6973 349.858 87.464 348.514 87.464C347.226 87.464 346.265 87.688 345.63 88.136C344.995 88.584 344.678 89.3213 344.678 90.348V90.46H341.682V90.348C341.682 89.284 341.962 88.3413 342.522 87.52C343.082 86.68 343.885 86.0173 344.93 85.532C345.994 85.0467 347.263 84.804 348.738 84.804C350.213 84.804 351.417 85.056 352.35 85.56C353.302 86.0453 354.002 86.7173 354.45 87.576C354.917 88.4347 355.15 89.424 355.15 90.544V99ZM346.078 99.28C344.641 99.28 343.493 98.9627 342.634 98.328C341.794 97.6747 341.374 96.7787 341.374 95.64C341.374 94.912 341.551 94.3053 341.906 93.82C342.279 93.316 342.802 92.924 343.474 92.644C344.146 92.364 344.939 92.168 345.854 92.056L352.462 91.356V93.148L346.722 93.792C345.938 93.8853 345.35 94.0533 344.958 94.296C344.585 94.52 344.398 94.9027 344.398 95.444C344.398 96.004 344.594 96.424 344.986 96.704C345.397 96.9653 346.031 97.096 346.89 97.096C347.954 97.096 348.878 96.9653 349.662 96.704C350.446 96.424 351.062 95.9947 351.51 95.416C351.958 94.8373 352.182 94.0907 352.182 93.176L352.574 93.232V95.528H352.182C351.809 96.704 351.09 97.628 350.026 98.3C348.981 98.9533 347.665 99.28 346.078 99.28ZM366.977 99H363.785C362.292 99 361.107 98.636 360.229 97.908C359.371 97.18 358.941 95.976 358.941 94.296V82.032H361.937V94.128C361.937 94.9867 362.143 95.5653 362.553 95.864C362.964 96.144 363.599 96.284 364.457 96.284H366.977V99ZM366.977 87.604H356.589V85.084H366.977V87.604ZM56.072 133H52.516L48.4 127.316H43.08V124.6H48.4L52.572 119.084H56.1L50.864 125.776L56.072 133ZM44.424 133H41.4V114.24H44.424V133ZM60.6115 133H57.5875V119.084H60.6115V133ZM60.6115 117.46H57.5875V114.24H60.6115V117.46ZM77.9437 133H74.9197V125.44C74.9197 124.133 74.6024 123.153 73.9677 122.5C73.3517 121.847 72.3157 121.52 70.8597 121.52C69.3477 121.52 68.2277 121.912 67.4997 122.696C66.7904 123.461 66.4357 124.6 66.4357 126.112L65.9037 126.14L65.7637 123.396H66.3797C66.5291 122.612 66.8277 121.875 67.2757 121.184C67.7424 120.475 68.3771 119.905 69.1797 119.476C70.0011 119.028 70.9997 118.804 72.1757 118.804C73.4637 118.804 74.5371 119.065 75.3957 119.588C76.2544 120.111 76.8891 120.811 77.2997 121.688C77.7291 122.565 77.9437 123.545 77.9437 124.628V133ZM66.4357 133H63.4117V119.084H66.1837V123.452L66.4357 123.592V133ZM86.7703 133.28C85.2956 133.28 84.0449 132.981 83.0183 132.384C82.0103 131.768 81.2449 130.919 80.7223 129.836C80.1996 128.735 79.9383 127.475 79.9383 126.056C79.9383 124.6 80.1996 123.331 80.7223 122.248C81.2449 121.165 82.0009 120.325 82.9903 119.728C83.9796 119.112 85.1743 118.804 86.5743 118.804C88.2169 118.804 89.5143 119.187 90.4663 119.952C91.4183 120.717 92.0343 121.688 92.3143 122.864H93.0143V125.972H92.4823C92.4823 124.497 92.0623 123.396 91.2223 122.668C90.3823 121.921 89.1876 121.548 87.6383 121.548C86.6863 121.548 85.8556 121.697 85.1463 121.996C84.4369 122.276 83.8956 122.743 83.5223 123.396C83.1676 124.049 82.9903 124.936 82.9903 126.056C82.9903 127.157 83.1676 128.035 83.5223 128.688C83.8956 129.341 84.4369 129.808 85.1463 130.088C85.8556 130.368 86.7049 130.508 87.6943 130.508C88.6836 130.508 89.5329 130.359 90.2423 130.06C90.9703 129.743 91.5209 129.257 91.8943 128.604C92.2863 127.951 92.4823 127.148 92.4823 126.196H93.0143L93.2103 128.996H92.5383C92.2583 130.377 91.6143 131.441 90.6063 132.188C89.6169 132.916 88.3383 133.28 86.7703 133.28ZM95.5063 133H92.7343V128.632L92.4823 128.268V114.24H95.5063V133ZM110.2 133.28C108.669 133.28 107.316 132.981 106.14 132.384C104.982 131.768 104.077 130.919 103.424 129.836C102.789 128.735 102.472 127.475 102.472 126.056C102.472 124.6 102.789 123.331 103.424 122.248C104.077 121.165 104.982 120.325 106.14 119.728C107.316 119.112 108.669 118.804 110.2 118.804C111.768 118.804 113.13 119.112 114.288 119.728C115.445 120.325 116.341 121.165 116.976 122.248C117.629 123.331 117.956 124.6 117.956 126.056C117.956 127.475 117.629 128.735 116.976 129.836C116.341 130.919 115.445 131.768 114.288 132.384C113.13 132.981 111.768 133.28 110.2 133.28ZM110.2 130.592C111.898 130.592 113.121 130.209 113.868 129.444C114.614 128.66 114.988 127.531 114.988 126.056C114.988 124.581 114.614 123.452 113.868 122.668C113.121 121.865 111.898 121.464 110.2 121.464C108.52 121.464 107.306 121.865 106.56 122.668C105.813 123.452 105.44 124.581 105.44 126.056C105.44 127.531 105.813 128.66 106.56 129.444C107.306 130.209 108.52 130.592 110.2 130.592ZM124.238 133H121.214V119.84C121.214 118.664 121.466 117.665 121.97 116.844C122.493 116.004 123.249 115.36 124.238 114.912C125.227 114.464 126.431 114.24 127.85 114.24H129.222V116.48H127.374C126.179 116.48 125.311 116.704 124.77 117.152C124.229 117.581 124.051 118.403 124.238 119.616V120.176V133ZM129.222 121.604H119.114V119.084H129.222V121.604ZM144.529 133.28C142.98 133.28 141.711 132.897 140.721 132.132C139.732 131.367 139.097 130.349 138.817 129.08H138.173V126.28H138.705C138.705 127.213 138.901 128.007 139.293 128.66C139.685 129.295 140.236 129.771 140.945 130.088C141.673 130.387 142.523 130.536 143.493 130.536C144.501 130.536 145.351 130.396 146.041 130.116C146.751 129.817 147.292 129.341 147.665 128.688C148.039 128.035 148.225 127.157 148.225 126.056C148.225 124.936 148.039 124.049 147.665 123.396C147.292 122.743 146.751 122.276 146.041 121.996C145.351 121.716 144.52 121.576 143.549 121.576C142 121.576 140.805 121.949 139.965 122.696C139.125 123.424 138.705 124.535 138.705 126.028H138.173L137.977 122.948H138.705C138.985 121.66 139.611 120.652 140.581 119.924C141.571 119.177 142.877 118.804 144.501 118.804C145.939 118.804 147.161 119.112 148.169 119.728C149.177 120.325 149.943 121.165 150.465 122.248C150.988 123.331 151.249 124.6 151.249 126.056C151.249 127.475 150.988 128.735 150.465 129.836C149.961 130.919 149.205 131.768 148.197 132.384C147.208 132.981 145.985 133.28 144.529 133.28ZM138.705 137.76H135.681V119.084H138.453V123.452L138.705 123.816V137.76ZM160.345 133.28C158.833 133.28 157.508 133 156.369 132.44C155.231 131.88 154.344 131.059 153.709 129.976C153.093 128.893 152.785 127.587 152.785 126.056C152.785 124.6 153.093 123.331 153.709 122.248C154.344 121.165 155.221 120.325 156.341 119.728C157.461 119.112 158.777 118.804 160.289 118.804C161.727 118.804 162.987 119.065 164.069 119.588C165.171 120.092 166.02 120.839 166.617 121.828C167.233 122.799 167.541 123.993 167.541 125.412C167.541 125.655 167.532 125.888 167.513 126.112C167.495 126.317 167.467 126.523 167.429 126.728H154.717V125.048H165.441L164.657 126.084C164.676 125.897 164.685 125.72 164.685 125.552C164.685 125.365 164.685 125.179 164.685 124.992C164.685 123.704 164.312 122.752 163.565 122.136C162.837 121.501 161.727 121.184 160.233 121.184C158.572 121.184 157.387 121.567 156.677 122.332C155.968 123.097 155.613 124.199 155.613 125.636V126.364C155.613 127.82 155.968 128.931 156.677 129.696C157.387 130.461 158.581 130.844 160.261 130.844C161.717 130.844 162.763 130.62 163.397 130.172C164.051 129.705 164.377 129.061 164.377 128.24V128.016H167.401V128.268C167.401 129.257 167.093 130.135 166.477 130.9C165.88 131.647 165.049 132.235 163.985 132.664C162.94 133.075 161.727 133.28 160.345 133.28ZM172.83 133H169.806V119.084H172.578V123.032L172.83 123.172V133ZM172.83 125.188H172.158V122.836H172.774C172.905 122.071 173.166 121.389 173.558 120.792C173.95 120.176 174.473 119.691 175.126 119.336C175.798 118.981 176.61 118.804 177.562 118.804C178.626 118.804 179.494 119.028 180.166 119.476C180.838 119.924 181.324 120.521 181.622 121.268C181.94 122.015 182.098 122.827 182.098 123.704V125.524H179.102V124.292C179.102 123.284 178.878 122.547 178.43 122.08C177.982 121.613 177.236 121.38 176.19 121.38C174.996 121.38 174.137 121.707 173.614 122.36C173.092 123.013 172.83 123.956 172.83 125.188ZM190.578 133.28C188.338 133.28 186.602 132.851 185.37 131.992C184.156 131.133 183.55 129.901 183.55 128.296V128.212H186.574V128.436C186.574 129.351 186.872 129.985 187.47 130.34C188.086 130.676 189.122 130.844 190.578 130.844C191.94 130.844 192.864 130.704 193.35 130.424C193.854 130.125 194.106 129.668 194.106 129.052C194.106 128.473 193.91 128.063 193.518 127.82C193.144 127.577 192.454 127.391 191.446 127.26L187.638 126.756C186.312 126.588 185.276 126.215 184.53 125.636C183.783 125.039 183.41 124.152 183.41 122.976C183.41 122.155 183.652 121.436 184.138 120.82C184.623 120.185 185.351 119.691 186.322 119.336C187.292 118.981 188.487 118.804 189.906 118.804C191.324 118.804 192.538 118.991 193.546 119.364C194.572 119.737 195.356 120.297 195.898 121.044C196.458 121.791 196.738 122.715 196.738 123.816V123.9H193.742V123.732C193.742 123.191 193.63 122.733 193.406 122.36C193.182 121.987 192.78 121.707 192.202 121.52C191.642 121.315 190.848 121.212 189.822 121.212C188.534 121.212 187.638 121.361 187.134 121.66C186.63 121.959 186.378 122.435 186.378 123.088C186.378 123.629 186.564 124.021 186.938 124.264C187.311 124.507 188.011 124.703 189.038 124.852L192.258 125.3C193.9 125.505 195.114 125.907 195.898 126.504C196.682 127.101 197.074 127.979 197.074 129.136C197.074 129.995 196.803 130.741 196.262 131.376C195.72 131.992 194.964 132.468 193.994 132.804C193.023 133.121 191.884 133.28 190.578 133.28ZM206.367 133.28C204.837 133.28 203.483 132.981 202.307 132.384C201.15 131.768 200.245 130.919 199.591 129.836C198.957 128.735 198.639 127.475 198.639 126.056C198.639 124.6 198.957 123.331 199.591 122.248C200.245 121.165 201.15 120.325 202.307 119.728C203.483 119.112 204.837 118.804 206.367 118.804C207.935 118.804 209.298 119.112 210.455 119.728C211.613 120.325 212.509 121.165 213.143 122.248C213.797 123.331 214.123 124.6 214.123 126.056C214.123 127.475 213.797 128.735 213.143 129.836C212.509 130.919 211.613 131.768 210.455 132.384C209.298 132.981 207.935 133.28 206.367 133.28ZM206.367 130.592C208.066 130.592 209.289 130.209 210.035 129.444C210.782 128.66 211.155 127.531 211.155 126.056C211.155 124.581 210.782 123.452 210.035 122.668C209.289 121.865 208.066 121.464 206.367 121.464C204.687 121.464 203.474 121.865 202.727 122.668C201.981 123.452 201.607 124.581 201.607 126.056C201.607 127.531 201.981 128.66 202.727 129.444C203.474 130.209 204.687 130.592 206.367 130.592ZM230.85 133H227.826V125.44C227.826 124.133 227.509 123.153 226.874 122.5C226.258 121.847 225.222 121.52 223.766 121.52C222.254 121.52 221.134 121.912 220.406 122.696C219.697 123.461 219.342 124.6 219.342 126.112L218.81 126.14L218.67 123.396H219.286C219.435 122.612 219.734 121.875 220.182 121.184C220.649 120.475 221.283 119.905 222.086 119.476C222.907 119.028 223.906 118.804 225.082 118.804C226.37 118.804 227.443 119.065 228.302 119.588C229.161 120.111 229.795 120.811 230.206 121.688C230.635 122.565 230.85 123.545 230.85 124.628V133ZM219.342 133H216.318V119.084H219.09V123.452L219.342 123.592V133ZM240.57 137.76H238.582V135.016H241.298C241.914 135.016 242.371 134.913 242.67 134.708C242.987 134.521 243.248 134.195 243.454 133.728L244.322 131.852L243.986 133.392L236.93 119.084H240.318L243.874 126.476L245.246 129.808H245.47L246.786 126.448L250.062 119.084H253.394L246.142 134.512C245.768 135.333 245.33 135.977 244.826 136.444C244.322 136.929 243.724 137.265 243.034 137.452C242.343 137.657 241.522 137.76 240.57 137.76ZM261.985 133.28C260.454 133.28 259.101 132.981 257.925 132.384C256.767 131.768 255.862 130.919 255.209 129.836C254.574 128.735 254.257 127.475 254.257 126.056C254.257 124.6 254.574 123.331 255.209 122.248C255.862 121.165 256.767 120.325 257.925 119.728C259.101 119.112 260.454 118.804 261.985 118.804C263.553 118.804 264.915 119.112 266.073 119.728C267.23 120.325 268.126 121.165 268.761 122.248C269.414 123.331 269.741 124.6 269.741 126.056C269.741 127.475 269.414 128.735 268.761 129.836C268.126 130.919 267.23 131.768 266.073 132.384C264.915 132.981 263.553 133.28 261.985 133.28ZM261.985 130.592C263.683 130.592 264.906 130.209 265.653 129.444C266.399 128.66 266.773 127.531 266.773 126.056C266.773 124.581 266.399 123.452 265.653 122.668C264.906 121.865 263.683 121.464 261.985 121.464C260.305 121.464 259.091 121.865 258.345 122.668C257.598 123.452 257.225 124.581 257.225 126.056C257.225 127.531 257.598 128.66 258.345 129.444C259.091 130.209 260.305 130.592 261.985 130.592ZM277.731 133.28C276.424 133.28 275.342 133.019 274.483 132.496C273.624 131.973 272.98 131.273 272.551 130.396C272.122 129.519 271.907 128.539 271.907 127.456V119.084H274.903V126.644C274.903 127.932 275.22 128.912 275.855 129.584C276.508 130.237 277.572 130.564 279.047 130.564C280.596 130.564 281.726 130.181 282.435 129.416C283.163 128.632 283.527 127.484 283.527 125.972L284.059 125.944L284.227 128.688H283.583C283.452 129.472 283.154 130.209 282.687 130.9C282.22 131.591 281.576 132.16 280.755 132.608C279.952 133.056 278.944 133.28 277.731 133.28ZM286.551 133H283.779V128.632L283.527 128.492V119.084H286.551V133ZM307.244 133H304.472V129.416L304.276 129.332V124.572C304.276 123.415 303.996 122.612 303.436 122.164C302.894 121.697 301.952 121.464 300.608 121.464C299.32 121.464 298.358 121.688 297.724 122.136C297.089 122.584 296.772 123.321 296.772 124.348V124.46H293.776V124.348C293.776 123.284 294.056 122.341 294.616 121.52C295.176 120.68 295.978 120.017 297.024 119.532C298.088 119.047 299.357 118.804 300.832 118.804C302.306 118.804 303.51 119.056 304.444 119.56C305.396 120.045 306.096 120.717 306.544 121.576C307.01 122.435 307.244 123.424 307.244 124.544V133ZM298.172 133.28C296.734 133.28 295.586 132.963 294.728 132.328C293.888 131.675 293.468 130.779 293.468 129.64C293.468 128.912 293.645 128.305 294 127.82C294.373 127.316 294.896 126.924 295.568 126.644C296.24 126.364 297.033 126.168 297.948 126.056L304.556 125.356V127.148L298.816 127.792C298.032 127.885 297.444 128.053 297.052 128.296C296.678 128.52 296.492 128.903 296.492 129.444C296.492 130.004 296.688 130.424 297.08 130.704C297.49 130.965 298.125 131.096 298.984 131.096C300.048 131.096 300.972 130.965 301.756 130.704C302.54 130.424 303.156 129.995 303.604 129.416C304.052 128.837 304.276 128.091 304.276 127.176L304.668 127.232V129.528H304.276C303.902 130.704 303.184 131.628 302.12 132.3C301.074 132.953 299.758 133.28 298.172 133.28ZM312.967 133H309.943V119.084H312.715V123.032L312.967 123.172V133ZM312.967 125.188H312.295V122.836H312.911C313.042 122.071 313.303 121.389 313.695 120.792C314.087 120.176 314.61 119.691 315.263 119.336C315.935 118.981 316.747 118.804 317.699 118.804C318.763 118.804 319.631 119.028 320.303 119.476C320.975 119.924 321.46 120.521 321.759 121.268C322.076 122.015 322.235 122.827 322.235 123.704V125.524H319.239V124.292C319.239 123.284 319.015 122.547 318.567 122.08C318.119 121.613 317.372 121.38 316.327 121.38C315.132 121.38 314.274 121.707 313.751 122.36C313.228 123.013 312.967 123.956 312.967 125.188ZM331.134 133.28C329.622 133.28 328.297 133 327.158 132.44C326.02 131.88 325.133 131.059 324.498 129.976C323.882 128.893 323.574 127.587 323.574 126.056C323.574 124.6 323.882 123.331 324.498 122.248C325.133 121.165 326.01 120.325 327.13 119.728C328.25 119.112 329.566 118.804 331.078 118.804C332.516 118.804 333.776 119.065 334.858 119.588C335.96 120.092 336.809 120.839 337.406 121.828C338.022 122.799 338.33 123.993 338.33 125.412C338.33 125.655 338.321 125.888 338.302 126.112C338.284 126.317 338.256 126.523 338.218 126.728H325.506V125.048H336.23L335.446 126.084C335.465 125.897 335.474 125.72 335.474 125.552C335.474 125.365 335.474 125.179 335.474 124.992C335.474 123.704 335.101 122.752 334.354 122.136C333.626 121.501 332.516 121.184 331.022 121.184C329.361 121.184 328.176 121.567 327.466 122.332C326.757 123.097 326.402 124.199 326.402 125.636V126.364C326.402 127.82 326.757 128.931 327.466 129.696C328.176 130.461 329.37 130.844 331.05 130.844C332.506 130.844 333.552 130.62 334.186 130.172C334.84 129.705 335.166 129.061 335.166 128.24V128.016H338.19V128.268C338.19 129.257 337.882 130.135 337.266 130.9C336.669 131.647 335.838 132.235 334.774 132.664C333.729 133.075 332.516 133.28 331.134 133.28ZM347.987 126.896H344.963V125.944C344.963 125.384 345.066 124.899 345.271 124.488C345.495 124.077 345.813 123.723 346.223 123.424C346.634 123.125 347.119 122.855 347.679 122.612L349.695 121.744C350.479 121.389 351.077 121.035 351.487 120.68C351.917 120.307 352.131 119.803 352.131 119.168C352.131 118.683 352.01 118.263 351.767 117.908C351.525 117.535 351.086 117.245 350.451 117.04C349.817 116.816 348.893 116.704 347.679 116.704C345.719 116.704 344.357 117.003 343.591 117.6C342.826 118.197 342.443 119.084 342.443 120.26V121.072H339.475V120.428C339.475 119.271 339.755 118.197 340.315 117.208C340.894 116.219 341.799 115.435 343.031 114.856C344.282 114.259 345.897 113.96 347.875 113.96C349.611 113.96 351.011 114.193 352.075 114.66C353.139 115.108 353.914 115.724 354.399 116.508C354.903 117.273 355.155 118.123 355.155 119.056C355.155 119.952 354.959 120.708 354.567 121.324C354.194 121.921 353.718 122.416 353.139 122.808C352.561 123.2 351.945 123.536 351.291 123.816L349.275 124.656C348.753 124.861 348.407 125.085 348.239 125.328C348.071 125.571 347.987 125.897 347.987 126.308V126.896ZM348.211 133H344.795V128.856H348.211V133Z" fill="black"/>
</svg>
