<svg width="150" height="150" viewBox="0 0 150 150" fill="none" xmlns="http://www.w3.org/2000/svg">
<rect width="150" height="150" rx="10" fill="#FFF44F"/>
<rect x="67.3071" y="32" width="60.7327" height="86" rx="30.3663" fill="white" stroke="black" stroke-width="2"/>
<rect x="22" y="32" width="60.7327" height="86" rx="30.3663" fill="white" stroke="black" stroke-width="2"/>
<path d="M81.3615 84.0891C81.3615 90.1784 79.5433 95.6315 76.6771 99.5266C73.8104 103.422 69.9727 105.678 65.8714 105.678C61.7702 105.678 57.9325 103.422 55.0658 99.5266C52.1996 95.6315 50.3813 90.1784 50.3813 84.0891C50.3813 77.9998 52.1996 72.5467 55.0658 68.6517C57.9325 64.7559 61.7702 62.5 65.8714 62.5C69.9727 62.5 73.8104 64.7559 76.6771 68.6517C79.5433 72.5467 81.3615 77.9998 81.3615 84.0891Z" fill="black" stroke="black" stroke-width="3"/>
<path d="M126.542 84.0891C126.542 90.1784 124.723 95.6315 121.857 99.5266C118.991 103.422 115.153 105.678 111.052 105.678C106.95 105.678 103.113 103.422 100.246 99.5266C97.3798 95.6315 95.5615 90.1784 95.5615 84.0891C95.5615 77.9998 97.3798 72.5467 100.246 68.6517C103.113 64.7559 106.95 62.5 111.052 62.5C115.153 62.5 118.991 64.7559 121.857 68.6517C124.723 72.5467 126.542 77.9998 126.542 84.0891Z" fill="black" stroke="black" stroke-width="3"/>
</svg>
