<svg width="178" height="19" viewBox="0 0 178 19" fill="none" xmlns="http://www.w3.org/2000/svg">
<path d="M9.8 16.36C15.24 16.36 18.7 13.26 18.7 8.5C18.7 3.76 15.24 0.66 9.8 0.66C4.36 0.66 0.9 3.76 0.9 8.5C0.9 13.26 4.36 16.36 9.8 16.36ZM4.1 8.5C4.1 5.32 6.34 3.26 9.8 3.26C13.26 3.26 15.5 5.32 15.5 8.5C15.5 11.68 13.26 13.72 9.8 13.72C6.34 13.72 4.1 11.68 4.1 8.5ZM21.0094 16H24.2094V10.58L26.2094 9.18L32.5894 16H36.7494L28.4894 7.38L36.5494 0.999999H32.3694L24.2094 7.3V0.999999H21.0094V16ZM40.5578 16L42.2778 12.4H50.5178L52.2378 16H55.7978L48.0578 0.999999H44.7378L37.0578 16H40.5578ZM43.4778 9.9L46.3978 3.78L49.3178 9.9H43.4778ZM56.2795 0.999999H52.5195L59.5395 10.72V16H62.7395V10.72L69.7195 0.999999H66.0195L61.1795 7.84L56.2795 0.999999ZM71.5466 12.8L70.9066 18.62H73.1266L75.0266 12.8H71.5466ZM82.7867 16H95.3867V13.4H85.9867V0.999999H82.7867V16ZM97.5914 16H111.251V13.4H100.791V9.64H110.011V7.12H100.791V3.6H111.091V0.999999H97.5914V16ZM112.948 3.6H118.848V16H122.048V3.6H127.948V0.999999H112.948V3.6ZM130.21 0.299999L129.75 6.12H132.05L133.69 0.299999H130.21ZM135.49 8.48C135.49 13.36 139.11 16.36 145.05 16.36C147.71 16.36 150.15 15.7 151.69 14.54V7.5H144.35V10H148.69V13.16C147.65 13.5 146.47 13.68 145.27 13.68C140.95 13.68 138.69 11.88 138.69 8.48C138.69 5.04 141.01 3.22 145.29 3.22C147.63 3.22 149.71 3.76 151.07 4.48L150.85 1.62C149.41 1.06 147.41 0.66 145.17 0.66C139.15 0.66 135.49 3.64 135.49 8.48ZM162.495 16.36C167.935 16.36 171.395 13.26 171.395 8.5C171.395 3.76 167.935 0.66 162.495 0.66C157.055 0.66 153.595 3.76 153.595 8.5C153.595 13.26 157.055 16.36 162.495 16.36ZM156.795 8.5C156.795 5.32 159.035 3.26 162.495 3.26C165.955 3.26 168.195 5.32 168.195 8.5C168.195 11.68 165.955 13.72 162.495 13.72C159.035 13.72 156.795 11.68 156.795 8.5ZM173.825 0.599999L174.445 10.94H177.005L177.625 0.599999H173.825ZM173.985 16H177.385V12.8H173.985V16Z" fill="white"/>
</svg>
