<svg width="414" height="121" viewBox="0 0 414 121" fill="none" xmlns="http://www.w3.org/2000/svg">
<path d="M83.1864 81.8272L83.2997 80.9562H84.1781L373.5 80.9562C395.593 80.9562 412.5 64.5663 412.5 42.5C412.5 20.4105 395.569 3 373.5 3.00002L373.494 2.99998L40.9807 1C40.9795 1 40.9784 1 40.9772 1C18.9042 1.00187 1 18.8951 1 40.9781C1 63.0508 18.9061 80.9562 40.9922 80.9562H48.6416H49.5834L49.6398 81.8963L48.6416 81.9562C49.6398 81.8963 49.6398 81.8969 49.6399 81.8975L49.64 81.8992L49.6402 81.9039L49.641 81.9189L49.6435 81.9703C49.6454 82.014 49.6478 82.0767 49.6499 82.1577C49.6543 82.3197 49.6578 82.5547 49.6551 82.8579C49.6498 83.4641 49.6198 84.3429 49.5224 85.4534C49.3274 87.674 48.8624 90.8236 47.7836 94.5745C45.748 101.652 41.5296 110.862 32.8375 120C34.1277 119.998 35.9115 119.951 38.0428 119.782C42.5895 119.422 48.6942 118.51 54.9554 116.306C67.4474 111.909 80.5097 102.409 83.1864 81.8272Z" fill="white" stroke="black" stroke-width="2"/>
<path d="M49.584 45.344H41.548V42.628H49.304C50.7227 42.628 51.7867 42.3387 52.496 41.76C53.224 41.1813 53.588 40.192 53.588 38.792C53.588 37.4107 53.224 36.4307 52.496 35.852C51.7867 35.2547 50.7227 34.956 49.304 34.956H41.548V32.24H49.584C50.984 32.24 52.2067 32.5013 53.252 33.024C54.316 33.528 55.1373 34.2653 55.716 35.236C56.3133 36.2067 56.612 37.392 56.612 38.792C56.612 40.1733 56.3133 41.3493 55.716 42.32C55.1373 43.2907 54.316 44.0373 53.252 44.56C52.2067 45.0827 50.984 45.344 49.584 45.344ZM43.424 51H40.4V32.24H43.424V51ZM65.4195 51.28C63.9075 51.28 62.5822 51 61.4435 50.44C60.3049 49.88 59.4182 49.0587 58.7835 47.976C58.1675 46.8933 57.8595 45.5867 57.8595 44.056C57.8595 42.6 58.1675 41.3307 58.7835 40.248C59.4182 39.1653 60.2955 38.3253 61.4155 37.728C62.5355 37.112 63.8515 36.804 65.3635 36.804C66.8009 36.804 68.0609 37.0653 69.1435 37.588C70.2449 38.092 71.0942 38.8387 71.6915 39.828C72.3075 40.7987 72.6155 41.9933 72.6155 43.412C72.6155 43.6547 72.6062 43.888 72.5875 44.112C72.5689 44.3173 72.5409 44.5227 72.5035 44.728H59.7915V43.048H70.5155L69.7315 44.084C69.7502 43.8973 69.7595 43.72 69.7595 43.552C69.7595 43.3653 69.7595 43.1787 69.7595 42.992C69.7595 41.704 69.3862 40.752 68.6395 40.136C67.9115 39.5013 66.8009 39.184 65.3075 39.184C63.6462 39.184 62.4609 39.5667 61.7515 40.332C61.0422 41.0973 60.6875 42.1987 60.6875 43.636V44.364C60.6875 45.82 61.0422 46.9307 61.7515 47.696C62.4609 48.4613 63.6555 48.844 65.3355 48.844C66.7915 48.844 67.8369 48.62 68.4715 48.172C69.1249 47.7053 69.4515 47.0613 69.4515 46.24V46.016H72.4755V46.268C72.4755 47.2573 72.1675 48.1347 71.5515 48.9C70.9542 49.6467 70.1235 50.2347 69.0595 50.664C68.0142 51.0747 66.8009 51.28 65.4195 51.28ZM77.9045 51H74.8805V37.084H77.6525V41.032L77.9045 41.172V51ZM77.9045 43.188H77.2325V40.836H77.8485C77.9791 40.0707 78.2405 39.3893 78.6325 38.792C79.0245 38.176 79.5471 37.6907 80.2005 37.336C80.8725 36.9813 81.6845 36.804 82.6365 36.804C83.7005 36.804 84.5685 37.028 85.2405 37.476C85.9125 37.924 86.3978 38.5213 86.6965 39.268C87.0138 40.0147 87.1725 40.8267 87.1725 41.704V43.524H84.1765V42.292C84.1765 41.284 83.9525 40.5467 83.5045 40.08C83.0565 39.6133 82.3098 39.38 81.2645 39.38C80.0698 39.38 79.2111 39.7067 78.6885 40.36C78.1658 41.0133 77.9045 41.956 77.9045 43.188ZM93.1599 51H90.1359V37.84C90.1359 36.664 90.3879 35.6653 90.8919 34.844C91.4145 34.004 92.1705 33.36 93.1599 32.912C94.1492 32.464 95.3532 32.24 96.7719 32.24H98.1439V34.48H96.2959C95.1012 34.48 94.2332 34.704 93.6919 35.152C93.1505 35.5813 92.9732 36.4027 93.1599 37.616V38.176V51ZM98.1439 39.604H88.0359V37.084H98.1439V39.604ZM106.818 51.28C105.306 51.28 103.981 51 102.842 50.44C101.703 49.88 100.817 49.0587 100.182 47.976C99.566 46.8933 99.258 45.5867 99.258 44.056C99.258 42.6 99.566 41.3307 100.182 40.248C100.817 39.1653 101.694 38.3253 102.814 37.728C103.934 37.112 105.25 36.804 106.762 36.804C108.199 36.804 109.459 37.0653 110.542 37.588C111.643 38.092 112.493 38.8387 113.09 39.828C113.706 40.7987 114.014 41.9933 114.014 43.412C114.014 43.6547 114.005 43.888 113.986 44.112C113.967 44.3173 113.939 44.5227 113.902 44.728H101.19V43.048H111.914L111.13 44.084C111.149 43.8973 111.158 43.72 111.158 43.552C111.158 43.3653 111.158 43.1787 111.158 42.992C111.158 41.704 110.785 40.752 110.038 40.136C109.31 39.5013 108.199 39.184 106.706 39.184C105.045 39.184 103.859 39.5667 103.15 40.332C102.441 41.0973 102.086 42.1987 102.086 43.636V44.364C102.086 45.82 102.441 46.9307 103.15 47.696C103.859 48.4613 105.054 48.844 106.734 48.844C108.19 48.844 109.235 48.62 109.87 48.172C110.523 47.7053 110.85 47.0613 110.85 46.24V46.016H113.874V46.268C113.874 47.2573 113.566 48.1347 112.95 48.9C112.353 49.6467 111.522 50.2347 110.458 50.664C109.413 51.0747 108.199 51.28 106.818 51.28ZM123.307 51.28C121.776 51.28 120.442 50.9813 119.303 50.384C118.164 49.768 117.278 48.9187 116.643 47.836C116.027 46.7347 115.719 45.4747 115.719 44.056C115.719 42.6 116.027 41.3307 116.643 40.248C117.278 39.1653 118.164 38.3253 119.303 37.728C120.442 37.112 121.776 36.804 123.307 36.804C124.707 36.804 125.948 37.0467 127.031 37.532C128.114 38.0173 128.963 38.6987 129.579 39.576C130.214 40.4347 130.531 41.452 130.531 42.628V42.908H127.535V42.74C127.535 41.6573 127.162 40.8547 126.415 40.332C125.668 39.7907 124.614 39.52 123.251 39.52C121.683 39.52 120.535 39.9027 119.807 40.668C119.079 41.4147 118.715 42.544 118.715 44.056C118.715 45.5493 119.079 46.6787 119.807 47.444C120.535 48.1907 121.683 48.564 123.251 48.564C124.614 48.564 125.668 48.3027 126.415 47.78C127.162 47.2387 127.535 46.4267 127.535 45.344V45.148H130.531V45.456C130.531 46.6133 130.214 47.6307 129.579 48.508C128.963 49.3853 128.114 50.0667 127.031 50.552C125.948 51.0373 124.707 51.28 123.307 51.28ZM141.895 51H138.703C137.21 51 136.025 50.636 135.147 49.908C134.289 49.18 133.859 47.976 133.859 46.296V34.032H136.855V46.128C136.855 46.9867 137.061 47.5653 137.471 47.864C137.882 48.144 138.517 48.284 139.375 48.284H141.895V51ZM141.895 39.604H131.507V37.084H141.895V39.604ZM147.035 51H143.227V46.66H147.035V51ZM144.291 54.136H143.283V52.288H144.207C144.449 52.288 144.627 52.2413 144.739 52.148C144.851 52.0733 144.907 51.8867 144.907 51.588V50.356H147.035V51.56C147.035 52.4373 146.792 53.0813 146.307 53.492C145.84 53.9213 145.168 54.136 144.291 54.136ZM168.712 51H165.716V43.44C165.716 42.04 165.389 41.0413 164.736 40.444C164.083 39.828 163.028 39.52 161.572 39.52C160.471 39.52 159.593 39.716 158.94 40.108C158.287 40.4813 157.811 41.0227 157.512 41.732C157.232 42.4227 157.092 43.2627 157.092 44.252L156.504 44.28L156.644 41.34H157.26C157.428 40.556 157.727 39.8187 158.156 39.128C158.604 38.4373 159.229 37.8773 160.032 37.448C160.835 37.0187 161.824 36.804 163 36.804C164.269 36.804 165.324 37.0653 166.164 37.588C167.023 38.092 167.657 38.792 168.068 39.688C168.497 40.5653 168.712 41.5733 168.712 42.712V51ZM157.092 51H154.068V32.24H157.092V51ZM178.431 51.28C176.919 51.28 175.594 51 174.455 50.44C173.317 49.88 172.43 49.0587 171.795 47.976C171.179 46.8933 170.871 45.5867 170.871 44.056C170.871 42.6 171.179 41.3307 171.795 40.248C172.43 39.1653 173.307 38.3253 174.427 37.728C175.547 37.112 176.863 36.804 178.375 36.804C179.813 36.804 181.073 37.0653 182.155 37.588C183.257 38.092 184.106 38.8387 184.703 39.828C185.319 40.7987 185.627 41.9933 185.627 43.412C185.627 43.6547 185.618 43.888 185.599 44.112C185.581 44.3173 185.553 44.5227 185.515 44.728H172.803V43.048H183.527L182.743 44.084C182.762 43.8973 182.771 43.72 182.771 43.552C182.771 43.3653 182.771 43.1787 182.771 42.992C182.771 41.704 182.398 40.752 181.651 40.136C180.923 39.5013 179.813 39.184 178.319 39.184C176.658 39.184 175.473 39.5667 174.763 40.332C174.054 41.0973 173.699 42.1987 173.699 43.636V44.364C173.699 45.82 174.054 46.9307 174.763 47.696C175.473 48.4613 176.667 48.844 178.347 48.844C179.803 48.844 180.849 48.62 181.483 48.172C182.137 47.7053 182.463 47.0613 182.463 46.24V46.016H185.487V46.268C185.487 47.2573 185.179 48.1347 184.563 48.9C183.966 49.6467 183.135 50.2347 182.071 50.664C181.026 51.0747 179.813 51.28 178.431 51.28ZM190.916 51H187.892V37.084H190.664V41.032L190.916 41.172V51ZM190.916 43.188H190.244V40.836H190.86C190.991 40.0707 191.252 39.3893 191.644 38.792C192.036 38.176 192.559 37.6907 193.212 37.336C193.884 36.9813 194.696 36.804 195.648 36.804C196.712 36.804 197.58 37.028 198.252 37.476C198.924 37.924 199.41 38.5213 199.708 39.268C200.026 40.0147 200.184 40.8267 200.184 41.704V43.524H197.188V42.292C197.188 41.284 196.964 40.5467 196.516 40.08C196.068 39.6133 195.322 39.38 194.276 39.38C193.082 39.38 192.223 39.7067 191.7 40.36C191.178 41.0133 190.916 41.956 190.916 43.188ZM209.084 51.28C207.572 51.28 206.246 51 205.108 50.44C203.969 49.88 203.082 49.0587 202.448 47.976C201.832 46.8933 201.524 45.5867 201.524 44.056C201.524 42.6 201.832 41.3307 202.448 40.248C203.082 39.1653 203.96 38.3253 205.08 37.728C206.2 37.112 207.516 36.804 209.028 36.804C210.465 36.804 211.725 37.0653 212.808 37.588C213.909 38.092 214.758 38.8387 215.356 39.828C215.972 40.7987 216.28 41.9933 216.28 43.412C216.28 43.6547 216.27 43.888 216.252 44.112C216.233 44.3173 216.205 44.5227 216.168 44.728H203.456V43.048H214.18L213.396 44.084C213.414 43.8973 213.424 43.72 213.424 43.552C213.424 43.3653 213.424 43.1787 213.424 42.992C213.424 41.704 213.05 40.752 212.304 40.136C211.576 39.5013 210.465 39.184 208.972 39.184C207.31 39.184 206.125 39.5667 205.416 40.332C204.706 41.0973 204.352 42.1987 204.352 43.636V44.364C204.352 45.82 204.706 46.9307 205.416 47.696C206.125 48.4613 207.32 48.844 209 48.844C210.456 48.844 211.501 48.62 212.136 48.172C212.789 47.7053 213.116 47.0613 213.116 46.24V46.016H216.14V46.268C216.14 47.2573 215.832 48.1347 215.216 48.9C214.618 49.6467 213.788 50.2347 212.724 50.664C211.678 51.0747 210.465 51.28 209.084 51.28ZM225.57 55.76H223.582V53.016H226.298C226.914 53.016 227.371 52.9133 227.67 52.708C227.987 52.5213 228.248 52.1947 228.454 51.728L229.322 49.852L228.986 51.392L221.93 37.084H225.318L228.874 44.476L230.246 47.808H230.47L231.786 44.448L235.062 37.084H238.394L231.142 52.512C230.768 53.3333 230.33 53.9773 229.826 54.444C229.322 54.9293 228.724 55.2653 228.034 55.452C227.343 55.6573 226.522 55.76 225.57 55.76ZM246.985 51.28C245.454 51.28 244.101 50.9813 242.925 50.384C241.767 49.768 240.862 48.9187 240.209 47.836C239.574 46.7347 239.257 45.4747 239.257 44.056C239.257 42.6 239.574 41.3307 240.209 40.248C240.862 39.1653 241.767 38.3253 242.925 37.728C244.101 37.112 245.454 36.804 246.985 36.804C248.553 36.804 249.915 37.112 251.073 37.728C252.23 38.3253 253.126 39.1653 253.761 40.248C254.414 41.3307 254.741 42.6 254.741 44.056C254.741 45.4747 254.414 46.7347 253.761 47.836C253.126 48.9187 252.23 49.768 251.073 50.384C249.915 50.9813 248.553 51.28 246.985 51.28ZM246.985 48.592C248.683 48.592 249.906 48.2093 250.653 47.444C251.399 46.66 251.773 45.5307 251.773 44.056C251.773 42.5813 251.399 41.452 250.653 40.668C249.906 39.8653 248.683 39.464 246.985 39.464C245.305 39.464 244.091 39.8653 243.345 40.668C242.598 41.452 242.225 42.5813 242.225 44.056C242.225 45.5307 242.598 46.66 243.345 47.444C244.091 48.2093 245.305 48.592 246.985 48.592ZM262.731 51.28C261.424 51.28 260.342 51.0187 259.483 50.496C258.624 49.9733 257.98 49.2733 257.551 48.396C257.122 47.5187 256.907 46.5387 256.907 45.456V37.084H259.903V44.644C259.903 45.932 260.22 46.912 260.855 47.584C261.508 48.2373 262.572 48.564 264.047 48.564C265.596 48.564 266.726 48.1813 267.435 47.416C268.163 46.632 268.527 45.484 268.527 43.972L269.059 43.944L269.227 46.688H268.583C268.452 47.472 268.154 48.2093 267.687 48.9C267.22 49.5907 266.576 50.16 265.755 50.608C264.952 51.056 263.944 51.28 262.731 51.28ZM271.551 51H268.779V46.632L268.527 46.492V37.084H271.551V51ZM286.392 56.04C285.01 56.04 283.797 55.8253 282.752 55.396C281.706 54.9853 280.885 54.388 280.288 53.604C279.709 52.82 279.42 51.868 279.42 50.748H282.416C282.416 51.42 282.556 51.9613 282.836 52.372C283.116 52.7827 283.554 53.072 284.152 53.24C284.768 53.4267 285.57 53.52 286.56 53.52C287.624 53.52 288.464 53.3987 289.08 53.156C289.714 52.932 290.172 52.5307 290.452 51.952C290.732 51.3733 290.872 50.5707 290.872 49.544V41.396L291.096 41.2V37.084H293.868V49.376C293.868 50.9253 293.56 52.1853 292.944 53.156C292.328 54.1453 291.46 54.8733 290.34 55.34C289.22 55.8067 287.904 56.04 286.392 56.04ZM285.132 49.74C283.75 49.74 282.565 49.4693 281.576 48.928C280.605 48.3867 279.849 47.6307 279.308 46.66C278.785 45.6893 278.524 44.56 278.524 43.272C278.524 41.984 278.794 40.8547 279.336 39.884C279.896 38.9133 280.68 38.1573 281.688 37.616C282.714 37.0747 283.928 36.804 285.328 36.804C286.784 36.804 288.016 37.1307 289.024 37.784C290.05 38.4187 290.685 39.3427 290.928 40.556H291.572L291.404 42.992H290.872C290.872 42.208 290.685 41.5547 290.312 41.032C289.938 40.4907 289.406 40.0893 288.716 39.828C288.025 39.5667 287.185 39.436 286.196 39.436C285.244 39.436 284.413 39.5573 283.704 39.8C283.013 40.0427 282.481 40.444 282.108 41.004C281.753 41.5453 281.576 42.3013 281.576 43.272C281.576 44.224 281.753 44.98 282.108 45.54C282.462 46.1 282.976 46.5107 283.648 46.772C284.338 47.0147 285.16 47.136 286.112 47.136C287.642 47.136 288.818 46.8187 289.64 46.184C290.461 45.5493 290.872 44.616 290.872 43.384H291.404V46.128H290.676C290.433 47.192 289.845 48.06 288.912 48.732C287.978 49.404 286.718 49.74 285.132 49.74ZM303.778 51.28C302.247 51.28 300.894 50.9813 299.718 50.384C298.56 49.768 297.655 48.9187 297.002 47.836C296.367 46.7347 296.05 45.4747 296.05 44.056C296.05 42.6 296.367 41.3307 297.002 40.248C297.655 39.1653 298.56 38.3253 299.718 37.728C300.894 37.112 302.247 36.804 303.778 36.804C305.346 36.804 306.708 37.112 307.866 37.728C309.023 38.3253 309.919 39.1653 310.554 40.248C311.207 41.3307 311.534 42.6 311.534 44.056C311.534 45.4747 311.207 46.7347 310.554 47.836C309.919 48.9187 309.023 49.768 307.866 50.384C306.708 50.9813 305.346 51.28 303.778 51.28ZM303.778 48.592C305.476 48.592 306.699 48.2093 307.446 47.444C308.192 46.66 308.566 45.5307 308.566 44.056C308.566 42.5813 308.192 41.452 307.446 40.668C306.699 39.8653 305.476 39.464 303.778 39.464C302.098 39.464 300.884 39.8653 300.138 40.668C299.391 41.452 299.018 42.5813 299.018 44.056C299.018 45.5307 299.391 46.66 300.138 47.444C300.884 48.2093 302.098 48.592 303.778 48.592ZM317.032 44.84H314.092C314.092 44.2987 314.073 43.6547 314.036 42.908C314.017 42.1613 313.98 41.3773 313.924 40.556C313.887 39.716 313.84 38.8947 313.784 38.092C313.747 37.2893 313.709 36.552 313.672 35.88C313.653 35.1893 313.644 34.6293 313.644 34.2V32.24H317.48V34.2C317.48 34.6293 317.461 35.1893 317.424 35.88C317.405 36.552 317.368 37.2987 317.312 38.12C317.275 38.9227 317.228 39.7347 317.172 40.556C317.135 41.3773 317.097 42.1613 317.06 42.908C317.041 43.6547 317.032 44.2987 317.032 44.84ZM317.256 51H313.84V46.856H317.256V51Z" fill="black"/>
</svg>
