<svg width="73" height="73" viewBox="0 0 73 73" fill="none" xmlns="http://www.w3.org/2000/svg">
<rect x="1" y="1" width="71" height="71" rx="35.5" fill="white" stroke="black" stroke-width="2"/>
<path d="M42.5914 39.5233L52.1762 49.1081L49.1081 52.1767L39.5233 42.5914L38.6697 41.7378V42.945V56.5H34.3303V42.945V41.7378L33.4767 42.5914L23.8919 52.1767L20.8238 49.1081L30.4086 39.5233L31.2622 38.6697H30.055H16.5V34.3303H30.055H31.2622L30.4086 33.4767L20.8238 23.8919L23.8919 20.8238L33.4767 30.4086L34.3303 31.2622V30.055V16.5H38.6697V30.055V31.2622L39.5233 30.4086L49.1081 20.8238L52.1762 23.8919L42.5914 33.4767L41.7378 34.3303H42.945H56.5V38.6697H42.945H41.7378L42.5914 39.5233Z" fill="#FF2C54" stroke="black"/>
</svg>
