<svg width="414" height="121" viewBox="0 0 414 121" fill="none" xmlns="http://www.w3.org/2000/svg">
<path d="M83.1864 81.8272L83.2997 80.9562H84.1781L373.5 80.9562C395.593 80.9562 412.5 64.5663 412.5 42.5C412.5 20.4105 395.569 3 373.5 3.00002L373.494 2.99998L40.9807 1C40.9795 1 40.9784 1 40.9772 1C18.9042 1.00187 1 18.8951 1 40.9781C1 63.0508 18.9061 80.9562 40.9922 80.9562H48.6416H49.5834L49.6398 81.8963L48.6416 81.9562C49.6398 81.8963 49.6398 81.8969 49.6399 81.8975L49.64 81.8992L49.6402 81.9039L49.641 81.9189L49.6435 81.9703C49.6454 82.014 49.6478 82.0767 49.6499 82.1577C49.6543 82.3197 49.6578 82.5547 49.6551 82.8579C49.6498 83.4641 49.6198 84.3429 49.5224 85.4534C49.3274 87.674 48.8624 90.8236 47.7836 94.5745C45.748 101.652 41.5296 110.862 32.8375 120C34.1277 119.998 35.9115 119.951 38.0428 119.782C42.5895 119.422 48.6942 118.51 54.9554 116.306C67.4474 111.909 80.5097 102.409 83.1864 81.8272Z" fill="white" stroke="black" stroke-width="2"/>
<path d="M49.724 51H46.728V32.24H49.724V51ZM57.088 34.956H39.336V32.24H57.088V34.956ZM73.501 51H70.505V43.44C70.505 42.04 70.1784 41.0413 69.525 40.444C68.8717 39.828 67.817 39.52 66.361 39.52C65.2597 39.52 64.3824 39.716 63.729 40.108C63.0757 40.4813 62.5997 41.0227 62.301 41.732C62.021 42.4227 61.881 43.2627 61.881 44.252L61.293 44.28L61.433 41.34H62.049C62.217 40.556 62.5157 39.8187 62.945 39.128C63.393 38.4373 64.0184 37.8773 64.821 37.448C65.6237 37.0187 66.613 36.804 67.789 36.804C69.0584 36.804 70.113 37.0653 70.953 37.588C71.8117 38.092 72.4464 38.792 72.857 39.688C73.2864 40.5653 73.501 41.5733 73.501 42.712V51ZM61.881 51H58.857V32.24H61.881V51ZM83.2203 51.28C81.7083 51.28 80.383 51 79.2443 50.44C78.1056 49.88 77.219 49.0587 76.5843 47.976C75.9683 46.8933 75.6603 45.5867 75.6603 44.056C75.6603 42.6 75.9683 41.3307 76.5843 40.248C77.219 39.1653 78.0963 38.3253 79.2163 37.728C80.3363 37.112 81.6523 36.804 83.1643 36.804C84.6016 36.804 85.8616 37.0653 86.9443 37.588C88.0456 38.092 88.895 38.8387 89.4923 39.828C90.1083 40.7987 90.4163 41.9933 90.4163 43.412C90.4163 43.6547 90.407 43.888 90.3883 44.112C90.3696 44.3173 90.3416 44.5227 90.3043 44.728H77.5923V43.048H88.3163L87.5323 44.084C87.551 43.8973 87.5603 43.72 87.5603 43.552C87.5603 43.3653 87.5603 43.1787 87.5603 42.992C87.5603 41.704 87.187 40.752 86.4403 40.136C85.7123 39.5013 84.6016 39.184 83.1083 39.184C81.447 39.184 80.2616 39.5667 79.5523 40.332C78.843 41.0973 78.4883 42.1987 78.4883 43.636V44.364C78.4883 45.82 78.843 46.9307 79.5523 47.696C80.2616 48.4613 81.4563 48.844 83.1363 48.844C84.5923 48.844 85.6376 48.62 86.2723 48.172C86.9256 47.7053 87.2523 47.0613 87.2523 46.24V46.016H90.2763V46.268C90.2763 47.2573 89.9683 48.1347 89.3523 48.9C88.755 49.6467 87.9243 50.2347 86.8603 50.664C85.815 51.0747 84.6016 51.28 83.2203 51.28ZM104.494 51.28C102.964 51.28 101.629 50.9813 100.49 50.384C99.3517 49.768 98.4651 48.9187 97.8304 47.836C97.2144 46.7347 96.9064 45.4747 96.9064 44.056C96.9064 42.6 97.2144 41.3307 97.8304 40.248C98.4651 39.1653 99.3517 38.3253 100.49 37.728C101.629 37.112 102.964 36.804 104.494 36.804C105.894 36.804 107.136 37.0467 108.218 37.532C109.301 38.0173 110.15 38.6987 110.766 39.576C111.401 40.4347 111.718 41.452 111.718 42.628V42.908H108.722V42.74C108.722 41.6573 108.349 40.8547 107.602 40.332C106.856 39.7907 105.801 39.52 104.438 39.52C102.87 39.52 101.722 39.9027 100.994 40.668C100.266 41.4147 99.9024 42.544 99.9024 44.056C99.9024 45.5493 100.266 46.6787 100.994 47.444C101.722 48.1907 102.87 48.564 104.438 48.564C105.801 48.564 106.856 48.3027 107.602 47.78C108.349 47.2387 108.722 46.4267 108.722 45.344V45.148H111.718V45.456C111.718 46.6133 111.401 47.6307 110.766 48.508C110.15 49.3853 109.301 50.0667 108.218 50.552C107.136 51.0373 105.894 51.28 104.494 51.28ZM121.067 51.28C119.536 51.28 118.183 50.9813 117.007 50.384C115.849 49.768 114.944 48.9187 114.291 47.836C113.656 46.7347 113.339 45.4747 113.339 44.056C113.339 42.6 113.656 41.3307 114.291 40.248C114.944 39.1653 115.849 38.3253 117.007 37.728C118.183 37.112 119.536 36.804 121.067 36.804C122.635 36.804 123.997 37.112 125.155 37.728C126.312 38.3253 127.208 39.1653 127.843 40.248C128.496 41.3307 128.823 42.6 128.823 44.056C128.823 45.4747 128.496 46.7347 127.843 47.836C127.208 48.9187 126.312 49.768 125.155 50.384C123.997 50.9813 122.635 51.28 121.067 51.28ZM121.067 48.592C122.765 48.592 123.988 48.2093 124.735 47.444C125.481 46.66 125.855 45.5307 125.855 44.056C125.855 42.5813 125.481 41.452 124.735 40.668C123.988 39.8653 122.765 39.464 121.067 39.464C119.387 39.464 118.173 39.8653 117.427 40.668C116.68 41.452 116.307 42.5813 116.307 44.056C116.307 45.5307 116.68 46.66 117.427 47.444C118.173 48.2093 119.387 48.592 121.067 48.592ZM138.129 51.28C136.599 51.28 135.245 50.9813 134.069 50.384C132.912 49.768 132.007 48.9187 131.353 47.836C130.719 46.7347 130.401 45.4747 130.401 44.056C130.401 42.6 130.719 41.3307 131.353 40.248C132.007 39.1653 132.912 38.3253 134.069 37.728C135.245 37.112 136.599 36.804 138.129 36.804C139.697 36.804 141.06 37.112 142.217 37.728C143.375 38.3253 144.271 39.1653 144.905 40.248C145.559 41.3307 145.885 42.6 145.885 44.056C145.885 45.4747 145.559 46.7347 144.905 47.836C144.271 48.9187 143.375 49.768 142.217 50.384C141.06 50.9813 139.697 51.28 138.129 51.28ZM138.129 48.592C139.828 48.592 141.051 48.2093 141.797 47.444C142.544 46.66 142.917 45.5307 142.917 44.056C142.917 42.5813 142.544 41.452 141.797 40.668C141.051 39.8653 139.828 39.464 138.129 39.464C136.449 39.464 135.236 39.8653 134.489 40.668C133.743 41.452 133.369 42.5813 133.369 44.056C133.369 45.5307 133.743 46.66 134.489 47.444C135.236 48.2093 136.449 48.592 138.129 48.592ZM151.104 51H148.08V32.24H151.104V51ZM160.904 51.28C159.392 51.28 158.067 51 156.928 50.44C155.789 49.88 154.903 49.0587 154.268 47.976C153.652 46.8933 153.344 45.5867 153.344 44.056C153.344 42.6 153.652 41.3307 154.268 40.248C154.903 39.1653 155.78 38.3253 156.9 37.728C158.02 37.112 159.336 36.804 160.848 36.804C162.285 36.804 163.545 37.0653 164.628 37.588C165.729 38.092 166.579 38.8387 167.176 39.828C167.792 40.7987 168.1 41.9933 168.1 43.412C168.1 43.6547 168.091 43.888 168.072 44.112C168.053 44.3173 168.025 44.5227 167.988 44.728H155.276V43.048H166L165.216 44.084C165.235 43.8973 165.244 43.72 165.244 43.552C165.244 43.3653 165.244 43.1787 165.244 42.992C165.244 41.704 164.871 40.752 164.124 40.136C163.396 39.5013 162.285 39.184 160.792 39.184C159.131 39.184 157.945 39.5667 157.236 40.332C156.527 41.0973 156.172 42.1987 156.172 43.636V44.364C156.172 45.82 156.527 46.9307 157.236 47.696C157.945 48.4613 159.14 48.844 160.82 48.844C162.276 48.844 163.321 48.62 163.956 48.172C164.609 47.7053 164.936 47.0613 164.936 46.24V46.016H167.96V46.268C167.96 47.2573 167.652 48.1347 167.036 48.9C166.439 49.6467 165.608 50.2347 164.544 50.664C163.499 51.0747 162.285 51.28 160.904 51.28ZM176.945 51.28C174.705 51.28 172.969 50.8507 171.737 49.992C170.524 49.1333 169.917 47.9013 169.917 46.296V46.212H172.941V46.436C172.941 47.3507 173.24 47.9853 173.837 48.34C174.453 48.676 175.489 48.844 176.945 48.844C178.308 48.844 179.232 48.704 179.717 48.424C180.221 48.1253 180.473 47.668 180.473 47.052C180.473 46.4733 180.277 46.0627 179.885 45.82C179.512 45.5773 178.821 45.3907 177.813 45.26L174.005 44.756C172.68 44.588 171.644 44.2147 170.897 43.636C170.15 43.0387 169.777 42.152 169.777 40.976C169.777 40.1547 170.02 39.436 170.505 38.82C170.99 38.1853 171.718 37.6907 172.689 37.336C173.66 36.9813 174.854 36.804 176.273 36.804C177.692 36.804 178.905 36.9907 179.913 37.364C180.94 37.7373 181.724 38.2973 182.265 39.044C182.825 39.7907 183.105 40.7147 183.105 41.816V41.9H180.109V41.732C180.109 41.1907 179.997 40.7333 179.773 40.36C179.549 39.9867 179.148 39.7067 178.569 39.52C178.009 39.3147 177.216 39.212 176.189 39.212C174.901 39.212 174.005 39.3613 173.501 39.66C172.997 39.9587 172.745 40.4347 172.745 41.088C172.745 41.6293 172.932 42.0213 173.305 42.264C173.678 42.5067 174.378 42.7027 175.405 42.852L178.625 43.3C180.268 43.5053 181.481 43.9067 182.265 44.504C183.049 45.1013 183.441 45.9787 183.441 47.136C183.441 47.9947 183.17 48.7413 182.629 49.376C182.088 49.992 181.332 50.468 180.361 50.804C179.39 51.1213 178.252 51.28 176.945 51.28ZM194.751 51H191.559C190.065 51 188.88 50.636 188.003 49.908C187.144 49.18 186.715 47.976 186.715 46.296V34.032H189.711V46.128C189.711 46.9867 189.916 47.5653 190.327 47.864C190.737 48.144 191.372 48.284 192.231 48.284H194.751V51ZM194.751 39.604H184.363V37.084H194.751V39.604ZM199.551 55.76H198.683V53.436H199.635C200.233 53.436 200.681 53.3053 200.979 53.044C201.297 52.7827 201.455 52.3347 201.455 51.7V37.084H204.479V51.168C204.479 52.3253 204.274 53.24 203.863 53.912C203.453 54.584 202.874 55.06 202.127 55.34C201.381 55.62 200.522 55.76 199.551 55.76ZM204.479 35.46H201.455V32.24H204.479V35.46ZM214.391 51.28C212.86 51.28 211.507 50.9813 210.331 50.384C209.174 49.768 208.268 48.9187 207.615 47.836C206.98 46.7347 206.663 45.4747 206.663 44.056C206.663 42.6 206.98 41.3307 207.615 40.248C208.268 39.1653 209.174 38.3253 210.331 37.728C211.507 37.112 212.86 36.804 214.391 36.804C215.959 36.804 217.322 37.112 218.479 37.728C219.636 38.3253 220.532 39.1653 221.167 40.248C221.82 41.3307 222.147 42.6 222.147 44.056C222.147 45.4747 221.82 46.7347 221.167 47.836C220.532 48.9187 219.636 49.768 218.479 50.384C217.322 50.9813 215.959 51.28 214.391 51.28ZM214.391 48.592C216.09 48.592 217.312 48.2093 218.059 47.444C218.806 46.66 219.179 45.5307 219.179 44.056C219.179 42.5813 218.806 41.452 218.059 40.668C217.312 39.8653 216.09 39.464 214.391 39.464C212.711 39.464 211.498 39.8653 210.751 40.668C210.004 41.452 209.631 42.5813 209.631 44.056C209.631 45.5307 210.004 46.66 210.751 47.444C211.498 48.2093 212.711 48.592 214.391 48.592ZM233.105 51.28C231.519 51.28 230.231 50.916 229.241 50.188C228.252 49.4413 227.608 48.3773 227.309 46.996H226.637L226.833 44.196H227.365C227.365 45.148 227.552 45.9507 227.925 46.604C228.317 47.2573 228.868 47.7427 229.577 48.06C230.305 48.3587 231.164 48.508 232.153 48.508C233.18 48.508 234.039 48.368 234.729 48.088C235.439 47.808 235.971 47.3413 236.325 46.688C236.699 46.0347 236.885 45.1573 236.885 44.056C236.885 42.936 236.699 42.0493 236.325 41.396C235.952 40.7427 235.42 40.276 234.729 39.996C234.039 39.6973 233.199 39.548 232.209 39.548C230.641 39.548 229.437 39.9213 228.597 40.668C227.776 41.396 227.365 42.4973 227.365 43.972H226.833V40.864H227.533C227.813 39.688 228.42 38.7173 229.353 37.952C230.305 37.1867 231.612 36.804 233.273 36.804C234.711 36.804 235.915 37.112 236.885 37.728C237.875 38.3253 238.621 39.1653 239.125 40.248C239.648 41.3307 239.909 42.6 239.909 44.056C239.909 45.4747 239.648 46.7347 239.125 47.836C238.621 48.9187 237.856 49.768 236.829 50.384C235.821 50.9813 234.58 51.28 233.105 51.28ZM227.113 51H224.341V32.24H227.365V46.268L227.113 46.632V51ZM249.397 44.896H246.373V43.944C246.373 43.384 246.476 42.8987 246.681 42.488C246.905 42.0773 247.223 41.7227 247.633 41.424C248.044 41.1253 248.529 40.8547 249.089 40.612L251.105 39.744C251.889 39.3893 252.487 39.0347 252.897 38.68C253.327 38.3067 253.541 37.8027 253.541 37.168C253.541 36.6827 253.42 36.2627 253.177 35.908C252.935 35.5347 252.496 35.2453 251.861 35.04C251.227 34.816 250.303 34.704 249.089 34.704C247.129 34.704 245.767 35.0027 245.001 35.6C244.236 36.1973 243.853 37.084 243.853 38.26V39.072H240.885V38.428C240.885 37.2707 241.165 36.1973 241.725 35.208C242.304 34.2187 243.209 33.4347 244.441 32.856C245.692 32.2587 247.307 31.96 249.285 31.96C251.021 31.96 252.421 32.1933 253.485 32.66C254.549 33.108 255.324 33.724 255.809 34.508C256.313 35.2733 256.565 36.1227 256.565 37.056C256.565 37.952 256.369 38.708 255.977 39.324C255.604 39.9213 255.128 40.416 254.549 40.808C253.971 41.2 253.355 41.536 252.701 41.816L250.685 42.656C250.163 42.8613 249.817 43.0853 249.649 43.328C249.481 43.5707 249.397 43.8973 249.397 44.308V44.896ZM249.621 51H246.205V46.856H249.621V51Z" fill="black"/>
</svg>
