<svg width="315" height="121" viewBox="0 0 315 121" fill="none" xmlns="http://www.w3.org/2000/svg">
<path d="M83.1864 81.8272L83.2997 80.9562H84.1781L274 80.9562C296.109 80.9562 313.5 64.5502 313.5 42.5C313.5 20.4268 296.086 3 274 3.00004L273.991 2.99996L40.9807 1C40.9793 1 40.9779 1 40.9766 1C18.9038 1.00222 1 18.8953 1 40.9781C1 63.0508 18.9061 80.9562 40.9922 80.9562H48.6416H49.5834L49.6398 81.8963L48.6416 81.9562C49.6398 81.8963 49.6398 81.8969 49.6399 81.8975L49.64 81.8992L49.6402 81.9039L49.641 81.9189L49.6435 81.9703C49.6454 82.014 49.6478 82.0767 49.6499 82.1577C49.6543 82.3197 49.6578 82.5547 49.6551 82.8579C49.6498 83.4641 49.6198 84.3429 49.5224 85.4534C49.3274 87.674 48.8624 90.8236 47.7836 94.5745C45.748 101.652 41.5296 110.862 32.8375 120C34.1277 119.998 35.9115 119.951 38.0428 119.782C42.5895 119.422 48.6942 118.51 54.9554 116.306C67.4474 111.909 80.5097 102.409 83.1864 81.8272Z" fill="white" stroke="black" stroke-width="2"/>
<path d="M49.948 44.7H47.148L38.804 32.24H42.5L46.924 38.904L48.492 41.284H48.716L50.256 38.904L54.652 32.24H58.376L49.948 44.7ZM50.032 51H47.036V42.74H50.032V51ZM66.5406 51.28C65.0286 51.28 63.7033 51 62.5646 50.44C61.426 49.88 60.5393 49.0587 59.9046 47.976C59.2886 46.8933 58.9806 45.5867 58.9806 44.056C58.9806 42.6 59.2886 41.3307 59.9046 40.248C60.5393 39.1653 61.4166 38.3253 62.5366 37.728C63.6566 37.112 64.9726 36.804 66.4846 36.804C67.922 36.804 69.182 37.0653 70.2646 37.588C71.366 38.092 72.2153 38.8387 72.8126 39.828C73.4286 40.7987 73.7366 41.9933 73.7366 43.412C73.7366 43.6547 73.7273 43.888 73.7086 44.112C73.69 44.3173 73.662 44.5227 73.6246 44.728H60.9126V43.048H71.6366L70.8526 44.084C70.8713 43.8973 70.8806 43.72 70.8806 43.552C70.8806 43.3653 70.8806 43.1787 70.8806 42.992C70.8806 41.704 70.5073 40.752 69.7606 40.136C69.0326 39.5013 67.922 39.184 66.4286 39.184C64.7673 39.184 63.582 39.5667 62.8726 40.332C62.1633 41.0973 61.8086 42.1987 61.8086 43.636V44.364C61.8086 45.82 62.1633 46.9307 62.8726 47.696C63.582 48.4613 64.7766 48.844 66.4566 48.844C67.9126 48.844 68.958 48.62 69.5926 48.172C70.246 47.7053 70.5726 47.0613 70.5726 46.24V46.016H73.5966V46.268C73.5966 47.2573 73.2886 48.1347 72.6726 48.9C72.0753 49.6467 71.2446 50.2347 70.1806 50.664C69.1353 51.0747 67.922 51.28 66.5406 51.28ZM89.1616 51H86.3896V47.416L86.1936 47.332V42.572C86.1936 41.4147 85.9136 40.612 85.3536 40.164C84.8122 39.6973 83.8696 39.464 82.5256 39.464C81.2376 39.464 80.2762 39.688 79.6416 40.136C79.0069 40.584 78.6896 41.3213 78.6896 42.348V42.46H75.6936V42.348C75.6936 41.284 75.9736 40.3413 76.5336 39.52C77.0936 38.68 77.8962 38.0173 78.9416 37.532C80.0056 37.0467 81.2749 36.804 82.7496 36.804C84.2242 36.804 85.4282 37.056 86.3616 37.56C87.3136 38.0453 88.0136 38.7173 88.4616 39.576C88.9282 40.4347 89.1616 41.424 89.1616 42.544V51ZM80.0896 51.28C78.6522 51.28 77.5042 50.9627 76.6456 50.328C75.8056 49.6747 75.3856 48.7787 75.3856 47.64C75.3856 46.912 75.5629 46.3053 75.9176 45.82C76.2909 45.316 76.8136 44.924 77.4856 44.644C78.1576 44.364 78.9509 44.168 79.8656 44.056L86.4736 43.356V45.148L80.7336 45.792C79.9496 45.8853 79.3616 46.0533 78.9696 46.296C78.5962 46.52 78.4096 46.9027 78.4096 47.444C78.4096 48.004 78.6056 48.424 78.9976 48.704C79.4082 48.9653 80.0429 49.096 80.9016 49.096C81.9656 49.096 82.8896 48.9653 83.6736 48.704C84.4576 48.424 85.0736 47.9947 85.5216 47.416C85.9696 46.8373 86.1936 46.0907 86.1936 45.176L86.5856 45.232V47.528H86.1936C85.8202 48.704 85.1016 49.628 84.0376 50.3C82.9922 50.9533 81.6762 51.28 80.0896 51.28ZM106.505 51H103.509V43.44C103.509 42.04 103.182 41.0413 102.529 40.444C101.876 39.828 100.821 39.52 99.3649 39.52C98.2636 39.52 97.3863 39.716 96.7329 40.108C96.0796 40.4813 95.6036 41.0227 95.3049 41.732C95.0249 42.4227 94.8849 43.2627 94.8849 44.252L94.2969 44.28L94.4369 41.34H95.0529C95.2209 40.556 95.5196 39.8187 95.9489 39.128C96.3969 38.4373 97.0223 37.8773 97.8249 37.448C98.6276 37.0187 99.6169 36.804 100.793 36.804C102.062 36.804 103.117 37.0653 103.957 37.588C104.816 38.092 105.45 38.792 105.861 39.688C106.29 40.5653 106.505 41.5733 106.505 42.712V51ZM94.8849 51H91.8609V32.24H94.8849V51ZM112.472 51H108.664V46.66H112.472V51ZM109.728 54.136H108.72V52.288H109.644C109.887 52.288 110.064 52.2413 110.176 52.148C110.288 52.0733 110.344 51.8867 110.344 51.588V50.356H112.472V51.56C112.472 52.4373 112.23 53.0813 111.744 53.492C111.278 53.9213 110.606 54.136 109.728 54.136ZM122.529 51H119.505V32.24H122.529V51ZM144.787 51H141.231L137.115 45.316H131.795V42.6H137.115L141.287 37.084H144.815L139.579 43.776L144.787 51ZM133.139 51H130.115V32.24H133.139V51ZM160.834 51H157.81V43.44C157.81 42.1333 157.493 41.1533 156.858 40.5C156.242 39.8467 155.206 39.52 153.75 39.52C152.238 39.52 151.118 39.912 150.39 40.696C149.681 41.4613 149.326 42.6 149.326 44.112L148.794 44.14L148.654 41.396H149.27C149.42 40.612 149.718 39.8747 150.166 39.184C150.633 38.4747 151.268 37.9053 152.07 37.476C152.892 37.028 153.89 36.804 155.066 36.804C156.354 36.804 157.428 37.0653 158.286 37.588C159.145 38.1107 159.78 38.8107 160.19 39.688C160.62 40.5653 160.834 41.5453 160.834 42.628V51ZM149.326 51H146.302V37.084H149.074V41.452L149.326 41.592V51ZM170.529 51.28C169.017 51.28 167.692 51 166.553 50.44C165.414 49.88 164.528 49.0587 163.893 47.976C163.277 46.8933 162.969 45.5867 162.969 44.056C162.969 42.6 163.277 41.3307 163.893 40.248C164.528 39.1653 165.405 38.3253 166.525 37.728C167.645 37.112 168.961 36.804 170.473 36.804C171.91 36.804 173.17 37.0653 174.253 37.588C175.354 38.092 176.204 38.8387 176.801 39.828C177.417 40.7987 177.725 41.9933 177.725 43.412C177.725 43.6547 177.716 43.888 177.697 44.112C177.678 44.3173 177.65 44.5227 177.613 44.728H164.901V43.048H175.625L174.841 44.084C174.86 43.8973 174.869 43.72 174.869 43.552C174.869 43.3653 174.869 43.1787 174.869 42.992C174.869 41.704 174.496 40.752 173.749 40.136C173.021 39.5013 171.91 39.184 170.417 39.184C168.756 39.184 167.57 39.5667 166.861 40.332C166.152 41.0973 165.797 42.1987 165.797 43.636V44.364C165.797 45.82 166.152 46.9307 166.861 47.696C167.57 48.4613 168.765 48.844 170.445 48.844C171.901 48.844 172.946 48.62 173.581 48.172C174.234 47.7053 174.561 47.0613 174.561 46.24V46.016H177.585V46.268C177.585 47.2573 177.277 48.1347 176.661 48.9C176.064 49.6467 175.233 50.2347 174.169 50.664C173.124 51.0747 171.91 51.28 170.529 51.28ZM186.654 51H182.902L178.73 37.084H181.866L184.19 44.98L184.834 48.564H185.058L186.094 44.7L189.006 37.084H192.87L195.81 44.7L196.846 48.564H197.07L197.714 44.98L200.038 37.084H203.118L198.89 51H195.138L192.086 42.992L191.022 39.576H190.798L189.734 42.992L186.654 51ZM212.463 51H209.439V37.084H212.463V51ZM212.463 35.46H209.439V32.24H212.463V35.46ZM224.391 51H221.199C219.706 51 218.521 50.636 217.643 49.908C216.785 49.18 216.355 47.976 216.355 46.296V34.032H219.351V46.128C219.351 46.9867 219.557 47.5653 219.967 47.864C220.378 48.144 221.013 48.284 221.871 48.284H224.391V51ZM224.391 39.604H214.003V37.084H224.391V39.604ZM229.531 51H225.723V46.66H229.531V51ZM235.027 51H231.219V46.66H235.027V51ZM240.523 51H236.715V46.66H240.523V51Z" fill="black"/>
</svg>
