<svg width="344" height="17" viewBox="0 0 344 17" fill="none" xmlns="http://www.w3.org/2000/svg">
<path d="M0.4 16H13V13.4H3.6V0.999999H0.4V16ZM15.2047 16H28.8647V13.4H18.4047V9.64H27.6247V7.12H18.4047V3.6H28.7047V0.999999H15.2047V16ZM30.5617 3.6H36.4617V16H39.6617V3.6H45.5617V0.999999H30.5617V3.6ZM52.6656 16H55.7656V5.4L60.2656 16H63.1856L67.6856 5.36V16H70.7856V0.999999H66.8856L61.7256 12.78L56.5456 0.999999H52.6656V16ZM73.5836 16H87.2436V13.4H76.7836V9.64H86.0036V7.12H76.7836V3.6H87.0836V0.999999H73.5836V16ZM94.443 16H97.643V10.58L99.643 9.18L106.023 16H110.183L101.923 7.38L109.983 0.999999H105.803L97.643 7.3V0.999999H94.443V16ZM111.982 16H115.182V5.08L125.022 16H128.222V0.999999H125.022V11.92L115.182 0.999999H111.982V16ZM139.425 16.36C144.865 16.36 148.325 13.26 148.325 8.5C148.325 3.76 144.865 0.66 139.425 0.66C133.985 0.66 130.525 3.76 130.525 8.5C130.525 13.26 133.985 16.36 139.425 16.36ZM133.725 8.5C133.725 5.32 135.965 3.26 139.425 3.26C142.885 3.26 145.125 5.32 145.125 8.5C145.125 11.68 142.885 13.72 139.425 13.72C135.965 13.72 133.725 11.68 133.725 8.5ZM148.976 0.999999L154.216 16H157.976L161.296 4.46L164.676 16H168.516L173.776 0.999999H170.376L166.736 12.34L163.236 0.999999H159.516L156.036 12.34L152.436 0.999999H148.976ZM182.975 0.999999H179.215L186.235 10.72V16H189.435V10.72L196.415 0.999999H192.715L187.875 7.84L182.975 0.999999ZM205.07 16.36C210.51 16.36 213.97 13.26 213.97 8.5C213.97 3.76 210.51 0.66 205.07 0.66C199.63 0.66 196.17 3.76 196.17 8.5C196.17 13.26 199.63 16.36 205.07 16.36ZM199.37 8.5C199.37 5.32 201.61 3.26 205.07 3.26C208.53 3.26 210.77 5.32 210.77 8.5C210.77 11.68 208.53 13.72 205.07 13.72C201.61 13.72 199.37 11.68 199.37 8.5ZM216.279 10.02C216.279 13.86 219.339 16.36 224.059 16.36C228.839 16.36 231.799 13.78 231.799 9.62V0.999999H228.599V9.84C228.599 12.2 226.839 13.72 224.079 13.72C221.279 13.72 219.479 12.2 219.479 9.84V0.999999H216.279V10.02ZM239.502 16H249.702C253.042 16 254.862 14.48 254.862 12.08C254.862 9.9 253.342 8.34 251.402 8.3C253.062 8.12 254.302 6.8 254.302 4.94C254.302 2.54 252.342 0.999999 248.782 0.999999H239.502V16ZM242.502 13.46V9.62H248.582C250.462 9.62 251.562 10.36 251.562 11.62C251.562 12.78 250.722 13.46 249.342 13.46H242.502ZM242.502 7.16V3.5H248.422C250.102 3.5 251.002 4.12 251.002 5.4C251.002 6.54 250.122 7.16 248.502 7.16H242.502ZM256.865 16H270.525V13.4H260.065V9.64H269.285V7.12H260.065V3.6H270.365V0.999999H256.865V16ZM272.222 3.6H278.122V16H281.322V3.6H287.222V0.999999H272.222V3.6ZM288.823 3.6H294.723V16H297.923V3.6H303.823V0.999999H288.823V3.6ZM306.025 16H319.685V13.4H309.225V9.64H318.445V7.12H309.225V3.6H319.525V0.999999H306.025V16ZM321.982 16H325.182V10.1H329.062L333.622 16H337.542L332.562 9.82C335.542 9.68 337.322 8 337.322 5.54C337.322 2.88 335.362 0.999999 331.842 0.999999H321.982V16ZM325.182 7.5V3.6H331.162C333.242 3.6 334.122 4.18 334.122 5.56C334.122 6.92 333.302 7.5 331.302 7.5H325.182ZM339.7 0.599999L340.32 10.94H342.88L343.5 0.599999H339.7ZM339.86 16H343.26V12.8H339.86V16Z" fill="black"/>
</svg>
