<?xml version="1.0" encoding="utf-8"?>
<!-- Generator: Adobe Illustrator 27.1.1, SVG Export Plug-In . SVG Version: 6.00 Build 0)  -->
<svg version="1.1" id="Livello_1" xmlns="http://www.w3.org/2000/svg" xmlns:xlink="http://www.w3.org/1999/xlink" x="0px" y="0px"
	 viewBox="0 0 117 117" style="enable-background:new 0 0 117 117;" xml:space="preserve">
<style type="text/css">
	.st0{fill:#FFFFFF;}
	.st1{fill:#FF2C54;}
	.st2{fill:none;stroke:#000000;stroke-width:2;}
</style>
<path class="st0" d="M110.6,36.5c-2.8-6.7-6.9-12.8-12.1-18s-11.2-9.3-18-12.1c-7-2.9-14.4-4.4-22-4.4s-15,1.5-22,4.4
	c-6.7,2.8-12.8,6.9-18,12.1s-9.3,11.2-12.1,18c-2.9,7-4.4,14.4-4.4,22s1.5,15,4.4,22c2.8,6.7,6.9,12.8,12.1,18s11.2,9.3,18,12.1
	c7,2.9,14.4,4.4,22,4.4s15-1.5,22-4.4c6.7-2.8,12.8-6.9,18-12.1s9.3-11.2,12.1-18c2.9-7,4.4-14.4,4.4-22S113.5,43.5,110.6,36.5z
	 M58.5,100c-5.6,0-11-1.1-16.2-3.3c-4.9-2.1-9.4-5.1-13.2-8.9c-3.8-3.8-6.8-8.3-8.9-13.2C18.1,69.5,17,64.1,17,58.5s1.1-11,3.3-16.2
	c2.1-4.9,5.1-9.4,8.9-13.2s8.3-6.8,13.2-8.9c5.1-2.2,10.6-3.3,16.2-3.3s11,1.1,16.2,3.3c4.9,2.1,9.4,5.1,13.2,8.9
	c3.8,3.8,6.8,8.3,8.9,13.2c2.2,5.1,3.3,10.6,3.3,16.2s-1.1,11-3.3,16.2c-2.1,4.9-5.1,9.4-8.9,13.2c-3.8,3.8-8.3,6.8-13.2,8.9
	C69.5,98.9,64.1,100,58.5,100z"/>
<g>
	<path class="st1" d="M106.8,59.4c-2.1,0-4-0.7-5.6-2c-1.5-1.3-2.5-3.1-2.8-5.1c-0.5-3.1-1.4-6.3-2.7-9.6c-2.1-4.9-5-9.2-8.7-12.9
		c-1.1-1.2-2.3-2.2-3.4-3.1c-3.2-2.5-4.1-7.2-2-10.9c1.3-2.2,3.3-3.6,5.8-4.1c0.5-0.1,1.1-0.1,1.6-0.1c2,0,3.8,0.6,5.3,1.9
		c1.5,1.1,3,2.5,4.9,4.4c5.3,5.3,9.5,11.5,12.3,18.3c1.9,4.5,3.2,9,3.9,13.6c0.5,2.5-0.3,5-2.1,6.8
		C111.6,58.3,109.2,59.4,106.8,59.4z"/>
	<path d="M89,12.6c1.7,0,3.3,0.5,4.6,1.6c1.7,1.3,3.3,2.8,4.8,4.3c5.2,5.2,9.3,11.3,12.1,18c1.8,4.3,3.1,8.8,3.8,13.4
		c0.4,2.2-0.2,4.3-1.8,5.9c-1.4,1.6-3.5,2.6-5.7,2.6c-1.8,0-3.5-0.6-4.9-1.8c-1.3-1.1-2.2-2.7-2.5-4.5c-0.5-3.4-1.5-6.7-2.8-9.8
		c-2.1-4.9-5.1-9.4-8.9-13.2c-1.1-1.2-2.3-2.2-3.5-3.2c-2.9-2.3-3.6-6.4-1.8-9.6c1.1-1.9,2.9-3.2,5.1-3.6C88,12.6,88.5,12.6,89,12.6
		 M89,10.6c-0.6,0-1.2,0.1-1.8,0.2c-2.8,0.5-5.1,2.1-6.5,4.6c-2.3,4.1-1.3,9.3,2.3,12.2c1.1,1,2.3,1.9,3.3,3l0,0l0,0
		c3.6,3.6,6.4,7.8,8.5,12.6c1.3,3.1,2.2,6.3,2.7,9.3c0.4,2.3,1.5,4.3,3.2,5.7c1.7,1.5,3.9,2.3,6.2,2.3c2.7,0,5.4-1.2,7.2-3.2
		c2-2,2.8-4.7,2.3-7.6c-0.7-4.7-2-9.3-3.9-13.8c-2.9-7-7.1-13.2-12.5-18.6c-1.9-1.9-3.5-3.3-5-4.5C93.2,11.3,91.2,10.6,89,10.6
		L89,10.6z"/>
</g>
<path class="st2" d="M83.6,26.7C83.6,26.7,83.7,26.7,83.6,26.7L83.6,26.7c1.3,1,2.4,2,3.5,3.1c3.7,3.7,6.6,8.1,8.7,12.9l0,0
	c1.3,3.1,2.5,6.4,3,9.7l0,0l0,0v0.1 M83.6,26.7c-2.9-2.3-6-4.1-9.4-5.5C69.3,19.1,64,18,58.5,18s-10.8,1.1-15.8,3.2l0,0
	c-4.8,2-9.2,5-12.9,8.7s-6.6,8.1-8.7,12.9l0,0C19.1,47.7,18,53,18,58.5s1.1,10.8,3.2,15.8c2,4.8,5,9.2,8.7,12.9
	c3.7,3.7,8.1,6.6,12.9,8.7c5,2.1,10.3,3.2,15.8,3.2s10.8-1.1,15.8-3.2c4.8-2,9.2-5,12.9-8.7c3.7-3.7,6.6-8.1,8.7-12.9l0,0
	c2.1-5,3.2-10.3,3.2-15.8c0-2.1-0.2-4.1-0.4-6.1 M116,58.5c0-7.3-1.4-14.5-4.1-21.3c-0.2-0.4-0.3-0.8-0.5-1.1l0,0
	c-2.9-6.8-7-13-12.3-18.3c-1-1-2.1-2-3.2-3c-4.5-3.9-9.6-7-15.1-9.3c-7-3-14.5-4.5-22.3-4.5S43.2,2.5,36.1,5.5
	c-6.8,2.9-13,7-18.3,12.3S8.4,29.2,5.5,36.1C2.5,43.2,1,50.7,1,58.5s1.5,15.3,4.5,22.4c2.9,6.8,7,13,12.3,18.3
	c5.3,5.3,11.4,9.4,18.3,12.3l0,0c7.1,3,14.6,4.5,22.4,4.5s15.3-1.5,22.4-4.5c6.8-2.9,13-7,18.3-12.3c5.3-5.3,9.4-11.4,12.3-18.3l0,0
	C114.5,73.8,116,66.3,116,58.5z"/>
</svg>
