<svg width="304" height="73" viewBox="0 0 304 73" fill="none" xmlns="http://www.w3.org/2000/svg">
<rect x="303" y="72" width="302" height="71" rx="35.5" transform="rotate(-180 303 72)" fill="white" stroke="black" stroke-width="2"/>
<path d="M259.284 23L261.84 23L261.84 47.12L259.068 47.12L246.396 30.74L243.48 26.708L243.264 26.708L243.336 30.668L243.336 47.12L240.78 47.12L240.78 23L243.588 23L256.152 39.2L259.176 43.268L259.356 43.268L259.284 39.236L259.284 23ZM233.936 23L236.492 23L236.492 47.12L233.936 47.12L233.936 23ZM218.168 23L235.628 23L235.628 25.34L218.168 25.34L218.168 23ZM218.708 33.98L235.628 33.98L235.628 36.284L218.708 36.284L218.708 33.98ZM218.168 44.78L235.628 44.78L235.628 47.12L218.168 47.12L218.168 44.78ZM213.294 23L216.57 23L206.598 35.06L206.598 35.276L216.57 47.12L213.294 47.12L204.51 36.824L204.33 36.824L195.654 47.12L192.342 47.12L202.35 35.24L202.35 35.06L192.342 23L195.654 23L204.366 33.512L204.582 33.512L213.294 23ZM179.323 23L181.879 23L181.879 47.12L179.323 47.12L179.323 23ZM169.423 44.78L191.815 44.78L191.815 47.12L169.423 47.12L169.423 44.78Z" fill="black"/>
<path d="M32.9999 36C32.9999 36 48.2639 37.3328 48.2639 51" stroke="black" stroke-width="2" stroke-miterlimit="10"/>
<path d="M139 36L33 35.7795" stroke="black" stroke-width="2" stroke-miterlimit="10"/>
<path d="M32.9999 36C32.9999 36 48.2639 34.756 48.2639 22" stroke="black" stroke-width="2" stroke-miterlimit="10"/>
<rect x="303" y="72" width="302" height="71" rx="35.5" transform="rotate(-180 303 72)" fill="white" stroke="black" stroke-width="2"/>
<path d="M183.904 47H170.872V22.88H183.544C185.008 22.88 186.268 23.108 187.324 23.564C188.404 24.02 189.232 24.704 189.808 25.616C190.408 26.504 190.708 27.584 190.708 28.856C190.708 30.224 190.312 31.4 189.52 32.384C188.728 33.344 187.504 33.956 185.848 34.22V34.436C187.72 34.748 189.124 35.432 190.06 36.488C190.996 37.52 191.464 38.804 191.464 40.34C191.464 41.732 191.152 42.932 190.528 43.94C189.904 44.924 189.028 45.68 187.9 46.208C186.772 46.736 185.44 47 183.904 47ZM173.428 35.588V44.66H183.688C185.392 44.66 186.676 44.288 187.54 43.544C188.428 42.8 188.872 41.648 188.872 40.088C188.872 38.528 188.428 37.388 187.54 36.668C186.652 35.948 185.368 35.588 183.688 35.588H173.428ZM173.428 25.22V33.392H183.112C184.768 33.392 186.016 33.056 186.856 32.384C187.72 31.712 188.152 30.692 188.152 29.324C188.152 27.908 187.756 26.876 186.964 26.228C186.172 25.556 184.96 25.22 183.328 25.22H173.428ZM195.367 47H192.559L203.467 22.88L207.031 22.88L217.975 47H215.095L206.635 28.46L205.303 25.328L205.087 25.328L203.791 28.46L195.367 47ZM212.827 39.908L197.491 39.908V37.604L212.827 37.604V39.908ZM231.432 47.36C229.08 47.36 226.992 46.856 225.168 45.848C223.368 44.816 221.952 43.376 220.92 41.528C219.912 39.656 219.408 37.46 219.408 34.94C219.408 32.42 219.912 30.236 220.92 28.388C221.952 26.516 223.368 25.076 225.168 24.068C226.992 23.036 229.08 22.52 231.432 22.52C233.52 22.52 235.392 22.892 237.048 23.636C238.704 24.356 240 25.388 240.936 26.732C241.896 28.052 242.376 29.636 242.376 31.484V31.916L239.604 31.916V31.484C239.604 29.42 238.908 27.824 237.516 26.696C236.124 25.568 234.108 25.004 231.468 25.004C229.476 25.004 227.772 25.388 226.356 26.156C224.964 26.9 223.908 28.004 223.188 29.468C222.468 30.932 222.108 32.756 222.108 34.94C222.108 37.1 222.468 38.924 223.188 40.412C223.908 41.876 224.964 42.992 226.356 43.76C227.772 44.504 229.476 44.876 231.468 44.876C234.108 44.876 236.124 44.312 237.516 43.184C238.908 42.056 239.604 40.46 239.604 38.396V37.964L242.376 37.964V38.396C242.376 40.22 241.896 41.804 240.936 43.148C240 44.492 238.704 45.536 237.048 46.28C235.392 47 233.52 47.36 231.432 47.36ZM267.433 47H264.373L256.813 36.236H247.705V33.752H256.741L264.337 22.88H267.397L258.937 34.796L267.433 47ZM248.353 47H245.797V22.88H248.353V47Z" fill="black"/>
<path d="M32.9999 36C32.9999 36 48.2639 37.3328 48.2639 51" stroke="black" stroke-width="2" stroke-miterlimit="10"/>
<path d="M139 36L33 35.7795" stroke="black" stroke-width="2" stroke-miterlimit="10"/>
<path d="M32.9999 36C32.9999 36 48.2639 34.756 48.2639 22" stroke="black" stroke-width="2" stroke-miterlimit="10"/>
</svg>
