<svg width="304" height="73" viewBox="0 0 304 73" fill="none" xmlns="http://www.w3.org/2000/svg">
<rect x="1" y="1" width="302" height="71" rx="35.5" fill="white" stroke="black" stroke-width="2"/>
<path d="M44.716 50H42.16V25.88H45.652L53.752 41.612L55.876 46.076H56.056L58.144 41.612L66.208 25.88H69.736V50H67.18V33.008L67.252 29.768H67.036L65.524 33.008L57.496 48.56H54.4L46.372 33.008L44.824 29.768H44.644L44.716 33.008V50ZM85.2796 50.36C82.9036 50.36 80.7916 49.856 78.9436 48.848C77.1196 47.816 75.6916 46.376 74.6596 44.528C73.6276 42.656 73.1116 40.46 73.1116 37.94C73.1116 35.42 73.6276 33.236 74.6596 31.388C75.6916 29.516 77.1196 28.076 78.9436 27.068C80.7916 26.036 82.9036 25.52 85.2796 25.52C87.7036 25.52 89.8276 26.036 91.6516 27.068C93.4756 28.076 94.9036 29.516 95.9356 31.388C96.9916 33.236 97.5196 35.42 97.5196 37.94C97.5196 40.46 96.9916 42.656 95.9356 44.528C94.9036 46.376 93.4756 47.816 91.6516 48.848C89.8276 49.856 87.7036 50.36 85.2796 50.36ZM85.2796 47.876C87.3196 47.876 89.0476 47.504 90.4636 46.76C91.8796 45.992 92.9596 44.876 93.7036 43.412C94.4476 41.924 94.8196 40.1 94.8196 37.94C94.8196 35.756 94.4476 33.932 93.7036 32.468C92.9596 31.004 91.8796 29.9 90.4636 29.156C89.0476 28.388 87.3196 28.004 85.2796 28.004C83.2636 28.004 81.5476 28.388 80.1316 29.156C78.7156 29.9 77.6356 31.004 76.8916 32.468C76.1716 33.932 75.8116 35.756 75.8116 37.94C75.8116 40.1 76.1716 41.924 76.8916 43.412C77.6356 44.876 78.7156 45.992 80.1316 46.76C81.5476 47.504 83.2636 47.876 85.2796 47.876ZM103.497 50H100.941V25.88H112.749C114.429 25.88 115.905 26.156 117.177 26.708C118.449 27.26 119.433 28.052 120.129 29.084C120.849 30.116 121.209 31.376 121.209 32.864C121.209 34.232 120.897 35.408 120.273 36.392C119.649 37.376 118.785 38.144 117.681 38.696C116.577 39.224 115.269 39.512 113.757 39.56V39.74C114.549 39.956 115.197 40.316 115.701 40.82C116.205 41.324 116.661 41.924 117.069 42.62L121.605 50H118.653L114.369 43.016C113.961 42.344 113.517 41.804 113.037 41.396C112.581 40.964 112.005 40.652 111.309 40.46C110.637 40.244 109.761 40.136 108.681 40.136H103.497V50ZM103.497 28.22V38.084H112.713C114.609 38.084 116.049 37.7 117.033 36.932C118.041 36.14 118.545 34.88 118.545 33.152C118.545 31.448 118.041 30.2 117.033 29.408C116.049 28.616 114.609 28.22 112.713 28.22H103.497ZM127.122 50H124.566V25.88H127.122V50ZM142.89 50H125.43V47.66H142.89V50ZM142.35 39.02H125.43V36.716H142.35V39.02ZM142.89 28.22H125.43V25.88H142.89V28.22Z" fill="black"/>
<path d="M271 37C271 37 255.736 35.6672 255.736 22" stroke="black" stroke-width="2" stroke-miterlimit="10"/>
<path d="M165 37L271 37.2204" stroke="black" stroke-width="2" stroke-miterlimit="10"/>
<path d="M271 37C271 37 255.736 38.244 255.736 51" stroke="black" stroke-width="2" stroke-miterlimit="10"/>
</svg>
