<svg width="385" height="73" viewBox="0 0 385 73" fill="none" xmlns="http://www.w3.org/2000/svg">
<rect x="1" y="1" width="383" height="71" rx="35.5" fill="white" stroke="black" stroke-width="2"/>
<path d="M44.716 50H42.16V25.88H45.652L53.752 41.612L55.876 46.076H56.056L58.144 41.612L66.208 25.88H69.736V50H67.18V33.008L67.252 29.768H67.036L65.524 33.008L57.496 48.56H54.4L46.372 33.008L44.824 29.768H44.644L44.716 33.008V50ZM85.2796 50.36C82.9036 50.36 80.7916 49.856 78.9436 48.848C77.1196 47.816 75.6916 46.376 74.6596 44.528C73.6276 42.656 73.1116 40.46 73.1116 37.94C73.1116 35.42 73.6276 33.236 74.6596 31.388C75.6916 29.516 77.1196 28.076 78.9436 27.068C80.7916 26.036 82.9036 25.52 85.2796 25.52C87.7036 25.52 89.8276 26.036 91.6516 27.068C93.4756 28.076 94.9036 29.516 95.9356 31.388C96.9916 33.236 97.5196 35.42 97.5196 37.94C97.5196 40.46 96.9916 42.656 95.9356 44.528C94.9036 46.376 93.4756 47.816 91.6516 48.848C89.8276 49.856 87.7036 50.36 85.2796 50.36ZM85.2796 47.876C87.3196 47.876 89.0476 47.504 90.4636 46.76C91.8796 45.992 92.9596 44.876 93.7036 43.412C94.4476 41.924 94.8196 40.1 94.8196 37.94C94.8196 35.756 94.4476 33.932 93.7036 32.468C92.9596 31.004 91.8796 29.9 90.4636 29.156C89.0476 28.388 87.3196 28.004 85.2796 28.004C83.2636 28.004 81.5476 28.388 80.1316 29.156C78.7156 29.9 77.6356 31.004 76.8916 32.468C76.1716 33.932 75.8116 35.756 75.8116 37.94C75.8116 40.1 76.1716 41.924 76.8916 43.412C77.6356 44.876 78.7156 45.992 80.1316 46.76C81.5476 47.504 83.2636 47.876 85.2796 47.876ZM112.857 50H109.293L98.6732 25.88H101.697L111.021 47.408H111.201L120.489 25.88H123.477L112.857 50ZM128.071 50H125.515V25.88H128.071V50ZM143.839 50H126.379V47.66H143.839V50ZM143.299 39.02H126.379V36.716H143.299V39.02ZM143.839 28.22H126.379V25.88H143.839V28.22ZM165.295 50.36C162.919 50.36 160.807 49.856 158.959 48.848C157.135 47.816 155.707 46.376 154.675 44.528C153.643 42.656 153.127 40.46 153.127 37.94C153.127 35.42 153.643 33.236 154.675 31.388C155.707 29.516 157.135 28.076 158.959 27.068C160.807 26.036 162.919 25.52 165.295 25.52C167.719 25.52 169.843 26.036 171.667 27.068C173.491 28.076 174.919 29.516 175.951 31.388C177.007 33.236 177.535 35.42 177.535 37.94C177.535 40.46 177.007 42.656 175.951 44.528C174.919 46.376 173.491 47.816 171.667 48.848C169.843 49.856 167.719 50.36 165.295 50.36ZM165.295 47.876C167.335 47.876 169.063 47.504 170.479 46.76C171.895 45.992 172.975 44.876 173.719 43.412C174.463 41.924 174.835 40.1 174.835 37.94C174.835 35.756 174.463 33.932 173.719 32.468C172.975 31.004 171.895 29.9 170.479 29.156C169.063 28.388 167.335 28.004 165.295 28.004C163.279 28.004 161.563 28.388 160.147 29.156C158.731 29.9 157.651 31.004 156.907 32.468C156.187 33.932 155.827 35.756 155.827 37.94C155.827 40.1 156.187 41.924 156.907 43.412C157.651 44.876 158.731 45.992 160.147 46.76C161.563 47.504 163.279 47.876 165.295 47.876ZM183.513 50H180.957V25.88H183.729L196.401 42.26L199.317 46.292H199.533L199.461 42.332V25.88H202.017V50H199.209L186.645 33.8L183.621 29.732H183.441L183.513 33.764V50Z" fill="black"/>
<path d="M352 37C352 37 336.736 35.6672 336.736 22" stroke="black" stroke-width="2" stroke-miterlimit="10"/>
<path d="M246 37L352 37.2204" stroke="black" stroke-width="2" stroke-miterlimit="10"/>
<path d="M352 37C352 37 336.736 38.244 336.736 51" stroke="black" stroke-width="2" stroke-miterlimit="10"/>
</svg>

