<svg width="304" height="73" viewBox="0 0 304 73" fill="none" xmlns="http://www.w3.org/2000/svg">
<rect x="1" y="1" width="302" height="71" rx="35.5" fill="white" stroke="black" stroke-width="2"/>
<path d="M44.716 50H42.16V25.88H44.932L57.604 42.26L60.52 46.292H60.736L60.664 42.332V25.88H63.22V50H60.412L47.848 33.8L44.824 29.732H44.644L44.716 33.764V50ZM70.0637 50H67.5077V25.88H70.0637V50ZM85.8317 50H68.3717V47.66H85.8317V50ZM85.2917 39.02H68.3717V36.716H85.2917V39.02ZM85.8317 28.22H68.3717V25.88H85.8317V28.22ZM90.706 50H87.43L97.402 37.94V37.724L87.43 25.88H90.706L99.49 36.176H99.67L108.346 25.88H111.658L101.65 37.76V37.94L111.658 50H108.346L99.634 39.488H99.418L90.706 50ZM124.677 50H122.121V25.88H124.677V50ZM134.577 28.22H112.185V25.88H134.577V28.22Z" fill="black"/>
<path d="M271 37C271 37 255.736 35.6672 255.736 22" stroke="black" stroke-width="2" stroke-miterlimit="10"/>
<path d="M165 37L271 37.2204" stroke="black" stroke-width="2" stroke-miterlimit="10"/>
<path d="M271 37C271 37 255.736 38.244 255.736 51" stroke="black" stroke-width="2" stroke-miterlimit="10"/>
</svg>
