<svg width="461" height="155" viewBox="0 0 461 155" fill="none" xmlns="http://www.w3.org/2000/svg">
<rect x="1" y="1" width="459" height="153" rx="76.5" fill="#68F6FF" stroke="black" stroke-width="2"/>
<path d="M103.471 106H97.081V45.7H103.471V106ZM58.291 106H51.901V45.7H58.291V106ZM100.051 78.55H54.331V72.7H100.051V78.55ZM120.605 106H114.215V45.7H120.605V106ZM160.025 106H116.375V100.15H160.025V106ZM158.675 78.55H116.375V72.79H158.675V78.55ZM160.025 51.55H116.375V45.7H160.025V51.55ZM175.361 106H168.971V45.7H175.361V106ZM213.611 106H170.951V100.15H213.611V106ZM227.217 106H220.827V45.7H227.217V106ZM265.467 106H222.807V100.15H265.467V106ZM295.596 106H289.206V45.7H296.136L327.816 86.65L335.106 96.73H335.646L335.466 86.83V45.7H341.856V106H334.836L303.426 65.5L295.866 55.33H295.416L295.596 65.41V106ZM380.745 106.9C374.805 106.9 369.525 105.64 364.905 103.12C360.345 100.54 356.775 96.94 354.195 92.32C351.615 87.64 350.325 82.15 350.325 75.85C350.325 69.55 351.615 64.09 354.195 59.47C356.775 54.79 360.345 51.19 364.905 48.67C369.525 46.09 374.805 44.8 380.745 44.8C386.805 44.8 392.115 46.09 396.675 48.67C401.235 51.19 404.805 54.79 407.385 59.47C410.025 64.09 411.345 69.55 411.345 75.85C411.345 82.15 410.025 87.64 407.385 92.32C404.805 96.94 401.235 100.54 396.675 103.12C392.115 105.64 386.805 106.9 380.745 106.9ZM380.745 100.69C385.845 100.69 390.165 99.76 393.705 97.9C397.245 95.98 399.945 93.19 401.805 89.53C403.665 85.81 404.595 81.25 404.595 75.85C404.595 70.39 403.665 65.83 401.805 62.17C399.945 58.51 397.245 55.75 393.705 53.89C390.165 51.97 385.845 51.01 380.745 51.01C375.705 51.01 371.415 51.97 367.875 53.89C364.335 55.75 361.635 58.51 359.775 62.17C357.975 65.83 357.075 70.39 357.075 75.85C357.075 81.25 357.975 85.81 359.775 89.53C361.635 93.19 364.335 95.98 367.875 97.9C371.415 99.76 375.705 100.69 380.745 100.69Z" fill="black"/>
</svg>
