<svg width="357" height="73" viewBox="0 0 357 73" fill="none" xmlns="http://www.w3.org/2000/svg">
<rect x="1" y="1" width="355" height="71" rx="35.5" fill="white" stroke="black" stroke-width="2"/>
<path d="M324 37C324 37 308.736 35.6672 308.736 22" stroke="black" stroke-width="2" stroke-miterlimit="10"/>
<path d="M218 37L324 37.2204" stroke="black" stroke-width="2" stroke-miterlimit="10"/>
<path d="M324 37C324 37 308.736 38.244 308.736 51" stroke="black" stroke-width="2" stroke-miterlimit="10"/>
<path d="M46.716 48H44.16V23.88H55.968C57.648 23.88 59.124 24.156 60.396 24.708C61.668 25.26 62.652 26.052 63.348 27.084C64.068 28.116 64.428 29.376 64.428 30.864C64.428 32.232 64.116 33.408 63.492 34.392C62.868 35.376 62.004 36.144 60.9 36.696C59.796 37.224 58.488 37.512 56.976 37.56V37.74C57.768 37.956 58.416 38.316 58.92 38.82C59.424 39.324 59.88 39.924 60.288 40.62L64.824 48H61.872L57.588 41.016C57.18 40.344 56.736 39.804 56.256 39.396C55.8 38.964 55.224 38.652 54.528 38.46C53.856 38.244 52.98 38.136 51.9 38.136H46.716V48ZM46.716 26.22V36.084H55.932C57.828 36.084 59.268 35.7 60.252 34.932C61.26 34.14 61.764 32.88 61.764 31.152C61.764 29.448 61.26 28.2 60.252 27.408C59.268 26.616 57.828 26.22 55.932 26.22H46.716ZM70.341 48H67.785V23.88H70.341V48ZM86.109 48H68.649V45.66H86.109V48ZM85.569 37.02H68.649V34.716H85.569V37.02ZM86.109 26.22H68.649V23.88H86.109V26.22ZM99.0473 48.36C96.6953 48.36 94.7393 48.012 93.1793 47.316C91.6433 46.62 90.5033 45.672 89.7593 44.472C89.0153 43.248 88.6433 41.88 88.6433 40.368V40.152H91.2353V40.62C91.2353 41.772 91.4873 42.744 91.9913 43.536C92.5193 44.328 93.3593 44.928 94.5113 45.336C95.6633 45.744 97.1753 45.948 99.0473 45.948C100.679 45.948 101.999 45.804 103.007 45.516C104.039 45.228 104.807 44.784 105.311 44.184C105.815 43.56 106.067 42.792 106.067 41.88C106.067 40.536 105.647 39.564 104.807 38.964C103.991 38.34 102.695 37.848 100.919 37.488L95.8073 36.516C94.5113 36.252 93.3233 35.88 92.2433 35.4C91.1873 34.92 90.3353 34.26 89.6873 33.42C89.0633 32.556 88.7513 31.452 88.7513 30.108C88.7513 29.292 88.9313 28.5 89.2913 27.732C89.6753 26.94 90.2513 26.232 91.0193 25.608C91.7873 24.96 92.7833 24.456 94.0073 24.096C95.2553 23.712 96.7433 23.52 98.4713 23.52C100.751 23.52 102.611 23.88 104.051 24.6C105.491 25.32 106.559 26.292 107.255 27.516C107.951 28.716 108.299 30.048 108.299 31.512V31.728H105.707V31.296C105.707 30.144 105.455 29.172 104.951 28.38C104.447 27.564 103.655 26.952 102.575 26.544C101.495 26.136 100.067 25.932 98.2913 25.932C96.7073 25.932 95.3993 26.088 94.3673 26.4C93.3353 26.688 92.5673 27.132 92.0633 27.732C91.5833 28.308 91.3433 29.04 91.3433 29.928C91.3433 30.816 91.5233 31.536 91.8833 32.088C92.2673 32.64 92.8313 33.072 93.5753 33.384C94.3433 33.696 95.3153 33.984 96.4913 34.248L101.567 35.256C103.007 35.52 104.255 35.916 105.311 36.444C106.367 36.972 107.183 37.668 107.759 38.532C108.359 39.372 108.659 40.416 108.659 41.664C108.659 42.792 108.323 43.872 107.651 44.904C106.979 45.936 105.935 46.776 104.519 47.424C103.103 48.048 101.279 48.36 99.0473 48.36ZM122.704 48H120.148V23.88H122.704V48ZM132.604 26.22H110.212V23.88H132.604V26.22ZM135.972 48H133.164L144.072 23.88H147.636L158.58 48H155.7L147.24 29.46L145.908 26.328H145.692L144.396 29.46L135.972 48ZM153.432 40.908H138.096V38.604H153.432V40.908ZM163.47 48H160.914V23.88H172.722C174.402 23.88 175.878 24.156 177.15 24.708C178.422 25.26 179.406 26.052 180.102 27.084C180.822 28.116 181.182 29.376 181.182 30.864C181.182 32.232 180.87 33.408 180.246 34.392C179.622 35.376 178.758 36.144 177.654 36.696C176.55 37.224 175.242 37.512 173.73 37.56V37.74C174.522 37.956 175.17 38.316 175.674 38.82C176.178 39.324 176.634 39.924 177.042 40.62L181.578 48H178.626L174.342 41.016C173.934 40.344 173.49 39.804 173.01 39.396C172.554 38.964 171.978 38.652 171.282 38.46C170.61 38.244 169.734 38.136 168.654 38.136H163.47V48ZM163.47 26.22V36.084H172.686C174.582 36.084 176.022 35.7 177.006 34.932C178.014 34.14 178.518 32.88 178.518 31.152C178.518 29.448 178.014 28.2 177.006 27.408C176.022 26.616 174.582 26.22 172.686 26.22H163.47ZM195.267 48H192.711V23.88H195.267V48ZM205.167 26.22H182.775V23.88H205.167V26.22Z" fill="black"/>
</svg>
