<svg width="465" height="150" viewBox="0 0 465 150" fill="none" xmlns="http://www.w3.org/2000/svg">
<mask id="path-1-outside-1_734_6" maskUnits="userSpaceOnUse" x="0" y="0" width="465" height="150" fill="black">
<rect fill="white" width="465" height="150"/>
<path fill-rule="evenodd" clip-rule="evenodd" d="M42 2C19.9086 2 2 19.9086 2 42V69C2 91.0914 19.9086 109 42 109H61.9366C61.9888 110.039 62.6679 129.39 42.0259 147.947C42.0259 147.947 94.893 151.081 100.937 109H423C445.091 109 463 91.0914 463 69V42C463 19.9086 445.091 2 423 2H42Z"/>
</mask>
<path fill-rule="evenodd" clip-rule="evenodd" d="M42 2C19.9086 2 2 19.9086 2 42V69C2 91.0914 19.9086 109 42 109H61.9366C61.9888 110.039 62.6679 129.39 42.0259 147.947C42.0259 147.947 94.893 151.081 100.937 109H423C445.091 109 463 91.0914 463 69V42C463 19.9086 445.091 2 423 2H42Z" fill="white"/>
<path d="M61.9366 109L63.9341 108.9L63.8386 107H61.9366V109ZM42.0259 147.947L40.6888 146.46L37.1286 149.661L41.9076 149.944L42.0259 147.947ZM100.937 109V107H99.2042L98.9578 108.716L100.937 109ZM4 42C4 21.0132 21.0132 4 42 4V0C18.804 0 0 18.804 0 42H4ZM4 69V42H0V69H4ZM42 107C21.0132 107 4 89.9868 4 69H0C0 92.196 18.8041 111 42 111V107ZM61.9366 107H42V111H61.9366V107ZM43.363 149.435C64.6056 130.338 64.0045 110.301 63.9341 108.9L59.9391 109.1C59.9732 109.778 60.7302 128.443 40.6888 146.46L43.363 149.435ZM98.9578 108.716C96.0853 128.713 82.17 138.003 68.6047 142.349C61.815 144.525 55.1846 145.428 50.2372 145.785C47.7679 145.962 45.7292 146.003 44.3141 146C43.6069 145.998 43.0562 145.985 42.6863 145.973C42.5014 145.967 42.3617 145.961 42.2703 145.957C42.2247 145.955 42.191 145.953 42.1699 145.952C42.1593 145.952 42.1519 145.951 42.1476 145.951C42.1454 145.951 42.1441 145.951 42.1435 145.951C42.1432 145.951 42.1434 145.951 42.1433 145.951C42.1437 145.951 42.1442 145.951 42.0259 147.947C41.9076 149.944 41.9086 149.944 41.9098 149.944C41.9104 149.944 41.9118 149.944 41.9131 149.944C41.9158 149.944 41.9192 149.945 41.9235 149.945C41.932 149.945 41.9437 149.946 41.9586 149.947C41.9883 149.948 42.0306 149.95 42.0852 149.953C42.1942 149.958 42.3522 149.965 42.5559 149.971C42.9634 149.984 43.5544 149.998 44.3046 150C45.8043 150.003 47.943 149.96 50.5245 149.774C55.6785 149.403 62.6427 148.46 69.8252 146.159C84.2047 141.551 99.7451 131.367 102.917 109.284L98.9578 108.716ZM423 107H100.937V111H423V107ZM461 69C461 89.9868 443.987 107 423 107V111C446.196 111 465 92.196 465 69H461ZM461 42V69H465V42H461ZM423 4C443.987 4 461 21.0132 461 42H465C465 18.804 446.196 0 423 0V4ZM42 4H423V0H42V4Z" fill="black" mask="url(#path-1-outside-1_734_6)"/>
<path d="M43.1662 47H39.8062L48.1782 28.24H52.4342L60.8062 47H57.3902L51.4822 33.7L50.3902 31.04H50.1662L49.0742 33.7L43.1662 47ZM56.4662 42.128H43.9502V39.412H56.4662V42.128ZM65.2302 47H62.2062V33.084H64.9782V37.032L65.2302 37.172V47ZM65.2302 39.188H64.5582V36.836H65.1742C65.3048 36.0707 65.5662 35.3893 65.9582 34.792C66.3502 34.176 66.8728 33.6907 67.5262 33.336C68.1982 32.9813 69.0102 32.804 69.9622 32.804C71.0262 32.804 71.8942 33.028 72.5662 33.476C73.2382 33.924 73.7235 34.5213 74.0222 35.268C74.3395 36.0147 74.4982 36.8267 74.4982 37.704V39.524H71.5022V38.292C71.5022 37.284 71.2782 36.5467 70.8302 36.08C70.3822 35.6133 69.6355 35.38 68.5902 35.38C67.3955 35.38 66.5368 35.7067 66.0142 36.36C65.4915 37.0133 65.2302 37.956 65.2302 39.188ZM83.3976 47.28C81.8856 47.28 80.5602 47 79.4216 46.44C78.2829 45.88 77.3962 45.0587 76.7616 43.976C76.1456 42.8933 75.8376 41.5867 75.8376 40.056C75.8376 38.6 76.1456 37.3307 76.7616 36.248C77.3962 35.1653 78.2736 34.3253 79.3936 33.728C80.5136 33.112 81.8296 32.804 83.3416 32.804C84.7789 32.804 86.0389 33.0653 87.1216 33.588C88.2229 34.092 89.0722 34.8387 89.6696 35.828C90.2856 36.7987 90.5936 37.9933 90.5936 39.412C90.5936 39.6547 90.5842 39.888 90.5656 40.112C90.5469 40.3173 90.5189 40.5227 90.4816 40.728H77.7696V39.048H88.4936L87.7096 40.084C87.7282 39.8973 87.7376 39.72 87.7376 39.552C87.7376 39.3653 87.7376 39.1787 87.7376 38.992C87.7376 37.704 87.3642 36.752 86.6176 36.136C85.8896 35.5013 84.7789 35.184 83.2856 35.184C81.6242 35.184 80.4389 35.5667 79.7296 36.332C79.0202 37.0973 78.6656 38.1987 78.6656 39.636V40.364C78.6656 41.82 79.0202 42.9307 79.7296 43.696C80.4389 44.4613 81.6336 44.844 83.3136 44.844C84.7696 44.844 85.8149 44.62 86.4496 44.172C87.1029 43.7053 87.4296 43.0613 87.4296 42.24V42.016H90.4536V42.268C90.4536 43.2573 90.1456 44.1347 89.5296 44.9C88.9322 45.6467 88.1016 46.2347 87.0376 46.664C85.9922 47.0747 84.7789 47.28 83.3976 47.28ZM99.8837 51.76H97.8957V49.016H100.612C101.228 49.016 101.685 48.9133 101.984 48.708C102.301 48.5213 102.562 48.1947 102.768 47.728L103.636 45.852L103.3 47.392L96.2437 33.084H99.6317L103.188 40.476L104.56 43.808H104.784L106.1 40.448L109.376 33.084H112.708L105.456 48.512C105.082 49.3333 104.644 49.9773 104.14 50.444C103.636 50.9293 103.038 51.2653 102.348 51.452C101.657 51.6573 100.836 51.76 99.8837 51.76ZM121.299 47.28C119.768 47.28 118.415 46.9813 117.239 46.384C116.081 45.768 115.176 44.9187 114.523 43.836C113.888 42.7347 113.571 41.4747 113.571 40.056C113.571 38.6 113.888 37.3307 114.523 36.248C115.176 35.1653 116.081 34.3253 117.239 33.728C118.415 33.112 119.768 32.804 121.299 32.804C122.867 32.804 124.229 33.112 125.387 33.728C126.544 34.3253 127.44 35.1653 128.075 36.248C128.728 37.3307 129.055 38.6 129.055 40.056C129.055 41.4747 128.728 42.7347 128.075 43.836C127.44 44.9187 126.544 45.768 125.387 46.384C124.229 46.9813 122.867 47.28 121.299 47.28ZM121.299 44.592C122.997 44.592 124.22 44.2093 124.967 43.444C125.713 42.66 126.087 41.5307 126.087 40.056C126.087 38.5813 125.713 37.452 124.967 36.668C124.22 35.8653 122.997 35.464 121.299 35.464C119.619 35.464 118.405 35.8653 117.659 36.668C116.912 37.452 116.539 38.5813 116.539 40.056C116.539 41.5307 116.912 42.66 117.659 43.444C118.405 44.2093 119.619 44.592 121.299 44.592ZM137.045 47.28C135.738 47.28 134.656 47.0187 133.797 46.496C132.938 45.9733 132.294 45.2733 131.865 44.396C131.436 43.5187 131.221 42.5387 131.221 41.456V33.084H134.217V40.644C134.217 41.932 134.534 42.912 135.169 43.584C135.822 44.2373 136.886 44.564 138.361 44.564C139.91 44.564 141.04 44.1813 141.749 43.416C142.477 42.632 142.841 41.484 142.841 39.972L143.373 39.944L143.541 42.688H142.897C142.766 43.472 142.468 44.2093 142.001 44.9C141.534 45.5907 140.89 46.16 140.069 46.608C139.266 47.056 138.258 47.28 137.045 47.28ZM145.865 47H143.093V42.632L142.841 42.492V33.084H145.865V47ZM162.246 47.28C160.696 47.28 159.427 46.8973 158.438 46.132C157.448 45.3667 156.814 44.3493 156.534 43.08H155.89V40.28H156.422C156.422 41.2133 156.618 42.0067 157.01 42.66C157.402 43.2947 157.952 43.7707 158.662 44.088C159.39 44.3867 160.239 44.536 161.21 44.536C162.218 44.536 163.067 44.396 163.758 44.116C164.467 43.8173 165.008 43.3413 165.382 42.688C165.755 42.0347 165.942 41.1573 165.942 40.056C165.942 38.936 165.755 38.0493 165.382 37.396C165.008 36.7427 164.467 36.276 163.758 35.996C163.067 35.716 162.236 35.576 161.266 35.576C159.716 35.576 158.522 35.9493 157.682 36.696C156.842 37.424 156.422 38.5347 156.422 40.028H155.89L155.694 36.948H156.422C156.702 35.66 157.327 34.652 158.298 33.924C159.287 33.1773 160.594 32.804 162.218 32.804C163.655 32.804 164.878 33.112 165.886 33.728C166.894 34.3253 167.659 35.1653 168.182 36.248C168.704 37.3307 168.966 38.6 168.966 40.056C168.966 41.4747 168.704 42.7347 168.182 43.836C167.678 44.9187 166.922 45.768 165.914 46.384C164.924 46.9813 163.702 47.28 162.246 47.28ZM156.422 51.76H153.398V33.084H156.17V37.452L156.422 37.816V51.76ZM178.062 47.28C176.55 47.28 175.224 47 174.086 46.44C172.947 45.88 172.06 45.0587 171.426 43.976C170.81 42.8933 170.502 41.5867 170.502 40.056C170.502 38.6 170.81 37.3307 171.426 36.248C172.06 35.1653 172.938 34.3253 174.058 33.728C175.178 33.112 176.494 32.804 178.006 32.804C179.443 32.804 180.703 33.0653 181.786 33.588C182.887 34.092 183.736 34.8387 184.334 35.828C184.95 36.7987 185.258 37.9933 185.258 39.412C185.258 39.6547 185.248 39.888 185.23 40.112C185.211 40.3173 185.183 40.5227 185.146 40.728H172.434V39.048H183.158L182.374 40.084C182.392 39.8973 182.402 39.72 182.402 39.552C182.402 39.3653 182.402 39.1787 182.402 38.992C182.402 37.704 182.028 36.752 181.282 36.136C180.554 35.5013 179.443 35.184 177.95 35.184C176.288 35.184 175.103 35.5667 174.394 36.332C173.684 37.0973 173.33 38.1987 173.33 39.636V40.364C173.33 41.82 173.684 42.9307 174.394 43.696C175.103 44.4613 176.298 44.844 177.978 44.844C179.434 44.844 180.479 44.62 181.114 44.172C181.767 43.7053 182.094 43.0613 182.094 42.24V42.016H185.118V42.268C185.118 43.2573 184.81 44.1347 184.194 44.9C183.596 45.6467 182.766 46.2347 181.702 46.664C180.656 47.0747 179.443 47.28 178.062 47.28ZM190.547 47H187.523V33.084H190.295V37.032L190.547 37.172V47ZM190.547 39.188H189.875V36.836H190.491C190.621 36.0707 190.883 35.3893 191.275 34.792C191.667 34.176 192.189 33.6907 192.843 33.336C193.515 32.9813 194.327 32.804 195.279 32.804C196.343 32.804 197.211 33.028 197.883 33.476C198.555 33.924 199.04 34.5213 199.339 35.268C199.656 36.0147 199.815 36.8267 199.815 37.704V39.524H196.819V38.292C196.819 37.284 196.595 36.5467 196.147 36.08C195.699 35.6133 194.952 35.38 193.907 35.38C192.712 35.38 191.853 35.7067 191.331 36.36C190.808 37.0133 190.547 37.956 190.547 39.188ZM216.358 47H213.362V39.44C213.362 38.04 213.035 37.0413 212.382 36.444C211.729 35.828 210.674 35.52 209.218 35.52C208.117 35.52 207.239 35.716 206.586 36.108C205.933 36.4813 205.457 37.0227 205.158 37.732C204.878 38.4227 204.738 39.2627 204.738 40.252L204.15 40.28L204.29 37.34H204.906C205.074 36.556 205.373 35.8187 205.802 35.128C206.25 34.4373 206.875 33.8773 207.678 33.448C208.481 33.0187 209.47 32.804 210.646 32.804C211.915 32.804 212.97 33.0653 213.81 33.588C214.669 34.092 215.303 34.792 215.714 35.688C216.143 36.5653 216.358 37.5733 216.358 38.712V47ZM204.738 47H201.714V28.24H204.738V47ZM232.237 47H229.465V43.416L229.269 43.332V38.572C229.269 37.4147 228.989 36.612 228.429 36.164C227.888 35.6973 226.945 35.464 225.601 35.464C224.313 35.464 223.352 35.688 222.717 36.136C222.083 36.584 221.765 37.3213 221.765 38.348V38.46H218.769V38.348C218.769 37.284 219.049 36.3413 219.609 35.52C220.169 34.68 220.972 34.0173 222.017 33.532C223.081 33.0467 224.351 32.804 225.825 32.804C227.3 32.804 228.504 33.056 229.437 33.56C230.389 34.0453 231.089 34.7173 231.537 35.576C232.004 36.4347 232.237 37.424 232.237 38.544V47ZM223.165 47.28C221.728 47.28 220.58 46.9627 219.721 46.328C218.881 45.6747 218.461 44.7787 218.461 43.64C218.461 42.912 218.639 42.3053 218.993 41.82C219.367 41.316 219.889 40.924 220.561 40.644C221.233 40.364 222.027 40.168 222.941 40.056L229.549 39.356V41.148L223.809 41.792C223.025 41.8853 222.437 42.0533 222.045 42.296C221.672 42.52 221.485 42.9027 221.485 43.444C221.485 44.004 221.681 44.424 222.073 44.704C222.484 44.9653 223.119 45.096 223.977 45.096C225.041 45.096 225.965 44.9653 226.749 44.704C227.533 44.424 228.149 43.9947 228.597 43.416C229.045 42.8373 229.269 42.0907 229.269 41.176L229.661 41.232V43.528H229.269C228.896 44.704 228.177 45.628 227.113 46.3C226.068 46.9533 224.752 47.28 223.165 47.28ZM243.785 47.28C242.235 47.28 240.966 46.8973 239.977 46.132C238.987 45.3667 238.353 44.3493 238.073 43.08H237.429V40.28H237.961C237.961 41.2133 238.157 42.0067 238.549 42.66C238.941 43.2947 239.491 43.7707 240.201 44.088C240.929 44.3867 241.778 44.536 242.749 44.536C243.757 44.536 244.606 44.396 245.297 44.116C246.006 43.8173 246.547 43.3413 246.921 42.688C247.294 42.0347 247.481 41.1573 247.481 40.056C247.481 38.936 247.294 38.0493 246.921 37.396C246.547 36.7427 246.006 36.276 245.297 35.996C244.606 35.716 243.775 35.576 242.805 35.576C241.255 35.576 240.061 35.9493 239.221 36.696C238.381 37.424 237.961 38.5347 237.961 40.028H237.429L237.233 36.948H237.961C238.241 35.66 238.866 34.652 239.837 33.924C240.826 33.1773 242.133 32.804 243.757 32.804C245.194 32.804 246.417 33.112 247.425 33.728C248.433 34.3253 249.198 35.1653 249.721 36.248C250.243 37.3307 250.505 38.6 250.505 40.056C250.505 41.4747 250.243 42.7347 249.721 43.836C249.217 44.9187 248.461 45.768 247.453 46.384C246.463 46.9813 245.241 47.28 243.785 47.28ZM237.961 51.76H234.937V33.084H237.709V37.452L237.961 37.816V51.76ZM259.181 47.28C256.941 47.28 255.205 46.8507 253.973 45.992C252.759 45.1333 252.153 43.9013 252.153 42.296V42.212H255.177V42.436C255.177 43.3507 255.475 43.9853 256.073 44.34C256.689 44.676 257.725 44.844 259.181 44.844C260.543 44.844 261.467 44.704 261.953 44.424C262.457 44.1253 262.709 43.668 262.709 43.052C262.709 42.4733 262.513 42.0627 262.121 41.82C261.747 41.5773 261.057 41.3907 260.049 41.26L256.241 40.756C254.915 40.588 253.879 40.2147 253.133 39.636C252.386 39.0387 252.013 38.152 252.013 36.976C252.013 36.1547 252.255 35.436 252.741 34.82C253.226 34.1853 253.954 33.6907 254.925 33.336C255.895 32.9813 257.09 32.804 258.509 32.804C259.927 32.804 261.141 32.9907 262.149 33.364C263.175 33.7373 263.959 34.2973 264.501 35.044C265.061 35.7907 265.341 36.7147 265.341 37.816V37.9H262.345V37.732C262.345 37.1907 262.233 36.7333 262.009 36.36C261.785 35.9867 261.383 35.7067 260.805 35.52C260.245 35.3147 259.451 35.212 258.425 35.212C257.137 35.212 256.241 35.3613 255.737 35.66C255.233 35.9587 254.981 36.4347 254.981 37.088C254.981 37.6293 255.167 38.0213 255.541 38.264C255.914 38.5067 256.614 38.7027 257.641 38.852L260.861 39.3C262.503 39.5053 263.717 39.9067 264.501 40.504C265.285 41.1013 265.677 41.9787 265.677 43.136C265.677 43.9947 265.406 44.7413 264.865 45.376C264.323 45.992 263.567 46.468 262.597 46.804C261.626 47.1213 260.487 47.28 259.181 47.28ZM275.668 47H272.644V33.084H275.668V47ZM275.668 31.46H272.644V28.24H275.668V31.46ZM293 47H289.976V39.44C289.976 38.1333 289.659 37.1533 289.024 36.5C288.408 35.8467 287.372 35.52 285.916 35.52C284.404 35.52 283.284 35.912 282.556 36.696C281.847 37.4613 281.492 38.6 281.492 40.112L280.96 40.14L280.82 37.396H281.436C281.585 36.612 281.884 35.8747 282.332 35.184C282.799 34.4747 283.433 33.9053 284.236 33.476C285.057 33.028 286.056 32.804 287.232 32.804C288.52 32.804 289.593 33.0653 290.452 33.588C291.311 34.1107 291.945 34.8107 292.356 35.688C292.785 36.5653 293 37.5453 293 38.628V47ZM281.492 47H278.468V33.084H281.24V37.452L281.492 37.592V47ZM313.64 47H310.868V43.416L310.672 43.332V38.572C310.672 37.4147 310.392 36.612 309.832 36.164C309.29 35.6973 308.348 35.464 307.004 35.464C305.716 35.464 304.754 35.688 304.12 36.136C303.485 36.584 303.168 37.3213 303.168 38.348V38.46H300.172V38.348C300.172 37.284 300.452 36.3413 301.012 35.52C301.572 34.68 302.374 34.0173 303.42 33.532C304.484 33.0467 305.753 32.804 307.228 32.804C308.702 32.804 309.906 33.056 310.84 33.56C311.792 34.0453 312.492 34.7173 312.94 35.576C313.406 36.4347 313.64 37.424 313.64 38.544V47ZM304.568 47.28C303.13 47.28 301.982 46.9627 301.124 46.328C300.284 45.6747 299.864 44.7787 299.864 43.64C299.864 42.912 300.041 42.3053 300.396 41.82C300.769 41.316 301.292 40.924 301.964 40.644C302.636 40.364 303.429 40.168 304.344 40.056L310.952 39.356V41.148L305.212 41.792C304.428 41.8853 303.84 42.0533 303.448 42.296C303.074 42.52 302.888 42.9027 302.888 43.444C302.888 44.004 303.084 44.424 303.476 44.704C303.886 44.9653 304.521 45.096 305.38 45.096C306.444 45.096 307.368 44.9653 308.152 44.704C308.936 44.424 309.552 43.9947 310 43.416C310.448 42.8373 310.672 42.0907 310.672 41.176L311.064 41.232V43.528H310.672C310.298 44.704 309.58 45.628 308.516 46.3C307.47 46.9533 306.154 47.28 304.568 47.28ZM324.148 47H321.124V33.084H323.896V37.032L324.148 37.172V47ZM324.148 39.188H323.476V36.836H324.092C324.223 36.0707 324.484 35.3893 324.876 34.792C325.268 34.176 325.791 33.6907 326.444 33.336C327.116 32.9813 327.928 32.804 328.88 32.804C329.944 32.804 330.812 33.028 331.484 33.476C332.156 33.924 332.641 34.5213 332.94 35.268C333.257 36.0147 333.416 36.8267 333.416 37.704V39.524H330.42V38.292C330.42 37.284 330.196 36.5467 329.748 36.08C329.3 35.6133 328.553 35.38 327.508 35.38C326.313 35.38 325.455 35.7067 324.932 36.36C324.409 37.0133 324.148 37.956 324.148 39.188ZM341.112 47.28C339.805 47.28 338.722 47.0187 337.864 46.496C337.005 45.9733 336.361 45.2733 335.932 44.396C335.502 43.5187 335.288 42.5387 335.288 41.456V33.084H338.284V40.644C338.284 41.932 338.601 42.912 339.236 43.584C339.889 44.2373 340.953 44.564 342.428 44.564C343.977 44.564 345.106 44.1813 345.816 43.416C346.544 42.632 346.908 41.484 346.908 39.972L347.44 39.944L347.608 42.688H346.964C346.833 43.472 346.534 44.2093 346.068 44.9C345.601 45.5907 344.957 46.16 344.136 46.608C343.333 47.056 342.325 47.28 341.112 47.28ZM349.932 47H347.16V42.632L346.908 42.492V33.084H349.932V47ZM359.259 47.28C357.019 47.28 355.283 46.8507 354.051 45.992C352.837 45.1333 352.231 43.9013 352.231 42.296V42.212H355.255V42.436C355.255 43.3507 355.553 43.9853 356.151 44.34C356.767 44.676 357.803 44.844 359.259 44.844C360.621 44.844 361.545 44.704 362.031 44.424C362.535 44.1253 362.787 43.668 362.787 43.052C362.787 42.4733 362.591 42.0627 362.199 41.82C361.825 41.5773 361.135 41.3907 360.127 41.26L356.319 40.756C354.993 40.588 353.957 40.2147 353.211 39.636C352.464 39.0387 352.091 38.152 352.091 36.976C352.091 36.1547 352.333 35.436 352.819 34.82C353.304 34.1853 354.032 33.6907 355.003 33.336C355.973 32.9813 357.168 32.804 358.587 32.804C360.005 32.804 361.219 32.9907 362.227 33.364C363.253 33.7373 364.037 34.2973 364.579 35.044C365.139 35.7907 365.419 36.7147 365.419 37.816V37.9H362.423V37.732C362.423 37.1907 362.311 36.7333 362.087 36.36C361.863 35.9867 361.461 35.7067 360.883 35.52C360.323 35.3147 359.529 35.212 358.503 35.212C357.215 35.212 356.319 35.3613 355.815 35.66C355.311 35.9587 355.059 36.4347 355.059 37.088C355.059 37.6293 355.245 38.0213 355.619 38.264C355.992 38.5067 356.692 38.7027 357.719 38.852L360.939 39.3C362.581 39.5053 363.795 39.9067 364.579 40.504C365.363 41.1013 365.755 41.9787 365.755 43.136C365.755 43.9947 365.484 44.7413 364.943 45.376C364.401 45.992 363.645 46.468 362.675 46.804C361.704 47.1213 360.565 47.28 359.259 47.28ZM382.581 47H379.585V39.44C379.585 38.04 379.258 37.0413 378.605 36.444C377.951 35.828 376.897 35.52 375.441 35.52C374.339 35.52 373.462 35.716 372.809 36.108C372.155 36.4813 371.679 37.0227 371.381 37.732C371.101 38.4227 370.961 39.2627 370.961 40.252L370.373 40.28L370.513 37.34H371.129C371.297 36.556 371.595 35.8187 372.025 35.128C372.473 34.4373 373.098 33.8773 373.901 33.448C374.703 33.0187 375.693 32.804 376.869 32.804C378.138 32.804 379.193 33.0653 380.033 33.588C380.891 34.092 381.526 34.792 381.937 35.688C382.366 36.5653 382.581 37.5733 382.581 38.712V47ZM370.961 47H367.937V28.24H370.961V47ZM392.692 40.896H389.668V39.944C389.668 39.384 389.771 38.8987 389.976 38.488C390.2 38.0773 390.517 37.7227 390.928 37.424C391.339 37.1253 391.824 36.8547 392.384 36.612L394.4 35.744C395.184 35.3893 395.781 35.0347 396.192 34.68C396.621 34.3067 396.836 33.8027 396.836 33.168C396.836 32.6827 396.715 32.2627 396.472 31.908C396.229 31.5347 395.791 31.2453 395.156 31.04C394.521 30.816 393.597 30.704 392.384 30.704C390.424 30.704 389.061 31.0027 388.296 31.6C387.531 32.1973 387.148 33.084 387.148 34.26V35.072H384.18V34.428C384.18 33.2707 384.46 32.1973 385.02 31.208C385.599 30.2187 386.504 29.4347 387.736 28.856C388.987 28.2587 390.601 27.96 392.58 27.96C394.316 27.96 395.716 28.1933 396.78 28.66C397.844 29.108 398.619 29.724 399.104 30.508C399.608 31.2733 399.86 32.1227 399.86 33.056C399.86 33.952 399.664 34.708 399.272 35.324C398.899 35.9213 398.423 36.416 397.844 36.808C397.265 37.2 396.649 37.536 395.996 37.816L393.98 38.656C393.457 38.8613 393.112 39.0853 392.944 39.328C392.776 39.5707 392.692 39.8973 392.692 40.308V40.896ZM392.916 47H389.5V42.856H392.916V47ZM50.3342 81.28C48.3928 81.28 46.6942 80.888 45.2382 80.104C43.7822 79.3013 42.6528 78.1813 41.8502 76.744C41.0475 75.288 40.6462 73.58 40.6462 71.62C40.6462 69.66 41.0475 67.9613 41.8502 66.524C42.6528 65.068 43.7822 63.948 45.2382 63.164C46.6942 62.3613 48.3928 61.96 50.3342 61.96C52.1075 61.96 53.6662 62.2587 55.0102 62.856C56.3728 63.4347 57.4275 64.2747 58.1742 65.376C58.9395 66.4587 59.3222 67.756 59.3222 69.268V69.632H55.9902V69.268C55.9902 67.8307 55.5235 66.7387 54.5902 65.992C53.6755 65.2453 52.2662 64.872 50.3622 64.872C48.8875 64.872 47.6648 65.1147 46.6942 65.6C45.7422 66.0667 45.0235 66.7947 44.5382 67.784C44.0715 68.7733 43.8382 70.052 43.8382 71.62C43.8382 73.1693 44.0715 74.448 44.5382 75.456C45.0235 76.4453 45.7422 77.1827 46.6942 77.668C47.6648 78.1347 48.8875 78.368 50.3622 78.368C52.2662 78.368 53.6755 77.9947 54.5902 77.248C55.5235 76.5013 55.9902 75.4093 55.9902 73.972V73.608H59.3222V73.972C59.3222 75.4653 58.9395 76.7627 58.1742 77.864C57.4275 78.9653 56.3728 79.8147 55.0102 80.412C53.6662 80.9907 52.1075 81.28 50.3342 81.28ZM74.7099 81H71.9379V77.416L71.7419 77.332V72.572C71.7419 71.4147 71.4619 70.612 70.9019 70.164C70.3606 69.6973 69.4179 69.464 68.0739 69.464C66.7859 69.464 65.8246 69.688 65.1899 70.136C64.5552 70.584 64.2379 71.3213 64.2379 72.348V72.46H61.2419V72.348C61.2419 71.284 61.5219 70.3413 62.0819 69.52C62.6419 68.68 63.4446 68.0173 64.4899 67.532C65.5539 67.0467 66.8232 66.804 68.2979 66.804C69.7726 66.804 70.9766 67.056 71.9099 67.56C72.8619 68.0453 73.5619 68.7173 74.0099 69.576C74.4766 70.4347 74.7099 71.424 74.7099 72.544V81ZM65.6379 81.28C64.2006 81.28 63.0526 80.9627 62.1939 80.328C61.3539 79.6747 60.9339 78.7787 60.9339 77.64C60.9339 76.912 61.1112 76.3053 61.4659 75.82C61.8392 75.316 62.3619 74.924 63.0339 74.644C63.7059 74.364 64.4992 74.168 65.4139 74.056L72.0219 73.356V75.148L66.2819 75.792C65.4979 75.8853 64.9099 76.0533 64.5179 76.296C64.1446 76.52 63.9579 76.9027 63.9579 77.444C63.9579 78.004 64.1539 78.424 64.5459 78.704C64.9566 78.9653 65.5912 79.096 66.4499 79.096C67.5139 79.096 68.4379 78.9653 69.2219 78.704C70.0059 78.424 70.6219 77.9947 71.0699 77.416C71.5179 76.8373 71.7419 76.0907 71.7419 75.176L72.1339 75.232V77.528H71.7419C71.3686 78.704 70.6499 79.628 69.5859 80.3C68.5406 80.9533 67.2246 81.28 65.6379 81.28ZM80.4333 81H77.4093V62.24H80.4333V81ZM107.845 81H104.849V73.44C104.849 72.0587 104.56 71.06 103.981 70.444C103.403 69.828 102.432 69.52 101.069 69.52C99.5948 69.52 98.5495 69.9027 97.9335 70.668C97.3362 71.4147 97.0375 72.5627 97.0375 74.112L96.5055 74.14L96.3375 71.396H96.9535C97.0842 70.5933 97.3548 69.8467 97.7655 69.156C98.1762 68.4653 98.7642 67.9053 99.5295 67.476C100.295 67.028 101.256 66.804 102.413 66.804C103.627 66.804 104.635 67.056 105.437 67.56C106.24 68.064 106.837 68.7547 107.229 69.632C107.64 70.5093 107.845 71.508 107.845 72.628V81ZM86.2575 81H83.2335V67.084H86.0055V71.452L86.2575 71.592V81ZM97.0375 81H94.0415V73.44C94.0415 72.0587 93.7522 71.06 93.1735 70.444C92.5948 69.828 91.6335 69.52 90.2895 69.52C88.7962 69.52 87.7508 69.9027 87.1535 70.668C86.5562 71.4147 86.2575 72.5627 86.2575 74.112L85.7255 74.14L85.5855 71.284H86.1735C86.3042 70.5 86.5655 69.772 86.9575 69.1C87.3495 68.428 87.9188 67.8773 88.6655 67.448C89.4122 67.0187 90.3642 66.804 91.5215 66.804C92.7348 66.804 93.7335 67.0653 94.5175 67.588C95.3015 68.092 95.8895 68.7827 96.2815 69.66C96.6735 70.5373 96.8695 71.5267 96.8695 72.628H97.0375V81ZM121.467 81.28C119.992 81.28 118.742 80.9813 117.715 80.384C116.707 79.768 115.942 78.9187 115.419 77.836C114.896 76.7347 114.635 75.4747 114.635 74.056C114.635 72.6 114.896 71.3307 115.419 70.248C115.942 69.1653 116.698 68.3253 117.687 67.728C118.676 67.112 119.871 66.804 121.271 66.804C122.914 66.804 124.211 67.1867 125.163 67.952C126.115 68.7173 126.731 69.688 127.011 70.864H127.711V73.972H127.179C127.179 72.4973 126.759 71.396 125.919 70.668C125.079 69.9213 123.884 69.548 122.335 69.548C121.383 69.548 120.552 69.6973 119.843 69.996C119.134 70.276 118.592 70.7427 118.219 71.396C117.864 72.0493 117.687 72.936 117.687 74.056C117.687 75.1573 117.864 76.0347 118.219 76.688C118.592 77.3413 119.134 77.808 119.843 78.088C120.552 78.368 121.402 78.508 122.391 78.508C123.38 78.508 124.23 78.3587 124.939 78.06C125.667 77.7427 126.218 77.2573 126.591 76.604C126.983 75.9507 127.179 75.148 127.179 74.196H127.711L127.907 76.996H127.235C126.955 78.3773 126.311 79.4413 125.303 80.188C124.314 80.916 123.035 81.28 121.467 81.28ZM130.203 81H127.431V76.632L127.179 76.268V62.24H130.203V81ZM140.111 81.28C138.58 81.28 137.227 80.9813 136.051 80.384C134.894 79.768 133.988 78.9187 133.335 77.836C132.7 76.7347 132.383 75.4747 132.383 74.056C132.383 72.6 132.7 71.3307 133.335 70.248C133.988 69.1653 134.894 68.3253 136.051 67.728C137.227 67.112 138.58 66.804 140.111 66.804C141.679 66.804 143.042 67.112 144.199 67.728C145.356 68.3253 146.252 69.1653 146.887 70.248C147.54 71.3307 147.867 72.6 147.867 74.056C147.867 75.4747 147.54 76.7347 146.887 77.836C146.252 78.9187 145.356 79.768 144.199 80.384C143.042 80.9813 141.679 81.28 140.111 81.28ZM140.111 78.592C141.81 78.592 143.032 78.2093 143.779 77.444C144.526 76.66 144.899 75.5307 144.899 74.056C144.899 72.5813 144.526 71.452 143.779 70.668C143.032 69.8653 141.81 69.464 140.111 69.464C138.431 69.464 137.218 69.8653 136.471 70.668C135.724 71.452 135.351 72.5813 135.351 74.056C135.351 75.5307 135.724 76.66 136.471 77.444C137.218 78.2093 138.431 78.592 140.111 78.592ZM156.726 81H152.974L148.802 67.084H151.938L154.262 74.98L154.906 78.564H155.13L156.166 74.7L159.078 67.084H162.942L165.882 74.7L166.918 78.564H167.142L167.786 74.98L170.11 67.084H173.19L168.962 81H165.21L162.158 72.992L161.094 69.576H160.87L159.806 72.992L156.726 81ZM189.258 81H186.234V73.44C186.234 72.1333 185.916 71.1533 185.282 70.5C184.666 69.8467 183.63 69.52 182.174 69.52C180.662 69.52 179.542 69.912 178.814 70.696C178.104 71.4613 177.75 72.6 177.75 74.112L177.218 74.14L177.078 71.396H177.694C177.843 70.612 178.142 69.8747 178.59 69.184C179.056 68.4747 179.691 67.9053 180.494 67.476C181.315 67.028 182.314 66.804 183.49 66.804C184.778 66.804 185.851 67.0653 186.71 67.588C187.568 68.1107 188.203 68.8107 188.614 69.688C189.043 70.5653 189.258 71.5453 189.258 72.628V81ZM177.75 81H174.726V67.084H177.498V71.452L177.75 71.592V81ZM209.897 81H207.125V77.416L206.929 77.332V72.572C206.929 71.4147 206.649 70.612 206.089 70.164C205.548 69.6973 204.605 69.464 203.261 69.464C201.973 69.464 201.012 69.688 200.377 70.136C199.743 70.584 199.425 71.3213 199.425 72.348V72.46H196.429V72.348C196.429 71.284 196.709 70.3413 197.269 69.52C197.829 68.68 198.632 68.0173 199.677 67.532C200.741 67.0467 202.011 66.804 203.485 66.804C204.96 66.804 206.164 67.056 207.097 67.56C208.049 68.0453 208.749 68.7173 209.197 69.576C209.664 70.4347 209.897 71.424 209.897 72.544V81ZM200.825 81.28C199.388 81.28 198.24 80.9627 197.381 80.328C196.541 79.6747 196.121 78.7787 196.121 77.64C196.121 76.912 196.299 76.3053 196.653 75.82C197.027 75.316 197.549 74.924 198.221 74.644C198.893 74.364 199.687 74.168 200.601 74.056L207.209 73.356V75.148L201.469 75.792C200.685 75.8853 200.097 76.0533 199.705 76.296C199.332 76.52 199.145 76.9027 199.145 77.444C199.145 78.004 199.341 78.424 199.733 78.704C200.144 78.9653 200.779 79.096 201.637 79.096C202.701 79.096 203.625 78.9653 204.409 78.704C205.193 78.424 205.809 77.9947 206.257 77.416C206.705 76.8373 206.929 76.0907 206.929 75.176L207.321 75.232V77.528H206.929C206.556 78.704 205.837 79.628 204.773 80.3C203.728 80.9533 202.412 81.28 200.825 81.28ZM227.129 81H224.105V73.44C224.105 72.1333 223.787 71.1533 223.153 70.5C222.537 69.8467 221.501 69.52 220.045 69.52C218.533 69.52 217.413 69.912 216.685 70.696C215.975 71.4613 215.621 72.6 215.621 74.112L215.089 74.14L214.949 71.396H215.565C215.714 70.612 216.013 69.8747 216.461 69.184C216.927 68.4747 217.562 67.9053 218.365 67.476C219.186 67.028 220.185 66.804 221.361 66.804C222.649 66.804 223.722 67.0653 224.581 67.588C225.439 68.1107 226.074 68.8107 226.485 69.688C226.914 70.5653 227.129 71.5453 227.129 72.628V81ZM215.621 81H212.597V67.084H215.369V71.452L215.621 71.592V81ZM235.955 81.28C234.481 81.28 233.23 80.9813 232.203 80.384C231.195 79.768 230.43 78.9187 229.907 77.836C229.385 76.7347 229.123 75.4747 229.123 74.056C229.123 72.6 229.385 71.3307 229.907 70.248C230.43 69.1653 231.186 68.3253 232.175 67.728C233.165 67.112 234.359 66.804 235.759 66.804C237.402 66.804 238.699 67.1867 239.651 67.952C240.603 68.7173 241.219 69.688 241.499 70.864H242.199V73.972H241.667C241.667 72.4973 241.247 71.396 240.407 70.668C239.567 69.9213 238.373 69.548 236.823 69.548C235.871 69.548 235.041 69.6973 234.331 69.996C233.622 70.276 233.081 70.7427 232.707 71.396C232.353 72.0493 232.175 72.936 232.175 74.056C232.175 75.1573 232.353 76.0347 232.707 76.688C233.081 77.3413 233.622 77.808 234.331 78.088C235.041 78.368 235.89 78.508 236.879 78.508C237.869 78.508 238.718 78.3587 239.427 78.06C240.155 77.7427 240.706 77.2573 241.079 76.604C241.471 75.9507 241.667 75.148 241.667 74.196H242.199L242.395 76.996H241.723C241.443 78.3773 240.799 79.4413 239.791 80.188C238.802 80.916 237.523 81.28 235.955 81.28ZM244.691 81H241.919V76.632L241.667 76.268V62.24H244.691V81ZM259.301 81.28C257.77 81.28 256.435 80.9813 255.297 80.384C254.158 79.768 253.271 78.9187 252.637 77.836C252.021 76.7347 251.713 75.4747 251.713 74.056C251.713 72.6 252.021 71.3307 252.637 70.248C253.271 69.1653 254.158 68.3253 255.297 67.728C256.435 67.112 257.77 66.804 259.301 66.804C260.701 66.804 261.942 67.0467 263.025 67.532C264.107 68.0173 264.957 68.6987 265.573 69.576C266.207 70.4347 266.525 71.452 266.525 72.628V72.908H263.529V72.74C263.529 71.6573 263.155 70.8547 262.409 70.332C261.662 69.7907 260.607 69.52 259.245 69.52C257.677 69.52 256.529 69.9027 255.801 70.668C255.073 71.4147 254.709 72.544 254.709 74.056C254.709 75.5493 255.073 76.6787 255.801 77.444C256.529 78.1907 257.677 78.564 259.245 78.564C260.607 78.564 261.662 78.3027 262.409 77.78C263.155 77.2387 263.529 76.4267 263.529 75.344V75.148H266.525V75.456C266.525 76.6133 266.207 77.6307 265.573 78.508C264.957 79.3853 264.107 80.0667 263.025 80.552C261.942 81.0373 260.701 81.28 259.301 81.28ZM283.405 81H280.409V73.44C280.409 72.04 280.082 71.0413 279.429 70.444C278.776 69.828 277.721 69.52 276.265 69.52C275.164 69.52 274.286 69.716 273.633 70.108C272.98 70.4813 272.504 71.0227 272.205 71.732C271.925 72.4227 271.785 73.2627 271.785 74.252L271.197 74.28L271.337 71.34H271.953C272.121 70.556 272.42 69.8187 272.849 69.128C273.297 68.4373 273.922 67.8773 274.725 67.448C275.528 67.0187 276.517 66.804 277.693 66.804C278.962 66.804 280.017 67.0653 280.857 67.588C281.716 68.092 282.35 68.792 282.761 69.688C283.19 70.5653 283.405 71.5733 283.405 72.712V81ZM271.785 81H268.761V62.24H271.785V81ZM289.148 81H286.124V67.084H289.148V81ZM289.148 65.46H286.124V62.24H289.148V65.46ZM294.972 81H291.948V62.24H294.972V81ZM300.797 81H297.773V62.24H300.797V81ZM306.845 81H303.037V76.66H306.845V81Z" fill="black"/>
</svg>
