<svg width="474" height="121" viewBox="0 0 474 121" fill="none" xmlns="http://www.w3.org/2000/svg">
<path d="M83.1864 81.8272L83.2997 80.9562H84.1781L434 80.9562C456.093 80.9562 473 64.5663 473 42.5C473 20.4105 456.069 3 434 3.00002L433.995 2.99998L40.9807 1C40.98 1 40.9793 1 40.9786 1C18.9049 1.00112 1 18.8946 1 40.9781C1 63.0508 18.9061 80.9562 40.9922 80.9562H48.6416H49.5834L49.6398 81.8963L48.6416 81.9562C49.6398 81.8963 49.6398 81.8969 49.6399 81.8975L49.64 81.8992L49.6402 81.9039L49.641 81.9189L49.6435 81.9703C49.6454 82.014 49.6478 82.0767 49.6499 82.1577C49.6543 82.3197 49.6578 82.5547 49.6551 82.8579C49.6498 83.4641 49.6198 84.3429 49.5224 85.4534C49.3274 87.674 48.8624 90.8236 47.7836 94.5745C45.748 101.652 41.5296 110.862 32.8375 120C34.1277 119.998 35.9115 119.951 38.0428 119.782C42.5895 119.422 48.6942 118.51 54.9554 116.306C67.4474 111.909 80.5097 102.409 83.1864 81.8272Z" fill="white" stroke="black" stroke-width="2"/>
<path d="M43.424 51H40.4V32.24H43.424V51ZM60.1374 51H56.9454C55.452 51 54.2667 50.636 53.3894 49.908C52.5307 49.18 52.1014 47.976 52.1014 46.296V34.032H55.0974V46.128C55.0974 46.9867 55.3027 47.5653 55.7134 47.864C56.124 48.144 56.7587 48.284 57.6174 48.284H60.1374V51ZM60.1374 39.604H49.7494V37.084H60.1374V39.604ZM76.6729 51H73.6769V43.44C73.6769 42.04 73.3502 41.0413 72.6969 40.444C72.0436 39.828 70.9889 39.52 69.5329 39.52C68.4316 39.52 67.5542 39.716 66.9009 40.108C66.2476 40.4813 65.7716 41.0227 65.4729 41.732C65.1929 42.4227 65.0529 43.2627 65.0529 44.252L64.4649 44.28L64.6049 41.34H65.2209C65.3889 40.556 65.6876 39.8187 66.1169 39.128C66.5649 38.4373 67.1902 37.8773 67.9929 37.448C68.7956 37.0187 69.7849 36.804 70.9609 36.804C72.2302 36.804 73.2849 37.0653 74.1249 37.588C74.9836 38.092 75.6182 38.792 76.0289 39.688C76.4582 40.5653 76.6729 41.5733 76.6729 42.712V51ZM65.0529 51H62.0289V32.24H65.0529V51ZM82.4162 51H79.3922V37.084H82.4162V51ZM82.4162 35.46H79.3922V32.24H82.4162V35.46ZM99.7484 51H96.7244V43.44C96.7244 42.1333 96.4071 41.1533 95.7724 40.5C95.1564 39.8467 94.1204 39.52 92.6644 39.52C91.1524 39.52 90.0324 39.912 89.3044 40.696C88.5951 41.4613 88.2404 42.6 88.2404 44.112L87.7084 44.14L87.5684 41.396H88.1844C88.3337 40.612 88.6324 39.8747 89.0804 39.184C89.5471 38.4747 90.1817 37.9053 90.9844 37.476C91.8057 37.028 92.8044 36.804 93.9804 36.804C95.2684 36.804 96.3417 37.0653 97.2004 37.588C98.0591 38.1107 98.6937 38.8107 99.1044 39.688C99.5337 40.5653 99.7484 41.5453 99.7484 42.628V51ZM88.2404 51H85.2164V37.084H87.9884V41.452L88.2404 41.592V51ZM117.115 51H113.559L109.443 45.316H104.123V42.6H109.443L113.615 37.084H117.143L111.907 43.776L117.115 51ZM105.467 51H102.443V32.24H105.467V51ZM126.44 51H123.416V32.24H126.44V51ZM140.605 51.28C138.365 51.28 136.629 50.8507 135.397 49.992C134.184 49.1333 133.577 47.9013 133.577 46.296V46.212H136.601V46.436C136.601 47.3507 136.9 47.9853 137.497 48.34C138.113 48.676 139.149 48.844 140.605 48.844C141.968 48.844 142.892 48.704 143.377 48.424C143.881 48.1253 144.133 47.668 144.133 47.052C144.133 46.4733 143.937 46.0627 143.545 45.82C143.172 45.5773 142.481 45.3907 141.473 45.26L137.665 44.756C136.34 44.588 135.304 44.2147 134.557 43.636C133.81 43.0387 133.437 42.152 133.437 40.976C133.437 40.1547 133.68 39.436 134.165 38.82C134.65 38.1853 135.378 37.6907 136.349 37.336C137.32 36.9813 138.514 36.804 139.933 36.804C141.352 36.804 142.565 36.9907 143.573 37.364C144.6 37.7373 145.384 38.2973 145.925 39.044C146.485 39.7907 146.765 40.7147 146.765 41.816V41.9H143.769V41.732C143.769 41.1907 143.657 40.7333 143.433 40.36C143.209 39.9867 142.808 39.7067 142.229 39.52C141.669 39.3147 140.876 39.212 139.849 39.212C138.561 39.212 137.665 39.3613 137.161 39.66C136.657 39.9587 136.405 40.4347 136.405 41.088C136.405 41.6293 136.592 42.0213 136.965 42.264C137.338 42.5067 138.038 42.7027 139.065 42.852L142.285 43.3C143.928 43.5053 145.141 43.9067 145.925 44.504C146.709 45.1013 147.101 45.9787 147.101 47.136C147.101 47.9947 146.83 48.7413 146.289 49.376C145.748 49.992 144.992 50.468 144.021 50.804C143.05 51.1213 141.912 51.28 140.605 51.28ZM162.443 51H159.671V47.416L159.475 47.332V42.572C159.475 41.4147 159.195 40.612 158.635 40.164C158.093 39.6973 157.151 39.464 155.807 39.464C154.519 39.464 153.557 39.688 152.923 40.136C152.288 40.584 151.971 41.3213 151.971 42.348V42.46H148.975V42.348C148.975 41.284 149.255 40.3413 149.815 39.52C150.375 38.68 151.177 38.0173 152.223 37.532C153.287 37.0467 154.556 36.804 156.031 36.804C157.505 36.804 158.709 37.056 159.643 37.56C160.595 38.0453 161.295 38.7173 161.743 39.576C162.209 40.4347 162.443 41.424 162.443 42.544V51ZM153.371 51.28C151.933 51.28 150.785 50.9627 149.927 50.328C149.087 49.6747 148.667 48.7787 148.667 47.64C148.667 46.912 148.844 46.3053 149.199 45.82C149.572 45.316 150.095 44.924 150.767 44.644C151.439 44.364 152.232 44.168 153.147 44.056L159.755 43.356V45.148L154.015 45.792C153.231 45.8853 152.643 46.0533 152.251 46.296C151.877 46.52 151.691 46.9027 151.691 47.444C151.691 48.004 151.887 48.424 152.279 48.704C152.689 48.9653 153.324 49.096 154.183 49.096C155.247 49.096 156.171 48.9653 156.955 48.704C157.739 48.424 158.355 47.9947 158.803 47.416C159.251 46.8373 159.475 46.0907 159.475 45.176L159.867 45.232V47.528H159.475C159.101 48.704 158.383 49.628 157.319 50.3C156.273 50.9533 154.957 51.28 153.371 51.28ZM171.806 51H168.054L163.882 37.084H167.018L169.342 44.98L169.986 48.564H170.21L171.246 44.7L174.158 37.084H178.022L180.962 44.7L181.998 48.564H182.222L182.866 44.98L185.19 37.084H188.27L184.042 51H180.29L177.238 42.992L176.174 39.576H175.95L174.886 42.992L171.806 51ZM209.235 51H206.239V43.44C206.239 42.04 205.913 41.0413 205.259 40.444C204.606 39.828 203.551 39.52 202.095 39.52C200.994 39.52 200.117 39.716 199.463 40.108C198.81 40.4813 198.334 41.0227 198.035 41.732C197.755 42.4227 197.615 43.2627 197.615 44.252L197.027 44.28L197.167 41.34H197.783C197.951 40.556 198.25 39.8187 198.679 39.128C199.127 38.4373 199.753 37.8773 200.555 37.448C201.358 37.0187 202.347 36.804 203.523 36.804C204.793 36.804 205.847 37.0653 206.687 37.588C207.546 38.092 208.181 38.792 208.591 39.688C209.021 40.5653 209.235 41.5733 209.235 42.712V51ZM197.615 51H194.591V32.24H197.615V51ZM214.979 51H211.955V37.084H214.979V51ZM214.979 35.46H211.955V32.24H214.979V35.46ZM242.391 51H239.395V43.44C239.395 42.0587 239.106 41.06 238.527 40.444C237.948 39.828 236.978 39.52 235.615 39.52C234.14 39.52 233.095 39.9027 232.479 40.668C231.882 41.4147 231.583 42.5627 231.583 44.112L231.051 44.14L230.883 41.396H231.499C231.63 40.5933 231.9 39.8467 232.311 39.156C232.722 38.4653 233.31 37.9053 234.075 37.476C234.84 37.028 235.802 36.804 236.959 36.804C238.172 36.804 239.18 37.056 239.983 37.56C240.786 38.064 241.383 38.7547 241.775 39.632C242.186 40.5093 242.391 41.508 242.391 42.628V51ZM220.803 51H217.779V37.084H220.551V41.452L220.803 41.592V51ZM231.583 51H228.587V43.44C228.587 42.0587 228.298 41.06 227.719 40.444C227.14 39.828 226.179 39.52 224.835 39.52C223.342 39.52 222.296 39.9027 221.699 40.668C221.102 41.4147 220.803 42.5627 220.803 44.112L220.271 44.14L220.131 41.284H220.719C220.85 40.5 221.111 39.772 221.503 39.1C221.895 38.428 222.464 37.8773 223.211 37.448C223.958 37.0187 224.91 36.804 226.067 36.804C227.28 36.804 228.279 37.0653 229.063 37.588C229.847 38.092 230.435 38.7827 230.827 39.66C231.219 40.5373 231.415 41.5267 231.415 42.628H231.583V51ZM256.46 51.28C254.22 51.28 252.484 50.8507 251.252 49.992C250.039 49.1333 249.432 47.9013 249.432 46.296V46.212H252.456V46.436C252.456 47.3507 252.755 47.9853 253.352 48.34C253.968 48.676 255.004 48.844 256.46 48.844C257.823 48.844 258.747 48.704 259.232 48.424C259.736 48.1253 259.988 47.668 259.988 47.052C259.988 46.4733 259.792 46.0627 259.4 45.82C259.027 45.5773 258.336 45.3907 257.328 45.26L253.52 44.756C252.195 44.588 251.159 44.2147 250.412 43.636C249.666 43.0387 249.292 42.152 249.292 40.976C249.292 40.1547 249.535 39.436 250.02 38.82C250.506 38.1853 251.234 37.6907 252.204 37.336C253.175 36.9813 254.37 36.804 255.788 36.804C257.207 36.804 258.42 36.9907 259.428 37.364C260.455 37.7373 261.239 38.2973 261.78 39.044C262.34 39.7907 262.62 40.7147 262.62 41.816V41.9H259.624V41.732C259.624 41.1907 259.512 40.7333 259.288 40.36C259.064 39.9867 258.663 39.7067 258.084 39.52C257.524 39.3147 256.731 39.212 255.704 39.212C254.416 39.212 253.52 39.3613 253.016 39.66C252.512 39.9587 252.26 40.4347 252.26 41.088C252.26 41.6293 252.447 42.0213 252.82 42.264C253.194 42.5067 253.894 42.7027 254.92 42.852L258.14 43.3C259.783 43.5053 260.996 43.9067 261.78 44.504C262.564 45.1013 262.956 45.9787 262.956 47.136C262.956 47.9947 262.686 48.7413 262.144 49.376C261.603 49.992 260.847 50.468 259.876 50.804C258.906 51.1213 257.767 51.28 256.46 51.28ZM272.25 51.28C270.72 51.28 269.366 50.9813 268.19 50.384C267.033 49.768 266.128 48.9187 265.474 47.836C264.84 46.7347 264.522 45.4747 264.522 44.056C264.522 42.6 264.84 41.3307 265.474 40.248C266.128 39.1653 267.033 38.3253 268.19 37.728C269.366 37.112 270.72 36.804 272.25 36.804C273.818 36.804 275.181 37.112 276.338 37.728C277.496 38.3253 278.392 39.1653 279.026 40.248C279.68 41.3307 280.006 42.6 280.006 44.056C280.006 45.4747 279.68 46.7347 279.026 47.836C278.392 48.9187 277.496 49.768 276.338 50.384C275.181 50.9813 273.818 51.28 272.25 51.28ZM272.25 48.592C273.949 48.592 275.172 48.2093 275.918 47.444C276.665 46.66 277.038 45.5307 277.038 44.056C277.038 42.5813 276.665 41.452 275.918 40.668C275.172 39.8653 273.949 39.464 272.25 39.464C270.57 39.464 269.357 39.8653 268.61 40.668C267.864 41.452 267.49 42.5813 267.49 44.056C267.49 45.5307 267.864 46.66 268.61 47.444C269.357 48.2093 270.57 48.592 272.25 48.592ZM306.813 51H303.817V43.44C303.817 42.0587 303.527 41.06 302.949 40.444C302.37 39.828 301.399 39.52 300.037 39.52C298.562 39.52 297.517 39.9027 296.901 40.668C296.303 41.4147 296.005 42.5627 296.005 44.112L295.473 44.14L295.305 41.396H295.921C296.051 40.5933 296.322 39.8467 296.733 39.156C297.143 38.4653 297.731 37.9053 298.497 37.476C299.262 37.028 300.223 36.804 301.381 36.804C302.594 36.804 303.602 37.056 304.405 37.56C305.207 38.064 305.805 38.7547 306.197 39.632C306.607 40.5093 306.813 41.508 306.813 42.628V51ZM285.225 51H282.201V37.084H284.973V41.452L285.225 41.592V51ZM296.005 51H293.009V43.44C293.009 42.0587 292.719 41.06 292.141 40.444C291.562 39.828 290.601 39.52 289.257 39.52C287.763 39.52 286.718 39.9027 286.121 40.668C285.523 41.4147 285.225 42.5627 285.225 44.112L284.693 44.14L284.553 41.284H285.141C285.271 40.5 285.533 39.772 285.925 39.1C286.317 38.428 286.886 37.8773 287.633 37.448C288.379 37.0187 289.331 36.804 290.489 36.804C291.702 36.804 292.701 37.0653 293.485 37.588C294.269 38.092 294.857 38.7827 295.249 39.66C295.641 40.5373 295.837 41.5267 295.837 42.628H296.005V51ZM316.517 51.28C315.005 51.28 313.68 51 312.541 50.44C311.403 49.88 310.516 49.0587 309.881 47.976C309.265 46.8933 308.957 45.5867 308.957 44.056C308.957 42.6 309.265 41.3307 309.881 40.248C310.516 39.1653 311.393 38.3253 312.513 37.728C313.633 37.112 314.949 36.804 316.461 36.804C317.899 36.804 319.159 37.0653 320.241 37.588C321.343 38.092 322.192 38.8387 322.789 39.828C323.405 40.7987 323.713 41.9933 323.713 43.412C323.713 43.6547 323.704 43.888 323.685 44.112C323.667 44.3173 323.639 44.5227 323.601 44.728H310.889V43.048H321.613L320.829 44.084C320.848 43.8973 320.857 43.72 320.857 43.552C320.857 43.3653 320.857 43.1787 320.857 42.992C320.857 41.704 320.484 40.752 319.737 40.136C319.009 39.5013 317.899 39.184 316.405 39.184C314.744 39.184 313.559 39.5667 312.849 40.332C312.14 41.0973 311.785 42.1987 311.785 43.636V44.364C311.785 45.82 312.14 46.9307 312.849 47.696C313.559 48.4613 314.753 48.844 316.433 48.844C317.889 48.844 318.935 48.62 319.569 48.172C320.223 47.7053 320.549 47.0613 320.549 46.24V46.016H323.573V46.268C323.573 47.2573 323.265 48.1347 322.649 48.9C322.052 49.6467 321.221 50.2347 320.157 50.664C319.112 51.0747 317.899 51.28 316.517 51.28ZM332.642 51H328.89L324.718 37.084H327.854L330.178 44.98L330.822 48.564H331.046L332.082 44.7L334.994 37.084H338.858L341.798 44.7L342.834 48.564H343.058L343.702 44.98L346.026 37.084H349.106L344.878 51H341.126L338.074 42.992L337.01 39.576H336.786L335.722 42.992L332.642 51ZM365.286 51H362.29V43.44C362.29 42.04 361.964 41.0413 361.31 40.444C360.657 39.828 359.602 39.52 358.146 39.52C357.045 39.52 356.168 39.716 355.514 40.108C354.861 40.4813 354.385 41.0227 354.086 41.732C353.806 42.4227 353.666 43.2627 353.666 44.252L353.078 44.28L353.218 41.34H353.834C354.002 40.556 354.301 39.8187 354.73 39.128C355.178 38.4373 355.804 37.8773 356.606 37.448C357.409 37.0187 358.398 36.804 359.574 36.804C360.844 36.804 361.898 37.0653 362.738 37.588C363.597 38.092 364.232 38.792 364.642 39.688C365.072 40.5653 365.286 41.5733 365.286 42.712V51ZM353.666 51H350.642V32.24H353.666V51ZM375.005 51.28C373.493 51.28 372.168 51 371.029 50.44C369.891 49.88 369.004 49.0587 368.369 47.976C367.753 46.8933 367.445 45.5867 367.445 44.056C367.445 42.6 367.753 41.3307 368.369 40.248C369.004 39.1653 369.881 38.3253 371.001 37.728C372.121 37.112 373.437 36.804 374.949 36.804C376.387 36.804 377.647 37.0653 378.729 37.588C379.831 38.092 380.68 38.8387 381.277 39.828C381.893 40.7987 382.201 41.9933 382.201 43.412C382.201 43.6547 382.192 43.888 382.173 44.112C382.155 44.3173 382.127 44.5227 382.089 44.728H369.377V43.048H380.101L379.317 44.084C379.336 43.8973 379.345 43.72 379.345 43.552C379.345 43.3653 379.345 43.1787 379.345 42.992C379.345 41.704 378.972 40.752 378.225 40.136C377.497 39.5013 376.387 39.184 374.893 39.184C373.232 39.184 372.047 39.5667 371.337 40.332C370.628 41.0973 370.273 42.1987 370.273 43.636V44.364C370.273 45.82 370.628 46.9307 371.337 47.696C372.047 48.4613 373.241 48.844 374.921 48.844C376.377 48.844 377.423 48.62 378.057 48.172C378.711 47.7053 379.037 47.0613 379.037 46.24V46.016H382.061V46.268C382.061 47.2573 381.753 48.1347 381.137 48.9C380.54 49.6467 379.709 50.2347 378.645 50.664C377.6 51.0747 376.387 51.28 375.005 51.28ZM387.49 51H384.466V37.084H387.238V41.032L387.49 41.172V51ZM387.49 43.188H386.818V40.836H387.434C387.565 40.0707 387.826 39.3893 388.218 38.792C388.61 38.176 389.133 37.6907 389.786 37.336C390.458 36.9813 391.27 36.804 392.222 36.804C393.286 36.804 394.154 37.028 394.826 37.476C395.498 37.924 395.984 38.5213 396.282 39.268C396.6 40.0147 396.758 40.8267 396.758 41.704V43.524H393.762V42.292C393.762 41.284 393.538 40.5467 393.09 40.08C392.642 39.6133 391.896 39.38 390.85 39.38C389.656 39.38 388.797 39.7067 388.274 40.36C387.752 41.0133 387.49 41.956 387.49 43.188ZM405.658 51.28C404.146 51.28 402.82 51 401.682 50.44C400.543 49.88 399.656 49.0587 399.022 47.976C398.406 46.8933 398.098 45.5867 398.098 44.056C398.098 42.6 398.406 41.3307 399.022 40.248C399.656 39.1653 400.534 38.3253 401.654 37.728C402.774 37.112 404.09 36.804 405.602 36.804C407.039 36.804 408.299 37.0653 409.382 37.588C410.483 38.092 411.332 38.8387 411.93 39.828C412.546 40.7987 412.854 41.9933 412.854 43.412C412.854 43.6547 412.844 43.888 412.826 44.112C412.807 44.3173 412.779 44.5227 412.742 44.728H400.03V43.048H410.754L409.97 44.084C409.988 43.8973 409.998 43.72 409.998 43.552C409.998 43.3653 409.998 43.1787 409.998 42.992C409.998 41.704 409.624 40.752 408.878 40.136C408.15 39.5013 407.039 39.184 405.546 39.184C403.884 39.184 402.699 39.5667 401.99 40.332C401.28 41.0973 400.926 42.1987 400.926 43.636V44.364C400.926 45.82 401.28 46.9307 401.99 47.696C402.699 48.4613 403.894 48.844 405.574 48.844C407.03 48.844 408.075 48.62 408.71 48.172C409.363 47.7053 409.69 47.0613 409.69 46.24V46.016H412.714V46.268C412.714 47.2573 412.406 48.1347 411.79 48.9C411.192 49.6467 410.362 50.2347 409.298 50.664C408.252 51.0747 407.039 51.28 405.658 51.28ZM418.367 51H414.559V46.66H418.367V51ZM423.863 51H420.055V46.66H423.863V51ZM429.359 51H425.551V46.66H429.359V51Z" fill="black"/>
</svg>
