<svg width="414" height="121" viewBox="0 0 414 121" fill="none" xmlns="http://www.w3.org/2000/svg">
<path d="M83.1864 81.8272L83.2997 80.9562H84.1781L373.5 80.9562C395.593 80.9562 412.5 64.5663 412.5 42.5C412.5 20.4105 395.569 3 373.5 3.00002L373.494 2.99998L40.9807 1C40.9795 1 40.9784 1 40.9772 1C18.9042 1.00187 1 18.8951 1 40.9781C1 63.0508 18.9061 80.9562 40.9922 80.9562H48.6416H49.5834L49.6398 81.8963L48.6416 81.9562C49.6398 81.8963 49.6398 81.8969 49.6399 81.8975L49.64 81.8992L49.6402 81.9039L49.641 81.9189L49.6435 81.9703C49.6454 82.014 49.6478 82.0767 49.6499 82.1577C49.6543 82.3197 49.6578 82.5547 49.6551 82.8579C49.6498 83.4641 49.6198 84.3429 49.5224 85.4534C49.3274 87.674 48.8624 90.8236 47.7836 94.5745C45.748 101.652 41.5296 110.862 32.8375 120C34.1277 119.998 35.9115 119.951 38.0428 119.782C42.5895 119.422 48.6942 118.51 54.9554 116.306C67.4474 111.909 80.5097 102.409 83.1864 81.8272Z" fill="white" stroke="black" stroke-width="2"/>
<path d="M43.424 51H40.4V32.24H43.424V51ZM65.6534 51H62.6574V43.44C62.6574 42.04 62.3307 41.0413 61.6774 40.444C61.024 39.828 59.9694 39.52 58.5134 39.52C57.412 39.52 56.5347 39.716 55.8814 40.108C55.228 40.4813 54.752 41.0227 54.4534 41.732C54.1734 42.4227 54.0334 43.2627 54.0334 44.252L53.4454 44.28L53.5854 41.34H54.2014C54.3694 40.556 54.668 39.8187 55.0974 39.128C55.5454 38.4373 56.1707 37.8773 56.9734 37.448C57.776 37.0187 58.7654 36.804 59.9414 36.804C61.2107 36.804 62.2654 37.0653 63.1054 37.588C63.964 38.092 64.5987 38.792 65.0094 39.688C65.4387 40.5653 65.6534 41.5733 65.6534 42.712V51ZM54.0334 51H51.0094V32.24H54.0334V51ZM71.3967 51H68.3727V37.084H71.3967V51ZM71.3967 35.46H68.3727V32.24H71.3967V35.46ZM81.5049 56.04C80.1235 56.04 78.9102 55.8253 77.8649 55.396C76.8195 54.9853 75.9982 54.388 75.4009 53.604C74.8222 52.82 74.5329 51.868 74.5329 50.748H77.5289C77.5289 51.42 77.6689 51.9613 77.9489 52.372C78.2289 52.7827 78.6675 53.072 79.2649 53.24C79.8809 53.4267 80.6835 53.52 81.6729 53.52C82.7369 53.52 83.5769 53.3987 84.1929 53.156C84.8275 52.932 85.2849 52.5307 85.5649 51.952C85.8449 51.3733 85.9849 50.5707 85.9849 49.544V41.396L86.2089 41.2V37.084H88.9809V49.376C88.9809 50.9253 88.6729 52.1853 88.0569 53.156C87.4409 54.1453 86.5729 54.8733 85.4529 55.34C84.3329 55.8067 83.0169 56.04 81.5049 56.04ZM80.2449 49.74C78.8635 49.74 77.6782 49.4693 76.6889 48.928C75.7182 48.3867 74.9622 47.6307 74.4209 46.66C73.8982 45.6893 73.6369 44.56 73.6369 43.272C73.6369 41.984 73.9075 40.8547 74.4489 39.884C75.0089 38.9133 75.7929 38.1573 76.8009 37.616C77.8275 37.0747 79.0409 36.804 80.4409 36.804C81.8969 36.804 83.1289 37.1307 84.1369 37.784C85.1635 38.4187 85.7982 39.3427 86.0409 40.556H86.6849L86.5169 42.992H85.9849C85.9849 42.208 85.7982 41.5547 85.4249 41.032C85.0515 40.4907 84.5195 40.0893 83.8289 39.828C83.1382 39.5667 82.2982 39.436 81.3089 39.436C80.3569 39.436 79.5262 39.5573 78.8169 39.8C78.1262 40.0427 77.5942 40.444 77.2209 41.004C76.8662 41.5453 76.6889 42.3013 76.6889 43.272C76.6889 44.224 76.8662 44.98 77.2209 45.54C77.5755 46.1 78.0889 46.5107 78.7609 46.772C79.4515 47.0147 80.2729 47.136 81.2249 47.136C82.7555 47.136 83.9315 46.8187 84.7529 46.184C85.5742 45.5493 85.9849 44.616 85.9849 43.384H86.5169V46.128H85.7889C85.5462 47.192 84.9582 48.06 84.0249 48.732C83.0915 49.404 81.8315 49.74 80.2449 49.74ZM106.423 51H103.427V43.44C103.427 42.04 103.1 41.0413 102.447 40.444C101.794 39.828 100.739 39.52 99.2829 39.52C98.1816 39.52 97.3042 39.716 96.6509 40.108C95.9976 40.4813 95.5216 41.0227 95.2229 41.732C94.9429 42.4227 94.8029 43.2627 94.8029 44.252L94.2149 44.28L94.3549 41.34H94.9709C95.1389 40.556 95.4376 39.8187 95.8669 39.128C96.3149 38.4373 96.9402 37.8773 97.7429 37.448C98.5456 37.0187 99.5349 36.804 100.711 36.804C101.98 36.804 103.035 37.0653 103.875 37.588C104.734 38.092 105.368 38.792 105.779 39.688C106.208 40.5653 106.423 41.5733 106.423 42.712V51ZM94.8029 51H91.7789V32.24H94.8029V51ZM112.166 51H109.142V32.24H112.166V51ZM117.206 55.76H115.218V53.016H117.934C118.55 53.016 119.008 52.9133 119.306 52.708C119.624 52.5213 119.885 52.1947 120.09 51.728L120.958 49.852L120.622 51.392L113.566 37.084H116.954L120.51 44.476L121.882 47.808H122.106L123.422 44.448L126.698 37.084H130.03L122.778 52.512C122.405 53.3333 121.966 53.9773 121.462 54.444C120.958 54.9293 120.361 55.2653 119.67 55.452C118.98 55.6573 118.158 55.76 117.206 55.76ZM142.875 51.28C140.635 51.28 138.899 50.8507 137.667 49.992C136.453 49.1333 135.847 47.9013 135.847 46.296V46.212H138.871V46.436C138.871 47.3507 139.169 47.9853 139.767 48.34C140.383 48.676 141.419 48.844 142.875 48.844C144.237 48.844 145.161 48.704 145.647 48.424C146.151 48.1253 146.403 47.668 146.403 47.052C146.403 46.4733 146.207 46.0627 145.815 45.82C145.441 45.5773 144.751 45.3907 143.743 45.26L139.935 44.756C138.609 44.588 137.573 44.2147 136.827 43.636C136.08 43.0387 135.707 42.152 135.707 40.976C135.707 40.1547 135.949 39.436 136.435 38.82C136.92 38.1853 137.648 37.6907 138.619 37.336C139.589 36.9813 140.784 36.804 142.203 36.804C143.621 36.804 144.835 36.9907 145.843 37.364C146.869 37.7373 147.653 38.2973 148.195 39.044C148.755 39.7907 149.035 40.7147 149.035 41.816V41.9H146.039V41.732C146.039 41.1907 145.927 40.7333 145.703 40.36C145.479 39.9867 145.077 39.7067 144.499 39.52C143.939 39.3147 143.145 39.212 142.119 39.212C140.831 39.212 139.935 39.3613 139.431 39.66C138.927 39.9587 138.675 40.4347 138.675 41.088C138.675 41.6293 138.861 42.0213 139.235 42.264C139.608 42.5067 140.308 42.7027 141.335 42.852L144.555 43.3C146.197 43.5053 147.411 43.9067 148.195 44.504C148.979 45.1013 149.371 45.9787 149.371 47.136C149.371 47.9947 149.1 48.7413 148.559 49.376C148.017 49.992 147.261 50.468 146.291 50.804C145.32 51.1213 144.181 51.28 142.875 51.28ZM157.348 51.28C156.042 51.28 154.959 51.0187 154.1 50.496C153.242 49.9733 152.598 49.2733 152.168 48.396C151.739 47.5187 151.524 46.5387 151.524 45.456V37.084H154.52V44.644C154.52 45.932 154.838 46.912 155.472 47.584C156.126 48.2373 157.19 48.564 158.664 48.564C160.214 48.564 161.343 48.1813 162.052 47.416C162.78 46.632 163.144 45.484 163.144 43.972L163.676 43.944L163.844 46.688H163.2C163.07 47.472 162.771 48.2093 162.304 48.9C161.838 49.5907 161.194 50.16 160.372 50.608C159.57 51.056 158.562 51.28 157.348 51.28ZM166.168 51H163.396V46.632L163.144 46.492V37.084H166.168V51ZM176.224 56.04C174.842 56.04 173.629 55.8253 172.584 55.396C171.538 54.9853 170.717 54.388 170.12 53.604C169.541 52.82 169.252 51.868 169.252 50.748H172.248C172.248 51.42 172.388 51.9613 172.668 52.372C172.948 52.7827 173.386 53.072 173.984 53.24C174.6 53.4267 175.402 53.52 176.392 53.52C177.456 53.52 178.296 53.3987 178.912 53.156C179.546 52.932 180.004 52.5307 180.284 51.952C180.564 51.3733 180.704 50.5707 180.704 49.544V41.396L180.928 41.2V37.084H183.7V49.376C183.7 50.9253 183.392 52.1853 182.776 53.156C182.16 54.1453 181.292 54.8733 180.172 55.34C179.052 55.8067 177.736 56.04 176.224 56.04ZM174.964 49.74C173.582 49.74 172.397 49.4693 171.408 48.928C170.437 48.3867 169.681 47.6307 169.14 46.66C168.617 45.6893 168.356 44.56 168.356 43.272C168.356 41.984 168.626 40.8547 169.168 39.884C169.728 38.9133 170.512 38.1573 171.52 37.616C172.546 37.0747 173.76 36.804 175.16 36.804C176.616 36.804 177.848 37.1307 178.856 37.784C179.882 38.4187 180.517 39.3427 180.76 40.556H181.404L181.236 42.992H180.704C180.704 42.208 180.517 41.5547 180.144 41.032C179.77 40.4907 179.238 40.0893 178.548 39.828C177.857 39.5667 177.017 39.436 176.028 39.436C175.076 39.436 174.245 39.5573 173.536 39.8C172.845 40.0427 172.313 40.444 171.94 41.004C171.585 41.5453 171.408 42.3013 171.408 43.272C171.408 44.224 171.585 44.98 171.94 45.54C172.294 46.1 172.808 46.5107 173.48 46.772C174.17 47.0147 174.992 47.136 175.944 47.136C177.474 47.136 178.65 46.8187 179.472 46.184C180.293 45.5493 180.704 44.616 180.704 43.384H181.236V46.128H180.508C180.265 47.192 179.677 48.06 178.744 48.732C177.81 49.404 176.55 49.74 174.964 49.74ZM193.806 56.04C192.424 56.04 191.211 55.8253 190.166 55.396C189.12 54.9853 188.299 54.388 187.702 53.604C187.123 52.82 186.834 51.868 186.834 50.748H189.83C189.83 51.42 189.97 51.9613 190.25 52.372C190.53 52.7827 190.968 53.072 191.566 53.24C192.182 53.4267 192.984 53.52 193.974 53.52C195.038 53.52 195.878 53.3987 196.494 53.156C197.128 52.932 197.586 52.5307 197.866 51.952C198.146 51.3733 198.286 50.5707 198.286 49.544V41.396L198.51 41.2V37.084H201.282V49.376C201.282 50.9253 200.974 52.1853 200.358 53.156C199.742 54.1453 198.874 54.8733 197.754 55.34C196.634 55.8067 195.318 56.04 193.806 56.04ZM192.546 49.74C191.164 49.74 189.979 49.4693 188.99 48.928C188.019 48.3867 187.263 47.6307 186.722 46.66C186.199 45.6893 185.938 44.56 185.938 43.272C185.938 41.984 186.208 40.8547 186.75 39.884C187.31 38.9133 188.094 38.1573 189.102 37.616C190.128 37.0747 191.342 36.804 192.742 36.804C194.198 36.804 195.43 37.1307 196.438 37.784C197.464 38.4187 198.099 39.3427 198.342 40.556H198.986L198.818 42.992H198.286C198.286 42.208 198.099 41.5547 197.726 41.032C197.352 40.4907 196.82 40.0893 196.13 39.828C195.439 39.5667 194.599 39.436 193.61 39.436C192.658 39.436 191.827 39.5573 191.118 39.8C190.427 40.0427 189.895 40.444 189.522 41.004C189.167 41.5453 188.99 42.3013 188.99 43.272C188.99 44.224 189.167 44.98 189.522 45.54C189.876 46.1 190.39 46.5107 191.062 46.772C191.752 47.0147 192.574 47.136 193.526 47.136C195.056 47.136 196.232 46.8187 197.054 46.184C197.875 45.5493 198.286 44.616 198.286 43.384H198.818V46.128H198.09C197.847 47.192 197.259 48.06 196.326 48.732C195.392 49.404 194.132 49.74 192.546 49.74ZM211.08 51.28C209.568 51.28 208.242 51 207.104 50.44C205.965 49.88 205.078 49.0587 204.444 47.976C203.828 46.8933 203.52 45.5867 203.52 44.056C203.52 42.6 203.828 41.3307 204.444 40.248C205.078 39.1653 205.956 38.3253 207.076 37.728C208.196 37.112 209.512 36.804 211.024 36.804C212.461 36.804 213.721 37.0653 214.804 37.588C215.905 38.092 216.754 38.8387 217.352 39.828C217.968 40.7987 218.276 41.9933 218.276 43.412C218.276 43.6547 218.266 43.888 218.248 44.112C218.229 44.3173 218.201 44.5227 218.164 44.728H205.452V43.048H216.176L215.392 44.084C215.41 43.8973 215.42 43.72 215.42 43.552C215.42 43.3653 215.42 43.1787 215.42 42.992C215.42 41.704 215.046 40.752 214.3 40.136C213.572 39.5013 212.461 39.184 210.968 39.184C209.306 39.184 208.121 39.5667 207.412 40.332C206.702 41.0973 206.348 42.1987 206.348 43.636V44.364C206.348 45.82 206.702 46.9307 207.412 47.696C208.121 48.4613 209.316 48.844 210.996 48.844C212.452 48.844 213.497 48.62 214.132 48.172C214.785 47.7053 215.112 47.0613 215.112 46.24V46.016H218.136V46.268C218.136 47.2573 217.828 48.1347 217.212 48.9C216.614 49.6467 215.784 50.2347 214.72 50.664C213.674 51.0747 212.461 51.28 211.08 51.28ZM227.121 51.28C224.881 51.28 223.145 50.8507 221.913 49.992C220.699 49.1333 220.093 47.9013 220.093 46.296V46.212H223.117V46.436C223.117 47.3507 223.415 47.9853 224.013 48.34C224.629 48.676 225.665 48.844 227.121 48.844C228.483 48.844 229.407 48.704 229.893 48.424C230.397 48.1253 230.649 47.668 230.649 47.052C230.649 46.4733 230.453 46.0627 230.061 45.82C229.687 45.5773 228.997 45.3907 227.989 45.26L224.181 44.756C222.855 44.588 221.819 44.2147 221.073 43.636C220.326 43.0387 219.953 42.152 219.953 40.976C219.953 40.1547 220.195 39.436 220.681 38.82C221.166 38.1853 221.894 37.6907 222.865 37.336C223.835 36.9813 225.03 36.804 226.449 36.804C227.867 36.804 229.081 36.9907 230.089 37.364C231.115 37.7373 231.899 38.2973 232.441 39.044C233.001 39.7907 233.281 40.7147 233.281 41.816V41.9H230.285V41.732C230.285 41.1907 230.173 40.7333 229.949 40.36C229.725 39.9867 229.323 39.7067 228.745 39.52C228.185 39.3147 227.391 39.212 226.365 39.212C225.077 39.212 224.181 39.3613 223.677 39.66C223.173 39.9587 222.921 40.4347 222.921 41.088C222.921 41.6293 223.107 42.0213 223.481 42.264C223.854 42.5067 224.554 42.7027 225.581 42.852L228.801 43.3C230.443 43.5053 231.657 43.9067 232.441 44.504C233.225 45.1013 233.617 45.9787 233.617 47.136C233.617 47.9947 233.346 48.7413 232.805 49.376C232.263 49.992 231.507 50.468 230.537 50.804C229.566 51.1213 228.427 51.28 227.121 51.28ZM244.926 51H241.734C240.241 51 239.056 50.636 238.178 49.908C237.32 49.18 236.89 47.976 236.89 46.296V34.032H239.886V46.128C239.886 46.9867 240.092 47.5653 240.502 47.864C240.913 48.144 241.548 48.284 242.406 48.284H244.926V51ZM244.926 39.604H234.538V37.084H244.926V39.604ZM253.843 55.76H251.855V53.016H254.571C255.187 53.016 255.644 52.9133 255.943 52.708C256.26 52.5213 256.522 52.1947 256.727 51.728L257.595 49.852L257.259 51.392L250.203 37.084H253.591L257.147 44.476L258.519 47.808H258.743L260.059 44.448L263.335 37.084H266.667L259.415 52.512C259.042 53.3333 258.603 53.9773 258.099 54.444C257.595 54.9293 256.998 55.2653 256.307 55.452C255.616 55.6573 254.795 55.76 253.843 55.76ZM275.258 51.28C273.727 51.28 272.374 50.9813 271.198 50.384C270.041 49.768 269.135 48.9187 268.482 47.836C267.847 46.7347 267.53 45.4747 267.53 44.056C267.53 42.6 267.847 41.3307 268.482 40.248C269.135 39.1653 270.041 38.3253 271.198 37.728C272.374 37.112 273.727 36.804 275.258 36.804C276.826 36.804 278.189 37.112 279.346 37.728C280.503 38.3253 281.399 39.1653 282.034 40.248C282.687 41.3307 283.014 42.6 283.014 44.056C283.014 45.4747 282.687 46.7347 282.034 47.836C281.399 48.9187 280.503 49.768 279.346 50.384C278.189 50.9813 276.826 51.28 275.258 51.28ZM275.258 48.592C276.957 48.592 278.179 48.2093 278.926 47.444C279.673 46.66 280.046 45.5307 280.046 44.056C280.046 42.5813 279.673 41.452 278.926 40.668C278.179 39.8653 276.957 39.464 275.258 39.464C273.578 39.464 272.365 39.8653 271.618 40.668C270.871 41.452 270.498 42.5813 270.498 44.056C270.498 45.5307 270.871 46.66 271.618 47.444C272.365 48.2093 273.578 48.592 275.258 48.592ZM291.005 51.28C289.698 51.28 288.615 51.0187 287.757 50.496C286.898 49.9733 286.254 49.2733 285.825 48.396C285.395 47.5187 285.181 46.5387 285.181 45.456V37.084H288.177V44.644C288.177 45.932 288.494 46.912 289.129 47.584C289.782 48.2373 290.846 48.564 292.321 48.564C293.87 48.564 294.999 48.1813 295.709 47.416C296.437 46.632 296.801 45.484 296.801 43.972L297.333 43.944L297.501 46.688H296.857C296.726 47.472 296.427 48.2093 295.961 48.9C295.494 49.5907 294.85 50.16 294.029 50.608C293.226 51.056 292.218 51.28 291.005 51.28ZM299.825 51H297.053V46.632L296.801 46.492V37.084H299.825V51ZM305.82 51H302.012V46.66H305.82V51ZM311.316 51H307.508V46.66H311.316V51ZM316.812 51H313.004V46.66H316.812V51Z" fill="black"/>
</svg>
