<svg width="441" height="121" viewBox="0 0 441 121" fill="none" xmlns="http://www.w3.org/2000/svg">
<path d="M68.7248 81.8491L68.821 80.9562H69.719L357.382 80.9562C375.418 80.9562 389.512 64.7496 389.512 42.5C389.512 20.2247 375.397 3.00002 357.382 3.00003L357.376 2.99999L33.9415 1.00002C33.9407 1.00002 33.9399 1.00002 33.9391 1.00002C15.9202 1.00163 1 18.7103 1 40.9781C1 63.2354 15.9216 80.9562 33.951 80.9562H40.2865H41.2381L41.2853 81.9066L40.2865 81.9562C41.2853 81.9066 41.2853 81.907 41.2854 81.9076L41.2854 81.9091L41.2856 81.9135L41.2863 81.9277L41.2882 81.9778C41.2898 82.0206 41.2917 82.0823 41.2935 82.1623C41.2971 82.3223 41.2999 82.5554 41.2978 82.8564C41.2934 83.4584 41.2687 84.3327 41.1883 85.4384C41.0276 87.6495 40.6438 90.7889 39.7527 94.5298C38.068 101.603 34.5675 110.834 27.3274 119.999C28.3761 119.994 29.7953 119.944 31.4785 119.784C35.2216 119.426 40.2466 118.519 45.3997 116.329C55.6457 111.974 66.4985 102.517 68.7248 81.8491Z" fill="white" stroke="black" stroke-width="2"/>
<path d="M49.9846 52H45.5326L40.5766 33.24H43.9366L46.9886 45.112L47.8286 49.088H48.0526L49.0606 45.112L52.8406 33.24H57.2366L61.2686 45.112L62.3326 49.088H62.5566L63.3406 45.112L66.1406 33.24H69.4446L64.7406 52H60.2886L56.5086 41.08L55.1366 36.264H54.8846L53.5406 41.08L49.9846 52ZM78.3372 52.28C76.8065 52.28 75.4532 51.9813 74.2772 51.384C73.1199 50.768 72.2145 49.9187 71.5612 48.836C70.9265 47.7347 70.6092 46.4747 70.6092 45.056C70.6092 43.6 70.9265 42.3307 71.5612 41.248C72.2145 40.1653 73.1199 39.3253 74.2772 38.728C75.4532 38.112 76.8065 37.804 78.3372 37.804C79.9052 37.804 81.2679 38.112 82.4252 38.728C83.5825 39.3253 84.4785 40.1653 85.1132 41.248C85.7665 42.3307 86.0932 43.6 86.0932 45.056C86.0932 46.4747 85.7665 47.7347 85.1132 48.836C84.4785 49.9187 83.5825 50.768 82.4252 51.384C81.2679 51.9813 79.9052 52.28 78.3372 52.28ZM78.3372 49.592C80.0359 49.592 81.2585 49.2093 82.0052 48.444C82.7519 47.66 83.1252 46.5307 83.1252 45.056C83.1252 43.5813 82.7519 42.452 82.0052 41.668C81.2585 40.8653 80.0359 40.464 78.3372 40.464C76.6572 40.464 75.4439 40.8653 74.6972 41.668C73.9505 42.452 73.5772 43.5813 73.5772 45.056C73.5772 46.5307 73.9505 47.66 74.6972 48.444C75.4439 49.2093 76.6572 49.592 78.3372 49.592ZM94.9517 52H91.1997L87.0277 38.084H90.1637L92.4877 45.98L93.1317 49.564H93.3557L94.3917 45.7L97.3037 38.084H101.168L104.108 45.7L105.144 49.564H105.368L106.012 45.98L108.336 38.084H111.416L107.188 52H103.436L100.384 43.992L99.3197 40.576H99.0957L98.0317 43.992L94.9517 52ZM116.2 52H112.392V47.66H116.2V52ZM126.257 52H123.233V33.24H126.481L134.881 44.216L137.317 47.716H137.541L137.401 44.328V33.24H140.425V52H137.177L128.721 41.052L126.369 37.748H126.145L126.257 40.996V52ZM146.245 52H143.221V38.084H146.245V52ZM146.245 36.46H143.221V33.24H146.245V36.46ZM156.074 52.28C154.543 52.28 153.208 51.9813 152.07 51.384C150.931 50.768 150.044 49.9187 149.41 48.836C148.794 47.7347 148.486 46.4747 148.486 45.056C148.486 43.6 148.794 42.3307 149.41 41.248C150.044 40.1653 150.931 39.3253 152.07 38.728C153.208 38.112 154.543 37.804 156.074 37.804C157.474 37.804 158.715 38.0467 159.798 38.532C160.88 39.0173 161.73 39.6987 162.346 40.576C162.98 41.4347 163.298 42.452 163.298 43.628V43.908H160.302V43.74C160.302 42.6573 159.928 41.8547 159.182 41.332C158.435 40.7907 157.38 40.52 156.018 40.52C154.45 40.52 153.302 40.9027 152.574 41.668C151.846 42.4147 151.482 43.544 151.482 45.056C151.482 46.5493 151.846 47.6787 152.574 48.444C153.302 49.1907 154.45 49.564 156.018 49.564C157.38 49.564 158.435 49.3027 159.182 48.78C159.928 48.2387 160.302 47.4267 160.302 46.344V46.148H163.298V46.456C163.298 47.6133 162.98 48.6307 162.346 49.508C161.73 50.3853 160.88 51.0667 159.798 51.552C158.715 52.0373 157.474 52.28 156.074 52.28ZM172.534 52.28C171.022 52.28 169.696 52 168.558 51.44C167.419 50.88 166.532 50.0587 165.898 48.976C165.282 47.8933 164.974 46.5867 164.974 45.056C164.974 43.6 165.282 42.3307 165.898 41.248C166.532 40.1653 167.41 39.3253 168.53 38.728C169.65 38.112 170.966 37.804 172.478 37.804C173.915 37.804 175.175 38.0653 176.258 38.588C177.359 39.092 178.208 39.8387 178.806 40.828C179.422 41.7987 179.73 42.9933 179.73 44.412C179.73 44.6547 179.72 44.888 179.702 45.112C179.683 45.3173 179.655 45.5227 179.618 45.728H166.906V44.048H177.63L176.846 45.084C176.864 44.8973 176.874 44.72 176.874 44.552C176.874 44.3653 176.874 44.1787 176.874 43.992C176.874 42.704 176.5 41.752 175.754 41.136C175.026 40.5013 173.915 40.184 172.422 40.184C170.76 40.184 169.575 40.5667 168.866 41.332C168.156 42.0973 167.802 43.1987 167.802 44.636V45.364C167.802 46.82 168.156 47.9307 168.866 48.696C169.575 49.4613 170.77 49.844 172.45 49.844C173.906 49.844 174.951 49.62 175.586 49.172C176.239 48.7053 176.566 48.0613 176.566 47.24V47.016H179.59V47.268C179.59 48.2573 179.282 49.1347 178.666 49.9C178.068 50.6467 177.238 51.2347 176.174 51.664C175.128 52.0747 173.915 52.28 172.534 52.28ZM195.908 52H192.716C191.223 52 190.037 51.636 189.16 50.908C188.301 50.18 187.872 48.976 187.872 47.296V35.032H190.868V47.128C190.868 47.9867 191.073 48.5653 191.484 48.864C191.895 49.144 192.529 49.284 193.388 49.284H195.908V52ZM195.908 40.604H185.52V38.084H195.908V40.604ZM204.911 52.28C203.381 52.28 202.027 51.9813 200.851 51.384C199.694 50.768 198.789 49.9187 198.135 48.836C197.501 47.7347 197.183 46.4747 197.183 45.056C197.183 43.6 197.501 42.3307 198.135 41.248C198.789 40.1653 199.694 39.3253 200.851 38.728C202.027 38.112 203.381 37.804 204.911 37.804C206.479 37.804 207.842 38.112 208.999 38.728C210.157 39.3253 211.053 40.1653 211.687 41.248C212.341 42.3307 212.667 43.6 212.667 45.056C212.667 46.4747 212.341 47.7347 211.687 48.836C211.053 49.9187 210.157 50.768 208.999 51.384C207.842 51.9813 206.479 52.28 204.911 52.28ZM204.911 49.592C206.61 49.592 207.833 49.2093 208.579 48.444C209.326 47.66 209.699 46.5307 209.699 45.056C209.699 43.5813 209.326 42.452 208.579 41.668C207.833 40.8653 206.61 40.464 204.911 40.464C203.231 40.464 202.018 40.8653 201.271 41.668C200.525 42.452 200.151 43.5813 200.151 45.056C200.151 46.5307 200.525 47.66 201.271 48.444C202.018 49.2093 203.231 49.592 204.911 49.592ZM244.259 52H241.263V44.44C241.263 43.0587 240.974 42.06 240.395 41.444C239.816 40.828 238.846 40.52 237.483 40.52C236.008 40.52 234.963 40.9027 234.347 41.668C233.75 42.4147 233.451 43.5627 233.451 45.112L232.919 45.14L232.751 42.396H233.367C233.498 41.5933 233.768 40.8467 234.179 40.156C234.59 39.4653 235.178 38.9053 235.943 38.476C236.708 38.028 237.67 37.804 238.827 37.804C240.04 37.804 241.048 38.056 241.851 38.56C242.654 39.064 243.251 39.7547 243.643 40.632C244.054 41.5093 244.259 42.508 244.259 43.628V52ZM222.671 52H219.647V38.084H222.419V42.452L222.671 42.592V52ZM233.451 52H230.455V44.44C230.455 43.0587 230.166 42.06 229.587 41.444C229.008 40.828 228.047 40.52 226.703 40.52C225.21 40.52 224.164 40.9027 223.567 41.668C222.97 42.4147 222.671 43.5627 222.671 45.112L222.139 45.14L221.999 42.284H222.587C222.718 41.5 222.979 40.772 223.371 40.1C223.763 39.428 224.332 38.8773 225.079 38.448C225.826 38.0187 226.778 37.804 227.935 37.804C229.148 37.804 230.147 38.0653 230.931 38.588C231.715 39.092 232.303 39.7827 232.695 40.66C233.087 41.5373 233.283 42.5267 233.283 43.628H233.451V52ZM253.963 52.28C252.451 52.28 251.126 52 249.987 51.44C248.849 50.88 247.962 50.0587 247.327 48.976C246.711 47.8933 246.403 46.5867 246.403 45.056C246.403 43.6 246.711 42.3307 247.327 41.248C247.962 40.1653 248.839 39.3253 249.959 38.728C251.079 38.112 252.395 37.804 253.907 37.804C255.345 37.804 256.605 38.0653 257.687 38.588C258.789 39.092 259.638 39.8387 260.235 40.828C260.851 41.7987 261.159 42.9933 261.159 44.412C261.159 44.6547 261.15 44.888 261.131 45.112C261.113 45.3173 261.085 45.5227 261.047 45.728H248.335V44.048H259.059L258.275 45.084C258.294 44.8973 258.303 44.72 258.303 44.552C258.303 44.3653 258.303 44.1787 258.303 43.992C258.303 42.704 257.93 41.752 257.183 41.136C256.455 40.5013 255.345 40.184 253.851 40.184C252.19 40.184 251.005 40.5667 250.295 41.332C249.586 42.0973 249.231 43.1987 249.231 44.636V45.364C249.231 46.82 249.586 47.9307 250.295 48.696C251.005 49.4613 252.199 49.844 253.879 49.844C255.335 49.844 256.381 49.62 257.015 49.172C257.669 48.7053 257.995 48.0613 257.995 47.24V47.016H261.019V47.268C261.019 48.2573 260.711 49.1347 260.095 49.9C259.498 50.6467 258.667 51.2347 257.603 51.664C256.558 52.0747 255.345 52.28 253.963 52.28ZM270.424 52.28C268.912 52.28 267.587 52 266.448 51.44C265.31 50.88 264.423 50.0587 263.788 48.976C263.172 47.8933 262.864 46.5867 262.864 45.056C262.864 43.6 263.172 42.3307 263.788 41.248C264.423 40.1653 265.3 39.3253 266.42 38.728C267.54 38.112 268.856 37.804 270.368 37.804C271.806 37.804 273.066 38.0653 274.148 38.588C275.25 39.092 276.099 39.8387 276.696 40.828C277.312 41.7987 277.62 42.9933 277.62 44.412C277.62 44.6547 277.611 44.888 277.592 45.112C277.574 45.3173 277.546 45.5227 277.508 45.728H264.796V44.048H275.52L274.736 45.084C274.755 44.8973 274.764 44.72 274.764 44.552C274.764 44.3653 274.764 44.1787 274.764 43.992C274.764 42.704 274.391 41.752 273.644 41.136C272.916 40.5013 271.806 40.184 270.312 40.184C268.651 40.184 267.466 40.5667 266.756 41.332C266.047 42.0973 265.692 43.1987 265.692 44.636V45.364C265.692 46.82 266.047 47.9307 266.756 48.696C267.466 49.4613 268.66 49.844 270.34 49.844C271.796 49.844 272.842 49.62 273.476 49.172C274.13 48.7053 274.456 48.0613 274.456 47.24V47.016H277.48V47.268C277.48 48.2573 277.172 49.1347 276.556 49.9C275.959 50.6467 275.128 51.2347 274.064 51.664C273.019 52.0747 271.806 52.28 270.424 52.28ZM289.013 52H285.821C284.328 52 283.143 51.636 282.265 50.908C281.407 50.18 280.977 48.976 280.977 47.296V35.032H283.973V47.128C283.973 47.9867 284.179 48.5653 284.589 48.864C285 49.144 285.635 49.284 286.493 49.284H289.013V52ZM289.013 40.604H278.625V38.084H289.013V40.604ZM297.93 56.76H295.942V54.016H298.658C299.274 54.016 299.731 53.9133 300.03 53.708C300.347 53.5213 300.609 53.1947 300.814 52.728L301.682 50.852L301.346 52.392L294.29 38.084H297.678L301.234 45.476L302.606 48.808H302.83L304.146 45.448L307.422 38.084H310.754L303.502 53.512C303.129 54.3333 302.69 54.9773 302.186 55.444C301.682 55.9293 301.085 56.2653 300.394 56.452C299.703 56.6573 298.882 56.76 297.93 56.76ZM319.345 52.28C317.814 52.28 316.461 51.9813 315.285 51.384C314.128 50.768 313.222 49.9187 312.569 48.836C311.934 47.7347 311.617 46.4747 311.617 45.056C311.617 43.6 311.934 42.3307 312.569 41.248C313.222 40.1653 314.128 39.3253 315.285 38.728C316.461 38.112 317.814 37.804 319.345 37.804C320.913 37.804 322.276 38.112 323.433 38.728C324.59 39.3253 325.486 40.1653 326.121 41.248C326.774 42.3307 327.101 43.6 327.101 45.056C327.101 46.4747 326.774 47.7347 326.121 48.836C325.486 49.9187 324.59 50.768 323.433 51.384C322.276 51.9813 320.913 52.28 319.345 52.28ZM319.345 49.592C321.044 49.592 322.266 49.2093 323.013 48.444C323.76 47.66 324.133 46.5307 324.133 45.056C324.133 43.5813 323.76 42.452 323.013 41.668C322.266 40.8653 321.044 40.464 319.345 40.464C317.665 40.464 316.452 40.8653 315.705 41.668C314.958 42.452 314.585 43.5813 314.585 45.056C314.585 46.5307 314.958 47.66 315.705 48.444C316.452 49.2093 317.665 49.592 319.345 49.592ZM335.092 52.28C333.785 52.28 332.702 52.0187 331.844 51.496C330.985 50.9733 330.341 50.2733 329.912 49.396C329.482 48.5187 329.268 47.5387 329.268 46.456V38.084H332.264V45.644C332.264 46.932 332.581 47.912 333.216 48.584C333.869 49.2373 334.933 49.564 336.408 49.564C337.957 49.564 339.086 49.1813 339.796 48.416C340.524 47.632 340.888 46.484 340.888 44.972L341.42 44.944L341.588 47.688H340.944C340.813 48.472 340.514 49.2093 340.048 49.9C339.581 50.5907 338.937 51.16 338.116 51.608C337.313 52.056 336.305 52.28 335.092 52.28ZM343.912 52H341.14V47.632L340.888 47.492V38.084H343.912V52ZM349.907 52H346.099V47.66H349.907V52Z" fill="black"/>
</svg>
