<svg width="424" height="150" viewBox="0 0 424 150" fill="none" xmlns="http://www.w3.org/2000/svg">
<mask id="path-1-outside-1_897_2" maskUnits="userSpaceOnUse" x="0" y="0" width="424" height="150" fill="black">
<rect fill="white" width="424" height="150"/>
<path fill-rule="evenodd" clip-rule="evenodd" d="M42 2C19.9086 2 2 19.9086 2 42V69C2 91.0914 19.9086 109 42 109H56.6003C56.6479 110.039 57.2666 129.39 38.4623 147.947C38.4623 147.947 86.6226 151.081 92.1289 109H381.956C387.281 109 392.363 107.96 397.009 106.071C404.825 102.994 411.292 97.605 415.607 90.6335C419.625 84.3966 421.956 76.9706 421.956 69V42C421.956 19.9086 404.048 2 381.956 2H42Z"/>
</mask>
<path fill-rule="evenodd" clip-rule="evenodd" d="M42 2C19.9086 2 2 19.9086 2 42V69C2 91.0914 19.9086 109 42 109H56.6003C56.6479 110.039 57.2666 129.39 38.4623 147.947C38.4623 147.947 86.6226 151.081 92.1289 109H381.956C387.281 109 392.363 107.96 397.009 106.071C404.825 102.994 411.292 97.605 415.607 90.6335C419.625 84.3966 421.956 76.9706 421.956 69V42C421.956 19.9086 404.048 2 381.956 2H42Z" fill="white"/>
<path d="M56.6003 109L58.5982 108.909L58.5109 107H56.6003V109ZM38.4623 147.947L37.0575 146.524L33.8858 149.654L38.3325 149.943L38.4623 147.947ZM92.1289 109V107H90.3736L90.1458 108.741L92.1289 109ZM397.009 106.071L396.277 104.21L396.266 104.214L396.256 104.218L397.009 106.071ZM415.607 90.6335L413.926 89.5504L413.916 89.5655L413.907 89.5808L415.607 90.6335ZM4 42C4 21.0132 21.0132 4 42 4V0C18.804 0 0 18.804 0 42H4ZM4 69V42H0V69H4ZM42 107C21.0132 107 4 89.9868 4 69H0C0 92.196 18.8041 111 42 111V107ZM56.6003 107H42V111H56.6003V107ZM39.8672 149.371C59.228 130.264 58.66 110.256 58.5982 108.909L54.6024 109.091C54.6359 109.823 55.3051 128.516 37.0575 146.524L39.8672 149.371ZM90.1458 108.741C87.5185 128.819 74.8135 138.06 62.5672 142.367C56.4137 144.531 50.4028 145.431 45.9158 145.786C43.6768 145.963 41.8289 146.003 40.5477 146C39.9074 145.998 39.4095 145.985 39.0761 145.974C38.9094 145.968 38.7839 145.962 38.7023 145.958C38.6615 145.956 38.6317 145.954 38.6132 145.953C38.604 145.952 38.5976 145.952 38.5941 145.952C38.5923 145.952 38.5913 145.952 38.5909 145.951C38.5908 145.951 38.5911 145.952 38.591 145.952C38.5915 145.952 38.5922 145.952 38.4623 147.947C38.3325 149.943 38.3335 149.943 38.3348 149.943C38.3354 149.943 38.3368 149.943 38.3381 149.943C38.3407 149.944 38.3441 149.944 38.3482 149.944C38.3563 149.945 38.3674 149.945 38.3813 149.946C38.4092 149.948 38.4486 149.95 38.499 149.952C38.6 149.958 38.7456 149.964 38.933 149.971C39.3077 149.984 39.8499 149.998 40.5372 150C41.9113 150.003 43.869 149.96 46.231 149.773C50.9461 149.4 57.3194 148.453 63.8943 146.141C77.1046 141.494 91.233 131.262 94.112 109.259L90.1458 108.741ZM381.956 107H92.1289V111H381.956V107ZM396.256 104.218C391.845 106.011 387.019 107 381.956 107V111C387.544 111 392.881 109.908 397.762 107.924L396.256 104.218ZM413.907 89.5808C409.822 96.1796 403.697 101.288 396.277 104.21L397.742 107.932C405.952 104.699 412.762 99.0304 417.308 91.6862L413.907 89.5808ZM419.956 69C419.956 76.575 417.742 83.6267 413.926 89.5504L417.289 91.7166C421.508 85.1665 423.956 77.3661 423.956 69H419.956ZM419.956 42V69H423.956V42H419.956ZM381.956 4C402.943 4 419.956 21.0132 419.956 42H423.956C423.956 18.804 405.152 0 381.956 0V4ZM42 4H381.956V0H42V4Z" fill="black" mask="url(#path-1-outside-1_897_2)"/>
<path d="M44.2302 47H41.2062V28.24H44.2302V47ZM76.4275 47H73.4315V39.44C73.4315 38.0587 73.1422 37.06 72.5635 36.444C71.9849 35.828 71.0142 35.52 69.6515 35.52C68.1769 35.52 67.1315 35.9027 66.5155 36.668C65.9182 37.4147 65.6195 38.5627 65.6195 40.112L65.0875 40.14L64.9195 37.396H65.5355C65.6662 36.5933 65.9369 35.8467 66.3475 35.156C66.7582 34.4653 67.3462 33.9053 68.1115 33.476C68.8769 33.028 69.8382 32.804 70.9955 32.804C72.2089 32.804 73.2169 33.056 74.0195 33.56C74.8222 34.064 75.4195 34.7547 75.8115 35.632C76.2222 36.5093 76.4275 37.508 76.4275 38.628V47ZM54.8395 47H51.8155V33.084H54.5875V37.452L54.8395 37.592V47ZM65.6195 47H62.6235V39.44C62.6235 38.0587 62.3342 37.06 61.7555 36.444C61.1769 35.828 60.2155 35.52 58.8715 35.52C57.3782 35.52 56.3329 35.9027 55.7355 36.668C55.1382 37.4147 54.8395 38.5627 54.8395 40.112L54.3075 40.14L54.1675 37.284H54.7555C54.8862 36.5 55.1475 35.772 55.5395 35.1C55.9315 34.428 56.5009 33.8773 57.2475 33.448C57.9942 33.0187 58.9462 32.804 60.1035 32.804C61.3169 32.804 62.3155 33.0653 63.0995 33.588C63.8835 34.092 64.4715 34.7827 64.8635 35.66C65.2555 36.5373 65.4515 37.5267 65.4515 38.628H65.6195V47ZM86.1319 47.28C84.6199 47.28 83.2946 47 82.1559 46.44C81.0173 45.88 80.1306 45.0587 79.4959 43.976C78.8799 42.8933 78.5719 41.5867 78.5719 40.056C78.5719 38.6 78.8799 37.3307 79.4959 36.248C80.1306 35.1653 81.0079 34.3253 82.1279 33.728C83.2479 33.112 84.5639 32.804 86.0759 32.804C87.5133 32.804 88.7733 33.0653 89.8559 33.588C90.9573 34.092 91.8066 34.8387 92.4039 35.828C93.0199 36.7987 93.3279 37.9933 93.3279 39.412C93.3279 39.6547 93.3186 39.888 93.2999 40.112C93.2813 40.3173 93.2533 40.5227 93.2159 40.728H80.5039V39.048H91.2279L90.4439 40.084C90.4626 39.8973 90.4719 39.72 90.4719 39.552C90.4719 39.3653 90.4719 39.1787 90.4719 38.992C90.4719 37.704 90.0986 36.752 89.3519 36.136C88.6239 35.5013 87.5133 35.184 86.0199 35.184C84.3586 35.184 83.1733 35.5667 82.4639 36.332C81.7546 37.0973 81.3999 38.1987 81.3999 39.636V40.364C81.3999 41.82 81.7546 42.9307 82.4639 43.696C83.1733 44.4613 84.3679 44.844 86.0479 44.844C87.5039 44.844 88.5493 44.62 89.1839 44.172C89.8373 43.7053 90.1639 43.0613 90.1639 42.24V42.016H93.1879V42.268C93.1879 43.2573 92.8799 44.1347 92.2639 44.9C91.6666 45.6467 90.8359 46.2347 89.7719 46.664C88.7266 47.0747 87.5133 47.28 86.1319 47.28ZM108.753 47H105.981V43.416L105.785 43.332V38.572C105.785 37.4147 105.505 36.612 104.945 36.164C104.404 35.6973 103.461 35.464 102.117 35.464C100.829 35.464 99.8675 35.688 99.2329 36.136C98.5982 36.584 98.2809 37.3213 98.2809 38.348V38.46H95.2849V38.348C95.2849 37.284 95.5649 36.3413 96.1249 35.52C96.6849 34.68 97.4875 34.0173 98.5329 33.532C99.5969 33.0467 100.866 32.804 102.341 32.804C103.816 32.804 105.02 33.056 105.953 33.56C106.905 34.0453 107.605 34.7173 108.053 35.576C108.52 36.4347 108.753 37.424 108.753 38.544V47ZM99.6809 47.28C98.2435 47.28 97.0955 46.9627 96.2369 46.328C95.3969 45.6747 94.9769 44.7787 94.9769 43.64C94.9769 42.912 95.1542 42.3053 95.5089 41.82C95.8822 41.316 96.4049 40.924 97.0769 40.644C97.7489 40.364 98.5422 40.168 99.4569 40.056L106.065 39.356V41.148L100.325 41.792C99.5409 41.8853 98.9529 42.0533 98.5609 42.296C98.1875 42.52 98.0009 42.9027 98.0009 43.444C98.0009 44.004 98.1969 44.424 98.5889 44.704C98.9995 44.9653 99.6342 45.096 100.493 45.096C101.557 45.096 102.481 44.9653 103.265 44.704C104.049 44.424 104.665 43.9947 105.113 43.416C105.561 42.8373 105.785 42.0907 105.785 41.176L106.177 41.232V43.528H105.785C105.412 44.704 104.693 45.628 103.629 46.3C102.584 46.9533 101.268 47.28 99.6809 47.28ZM125.984 47H122.96V39.44C122.96 38.1333 122.643 37.1533 122.008 36.5C121.392 35.8467 120.356 35.52 118.9 35.52C117.388 35.52 116.268 35.912 115.54 36.696C114.831 37.4613 114.476 38.6 114.476 40.112L113.944 40.14L113.804 37.396H114.42C114.57 36.612 114.868 35.8747 115.316 35.184C115.783 34.4747 116.418 33.9053 117.22 33.476C118.042 33.028 119.04 32.804 120.216 32.804C121.504 32.804 122.578 33.0653 123.436 33.588C124.295 34.1107 124.93 34.8107 125.34 35.688C125.77 36.5653 125.984 37.5453 125.984 38.628V47ZM114.476 47H111.452V33.084H114.224V37.452L114.476 37.592V47ZM131.927 47H128.119V42.66H131.927V47ZM129.183 50.136H128.175V48.288H129.099C129.341 48.288 129.519 48.2413 129.631 48.148C129.743 48.0733 129.799 47.8867 129.799 47.588V46.356H131.927V47.56C131.927 48.4373 131.684 49.0813 131.199 49.492C130.732 49.9213 130.06 50.136 129.183 50.136ZM146.769 47H143.745V28.24H146.769V47ZM157.379 47H154.355V33.084H157.127V37.032L157.379 37.172V47ZM157.379 39.188H156.707V36.836H157.323C157.453 36.0707 157.715 35.3893 158.107 34.792C158.499 34.176 159.021 33.6907 159.675 33.336C160.347 32.9813 161.159 32.804 162.111 32.804C163.175 32.804 164.043 33.028 164.715 33.476C165.387 33.924 165.872 34.5213 166.171 35.268C166.488 36.0147 166.647 36.8267 166.647 37.704V39.524H163.651V38.292C163.651 37.284 163.427 36.5467 162.979 36.08C162.531 35.6133 161.784 35.38 160.739 35.38C159.544 35.38 158.685 35.7067 158.163 36.36C157.64 37.0133 157.379 37.956 157.379 39.188ZM175.546 47.28C174.034 47.28 172.709 47 171.57 46.44C170.431 45.88 169.545 45.0587 168.91 43.976C168.294 42.8933 167.986 41.5867 167.986 40.056C167.986 38.6 168.294 37.3307 168.91 36.248C169.545 35.1653 170.422 34.3253 171.542 33.728C172.662 33.112 173.978 32.804 175.49 32.804C176.927 32.804 178.187 33.0653 179.27 33.588C180.371 34.092 181.221 34.8387 181.818 35.828C182.434 36.7987 182.742 37.9933 182.742 39.412C182.742 39.6547 182.733 39.888 182.714 40.112C182.695 40.3173 182.667 40.5227 182.63 40.728H169.918V39.048H180.642L179.858 40.084C179.877 39.8973 179.886 39.72 179.886 39.552C179.886 39.3653 179.886 39.1787 179.886 38.992C179.886 37.704 179.513 36.752 178.766 36.136C178.038 35.5013 176.927 35.184 175.434 35.184C173.773 35.184 172.587 35.5667 171.878 36.332C171.169 37.0973 170.814 38.1987 170.814 39.636V40.364C170.814 41.82 171.169 42.9307 171.878 43.696C172.587 44.4613 173.782 44.844 175.462 44.844C176.918 44.844 177.963 44.62 178.598 44.172C179.251 43.7053 179.578 43.0613 179.578 42.24V42.016H182.602V42.268C182.602 43.2573 182.294 44.1347 181.678 44.9C181.081 45.6467 180.25 46.2347 179.186 46.664C178.141 47.0747 176.927 47.28 175.546 47.28ZM198.167 47H195.395V43.416L195.199 43.332V38.572C195.199 37.4147 194.919 36.612 194.359 36.164C193.818 35.6973 192.875 35.464 191.531 35.464C190.243 35.464 189.282 35.688 188.647 36.136C188.012 36.584 187.695 37.3213 187.695 38.348V38.46H184.699V38.348C184.699 37.284 184.979 36.3413 185.539 35.52C186.099 34.68 186.902 34.0173 187.947 33.532C189.011 33.0467 190.28 32.804 191.755 32.804C193.23 32.804 194.434 33.056 195.367 33.56C196.319 34.0453 197.019 34.7173 197.467 35.576C197.934 36.4347 198.167 37.424 198.167 38.544V47ZM189.095 47.28C187.658 47.28 186.51 46.9627 185.651 46.328C184.811 45.6747 184.391 44.7787 184.391 43.64C184.391 42.912 184.568 42.3053 184.923 41.82C185.296 41.316 185.819 40.924 186.491 40.644C187.163 40.364 187.956 40.168 188.871 40.056L195.479 39.356V41.148L189.739 41.792C188.955 41.8853 188.367 42.0533 187.975 42.296C187.602 42.52 187.415 42.9027 187.415 43.444C187.415 44.004 187.611 44.424 188.003 44.704C188.414 44.9653 189.048 45.096 189.907 45.096C190.971 45.096 191.895 44.9653 192.679 44.704C193.463 44.424 194.079 43.9947 194.527 43.416C194.975 42.8373 195.199 42.0907 195.199 41.176L195.591 41.232V43.528H195.199C194.826 44.704 194.107 45.628 193.043 46.3C191.998 46.9533 190.682 47.28 189.095 47.28ZM203.89 47H200.866V28.24H203.89V47ZM209.715 47H206.691V28.24H209.715V47ZM214.755 51.76H212.767V49.016H215.483C216.099 49.016 216.556 48.9133 216.855 48.708C217.172 48.5213 217.433 48.1947 217.639 47.728L218.507 45.852L218.171 47.392L211.115 33.084H214.503L218.059 40.476L219.431 43.808H219.655L220.971 40.448L224.247 33.084H227.579L220.327 48.512C219.953 49.3333 219.515 49.9773 219.011 50.444C218.507 50.9293 217.909 51.2653 217.219 51.452C216.528 51.6573 215.707 51.76 214.755 51.76ZM239.975 47.28C238.5 47.28 237.25 46.9813 236.223 46.384C235.215 45.768 234.45 44.9187 233.927 43.836C233.404 42.7347 233.143 41.4747 233.143 40.056C233.143 38.6 233.404 37.3307 233.927 36.248C234.45 35.1653 235.206 34.3253 236.195 33.728C237.184 33.112 238.379 32.804 239.779 32.804C241.422 32.804 242.719 33.1867 243.671 33.952C244.623 34.7173 245.239 35.688 245.519 36.864H246.219V39.972H245.687C245.687 38.4973 245.267 37.396 244.427 36.668C243.587 35.9213 242.392 35.548 240.843 35.548C239.891 35.548 239.06 35.6973 238.351 35.996C237.642 36.276 237.1 36.7427 236.727 37.396C236.372 38.0493 236.195 38.936 236.195 40.056C236.195 41.1573 236.372 42.0347 236.727 42.688C237.1 43.3413 237.642 43.808 238.351 44.088C239.06 44.368 239.91 44.508 240.899 44.508C241.888 44.508 242.738 44.3587 243.447 44.06C244.175 43.7427 244.726 43.2573 245.099 42.604C245.491 41.9507 245.687 41.148 245.687 40.196H246.219L246.415 42.996H245.743C245.463 44.3773 244.819 45.4413 243.811 46.188C242.822 46.916 241.543 47.28 239.975 47.28ZM248.711 47H245.939V42.632L245.687 42.268V28.24H248.711V47ZM258.619 47.28C257.088 47.28 255.735 46.9813 254.559 46.384C253.402 45.768 252.496 44.9187 251.843 43.836C251.208 42.7347 250.891 41.4747 250.891 40.056C250.891 38.6 251.208 37.3307 251.843 36.248C252.496 35.1653 253.402 34.3253 254.559 33.728C255.735 33.112 257.088 32.804 258.619 32.804C260.187 32.804 261.55 33.112 262.707 33.728C263.864 34.3253 264.76 35.1653 265.395 36.248C266.048 37.3307 266.375 38.6 266.375 40.056C266.375 41.4747 266.048 42.7347 265.395 43.836C264.76 44.9187 263.864 45.768 262.707 46.384C261.55 46.9813 260.187 47.28 258.619 47.28ZM258.619 44.592C260.318 44.592 261.54 44.2093 262.287 43.444C263.034 42.66 263.407 41.5307 263.407 40.056C263.407 38.5813 263.034 37.452 262.287 36.668C261.54 35.8653 260.318 35.464 258.619 35.464C256.939 35.464 255.726 35.8653 254.979 36.668C254.232 37.452 253.859 38.5813 253.859 40.056C253.859 41.5307 254.232 42.66 254.979 43.444C255.726 44.2093 256.939 44.592 258.619 44.592ZM283.101 47H280.077V39.44C280.077 38.1333 279.76 37.1533 279.125 36.5C278.509 35.8467 277.473 35.52 276.017 35.52C274.505 35.52 273.385 35.912 272.657 36.696C271.948 37.4613 271.593 38.6 271.593 40.112L271.061 40.14L270.921 37.396H271.537C271.687 36.612 271.985 35.8747 272.433 35.184C272.9 34.4747 273.535 33.9053 274.337 33.476C275.159 33.028 276.157 32.804 277.333 32.804C278.621 32.804 279.695 33.0653 280.553 33.588C281.412 34.1107 282.047 34.8107 282.457 35.688C282.887 36.5653 283.101 37.5453 283.101 38.628V47ZM271.593 47H268.569V33.084H271.341V37.452L271.593 37.592V47ZM289.044 32.58H285.236V28.24H289.044V32.58ZM286.3 35.744H285.292V33.896H286.216C286.459 33.896 286.636 33.8493 286.748 33.756C286.86 33.6627 286.916 33.4667 286.916 33.168V31.936H289.044V33.14C289.044 34.0173 288.801 34.6707 288.316 35.1C287.849 35.5293 287.177 35.744 286.3 35.744ZM300.42 47H297.228C295.735 47 294.549 46.636 293.672 45.908C292.813 45.18 292.384 43.976 292.384 42.296V30.032H295.38V42.128C295.38 42.9867 295.585 43.5653 295.996 43.864C296.407 44.144 297.041 44.284 297.9 44.284H300.42V47ZM300.42 35.604H290.032V33.084H300.42V35.604ZM314.125 47.28C312.594 47.28 311.259 46.9813 310.121 46.384C308.982 45.768 308.095 44.9187 307.461 43.836C306.845 42.7347 306.537 41.4747 306.537 40.056C306.537 38.6 306.845 37.3307 307.461 36.248C308.095 35.1653 308.982 34.3253 310.121 33.728C311.259 33.112 312.594 32.804 314.125 32.804C315.525 32.804 316.766 33.0467 317.849 33.532C318.931 34.0173 319.781 34.6987 320.397 35.576C321.031 36.4347 321.349 37.452 321.349 38.628V38.908H318.353V38.74C318.353 37.6573 317.979 36.8547 317.233 36.332C316.486 35.7907 315.431 35.52 314.069 35.52C312.501 35.52 311.353 35.9027 310.625 36.668C309.897 37.4147 309.533 38.544 309.533 40.056C309.533 41.5493 309.897 42.6787 310.625 43.444C311.353 44.1907 312.501 44.564 314.069 44.564C315.431 44.564 316.486 44.3027 317.233 43.78C317.979 43.2387 318.353 42.4267 318.353 41.344V41.148H321.349V41.456C321.349 42.6133 321.031 43.6307 320.397 44.508C319.781 45.3853 318.931 46.0667 317.849 46.552C316.766 47.0373 315.525 47.28 314.125 47.28ZM336.745 47H333.973V43.416L333.777 43.332V38.572C333.777 37.4147 333.497 36.612 332.937 36.164C332.396 35.6973 331.453 35.464 330.109 35.464C328.821 35.464 327.86 35.688 327.225 36.136C326.59 36.584 326.273 37.3213 326.273 38.348V38.46H323.277V38.348C323.277 37.284 323.557 36.3413 324.117 35.52C324.677 34.68 325.48 34.0173 326.525 33.532C327.589 33.0467 328.858 32.804 330.333 32.804C331.808 32.804 333.012 33.056 333.945 33.56C334.897 34.0453 335.597 34.7173 336.045 35.576C336.512 36.4347 336.745 37.424 336.745 38.544V47ZM327.673 47.28C326.236 47.28 325.088 46.9627 324.229 46.328C323.389 45.6747 322.969 44.7787 322.969 43.64C322.969 42.912 323.146 42.3053 323.501 41.82C323.874 41.316 324.397 40.924 325.069 40.644C325.741 40.364 326.534 40.168 327.449 40.056L334.057 39.356V41.148L328.317 41.792C327.533 41.8853 326.945 42.0533 326.553 42.296C326.18 42.52 325.993 42.9027 325.993 43.444C325.993 44.004 326.189 44.424 326.581 44.704C326.992 44.9653 327.626 45.096 328.485 45.096C329.549 45.096 330.473 44.9653 331.257 44.704C332.041 44.424 332.657 43.9947 333.105 43.416C333.553 42.8373 333.777 42.0907 333.777 41.176L334.169 41.232V43.528H333.777C333.404 44.704 332.685 45.628 331.621 46.3C330.576 46.9533 329.26 47.28 327.673 47.28ZM342.468 47H339.444V33.084H342.216V37.032L342.468 37.172V47ZM342.468 39.188H341.796V36.836H342.412C342.543 36.0707 342.804 35.3893 343.196 34.792C343.588 34.176 344.111 33.6907 344.764 33.336C345.436 32.9813 346.248 32.804 347.2 32.804C348.264 32.804 349.132 33.028 349.804 33.476C350.476 33.924 350.962 34.5213 351.26 35.268C351.578 36.0147 351.736 36.8267 351.736 37.704V39.524H348.74V38.292C348.74 37.284 348.516 36.5467 348.068 36.08C347.62 35.6133 346.874 35.38 345.828 35.38C344.634 35.38 343.775 35.7067 343.252 36.36C342.73 37.0133 342.468 37.956 342.468 39.188ZM360.636 47.28C359.124 47.28 357.799 47 356.66 46.44C355.521 45.88 354.635 45.0587 354 43.976C353.384 42.8933 353.076 41.5867 353.076 40.056C353.076 38.6 353.384 37.3307 354 36.248C354.635 35.1653 355.512 34.3253 356.632 33.728C357.752 33.112 359.068 32.804 360.58 32.804C362.017 32.804 363.277 33.0653 364.36 33.588C365.461 34.092 366.311 34.8387 366.908 35.828C367.524 36.7987 367.832 37.9933 367.832 39.412C367.832 39.6547 367.823 39.888 367.804 40.112C367.785 40.3173 367.757 40.5227 367.72 40.728H355.008V39.048H365.732L364.948 40.084C364.967 39.8973 364.976 39.72 364.976 39.552C364.976 39.3653 364.976 39.1787 364.976 38.992C364.976 37.704 364.603 36.752 363.856 36.136C363.128 35.5013 362.017 35.184 360.524 35.184C358.863 35.184 357.677 35.5667 356.968 36.332C356.259 37.0973 355.904 38.1987 355.904 39.636V40.364C355.904 41.82 356.259 42.9307 356.968 43.696C357.677 44.4613 358.872 44.844 360.552 44.844C362.008 44.844 363.053 44.62 363.688 44.172C364.341 43.7053 364.668 43.0613 364.668 42.24V42.016H367.692V42.268C367.692 43.2573 367.384 44.1347 366.768 44.9C366.171 45.6467 365.34 46.2347 364.276 46.664C363.231 47.0747 362.017 47.28 360.636 47.28ZM49.9702 81.28C48.3835 81.28 47.0955 80.916 46.1062 80.188C45.1168 79.4413 44.4728 78.3773 44.1742 76.996H43.5022L43.6982 74.196H44.2302C44.2302 75.148 44.4168 75.9507 44.7902 76.604C45.1822 77.2573 45.7328 77.7427 46.4422 78.06C47.1702 78.3587 48.0288 78.508 49.0182 78.508C50.0448 78.508 50.9035 78.368 51.5942 78.088C52.3035 77.808 52.8355 77.3413 53.1902 76.688C53.5635 76.0347 53.7502 75.1573 53.7502 74.056C53.7502 72.936 53.5635 72.0493 53.1902 71.396C52.8168 70.7427 52.2848 70.276 51.5942 69.996C50.9035 69.6973 50.0635 69.548 49.0742 69.548C47.5062 69.548 46.3022 69.9213 45.4622 70.668C44.6408 71.396 44.2302 72.4973 44.2302 73.972H43.6982V70.864H44.3982C44.6782 69.688 45.2848 68.7173 46.2182 67.952C47.1702 67.1867 48.4768 66.804 50.1382 66.804C51.5755 66.804 52.7795 67.112 53.7502 67.728C54.7395 68.3253 55.4862 69.1653 55.9902 70.248C56.5128 71.3307 56.7742 72.6 56.7742 74.056C56.7742 75.4747 56.5128 76.7347 55.9902 77.836C55.4862 78.9187 54.7208 79.768 53.6942 80.384C52.6862 80.9813 51.4448 81.28 49.9702 81.28ZM43.9782 81H41.2062V62.24H44.2302V76.268L43.9782 76.632V81ZM64.6662 81.28C63.3595 81.28 62.2769 81.0187 61.4182 80.496C60.5595 79.9733 59.9155 79.2733 59.4862 78.396C59.0569 77.5187 58.8422 76.5387 58.8422 75.456V67.084H61.8382V74.644C61.8382 75.932 62.1555 76.912 62.7902 77.584C63.4435 78.2373 64.5075 78.564 65.9822 78.564C67.5315 78.564 68.6609 78.1813 69.3702 77.416C70.0982 76.632 70.4622 75.484 70.4622 73.972L70.9942 73.944L71.1622 76.688H70.5182C70.3875 77.472 70.0889 78.2093 69.6222 78.9C69.1555 79.5907 68.5115 80.16 67.6902 80.608C66.8875 81.056 65.8795 81.28 64.6662 81.28ZM73.4862 81H70.7142V76.632L70.4622 76.492V67.084H73.4862V81ZM85.3615 81H82.1695C80.6762 81 79.4908 80.636 78.6135 79.908C77.7548 79.18 77.3255 77.976 77.3255 76.296V64.032H80.3215V76.128C80.3215 76.9867 80.5268 77.5653 80.9375 77.864C81.3482 78.144 81.9828 78.284 82.8415 78.284H85.3615V81ZM85.3615 69.604H74.9735V67.084H85.3615V69.604ZM101.166 81H97.9742C96.4809 81 95.2955 80.636 94.4182 79.908C93.5595 79.18 93.1302 77.976 93.1302 76.296V64.032H96.1262V76.128C96.1262 76.9867 96.3315 77.5653 96.7422 77.864C97.1529 78.144 97.7875 78.284 98.6462 78.284H101.166V81ZM101.166 69.604H90.7782V67.084H101.166V69.604ZM117.702 81H114.706V73.44C114.706 72.04 114.379 71.0413 113.726 70.444C113.072 69.828 112.018 69.52 110.562 69.52C109.46 69.52 108.583 69.716 107.93 70.108C107.276 70.4813 106.8 71.0227 106.502 71.732C106.222 72.4227 106.082 73.2627 106.082 74.252L105.494 74.28L105.634 71.34H106.25C106.418 70.556 106.716 69.8187 107.146 69.128C107.594 68.4373 108.219 67.8773 109.022 67.448C109.824 67.0187 110.814 66.804 111.99 66.804C113.259 66.804 114.314 67.0653 115.154 67.588C116.012 68.092 116.647 68.792 117.058 69.688C117.487 70.5653 117.702 71.5733 117.702 72.712V81ZM106.082 81H103.058V62.24H106.082V81ZM133.581 81H130.809V77.416L130.613 77.332V72.572C130.613 71.4147 130.333 70.612 129.773 70.164C129.232 69.6973 128.289 69.464 126.945 69.464C125.657 69.464 124.696 69.688 124.061 70.136C123.426 70.584 123.109 71.3213 123.109 72.348V72.46H120.113V72.348C120.113 71.284 120.393 70.3413 120.953 69.52C121.513 68.68 122.316 68.0173 123.361 67.532C124.425 67.0467 125.694 66.804 127.169 66.804C128.644 66.804 129.848 67.056 130.781 67.56C131.733 68.0453 132.433 68.7173 132.881 69.576C133.348 70.4347 133.581 71.424 133.581 72.544V81ZM124.509 81.28C123.072 81.28 121.924 80.9627 121.065 80.328C120.225 79.6747 119.805 78.7787 119.805 77.64C119.805 76.912 119.982 76.3053 120.337 75.82C120.71 75.316 121.233 74.924 121.905 74.644C122.577 74.364 123.37 74.168 124.285 74.056L130.893 73.356V75.148L125.153 75.792C124.369 75.8853 123.781 76.0533 123.389 76.296C123.016 76.52 122.829 76.9027 122.829 77.444C122.829 78.004 123.025 78.424 123.417 78.704C123.828 78.9653 124.462 79.096 125.321 79.096C126.385 79.096 127.309 78.9653 128.093 78.704C128.877 78.424 129.493 77.9947 129.941 77.416C130.389 76.8373 130.613 76.0907 130.613 75.176L131.005 75.232V77.528H130.613C130.24 78.704 129.521 79.628 128.457 80.3C127.412 80.9533 126.096 81.28 124.509 81.28ZM150.812 81H147.788V73.44C147.788 72.1333 147.471 71.1533 146.836 70.5C146.22 69.8467 145.184 69.52 143.728 69.52C142.216 69.52 141.096 69.912 140.368 70.696C139.659 71.4613 139.304 72.6 139.304 74.112L138.772 74.14L138.632 71.396H139.248C139.398 70.612 139.696 69.8747 140.144 69.184C140.611 68.4747 141.246 67.9053 142.048 67.476C142.87 67.028 143.868 66.804 145.044 66.804C146.332 66.804 147.406 67.0653 148.264 67.588C149.123 68.1107 149.758 68.8107 150.168 69.688C150.598 70.5653 150.812 71.5453 150.812 72.628V81ZM139.304 81H136.28V67.084H139.052V71.452L139.304 71.592V81ZM168.179 81H164.623L160.507 75.316H155.187V72.6H160.507L164.679 67.084H168.207L162.971 73.776L168.179 81ZM156.531 81H153.507V62.24H156.531V81ZM176.72 85.76H174.732V83.016H177.448C178.064 83.016 178.521 82.9133 178.82 82.708C179.137 82.5213 179.398 82.1947 179.604 81.728L180.472 79.852L180.136 81.392L173.08 67.084H176.468L180.024 74.476L181.396 77.808H181.62L182.936 74.448L186.212 67.084H189.544L182.292 82.512C181.918 83.3333 181.48 83.9773 180.976 84.444C180.472 84.9293 179.874 85.2653 179.184 85.452C178.493 85.6573 177.672 85.76 176.72 85.76ZM198.135 81.28C196.604 81.28 195.251 80.9813 194.075 80.384C192.917 79.768 192.012 78.9187 191.359 77.836C190.724 76.7347 190.407 75.4747 190.407 74.056C190.407 72.6 190.724 71.3307 191.359 70.248C192.012 69.1653 192.917 68.3253 194.075 67.728C195.251 67.112 196.604 66.804 198.135 66.804C199.703 66.804 201.065 67.112 202.223 67.728C203.38 68.3253 204.276 69.1653 204.911 70.248C205.564 71.3307 205.891 72.6 205.891 74.056C205.891 75.4747 205.564 76.7347 204.911 77.836C204.276 78.9187 203.38 79.768 202.223 80.384C201.065 80.9813 199.703 81.28 198.135 81.28ZM198.135 78.592C199.833 78.592 201.056 78.2093 201.803 77.444C202.549 76.66 202.923 75.5307 202.923 74.056C202.923 72.5813 202.549 71.452 201.803 70.668C201.056 69.8653 199.833 69.464 198.135 69.464C196.455 69.464 195.241 69.8653 194.495 70.668C193.748 71.452 193.375 72.5813 193.375 74.056C193.375 75.5307 193.748 76.66 194.495 77.444C195.241 78.2093 196.455 78.592 198.135 78.592ZM213.881 81.28C212.574 81.28 211.492 81.0187 210.633 80.496C209.774 79.9733 209.13 79.2733 208.701 78.396C208.272 77.5187 208.057 76.5387 208.057 75.456V67.084H211.053V74.644C211.053 75.932 211.37 76.912 212.005 77.584C212.658 78.2373 213.722 78.564 215.197 78.564C216.746 78.564 217.876 78.1813 218.585 77.416C219.313 76.632 219.677 75.484 219.677 73.972L220.209 73.944L220.377 76.688H219.733C219.602 77.472 219.304 78.2093 218.837 78.9C218.37 79.5907 217.726 80.16 216.905 80.608C216.102 81.056 215.094 81.28 213.881 81.28ZM222.701 81H219.929V76.632L219.677 76.492V67.084H222.701V81ZM228.696 81H224.888V76.66H228.696V81ZM234.192 81H230.384V76.66H234.192V81ZM239.689 81H235.881V76.66H239.689V81Z" fill="black"/>
</svg>
