<svg width="472" height="121" viewBox="0 0 472 121" fill="none" xmlns="http://www.w3.org/2000/svg">
<path d="M83.1864 81.8272L83.2997 80.9562H84.1781L431.5 80.9562C453.593 80.9562 470.5 64.5663 470.5 42.5C470.5 20.4105 453.569 3 431.5 3.00002L431.495 2.99998L40.9807 1C40.98 1 40.9793 1 40.9785 1C18.9049 1.00115 1 18.8946 1 40.9781C1 63.0508 18.9061 80.9562 40.9922 80.9562H48.6416H49.5834L49.6398 81.8963L48.6416 81.9562C49.6398 81.8963 49.6398 81.8969 49.6399 81.8975L49.64 81.8992L49.6402 81.9039L49.641 81.9189L49.6435 81.9703C49.6454 82.014 49.6478 82.0767 49.6499 82.1577C49.6543 82.3197 49.6578 82.5547 49.6551 82.8579C49.6498 83.4641 49.6198 84.3429 49.5224 85.4534C49.3274 87.674 48.8624 90.8236 47.7836 94.5745C45.748 101.652 41.5296 110.862 32.8375 120C34.1277 119.998 35.9115 119.951 38.0428 119.782C42.5895 119.422 48.6942 118.51 54.9554 116.306C67.4474 111.909 80.5097 102.409 83.1864 81.8272Z" fill="white" stroke="black" stroke-width="2"/>
<path d="M49.528 52.28C47.5867 52.28 45.888 51.888 44.432 51.104C42.976 50.3013 41.8467 49.1813 41.044 47.744C40.2413 46.288 39.84 44.58 39.84 42.62C39.84 40.66 40.2413 38.9613 41.044 37.524C41.8467 36.068 42.976 34.948 44.432 34.164C45.888 33.3613 47.5867 32.96 49.528 32.96C51.3013 32.96 52.86 33.2587 54.204 33.856C55.5667 34.4347 56.6213 35.2747 57.368 36.376C58.1333 37.4587 58.516 38.756 58.516 40.268V40.632H55.184V40.268C55.184 38.8307 54.7173 37.7387 53.784 36.992C52.8693 36.2453 51.46 35.872 49.556 35.872C48.0813 35.872 46.8587 36.1147 45.888 36.6C44.936 37.0667 44.2173 37.7947 43.732 38.784C43.2653 39.7733 43.032 41.052 43.032 42.62C43.032 44.1693 43.2653 45.448 43.732 46.456C44.2173 47.4453 44.936 48.1827 45.888 48.668C46.8587 49.1347 48.0813 49.368 49.556 49.368C51.46 49.368 52.8693 48.9947 53.784 48.248C54.7173 47.5013 55.184 46.4093 55.184 44.972V44.608H58.516V44.972C58.516 46.4653 58.1333 47.7627 57.368 48.864C56.6213 49.9653 55.5667 50.8147 54.204 51.412C52.86 51.9907 51.3013 52.28 49.528 52.28ZM73.9038 52H71.1318V48.416L70.9358 48.332V43.572C70.9358 42.4147 70.6558 41.612 70.0958 41.164C69.5544 40.6973 68.6118 40.464 67.2678 40.464C65.9798 40.464 65.0184 40.688 64.3838 41.136C63.7491 41.584 63.4318 42.3213 63.4318 43.348V43.46H60.4358V43.348C60.4358 42.284 60.7158 41.3413 61.2758 40.52C61.8358 39.68 62.6384 39.0173 63.6838 38.532C64.7478 38.0467 66.0171 37.804 67.4918 37.804C68.9664 37.804 70.1704 38.056 71.1038 38.56C72.0558 39.0453 72.7558 39.7173 73.2038 40.576C73.6704 41.4347 73.9038 42.424 73.9038 43.544V52ZM64.8318 52.28C63.3944 52.28 62.2464 51.9627 61.3878 51.328C60.5478 50.6747 60.1278 49.7787 60.1278 48.64C60.1278 47.912 60.3051 47.3053 60.6598 46.82C61.0331 46.316 61.5558 45.924 62.2278 45.644C62.8998 45.364 63.6931 45.168 64.6078 45.056L71.2158 44.356V46.148L65.4758 46.792C64.6918 46.8853 64.1038 47.0533 63.7118 47.296C63.3384 47.52 63.1518 47.9027 63.1518 48.444C63.1518 49.004 63.3478 49.424 63.7398 49.704C64.1504 49.9653 64.7851 50.096 65.6438 50.096C66.7078 50.096 67.6318 49.9653 68.4158 49.704C69.1998 49.424 69.8158 48.9947 70.2638 48.416C70.7118 47.8373 70.9358 47.0907 70.9358 46.176L71.3278 46.232V48.528H70.9358C70.5624 49.704 69.8438 50.628 68.7798 51.3C67.7344 51.9533 66.4184 52.28 64.8318 52.28ZM91.1351 52H88.1111V44.44C88.1111 43.1333 87.7938 42.1533 87.1591 41.5C86.5431 40.8467 85.5071 40.52 84.0511 40.52C82.5391 40.52 81.4191 40.912 80.6911 41.696C79.9818 42.4613 79.6271 43.6 79.6271 45.112L79.0951 45.14L78.9551 42.396H79.5711C79.7205 41.612 80.0191 40.8747 80.4671 40.184C80.9338 39.4747 81.5685 38.9053 82.3711 38.476C83.1925 38.028 84.1911 37.804 85.3671 37.804C86.6551 37.804 87.7285 38.0653 88.5871 38.588C89.4458 39.1107 90.0805 39.8107 90.4911 40.688C90.9205 41.5653 91.1351 42.5453 91.1351 43.628V52ZM79.6271 52H76.6031V38.084H79.3751V42.452L79.6271 42.592V52ZM101.639 52H98.6148V33.24H101.639V52ZM123.868 52H120.872V44.44C120.872 43.04 120.546 42.0413 119.892 41.444C119.239 40.828 118.184 40.52 116.728 40.52C115.627 40.52 114.75 40.716 114.096 41.108C113.443 41.4813 112.967 42.0227 112.668 42.732C112.388 43.4227 112.248 44.2627 112.248 45.252L111.66 45.28L111.8 42.34H112.416C112.584 41.556 112.883 40.8187 113.312 40.128C113.76 39.4373 114.386 38.8773 115.188 38.448C115.991 38.0187 116.98 37.804 118.156 37.804C119.426 37.804 120.48 38.0653 121.32 38.588C122.179 39.092 122.814 39.792 123.224 40.688C123.654 41.5653 123.868 42.5733 123.868 43.712V52ZM112.248 52H109.224V33.24H112.248V52ZM139.748 52H136.976V48.416L136.78 48.332V43.572C136.78 42.4147 136.5 41.612 135.94 41.164C135.398 40.6973 134.456 40.464 133.112 40.464C131.824 40.464 130.862 40.688 130.228 41.136C129.593 41.584 129.276 42.3213 129.276 43.348V43.46H126.28V43.348C126.28 42.284 126.56 41.3413 127.12 40.52C127.68 39.68 128.482 39.0173 129.528 38.532C130.592 38.0467 131.861 37.804 133.336 37.804C134.81 37.804 136.014 38.056 136.948 38.56C137.9 39.0453 138.6 39.7173 139.048 40.576C139.514 41.4347 139.748 42.424 139.748 43.544V52ZM130.676 52.28C129.238 52.28 128.09 51.9627 127.232 51.328C126.392 50.6747 125.972 49.7787 125.972 48.64C125.972 47.912 126.149 47.3053 126.504 46.82C126.877 46.316 127.4 45.924 128.072 45.644C128.744 45.364 129.537 45.168 130.452 45.056L137.06 44.356V46.148L131.32 46.792C130.536 46.8853 129.948 47.0533 129.556 47.296C129.182 47.52 128.996 47.9027 128.996 48.444C128.996 49.004 129.192 49.424 129.584 49.704C129.994 49.9653 130.629 50.096 131.488 50.096C132.552 50.096 133.476 49.9653 134.26 49.704C135.044 49.424 135.66 48.9947 136.108 48.416C136.556 47.8373 136.78 47.0907 136.78 46.176L137.172 46.232V48.528H136.78C136.406 49.704 135.688 50.628 134.624 51.3C133.578 51.9533 132.262 52.28 130.676 52.28ZM151.379 52H147.683L141.187 38.084H144.519L149.475 49.06H149.699L154.655 38.084H157.931L151.379 52ZM166.482 52.28C164.97 52.28 163.645 52 162.506 51.44C161.367 50.88 160.481 50.0587 159.846 48.976C159.23 47.8933 158.922 46.5867 158.922 45.056C158.922 43.6 159.23 42.3307 159.846 41.248C160.481 40.1653 161.358 39.3253 162.478 38.728C163.598 38.112 164.914 37.804 166.426 37.804C167.863 37.804 169.123 38.0653 170.206 38.588C171.307 39.092 172.157 39.8387 172.754 40.828C173.37 41.7987 173.678 42.9933 173.678 44.412C173.678 44.6547 173.669 44.888 173.65 45.112C173.631 45.3173 173.603 45.5227 173.566 45.728H160.854V44.048H171.578L170.794 45.084C170.813 44.8973 170.822 44.72 170.822 44.552C170.822 44.3653 170.822 44.1787 170.822 43.992C170.822 42.704 170.449 41.752 169.702 41.136C168.974 40.5013 167.863 40.184 166.37 40.184C164.709 40.184 163.523 40.5667 162.814 41.332C162.105 42.0973 161.75 43.1987 161.75 44.636V45.364C161.75 46.82 162.105 47.9307 162.814 48.696C163.523 49.4613 164.718 49.844 166.398 49.844C167.854 49.844 168.899 49.62 169.534 49.172C170.187 48.7053 170.514 48.0613 170.514 47.24V47.016H173.538V47.268C173.538 48.2573 173.23 49.1347 172.614 49.9C172.017 50.6467 171.186 51.2347 170.122 51.664C169.077 52.0747 167.863 52.28 166.482 52.28ZM193.888 52H191.116V48.416L190.92 48.332V43.572C190.92 42.4147 190.64 41.612 190.08 41.164C189.539 40.6973 188.596 40.464 187.252 40.464C185.964 40.464 185.003 40.688 184.368 41.136C183.733 41.584 183.416 42.3213 183.416 43.348V43.46H180.42V43.348C180.42 42.284 180.7 41.3413 181.26 40.52C181.82 39.68 182.623 39.0173 183.668 38.532C184.732 38.0467 186.001 37.804 187.476 37.804C188.951 37.804 190.155 38.056 191.088 38.56C192.04 39.0453 192.74 39.7173 193.188 40.576C193.655 41.4347 193.888 42.424 193.888 43.544V52ZM184.816 52.28C183.379 52.28 182.231 51.9627 181.372 51.328C180.532 50.6747 180.112 49.7787 180.112 48.64C180.112 47.912 180.289 47.3053 180.644 46.82C181.017 46.316 181.54 45.924 182.212 45.644C182.884 45.364 183.677 45.168 184.592 45.056L191.2 44.356V46.148L185.46 46.792C184.676 46.8853 184.088 47.0533 183.696 47.296C183.323 47.52 183.136 47.9027 183.136 48.444C183.136 49.004 183.332 49.424 183.724 49.704C184.135 49.9653 184.769 50.096 185.628 50.096C186.692 50.096 187.616 49.9653 188.4 49.704C189.184 49.424 189.8 48.9947 190.248 48.416C190.696 47.8373 190.92 47.0907 190.92 46.176L191.312 46.232V48.528H190.92C190.547 49.704 189.828 50.628 188.764 51.3C187.719 51.9533 186.403 52.28 184.816 52.28ZM210.137 52.28C208.55 52.28 207.262 51.916 206.273 51.188C205.283 50.4413 204.639 49.3773 204.341 47.996H203.669L203.865 45.196H204.397C204.397 46.148 204.583 46.9507 204.957 47.604C205.349 48.2573 205.899 48.7427 206.609 49.06C207.337 49.3587 208.195 49.508 209.185 49.508C210.211 49.508 211.07 49.368 211.761 49.088C212.47 48.808 213.002 48.3413 213.357 47.688C213.73 47.0347 213.917 46.1573 213.917 45.056C213.917 43.936 213.73 43.0493 213.357 42.396C212.983 41.7427 212.451 41.276 211.761 40.996C211.07 40.6973 210.23 40.548 209.241 40.548C207.673 40.548 206.469 40.9213 205.629 41.668C204.807 42.396 204.397 43.4973 204.397 44.972H203.865V41.864H204.565C204.845 40.688 205.451 39.7173 206.385 38.952C207.337 38.1867 208.643 37.804 210.305 37.804C211.742 37.804 212.946 38.112 213.917 38.728C214.906 39.3253 215.653 40.1653 216.157 41.248C216.679 42.3307 216.941 43.6 216.941 45.056C216.941 46.4747 216.679 47.7347 216.157 48.836C215.653 49.9187 214.887 50.768 213.861 51.384C212.853 51.9813 211.611 52.28 210.137 52.28ZM204.145 52H201.373V33.24H204.397V47.268L204.145 47.632V52ZM222.061 52H219.037V38.084H222.061V52ZM222.061 36.46H219.037V33.24H222.061V36.46ZM232.169 57.04C230.788 57.04 229.574 56.8253 228.529 56.396C227.484 55.9853 226.662 55.388 226.065 54.604C225.486 53.82 225.197 52.868 225.197 51.748H228.193C228.193 52.42 228.333 52.9613 228.613 53.372C228.893 53.7827 229.332 54.072 229.929 54.24C230.545 54.4267 231.348 54.52 232.337 54.52C233.401 54.52 234.241 54.3987 234.857 54.156C235.492 53.932 235.949 53.5307 236.229 52.952C236.509 52.3733 236.649 51.5707 236.649 50.544V42.396L236.873 42.2V38.084H239.645V50.376C239.645 51.9253 239.337 53.1853 238.721 54.156C238.105 55.1453 237.237 55.8733 236.117 56.34C234.997 56.8067 233.681 57.04 232.169 57.04ZM230.909 50.74C229.528 50.74 228.342 50.4693 227.353 49.928C226.382 49.3867 225.626 48.6307 225.085 47.66C224.562 46.6893 224.301 45.56 224.301 44.272C224.301 42.984 224.572 41.8547 225.113 40.884C225.673 39.9133 226.457 39.1573 227.465 38.616C228.492 38.0747 229.705 37.804 231.105 37.804C232.561 37.804 233.793 38.1307 234.801 38.784C235.828 39.4187 236.462 40.3427 236.705 41.556H237.349L237.181 43.992H236.649C236.649 43.208 236.462 42.5547 236.089 42.032C235.716 41.4907 235.184 41.0893 234.493 40.828C233.802 40.5667 232.962 40.436 231.973 40.436C231.021 40.436 230.19 40.5573 229.481 40.8C228.79 41.0427 228.258 41.444 227.885 42.004C227.53 42.5453 227.353 43.3013 227.353 44.272C227.353 45.224 227.53 45.98 227.885 46.54C228.24 47.1 228.753 47.5107 229.425 47.772C230.116 48.0147 230.937 48.136 231.889 48.136C233.42 48.136 234.596 47.8187 235.417 47.184C236.238 46.5493 236.649 45.616 236.649 44.384H237.181V47.128H236.453C236.21 48.192 235.622 49.06 234.689 49.732C233.756 50.404 232.496 50.74 230.909 50.74ZM253.808 52.28C251.568 52.28 249.832 51.8507 248.6 50.992C247.387 50.1333 246.78 48.9013 246.78 47.296V47.212H249.804V47.436C249.804 48.3507 250.103 48.9853 250.7 49.34C251.316 49.676 252.352 49.844 253.808 49.844C255.171 49.844 256.095 49.704 256.58 49.424C257.084 49.1253 257.336 48.668 257.336 48.052C257.336 47.4733 257.14 47.0627 256.748 46.82C256.375 46.5773 255.684 46.3907 254.676 46.26L250.868 45.756C249.543 45.588 248.507 45.2147 247.76 44.636C247.013 44.0387 246.64 43.152 246.64 41.976C246.64 41.1547 246.883 40.436 247.368 39.82C247.853 39.1853 248.581 38.6907 249.552 38.336C250.523 37.9813 251.717 37.804 253.136 37.804C254.555 37.804 255.768 37.9907 256.776 38.364C257.803 38.7373 258.587 39.2973 259.128 40.044C259.688 40.7907 259.968 41.7147 259.968 42.816V42.9H256.972V42.732C256.972 42.1907 256.86 41.7333 256.636 41.36C256.412 40.9867 256.011 40.7067 255.432 40.52C254.872 40.3147 254.079 40.212 253.052 40.212C251.764 40.212 250.868 40.3613 250.364 40.66C249.86 40.9587 249.608 41.4347 249.608 42.088C249.608 42.6293 249.795 43.0213 250.168 43.264C250.541 43.5067 251.241 43.7027 252.268 43.852L255.488 44.3C257.131 44.5053 258.344 44.9067 259.128 45.504C259.912 46.1013 260.304 46.9787 260.304 48.136C260.304 48.9947 260.033 49.7413 259.492 50.376C258.951 50.992 258.195 51.468 257.224 51.804C256.253 52.1213 255.115 52.28 253.808 52.28ZM287.098 52H284.102V44.44C284.102 43.0587 283.813 42.06 283.234 41.444C282.655 40.828 281.685 40.52 280.322 40.52C278.847 40.52 277.802 40.9027 277.186 41.668C276.589 42.4147 276.29 43.5627 276.29 45.112L275.758 45.14L275.59 42.396H276.206C276.337 41.5933 276.607 40.8467 277.018 40.156C277.429 39.4653 278.017 38.9053 278.782 38.476C279.547 38.028 280.509 37.804 281.666 37.804C282.879 37.804 283.887 38.056 284.69 38.56C285.493 39.064 286.09 39.7547 286.482 40.632C286.893 41.5093 287.098 42.508 287.098 43.628V52ZM265.51 52H262.486V38.084H265.258V42.452L265.51 42.592V52ZM276.29 52H273.294V44.44C273.294 43.0587 273.005 42.06 272.426 41.444C271.847 40.828 270.886 40.52 269.542 40.52C268.049 40.52 267.003 40.9027 266.406 41.668C265.809 42.4147 265.51 43.5627 265.51 45.112L264.978 45.14L264.838 42.284H265.426C265.557 41.5 265.818 40.772 266.21 40.1C266.602 39.428 267.171 38.8773 267.918 38.448C268.665 38.0187 269.617 37.804 270.774 37.804C271.987 37.804 272.986 38.0653 273.77 38.588C274.554 39.092 275.142 39.7827 275.534 40.66C275.926 41.5373 276.122 42.5267 276.122 43.628H276.29V52ZM292.826 52H289.802V38.084H292.826V52ZM292.826 36.46H289.802V33.24H292.826V36.46ZM298.651 52H295.627V33.24H298.651V52ZM308.451 52.28C306.939 52.28 305.613 52 304.475 51.44C303.336 50.88 302.449 50.0587 301.815 48.976C301.199 47.8933 300.891 46.5867 300.891 45.056C300.891 43.6 301.199 42.3307 301.815 41.248C302.449 40.1653 303.327 39.3253 304.447 38.728C305.567 38.112 306.883 37.804 308.395 37.804C309.832 37.804 311.092 38.0653 312.175 38.588C313.276 39.092 314.125 39.8387 314.723 40.828C315.339 41.7987 315.647 42.9933 315.647 44.412C315.647 44.6547 315.637 44.888 315.619 45.112C315.6 45.3173 315.572 45.5227 315.535 45.728H302.823V44.048H313.547L312.763 45.084C312.781 44.8973 312.791 44.72 312.791 44.552C312.791 44.3653 312.791 44.1787 312.791 43.992C312.791 42.704 312.417 41.752 311.671 41.136C310.943 40.5013 309.832 40.184 308.339 40.184C306.677 40.184 305.492 40.5667 304.783 41.332C304.073 42.0973 303.719 43.1987 303.719 44.636V45.364C303.719 46.82 304.073 47.9307 304.783 48.696C305.492 49.4613 306.687 49.844 308.367 49.844C309.823 49.844 310.868 49.62 311.503 49.172C312.156 48.7053 312.483 48.0613 312.483 47.24V47.016H315.507V47.268C315.507 48.2573 315.199 49.1347 314.583 49.9C313.985 50.6467 313.155 51.2347 312.091 51.664C311.045 52.0747 309.832 52.28 308.451 52.28ZM325.304 45.896H322.28V44.944C322.28 44.384 322.382 43.8987 322.588 43.488C322.812 43.0773 323.129 42.7227 323.54 42.424C323.95 42.1253 324.436 41.8547 324.996 41.612L327.012 40.744C327.796 40.3893 328.393 40.0347 328.804 39.68C329.233 39.3067 329.448 38.8027 329.448 38.168C329.448 37.6827 329.326 37.2627 329.084 36.908C328.841 36.5347 328.402 36.2453 327.768 36.04C327.133 35.816 326.209 35.704 324.996 35.704C323.036 35.704 321.673 36.0027 320.908 36.6C320.142 37.1973 319.76 38.084 319.76 39.26V40.072H316.792V39.428C316.792 38.2707 317.072 37.1973 317.632 36.208C318.21 35.2187 319.116 34.4347 320.348 33.856C321.598 33.2587 323.213 32.96 325.192 32.96C326.928 32.96 328.328 33.1933 329.392 33.66C330.456 34.108 331.23 34.724 331.716 35.508C332.22 36.2733 332.472 37.1227 332.472 38.056C332.472 38.952 332.276 39.708 331.884 40.324C331.51 40.9213 331.034 41.416 330.456 41.808C329.877 42.2 329.261 42.536 328.608 42.816L326.592 43.656C326.069 43.8613 325.724 44.0853 325.556 44.328C325.388 44.5707 325.304 44.8973 325.304 45.308V45.896ZM325.528 52H322.112V47.856H325.528V52Z" fill="black"/>
</svg>
