<svg width="424" height="150" viewBox="0 0 424 150" fill="none" xmlns="http://www.w3.org/2000/svg">
<mask id="path-1-outside-1_798_2" maskUnits="userSpaceOnUse" x="0.043457" y="0" width="424" height="150" fill="black">
<rect fill="white" x="0.043457" width="424" height="150"/>
<path fill-rule="evenodd" clip-rule="evenodd" d="M42.0435 2C19.9521 2 2.04346 19.9086 2.04346 42V69C2.04346 91.0914 19.9521 109 42.0435 109H56.6438C56.6914 110.039 57.31 129.39 38.5058 147.947C38.5058 147.947 86.666 151.081 92.1724 109H382C387.325 109 392.406 107.96 397.053 106.071C404.868 102.994 411.335 97.605 415.651 90.6335C419.669 84.3966 422 76.9706 422 69V42C422 19.9086 404.091 2 382 2H42.0435Z"/>
</mask>
<path fill-rule="evenodd" clip-rule="evenodd" d="M42.0435 2C19.9521 2 2.04346 19.9086 2.04346 42V69C2.04346 91.0914 19.9521 109 42.0435 109H56.6438C56.6914 110.039 57.31 129.39 38.5058 147.947C38.5058 147.947 86.666 151.081 92.1724 109H382C387.325 109 392.406 107.96 397.053 106.071C404.868 102.994 411.335 97.605 415.651 90.6335C419.669 84.3966 422 76.9706 422 69V42C422 19.9086 404.091 2 382 2H42.0435Z" fill="white"/>
<path d="M56.6438 109L58.6417 108.909L58.5543 107H56.6438V109ZM38.5058 147.947L37.101 146.524L33.9293 149.654L38.376 149.943L38.5058 147.947ZM92.1724 109V107H90.417L90.1893 108.741L92.1724 109ZM397.053 106.071L396.32 104.21L396.31 104.214L396.3 104.218L397.053 106.071ZM415.651 90.6335L413.969 89.5504L413.96 89.5655L413.95 89.5808L415.651 90.6335ZM4.04346 42C4.04346 21.0132 21.0566 4 42.0435 4V0C18.8475 0 0.043457 18.804 0.043457 42H4.04346ZM4.04346 69V42H0.043457V69H4.04346ZM42.0435 107C21.0567 107 4.04346 89.9868 4.04346 69H0.043457C0.043457 92.196 18.8475 111 42.0435 111V107ZM56.6438 107H42.0435V111H56.6438V107ZM39.9106 149.371C59.2714 130.264 58.7034 110.256 58.6417 108.909L54.6459 109.091C54.6794 109.823 55.3486 128.516 37.101 146.524L39.9106 149.371ZM90.1893 108.741C87.562 128.819 74.857 138.06 62.6106 142.367C56.4572 144.531 50.4463 145.431 45.9592 145.786C43.7202 145.963 41.8724 146.003 40.5912 146C39.9509 145.998 39.453 145.985 39.1195 145.974C38.9528 145.968 38.8273 145.962 38.7457 145.958C38.7049 145.956 38.6751 145.954 38.6567 145.953C38.6474 145.952 38.641 145.952 38.6375 145.952C38.6358 145.952 38.6347 145.952 38.6344 145.951C38.6342 145.951 38.6346 145.952 38.6345 145.952C38.635 145.952 38.6356 145.952 38.5058 147.947C38.376 149.943 38.377 149.943 38.3782 149.943C38.3789 149.943 38.3803 149.943 38.3816 149.943C38.3842 149.944 38.3875 149.944 38.3916 149.944C38.3998 149.945 38.4108 149.945 38.4248 149.946C38.4526 149.948 38.492 149.95 38.5425 149.952C38.6435 149.958 38.7891 149.964 38.9765 149.971C39.3512 149.984 39.8933 149.998 40.5807 150C41.9548 150.003 43.9124 149.96 46.2745 149.773C50.9896 149.4 57.3629 148.453 63.9378 146.141C77.1481 141.494 91.2764 131.262 94.1555 109.259L90.1893 108.741ZM382 107H92.1724V111H382V107ZM396.3 104.218C391.888 106.011 387.062 107 382 107V111C387.587 111 392.924 109.908 397.806 107.924L396.3 104.218ZM413.95 89.5808C409.865 96.1796 403.741 101.288 396.32 104.21L397.785 107.932C405.996 104.699 412.805 99.0304 417.351 91.6862L413.95 89.5808ZM420 69C420 76.575 417.785 83.6267 413.969 89.5504L417.332 91.7166C421.552 85.1665 424 77.3661 424 69H420ZM420 42V69H424V42H420ZM382 4C402.987 4 420 21.0132 420 42H424C424 18.804 405.196 0 382 0V4ZM42.0435 4H382V0H42.0435V4Z" fill="black" mask="url(#path-1-outside-1_798_2)"/>
<path d="M50.7976 40.7H47.9976L39.6536 28.24H43.3496L47.7736 34.904L49.3416 37.284H49.5656L51.1056 34.904L55.5016 28.24H59.2256L50.7976 40.7ZM50.8816 47H47.8856V38.74H50.8816V47ZM67.5022 47.28C65.9716 47.28 64.6182 46.9813 63.4422 46.384C62.2849 45.768 61.3796 44.9187 60.7262 43.836C60.0916 42.7347 59.7742 41.4747 59.7742 40.056C59.7742 38.6 60.0916 37.3307 60.7262 36.248C61.3796 35.1653 62.2849 34.3253 63.4422 33.728C64.6182 33.112 65.9716 32.804 67.5022 32.804C69.0702 32.804 70.4329 33.112 71.5902 33.728C72.7476 34.3253 73.6436 35.1653 74.2782 36.248C74.9316 37.3307 75.2582 38.6 75.2582 40.056C75.2582 41.4747 74.9316 42.7347 74.2782 43.836C73.6436 44.9187 72.7476 45.768 71.5902 46.384C70.4329 46.9813 69.0702 47.28 67.5022 47.28ZM67.5022 44.592C69.2009 44.592 70.4236 44.2093 71.1702 43.444C71.9169 42.66 72.2902 41.5307 72.2902 40.056C72.2902 38.5813 71.9169 37.452 71.1702 36.668C70.4236 35.8653 69.2009 35.464 67.5022 35.464C65.8222 35.464 64.6089 35.8653 63.8622 36.668C63.1156 37.452 62.7422 38.5813 62.7422 40.056C62.7422 41.5307 63.1156 42.66 63.8622 43.444C64.6089 44.2093 65.8222 44.592 67.5022 44.592ZM83.2487 47.28C81.9421 47.28 80.8594 47.0187 80.0007 46.496C79.1421 45.9733 78.4981 45.2733 78.0687 44.396C77.6394 43.5187 77.4247 42.5387 77.4247 41.456V33.084H80.4207V40.644C80.4207 41.932 80.7381 42.912 81.3727 43.584C82.0261 44.2373 83.0901 44.564 84.5647 44.564C86.1141 44.564 87.2434 44.1813 87.9527 43.416C88.6807 42.632 89.0447 41.484 89.0447 39.972L89.5767 39.944L89.7447 42.688H89.1007C88.9701 43.472 88.6714 44.2093 88.2047 44.9C87.7381 45.5907 87.0941 46.16 86.2727 46.608C85.4701 47.056 84.4621 47.28 83.2487 47.28ZM92.0687 47H89.2967V42.632L89.0447 42.492V33.084H92.0687V47ZM97.84 47H94.816V33.084H97.588V37.032L97.84 37.172V47ZM97.84 39.188H97.168V36.836H97.784C97.9147 36.0707 98.176 35.3893 98.568 34.792C98.96 34.176 99.4827 33.6907 100.136 33.336C100.808 32.9813 101.62 32.804 102.572 32.804C103.636 32.804 104.504 33.028 105.176 33.476C105.848 33.924 106.333 34.5213 106.632 35.268C106.949 36.0147 107.108 36.8267 107.108 37.704V39.524H104.112V38.292C104.112 37.284 103.888 36.5467 103.44 36.08C102.992 35.6133 102.245 35.38 101.2 35.38C100.005 35.38 99.1467 35.7067 98.624 36.36C98.1013 37.0133 97.84 37.956 97.84 39.188ZM120.905 47.28C119.374 47.28 118.021 46.9813 116.845 46.384C115.687 45.768 114.782 44.9187 114.129 43.836C113.494 42.7347 113.177 41.4747 113.177 40.056C113.177 38.6 113.494 37.3307 114.129 36.248C114.782 35.1653 115.687 34.3253 116.845 33.728C118.021 33.112 119.374 32.804 120.905 32.804C122.473 32.804 123.835 33.112 124.993 33.728C126.15 34.3253 127.046 35.1653 127.681 36.248C128.334 37.3307 128.661 38.6 128.661 40.056C128.661 41.4747 128.334 42.7347 127.681 43.836C127.046 44.9187 126.15 45.768 124.993 46.384C123.835 46.9813 122.473 47.28 120.905 47.28ZM120.905 44.592C122.603 44.592 123.826 44.2093 124.573 43.444C125.319 42.66 125.693 41.5307 125.693 40.056C125.693 38.5813 125.319 37.452 124.573 36.668C123.826 35.8653 122.603 35.464 120.905 35.464C119.225 35.464 118.011 35.8653 117.265 36.668C116.518 37.452 116.145 38.5813 116.145 40.056C116.145 41.5307 116.518 42.66 117.265 43.444C118.011 44.2093 119.225 44.592 120.905 44.592ZM139.703 47.28C138.154 47.28 136.884 46.8973 135.895 46.132C134.906 45.3667 134.271 44.3493 133.991 43.08H133.347V40.28H133.879C133.879 41.2133 134.075 42.0067 134.467 42.66C134.859 43.2947 135.41 43.7707 136.119 44.088C136.847 44.3867 137.696 44.536 138.667 44.536C139.675 44.536 140.524 44.396 141.215 44.116C141.924 43.8173 142.466 43.3413 142.839 42.688C143.212 42.0347 143.399 41.1573 143.399 40.056C143.399 38.936 143.212 38.0493 142.839 37.396C142.466 36.7427 141.924 36.276 141.215 35.996C140.524 35.716 139.694 35.576 138.723 35.576C137.174 35.576 135.979 35.9493 135.139 36.696C134.299 37.424 133.879 38.5347 133.879 40.028H133.347L133.151 36.948H133.879C134.159 35.66 134.784 34.652 135.755 33.924C136.744 33.1773 138.051 32.804 139.675 32.804C141.112 32.804 142.335 33.112 143.343 33.728C144.351 34.3253 145.116 35.1653 145.639 36.248C146.162 37.3307 146.423 38.6 146.423 40.056C146.423 41.4747 146.162 42.7347 145.639 43.836C145.135 44.9187 144.379 45.768 143.371 46.384C142.382 46.9813 141.159 47.28 139.703 47.28ZM133.879 51.76H130.855V33.084H133.627V37.452L133.879 37.816V51.76ZM151.543 47H148.519V33.084H151.543V47ZM151.543 31.46H148.519V28.24H151.543V31.46ZM168.875 47H165.851V39.44C165.851 38.1333 165.534 37.1533 164.899 36.5C164.283 35.8467 163.247 35.52 161.791 35.52C160.279 35.52 159.159 35.912 158.431 36.696C157.722 37.4613 157.367 38.6 157.367 40.112L156.835 40.14L156.695 37.396H157.311C157.461 36.612 157.759 35.8747 158.207 35.184C158.674 34.4747 159.309 33.9053 160.111 33.476C160.933 33.028 161.931 32.804 163.107 32.804C164.395 32.804 165.469 33.0653 166.327 33.588C167.186 34.1107 167.821 34.8107 168.231 35.688C168.661 36.5653 168.875 37.5453 168.875 38.628V47ZM157.367 47H154.343V33.084H157.115V37.452L157.367 37.592V47ZM174.594 47H171.57V33.084H174.594V47ZM174.594 31.46H171.57V28.24H174.594V31.46ZM184.506 47.28C182.975 47.28 181.622 46.9813 180.446 46.384C179.289 45.768 178.383 44.9187 177.73 43.836C177.095 42.7347 176.778 41.4747 176.778 40.056C176.778 38.6 177.095 37.3307 177.73 36.248C178.383 35.1653 179.289 34.3253 180.446 33.728C181.622 33.112 182.975 32.804 184.506 32.804C186.074 32.804 187.437 33.112 188.594 33.728C189.751 34.3253 190.647 35.1653 191.282 36.248C191.935 37.3307 192.262 38.6 192.262 40.056C192.262 41.4747 191.935 42.7347 191.282 43.836C190.647 44.9187 189.751 45.768 188.594 46.384C187.437 46.9813 186.074 47.28 184.506 47.28ZM184.506 44.592C186.205 44.592 187.427 44.2093 188.174 43.444C188.921 42.66 189.294 41.5307 189.294 40.056C189.294 38.5813 188.921 37.452 188.174 36.668C187.427 35.8653 186.205 35.464 184.506 35.464C182.826 35.464 181.613 35.8653 180.866 36.668C180.119 37.452 179.746 38.5813 179.746 40.056C179.746 41.5307 180.119 42.66 180.866 43.444C181.613 44.2093 182.826 44.592 184.506 44.592ZM208.989 47H205.965V39.44C205.965 38.1333 205.647 37.1533 205.013 36.5C204.397 35.8467 203.361 35.52 201.905 35.52C200.393 35.52 199.273 35.912 198.545 36.696C197.835 37.4613 197.481 38.6 197.481 40.112L196.949 40.14L196.809 37.396H197.425C197.574 36.612 197.873 35.8747 198.321 35.184C198.787 34.4747 199.422 33.9053 200.225 33.476C201.046 33.028 202.045 32.804 203.221 32.804C204.509 32.804 205.582 33.0653 206.441 33.588C207.299 34.1107 207.934 34.8107 208.345 35.688C208.774 36.5653 208.989 37.5453 208.989 38.628V47ZM197.481 47H194.457V33.084H197.229V37.452L197.481 37.592V47ZM219.492 47H216.468V33.084H219.492V47ZM219.492 31.46H216.468V28.24H219.492V31.46ZM228.873 47.28C226.633 47.28 224.897 46.8507 223.665 45.992C222.451 45.1333 221.845 43.9013 221.845 42.296V42.212H224.869V42.436C224.869 43.3507 225.167 43.9853 225.765 44.34C226.381 44.676 227.417 44.844 228.873 44.844C230.235 44.844 231.159 44.704 231.645 44.424C232.149 44.1253 232.401 43.668 232.401 43.052C232.401 42.4733 232.205 42.0627 231.813 41.82C231.439 41.5773 230.749 41.3907 229.741 41.26L225.933 40.756C224.607 40.588 223.571 40.2147 222.825 39.636C222.078 39.0387 221.705 38.152 221.705 36.976C221.705 36.1547 221.947 35.436 222.433 34.82C222.918 34.1853 223.646 33.6907 224.617 33.336C225.587 32.9813 226.782 32.804 228.201 32.804C229.619 32.804 230.833 32.9907 231.841 33.364C232.867 33.7373 233.651 34.2973 234.193 35.044C234.753 35.7907 235.033 36.7147 235.033 37.816V37.9H232.037V37.732C232.037 37.1907 231.925 36.7333 231.701 36.36C231.477 35.9867 231.075 35.7067 230.497 35.52C229.937 35.3147 229.143 35.212 228.117 35.212C226.829 35.212 225.933 35.3613 225.429 35.66C224.925 35.9587 224.673 36.4347 224.673 37.088C224.673 37.6293 224.859 38.0213 225.233 38.264C225.606 38.5067 226.306 38.7027 227.333 38.852L230.553 39.3C232.195 39.5053 233.409 39.9067 234.193 40.504C234.977 41.1013 235.369 41.9787 235.369 43.136C235.369 43.9947 235.098 44.7413 234.557 45.376C234.015 45.992 233.259 46.468 232.289 46.804C231.318 47.1213 230.179 47.28 228.873 47.28ZM251.268 47H247.572L241.076 33.084H244.408L249.364 44.06H249.588L254.544 33.084H257.82L251.268 47ZM266.371 47.28C264.859 47.28 263.533 47 262.395 46.44C261.256 45.88 260.369 45.0587 259.735 43.976C259.119 42.8933 258.811 41.5867 258.811 40.056C258.811 38.6 259.119 37.3307 259.735 36.248C260.369 35.1653 261.247 34.3253 262.367 33.728C263.487 33.112 264.803 32.804 266.315 32.804C267.752 32.804 269.012 33.0653 270.095 33.588C271.196 34.092 272.045 34.8387 272.643 35.828C273.259 36.7987 273.567 37.9933 273.567 39.412C273.567 39.6547 273.557 39.888 273.539 40.112C273.52 40.3173 273.492 40.5227 273.455 40.728H260.743V39.048H271.467L270.683 40.084C270.701 39.8973 270.711 39.72 270.711 39.552C270.711 39.3653 270.711 39.1787 270.711 38.992C270.711 37.704 270.337 36.752 269.591 36.136C268.863 35.5013 267.752 35.184 266.259 35.184C264.597 35.184 263.412 35.5667 262.703 36.332C261.993 37.0973 261.639 38.1987 261.639 39.636V40.364C261.639 41.82 261.993 42.9307 262.703 43.696C263.412 44.4613 264.607 44.844 266.287 44.844C267.743 44.844 268.788 44.62 269.423 44.172C270.076 43.7053 270.403 43.0613 270.403 42.24V42.016H273.427V42.268C273.427 43.2573 273.119 44.1347 272.503 44.9C271.905 45.6467 271.075 46.2347 270.011 46.664C268.965 47.0747 267.752 47.28 266.371 47.28ZM278.856 47H275.832V33.084H278.604V37.032L278.856 37.172V47ZM278.856 39.188H278.184V36.836H278.8C278.93 36.0707 279.192 35.3893 279.584 34.792C279.976 34.176 280.498 33.6907 281.152 33.336C281.824 32.9813 282.636 32.804 283.588 32.804C284.652 32.804 285.52 33.028 286.192 33.476C286.864 33.924 287.349 34.5213 287.648 35.268C287.965 36.0147 288.124 36.8267 288.124 37.704V39.524H285.128V38.292C285.128 37.284 284.904 36.5467 284.456 36.08C284.008 35.6133 283.261 35.38 282.216 35.38C281.021 35.38 280.162 35.7067 279.64 36.36C279.117 37.0133 278.856 37.956 278.856 39.188ZM292.263 51.76H290.275V49.016H292.991C293.607 49.016 294.064 48.9133 294.363 48.708C294.68 48.5213 294.942 48.1947 295.147 47.728L296.015 45.852L295.679 47.392L288.623 33.084H292.011L295.567 40.476L296.939 43.808H297.163L298.479 40.448L301.755 33.084H305.087L297.835 48.512C297.462 49.3333 297.023 49.9773 296.519 50.444C296.015 50.9293 295.418 51.2653 294.727 51.452C294.036 51.6573 293.215 51.76 292.263 51.76ZM44.2736 81H41.2496V67.084H44.2736V81ZM44.2736 65.46H41.2496V62.24H44.2736V65.46ZM71.6858 81H68.6898V73.44C68.6898 72.0587 68.4005 71.06 67.8218 70.444C67.2432 69.828 66.2725 69.52 64.9098 69.52C63.4352 69.52 62.3898 69.9027 61.7738 70.668C61.1765 71.4147 60.8778 72.5627 60.8778 74.112L60.3458 74.14L60.1778 71.396H60.7938C60.9245 70.5933 61.1952 69.8467 61.6058 69.156C62.0165 68.4653 62.6045 67.9053 63.3698 67.476C64.1352 67.028 65.0965 66.804 66.2538 66.804C67.4672 66.804 68.4752 67.056 69.2778 67.56C70.0805 68.064 70.6778 68.7547 71.0698 69.632C71.4805 70.5093 71.6858 71.508 71.6858 72.628V81ZM50.0978 81H47.0738V67.084H49.8458V71.452L50.0978 71.592V81ZM60.8778 81H57.8818V73.44C57.8818 72.0587 57.5925 71.06 57.0138 70.444C56.4352 69.828 55.4738 69.52 54.1298 69.52C52.6365 69.52 51.5912 69.9027 50.9938 70.668C50.3965 71.4147 50.0978 72.5627 50.0978 74.112L49.5658 74.14L49.4258 71.284H50.0138C50.1445 70.5 50.4058 69.772 50.7978 69.1C51.1898 68.428 51.7592 67.8773 52.5058 67.448C53.2525 67.0187 54.2045 66.804 55.3618 66.804C56.5752 66.804 57.5738 67.0653 58.3578 67.588C59.1418 68.092 59.7298 68.7827 60.1218 69.66C60.5138 70.5373 60.7098 71.5267 60.7098 72.628H60.8778V81ZM83.2382 81.28C81.6889 81.28 80.4196 80.8973 79.4302 80.132C78.4409 79.3667 77.8062 78.3493 77.5262 77.08H76.8822V74.28H77.4142C77.4142 75.2133 77.6102 76.0067 78.0022 76.66C78.3942 77.2947 78.9449 77.7707 79.6542 78.088C80.3822 78.3867 81.2316 78.536 82.2022 78.536C83.2102 78.536 84.0596 78.396 84.7502 78.116C85.4596 77.8173 86.0009 77.3413 86.3742 76.688C86.7476 76.0347 86.9342 75.1573 86.9342 74.056C86.9342 72.936 86.7476 72.0493 86.3742 71.396C86.0009 70.7427 85.4596 70.276 84.7502 69.996C84.0596 69.716 83.2289 69.576 82.2582 69.576C80.7089 69.576 79.5142 69.9493 78.6742 70.696C77.8342 71.424 77.4142 72.5347 77.4142 74.028H76.8822L76.6862 70.948H77.4142C77.6942 69.66 78.3196 68.652 79.2902 67.924C80.2796 67.1773 81.5862 66.804 83.2102 66.804C84.6476 66.804 85.8702 67.112 86.8782 67.728C87.8862 68.3253 88.6516 69.1653 89.1742 70.248C89.6969 71.3307 89.9582 72.6 89.9582 74.056C89.9582 75.4747 89.6969 76.7347 89.1742 77.836C88.6702 78.9187 87.9142 79.768 86.9062 80.384C85.9169 80.9813 84.6942 81.28 83.2382 81.28ZM77.4142 85.76H74.3902V67.084H77.1622V71.452L77.4142 71.816V85.76ZM99.1663 81.28C97.6356 81.28 96.2823 80.9813 95.1063 80.384C93.949 79.768 93.0436 78.9187 92.3903 77.836C91.7556 76.7347 91.4383 75.4747 91.4383 74.056C91.4383 72.6 91.7556 71.3307 92.3903 70.248C93.0436 69.1653 93.949 68.3253 95.1063 67.728C96.2823 67.112 97.6356 66.804 99.1663 66.804C100.734 66.804 102.097 67.112 103.254 67.728C104.412 68.3253 105.308 69.1653 105.942 70.248C106.596 71.3307 106.922 72.6 106.922 74.056C106.922 75.4747 106.596 76.7347 105.942 77.836C105.308 78.9187 104.412 79.768 103.254 80.384C102.097 80.9813 100.734 81.28 99.1663 81.28ZM99.1663 78.592C100.865 78.592 102.088 78.2093 102.834 77.444C103.581 76.66 103.954 75.5307 103.954 74.056C103.954 72.5813 103.581 71.452 102.834 70.668C102.088 69.8653 100.865 69.464 99.1663 69.464C97.4863 69.464 96.273 69.8653 95.5263 70.668C94.7796 71.452 94.4063 72.5813 94.4063 74.056C94.4063 75.5307 94.7796 76.66 95.5263 77.444C96.273 78.2093 97.4863 78.592 99.1663 78.592ZM112.141 81H109.117V67.084H111.889V71.032L112.141 71.172V81ZM112.141 73.188H111.469V70.836H112.085C112.215 70.0707 112.477 69.3893 112.869 68.792C113.261 68.176 113.783 67.6907 114.437 67.336C115.109 66.9813 115.921 66.804 116.873 66.804C117.937 66.804 118.805 67.028 119.477 67.476C120.149 67.924 120.634 68.5213 120.933 69.268C121.25 70.0147 121.409 70.8267 121.409 71.704V73.524H118.413V72.292C118.413 71.284 118.189 70.5467 117.741 70.08C117.293 69.6133 116.546 69.38 115.501 69.38C114.306 69.38 113.447 69.7067 112.925 70.36C112.402 71.0133 112.141 71.956 112.141 73.188ZM132.436 81H129.244C127.751 81 126.566 80.636 125.688 79.908C124.83 79.18 124.4 77.976 124.4 76.296V64.032H127.396V76.128C127.396 76.9867 127.602 77.5653 128.012 77.864C128.423 78.144 129.058 78.284 129.916 78.284H132.436V81ZM132.436 69.604H122.048V67.084H132.436V69.604ZM147.488 81H144.716V77.416L144.52 77.332V72.572C144.52 71.4147 144.24 70.612 143.68 70.164C143.138 69.6973 142.196 69.464 140.852 69.464C139.564 69.464 138.602 69.688 137.968 70.136C137.333 70.584 137.016 71.3213 137.016 72.348V72.46H134.02V72.348C134.02 71.284 134.3 70.3413 134.86 69.52C135.42 68.68 136.222 68.0173 137.268 67.532C138.332 67.0467 139.601 66.804 141.076 66.804C142.55 66.804 143.754 67.056 144.688 67.56C145.64 68.0453 146.34 68.7173 146.788 69.576C147.254 70.4347 147.488 71.424 147.488 72.544V81ZM138.416 81.28C136.978 81.28 135.83 80.9627 134.972 80.328C134.132 79.6747 133.712 78.7787 133.712 77.64C133.712 76.912 133.889 76.3053 134.244 75.82C134.617 75.316 135.14 74.924 135.812 74.644C136.484 74.364 137.277 74.168 138.192 74.056L144.8 73.356V75.148L139.06 75.792C138.276 75.8853 137.688 76.0533 137.296 76.296C136.922 76.52 136.736 76.9027 136.736 77.444C136.736 78.004 136.932 78.424 137.324 78.704C137.734 78.9653 138.369 79.096 139.228 79.096C140.292 79.096 141.216 78.9653 142 78.704C142.784 78.424 143.4 77.9947 143.848 77.416C144.296 76.8373 144.52 76.0907 144.52 75.176L144.912 75.232V77.528H144.52C144.146 78.704 143.428 79.628 142.364 80.3C141.318 80.9533 140.002 81.28 138.416 81.28ZM164.719 81H161.695V73.44C161.695 72.1333 161.378 71.1533 160.743 70.5C160.127 69.8467 159.091 69.52 157.635 69.52C156.123 69.52 155.003 69.912 154.275 70.696C153.566 71.4613 153.211 72.6 153.211 74.112L152.679 74.14L152.539 71.396H153.155C153.304 70.612 153.603 69.8747 154.051 69.184C154.518 68.4747 155.152 67.9053 155.955 67.476C156.776 67.028 157.775 66.804 158.951 66.804C160.239 66.804 161.312 67.0653 162.171 67.588C163.03 68.1107 163.664 68.8107 164.075 69.688C164.504 70.5653 164.719 71.5453 164.719 72.628V81ZM153.211 81H150.187V67.084H152.959V71.452L153.211 71.592V81ZM176.542 81H173.35C171.856 81 170.671 80.636 169.794 79.908C168.935 79.18 168.506 77.976 168.506 76.296V64.032H171.502V76.128C171.502 76.9867 171.707 77.5653 172.118 77.864C172.528 78.144 173.163 78.284 174.022 78.284H176.542V81ZM176.542 69.604H166.154V67.084H176.542V69.604ZM192.346 81H189.154C187.661 81 186.476 80.636 185.598 79.908C184.74 79.18 184.31 77.976 184.31 76.296V64.032H187.306V76.128C187.306 76.9867 187.512 77.5653 187.922 77.864C188.333 78.144 188.968 78.284 189.826 78.284H192.346V81ZM192.346 69.604H181.958V67.084H192.346V69.604ZM201.35 81.28C199.819 81.28 198.466 80.9813 197.29 80.384C196.133 79.768 195.227 78.9187 194.574 77.836C193.939 76.7347 193.622 75.4747 193.622 74.056C193.622 72.6 193.939 71.3307 194.574 70.248C195.227 69.1653 196.133 68.3253 197.29 67.728C198.466 67.112 199.819 66.804 201.35 66.804C202.918 66.804 204.281 67.112 205.438 67.728C206.595 68.3253 207.491 69.1653 208.126 70.248C208.779 71.3307 209.106 72.6 209.106 74.056C209.106 75.4747 208.779 76.7347 208.126 77.836C207.491 78.9187 206.595 79.768 205.438 80.384C204.281 80.9813 202.918 81.28 201.35 81.28ZM201.35 78.592C203.049 78.592 204.271 78.2093 205.018 77.444C205.765 76.66 206.138 75.5307 206.138 74.056C206.138 72.5813 205.765 71.452 205.018 70.668C204.271 69.8653 203.049 69.464 201.35 69.464C199.67 69.464 198.457 69.8653 197.71 70.668C196.963 71.452 196.59 72.5813 196.59 74.056C196.59 75.5307 196.963 76.66 197.71 77.444C198.457 78.2093 199.67 78.592 201.35 78.592ZM240.698 81H237.702V73.44C237.702 72.0587 237.412 71.06 236.834 70.444C236.255 69.828 235.284 69.52 233.922 69.52C232.447 69.52 231.402 69.9027 230.786 70.668C230.188 71.4147 229.89 72.5627 229.89 74.112L229.358 74.14L229.19 71.396H229.806C229.936 70.5933 230.207 69.8467 230.618 69.156C231.028 68.4653 231.616 67.9053 232.382 67.476C233.147 67.028 234.108 66.804 235.266 66.804C236.479 66.804 237.487 67.056 238.29 67.56C239.092 68.064 239.69 68.7547 240.082 69.632C240.492 70.5093 240.698 71.508 240.698 72.628V81ZM219.11 81H216.086V67.084H218.858V71.452L219.11 71.592V81ZM229.89 81H226.894V73.44C226.894 72.0587 226.604 71.06 226.026 70.444C225.447 69.828 224.486 69.52 223.142 69.52C221.648 69.52 220.603 69.9027 220.006 70.668C219.408 71.4147 219.11 72.5627 219.11 74.112L218.578 74.14L218.438 71.284H219.026C219.156 70.5 219.418 69.772 219.81 69.1C220.202 68.428 220.771 67.8773 221.518 67.448C222.264 67.0187 223.216 66.804 224.374 66.804C225.587 66.804 226.586 67.0653 227.37 67.588C228.154 68.092 228.742 68.7827 229.134 69.66C229.526 70.5373 229.722 71.5267 229.722 72.628H229.89V81ZM250.402 81.28C248.89 81.28 247.565 81 246.426 80.44C245.287 79.88 244.401 79.0587 243.766 77.976C243.15 76.8933 242.842 75.5867 242.842 74.056C242.842 72.6 243.15 71.3307 243.766 70.248C244.401 69.1653 245.278 68.3253 246.398 67.728C247.518 67.112 248.834 66.804 250.346 66.804C251.783 66.804 253.043 67.0653 254.126 67.588C255.227 68.092 256.077 68.8387 256.674 69.828C257.29 70.7987 257.598 71.9933 257.598 73.412C257.598 73.6547 257.589 73.888 257.57 74.112C257.551 74.3173 257.523 74.5227 257.486 74.728H244.774V73.048H255.498L254.714 74.084C254.733 73.8973 254.742 73.72 254.742 73.552C254.742 73.3653 254.742 73.1787 254.742 72.992C254.742 71.704 254.369 70.752 253.622 70.136C252.894 69.5013 251.783 69.184 250.29 69.184C248.629 69.184 247.443 69.5667 246.734 70.332C246.025 71.0973 245.67 72.1987 245.67 73.636V74.364C245.67 75.82 246.025 76.9307 246.734 77.696C247.443 78.4613 248.638 78.844 250.318 78.844C251.774 78.844 252.819 78.62 253.454 78.172C254.107 77.7053 254.434 77.0613 254.434 76.24V76.016H257.458V76.268C257.458 77.2573 257.15 78.1347 256.534 78.9C255.937 79.6467 255.106 80.2347 254.042 80.664C252.997 81.0747 251.783 81.28 250.402 81.28ZM263.111 81H259.303V76.66H263.111V81ZM268.607 81H264.799V76.66H268.607V81ZM274.103 81H270.295V76.66H274.103V81Z" fill="black"/>
</svg>
