<svg width="441" height="121" viewBox="0 0 441 121" fill="none" xmlns="http://www.w3.org/2000/svg">
<path d="M68.7248 81.8491L68.821 80.9562H69.719L357.382 80.9562C375.418 80.9562 389.512 64.7496 389.512 42.5C389.512 20.2247 375.397 3.00002 357.382 3.00003L357.376 2.99999L33.9415 1.00002C33.9407 1.00002 33.9399 1.00002 33.9391 1.00002C15.9202 1.00163 1 18.7103 1 40.9781C1 63.2354 15.9216 80.9562 33.951 80.9562H40.2865H41.2381L41.2853 81.9066L40.2865 81.9562C41.2853 81.9066 41.2853 81.907 41.2854 81.9076L41.2854 81.9091L41.2856 81.9135L41.2863 81.9277L41.2882 81.9778C41.2898 82.0206 41.2917 82.0823 41.2935 82.1623C41.2971 82.3223 41.2999 82.5554 41.2978 82.8564C41.2934 83.4584 41.2687 84.3327 41.1883 85.4384C41.0276 87.6495 40.6438 90.7889 39.7527 94.5298C38.068 101.603 34.5675 110.834 27.3274 119.999C28.3761 119.994 29.7953 119.944 31.4785 119.784C35.2216 119.426 40.2466 118.519 45.3997 116.329C55.6457 111.974 66.4985 102.517 68.7248 81.8491Z" fill="white" stroke="black" stroke-width="2"/>
<path d="M50.7126 52.28C48.7712 52.28 47.0726 51.888 45.6166 51.104C44.1606 50.3013 43.0312 49.1813 42.2286 47.744C41.4259 46.288 41.0246 44.58 41.0246 42.62C41.0246 40.66 41.4259 38.9613 42.2286 37.524C43.0312 36.068 44.1606 34.948 45.6166 34.164C47.0726 33.3613 48.7712 32.96 50.7126 32.96C52.4859 32.96 54.0446 33.2587 55.3886 33.856C56.7512 34.4347 57.8059 35.2747 58.5526 36.376C59.3179 37.4587 59.7006 38.756 59.7006 40.268V40.632H56.3686V40.268C56.3686 38.8307 55.9019 37.7387 54.9686 36.992C54.0539 36.2453 52.6446 35.872 50.7406 35.872C49.2659 35.872 48.0432 36.1147 47.0726 36.6C46.1206 37.0667 45.4019 37.7947 44.9166 38.784C44.4499 39.7733 44.2166 41.052 44.2166 42.62C44.2166 44.1693 44.4499 45.448 44.9166 46.456C45.4019 47.4453 46.1206 48.1827 47.0726 48.668C48.0432 49.1347 49.2659 49.368 50.7406 49.368C52.6446 49.368 54.0539 48.9947 54.9686 48.248C55.9019 47.5013 56.3686 46.4093 56.3686 44.972V44.608H59.7006V44.972C59.7006 46.4653 59.3179 47.7627 58.5526 48.864C57.8059 49.9653 56.7512 50.8147 55.3886 51.412C54.0446 51.9907 52.4859 52.28 50.7126 52.28ZM75.0883 52H72.3163V48.416L72.1203 48.332V43.572C72.1203 42.4147 71.8403 41.612 71.2803 41.164C70.739 40.6973 69.7963 40.464 68.4523 40.464C67.1643 40.464 66.203 40.688 65.5683 41.136C64.9337 41.584 64.6163 42.3213 64.6163 43.348V43.46H61.6203V43.348C61.6203 42.284 61.9003 41.3413 62.4603 40.52C63.0203 39.68 63.823 39.0173 64.8683 38.532C65.9323 38.0467 67.2017 37.804 68.6763 37.804C70.151 37.804 71.355 38.056 72.2883 38.56C73.2403 39.0453 73.9403 39.7173 74.3883 40.576C74.855 41.4347 75.0883 42.424 75.0883 43.544V52ZM66.0163 52.28C64.579 52.28 63.431 51.9627 62.5723 51.328C61.7323 50.6747 61.3123 49.7787 61.3123 48.64C61.3123 47.912 61.4897 47.3053 61.8443 46.82C62.2177 46.316 62.7403 45.924 63.4123 45.644C64.0843 45.364 64.8777 45.168 65.7923 45.056L72.4003 44.356V46.148L66.6603 46.792C65.8763 46.8853 65.2883 47.0533 64.8963 47.296C64.523 47.52 64.3363 47.9027 64.3363 48.444C64.3363 49.004 64.5323 49.424 64.9243 49.704C65.335 49.9653 65.9697 50.096 66.8283 50.096C67.8923 50.096 68.8163 49.9653 69.6003 49.704C70.3843 49.424 71.0003 48.9947 71.4483 48.416C71.8963 47.8373 72.1203 47.0907 72.1203 46.176L72.5123 46.232V48.528H72.1203C71.747 49.704 71.0283 50.628 69.9643 51.3C68.919 51.9533 67.603 52.28 66.0163 52.28ZM92.3197 52H89.2957V44.44C89.2957 43.1333 88.9784 42.1533 88.3437 41.5C87.7277 40.8467 86.6917 40.52 85.2357 40.52C83.7237 40.52 82.6037 40.912 81.8757 41.696C81.1664 42.4613 80.8117 43.6 80.8117 45.112L80.2797 45.14L80.1397 42.396H80.7557C80.905 41.612 81.2037 40.8747 81.6517 40.184C82.1184 39.4747 82.753 38.9053 83.5557 38.476C84.377 38.028 85.3757 37.804 86.5517 37.804C87.8397 37.804 88.913 38.0653 89.7717 38.588C90.6304 39.1107 91.265 39.8107 91.6757 40.688C92.105 41.5653 92.3197 42.5453 92.3197 43.628V52ZM80.8117 52H77.7877V38.084H80.5597V42.452L80.8117 42.592V52ZM102.823 52H99.7994V33.24H102.823V52ZM125.053 52H122.057V44.44C122.057 43.04 121.73 42.0413 121.077 41.444C120.423 40.828 119.369 40.52 117.913 40.52C116.811 40.52 115.934 40.716 115.281 41.108C114.627 41.4813 114.151 42.0227 113.853 42.732C113.573 43.4227 113.433 44.2627 113.433 45.252L112.845 45.28L112.985 42.34H113.601C113.769 41.556 114.067 40.8187 114.497 40.128C114.945 39.4373 115.57 38.8773 116.373 38.448C117.175 38.0187 118.165 37.804 119.341 37.804C120.61 37.804 121.665 38.0653 122.505 38.588C123.363 39.092 123.998 39.792 124.409 40.688C124.838 41.5653 125.053 42.5733 125.053 43.712V52ZM113.433 52H110.409V33.24H113.433V52ZM140.932 52H138.16V48.416L137.964 48.332V43.572C137.964 42.4147 137.684 41.612 137.124 41.164C136.583 40.6973 135.64 40.464 134.296 40.464C133.008 40.464 132.047 40.688 131.412 41.136C130.777 41.584 130.46 42.3213 130.46 43.348V43.46H127.464V43.348C127.464 42.284 127.744 41.3413 128.304 40.52C128.864 39.68 129.667 39.0173 130.712 38.532C131.776 38.0467 133.045 37.804 134.52 37.804C135.995 37.804 137.199 38.056 138.132 38.56C139.084 39.0453 139.784 39.7173 140.232 40.576C140.699 41.4347 140.932 42.424 140.932 43.544V52ZM131.86 52.28C130.423 52.28 129.275 51.9627 128.416 51.328C127.576 50.6747 127.156 49.7787 127.156 48.64C127.156 47.912 127.333 47.3053 127.688 46.82C128.061 46.316 128.584 45.924 129.256 45.644C129.928 45.364 130.721 45.168 131.636 45.056L138.244 44.356V46.148L132.504 46.792C131.72 46.8853 131.132 47.0533 130.74 47.296C130.367 47.52 130.18 47.9027 130.18 48.444C130.18 49.004 130.376 49.424 130.768 49.704C131.179 49.9653 131.813 50.096 132.672 50.096C133.736 50.096 134.66 49.9653 135.444 49.704C136.228 49.424 136.844 48.9947 137.292 48.416C137.74 47.8373 137.964 47.0907 137.964 46.176L138.356 46.232V48.528H137.964C137.591 49.704 136.872 50.628 135.808 51.3C134.763 51.9533 133.447 52.28 131.86 52.28ZM152.563 52H148.867L142.371 38.084H145.703L150.659 49.06H150.883L155.839 38.084H159.115L152.563 52ZM167.667 52.28C166.155 52.28 164.829 52 163.691 51.44C162.552 50.88 161.665 50.0587 161.031 48.976C160.415 47.8933 160.107 46.5867 160.107 45.056C160.107 43.6 160.415 42.3307 161.031 41.248C161.665 40.1653 162.543 39.3253 163.663 38.728C164.783 38.112 166.099 37.804 167.611 37.804C169.048 37.804 170.308 38.0653 171.391 38.588C172.492 39.092 173.341 39.8387 173.939 40.828C174.555 41.7987 174.863 42.9933 174.863 44.412C174.863 44.6547 174.853 44.888 174.835 45.112C174.816 45.3173 174.788 45.5227 174.751 45.728H162.039V44.048H172.763L171.979 45.084C171.997 44.8973 172.007 44.72 172.007 44.552C172.007 44.3653 172.007 44.1787 172.007 43.992C172.007 42.704 171.633 41.752 170.887 41.136C170.159 40.5013 169.048 40.184 167.555 40.184C165.893 40.184 164.708 40.5667 163.999 41.332C163.289 42.0973 162.935 43.1987 162.935 44.636V45.364C162.935 46.82 163.289 47.9307 163.999 48.696C164.708 49.4613 165.903 49.844 167.583 49.844C169.039 49.844 170.084 49.62 170.719 49.172C171.372 48.7053 171.699 48.0613 171.699 47.24V47.016H174.723V47.268C174.723 48.2573 174.415 49.1347 173.799 49.9C173.201 50.6467 172.371 51.2347 171.307 51.664C170.261 52.0747 169.048 52.28 167.667 52.28ZM195.073 52H192.301V48.416L192.105 48.332V43.572C192.105 42.4147 191.825 41.612 191.265 41.164C190.723 40.6973 189.781 40.464 188.437 40.464C187.149 40.464 186.187 40.688 185.553 41.136C184.918 41.584 184.601 42.3213 184.601 43.348V43.46H181.605V43.348C181.605 42.284 181.885 41.3413 182.445 40.52C183.005 39.68 183.807 39.0173 184.853 38.532C185.917 38.0467 187.186 37.804 188.661 37.804C190.135 37.804 191.339 38.056 192.273 38.56C193.225 39.0453 193.925 39.7173 194.373 40.576C194.839 41.4347 195.073 42.424 195.073 43.544V52ZM186.001 52.28C184.563 52.28 183.415 51.9627 182.557 51.328C181.717 50.6747 181.297 49.7787 181.297 48.64C181.297 47.912 181.474 47.3053 181.829 46.82C182.202 46.316 182.725 45.924 183.397 45.644C184.069 45.364 184.862 45.168 185.777 45.056L192.385 44.356V46.148L186.645 46.792C185.861 46.8853 185.273 47.0533 184.881 47.296C184.507 47.52 184.321 47.9027 184.321 48.444C184.321 49.004 184.517 49.424 184.909 49.704C185.319 49.9653 185.954 50.096 186.813 50.096C187.877 50.096 188.801 49.9653 189.585 49.704C190.369 49.424 190.985 48.9947 191.433 48.416C191.881 47.8373 192.105 47.0907 192.105 46.176L192.497 46.232V48.528H192.105C191.731 49.704 191.013 50.628 189.949 51.3C188.903 51.9533 187.587 52.28 186.001 52.28ZM211.321 52.28C209.735 52.28 208.447 51.916 207.457 51.188C206.468 50.4413 205.824 49.3773 205.525 47.996H204.853L205.049 45.196H205.581C205.581 46.148 205.768 46.9507 206.141 47.604C206.533 48.2573 207.084 48.7427 207.793 49.06C208.521 49.3587 209.38 49.508 210.369 49.508C211.396 49.508 212.255 49.368 212.945 49.088C213.655 48.808 214.187 48.3413 214.541 47.688C214.915 47.0347 215.101 46.1573 215.101 45.056C215.101 43.936 214.915 43.0493 214.541 42.396C214.168 41.7427 213.636 41.276 212.945 40.996C212.255 40.6973 211.415 40.548 210.425 40.548C208.857 40.548 207.653 40.9213 206.813 41.668C205.992 42.396 205.581 43.4973 205.581 44.972H205.049V41.864H205.749C206.029 40.688 206.636 39.7173 207.569 38.952C208.521 38.1867 209.828 37.804 211.489 37.804C212.927 37.804 214.131 38.112 215.101 38.728C216.091 39.3253 216.837 40.1653 217.341 41.248C217.864 42.3307 218.125 43.6 218.125 45.056C218.125 46.4747 217.864 47.7347 217.341 48.836C216.837 49.9187 216.072 50.768 215.045 51.384C214.037 51.9813 212.796 52.28 211.321 52.28ZM205.329 52H202.557V33.24H205.581V47.268L205.329 47.632V52ZM223.245 52H220.221V38.084H223.245V52ZM223.245 36.46H220.221V33.24H223.245V36.46ZM233.354 57.04C231.972 57.04 230.759 56.8253 229.714 56.396C228.668 55.9853 227.847 55.388 227.25 54.604C226.671 53.82 226.382 52.868 226.382 51.748H229.378C229.378 52.42 229.518 52.9613 229.798 53.372C230.078 53.7827 230.516 54.072 231.114 54.24C231.73 54.4267 232.532 54.52 233.522 54.52C234.586 54.52 235.426 54.3987 236.042 54.156C236.676 53.932 237.134 53.5307 237.414 52.952C237.694 52.3733 237.834 51.5707 237.834 50.544V42.396L238.058 42.2V38.084H240.83V50.376C240.83 51.9253 240.522 53.1853 239.906 54.156C239.29 55.1453 238.422 55.8733 237.302 56.34C236.182 56.8067 234.866 57.04 233.354 57.04ZM232.094 50.74C230.712 50.74 229.527 50.4693 228.538 49.928C227.567 49.3867 226.811 48.6307 226.27 47.66C225.747 46.6893 225.486 45.56 225.486 44.272C225.486 42.984 225.756 41.8547 226.298 40.884C226.858 39.9133 227.642 39.1573 228.65 38.616C229.676 38.0747 230.89 37.804 232.29 37.804C233.746 37.804 234.978 38.1307 235.986 38.784C237.012 39.4187 237.647 40.3427 237.89 41.556H238.534L238.366 43.992H237.834C237.834 43.208 237.647 42.5547 237.274 42.032C236.9 41.4907 236.368 41.0893 235.678 40.828C234.987 40.5667 234.147 40.436 233.158 40.436C232.206 40.436 231.375 40.5573 230.666 40.8C229.975 41.0427 229.443 41.444 229.07 42.004C228.715 42.5453 228.538 43.3013 228.538 44.272C228.538 45.224 228.715 45.98 229.07 46.54C229.424 47.1 229.938 47.5107 230.61 47.772C231.3 48.0147 232.122 48.136 233.074 48.136C234.604 48.136 235.78 47.8187 236.602 47.184C237.423 46.5493 237.834 45.616 237.834 44.384H238.366V47.128H237.638C237.395 48.192 236.807 49.06 235.874 49.732C234.94 50.404 233.68 50.74 232.094 50.74ZM254.993 52.28C252.753 52.28 251.017 51.8507 249.785 50.992C248.571 50.1333 247.965 48.9013 247.965 47.296V47.212H250.989V47.436C250.989 48.3507 251.287 48.9853 251.885 49.34C252.501 49.676 253.537 49.844 254.993 49.844C256.355 49.844 257.279 49.704 257.765 49.424C258.269 49.1253 258.521 48.668 258.521 48.052C258.521 47.4733 258.325 47.0627 257.933 46.82C257.559 46.5773 256.869 46.3907 255.861 46.26L252.053 45.756C250.727 45.588 249.691 45.2147 248.945 44.636C248.198 44.0387 247.825 43.152 247.825 41.976C247.825 41.1547 248.067 40.436 248.553 39.82C249.038 39.1853 249.766 38.6907 250.737 38.336C251.707 37.9813 252.902 37.804 254.321 37.804C255.739 37.804 256.953 37.9907 257.961 38.364C258.987 38.7373 259.771 39.2973 260.313 40.044C260.873 40.7907 261.153 41.7147 261.153 42.816V42.9H258.157V42.732C258.157 42.1907 258.045 41.7333 257.821 41.36C257.597 40.9867 257.195 40.7067 256.617 40.52C256.057 40.3147 255.263 40.212 254.237 40.212C252.949 40.212 252.053 40.3613 251.549 40.66C251.045 40.9587 250.793 41.4347 250.793 42.088C250.793 42.6293 250.979 43.0213 251.353 43.264C251.726 43.5067 252.426 43.7027 253.453 43.852L256.673 44.3C258.315 44.5053 259.529 44.9067 260.313 45.504C261.097 46.1013 261.489 46.9787 261.489 48.136C261.489 48.9947 261.218 49.7413 260.677 50.376C260.135 50.992 259.379 51.468 258.409 51.804C257.438 52.1213 256.299 52.28 254.993 52.28ZM288.283 52H285.287V44.44C285.287 43.0587 284.997 42.06 284.419 41.444C283.84 40.828 282.869 40.52 281.507 40.52C280.032 40.52 278.987 40.9027 278.371 41.668C277.773 42.4147 277.475 43.5627 277.475 45.112L276.943 45.14L276.775 42.396H277.391C277.521 41.5933 277.792 40.8467 278.203 40.156C278.613 39.4653 279.201 38.9053 279.967 38.476C280.732 38.028 281.693 37.804 282.851 37.804C284.064 37.804 285.072 38.056 285.875 38.56C286.677 39.064 287.275 39.7547 287.667 40.632C288.077 41.5093 288.283 42.508 288.283 43.628V52ZM266.695 52H263.671V38.084H266.443V42.452L266.695 42.592V52ZM277.475 52H274.479V44.44C274.479 43.0587 274.189 42.06 273.611 41.444C273.032 40.828 272.071 40.52 270.727 40.52C269.233 40.52 268.188 40.9027 267.591 41.668C266.993 42.4147 266.695 43.5627 266.695 45.112L266.163 45.14L266.023 42.284H266.611C266.741 41.5 267.003 40.772 267.395 40.1C267.787 39.428 268.356 38.8773 269.103 38.448C269.849 38.0187 270.801 37.804 271.959 37.804C273.172 37.804 274.171 38.0653 274.955 38.588C275.739 39.092 276.327 39.7827 276.719 40.66C277.111 41.5373 277.307 42.5267 277.307 43.628H277.475V52ZM294.011 52H290.987V38.084H294.011V52ZM294.011 36.46H290.987V33.24H294.011V36.46ZM299.835 52H296.811V33.24H299.835V52ZM309.635 52.28C308.123 52.28 306.798 52 305.659 51.44C304.521 50.88 303.634 50.0587 302.999 48.976C302.383 47.8933 302.075 46.5867 302.075 45.056C302.075 43.6 302.383 42.3307 302.999 41.248C303.634 40.1653 304.511 39.3253 305.631 38.728C306.751 38.112 308.067 37.804 309.579 37.804C311.017 37.804 312.277 38.0653 313.359 38.588C314.461 39.092 315.31 39.8387 315.907 40.828C316.523 41.7987 316.831 42.9933 316.831 44.412C316.831 44.6547 316.822 44.888 316.803 45.112C316.785 45.3173 316.757 45.5227 316.719 45.728H304.007V44.048H314.731L313.947 45.084C313.966 44.8973 313.975 44.72 313.975 44.552C313.975 44.3653 313.975 44.1787 313.975 43.992C313.975 42.704 313.602 41.752 312.855 41.136C312.127 40.5013 311.017 40.184 309.523 40.184C307.862 40.184 306.677 40.5667 305.967 41.332C305.258 42.0973 304.903 43.1987 304.903 44.636V45.364C304.903 46.82 305.258 47.9307 305.967 48.696C306.677 49.4613 307.871 49.844 309.551 49.844C311.007 49.844 312.053 49.62 312.687 49.172C313.341 48.7053 313.667 48.0613 313.667 47.24V47.016H316.691V47.268C316.691 48.2573 316.383 49.1347 315.767 49.9C315.17 50.6467 314.339 51.2347 313.275 51.664C312.23 52.0747 311.017 52.28 309.635 52.28ZM326.488 45.896H323.464V44.944C323.464 44.384 323.567 43.8987 323.772 43.488C323.996 43.0773 324.314 42.7227 324.724 42.424C325.135 42.1253 325.62 41.8547 326.18 41.612L328.196 40.744C328.98 40.3893 329.578 40.0347 329.988 39.68C330.418 39.3067 330.632 38.8027 330.632 38.168C330.632 37.6827 330.511 37.2627 330.268 36.908C330.026 36.5347 329.587 36.2453 328.952 36.04C328.318 35.816 327.394 35.704 326.18 35.704C324.22 35.704 322.858 36.0027 322.092 36.6C321.327 37.1973 320.944 38.084 320.944 39.26V40.072H317.976V39.428C317.976 38.2707 318.256 37.1973 318.816 36.208C319.395 35.2187 320.3 34.4347 321.532 33.856C322.783 33.2587 324.398 32.96 326.376 32.96C328.112 32.96 329.512 33.1933 330.576 33.66C331.64 34.108 332.415 34.724 332.9 35.508C333.404 36.2733 333.656 37.1227 333.656 38.056C333.656 38.952 333.46 39.708 333.068 40.324C332.695 40.9213 332.219 41.416 331.64 41.808C331.062 42.2 330.446 42.536 329.792 42.816L327.776 43.656C327.254 43.8613 326.908 44.0853 326.74 44.328C326.572 44.5707 326.488 44.8973 326.488 45.308V45.896ZM326.712 52H323.296V47.856H326.712V52Z" fill="black"/>
</svg>
