<svg width="613" height="119" viewBox="0 0 613 119" fill="none" xmlns="http://www.w3.org/2000/svg">
<path d="M82.0339 80.4722L82.1475 79.6015H83.0255H395C416.818 79.6015 436 61.9592 436 40.3008C436 18.6532 416.829 1 395 1H40.4196C18.652 1 1 18.5934 1 40.3008C1 61.9968 18.652 79.6015 40.4309 79.6015H47.9756H48.9172L48.9738 80.5415L47.9756 80.6015C48.9738 80.5415 48.9738 80.542 48.9739 80.5427L48.974 80.5444L48.9742 80.5491L48.975 80.5638L48.9774 80.6145C48.9793 80.6577 48.9817 80.7195 48.9838 80.7992C48.9881 80.9587 48.9916 81.1901 48.9889 81.4885C48.9837 82.0852 48.9541 82.95 48.8579 84.0426C48.6656 86.2276 48.2067 89.3264 47.1423 93.0166C45.136 99.9726 40.9808 109.021 32.4245 118C33.6939 117.997 35.4394 117.95 37.521 117.786C42.0049 117.432 48.0251 116.535 54.1993 114.368C66.518 110.044 79.395 100.705 82.0339 80.4722Z" fill="white" stroke="black" stroke-width="2"/>
<path d="M48.8 49H44.348L39.392 30.24H42.752L45.804 42.112L46.644 46.088H46.868L47.876 42.112L51.656 30.24H56.052L60.084 42.112L61.148 46.088H61.372L62.156 42.112L64.956 30.24H68.26L63.556 49H59.104L55.324 38.08L53.952 33.264H53.7L52.356 38.08L48.8 49ZM77.1526 49.28C75.622 49.28 74.2686 48.9813 73.0926 48.384C71.9353 47.768 71.03 46.9187 70.3766 45.836C69.742 44.7347 69.4246 43.4747 69.4246 42.056C69.4246 40.6 69.742 39.3307 70.3766 38.248C71.03 37.1653 71.9353 36.3253 73.0926 35.728C74.2686 35.112 75.622 34.804 77.1526 34.804C78.7206 34.804 80.0833 35.112 81.2406 35.728C82.398 36.3253 83.294 37.1653 83.9286 38.248C84.582 39.3307 84.9086 40.6 84.9086 42.056C84.9086 43.4747 84.582 44.7347 83.9286 45.836C83.294 46.9187 82.398 47.768 81.2406 48.384C80.0833 48.9813 78.7206 49.28 77.1526 49.28ZM77.1526 46.592C78.8513 46.592 80.074 46.2093 80.8206 45.444C81.5673 44.66 81.9406 43.5307 81.9406 42.056C81.9406 40.5813 81.5673 39.452 80.8206 38.668C80.074 37.8653 78.8513 37.464 77.1526 37.464C75.4726 37.464 74.2593 37.8653 73.5126 38.668C72.766 39.452 72.3926 40.5813 72.3926 42.056C72.3926 43.5307 72.766 44.66 73.5126 45.444C74.2593 46.2093 75.4726 46.592 77.1526 46.592ZM93.7671 49H90.0151L85.8431 35.084H88.9791L91.3031 42.98L91.9471 46.564H92.1711L93.2071 42.7L96.1191 35.084H99.9831L102.923 42.7L103.959 46.564H104.183L104.827 42.98L107.151 35.084H110.231L106.003 49H102.251L99.1991 40.992L98.1351 37.576H97.9111L96.8471 40.992L93.7671 49ZM115.015 49H111.207V44.66H115.015V49ZM112.271 52.136H111.263V50.288H112.187C112.43 50.288 112.607 50.2413 112.719 50.148C112.831 50.0733 112.887 49.8867 112.887 49.588V48.356H115.015V49.56C115.015 50.4373 114.773 51.0813 114.287 51.492C113.821 51.9213 113.149 52.136 112.271 52.136ZM124.288 53.76H122.3V51.016H125.016C125.632 51.016 126.09 50.9133 126.388 50.708C126.706 50.5213 126.967 50.1947 127.172 49.728L128.04 47.852L127.704 49.392L120.648 35.084H124.036L127.592 42.476L128.964 45.808H129.188L130.504 42.448L133.78 35.084H137.112L129.86 50.512C129.487 51.3333 129.048 51.9773 128.544 52.444C128.04 52.9293 127.443 53.2653 126.752 53.452C126.062 53.6573 125.24 53.76 124.288 53.76ZM145.703 49.28C144.173 49.28 142.819 48.9813 141.643 48.384C140.486 47.768 139.581 46.9187 138.927 45.836C138.293 44.7347 137.975 43.4747 137.975 42.056C137.975 40.6 138.293 39.3307 138.927 38.248C139.581 37.1653 140.486 36.3253 141.643 35.728C142.819 35.112 144.173 34.804 145.703 34.804C147.271 34.804 148.634 35.112 149.791 35.728C150.949 36.3253 151.845 37.1653 152.479 38.248C153.133 39.3307 153.459 40.6 153.459 42.056C153.459 43.4747 153.133 44.7347 152.479 45.836C151.845 46.9187 150.949 47.768 149.791 48.384C148.634 48.9813 147.271 49.28 145.703 49.28ZM145.703 46.592C147.402 46.592 148.625 46.2093 149.371 45.444C150.118 44.66 150.491 43.5307 150.491 42.056C150.491 40.5813 150.118 39.452 149.371 38.668C148.625 37.8653 147.402 37.464 145.703 37.464C144.023 37.464 142.81 37.8653 142.063 38.668C141.317 39.452 140.943 40.5813 140.943 42.056C140.943 43.5307 141.317 44.66 142.063 45.444C142.81 46.2093 144.023 46.592 145.703 46.592ZM161.45 49.28C160.143 49.28 159.061 49.0187 158.202 48.496C157.343 47.9733 156.699 47.2733 156.27 46.396C155.841 45.5187 155.626 44.5387 155.626 43.456V35.084H158.622V42.644C158.622 43.932 158.939 44.912 159.574 45.584C160.227 46.2373 161.291 46.564 162.766 46.564C164.315 46.564 165.445 46.1813 166.154 45.416C166.882 44.632 167.246 43.484 167.246 41.972L167.778 41.944L167.946 44.688H167.302C167.171 45.472 166.873 46.2093 166.406 46.9C165.939 47.5907 165.295 48.16 164.474 48.608C163.671 49.056 162.663 49.28 161.45 49.28ZM170.27 49H167.498V44.632L167.246 44.492V35.084H170.27V49ZM186.93 49H183.738C182.245 49 181.06 48.636 180.182 47.908C179.324 47.18 178.894 45.976 178.894 44.296V32.032H181.89V44.128C181.89 44.9867 182.096 45.5653 182.506 45.864C182.917 46.144 183.552 46.284 184.41 46.284H186.93V49ZM186.93 37.604H176.542V35.084H186.93V37.604ZM191.062 53.76H189.074V51.016H191.79C192.406 51.016 192.863 50.9133 193.162 50.708C193.479 50.5213 193.741 50.1947 193.946 49.728L194.814 47.852L194.478 49.392L187.422 35.084H190.81L194.366 42.476L195.738 45.808H195.962L197.278 42.448L200.554 35.084H203.886L196.634 50.512C196.261 51.3333 195.822 51.9773 195.318 52.444C194.814 52.9293 194.217 53.2653 193.526 53.452C192.835 53.6573 192.014 53.76 191.062 53.76ZM214.213 49.28C212.664 49.28 211.394 48.8973 210.405 48.132C209.416 47.3667 208.781 46.3493 208.501 45.08H207.857V42.28H208.389C208.389 43.2133 208.585 44.0067 208.977 44.66C209.369 45.2947 209.92 45.7707 210.629 46.088C211.357 46.3867 212.206 46.536 213.177 46.536C214.185 46.536 215.034 46.396 215.725 46.116C216.434 45.8173 216.976 45.3413 217.349 44.688C217.722 44.0347 217.909 43.1573 217.909 42.056C217.909 40.936 217.722 40.0493 217.349 39.396C216.976 38.7427 216.434 38.276 215.725 37.996C215.034 37.716 214.204 37.576 213.233 37.576C211.684 37.576 210.489 37.9493 209.649 38.696C208.809 39.424 208.389 40.5347 208.389 42.028H207.857L207.661 38.948H208.389C208.669 37.66 209.294 36.652 210.265 35.924C211.254 35.1773 212.561 34.804 214.185 34.804C215.622 34.804 216.845 35.112 217.853 35.728C218.861 36.3253 219.626 37.1653 220.149 38.248C220.672 39.3307 220.933 40.6 220.933 42.056C220.933 43.4747 220.672 44.7347 220.149 45.836C219.645 46.9187 218.889 47.768 217.881 48.384C216.892 48.9813 215.669 49.28 214.213 49.28ZM208.389 53.76H205.365V35.084H208.137V39.452L208.389 39.816V53.76ZM230.029 49.28C228.517 49.28 227.192 49 226.053 48.44C224.914 47.88 224.028 47.0587 223.393 45.976C222.777 44.8933 222.469 43.5867 222.469 42.056C222.469 40.6 222.777 39.3307 223.393 38.248C224.028 37.1653 224.905 36.3253 226.025 35.728C227.145 35.112 228.461 34.804 229.973 34.804C231.41 34.804 232.67 35.0653 233.753 35.588C234.854 36.092 235.704 36.8387 236.301 37.828C236.917 38.7987 237.225 39.9933 237.225 41.412C237.225 41.6547 237.216 41.888 237.197 42.112C237.178 42.3173 237.15 42.5227 237.113 42.728H224.401V41.048H235.125L234.341 42.084C234.36 41.8973 234.369 41.72 234.369 41.552C234.369 41.3653 234.369 41.1787 234.369 40.992C234.369 39.704 233.996 38.752 233.249 38.136C232.521 37.5013 231.41 37.184 229.917 37.184C228.256 37.184 227.07 37.5667 226.361 38.332C225.652 39.0973 225.297 40.1987 225.297 41.636V42.364C225.297 43.82 225.652 44.9307 226.361 45.696C227.07 46.4613 228.265 46.844 229.945 46.844C231.401 46.844 232.446 46.62 233.081 46.172C233.734 45.7053 234.061 45.0613 234.061 44.24V44.016H237.085V44.268C237.085 45.2573 236.777 46.1347 236.161 46.9C235.564 47.6467 234.733 48.2347 233.669 48.664C232.624 49.0747 231.41 49.28 230.029 49.28ZM253.207 49H249.511L243.015 35.084H246.347L251.303 46.06H251.527L256.483 35.084H259.759L253.207 49ZM268.31 49.28C266.798 49.28 265.473 49 264.334 48.44C263.195 47.88 262.309 47.0587 261.674 45.976C261.058 44.8933 260.75 43.5867 260.75 42.056C260.75 40.6 261.058 39.3307 261.674 38.248C262.309 37.1653 263.186 36.3253 264.306 35.728C265.426 35.112 266.742 34.804 268.254 34.804C269.691 34.804 270.951 35.0653 272.034 35.588C273.135 36.092 273.985 36.8387 274.582 37.828C275.198 38.7987 275.506 39.9933 275.506 41.412C275.506 41.6547 275.497 41.888 275.478 42.112C275.459 42.3173 275.431 42.5227 275.394 42.728H262.682V41.048H273.406L272.622 42.084C272.641 41.8973 272.65 41.72 272.65 41.552C272.65 41.3653 272.65 41.1787 272.65 40.992C272.65 39.704 272.277 38.752 271.53 38.136C270.802 37.5013 269.691 37.184 268.198 37.184C266.537 37.184 265.351 37.5667 264.642 38.332C263.933 39.0973 263.578 40.1987 263.578 41.636V42.364C263.578 43.82 263.933 44.9307 264.642 45.696C265.351 46.4613 266.546 46.844 268.226 46.844C269.682 46.844 270.727 46.62 271.362 46.172C272.015 45.7053 272.342 45.0613 272.342 44.24V44.016H275.366V44.268C275.366 45.2573 275.058 46.1347 274.442 46.9C273.845 47.6467 273.014 48.2347 271.95 48.664C270.905 49.0747 269.691 49.28 268.31 49.28ZM280.795 49H277.771V35.084H280.543V39.032L280.795 39.172V49ZM280.795 41.188H280.123V38.836H280.739C280.87 38.0707 281.131 37.3893 281.523 36.792C281.915 36.176 282.438 35.6907 283.091 35.336C283.763 34.9813 284.575 34.804 285.527 34.804C286.591 34.804 287.459 35.028 288.131 35.476C288.803 35.924 289.288 36.5213 289.587 37.268C289.904 38.0147 290.063 38.8267 290.063 39.704V41.524H287.067V40.292C287.067 39.284 286.843 38.5467 286.395 38.08C285.947 37.6133 285.2 37.38 284.155 37.38C282.96 37.38 282.102 37.7067 281.579 38.36C281.056 39.0133 280.795 39.956 280.795 41.188ZM294.203 53.76H292.215V51.016H294.931C295.547 51.016 296.004 50.9133 296.303 50.708C296.62 50.5213 296.881 50.1947 297.087 49.728L297.954 47.852L297.619 49.392L290.562 35.084H293.951L297.507 42.476L298.879 45.808H299.103L300.419 42.448L303.695 35.084H307.026L299.775 50.512C299.401 51.3333 298.963 51.9773 298.459 52.444C297.955 52.9293 297.357 53.2653 296.667 53.452C295.976 53.6573 295.155 53.76 294.203 53.76ZM317.379 49H314.355V35.84C314.355 34.664 314.607 33.6653 315.111 32.844C315.633 32.004 316.389 31.36 317.379 30.912C318.368 30.464 319.572 30.24 320.991 30.24H322.363V32.48H320.515C319.32 32.48 318.452 32.704 317.911 33.152C317.369 33.5813 317.192 34.4027 317.379 35.616V36.176V49ZM322.363 37.604H312.255V35.084H322.363V37.604ZM337.197 49H334.425V45.416L334.229 45.332V40.572C334.229 39.4147 333.949 38.612 333.389 38.164C332.847 37.6973 331.905 37.464 330.561 37.464C329.273 37.464 328.311 37.688 327.677 38.136C327.042 38.584 326.725 39.3213 326.725 40.348V40.46H323.729V40.348C323.729 39.284 324.009 38.3413 324.569 37.52C325.129 36.68 325.931 36.0173 326.977 35.532C328.041 35.0467 329.31 34.804 330.785 34.804C332.259 34.804 333.463 35.056 334.397 35.56C335.349 36.0453 336.049 36.7173 336.497 37.576C336.963 38.4347 337.197 39.424 337.197 40.544V49ZM328.125 49.28C326.687 49.28 325.539 48.9627 324.681 48.328C323.841 47.6747 323.421 46.7787 323.421 45.64C323.421 44.912 323.598 44.3053 323.953 43.82C324.326 43.316 324.849 42.924 325.521 42.644C326.193 42.364 326.986 42.168 327.901 42.056L334.509 41.356V43.148L328.769 43.792C327.985 43.8853 327.397 44.0533 327.005 44.296C326.631 44.52 326.445 44.9027 326.445 45.444C326.445 46.004 326.641 46.424 327.033 46.704C327.443 46.9653 328.078 47.096 328.937 47.096C330.001 47.096 330.925 46.9653 331.709 46.704C332.493 46.424 333.109 45.9947 333.557 45.416C334.005 44.8373 334.229 44.0907 334.229 43.176L334.621 43.232V45.528H334.229C333.855 46.704 333.137 47.628 332.073 48.3C331.027 48.9533 329.711 49.28 328.125 49.28ZM346.476 49.28C344.236 49.28 342.5 48.8507 341.268 47.992C340.055 47.1333 339.448 45.9013 339.448 44.296V44.212H342.472V44.436C342.472 45.3507 342.771 45.9853 343.368 46.34C343.984 46.676 345.02 46.844 346.476 46.844C347.839 46.844 348.763 46.704 349.248 46.424C349.752 46.1253 350.004 45.668 350.004 45.052C350.004 44.4733 349.808 44.0627 349.416 43.82C349.043 43.5773 348.352 43.3907 347.344 43.26L343.536 42.756C342.211 42.588 341.175 42.2147 340.428 41.636C339.681 41.0387 339.308 40.152 339.308 38.976C339.308 38.1547 339.551 37.436 340.036 36.82C340.521 36.1853 341.249 35.6907 342.22 35.336C343.191 34.9813 344.385 34.804 345.804 34.804C347.223 34.804 348.436 34.9907 349.444 35.364C350.471 35.7373 351.255 36.2973 351.796 37.044C352.356 37.7907 352.636 38.7147 352.636 39.816V39.9H349.64V39.732C349.64 39.1907 349.528 38.7333 349.304 38.36C349.08 37.9867 348.679 37.7067 348.1 37.52C347.54 37.3147 346.747 37.212 345.72 37.212C344.432 37.212 343.536 37.3613 343.032 37.66C342.528 37.9587 342.276 38.4347 342.276 39.088C342.276 39.6293 342.463 40.0213 342.836 40.264C343.209 40.5067 343.909 40.7027 344.936 40.852L348.156 41.3C349.799 41.5053 351.012 41.9067 351.796 42.504C352.58 43.1013 352.972 43.9787 352.972 45.136C352.972 45.9947 352.701 46.7413 352.16 47.376C351.619 47.992 350.863 48.468 349.892 48.804C348.921 49.1213 347.783 49.28 346.476 49.28ZM364.282 49H361.09C359.597 49 358.411 48.636 357.534 47.908C356.675 47.18 356.246 45.976 356.246 44.296V32.032H359.242V44.128C359.242 44.9867 359.447 45.5653 359.858 45.864C360.269 46.144 360.903 46.284 361.762 46.284H364.282V49ZM364.282 37.604H353.894V35.084H364.282V37.604ZM369.477 42.84H366.537C366.537 42.2987 366.519 41.6547 366.481 40.908C366.463 40.1613 366.425 39.3773 366.369 38.556C366.332 37.716 366.285 36.8947 366.229 36.092C366.192 35.2893 366.155 34.552 366.117 33.88C366.099 33.1893 366.089 32.6293 366.089 32.2V30.24H369.925V32.2C369.925 32.6293 369.907 33.1893 369.869 33.88C369.851 34.552 369.813 35.2987 369.757 36.12C369.72 36.9227 369.673 37.7347 369.617 38.556C369.58 39.3773 369.543 40.1613 369.505 40.908C369.487 41.6547 369.477 42.2987 369.477 42.84ZM369.701 49H366.285V44.856H369.701V49Z" fill="black"/>
</svg>
