<svg width="613" height="119" viewBox="0 0 613 119" fill="none" xmlns="http://www.w3.org/2000/svg">
<path d="M82.0339 80.4722L82.1475 79.6015H83.0255H572.58C594.348 79.6015 612 62.0081 612 40.3008C612 18.6044 594.359 1 572.58 1H40.4196C18.652 1 1 18.5934 1 40.3008C1 61.9968 18.652 79.6015 40.4309 79.6015H47.9756H48.9172L48.9738 80.5415L47.9756 80.6015C48.9738 80.5415 48.9738 80.542 48.9739 80.5427L48.974 80.5444L48.9742 80.5491L48.975 80.5638L48.9774 80.6145C48.9793 80.6577 48.9817 80.7195 48.9838 80.7992C48.9881 80.9587 48.9916 81.1901 48.9889 81.4885C48.9837 82.0852 48.9541 82.95 48.8579 84.0426C48.6656 86.2276 48.2067 89.3264 47.1423 93.0166C45.136 99.9726 40.9808 109.021 32.4245 118C33.6939 117.997 35.4394 117.95 37.521 117.786C42.0049 117.432 48.0251 116.535 54.1993 114.368C66.518 110.044 79.395 100.705 82.0339 80.4722Z" fill="white" stroke="black" stroke-width="2"/>
<path d="M51.152 49H40.26V30.24H50.76C51.9733 30.24 53 30.4173 53.84 30.772C54.6987 31.1267 55.352 31.6493 55.8 32.34C56.2667 33.0307 56.5 33.8707 56.5 34.86C56.5 35.9613 56.1733 36.8947 55.52 37.66C54.8853 38.4253 53.8493 38.892 52.412 39.06V39.256C54.0173 39.4427 55.212 39.9467 55.996 40.768C56.78 41.5707 57.172 42.588 57.172 43.82C57.172 44.884 56.9387 45.808 56.472 46.592C56.0053 47.376 55.324 47.9733 54.428 48.384C53.532 48.7947 52.44 49 51.152 49ZM43.256 40.6V46.284H50.816C51.936 46.284 52.7667 46.06 53.308 45.612C53.868 45.1453 54.148 44.408 54.148 43.4C54.148 42.4107 53.868 41.7013 53.308 41.272C52.7667 40.824 51.936 40.6 50.816 40.6H43.256ZM43.256 32.956V38.108H50.34C51.404 38.108 52.1973 37.9027 52.72 37.492C53.2427 37.0627 53.504 36.4093 53.504 35.532C53.504 34.6547 53.252 34.0107 52.748 33.6C52.244 33.1707 51.4693 32.956 50.424 32.956H43.256ZM64.9265 49.28C63.6198 49.28 62.5371 49.0187 61.6785 48.496C60.8198 47.9733 60.1758 47.2733 59.7465 46.396C59.3171 45.5187 59.1025 44.5387 59.1025 43.456V35.084H62.0985V42.644C62.0985 43.932 62.4158 44.912 63.0505 45.584C63.7038 46.2373 64.7678 46.564 66.2425 46.564C67.7918 46.564 68.9211 46.1813 69.6305 45.416C70.3585 44.632 70.7225 43.484 70.7225 41.972L71.2545 41.944L71.4225 44.688H70.7785C70.6478 45.472 70.3491 46.2093 69.8825 46.9C69.4158 47.5907 68.7718 48.16 67.9505 48.608C67.1478 49.056 66.1398 49.28 64.9265 49.28ZM73.7465 49H70.9745V44.632L70.7225 44.492V35.084H73.7465V49ZM85.6218 49H82.4298C80.9364 49 79.7511 48.636 78.8738 47.908C78.0151 47.18 77.5858 45.976 77.5858 44.296V32.032H80.5818V44.128C80.5818 44.9867 80.7871 45.5653 81.1978 45.864C81.6084 46.144 82.2431 46.284 83.1018 46.284H85.6218V49ZM85.6218 37.604H75.2338V35.084H85.6218V37.604ZM96.3864 49H93.3624V35.84C93.3624 34.664 93.6144 33.6653 94.1184 32.844C94.6411 32.004 95.3971 31.36 96.3864 30.912C97.3758 30.464 98.5798 30.24 99.9984 30.24H101.37V32.48H99.5224C98.3278 32.48 97.4598 32.704 96.9184 33.152C96.3771 33.5813 96.1998 34.4027 96.3864 35.616V36.176V49ZM101.37 37.604H91.2624V35.084H101.37V37.604ZM106.074 49H103.05V35.084H106.074V49ZM106.074 33.46H103.05V30.24H106.074V33.46ZM111.893 49H108.869V35.084H111.641V39.032L111.893 39.172V49ZM111.893 41.188H111.221V38.836H111.837C111.967 38.0707 112.229 37.3893 112.621 36.792C113.013 36.176 113.535 35.6907 114.189 35.336C114.861 34.9813 115.673 34.804 116.625 34.804C117.689 34.804 118.557 35.028 119.229 35.476C119.901 35.924 120.386 36.5213 120.685 37.268C121.002 38.0147 121.161 38.8267 121.161 39.704V41.524H118.165V40.292C118.165 39.284 117.941 38.5467 117.493 38.08C117.045 37.6133 116.298 37.38 115.253 37.38C114.058 37.38 113.199 37.7067 112.677 38.36C112.154 39.0133 111.893 39.956 111.893 41.188ZM129.64 49.28C127.4 49.28 125.664 48.8507 124.432 47.992C123.219 47.1333 122.612 45.9013 122.612 44.296V44.212H125.636V44.436C125.636 45.3507 125.935 45.9853 126.532 46.34C127.148 46.676 128.184 46.844 129.64 46.844C131.003 46.844 131.927 46.704 132.412 46.424C132.916 46.1253 133.168 45.668 133.168 45.052C133.168 44.4733 132.972 44.0627 132.58 43.82C132.207 43.5773 131.516 43.3907 130.508 43.26L126.7 42.756C125.375 42.588 124.339 42.2147 123.592 41.636C122.845 41.0387 122.472 40.152 122.472 38.976C122.472 38.1547 122.715 37.436 123.2 36.82C123.685 36.1853 124.413 35.6907 125.384 35.336C126.355 34.9813 127.549 34.804 128.968 34.804C130.387 34.804 131.6 34.9907 132.608 35.364C133.635 35.7373 134.419 36.2973 134.96 37.044C135.52 37.7907 135.8 38.7147 135.8 39.816V39.9H132.804V39.732C132.804 39.1907 132.692 38.7333 132.468 38.36C132.244 37.9867 131.843 37.7067 131.264 37.52C130.704 37.3147 129.911 37.212 128.884 37.212C127.596 37.212 126.7 37.3613 126.196 37.66C125.692 37.9587 125.44 38.4347 125.44 39.088C125.44 39.6293 125.627 40.0213 126 40.264C126.373 40.5067 127.073 40.7027 128.1 40.852L131.32 41.3C132.963 41.5053 134.176 41.9067 134.96 42.504C135.744 43.1013 136.136 43.9787 136.136 45.136C136.136 45.9947 135.865 46.7413 135.324 47.376C134.783 47.992 134.027 48.468 133.056 48.804C132.085 49.1213 130.947 49.28 129.64 49.28ZM147.446 49H144.254C142.761 49 141.575 48.636 140.698 47.908C139.839 47.18 139.41 45.976 139.41 44.296V32.032H142.406V44.128C142.406 44.9867 142.611 45.5653 143.022 45.864C143.433 46.144 144.067 46.284 144.926 46.284H147.446V49ZM147.446 37.604H137.058V35.084H147.446V37.604ZM152.586 49H148.778V44.66H152.586V49ZM149.842 52.136H148.834V50.288H149.758C150 50.288 150.178 50.2413 150.29 50.148C150.402 50.0733 150.458 49.8867 150.458 49.588V48.356H152.586V49.56C152.586 50.4373 152.343 51.0813 151.858 51.492C151.391 51.9213 150.719 52.136 149.842 52.136ZM162.643 49H159.619V30.24H162.643V49ZM184.76 49H181.736V41.44C181.736 40.1333 181.419 39.1533 180.784 38.5C180.168 37.8467 179.132 37.52 177.676 37.52C176.164 37.52 175.044 37.912 174.316 38.696C173.607 39.4613 173.252 40.6 173.252 42.112L172.72 42.14L172.58 39.396H173.196C173.345 38.612 173.644 37.8747 174.092 37.184C174.559 36.4747 175.193 35.9053 175.996 35.476C176.817 35.028 177.816 34.804 178.992 34.804C180.28 34.804 181.353 35.0653 182.212 35.588C183.071 36.1107 183.705 36.8107 184.116 37.688C184.545 38.5653 184.76 39.5453 184.76 40.628V49ZM173.252 49H170.228V35.084H173V39.452L173.252 39.592V49ZM194.455 49.28C192.943 49.28 191.617 49 190.479 48.44C189.34 47.88 188.453 47.0587 187.819 45.976C187.203 44.8933 186.895 43.5867 186.895 42.056C186.895 40.6 187.203 39.3307 187.819 38.248C188.453 37.1653 189.331 36.3253 190.451 35.728C191.571 35.112 192.887 34.804 194.399 34.804C195.836 34.804 197.096 35.0653 198.179 35.588C199.28 36.092 200.129 36.8387 200.727 37.828C201.343 38.7987 201.651 39.9933 201.651 41.412C201.651 41.6547 201.641 41.888 201.623 42.112C201.604 42.3173 201.576 42.5227 201.539 42.728H188.827V41.048H199.551L198.767 42.084C198.785 41.8973 198.795 41.72 198.795 41.552C198.795 41.3653 198.795 41.1787 198.795 40.992C198.795 39.704 198.421 38.752 197.675 38.136C196.947 37.5013 195.836 37.184 194.343 37.184C192.681 37.184 191.496 37.5667 190.787 38.332C190.077 39.0973 189.723 40.1987 189.723 41.636V42.364C189.723 43.82 190.077 44.9307 190.787 45.696C191.496 46.4613 192.691 46.844 194.371 46.844C195.827 46.844 196.872 46.62 197.507 46.172C198.16 45.7053 198.487 45.0613 198.487 44.24V44.016H201.511V44.268C201.511 45.2573 201.203 46.1347 200.587 46.9C199.989 47.6467 199.159 48.2347 198.095 48.664C197.049 49.0747 195.836 49.28 194.455 49.28ZM210.916 49.28C209.404 49.28 208.078 49 206.94 48.44C205.801 47.88 204.914 47.0587 204.28 45.976C203.664 44.8933 203.356 43.5867 203.356 42.056C203.356 40.6 203.664 39.3307 204.28 38.248C204.914 37.1653 205.792 36.3253 206.912 35.728C208.032 35.112 209.348 34.804 210.86 34.804C212.297 34.804 213.557 35.0653 214.64 35.588C215.741 36.092 216.59 36.8387 217.188 37.828C217.804 38.7987 218.112 39.9933 218.112 41.412C218.112 41.6547 218.102 41.888 218.084 42.112C218.065 42.3173 218.037 42.5227 218 42.728H205.288V41.048H216.012L215.228 42.084C215.246 41.8973 215.256 41.72 215.256 41.552C215.256 41.3653 215.256 41.1787 215.256 40.992C215.256 39.704 214.882 38.752 214.136 38.136C213.408 37.5013 212.297 37.184 210.804 37.184C209.142 37.184 207.957 37.5667 207.248 38.332C206.538 39.0973 206.184 40.1987 206.184 41.636V42.364C206.184 43.82 206.538 44.9307 207.248 45.696C207.957 46.4613 209.152 46.844 210.832 46.844C212.288 46.844 213.333 46.62 213.968 46.172C214.621 45.7053 214.948 45.0613 214.948 44.24V44.016H217.972V44.268C217.972 45.2573 217.664 46.1347 217.048 46.9C216.45 47.6467 215.62 48.2347 214.556 48.664C213.51 49.0747 212.297 49.28 210.916 49.28ZM226.509 49.28C225.034 49.28 223.783 48.9813 222.757 48.384C221.749 47.768 220.983 46.9187 220.461 45.836C219.938 44.7347 219.677 43.4747 219.677 42.056C219.677 40.6 219.938 39.3307 220.461 38.248C220.983 37.1653 221.739 36.3253 222.729 35.728C223.718 35.112 224.913 34.804 226.313 34.804C227.955 34.804 229.253 35.1867 230.205 35.952C231.157 36.7173 231.773 37.688 232.053 38.864H232.753V41.972H232.221C232.221 40.4973 231.801 39.396 230.961 38.668C230.121 37.9213 228.926 37.548 227.377 37.548C226.425 37.548 225.594 37.6973 224.885 37.996C224.175 38.276 223.634 38.7427 223.261 39.396C222.906 40.0493 222.729 40.936 222.729 42.056C222.729 43.1573 222.906 44.0347 223.261 44.688C223.634 45.3413 224.175 45.808 224.885 46.088C225.594 46.368 226.443 46.508 227.433 46.508C228.422 46.508 229.271 46.3587 229.981 46.06C230.709 45.7427 231.259 45.2573 231.633 44.604C232.025 43.9507 232.221 43.148 232.221 42.196H232.753L232.949 44.996H232.277C231.997 46.3773 231.353 47.4413 230.345 48.188C229.355 48.916 228.077 49.28 226.509 49.28ZM235.245 49H232.473V44.632L232.221 44.268V30.24H235.245V49ZM249.406 49.28C247.166 49.28 245.43 48.8507 244.198 47.992C242.984 47.1333 242.378 45.9013 242.378 44.296V44.212H245.402V44.436C245.402 45.3507 245.7 45.9853 246.298 46.34C246.914 46.676 247.95 46.844 249.406 46.844C250.768 46.844 251.692 46.704 252.178 46.424C252.682 46.1253 252.934 45.668 252.934 45.052C252.934 44.4733 252.738 44.0627 252.346 43.82C251.972 43.5773 251.282 43.3907 250.274 43.26L246.466 42.756C245.14 42.588 244.104 42.2147 243.358 41.636C242.611 41.0387 242.238 40.152 242.238 38.976C242.238 38.1547 242.48 37.436 242.966 36.82C243.451 36.1853 244.179 35.6907 245.15 35.336C246.12 34.9813 247.315 34.804 248.734 34.804C250.152 34.804 251.366 34.9907 252.374 35.364C253.4 35.7373 254.184 36.2973 254.726 37.044C255.286 37.7907 255.566 38.7147 255.566 39.816V39.9H252.57V39.732C252.57 39.1907 252.458 38.7333 252.234 38.36C252.01 37.9867 251.608 37.7067 251.03 37.52C250.47 37.3147 249.676 37.212 248.65 37.212C247.362 37.212 246.466 37.3613 245.962 37.66C245.458 37.9587 245.206 38.4347 245.206 39.088C245.206 39.6293 245.392 40.0213 245.766 40.264C246.139 40.5067 246.839 40.7027 247.866 40.852L251.086 41.3C252.728 41.5053 253.942 41.9067 254.726 42.504C255.51 43.1013 255.902 43.9787 255.902 45.136C255.902 45.9947 255.631 46.7413 255.09 47.376C254.548 47.992 253.792 48.468 252.822 48.804C251.851 49.1213 250.712 49.28 249.406 49.28ZM265.196 49.28C263.665 49.28 262.312 48.9813 261.136 48.384C259.978 47.768 259.073 46.9187 258.42 45.836C257.785 44.7347 257.468 43.4747 257.468 42.056C257.468 40.6 257.785 39.3307 258.42 38.248C259.073 37.1653 259.978 36.3253 261.136 35.728C262.312 35.112 263.665 34.804 265.196 34.804C266.764 34.804 268.126 35.112 269.284 35.728C270.441 36.3253 271.337 37.1653 271.972 38.248C272.625 39.3307 272.952 40.6 272.952 42.056C272.952 43.4747 272.625 44.7347 271.972 45.836C271.337 46.9187 270.441 47.768 269.284 48.384C268.126 48.9813 266.764 49.28 265.196 49.28ZM265.196 46.592C266.894 46.592 268.117 46.2093 268.864 45.444C269.61 44.66 269.984 43.5307 269.984 42.056C269.984 40.5813 269.61 39.452 268.864 38.668C268.117 37.8653 266.894 37.464 265.196 37.464C263.516 37.464 262.302 37.8653 261.556 38.668C260.809 39.452 260.436 40.5813 260.436 42.056C260.436 43.5307 260.809 44.66 261.556 45.444C262.302 46.2093 263.516 46.592 265.196 46.592ZM299.758 49H296.762V41.44C296.762 40.0587 296.473 39.06 295.894 38.444C295.315 37.828 294.345 37.52 292.982 37.52C291.507 37.52 290.462 37.9027 289.846 38.668C289.249 39.4147 288.95 40.5627 288.95 42.112L288.418 42.14L288.25 39.396H288.866C288.997 38.5933 289.267 37.8467 289.678 37.156C290.089 36.4653 290.677 35.9053 291.442 35.476C292.207 35.028 293.169 34.804 294.326 34.804C295.539 34.804 296.547 35.056 297.35 35.56C298.153 36.064 298.75 36.7547 299.142 37.632C299.553 38.5093 299.758 39.508 299.758 40.628V49ZM278.17 49H275.146V35.084H277.918V39.452L278.17 39.592V49ZM288.95 49H285.954V41.44C285.954 40.0587 285.665 39.06 285.086 38.444C284.507 37.828 283.546 37.52 282.202 37.52C280.709 37.52 279.663 37.9027 279.066 38.668C278.469 39.4147 278.17 40.5627 278.17 42.112L277.638 42.14L277.498 39.284H278.086C278.217 38.5 278.478 37.772 278.87 37.1C279.262 36.428 279.831 35.8773 280.578 35.448C281.325 35.0187 282.277 34.804 283.434 34.804C284.647 34.804 285.646 35.0653 286.43 35.588C287.214 36.092 287.802 36.7827 288.194 37.66C288.586 38.5373 288.782 39.5267 288.782 40.628H288.95V49ZM309.463 49.28C307.951 49.28 306.625 49 305.487 48.44C304.348 47.88 303.461 47.0587 302.827 45.976C302.211 44.8933 301.903 43.5867 301.903 42.056C301.903 40.6 302.211 39.3307 302.827 38.248C303.461 37.1653 304.339 36.3253 305.459 35.728C306.579 35.112 307.895 34.804 309.407 34.804C310.844 34.804 312.104 35.0653 313.187 35.588C314.288 36.092 315.137 36.8387 315.735 37.828C316.351 38.7987 316.659 39.9933 316.659 41.412C316.659 41.6547 316.649 41.888 316.631 42.112C316.612 42.3173 316.584 42.5227 316.547 42.728H303.835V41.048H314.559L313.775 42.084C313.793 41.8973 313.803 41.72 313.803 41.552C313.803 41.3653 313.803 41.1787 313.803 40.992C313.803 39.704 313.429 38.752 312.683 38.136C311.955 37.5013 310.844 37.184 309.351 37.184C307.689 37.184 306.504 37.5667 305.795 38.332C305.085 39.0973 304.731 40.1987 304.731 41.636V42.364C304.731 43.82 305.085 44.9307 305.795 45.696C306.504 46.4613 307.699 46.844 309.379 46.844C310.835 46.844 311.88 46.62 312.515 46.172C313.168 45.7053 313.495 45.0613 313.495 44.24V44.016H316.519V44.268C316.519 45.2573 316.211 46.1347 315.595 46.9C314.997 47.6467 314.167 48.2347 313.103 48.664C312.057 49.0747 310.844 49.28 309.463 49.28ZM332.473 49.28C330.886 49.28 329.598 48.916 328.609 48.188C327.619 47.4413 326.975 46.3773 326.677 44.996H326.005L326.201 42.196H326.733C326.733 43.148 326.919 43.9507 327.293 44.604C327.685 45.2573 328.235 45.7427 328.945 46.06C329.673 46.3587 330.531 46.508 331.521 46.508C332.547 46.508 333.406 46.368 334.097 46.088C334.806 45.808 335.338 45.3413 335.693 44.688C336.066 44.0347 336.253 43.1573 336.253 42.056C336.253 40.936 336.066 40.0493 335.693 39.396C335.319 38.7427 334.787 38.276 334.097 37.996C333.406 37.6973 332.566 37.548 331.577 37.548C330.009 37.548 328.805 37.9213 327.965 38.668C327.143 39.396 326.733 40.4973 326.733 41.972H326.201V38.864H326.901C327.181 37.688 327.787 36.7173 328.721 35.952C329.673 35.1867 330.979 34.804 332.641 34.804C334.078 34.804 335.282 35.112 336.253 35.728C337.242 36.3253 337.989 37.1653 338.493 38.248C339.015 39.3307 339.277 40.6 339.277 42.056C339.277 43.4747 339.015 44.7347 338.493 45.836C337.989 46.9187 337.223 47.768 336.197 48.384C335.189 48.9813 333.947 49.28 332.473 49.28ZM326.481 49H323.709V30.24H326.733V44.268L326.481 44.632V49ZM354.533 49H351.761V45.416L351.565 45.332V40.572C351.565 39.4147 351.285 38.612 350.725 38.164C350.183 37.6973 349.241 37.464 347.897 37.464C346.609 37.464 345.647 37.688 345.013 38.136C344.378 38.584 344.061 39.3213 344.061 40.348V40.46H341.065V40.348C341.065 39.284 341.345 38.3413 341.905 37.52C342.465 36.68 343.267 36.0173 344.313 35.532C345.377 35.0467 346.646 34.804 348.121 34.804C349.595 34.804 350.799 35.056 351.733 35.56C352.685 36.0453 353.385 36.7173 353.833 37.576C354.299 38.4347 354.533 39.424 354.533 40.544V49ZM345.461 49.28C344.023 49.28 342.875 48.9627 342.017 48.328C341.177 47.6747 340.757 46.7787 340.757 45.64C340.757 44.912 340.934 44.3053 341.289 43.82C341.662 43.316 342.185 42.924 342.857 42.644C343.529 42.364 344.322 42.168 345.237 42.056L351.845 41.356V43.148L346.105 43.792C345.321 43.8853 344.733 44.0533 344.341 44.296C343.967 44.52 343.781 44.9027 343.781 45.444C343.781 46.004 343.977 46.424 344.369 46.704C344.779 46.9653 345.414 47.096 346.273 47.096C347.337 47.096 348.261 46.9653 349.045 46.704C349.829 46.424 350.445 45.9947 350.893 45.416C351.341 44.8373 351.565 44.0907 351.565 43.176L351.957 43.232V45.528H351.565C351.191 46.704 350.473 47.628 349.409 48.3C348.363 48.9533 347.047 49.28 345.461 49.28ZM363.812 49.28C361.572 49.28 359.836 48.8507 358.604 47.992C357.391 47.1333 356.784 45.9013 356.784 44.296V44.212H359.808V44.436C359.808 45.3507 360.107 45.9853 360.704 46.34C361.32 46.676 362.356 46.844 363.812 46.844C365.175 46.844 366.099 46.704 366.584 46.424C367.088 46.1253 367.34 45.668 367.34 45.052C367.34 44.4733 367.144 44.0627 366.752 43.82C366.379 43.5773 365.688 43.3907 364.68 43.26L360.872 42.756C359.547 42.588 358.511 42.2147 357.764 41.636C357.017 41.0387 356.644 40.152 356.644 38.976C356.644 38.1547 356.887 37.436 357.372 36.82C357.857 36.1853 358.585 35.6907 359.556 35.336C360.527 34.9813 361.721 34.804 363.14 34.804C364.559 34.804 365.772 34.9907 366.78 35.364C367.807 35.7373 368.591 36.2973 369.132 37.044C369.692 37.7907 369.972 38.7147 369.972 39.816V39.9H366.976V39.732C366.976 39.1907 366.864 38.7333 366.64 38.36C366.416 37.9867 366.015 37.7067 365.436 37.52C364.876 37.3147 364.083 37.212 363.056 37.212C361.768 37.212 360.872 37.3613 360.368 37.66C359.864 37.9587 359.612 38.4347 359.612 39.088C359.612 39.6293 359.799 40.0213 360.172 40.264C360.545 40.5067 361.245 40.7027 362.272 40.852L365.492 41.3C367.135 41.5053 368.348 41.9067 369.132 42.504C369.916 43.1013 370.308 43.9787 370.308 45.136C370.308 45.9947 370.037 46.7413 369.496 47.376C368.955 47.992 368.199 48.468 367.228 48.804C366.257 49.1213 365.119 49.28 363.812 49.28ZM375.514 49H372.49V35.084H375.514V49ZM375.514 33.46H372.49V30.24H375.514V33.46ZM385.342 49.28C383.811 49.28 382.477 48.9813 381.338 48.384C380.199 47.768 379.313 46.9187 378.678 45.836C378.062 44.7347 377.754 43.4747 377.754 42.056C377.754 40.6 378.062 39.3307 378.678 38.248C379.313 37.1653 380.199 36.3253 381.338 35.728C382.477 35.112 383.811 34.804 385.342 34.804C386.742 34.804 387.983 35.0467 389.066 35.532C390.149 36.0173 390.998 36.6987 391.614 37.576C392.249 38.4347 392.566 39.452 392.566 40.628V40.908H389.57V40.74C389.57 39.6573 389.197 38.8547 388.45 38.332C387.703 37.7907 386.649 37.52 385.286 37.52C383.718 37.52 382.57 37.9027 381.842 38.668C381.114 39.4147 380.75 40.544 380.75 42.056C380.75 43.5493 381.114 44.6787 381.842 45.444C382.57 46.1907 383.718 46.564 385.286 46.564C386.649 46.564 387.703 46.3027 388.45 45.78C389.197 45.2387 389.57 44.4267 389.57 43.344V43.148H392.566V43.456C392.566 44.6133 392.249 45.6307 391.614 46.508C390.998 47.3853 390.149 48.0667 389.066 48.552C387.983 49.0373 386.742 49.28 385.342 49.28ZM402.612 49H399.588V35.084H402.612V49ZM402.612 33.46H399.588V30.24H402.612V33.46ZM419.944 49H416.92V41.44C416.92 40.1333 416.602 39.1533 415.968 38.5C415.352 37.8467 414.316 37.52 412.86 37.52C411.348 37.52 410.228 37.912 409.5 38.696C408.79 39.4613 408.436 40.6 408.436 42.112L407.904 42.14L407.764 39.396H408.38C408.529 38.612 408.828 37.8747 409.276 37.184C409.742 36.4747 410.377 35.9053 411.18 35.476C412.001 35.028 413 34.804 414.176 34.804C415.464 34.804 416.537 35.0653 417.396 35.588C418.254 36.1107 418.889 36.8107 419.3 37.688C419.729 38.5653 419.944 39.5453 419.944 40.628V49ZM408.436 49H405.412V35.084H408.184V39.452L408.436 39.592V49ZM426.726 49H423.702V35.84C423.702 34.664 423.954 33.6653 424.458 32.844C424.981 32.004 425.737 31.36 426.726 30.912C427.716 30.464 428.92 30.24 430.338 30.24H431.71V32.48H429.862C428.668 32.48 427.8 32.704 427.258 33.152C426.717 33.5813 426.54 34.4027 426.726 35.616V36.176V49ZM431.71 37.604H421.602V35.084H431.71V37.604ZM440.496 49.28C438.966 49.28 437.612 48.9813 436.436 48.384C435.279 47.768 434.374 46.9187 433.72 45.836C433.086 44.7347 432.768 43.4747 432.768 42.056C432.768 40.6 433.086 39.3307 433.72 38.248C434.374 37.1653 435.279 36.3253 436.436 35.728C437.612 35.112 438.966 34.804 440.496 34.804C442.064 34.804 443.427 35.112 444.584 35.728C445.742 36.3253 446.638 37.1653 447.272 38.248C447.926 39.3307 448.252 40.6 448.252 42.056C448.252 43.4747 447.926 44.7347 447.272 45.836C446.638 46.9187 445.742 47.768 444.584 48.384C443.427 48.9813 442.064 49.28 440.496 49.28ZM440.496 46.592C442.195 46.592 443.418 46.2093 444.164 45.444C444.911 44.66 445.284 43.5307 445.284 42.056C445.284 40.5813 444.911 39.452 444.164 38.668C443.418 37.8653 442.195 37.464 440.496 37.464C438.816 37.464 437.603 37.8653 436.856 38.668C436.11 39.452 435.736 40.5813 435.736 42.056C435.736 43.5307 436.11 44.66 436.856 45.444C437.603 46.2093 438.816 46.592 440.496 46.592ZM453.471 49H450.447V35.084H453.219V39.032L453.471 39.172V49ZM453.471 41.188H452.799V38.836H453.415C453.546 38.0707 453.807 37.3893 454.199 36.792C454.591 36.176 455.114 35.6907 455.767 35.336C456.439 34.9813 457.251 34.804 458.203 34.804C459.267 34.804 460.135 35.028 460.807 35.476C461.479 35.924 461.964 36.5213 462.263 37.268C462.58 38.0147 462.739 38.8267 462.739 39.704V41.524H459.743V40.292C459.743 39.284 459.519 38.5467 459.071 38.08C458.623 37.6133 457.876 37.38 456.831 37.38C455.636 37.38 454.778 37.7067 454.255 38.36C453.732 39.0133 453.471 39.956 453.471 41.188ZM489.25 49H486.254V41.44C486.254 40.0587 485.965 39.06 485.386 38.444C484.808 37.828 483.837 37.52 482.474 37.52C481 37.52 479.954 37.9027 479.338 38.668C478.741 39.4147 478.442 40.5627 478.442 42.112L477.91 42.14L477.742 39.396H478.358C478.489 38.5933 478.76 37.8467 479.17 37.156C479.581 36.4653 480.169 35.9053 480.934 35.476C481.7 35.028 482.661 34.804 483.818 34.804C485.032 34.804 486.04 35.056 486.842 35.56C487.645 36.064 488.242 36.7547 488.634 37.632C489.045 38.5093 489.25 39.508 489.25 40.628V49ZM467.662 49H464.638V35.084H467.41V39.452L467.662 39.592V49ZM478.442 49H475.446V41.44C475.446 40.0587 475.157 39.06 474.578 38.444C474 37.828 473.038 37.52 471.694 37.52C470.201 37.52 469.156 37.9027 468.558 38.668C467.961 39.4147 467.662 40.5627 467.662 42.112L467.13 42.14L466.99 39.284H467.578C467.709 38.5 467.97 37.772 468.362 37.1C468.754 36.428 469.324 35.8773 470.07 35.448C470.817 35.0187 471.769 34.804 472.926 34.804C474.14 34.804 475.138 35.0653 475.922 35.588C476.706 36.092 477.294 36.7827 477.686 37.66C478.078 38.5373 478.274 39.5267 478.274 40.628H478.442V49ZM505.115 49H502.343V45.416L502.147 45.332V40.572C502.147 39.4147 501.867 38.612 501.307 38.164C500.765 37.6973 499.823 37.464 498.479 37.464C497.191 37.464 496.229 37.688 495.595 38.136C494.96 38.584 494.643 39.3213 494.643 40.348V40.46H491.647V40.348C491.647 39.284 491.927 38.3413 492.487 37.52C493.047 36.68 493.849 36.0173 494.895 35.532C495.959 35.0467 497.228 34.804 498.703 34.804C500.177 34.804 501.381 35.056 502.315 35.56C503.267 36.0453 503.967 36.7173 504.415 37.576C504.881 38.4347 505.115 39.424 505.115 40.544V49ZM496.043 49.28C494.605 49.28 493.457 48.9627 492.599 48.328C491.759 47.6747 491.339 46.7787 491.339 45.64C491.339 44.912 491.516 44.3053 491.871 43.82C492.244 43.316 492.767 42.924 493.439 42.644C494.111 42.364 494.904 42.168 495.819 42.056L502.427 41.356V43.148L496.687 43.792C495.903 43.8853 495.315 44.0533 494.923 44.296C494.549 44.52 494.363 44.9027 494.363 45.444C494.363 46.004 494.559 46.424 494.951 46.704C495.361 46.9653 495.996 47.096 496.855 47.096C497.919 47.096 498.843 46.9653 499.627 46.704C500.411 46.424 501.027 45.9947 501.475 45.416C501.923 44.8373 502.147 44.0907 502.147 43.176L502.539 43.232V45.528H502.147C501.773 46.704 501.055 47.628 499.991 48.3C498.945 48.9533 497.629 49.28 496.043 49.28ZM516.942 49H513.75C512.257 49 511.071 48.636 510.194 47.908C509.335 47.18 508.906 45.976 508.906 44.296V32.032H511.902V44.128C511.902 44.9867 512.107 45.5653 512.518 45.864C512.929 46.144 513.563 46.284 514.422 46.284H516.942V49ZM516.942 37.604H506.554V35.084H516.942V37.604ZM521.858 49H518.834V35.084H521.858V49ZM521.858 33.46H518.834V30.24H521.858V33.46ZM531.77 49.28C530.239 49.28 528.886 48.9813 527.71 48.384C526.552 47.768 525.647 46.9187 524.994 45.836C524.359 44.7347 524.042 43.4747 524.042 42.056C524.042 40.6 524.359 39.3307 524.994 38.248C525.647 37.1653 526.552 36.3253 527.71 35.728C528.886 35.112 530.239 34.804 531.77 34.804C533.338 34.804 534.7 35.112 535.858 35.728C537.015 36.3253 537.911 37.1653 538.546 38.248C539.199 39.3307 539.526 40.6 539.526 42.056C539.526 43.4747 539.199 44.7347 538.546 45.836C537.911 46.9187 537.015 47.768 535.858 48.384C534.7 48.9813 533.338 49.28 531.77 49.28ZM531.77 46.592C533.468 46.592 534.691 46.2093 535.438 45.444C536.184 44.66 536.558 43.5307 536.558 42.056C536.558 40.5813 536.184 39.452 535.438 38.668C534.691 37.8653 533.468 37.464 531.77 37.464C530.09 37.464 528.876 37.8653 528.13 38.668C527.383 39.452 527.01 40.5813 527.01 42.056C527.01 43.5307 527.383 44.66 528.13 45.444C528.876 46.2093 530.09 46.592 531.77 46.592ZM556.252 49H553.228V41.44C553.228 40.1333 552.911 39.1533 552.276 38.5C551.66 37.8467 550.624 37.52 549.168 37.52C547.656 37.52 546.536 37.912 545.808 38.696C545.099 39.4613 544.744 40.6 544.744 42.112L544.212 42.14L544.072 39.396H544.688C544.838 38.612 545.136 37.8747 545.584 37.184C546.051 36.4747 546.686 35.9053 547.488 35.476C548.31 35.028 549.308 34.804 550.484 34.804C551.772 34.804 552.846 35.0653 553.704 35.588C554.563 36.1107 555.198 36.8107 555.608 37.688C556.038 38.5653 556.252 39.5453 556.252 40.628V49ZM544.744 49H541.72V35.084H544.492V39.452L544.744 39.592V49ZM562.195 49H558.387V44.66H562.195V49ZM567.691 49H563.883V44.66H567.691V49ZM573.187 49H569.379V44.66H573.187V49Z" fill="black"/>
</svg>
