<svg width="424" height="150" viewBox="0 0 424 150" fill="none" xmlns="http://www.w3.org/2000/svg">
<mask id="path-1-outside-1_761_2" maskUnits="userSpaceOnUse" x="0.043457" y="0" width="424" height="150" fill="black">
<rect fill="white" x="0.043457" width="424" height="150"/>
<path fill-rule="evenodd" clip-rule="evenodd" d="M42.0435 2C19.9521 2 2.04346 19.9086 2.04346 42V69C2.04346 91.0914 19.9521 109 42.0435 109H56.6438C56.6914 110.039 57.31 129.39 38.5058 147.947C38.5058 147.947 86.666 151.081 92.1724 109H382C387.325 109 392.406 107.96 397.053 106.071C404.868 102.994 411.335 97.605 415.651 90.6335C419.669 84.3966 422 76.9706 422 69V42C422 19.9086 404.091 2 382 2H42.0435Z"/>
</mask>
<path fill-rule="evenodd" clip-rule="evenodd" d="M42.0435 2C19.9521 2 2.04346 19.9086 2.04346 42V69C2.04346 91.0914 19.9521 109 42.0435 109H56.6438C56.6914 110.039 57.31 129.39 38.5058 147.947C38.5058 147.947 86.666 151.081 92.1724 109H382C387.325 109 392.406 107.96 397.053 106.071C404.868 102.994 411.335 97.605 415.651 90.6335C419.669 84.3966 422 76.9706 422 69V42C422 19.9086 404.091 2 382 2H42.0435Z" fill="white"/>
<path d="M56.6438 109L58.6417 108.909L58.5543 107H56.6438V109ZM38.5058 147.947L37.101 146.524L33.9293 149.654L38.376 149.943L38.5058 147.947ZM92.1724 109V107H90.417L90.1893 108.741L92.1724 109ZM397.053 106.071L396.32 104.21L396.31 104.214L396.3 104.218L397.053 106.071ZM415.651 90.6335L413.969 89.5504L413.96 89.5655L413.95 89.5808L415.651 90.6335ZM4.04346 42C4.04346 21.0132 21.0566 4 42.0435 4V0C18.8475 0 0.043457 18.804 0.043457 42H4.04346ZM4.04346 69V42H0.043457V69H4.04346ZM42.0435 107C21.0567 107 4.04346 89.9868 4.04346 69H0.043457C0.043457 92.196 18.8475 111 42.0435 111V107ZM56.6438 107H42.0435V111H56.6438V107ZM39.9106 149.371C59.2714 130.264 58.7034 110.256 58.6417 108.909L54.6459 109.091C54.6794 109.823 55.3486 128.516 37.101 146.524L39.9106 149.371ZM90.1893 108.741C87.562 128.819 74.857 138.06 62.6106 142.367C56.4572 144.531 50.4463 145.431 45.9592 145.786C43.7202 145.963 41.8724 146.003 40.5912 146C39.9509 145.998 39.453 145.985 39.1195 145.974C38.9528 145.968 38.8273 145.962 38.7457 145.958C38.7049 145.956 38.6751 145.954 38.6567 145.953C38.6474 145.952 38.641 145.952 38.6375 145.952C38.6358 145.952 38.6347 145.952 38.6344 145.951C38.6342 145.951 38.6346 145.952 38.6345 145.952C38.635 145.952 38.6356 145.952 38.5058 147.947C38.376 149.943 38.377 149.943 38.3782 149.943C38.3789 149.943 38.3803 149.943 38.3816 149.943C38.3842 149.944 38.3875 149.944 38.3916 149.944C38.3998 149.945 38.4108 149.945 38.4248 149.946C38.4526 149.948 38.492 149.95 38.5425 149.952C38.6435 149.958 38.7891 149.964 38.9765 149.971C39.3512 149.984 39.8933 149.998 40.5807 150C41.9548 150.003 43.9124 149.96 46.2745 149.773C50.9896 149.4 57.3629 148.453 63.9378 146.141C77.1481 141.494 91.2764 131.262 94.1555 109.259L90.1893 108.741ZM382 107H92.1724V111H382V107ZM396.3 104.218C391.888 106.011 387.062 107 382 107V111C387.587 111 392.924 109.908 397.806 107.924L396.3 104.218ZM413.95 89.5808C409.865 96.1796 403.741 101.288 396.32 104.21L397.785 107.932C405.996 104.699 412.805 99.0304 417.351 91.6862L413.95 89.5808ZM420 69C420 76.575 417.785 83.6267 413.969 89.5504L417.332 91.7166C421.552 85.1665 424 77.3661 424 69H420ZM420 42V69H424V42H420ZM382 4C402.987 4 420 21.0132 420 42H424C424 18.804 405.196 0 382 0V4ZM42.0435 4H382V0H42.0435V4Z" fill="black" mask="url(#path-1-outside-1_761_2)"/>
<path d="M50.7976 40.7H47.9976L39.6536 28.24H43.3496L47.7736 34.904L49.3416 37.284H49.5656L51.1056 34.904L55.5016 28.24H59.2256L50.7976 40.7ZM50.8816 47H47.8856V38.74H50.8816V47ZM67.5022 47.28C65.9716 47.28 64.6182 46.9813 63.4422 46.384C62.2849 45.768 61.3796 44.9187 60.7262 43.836C60.0916 42.7347 59.7742 41.4747 59.7742 40.056C59.7742 38.6 60.0916 37.3307 60.7262 36.248C61.3796 35.1653 62.2849 34.3253 63.4422 33.728C64.6182 33.112 65.9716 32.804 67.5022 32.804C69.0702 32.804 70.4329 33.112 71.5902 33.728C72.7476 34.3253 73.6436 35.1653 74.2782 36.248C74.9316 37.3307 75.2582 38.6 75.2582 40.056C75.2582 41.4747 74.9316 42.7347 74.2782 43.836C73.6436 44.9187 72.7476 45.768 71.5902 46.384C70.4329 46.9813 69.0702 47.28 67.5022 47.28ZM67.5022 44.592C69.2009 44.592 70.4236 44.2093 71.1702 43.444C71.9169 42.66 72.2902 41.5307 72.2902 40.056C72.2902 38.5813 71.9169 37.452 71.1702 36.668C70.4236 35.8653 69.2009 35.464 67.5022 35.464C65.8222 35.464 64.6089 35.8653 63.8622 36.668C63.1156 37.452 62.7422 38.5813 62.7422 40.056C62.7422 41.5307 63.1156 42.66 63.8622 43.444C64.6089 44.2093 65.8222 44.592 67.5022 44.592ZM83.2487 47.28C81.9421 47.28 80.8594 47.0187 80.0007 46.496C79.1421 45.9733 78.4981 45.2733 78.0687 44.396C77.6394 43.5187 77.4247 42.5387 77.4247 41.456V33.084H80.4207V40.644C80.4207 41.932 80.7381 42.912 81.3727 43.584C82.0261 44.2373 83.0901 44.564 84.5647 44.564C86.1141 44.564 87.2434 44.1813 87.9527 43.416C88.6807 42.632 89.0447 41.484 89.0447 39.972L89.5767 39.944L89.7447 42.688H89.1007C88.9701 43.472 88.6714 44.2093 88.2047 44.9C87.7381 45.5907 87.0941 46.16 86.2727 46.608C85.4701 47.056 84.4621 47.28 83.2487 47.28ZM92.0687 47H89.2967V42.632L89.0447 42.492V33.084H92.0687V47ZM106.265 47H102.513L98.3412 33.084H101.477L103.801 40.98L104.445 44.564H104.669L105.705 40.7L108.617 33.084H112.481L115.421 40.7L116.457 44.564H116.681L117.325 40.98L119.649 33.084H122.729L118.501 47H114.749L111.697 38.992L110.633 35.576H110.409L109.345 38.992L106.265 47ZM137.425 47H134.653V43.416L134.457 43.332V38.572C134.457 37.4147 134.177 36.612 133.617 36.164C133.076 35.6973 132.133 35.464 130.789 35.464C129.501 35.464 128.54 35.688 127.905 36.136C127.271 36.584 126.953 37.3213 126.953 38.348V38.46H123.957V38.348C123.957 37.284 124.237 36.3413 124.797 35.52C125.357 34.68 126.16 34.0173 127.205 33.532C128.269 33.0467 129.539 32.804 131.013 32.804C132.488 32.804 133.692 33.056 134.625 33.56C135.577 34.0453 136.277 34.7173 136.725 35.576C137.192 36.4347 137.425 37.424 137.425 38.544V47ZM128.353 47.28C126.916 47.28 125.768 46.9627 124.909 46.328C124.069 45.6747 123.649 44.7787 123.649 43.64C123.649 42.912 123.827 42.3053 124.181 41.82C124.555 41.316 125.077 40.924 125.749 40.644C126.421 40.364 127.215 40.168 128.129 40.056L134.737 39.356V41.148L128.997 41.792C128.213 41.8853 127.625 42.0533 127.233 42.296C126.86 42.52 126.673 42.9027 126.673 43.444C126.673 44.004 126.869 44.424 127.261 44.704C127.672 44.9653 128.307 45.096 129.165 45.096C130.229 45.096 131.153 44.9653 131.937 44.704C132.721 44.424 133.337 43.9947 133.785 43.416C134.233 42.8373 134.457 42.0907 134.457 41.176L134.849 41.232V43.528H134.457C134.084 44.704 133.365 45.628 132.301 46.3C131.256 46.9533 129.94 47.28 128.353 47.28ZM154.657 47H151.633V39.44C151.633 38.1333 151.315 37.1533 150.681 36.5C150.065 35.8467 149.029 35.52 147.573 35.52C146.061 35.52 144.941 35.912 144.213 36.696C143.503 37.4613 143.149 38.6 143.149 40.112L142.617 40.14L142.477 37.396H143.093C143.242 36.612 143.541 35.8747 143.989 35.184C144.455 34.4747 145.09 33.9053 145.893 33.476C146.714 33.028 147.713 32.804 148.889 32.804C150.177 32.804 151.25 33.0653 152.109 33.588C152.967 34.1107 153.602 34.8107 154.013 35.688C154.442 36.5653 154.657 37.5453 154.657 38.628V47ZM143.149 47H140.125V33.084H142.897V37.452L143.149 37.592V47ZM166.479 47H163.287C161.794 47 160.609 46.636 159.731 45.908C158.873 45.18 158.443 43.976 158.443 42.296V30.032H161.439V42.128C161.439 42.9867 161.645 43.5653 162.055 43.864C162.466 44.144 163.101 44.284 163.959 44.284H166.479V47ZM166.479 35.604H156.091V33.084H166.479V35.604ZM182.284 47H179.092C177.599 47 176.413 46.636 175.536 45.908C174.677 45.18 174.248 43.976 174.248 42.296V30.032H177.244V42.128C177.244 42.9867 177.449 43.5653 177.86 43.864C178.271 44.144 178.905 44.284 179.764 44.284H182.284V47ZM182.284 35.604H171.896V33.084H182.284V35.604ZM191.287 47.28C189.757 47.28 188.403 46.9813 187.227 46.384C186.07 45.768 185.165 44.9187 184.511 43.836C183.877 42.7347 183.559 41.4747 183.559 40.056C183.559 38.6 183.877 37.3307 184.511 36.248C185.165 35.1653 186.07 34.3253 187.227 33.728C188.403 33.112 189.757 32.804 191.287 32.804C192.855 32.804 194.218 33.112 195.375 33.728C196.533 34.3253 197.429 35.1653 198.063 36.248C198.717 37.3307 199.043 38.6 199.043 40.056C199.043 41.4747 198.717 42.7347 198.063 43.836C197.429 44.9187 196.533 45.768 195.375 46.384C194.218 46.9813 192.855 47.28 191.287 47.28ZM191.287 44.592C192.986 44.592 194.209 44.2093 194.955 43.444C195.702 42.66 196.075 41.5307 196.075 40.056C196.075 38.5813 195.702 37.452 194.955 36.668C194.209 35.8653 192.986 35.464 191.287 35.464C189.607 35.464 188.394 35.8653 187.647 36.668C186.901 37.452 186.527 38.5813 186.527 40.056C186.527 41.5307 186.901 42.66 187.647 43.444C188.394 44.2093 189.607 44.592 191.287 44.592ZM212.603 47.28C210.363 47.28 208.627 46.8507 207.395 45.992C206.182 45.1333 205.575 43.9013 205.575 42.296V42.212H208.599V42.436C208.599 43.3507 208.898 43.9853 209.495 44.34C210.111 44.676 211.147 44.844 212.603 44.844C213.966 44.844 214.89 44.704 215.375 44.424C215.879 44.1253 216.131 43.668 216.131 43.052C216.131 42.4733 215.935 42.0627 215.543 41.82C215.17 41.5773 214.479 41.3907 213.471 41.26L209.663 40.756C208.338 40.588 207.302 40.2147 206.555 39.636C205.808 39.0387 205.435 38.152 205.435 36.976C205.435 36.1547 205.678 35.436 206.163 34.82C206.648 34.1853 207.376 33.6907 208.347 33.336C209.318 32.9813 210.512 32.804 211.931 32.804C213.35 32.804 214.563 32.9907 215.571 33.364C216.598 33.7373 217.382 34.2973 217.923 35.044C218.483 35.7907 218.763 36.7147 218.763 37.816V37.9H215.767V37.732C215.767 37.1907 215.655 36.7333 215.431 36.36C215.207 35.9867 214.806 35.7067 214.227 35.52C213.667 35.3147 212.874 35.212 211.847 35.212C210.559 35.212 209.663 35.3613 209.159 35.66C208.655 35.9587 208.403 36.4347 208.403 37.088C208.403 37.6293 208.59 38.0213 208.963 38.264C209.336 38.5067 210.036 38.7027 211.063 38.852L214.283 39.3C215.926 39.5053 217.139 39.9067 217.923 40.504C218.707 41.1013 219.099 41.9787 219.099 43.136C219.099 43.9947 218.828 44.7413 218.287 45.376C217.746 45.992 216.99 46.468 216.019 46.804C215.048 47.1213 213.91 47.28 212.603 47.28ZM228.281 47.28C226.769 47.28 225.444 47 224.305 46.44C223.166 45.88 222.28 45.0587 221.645 43.976C221.029 42.8933 220.721 41.5867 220.721 40.056C220.721 38.6 221.029 37.3307 221.645 36.248C222.28 35.1653 223.157 34.3253 224.277 33.728C225.397 33.112 226.713 32.804 228.225 32.804C229.662 32.804 230.922 33.0653 232.005 33.588C233.106 34.092 233.956 34.8387 234.553 35.828C235.169 36.7987 235.477 37.9933 235.477 39.412C235.477 39.6547 235.468 39.888 235.449 40.112C235.43 40.3173 235.402 40.5227 235.365 40.728H222.653V39.048H233.377L232.593 40.084C232.612 39.8973 232.621 39.72 232.621 39.552C232.621 39.3653 232.621 39.1787 232.621 38.992C232.621 37.704 232.248 36.752 231.501 36.136C230.773 35.5013 229.662 35.184 228.169 35.184C226.508 35.184 225.322 35.5667 224.613 36.332C223.904 37.0973 223.549 38.1987 223.549 39.636V40.364C223.549 41.82 223.904 42.9307 224.613 43.696C225.322 44.4613 226.517 44.844 228.197 44.844C229.653 44.844 230.698 44.62 231.333 44.172C231.986 43.7053 232.313 43.0613 232.313 42.24V42.016H235.337V42.268C235.337 43.2573 235.029 44.1347 234.413 44.9C233.816 45.6467 232.985 46.2347 231.921 46.664C230.876 47.0747 229.662 47.28 228.281 47.28ZM244.742 47.28C243.23 47.28 241.904 47 240.766 46.44C239.627 45.88 238.74 45.0587 238.106 43.976C237.49 42.8933 237.182 41.5867 237.182 40.056C237.182 38.6 237.49 37.3307 238.106 36.248C238.74 35.1653 239.618 34.3253 240.738 33.728C241.858 33.112 243.174 32.804 244.686 32.804C246.123 32.804 247.383 33.0653 248.466 33.588C249.567 34.092 250.416 34.8387 251.014 35.828C251.63 36.7987 251.938 37.9933 251.938 39.412C251.938 39.6547 251.928 39.888 251.91 40.112C251.891 40.3173 251.863 40.5227 251.826 40.728H239.114V39.048H249.838L249.054 40.084C249.072 39.8973 249.082 39.72 249.082 39.552C249.082 39.3653 249.082 39.1787 249.082 38.992C249.082 37.704 248.708 36.752 247.962 36.136C247.234 35.5013 246.123 35.184 244.63 35.184C242.968 35.184 241.783 35.5667 241.074 36.332C240.364 37.0973 240.01 38.1987 240.01 39.636V40.364C240.01 41.82 240.364 42.9307 241.074 43.696C241.783 44.4613 242.978 44.844 244.658 44.844C246.114 44.844 247.159 44.62 247.794 44.172C248.447 43.7053 248.774 43.0613 248.774 42.24V42.016H251.798V42.268C251.798 43.2573 251.49 44.1347 250.874 44.9C250.276 45.6467 249.446 46.2347 248.382 46.664C247.336 47.0747 246.123 47.28 244.742 47.28ZM261.228 51.76H259.24V49.016H261.956C262.572 49.016 263.029 48.9133 263.328 48.708C263.645 48.5213 263.907 48.1947 264.112 47.728L264.98 45.852L264.644 47.392L257.588 33.084H260.976L264.532 40.476L265.904 43.808H266.128L267.444 40.448L270.72 33.084H274.052L266.8 48.512C266.427 49.3333 265.988 49.9773 265.484 50.444C264.98 50.9293 264.383 51.2653 263.692 51.452C263.001 51.6573 262.18 51.76 261.228 51.76ZM282.643 47.28C281.112 47.28 279.759 46.9813 278.583 46.384C277.426 45.768 276.52 44.9187 275.867 43.836C275.232 42.7347 274.915 41.4747 274.915 40.056C274.915 38.6 275.232 37.3307 275.867 36.248C276.52 35.1653 277.426 34.3253 278.583 33.728C279.759 33.112 281.112 32.804 282.643 32.804C284.211 32.804 285.574 33.112 286.731 33.728C287.888 34.3253 288.784 35.1653 289.419 36.248C290.072 37.3307 290.399 38.6 290.399 40.056C290.399 41.4747 290.072 42.7347 289.419 43.836C288.784 44.9187 287.888 45.768 286.731 46.384C285.574 46.9813 284.211 47.28 282.643 47.28ZM282.643 44.592C284.342 44.592 285.564 44.2093 286.311 43.444C287.058 42.66 287.431 41.5307 287.431 40.056C287.431 38.5813 287.058 37.452 286.311 36.668C285.564 35.8653 284.342 35.464 282.643 35.464C280.963 35.464 279.75 35.8653 279.003 36.668C278.256 37.452 277.883 38.5813 277.883 40.056C277.883 41.5307 278.256 42.66 279.003 43.444C279.75 44.2093 280.963 44.592 282.643 44.592ZM298.389 47.28C297.083 47.28 296 47.0187 295.141 46.496C294.283 45.9733 293.639 45.2733 293.209 44.396C292.78 43.5187 292.565 42.5387 292.565 41.456V33.084H295.561V40.644C295.561 41.932 295.879 42.912 296.513 43.584C297.167 44.2373 298.231 44.564 299.705 44.564C301.255 44.564 302.384 44.1813 303.093 43.416C303.821 42.632 304.185 41.484 304.185 39.972L304.717 39.944L304.885 42.688H304.241C304.111 43.472 303.812 44.2093 303.345 44.9C302.879 45.5907 302.235 46.16 301.413 46.608C300.611 47.056 299.603 47.28 298.389 47.28ZM307.209 47H304.437V42.632L304.185 42.492V33.084H307.209V47ZM312.981 47H309.957V33.084H312.729V37.032L312.981 37.172V47ZM312.981 39.188H312.309V36.836H312.925C313.055 36.0707 313.317 35.3893 313.709 34.792C314.101 34.176 314.623 33.6907 315.277 33.336C315.949 32.9813 316.761 32.804 317.713 32.804C318.777 32.804 319.645 33.028 320.317 33.476C320.989 33.924 321.474 34.5213 321.773 35.268C322.09 36.0147 322.249 36.8267 322.249 37.704V39.524H319.253V38.292C319.253 37.284 319.029 36.5467 318.581 36.08C318.133 35.6133 317.386 35.38 316.341 35.38C315.146 35.38 314.287 35.7067 313.765 36.36C313.242 37.0133 312.981 37.956 312.981 39.188ZM50.0976 81.28C48.5483 81.28 47.2789 80.8973 46.2896 80.132C45.3003 79.3667 44.6656 78.3493 44.3856 77.08H43.7416V74.28H44.2736C44.2736 75.2133 44.4696 76.0067 44.8616 76.66C45.2536 77.2947 45.8043 77.7707 46.5136 78.088C47.2416 78.3867 48.0909 78.536 49.0616 78.536C50.0696 78.536 50.9189 78.396 51.6096 78.116C52.3189 77.8173 52.8603 77.3413 53.2336 76.688C53.6069 76.0347 53.7936 75.1573 53.7936 74.056C53.7936 72.936 53.6069 72.0493 53.2336 71.396C52.8603 70.7427 52.3189 70.276 51.6096 69.996C50.9189 69.716 50.0883 69.576 49.1176 69.576C47.5683 69.576 46.3736 69.9493 45.5336 70.696C44.6936 71.424 44.2736 72.5347 44.2736 74.028H43.7416L43.5456 70.948H44.2736C44.5536 69.66 45.1789 68.652 46.1496 67.924C47.1389 67.1773 48.4456 66.804 50.0696 66.804C51.5069 66.804 52.7296 67.112 53.7376 67.728C54.7456 68.3253 55.5109 69.1653 56.0336 70.248C56.5563 71.3307 56.8176 72.6 56.8176 74.056C56.8176 75.4747 56.5563 76.7347 56.0336 77.836C55.5296 78.9187 54.7736 79.768 53.7656 80.384C52.7763 80.9813 51.5536 81.28 50.0976 81.28ZM44.2736 85.76H41.2496V67.084H44.0216V71.452L44.2736 71.816V85.76ZM61.9377 81H58.9137V67.084H61.6857V71.032L61.9377 71.172V81ZM61.9377 73.188H61.2657V70.836H61.8817C62.0123 70.0707 62.2737 69.3893 62.6657 68.792C63.0577 68.176 63.5803 67.6907 64.2337 67.336C64.9057 66.9813 65.7177 66.804 66.6697 66.804C67.7337 66.804 68.6017 67.028 69.2737 67.476C69.9457 67.924 70.431 68.5213 70.7297 69.268C71.047 70.0147 71.2057 70.8267 71.2057 71.704V73.524H68.2097V72.292C68.2097 71.284 67.9857 70.5467 67.5377 70.08C67.0897 69.6133 66.343 69.38 65.2977 69.38C64.103 69.38 63.2443 69.7067 62.7217 70.36C62.199 71.0133 61.9377 71.956 61.9377 73.188ZM80.2171 81.28C78.6864 81.28 77.3331 80.9813 76.1571 80.384C74.9997 79.768 74.0944 78.9187 73.4411 77.836C72.8064 76.7347 72.4891 75.4747 72.4891 74.056C72.4891 72.6 72.8064 71.3307 73.4411 70.248C74.0944 69.1653 74.9997 68.3253 76.1571 67.728C77.3331 67.112 78.6864 66.804 80.2171 66.804C81.7851 66.804 83.1477 67.112 84.3051 67.728C85.4624 68.3253 86.3584 69.1653 86.9931 70.248C87.6464 71.3307 87.9731 72.6 87.9731 74.056C87.9731 75.4747 87.6464 76.7347 86.9931 77.836C86.3584 78.9187 85.4624 79.768 84.3051 80.384C83.1477 80.9813 81.7851 81.28 80.2171 81.28ZM80.2171 78.592C81.9157 78.592 83.1384 78.2093 83.8851 77.444C84.6317 76.66 85.0051 75.5307 85.0051 74.056C85.0051 72.5813 84.6317 71.452 83.8851 70.668C83.1384 69.8653 81.9157 69.464 80.2171 69.464C78.5371 69.464 77.3237 69.8653 76.5771 70.668C75.8304 71.452 75.4571 72.5813 75.4571 74.056C75.4571 75.5307 75.8304 76.66 76.5771 77.444C77.3237 78.2093 78.5371 78.592 80.2171 78.592ZM94.2556 81H91.2316V67.84C91.2316 66.664 91.4836 65.6653 91.9876 64.844C92.5102 64.004 93.2662 63.36 94.2556 62.912C95.2449 62.464 96.4489 62.24 97.8676 62.24H99.2396V64.48H97.3916C96.1969 64.48 95.3289 64.704 94.7876 65.152C94.2462 65.5813 94.0689 66.4027 94.2556 67.616V68.176V81ZM99.2396 69.604H89.1316V67.084H99.2396V69.604ZM103.944 81H100.92V67.084H103.944V81ZM103.944 65.46H100.92V62.24H103.944V65.46ZM109.762 81H106.738V62.24H109.762V81ZM119.562 81.28C118.05 81.28 116.725 81 115.586 80.44C114.447 79.88 113.561 79.0587 112.926 77.976C112.31 76.8933 112.002 75.5867 112.002 74.056C112.002 72.6 112.31 71.3307 112.926 70.248C113.561 69.1653 114.438 68.3253 115.558 67.728C116.678 67.112 117.994 66.804 119.506 66.804C120.943 66.804 122.203 67.0653 123.286 67.588C124.387 68.092 125.237 68.8387 125.834 69.828C126.45 70.7987 126.758 71.9933 126.758 73.412C126.758 73.6547 126.749 73.888 126.73 74.112C126.711 74.3173 126.683 74.5227 126.646 74.728H113.934V73.048H124.658L123.874 74.084C123.893 73.8973 123.902 73.72 123.902 73.552C123.902 73.3653 123.902 73.1787 123.902 72.992C123.902 71.704 123.529 70.752 122.782 70.136C122.054 69.5013 120.943 69.184 119.45 69.184C117.789 69.184 116.603 69.5667 115.894 70.332C115.185 71.0973 114.83 72.1987 114.83 73.636V74.364C114.83 75.82 115.185 76.9307 115.894 77.696C116.603 78.4613 117.798 78.844 119.478 78.844C120.934 78.844 121.979 78.62 122.614 78.172C123.267 77.7053 123.594 77.0613 123.594 76.24V76.016H126.618V76.268C126.618 77.2573 126.31 78.1347 125.694 78.9C125.097 79.6467 124.266 80.2347 123.202 80.664C122.157 81.0747 120.943 81.28 119.562 81.28ZM132.271 81H128.463V76.66H132.271V81ZM129.527 84.136H128.519V82.288H129.443C129.686 82.288 129.863 82.2413 129.975 82.148C130.087 82.0733 130.143 81.8867 130.143 81.588V80.356H132.271V81.56C132.271 82.4373 132.028 83.0813 131.543 83.492C131.076 83.9213 130.404 84.136 129.527 84.136ZM152.464 81H149.692V77.416L149.496 77.332V72.572C149.496 71.4147 149.216 70.612 148.656 70.164C148.115 69.6973 147.172 69.464 145.828 69.464C144.54 69.464 143.579 69.688 142.944 70.136C142.31 70.584 141.992 71.3213 141.992 72.348V72.46H138.996V72.348C138.996 71.284 139.276 70.3413 139.836 69.52C140.396 68.68 141.199 68.0173 142.244 67.532C143.308 67.0467 144.578 66.804 146.052 66.804C147.527 66.804 148.731 67.056 149.664 67.56C150.616 68.0453 151.316 68.7173 151.764 69.576C152.231 70.4347 152.464 71.424 152.464 72.544V81ZM143.392 81.28C141.955 81.28 140.807 80.9627 139.948 80.328C139.108 79.6747 138.688 78.7787 138.688 77.64C138.688 76.912 138.866 76.3053 139.22 75.82C139.594 75.316 140.116 74.924 140.788 74.644C141.46 74.364 142.254 74.168 143.168 74.056L149.776 73.356V75.148L144.036 75.792C143.252 75.8853 142.664 76.0533 142.272 76.296C141.899 76.52 141.712 76.9027 141.712 77.444C141.712 78.004 141.908 78.424 142.3 78.704C142.711 78.9653 143.346 79.096 144.204 79.096C145.268 79.096 146.192 78.9653 146.976 78.704C147.76 78.424 148.376 77.9947 148.824 77.416C149.272 76.8373 149.496 76.0907 149.496 75.176L149.888 75.232V77.528H149.496C149.123 78.704 148.404 79.628 147.34 80.3C146.295 80.9533 144.979 81.28 143.392 81.28ZM179.776 81H176.78V73.44C176.78 72.0587 176.49 71.06 175.912 70.444C175.333 69.828 174.362 69.52 173 69.52C171.525 69.52 170.48 69.9027 169.864 70.668C169.266 71.4147 168.968 72.5627 168.968 74.112L168.436 74.14L168.268 71.396H168.884C169.014 70.5933 169.285 69.8467 169.696 69.156C170.106 68.4653 170.694 67.9053 171.46 67.476C172.225 67.028 173.186 66.804 174.344 66.804C175.557 66.804 176.565 67.056 177.368 67.56C178.17 68.064 178.768 68.7547 179.16 69.632C179.57 70.5093 179.776 71.508 179.776 72.628V81ZM158.188 81H155.164V67.084H157.936V71.452L158.188 71.592V81ZM168.968 81H165.972V73.44C165.972 72.0587 165.682 71.06 165.104 70.444C164.525 69.828 163.564 69.52 162.22 69.52C160.726 69.52 159.681 69.9027 159.084 70.668C158.486 71.4147 158.188 72.5627 158.188 74.112L157.656 74.14L157.516 71.284H158.104C158.234 70.5 158.496 69.772 158.888 69.1C159.28 68.428 159.849 67.8773 160.596 67.448C161.342 67.0187 162.294 66.804 163.452 66.804C164.665 66.804 165.664 67.0653 166.448 67.588C167.232 68.092 167.82 68.7827 168.212 69.66C168.604 70.5373 168.8 71.5267 168.8 72.628H168.968V81ZM190.289 81H187.265V62.24H190.289V81ZM200.899 81H197.875V67.084H200.647V71.032L200.899 71.172V81ZM200.899 73.188H200.227V70.836H200.843C200.973 70.0707 201.235 69.3893 201.627 68.792C202.019 68.176 202.541 67.6907 203.195 67.336C203.867 66.9813 204.679 66.804 205.631 66.804C206.695 66.804 207.563 67.028 208.235 67.476C208.907 67.924 209.392 68.5213 209.691 69.268C210.008 70.0147 210.167 70.8267 210.167 71.704V73.524H207.171V72.292C207.171 71.284 206.947 70.5467 206.499 70.08C206.051 69.6133 205.304 69.38 204.259 69.38C203.064 69.38 202.205 69.7067 201.683 70.36C201.16 71.0133 200.899 71.956 200.899 73.188ZM215.09 81H212.066V67.084H215.09V81ZM215.09 65.46H212.066V62.24H215.09V65.46ZM225.198 86.04C223.817 86.04 222.604 85.8253 221.558 85.396C220.513 84.9853 219.692 84.388 219.094 83.604C218.516 82.82 218.226 81.868 218.226 80.748H221.222C221.222 81.42 221.362 81.9613 221.642 82.372C221.922 82.7827 222.361 83.072 222.958 83.24C223.574 83.4267 224.377 83.52 225.366 83.52C226.43 83.52 227.27 83.3987 227.886 83.156C228.521 82.932 228.978 82.5307 229.258 81.952C229.538 81.3733 229.678 80.5707 229.678 79.544V71.396L229.902 71.2V67.084H232.674V79.376C232.674 80.9253 232.366 82.1853 231.75 83.156C231.134 84.1453 230.266 84.8733 229.146 85.34C228.026 85.8067 226.71 86.04 225.198 86.04ZM223.938 79.74C222.557 79.74 221.372 79.4693 220.382 78.928C219.412 78.3867 218.656 77.6307 218.114 76.66C217.592 75.6893 217.33 74.56 217.33 73.272C217.33 71.984 217.601 70.8547 218.142 69.884C218.702 68.9133 219.486 68.1573 220.494 67.616C221.521 67.0747 222.734 66.804 224.134 66.804C225.59 66.804 226.822 67.1307 227.83 67.784C228.857 68.4187 229.492 69.3427 229.734 70.556H230.378L230.21 72.992H229.678C229.678 72.208 229.492 71.5547 229.118 71.032C228.745 70.4907 228.213 70.0893 227.522 69.828C226.832 69.5667 225.992 69.436 225.002 69.436C224.05 69.436 223.22 69.5573 222.51 69.8C221.82 70.0427 221.288 70.444 220.914 71.004C220.56 71.5453 220.382 72.3013 220.382 73.272C220.382 74.224 220.56 74.98 220.914 75.54C221.269 76.1 221.782 76.5107 222.454 76.772C223.145 77.0147 223.966 77.136 224.918 77.136C226.449 77.136 227.625 76.8187 228.446 76.184C229.268 75.5493 229.678 74.616 229.678 73.384H230.21V76.128H229.482C229.24 77.192 228.652 78.06 227.718 78.732C226.785 79.404 225.525 79.74 223.938 79.74ZM250.116 81H247.12V73.44C247.12 72.04 246.794 71.0413 246.14 70.444C245.487 69.828 244.432 69.52 242.976 69.52C241.875 69.52 240.998 69.716 240.344 70.108C239.691 70.4813 239.215 71.0227 238.916 71.732C238.636 72.4227 238.496 73.2627 238.496 74.252L237.908 74.28L238.048 71.34H238.664C238.832 70.556 239.131 69.8187 239.56 69.128C240.008 68.4373 240.634 67.8773 241.436 67.448C242.239 67.0187 243.228 66.804 244.404 66.804C245.674 66.804 246.728 67.0653 247.568 67.588C248.427 68.092 249.062 68.792 249.472 69.688C249.902 70.5653 250.116 71.5733 250.116 72.712V81ZM238.496 81H235.472V62.24H238.496V81ZM261.964 81H258.772C257.278 81 256.093 80.636 255.216 79.908C254.357 79.18 253.928 77.976 253.928 76.296V64.032H256.924V76.128C256.924 76.9867 257.129 77.5653 257.54 77.864C257.95 78.144 258.585 78.284 259.444 78.284H261.964V81ZM261.964 69.604H251.576V67.084H261.964V69.604ZM271.247 74.896H268.223V73.944C268.223 73.384 268.326 72.8987 268.531 72.488C268.755 72.0773 269.072 71.7227 269.483 71.424C269.894 71.1253 270.379 70.8547 270.939 70.612L272.955 69.744C273.739 69.3893 274.336 69.0347 274.747 68.68C275.176 68.3067 275.391 67.8027 275.391 67.168C275.391 66.6827 275.27 66.2627 275.027 65.908C274.784 65.5347 274.346 65.2453 273.711 65.04C273.076 64.816 272.152 64.704 270.939 64.704C268.979 64.704 267.616 65.0027 266.851 65.6C266.086 66.1973 265.703 67.084 265.703 68.26V69.072H262.735V68.428C262.735 67.2707 263.015 66.1973 263.575 65.208C264.154 64.2187 265.059 63.4347 266.291 62.856C267.542 62.2587 269.156 61.96 271.135 61.96C272.871 61.96 274.271 62.1933 275.335 62.66C276.399 63.108 277.174 63.724 277.659 64.508C278.163 65.2733 278.415 66.1227 278.415 67.056C278.415 67.952 278.219 68.708 277.827 69.324C277.454 69.9213 276.978 70.416 276.399 70.808C275.82 71.2 275.204 71.536 274.551 71.816L272.535 72.656C272.012 72.8613 271.667 73.0853 271.499 73.328C271.331 73.5707 271.247 73.8973 271.247 74.308V74.896ZM271.471 81H268.055V76.856H271.471V81Z" fill="black"/>
</svg>
