<svg width="461" height="155" viewBox="0 0 461 155" fill="none" xmlns="http://www.w3.org/2000/svg">
<rect x="1" y="1" width="459" height="153" rx="76.5" fill="#CF82FE" stroke="black" stroke-width="2"/>
<path d="M106.57 106.9C100.63 106.9 95.35 105.64 90.73 103.12C86.17 100.54 82.6 96.94 80.02 92.32C77.44 87.64 76.15 82.15 76.15 75.85C76.15 69.55 77.44 64.09 80.02 59.47C82.6 54.79 86.17 51.19 90.73 48.67C95.35 46.09 100.63 44.8 106.57 44.8C112.63 44.8 117.94 46.09 122.5 48.67C127.06 51.19 130.63 54.79 133.21 59.47C135.85 64.09 137.17 69.55 137.17 75.85C137.17 82.15 135.85 87.64 133.21 92.32C130.63 96.94 127.06 100.54 122.5 103.12C117.94 105.64 112.63 106.9 106.57 106.9ZM106.57 100.69C111.67 100.69 115.99 99.76 119.53 97.9C123.07 95.98 125.77 93.19 127.63 89.53C129.49 85.81 130.42 81.25 130.42 75.85C130.42 70.39 129.49 65.83 127.63 62.17C125.77 58.51 123.07 55.75 119.53 53.89C115.99 51.97 111.67 51.01 106.57 51.01C101.53 51.01 97.24 51.97 93.7 53.89C90.16 55.75 87.46 58.51 85.6 62.17C83.8 65.83 82.9 70.39 82.9 75.85C82.9 81.25 83.8 85.81 85.6 89.53C87.46 93.19 90.16 95.98 93.7 97.9C97.24 99.76 101.53 100.69 106.57 100.69ZM197.294 106H190.904V45.7H197.294V106ZM152.114 106H145.724V45.7H152.114V106ZM193.874 78.55H148.154V72.7H193.874V78.55ZM251.022 85.21H245.442L218.802 45.7H226.632L243.192 70.27L248.142 77.65H248.682L253.542 70.27L270.012 45.7H277.752L251.022 85.21ZM251.472 106H244.992V80.44H251.472V106ZM289.311 106H282.921V45.7H289.311V106ZM328.731 106H285.081V100.15H328.731V106ZM327.381 78.55H285.081V72.79H327.381V78.55ZM328.731 51.55H285.081V45.7H328.731V51.55ZM361.077 106.9C355.197 106.9 350.307 106.03 346.407 104.29C342.567 102.55 339.717 100.18 337.857 97.18C335.997 94.12 335.067 90.7 335.067 86.92V86.38H341.547V87.55C341.547 90.43 342.177 92.86 343.437 94.84C344.757 96.82 346.857 98.32 349.737 99.34C352.617 100.36 356.397 100.87 361.077 100.87C365.157 100.87 368.457 100.51 370.977 99.79C373.557 99.07 375.477 97.96 376.737 96.46C377.997 94.9 378.627 92.98 378.627 90.7C378.627 87.34 377.577 84.91 375.477 83.41C373.437 81.85 370.197 80.62 365.757 79.72L352.977 77.29C349.737 76.63 346.767 75.7 344.067 74.5C341.427 73.3 339.297 71.65 337.677 69.55C336.117 67.39 335.337 64.63 335.337 61.27C335.337 59.23 335.787 57.25 336.687 55.33C337.647 53.35 339.087 51.58 341.007 50.02C342.927 48.4 345.417 47.14 348.477 46.24C351.597 45.28 355.317 44.8 359.637 44.8C365.337 44.8 369.987 45.7 373.587 47.5C377.187 49.3 379.857 51.73 381.597 54.79C383.337 57.79 384.207 61.12 384.207 64.78V65.32H377.727V64.24C377.727 61.36 377.097 58.93 375.837 56.95C374.577 54.91 372.597 53.38 369.897 52.36C367.197 51.34 363.627 50.83 359.187 50.83C355.227 50.83 351.957 51.22 349.377 52C346.797 52.72 344.877 53.83 343.617 55.33C342.417 56.77 341.817 58.6 341.817 60.82C341.817 63.04 342.267 64.84 343.167 66.22C344.127 67.6 345.537 68.68 347.397 69.46C349.317 70.24 351.747 70.96 354.687 71.62L367.377 74.14C370.977 74.8 374.097 75.79 376.737 77.11C379.377 78.43 381.417 80.17 382.857 82.33C384.357 84.43 385.107 87.04 385.107 90.16C385.107 92.98 384.267 95.68 382.587 98.26C380.907 100.84 378.297 102.94 374.757 104.56C371.217 106.12 366.657 106.9 361.077 106.9Z" fill="black"/>
</svg>
