<svg width="428" height="155" viewBox="0 0 428 155" fill="none" xmlns="http://www.w3.org/2000/svg">
<rect x="1" y="1" width="426" height="153" rx="76.5" fill="black" stroke="white" stroke-width="2"/>
<path d="M90.07 106.9C84.13 106.9 78.85 105.64 74.23 103.12C69.67 100.54 66.1 96.94 63.52 92.32C60.94 87.64 59.65 82.15 59.65 75.85C59.65 69.55 60.94 64.09 63.52 59.47C66.1 54.79 69.67 51.19 74.23 48.67C78.85 46.09 84.13 44.8 90.07 44.8C96.13 44.8 101.44 46.09 106 48.67C110.56 51.19 114.13 54.79 116.71 59.47C119.35 64.09 120.67 69.55 120.67 75.85C120.67 82.15 119.35 87.64 116.71 92.32C114.13 96.94 110.56 100.54 106 103.12C101.44 105.64 96.13 106.9 90.07 106.9ZM90.07 100.69C95.17 100.69 99.49 99.76 103.03 97.9C106.57 95.98 109.27 93.19 111.13 89.53C112.99 85.81 113.92 81.25 113.92 75.85C113.92 70.39 112.99 65.83 111.13 62.17C109.27 58.51 106.57 55.75 103.03 53.89C99.49 51.97 95.17 51.01 90.07 51.01C85.03 51.01 80.74 51.97 77.2 53.89C73.66 55.75 70.96 58.51 69.1 62.17C67.3 65.83 66.4 70.39 66.4 75.85C66.4 81.25 67.3 85.81 69.1 89.53C70.96 93.19 73.66 95.98 77.2 97.9C80.74 99.76 85.03 100.69 90.07 100.69ZM180.794 106H174.404V45.7H180.794V106ZM135.614 106H129.224V45.7H135.614V106ZM177.374 78.55H131.654V72.7H177.374V78.55ZM234.522 85.21H228.942L202.302 45.7H210.132L226.692 70.27L231.642 77.65H232.182L237.042 70.27L253.512 45.7H261.252L234.522 85.21ZM234.972 106H228.492V80.44H234.972V106ZM272.811 106H266.421V45.7H272.811V106ZM312.231 106H268.581V100.15H312.231V106ZM310.881 78.55H268.581V72.79H310.881V78.55ZM312.231 51.55H268.581V45.7H312.231V51.55ZM344.577 106.9C338.697 106.9 333.807 106.03 329.907 104.29C326.067 102.55 323.217 100.18 321.357 97.18C319.497 94.12 318.567 90.7 318.567 86.92V86.38H325.047V87.55C325.047 90.43 325.677 92.86 326.937 94.84C328.257 96.82 330.357 98.32 333.237 99.34C336.117 100.36 339.897 100.87 344.577 100.87C348.657 100.87 351.957 100.51 354.477 99.79C357.057 99.07 358.977 97.96 360.237 96.46C361.497 94.9 362.127 92.98 362.127 90.7C362.127 87.34 361.077 84.91 358.977 83.41C356.937 81.85 353.697 80.62 349.257 79.72L336.477 77.29C333.237 76.63 330.267 75.7 327.567 74.5C324.927 73.3 322.797 71.65 321.177 69.55C319.617 67.39 318.837 64.63 318.837 61.27C318.837 59.23 319.287 57.25 320.187 55.33C321.147 53.35 322.587 51.58 324.507 50.02C326.427 48.4 328.917 47.14 331.977 46.24C335.097 45.28 338.817 44.8 343.137 44.8C348.837 44.8 353.487 45.7 357.087 47.5C360.687 49.3 363.357 51.73 365.097 54.79C366.837 57.79 367.707 61.12 367.707 64.78V65.32H361.227V64.24C361.227 61.36 360.597 58.93 359.337 56.95C358.077 54.91 356.097 53.38 353.397 52.36C350.697 51.34 347.127 50.83 342.687 50.83C338.727 50.83 335.457 51.22 332.877 52C330.297 52.72 328.377 53.83 327.117 55.33C325.917 56.77 325.317 58.6 325.317 60.82C325.317 63.04 325.767 64.84 326.667 66.22C327.627 67.6 329.037 68.68 330.897 69.46C332.817 70.24 335.247 70.96 338.187 71.62L350.877 74.14C354.477 74.8 357.597 75.79 360.237 77.11C362.877 78.43 364.917 80.17 366.357 82.33C367.857 84.43 368.607 87.04 368.607 90.16C368.607 92.98 367.767 95.68 366.087 98.26C364.407 100.84 361.797 102.94 358.257 104.56C354.717 106.12 350.157 106.9 344.577 106.9Z" fill="white"/>
</svg>
