<svg width="357" height="309" viewBox="0 0 357 309" fill="none" xmlns="http://www.w3.org/2000/svg">
<rect x="1" y="1" width="355" height="307" rx="31" fill="black" stroke="white" stroke-width="2"/>
<path d="M60.948 139.7H58.148L49.804 127.24H53.5L57.924 133.904L59.492 136.284H59.716L61.256 133.904L65.652 127.24H69.376L60.948 139.7ZM61.032 146H58.036V137.74H61.032V146ZM77.6526 146.28C76.122 146.28 74.7686 145.981 73.5926 145.384C72.4353 144.768 71.53 143.919 70.8766 142.836C70.242 141.735 69.9246 140.475 69.9246 139.056C69.9246 137.6 70.242 136.331 70.8766 135.248C71.53 134.165 72.4353 133.325 73.5926 132.728C74.7686 132.112 76.122 131.804 77.6526 131.804C79.2206 131.804 80.5833 132.112 81.7406 132.728C82.898 133.325 83.794 134.165 84.4286 135.248C85.082 136.331 85.4086 137.6 85.4086 139.056C85.4086 140.475 85.082 141.735 84.4286 142.836C83.794 143.919 82.898 144.768 81.7406 145.384C80.5833 145.981 79.2206 146.28 77.6526 146.28ZM77.6526 143.592C79.3513 143.592 80.574 143.209 81.3206 142.444C82.0673 141.66 82.4406 140.531 82.4406 139.056C82.4406 137.581 82.0673 136.452 81.3206 135.668C80.574 134.865 79.3513 134.464 77.6526 134.464C75.9726 134.464 74.7593 134.865 74.0126 135.668C73.266 136.452 72.8926 137.581 72.8926 139.056C72.8926 140.531 73.266 141.66 74.0126 142.444C74.7593 143.209 75.9726 143.592 77.6526 143.592ZM93.3991 146.28C92.0925 146.28 91.0098 146.019 90.1511 145.496C89.2925 144.973 88.6485 144.273 88.2191 143.396C87.7898 142.519 87.5751 141.539 87.5751 140.456V132.084H90.5711V139.644C90.5711 140.932 90.8885 141.912 91.5231 142.584C92.1765 143.237 93.2405 143.564 94.7151 143.564C96.2645 143.564 97.3938 143.181 98.1031 142.416C98.8311 141.632 99.1951 140.484 99.1951 138.972L99.7271 138.944L99.8951 141.688H99.2511C99.1205 142.472 98.8218 143.209 98.3551 143.9C97.8885 144.591 97.2445 145.16 96.4231 145.608C95.6205 146.056 94.6125 146.28 93.3991 146.28ZM102.219 146H99.4471V141.632L99.1951 141.492V132.084H102.219V146ZM118.684 146H114.988L108.492 132.084H111.824L116.78 143.06H117.004L121.96 132.084H125.236L118.684 146ZM129.811 146H126.787V132.084H129.811V146ZM129.811 130.46H126.787V127.24H129.811V130.46ZM141.375 146.28C139.788 146.28 138.5 145.916 137.511 145.188C136.522 144.441 135.878 143.377 135.579 141.996H134.907L135.103 139.196H135.635C135.635 140.148 135.822 140.951 136.195 141.604C136.587 142.257 137.138 142.743 137.847 143.06C138.575 143.359 139.434 143.508 140.423 143.508C141.45 143.508 142.308 143.368 142.999 143.088C143.708 142.808 144.24 142.341 144.595 141.688C144.968 141.035 145.155 140.157 145.155 139.056C145.155 137.936 144.968 137.049 144.595 136.396C144.222 135.743 143.69 135.276 142.999 134.996C142.308 134.697 141.468 134.548 140.479 134.548C138.911 134.548 137.707 134.921 136.867 135.668C136.046 136.396 135.635 137.497 135.635 138.972H135.103V135.864H135.803C136.083 134.688 136.69 133.717 137.623 132.952C138.575 132.187 139.882 131.804 141.543 131.804C142.98 131.804 144.184 132.112 145.155 132.728C146.144 133.325 146.891 134.165 147.395 135.248C147.918 136.331 148.179 137.6 148.179 139.056C148.179 140.475 147.918 141.735 147.395 142.836C146.891 143.919 146.126 144.768 145.099 145.384C144.091 145.981 142.85 146.28 141.375 146.28ZM135.383 146H132.611V127.24H135.635V141.268L135.383 141.632V146ZM157.275 146.28C155.763 146.28 154.438 146 153.299 145.44C152.16 144.88 151.274 144.059 150.639 142.976C150.023 141.893 149.715 140.587 149.715 139.056C149.715 137.6 150.023 136.331 150.639 135.248C151.274 134.165 152.151 133.325 153.271 132.728C154.391 132.112 155.707 131.804 157.219 131.804C158.656 131.804 159.916 132.065 160.999 132.588C162.1 133.092 162.95 133.839 163.547 134.828C164.163 135.799 164.471 136.993 164.471 138.412C164.471 138.655 164.462 138.888 164.443 139.112C164.424 139.317 164.396 139.523 164.359 139.728H151.647V138.048H162.371L161.587 139.084C161.606 138.897 161.615 138.72 161.615 138.552C161.615 138.365 161.615 138.179 161.615 137.992C161.615 136.704 161.242 135.752 160.495 135.136C159.767 134.501 158.656 134.184 157.163 134.184C155.502 134.184 154.316 134.567 153.607 135.332C152.898 136.097 152.543 137.199 152.543 138.636V139.364C152.543 140.82 152.898 141.931 153.607 142.696C154.316 143.461 155.511 143.844 157.191 143.844C158.647 143.844 159.692 143.62 160.327 143.172C160.98 142.705 161.307 142.061 161.307 141.24V141.016H164.331V141.268C164.331 142.257 164.023 143.135 163.407 143.9C162.81 144.647 161.979 145.235 160.915 145.664C159.87 146.075 158.656 146.28 157.275 146.28ZM172.868 146.28C171.393 146.28 170.143 145.981 169.116 145.384C168.108 144.768 167.343 143.919 166.82 142.836C166.297 141.735 166.036 140.475 166.036 139.056C166.036 137.6 166.297 136.331 166.82 135.248C167.343 134.165 168.099 133.325 169.088 132.728C170.077 132.112 171.272 131.804 172.672 131.804C174.315 131.804 175.612 132.187 176.564 132.952C177.516 133.717 178.132 134.688 178.412 135.864H179.112V138.972H178.58C178.58 137.497 178.16 136.396 177.32 135.668C176.48 134.921 175.285 134.548 173.736 134.548C172.784 134.548 171.953 134.697 171.244 134.996C170.535 135.276 169.993 135.743 169.62 136.396C169.265 137.049 169.088 137.936 169.088 139.056C169.088 140.157 169.265 141.035 169.62 141.688C169.993 142.341 170.535 142.808 171.244 143.088C171.953 143.368 172.803 143.508 173.792 143.508C174.781 143.508 175.631 143.359 176.34 143.06C177.068 142.743 177.619 142.257 177.992 141.604C178.384 140.951 178.58 140.148 178.58 139.196H179.112L179.308 141.996H178.636C178.356 143.377 177.712 144.441 176.704 145.188C175.715 145.916 174.436 146.28 172.868 146.28ZM181.604 146H178.832V141.632L178.58 141.268V127.24H181.604V146ZM195.849 146H192.097L187.925 132.084H191.061L193.385 139.98L194.029 143.564H194.253L195.289 139.7L198.201 132.084H202.065L205.005 139.7L206.041 143.564H206.265L206.909 139.98L209.233 132.084H212.313L208.085 146H204.333L201.281 137.992L200.217 134.576H199.993L198.929 137.992L195.849 146ZM227.009 146H224.237V142.416L224.041 142.332V137.572C224.041 136.415 223.761 135.612 223.201 135.164C222.66 134.697 221.717 134.464 220.373 134.464C219.085 134.464 218.124 134.688 217.489 135.136C216.855 135.584 216.537 136.321 216.537 137.348V137.46H213.541V137.348C213.541 136.284 213.821 135.341 214.381 134.52C214.941 133.68 215.744 133.017 216.789 132.532C217.853 132.047 219.123 131.804 220.597 131.804C222.072 131.804 223.276 132.056 224.209 132.56C225.161 133.045 225.861 133.717 226.309 134.576C226.776 135.435 227.009 136.424 227.009 137.544V146ZM217.937 146.28C216.5 146.28 215.352 145.963 214.493 145.328C213.653 144.675 213.233 143.779 213.233 142.64C213.233 141.912 213.411 141.305 213.765 140.82C214.139 140.316 214.661 139.924 215.333 139.644C216.005 139.364 216.799 139.168 217.713 139.056L224.321 138.356V140.148L218.581 140.792C217.797 140.885 217.209 141.053 216.817 141.296C216.444 141.52 216.257 141.903 216.257 142.444C216.257 143.004 216.453 143.424 216.845 143.704C217.256 143.965 217.891 144.096 218.749 144.096C219.813 144.096 220.737 143.965 221.521 143.704C222.305 143.424 222.921 142.995 223.369 142.416C223.817 141.837 224.041 141.091 224.041 140.176L224.433 140.232V142.528H224.041C223.668 143.704 222.949 144.628 221.885 145.3C220.84 145.953 219.524 146.28 217.937 146.28ZM231.949 150.76H229.961V148.016H232.677C233.293 148.016 233.75 147.913 234.049 147.708C234.366 147.521 234.627 147.195 234.833 146.728L235.701 144.852L235.365 146.392L228.309 132.084H231.697L235.253 139.476L236.625 142.808H236.849L238.165 139.448L241.441 132.084H244.773L237.521 147.512C237.147 148.333 236.709 148.977 236.205 149.444C235.701 149.929 235.103 150.265 234.413 150.452C233.722 150.657 232.901 150.76 231.949 150.76ZM260.165 146H256.973C255.479 146 254.294 145.636 253.417 144.908C252.558 144.18 252.129 142.976 252.129 141.296V129.032H255.125V141.128C255.125 141.987 255.33 142.565 255.741 142.864C256.151 143.144 256.786 143.284 257.645 143.284H260.165V146ZM260.165 134.604H249.777V132.084H260.165V134.604ZM269.168 146.28C267.638 146.28 266.284 145.981 265.108 145.384C263.951 144.768 263.046 143.919 262.392 142.836C261.758 141.735 261.44 140.475 261.44 139.056C261.44 137.6 261.758 136.331 262.392 135.248C263.046 134.165 263.951 133.325 265.108 132.728C266.284 132.112 267.638 131.804 269.168 131.804C270.736 131.804 272.099 132.112 273.256 132.728C274.414 133.325 275.31 134.165 275.944 135.248C276.598 136.331 276.924 137.6 276.924 139.056C276.924 140.475 276.598 141.735 275.944 142.836C275.31 143.919 274.414 144.768 273.256 145.384C272.099 145.981 270.736 146.28 269.168 146.28ZM269.168 143.592C270.867 143.592 272.09 143.209 272.836 142.444C273.583 141.66 273.956 140.531 273.956 139.056C273.956 137.581 273.583 136.452 272.836 135.668C272.09 134.865 270.867 134.464 269.168 134.464C267.488 134.464 266.275 134.865 265.528 135.668C264.782 136.452 264.408 137.581 264.408 139.056C264.408 140.531 264.782 141.66 265.528 142.444C266.275 143.209 267.488 143.592 269.168 143.592ZM286.231 146.28C284.7 146.28 283.347 145.981 282.171 145.384C281.013 144.768 280.108 143.919 279.455 142.836C278.82 141.735 278.503 140.475 278.503 139.056C278.503 137.6 278.82 136.331 279.455 135.248C280.108 134.165 281.013 133.325 282.171 132.728C283.347 132.112 284.7 131.804 286.231 131.804C287.799 131.804 289.161 132.112 290.319 132.728C291.476 133.325 292.372 134.165 293.007 135.248C293.66 136.331 293.987 137.6 293.987 139.056C293.987 140.475 293.66 141.735 293.007 142.836C292.372 143.919 291.476 144.768 290.319 145.384C289.161 145.981 287.799 146.28 286.231 146.28ZM286.231 143.592C287.929 143.592 289.152 143.209 289.899 142.444C290.645 141.66 291.019 140.531 291.019 139.056C291.019 137.581 290.645 136.452 289.899 135.668C289.152 134.865 287.929 134.464 286.231 134.464C284.551 134.464 283.337 134.865 282.591 135.668C281.844 136.452 281.471 137.581 281.471 139.056C281.471 140.531 281.844 141.66 282.591 142.444C283.337 143.209 284.551 143.592 286.231 143.592ZM76.012 180H73.016V172.44C73.016 171.059 72.7267 170.06 72.148 169.444C71.5693 168.828 70.5987 168.52 69.236 168.52C67.7613 168.52 66.716 168.903 66.1 169.668C65.5027 170.415 65.204 171.563 65.204 173.112L64.672 173.14L64.504 170.396H65.12C65.2507 169.593 65.5213 168.847 65.932 168.156C66.3427 167.465 66.9307 166.905 67.696 166.476C68.4613 166.028 69.4227 165.804 70.58 165.804C71.7933 165.804 72.8013 166.056 73.604 166.56C74.4067 167.064 75.004 167.755 75.396 168.632C75.8067 169.509 76.012 170.508 76.012 171.628V180ZM54.424 180H51.4V166.084H54.172V170.452L54.424 170.592V180ZM65.204 180H62.208V172.44C62.208 171.059 61.9187 170.06 61.34 169.444C60.7613 168.828 59.8 168.52 58.456 168.52C56.9627 168.52 55.9173 168.903 55.32 169.668C54.7227 170.415 54.424 171.563 54.424 173.112L53.892 173.14L53.752 170.284H54.34C54.4707 169.5 54.732 168.772 55.124 168.1C55.516 167.428 56.0853 166.877 56.832 166.448C57.5787 166.019 58.5307 165.804 59.688 165.804C60.9013 165.804 61.9 166.065 62.684 166.588C63.468 167.092 64.056 167.783 64.448 168.66C64.84 169.537 65.036 170.527 65.036 171.628H65.204V180ZM84.5124 180.28C83.2057 180.28 82.1231 180.019 81.2644 179.496C80.4057 178.973 79.7617 178.273 79.3324 177.396C78.9031 176.519 78.6884 175.539 78.6884 174.456V166.084H81.6844V173.644C81.6844 174.932 82.0017 175.912 82.6364 176.584C83.2897 177.237 84.3537 177.564 85.8284 177.564C87.3777 177.564 88.5071 177.181 89.2164 176.416C89.9444 175.632 90.3084 174.484 90.3084 172.972L90.8404 172.944L91.0084 175.688H90.3644C90.2337 176.472 89.9351 177.209 89.4684 177.9C89.0017 178.591 88.3577 179.16 87.5364 179.608C86.7337 180.056 85.7257 180.28 84.5124 180.28ZM93.3324 180H90.5604V175.632L90.3084 175.492V166.084H93.3324V180ZM103.108 180.28C101.577 180.28 100.242 179.981 99.1037 179.384C97.965 178.768 97.0784 177.919 96.4437 176.836C95.8277 175.735 95.5197 174.475 95.5197 173.056C95.5197 171.6 95.8277 170.331 96.4437 169.248C97.0784 168.165 97.965 167.325 99.1037 166.728C100.242 166.112 101.577 165.804 103.108 165.804C104.508 165.804 105.749 166.047 106.832 166.532C107.914 167.017 108.764 167.699 109.38 168.576C110.014 169.435 110.332 170.452 110.332 171.628V171.908H107.336V171.74C107.336 170.657 106.962 169.855 106.216 169.332C105.469 168.791 104.414 168.52 103.052 168.52C101.484 168.52 100.336 168.903 99.6077 169.668C98.8797 170.415 98.5157 171.544 98.5157 173.056C98.5157 174.549 98.8797 175.679 99.6077 176.444C100.336 177.191 101.484 177.564 103.052 177.564C104.414 177.564 105.469 177.303 106.216 176.78C106.962 176.239 107.336 175.427 107.336 174.344V174.148H110.332V174.456C110.332 175.613 110.014 176.631 109.38 177.508C108.764 178.385 107.914 179.067 106.832 179.552C105.749 180.037 104.508 180.28 103.108 180.28ZM127.212 180H124.216V172.44C124.216 171.04 123.889 170.041 123.236 169.444C122.583 168.828 121.528 168.52 120.072 168.52C118.971 168.52 118.093 168.716 117.44 169.108C116.787 169.481 116.311 170.023 116.012 170.732C115.732 171.423 115.592 172.263 115.592 173.252L115.004 173.28L115.144 170.34H115.76C115.928 169.556 116.227 168.819 116.656 168.128C117.104 167.437 117.729 166.877 118.532 166.448C119.335 166.019 120.324 165.804 121.5 165.804C122.769 165.804 123.824 166.065 124.664 166.588C125.523 167.092 126.157 167.792 126.568 168.688C126.997 169.565 127.212 170.573 127.212 171.712V180ZM115.592 180H112.568V161.24H115.592V180ZM147.876 180H145.104V176.416L144.908 176.332V171.572C144.908 170.415 144.628 169.612 144.068 169.164C143.527 168.697 142.584 168.464 141.24 168.464C139.952 168.464 138.991 168.688 138.356 169.136C137.722 169.584 137.404 170.321 137.404 171.348V171.46H134.408V171.348C134.408 170.284 134.688 169.341 135.248 168.52C135.808 167.68 136.611 167.017 137.656 166.532C138.72 166.047 139.99 165.804 141.464 165.804C142.939 165.804 144.143 166.056 145.076 166.56C146.028 167.045 146.728 167.717 147.176 168.576C147.643 169.435 147.876 170.424 147.876 171.544V180ZM138.804 180.28C137.367 180.28 136.219 179.963 135.36 179.328C134.52 178.675 134.1 177.779 134.1 176.64C134.1 175.912 134.278 175.305 134.632 174.82C135.006 174.316 135.528 173.924 136.2 173.644C136.872 173.364 137.666 173.168 138.58 173.056L145.188 172.356V174.148L139.448 174.792C138.664 174.885 138.076 175.053 137.684 175.296C137.311 175.52 137.124 175.903 137.124 176.444C137.124 177.004 137.32 177.424 137.712 177.704C138.123 177.965 138.758 178.096 139.616 178.096C140.68 178.096 141.604 177.965 142.388 177.704C143.172 177.424 143.788 176.995 144.236 176.416C144.684 175.837 144.908 175.091 144.908 174.176L145.3 174.232V176.528H144.908C144.535 177.704 143.816 178.628 142.752 179.3C141.707 179.953 140.391 180.28 138.804 180.28ZM159.704 180H156.512C155.018 180 153.833 179.636 152.956 178.908C152.097 178.18 151.668 176.976 151.668 175.296V163.032H154.664V175.128C154.664 175.987 154.869 176.565 155.28 176.864C155.69 177.144 156.325 177.284 157.184 177.284H159.704V180ZM159.704 168.604H149.316V166.084H159.704V168.604ZM177.132 180H166.24V161.24H176.74C177.954 161.24 178.98 161.417 179.82 161.772C180.679 162.127 181.332 162.649 181.78 163.34C182.247 164.031 182.48 164.871 182.48 165.86C182.48 166.961 182.154 167.895 181.5 168.66C180.866 169.425 179.83 169.892 178.392 170.06V170.256C179.998 170.443 181.192 170.947 181.976 171.768C182.76 172.571 183.152 173.588 183.152 174.82C183.152 175.884 182.919 176.808 182.452 177.592C181.986 178.376 181.304 178.973 180.408 179.384C179.512 179.795 178.42 180 177.132 180ZM169.236 171.6V177.284H176.796C177.916 177.284 178.747 177.06 179.288 176.612C179.848 176.145 180.128 175.408 180.128 174.4C180.128 173.411 179.848 172.701 179.288 172.272C178.747 171.824 177.916 171.6 176.796 171.6H169.236ZM169.236 163.956V169.108H176.32C177.384 169.108 178.178 168.903 178.7 168.492C179.223 168.063 179.484 167.409 179.484 166.532C179.484 165.655 179.232 165.011 178.728 164.6C178.224 164.171 177.45 163.956 176.404 163.956H169.236ZM192.223 180.28C190.692 180.28 189.339 179.981 188.163 179.384C187.006 178.768 186.1 177.919 185.447 176.836C184.812 175.735 184.495 174.475 184.495 173.056C184.495 171.6 184.812 170.331 185.447 169.248C186.1 168.165 187.006 167.325 188.163 166.728C189.339 166.112 190.692 165.804 192.223 165.804C193.791 165.804 195.154 166.112 196.311 166.728C197.468 167.325 198.364 168.165 198.999 169.248C199.652 170.331 199.979 171.6 199.979 173.056C199.979 174.475 199.652 175.735 198.999 176.836C198.364 177.919 197.468 178.768 196.311 179.384C195.154 179.981 193.791 180.28 192.223 180.28ZM192.223 177.592C193.922 177.592 195.144 177.209 195.891 176.444C196.638 175.66 197.011 174.531 197.011 173.056C197.011 171.581 196.638 170.452 195.891 169.668C195.144 168.865 193.922 168.464 192.223 168.464C190.543 168.464 189.33 168.865 188.583 169.668C187.836 170.452 187.463 171.581 187.463 173.056C187.463 174.531 187.836 175.66 188.583 176.444C189.33 177.209 190.543 177.592 192.223 177.592ZM210.937 180.28C209.351 180.28 208.063 179.916 207.073 179.188C206.084 178.441 205.44 177.377 205.141 175.996H204.469L204.665 173.196H205.197C205.197 174.148 205.384 174.951 205.757 175.604C206.149 176.257 206.7 176.743 207.409 177.06C208.137 177.359 208.996 177.508 209.985 177.508C211.012 177.508 211.871 177.368 212.561 177.088C213.271 176.808 213.803 176.341 214.157 175.688C214.531 175.035 214.717 174.157 214.717 173.056C214.717 171.936 214.531 171.049 214.157 170.396C213.784 169.743 213.252 169.276 212.561 168.996C211.871 168.697 211.031 168.548 210.041 168.548C208.473 168.548 207.269 168.921 206.429 169.668C205.608 170.396 205.197 171.497 205.197 172.972H204.665V169.864H205.365C205.645 168.688 206.252 167.717 207.185 166.952C208.137 166.187 209.444 165.804 211.105 165.804C212.543 165.804 213.747 166.112 214.717 166.728C215.707 167.325 216.453 168.165 216.957 169.248C217.48 170.331 217.741 171.6 217.741 173.056C217.741 174.475 217.48 175.735 216.957 176.836C216.453 177.919 215.688 178.768 214.661 179.384C213.653 179.981 212.412 180.28 210.937 180.28ZM204.945 180H202.173V161.24H205.197V175.268L204.945 175.632V180ZM223.086 180H219.278V175.66H223.086V180ZM228.582 180H224.774V175.66H228.582V180ZM234.078 180H230.27V175.66H234.078V180Z" fill="white"/>
</svg>
