<svg width="672" height="480" viewBox="0 0 672 480" fill="none" xmlns="http://www.w3.org/2000/svg">
<rect x="1" y="1" width="670" height="478" rx="31" fill="black" stroke="white" stroke-width="2"/>
<path d="M103.781 242.7H100.981L92.637 230.24H96.333L100.757 236.904L102.325 239.284H102.549L104.089 236.904L108.485 230.24H112.209L103.781 242.7ZM103.865 249H100.869V240.74H103.865V249ZM120.486 249.28C118.955 249.28 117.602 248.981 116.426 248.384C115.268 247.768 114.363 246.919 113.71 245.836C113.075 244.735 112.758 243.475 112.758 242.056C112.758 240.6 113.075 239.331 113.71 238.248C114.363 237.165 115.268 236.325 116.426 235.728C117.602 235.112 118.955 234.804 120.486 234.804C122.054 234.804 123.416 235.112 124.574 235.728C125.731 236.325 126.627 237.165 127.262 238.248C127.915 239.331 128.242 240.6 128.242 242.056C128.242 243.475 127.915 244.735 127.262 245.836C126.627 246.919 125.731 247.768 124.574 248.384C123.416 248.981 122.054 249.28 120.486 249.28ZM120.486 246.592C122.184 246.592 123.407 246.209 124.154 245.444C124.9 244.66 125.274 243.531 125.274 242.056C125.274 240.581 124.9 239.452 124.154 238.668C123.407 237.865 122.184 237.464 120.486 237.464C118.806 237.464 117.592 237.865 116.846 238.668C116.099 239.452 115.726 240.581 115.726 242.056C115.726 243.531 116.099 244.66 116.846 245.444C117.592 246.209 118.806 246.592 120.486 246.592ZM136.232 249.28C134.925 249.28 133.843 249.019 132.984 248.496C132.125 247.973 131.481 247.273 131.052 246.396C130.623 245.519 130.408 244.539 130.408 243.456V235.084H133.404V242.644C133.404 243.932 133.721 244.912 134.356 245.584C135.009 246.237 136.073 246.564 137.548 246.564C139.097 246.564 140.227 246.181 140.936 245.416C141.664 244.632 142.028 243.484 142.028 241.972L142.56 241.944L142.728 244.688H142.084C141.953 245.472 141.655 246.209 141.188 246.9C140.721 247.591 140.077 248.16 139.256 248.608C138.453 249.056 137.445 249.28 136.232 249.28ZM145.052 249H142.28V244.632L142.028 244.492V235.084H145.052V249ZM161.517 249H157.821L151.325 235.084H154.657L159.613 246.06H159.837L164.793 235.084H168.069L161.517 249ZM172.644 249H169.62V235.084H172.644V249ZM172.644 233.46H169.62V230.24H172.644V233.46ZM184.208 249.28C182.621 249.28 181.333 248.916 180.344 248.188C179.355 247.441 178.711 246.377 178.412 244.996H177.74L177.936 242.196H178.468C178.468 243.148 178.655 243.951 179.028 244.604C179.42 245.257 179.971 245.743 180.68 246.06C181.408 246.359 182.267 246.508 183.256 246.508C184.283 246.508 185.141 246.368 185.832 246.088C186.541 245.808 187.073 245.341 187.428 244.688C187.801 244.035 187.988 243.157 187.988 242.056C187.988 240.936 187.801 240.049 187.428 239.396C187.055 238.743 186.523 238.276 185.832 237.996C185.141 237.697 184.301 237.548 183.312 237.548C181.744 237.548 180.54 237.921 179.7 238.668C178.879 239.396 178.468 240.497 178.468 241.972H177.936V238.864H178.636C178.916 237.688 179.523 236.717 180.456 235.952C181.408 235.187 182.715 234.804 184.376 234.804C185.813 234.804 187.017 235.112 187.988 235.728C188.977 236.325 189.724 237.165 190.228 238.248C190.751 239.331 191.012 240.6 191.012 242.056C191.012 243.475 190.751 244.735 190.228 245.836C189.724 246.919 188.959 247.768 187.932 248.384C186.924 248.981 185.683 249.28 184.208 249.28ZM178.216 249H175.444V230.24H178.468V244.268L178.216 244.632V249ZM200.108 249.28C198.596 249.28 197.271 249 196.132 248.44C194.993 247.88 194.107 247.059 193.472 245.976C192.856 244.893 192.548 243.587 192.548 242.056C192.548 240.6 192.856 239.331 193.472 238.248C194.107 237.165 194.984 236.325 196.104 235.728C197.224 235.112 198.54 234.804 200.052 234.804C201.489 234.804 202.749 235.065 203.832 235.588C204.933 236.092 205.783 236.839 206.38 237.828C206.996 238.799 207.304 239.993 207.304 241.412C207.304 241.655 207.295 241.888 207.276 242.112C207.257 242.317 207.229 242.523 207.192 242.728H194.48V241.048H205.204L204.42 242.084C204.439 241.897 204.448 241.72 204.448 241.552C204.448 241.365 204.448 241.179 204.448 240.992C204.448 239.704 204.075 238.752 203.328 238.136C202.6 237.501 201.489 237.184 199.996 237.184C198.335 237.184 197.149 237.567 196.44 238.332C195.731 239.097 195.376 240.199 195.376 241.636V242.364C195.376 243.82 195.731 244.931 196.44 245.696C197.149 246.461 198.344 246.844 200.024 246.844C201.48 246.844 202.525 246.62 203.16 246.172C203.813 245.705 204.14 245.061 204.14 244.24V244.016H207.164V244.268C207.164 245.257 206.856 246.135 206.24 246.9C205.643 247.647 204.812 248.235 203.748 248.664C202.703 249.075 201.489 249.28 200.108 249.28ZM215.701 249.28C214.226 249.28 212.976 248.981 211.949 248.384C210.941 247.768 210.176 246.919 209.653 245.836C209.13 244.735 208.869 243.475 208.869 242.056C208.869 240.6 209.13 239.331 209.653 238.248C210.176 237.165 210.932 236.325 211.921 235.728C212.91 235.112 214.105 234.804 215.505 234.804C217.148 234.804 218.445 235.187 219.397 235.952C220.349 236.717 220.965 237.688 221.245 238.864H221.945V241.972H221.413C221.413 240.497 220.993 239.396 220.153 238.668C219.313 237.921 218.118 237.548 216.569 237.548C215.617 237.548 214.786 237.697 214.077 237.996C213.368 238.276 212.826 238.743 212.453 239.396C212.098 240.049 211.921 240.936 211.921 242.056C211.921 243.157 212.098 244.035 212.453 244.688C212.826 245.341 213.368 245.808 214.077 246.088C214.786 246.368 215.636 246.508 216.625 246.508C217.614 246.508 218.464 246.359 219.173 246.06C219.901 245.743 220.452 245.257 220.825 244.604C221.217 243.951 221.413 243.148 221.413 242.196H221.945L222.141 244.996H221.469C221.189 246.377 220.545 247.441 219.537 248.188C218.548 248.916 217.269 249.28 215.701 249.28ZM224.437 249H221.665V244.632L221.413 244.268V230.24H224.437V249ZM238.682 249H234.93L230.758 235.084H233.894L236.218 242.98L236.862 246.564H237.086L238.122 242.7L241.034 235.084H244.898L247.838 242.7L248.874 246.564H249.098L249.742 242.98L252.066 235.084H255.146L250.918 249H247.166L244.114 240.992L243.05 237.576H242.826L241.762 240.992L238.682 249ZM269.842 249H267.07V245.416L266.874 245.332V240.572C266.874 239.415 266.594 238.612 266.034 238.164C265.493 237.697 264.55 237.464 263.206 237.464C261.918 237.464 260.957 237.688 260.322 238.136C259.688 238.584 259.37 239.321 259.37 240.348V240.46H256.374V240.348C256.374 239.284 256.654 238.341 257.214 237.52C257.774 236.68 258.577 236.017 259.622 235.532C260.686 235.047 261.956 234.804 263.43 234.804C264.905 234.804 266.109 235.056 267.042 235.56C267.994 236.045 268.694 236.717 269.142 237.576C269.609 238.435 269.842 239.424 269.842 240.544V249ZM260.77 249.28C259.333 249.28 258.185 248.963 257.326 248.328C256.486 247.675 256.066 246.779 256.066 245.64C256.066 244.912 256.244 244.305 256.598 243.82C256.972 243.316 257.494 242.924 258.166 242.644C258.838 242.364 259.632 242.168 260.546 242.056L267.154 241.356V243.148L261.414 243.792C260.63 243.885 260.042 244.053 259.65 244.296C259.277 244.52 259.09 244.903 259.09 245.444C259.09 246.004 259.286 246.424 259.678 246.704C260.089 246.965 260.724 247.096 261.582 247.096C262.646 247.096 263.57 246.965 264.354 246.704C265.138 246.424 265.754 245.995 266.202 245.416C266.65 244.837 266.874 244.091 266.874 243.176L267.266 243.232V245.528H266.874C266.501 246.704 265.782 247.628 264.718 248.3C263.673 248.953 262.357 249.28 260.77 249.28ZM274.782 253.76H272.794V251.016H275.51C276.126 251.016 276.583 250.913 276.882 250.708C277.199 250.521 277.46 250.195 277.666 249.728L278.534 247.852L278.198 249.392L271.142 235.084H274.53L278.086 242.476L279.458 245.808H279.682L280.998 242.448L284.274 235.084H287.606L280.354 250.512C279.98 251.333 279.542 251.977 279.038 252.444C278.534 252.929 277.936 253.265 277.246 253.452C276.555 253.657 275.734 253.76 274.782 253.76ZM302.998 249H299.806C298.312 249 297.127 248.636 296.25 247.908C295.391 247.18 294.962 245.976 294.962 244.296V232.032H297.958V244.128C297.958 244.987 298.163 245.565 298.574 245.864C298.984 246.144 299.619 246.284 300.478 246.284H302.998V249ZM302.998 237.604H292.61V235.084H302.998V237.604ZM312.001 249.28C310.471 249.28 309.117 248.981 307.941 248.384C306.784 247.768 305.879 246.919 305.225 245.836C304.591 244.735 304.273 243.475 304.273 242.056C304.273 240.6 304.591 239.331 305.225 238.248C305.879 237.165 306.784 236.325 307.941 235.728C309.117 235.112 310.471 234.804 312.001 234.804C313.569 234.804 314.932 235.112 316.089 235.728C317.247 236.325 318.143 237.165 318.777 238.248C319.431 239.331 319.757 240.6 319.757 242.056C319.757 243.475 319.431 244.735 318.777 245.836C318.143 246.919 317.247 247.768 316.089 248.384C314.932 248.981 313.569 249.28 312.001 249.28ZM312.001 246.592C313.7 246.592 314.923 246.209 315.669 245.444C316.416 244.66 316.789 243.531 316.789 242.056C316.789 240.581 316.416 239.452 315.669 238.668C314.923 237.865 313.7 237.464 312.001 237.464C310.321 237.464 309.108 237.865 308.361 238.668C307.615 239.452 307.241 240.581 307.241 242.056C307.241 243.531 307.615 244.66 308.361 245.444C309.108 246.209 310.321 246.592 312.001 246.592ZM329.064 249.28C327.533 249.28 326.18 248.981 325.004 248.384C323.846 247.768 322.941 246.919 322.288 245.836C321.653 244.735 321.336 243.475 321.336 242.056C321.336 240.6 321.653 239.331 322.288 238.248C322.941 237.165 323.846 236.325 325.004 235.728C326.18 235.112 327.533 234.804 329.064 234.804C330.632 234.804 331.994 235.112 333.152 235.728C334.309 236.325 335.205 237.165 335.84 238.248C336.493 239.331 336.82 240.6 336.82 242.056C336.82 243.475 336.493 244.735 335.84 245.836C335.205 246.919 334.309 247.768 333.152 248.384C331.994 248.981 330.632 249.28 329.064 249.28ZM329.064 246.592C330.762 246.592 331.985 246.209 332.732 245.444C333.478 244.66 333.852 243.531 333.852 242.056C333.852 240.581 333.478 239.452 332.732 238.668C331.985 237.865 330.762 237.464 329.064 237.464C327.384 237.464 326.17 237.865 325.424 238.668C324.677 239.452 324.304 240.581 324.304 242.056C324.304 243.531 324.677 244.66 325.424 245.444C326.17 246.209 327.384 246.592 329.064 246.592ZM368.411 249H365.415V241.44C365.415 240.059 365.126 239.06 364.547 238.444C363.969 237.828 362.998 237.52 361.635 237.52C360.161 237.52 359.115 237.903 358.499 238.668C357.902 239.415 357.603 240.563 357.603 242.112L357.071 242.14L356.903 239.396H357.519C357.65 238.593 357.921 237.847 358.331 237.156C358.742 236.465 359.33 235.905 360.095 235.476C360.861 235.028 361.822 234.804 362.979 234.804C364.193 234.804 365.201 235.056 366.003 235.56C366.806 236.064 367.403 236.755 367.795 237.632C368.206 238.509 368.411 239.508 368.411 240.628V249ZM346.823 249H343.799V235.084H346.571V239.452L346.823 239.592V249ZM357.603 249H354.607V241.44C354.607 240.059 354.318 239.06 353.739 238.444C353.161 237.828 352.199 237.52 350.855 237.52C349.362 237.52 348.317 237.903 347.719 238.668C347.122 239.415 346.823 240.563 346.823 242.112L346.291 242.14L346.151 239.284H346.739C346.87 238.5 347.131 237.772 347.523 237.1C347.915 236.428 348.485 235.877 349.231 235.448C349.978 235.019 350.93 234.804 352.087 234.804C353.301 234.804 354.299 235.065 355.083 235.588C355.867 236.092 356.455 236.783 356.847 237.66C357.239 238.537 357.435 239.527 357.435 240.628H357.603V249ZM376.912 249.28C375.605 249.28 374.522 249.019 373.664 248.496C372.805 247.973 372.161 247.273 371.732 246.396C371.302 245.519 371.088 244.539 371.088 243.456V235.084H374.084V242.644C374.084 243.932 374.401 244.912 375.036 245.584C375.689 246.237 376.753 246.564 378.228 246.564C379.777 246.564 380.906 246.181 381.616 245.416C382.344 244.632 382.708 243.484 382.708 241.972L383.24 241.944L383.408 244.688H382.764C382.633 245.472 382.334 246.209 381.868 246.9C381.401 247.591 380.757 248.16 379.936 248.608C379.133 249.056 378.125 249.28 376.912 249.28ZM385.732 249H382.96V244.632L382.708 244.492V235.084H385.732V249ZM395.507 249.28C393.976 249.28 392.642 248.981 391.503 248.384C390.364 247.768 389.478 246.919 388.843 245.836C388.227 244.735 387.919 243.475 387.919 242.056C387.919 240.6 388.227 239.331 388.843 238.248C389.478 237.165 390.364 236.325 391.503 235.728C392.642 235.112 393.976 234.804 395.507 234.804C396.907 234.804 398.148 235.047 399.231 235.532C400.314 236.017 401.163 236.699 401.779 237.576C402.414 238.435 402.731 239.452 402.731 240.628V240.908H399.735V240.74C399.735 239.657 399.362 238.855 398.615 238.332C397.868 237.791 396.814 237.52 395.451 237.52C393.883 237.52 392.735 237.903 392.007 238.668C391.279 239.415 390.915 240.544 390.915 242.056C390.915 243.549 391.279 244.679 392.007 245.444C392.735 246.191 393.883 246.564 395.451 246.564C396.814 246.564 397.868 246.303 398.615 245.78C399.362 245.239 399.735 244.427 399.735 243.344V243.148H402.731V243.456C402.731 244.613 402.414 245.631 401.779 246.508C401.163 247.385 400.314 248.067 399.231 248.552C398.148 249.037 396.907 249.28 395.507 249.28ZM419.611 249H416.615V241.44C416.615 240.04 416.289 239.041 415.635 238.444C414.982 237.828 413.927 237.52 412.471 237.52C411.37 237.52 410.493 237.716 409.839 238.108C409.186 238.481 408.71 239.023 408.411 239.732C408.131 240.423 407.991 241.263 407.991 242.252L407.403 242.28L407.543 239.34H408.159C408.327 238.556 408.626 237.819 409.055 237.128C409.503 236.437 410.129 235.877 410.931 235.448C411.734 235.019 412.723 234.804 413.899 234.804C415.169 234.804 416.223 235.065 417.063 235.588C417.922 236.092 418.557 236.792 418.967 237.688C419.397 238.565 419.611 239.573 419.611 240.712V249ZM407.991 249H404.967V230.24H407.991V249ZM440.276 249H437.504V245.416L437.308 245.332V240.572C437.308 239.415 437.028 238.612 436.468 238.164C435.926 237.697 434.984 237.464 433.64 237.464C432.352 237.464 431.39 237.688 430.756 238.136C430.121 238.584 429.804 239.321 429.804 240.348V240.46H426.808V240.348C426.808 239.284 427.088 238.341 427.648 237.52C428.208 236.68 429.01 236.017 430.056 235.532C431.12 235.047 432.389 234.804 433.864 234.804C435.338 234.804 436.542 235.056 437.476 235.56C438.428 236.045 439.128 236.717 439.576 237.576C440.042 238.435 440.276 239.424 440.276 240.544V249ZM431.204 249.28C429.766 249.28 428.618 248.963 427.76 248.328C426.92 247.675 426.5 246.779 426.5 245.64C426.5 244.912 426.677 244.305 427.032 243.82C427.405 243.316 427.928 242.924 428.6 242.644C429.272 242.364 430.065 242.168 430.98 242.056L437.588 241.356V243.148L431.848 243.792C431.064 243.885 430.476 244.053 430.084 244.296C429.71 244.52 429.524 244.903 429.524 245.444C429.524 246.004 429.72 246.424 430.112 246.704C430.522 246.965 431.157 247.096 432.016 247.096C433.08 247.096 434.004 246.965 434.788 246.704C435.572 246.424 436.188 245.995 436.636 245.416C437.084 244.837 437.308 244.091 437.308 243.176L437.7 243.232V245.528H437.308C436.934 246.704 436.216 247.628 435.152 248.3C434.106 248.953 432.79 249.28 431.204 249.28ZM452.103 249H448.911C447.418 249 446.233 248.636 445.355 247.908C444.497 247.18 444.067 245.976 444.067 244.296V232.032H447.063V244.128C447.063 244.987 447.269 245.565 447.679 245.864C448.09 246.144 448.725 246.284 449.583 246.284H452.103V249ZM452.103 237.604H441.715V235.084H452.103V237.604ZM469.532 249H458.64V230.24H469.14C470.353 230.24 471.38 230.417 472.22 230.772C473.079 231.127 473.732 231.649 474.18 232.34C474.647 233.031 474.88 233.871 474.88 234.86C474.88 235.961 474.553 236.895 473.9 237.66C473.265 238.425 472.229 238.892 470.792 239.06V239.256C472.397 239.443 473.592 239.947 474.376 240.768C475.16 241.571 475.552 242.588 475.552 243.82C475.552 244.884 475.319 245.808 474.852 246.592C474.385 247.376 473.704 247.973 472.808 248.384C471.912 248.795 470.82 249 469.532 249ZM461.636 240.6V246.284H469.196C470.316 246.284 471.147 246.06 471.688 245.612C472.248 245.145 472.528 244.408 472.528 243.4C472.528 242.411 472.248 241.701 471.688 241.272C471.147 240.824 470.316 240.6 469.196 240.6H461.636ZM461.636 232.956V238.108H468.72C469.784 238.108 470.577 237.903 471.1 237.492C471.623 237.063 471.884 236.409 471.884 235.532C471.884 234.655 471.632 234.011 471.128 233.6C470.624 233.171 469.849 232.956 468.804 232.956H461.636ZM484.622 249.28C483.092 249.28 481.738 248.981 480.562 248.384C479.405 247.768 478.5 246.919 477.846 245.836C477.212 244.735 476.894 243.475 476.894 242.056C476.894 240.6 477.212 239.331 477.846 238.248C478.5 237.165 479.405 236.325 480.562 235.728C481.738 235.112 483.092 234.804 484.622 234.804C486.19 234.804 487.553 235.112 488.71 235.728C489.868 236.325 490.764 237.165 491.398 238.248C492.052 239.331 492.378 240.6 492.378 242.056C492.378 243.475 492.052 244.735 491.398 245.836C490.764 246.919 489.868 247.768 488.71 248.384C487.553 248.981 486.19 249.28 484.622 249.28ZM484.622 246.592C486.321 246.592 487.544 246.209 488.29 245.444C489.037 244.66 489.41 243.531 489.41 242.056C489.41 240.581 489.037 239.452 488.29 238.668C487.544 237.865 486.321 237.464 484.622 237.464C482.942 237.464 481.729 237.865 480.982 238.668C480.236 239.452 479.862 240.581 479.862 242.056C479.862 243.531 480.236 244.66 480.982 245.444C481.729 246.209 482.942 246.592 484.622 246.592ZM503.337 249.28C501.75 249.28 500.462 248.916 499.473 248.188C498.484 247.441 497.84 246.377 497.541 244.996H496.869L497.065 242.196H497.597C497.597 243.148 497.784 243.951 498.157 244.604C498.549 245.257 499.1 245.743 499.809 246.06C500.537 246.359 501.396 246.508 502.385 246.508C503.412 246.508 504.27 246.368 504.961 246.088C505.67 245.808 506.202 245.341 506.557 244.688C506.93 244.035 507.117 243.157 507.117 242.056C507.117 240.936 506.93 240.049 506.557 239.396C506.184 238.743 505.652 238.276 504.961 237.996C504.27 237.697 503.43 237.548 502.441 237.548C500.873 237.548 499.669 237.921 498.829 238.668C498.008 239.396 497.597 240.497 497.597 241.972H497.065V238.864H497.765C498.045 237.688 498.652 236.717 499.585 235.952C500.537 235.187 501.844 234.804 503.505 234.804C504.942 234.804 506.146 235.112 507.117 235.728C508.106 236.325 508.853 237.165 509.357 238.248C509.88 239.331 510.141 240.6 510.141 242.056C510.141 243.475 509.88 244.735 509.357 245.836C508.853 246.919 508.088 247.768 507.061 248.384C506.053 248.981 504.812 249.28 503.337 249.28ZM497.345 249H494.573V230.24H497.597V244.268L497.345 244.632V249ZM515.485 249H511.677V244.66H515.485V249ZM520.981 249H517.173V244.66H520.981V249ZM526.477 249H522.669V244.66H526.477V249Z" fill="white"/>
</svg>
