<svg width="868" height="440" viewBox="0 0 868 440" fill="none" xmlns="http://www.w3.org/2000/svg">
<rect x="1" y="1" width="866" height="438" rx="31" fill="black" stroke="white" stroke-width="2"/>
<path d="M55.1003 197.633H52.0763V178.873H55.1003V197.633ZM71.8136 197.633H68.6216C67.1283 197.633 65.943 197.269 65.0656 196.541C64.207 195.813 63.7776 194.609 63.7776 192.929V180.665H66.7736V192.761C66.7736 193.62 66.979 194.198 67.3896 194.497C67.8003 194.777 68.435 194.917 69.2936 194.917H71.8136V197.633ZM71.8136 186.237H61.4256V183.717H71.8136V186.237ZM88.3492 197.633H85.3532V190.073C85.3532 188.673 85.0265 187.674 84.3732 187.077C83.7198 186.461 82.6652 186.153 81.2092 186.153C80.1078 186.153 79.2305 186.349 78.5772 186.741C77.9238 187.114 77.4478 187.656 77.1492 188.365C76.8692 189.056 76.7292 189.896 76.7292 190.885L76.1412 190.913L76.2812 187.973H76.8972C77.0652 187.189 77.3638 186.452 77.7932 185.761C78.2412 185.07 78.8665 184.51 79.6692 184.081C80.4718 183.652 81.4612 183.437 82.6372 183.437C83.9065 183.437 84.9612 183.698 85.8012 184.221C86.6598 184.725 87.2945 185.425 87.7052 186.321C88.1345 187.198 88.3492 188.206 88.3492 189.345V197.633ZM76.7292 197.633H73.7052V178.873H76.7292V197.633ZM94.0925 197.633H91.0685V183.717H94.0925V197.633ZM94.0925 182.093H91.0685V178.873H94.0925V182.093ZM111.425 197.633H108.401V190.073C108.401 188.766 108.083 187.786 107.449 187.133C106.833 186.48 105.797 186.153 104.341 186.153C102.829 186.153 101.709 186.545 100.981 187.329C100.271 188.094 99.9167 189.233 99.9167 190.745L99.3847 190.773L99.2447 188.029H99.8607C100.01 187.245 100.309 186.508 100.757 185.817C101.223 185.108 101.858 184.538 102.661 184.109C103.482 183.661 104.481 183.437 105.657 183.437C106.945 183.437 108.018 183.698 108.877 184.221C109.735 184.744 110.37 185.444 110.781 186.321C111.21 187.198 111.425 188.178 111.425 189.261V197.633ZM99.9167 197.633H96.8927V183.717H99.6647V188.085L99.9167 188.225V197.633ZM128.791 197.633H125.235L121.119 191.949H115.799V189.233H121.119L125.291 183.717H128.819L123.583 190.409L128.791 197.633ZM117.143 197.633H114.119V178.873H117.143V197.633ZM137.332 202.393H135.344V199.649H138.06C138.676 199.649 139.133 199.546 139.432 199.341C139.749 199.154 140.011 198.828 140.216 198.361L141.084 196.485L140.748 198.025L133.692 183.717H137.08L140.636 191.109L142.008 194.441H142.232L143.548 191.081L146.824 183.717H150.156L142.904 199.145C142.531 199.966 142.092 200.61 141.588 201.077C141.084 201.562 140.487 201.898 139.796 202.085C139.105 202.29 138.284 202.393 137.332 202.393ZM158.747 197.913C157.216 197.913 155.863 197.614 154.687 197.017C153.53 196.401 152.624 195.552 151.971 194.469C151.336 193.368 151.019 192.108 151.019 190.689C151.019 189.233 151.336 187.964 151.971 186.881C152.624 185.798 153.53 184.958 154.687 184.361C155.863 183.745 157.216 183.437 158.747 183.437C160.315 183.437 161.678 183.745 162.835 184.361C163.992 184.958 164.888 185.798 165.523 186.881C166.176 187.964 166.503 189.233 166.503 190.689C166.503 192.108 166.176 193.368 165.523 194.469C164.888 195.552 163.992 196.401 162.835 197.017C161.678 197.614 160.315 197.913 158.747 197.913ZM158.747 195.225C160.446 195.225 161.668 194.842 162.415 194.077C163.162 193.293 163.535 192.164 163.535 190.689C163.535 189.214 163.162 188.085 162.415 187.301C161.668 186.498 160.446 186.097 158.747 186.097C157.067 186.097 155.854 186.498 155.107 187.301C154.36 188.085 153.987 189.214 153.987 190.689C153.987 192.164 154.36 193.293 155.107 194.077C155.854 194.842 157.067 195.225 158.747 195.225ZM174.493 197.913C173.187 197.913 172.104 197.652 171.245 197.129C170.387 196.606 169.743 195.906 169.313 195.029C168.884 194.152 168.669 193.172 168.669 192.089V183.717H171.665V191.277C171.665 192.565 171.983 193.545 172.617 194.217C173.271 194.87 174.335 195.197 175.809 195.197C177.359 195.197 178.488 194.814 179.197 194.049C179.925 193.265 180.289 192.117 180.289 190.605L180.821 190.577L180.989 193.321H180.345C180.215 194.105 179.916 194.842 179.449 195.533C178.983 196.224 178.339 196.793 177.517 197.241C176.715 197.689 175.707 197.913 174.493 197.913ZM183.313 197.633H180.541V193.265L180.289 193.125V183.717H183.313V197.633ZM193.87 197.633H190.846V178.873H193.87V197.633ZM209.83 197.633H207.058V194.049L206.862 193.965V189.205C206.862 188.048 206.582 187.245 206.022 186.797C205.481 186.33 204.538 186.097 203.194 186.097C201.906 186.097 200.945 186.321 200.31 186.769C199.675 187.217 199.358 187.954 199.358 188.981V189.093H196.362V188.981C196.362 187.917 196.642 186.974 197.202 186.153C197.762 185.313 198.565 184.65 199.61 184.165C200.674 183.68 201.943 183.437 203.418 183.437C204.893 183.437 206.097 183.689 207.03 184.193C207.982 184.678 208.682 185.35 209.13 186.209C209.597 187.068 209.83 188.057 209.83 189.177V197.633ZM200.758 197.913C199.321 197.913 198.173 197.596 197.314 196.961C196.474 196.308 196.054 195.412 196.054 194.273C196.054 193.545 196.231 192.938 196.586 192.453C196.959 191.949 197.482 191.557 198.154 191.277C198.826 190.997 199.619 190.801 200.534 190.689L207.142 189.989V191.781L201.402 192.425C200.618 192.518 200.03 192.686 199.638 192.929C199.265 193.153 199.078 193.536 199.078 194.077C199.078 194.637 199.274 195.057 199.666 195.337C200.077 195.598 200.711 195.729 201.57 195.729C202.634 195.729 203.558 195.598 204.342 195.337C205.126 195.057 205.742 194.628 206.19 194.049C206.638 193.47 206.862 192.724 206.862 191.809L207.254 191.865V194.161H206.862C206.489 195.337 205.77 196.261 204.706 196.933C203.661 197.586 202.345 197.913 200.758 197.913ZM218.325 197.913C217.019 197.913 215.936 197.652 215.077 197.129C214.219 196.606 213.575 195.906 213.145 195.029C212.716 194.152 212.501 193.172 212.501 192.089V183.717H215.497V191.277C215.497 192.565 215.815 193.545 216.449 194.217C217.103 194.87 218.167 195.197 219.641 195.197C221.191 195.197 222.32 194.814 223.029 194.049C223.757 193.265 224.121 192.117 224.121 190.605L224.653 190.577L224.821 193.321H224.177C224.047 194.105 223.748 194.842 223.281 195.533C222.815 196.224 222.171 196.793 221.349 197.241C220.547 197.689 219.539 197.913 218.325 197.913ZM227.145 197.633H224.373V193.265L224.121 193.125V183.717H227.145V197.633ZM237.201 202.673C235.819 202.673 234.606 202.458 233.561 202.029C232.515 201.618 231.694 201.021 231.097 200.237C230.518 199.453 230.229 198.501 230.229 197.381H233.225C233.225 198.053 233.365 198.594 233.645 199.005C233.925 199.416 234.363 199.705 234.961 199.873C235.577 200.06 236.379 200.153 237.369 200.153C238.433 200.153 239.273 200.032 239.889 199.789C240.523 199.565 240.981 199.164 241.261 198.585C241.541 198.006 241.681 197.204 241.681 196.177V188.029L241.905 187.833V183.717H244.677V196.009C244.677 197.558 244.369 198.818 243.753 199.789C243.137 200.778 242.269 201.506 241.149 201.973C240.029 202.44 238.713 202.673 237.201 202.673ZM235.941 196.373C234.559 196.373 233.374 196.102 232.385 195.561C231.414 195.02 230.658 194.264 230.117 193.293C229.594 192.322 229.333 191.193 229.333 189.905C229.333 188.617 229.603 187.488 230.145 186.517C230.705 185.546 231.489 184.79 232.497 184.249C233.523 183.708 234.737 183.437 236.137 183.437C237.593 183.437 238.825 183.764 239.833 184.417C240.859 185.052 241.494 185.976 241.737 187.189H242.381L242.213 189.625H241.681C241.681 188.841 241.494 188.188 241.121 187.665C240.747 187.124 240.215 186.722 239.525 186.461C238.834 186.2 237.994 186.069 237.005 186.069C236.053 186.069 235.222 186.19 234.513 186.433C233.822 186.676 233.29 187.077 232.917 187.637C232.562 188.178 232.385 188.934 232.385 189.905C232.385 190.857 232.562 191.613 232.917 192.173C233.271 192.733 233.785 193.144 234.457 193.405C235.147 193.648 235.969 193.769 236.921 193.769C238.451 193.769 239.627 193.452 240.449 192.817C241.27 192.182 241.681 191.249 241.681 190.017H242.213V192.761H241.485C241.242 193.825 240.654 194.693 239.721 195.365C238.787 196.037 237.527 196.373 235.941 196.373ZM262.119 197.633H259.123V190.073C259.123 188.673 258.796 187.674 258.143 187.077C257.489 186.461 256.435 186.153 254.979 186.153C253.877 186.153 253 186.349 252.347 186.741C251.693 187.114 251.217 187.656 250.919 188.365C250.639 189.056 250.499 189.896 250.499 190.885L249.911 190.913L250.051 187.973H250.667C250.835 187.189 251.133 186.452 251.563 185.761C252.011 185.07 252.636 184.51 253.439 184.081C254.241 183.652 255.231 183.437 256.407 183.437C257.676 183.437 258.731 183.698 259.571 184.221C260.429 184.725 261.064 185.425 261.475 186.321C261.904 187.198 262.119 188.206 262.119 189.345V197.633ZM250.499 197.633H247.475V178.873H250.499V197.633ZM271.838 197.913C270.326 197.913 269.001 197.633 267.862 197.073C266.723 196.513 265.837 195.692 265.202 194.609C264.586 193.526 264.278 192.22 264.278 190.689C264.278 189.233 264.586 187.964 265.202 186.881C265.837 185.798 266.714 184.958 267.834 184.361C268.954 183.745 270.27 183.437 271.782 183.437C273.219 183.437 274.479 183.698 275.562 184.221C276.663 184.725 277.513 185.472 278.11 186.461C278.726 187.432 279.034 188.626 279.034 190.045C279.034 190.288 279.025 190.521 279.006 190.745C278.987 190.95 278.959 191.156 278.922 191.361H266.21V189.681H276.934L276.15 190.717C276.169 190.53 276.178 190.353 276.178 190.185C276.178 189.998 276.178 189.812 276.178 189.625C276.178 188.337 275.805 187.385 275.058 186.769C274.33 186.134 273.219 185.817 271.726 185.817C270.065 185.817 268.879 186.2 268.17 186.965C267.461 187.73 267.106 188.832 267.106 190.269V190.997C267.106 192.453 267.461 193.564 268.17 194.329C268.879 195.094 270.074 195.477 271.754 195.477C273.21 195.477 274.255 195.253 274.89 194.805C275.543 194.338 275.87 193.694 275.87 192.873V192.649H278.894V192.901C278.894 193.89 278.586 194.768 277.97 195.533C277.373 196.28 276.542 196.868 275.478 197.297C274.433 197.708 273.219 197.913 271.838 197.913ZM287.431 197.913C285.956 197.913 284.706 197.614 283.679 197.017C282.671 196.401 281.906 195.552 281.383 194.469C280.86 193.368 280.599 192.108 280.599 190.689C280.599 189.233 280.86 187.964 281.383 186.881C281.906 185.798 282.662 184.958 283.651 184.361C284.64 183.745 285.835 183.437 287.235 183.437C288.878 183.437 290.175 183.82 291.127 184.585C292.079 185.35 292.695 186.321 292.975 187.497H293.675V190.605H293.143C293.143 189.13 292.723 188.029 291.883 187.301C291.043 186.554 289.848 186.181 288.299 186.181C287.347 186.181 286.516 186.33 285.807 186.629C285.098 186.909 284.556 187.376 284.183 188.029C283.828 188.682 283.651 189.569 283.651 190.689C283.651 191.79 283.828 192.668 284.183 193.321C284.556 193.974 285.098 194.441 285.807 194.721C286.516 195.001 287.366 195.141 288.355 195.141C289.344 195.141 290.194 194.992 290.903 194.693C291.631 194.376 292.182 193.89 292.555 193.237C292.947 192.584 293.143 191.781 293.143 190.829H293.675L293.871 193.629H293.199C292.919 195.01 292.275 196.074 291.267 196.821C290.278 197.549 288.999 197.913 287.431 197.913ZM296.167 197.633H293.395V193.265L293.143 192.901V178.873H296.167V197.633ZM312.876 197.633H309.684C308.191 197.633 307.005 197.269 306.128 196.541C305.269 195.813 304.84 194.609 304.84 192.929V180.665H307.836V192.761C307.836 193.62 308.041 194.198 308.452 194.497C308.863 194.777 309.497 194.917 310.356 194.917H312.876V197.633ZM312.876 186.237H302.488V183.717H312.876V186.237ZM321.88 197.913C320.349 197.913 318.996 197.614 317.82 197.017C316.662 196.401 315.757 195.552 315.104 194.469C314.469 193.368 314.152 192.108 314.152 190.689C314.152 189.233 314.469 187.964 315.104 186.881C315.757 185.798 316.662 184.958 317.82 184.361C318.996 183.745 320.349 183.437 321.88 183.437C323.448 183.437 324.81 183.745 325.968 184.361C327.125 184.958 328.021 185.798 328.656 186.881C329.309 187.964 329.636 189.233 329.636 190.689C329.636 192.108 329.309 193.368 328.656 194.469C328.021 195.552 327.125 196.401 325.968 197.017C324.81 197.614 323.448 197.913 321.88 197.913ZM321.88 195.225C323.578 195.225 324.801 194.842 325.548 194.077C326.294 193.293 326.668 192.164 326.668 190.689C326.668 189.214 326.294 188.085 325.548 187.301C324.801 186.498 323.578 186.097 321.88 186.097C320.2 186.097 318.986 186.498 318.24 187.301C317.493 188.085 317.12 189.214 317.12 190.689C317.12 192.164 317.493 193.293 318.24 194.077C318.986 194.842 320.2 195.225 321.88 195.225ZM338.942 197.913C337.412 197.913 336.058 197.614 334.882 197.017C333.725 196.401 332.82 195.552 332.166 194.469C331.532 193.368 331.214 192.108 331.214 190.689C331.214 189.233 331.532 187.964 332.166 186.881C332.82 185.798 333.725 184.958 334.882 184.361C336.058 183.745 337.412 183.437 338.942 183.437C340.51 183.437 341.873 183.745 343.03 184.361C344.188 184.958 345.084 185.798 345.718 186.881C346.372 187.964 346.698 189.233 346.698 190.689C346.698 192.108 346.372 193.368 345.718 194.469C345.084 195.552 344.188 196.401 343.03 197.017C341.873 197.614 340.51 197.913 338.942 197.913ZM338.942 195.225C340.641 195.225 341.864 194.842 342.61 194.077C343.357 193.293 343.73 192.164 343.73 190.689C343.73 189.214 343.357 188.085 342.61 187.301C341.864 186.498 340.641 186.097 338.942 186.097C337.262 186.097 336.049 186.498 335.302 187.301C334.556 188.085 334.182 189.214 334.182 190.689C334.182 192.164 334.556 193.293 335.302 194.077C336.049 194.842 337.262 195.225 338.942 195.225ZM378.29 197.633H375.294V190.073C375.294 188.692 375.004 187.693 374.426 187.077C373.847 186.461 372.876 186.153 371.514 186.153C370.039 186.153 368.994 186.536 368.378 187.301C367.78 188.048 367.482 189.196 367.482 190.745L366.95 190.773L366.782 188.029H367.398C367.528 187.226 367.799 186.48 368.21 185.789C368.62 185.098 369.208 184.538 369.974 184.109C370.739 183.661 371.7 183.437 372.858 183.437C374.071 183.437 375.079 183.689 375.882 184.193C376.684 184.697 377.282 185.388 377.674 186.265C378.084 187.142 378.29 188.141 378.29 189.261V197.633ZM356.702 197.633H353.678V183.717H356.45V188.085L356.702 188.225V197.633ZM367.482 197.633H364.486V190.073C364.486 188.692 364.196 187.693 363.618 187.077C363.039 186.461 362.078 186.153 360.734 186.153C359.24 186.153 358.195 186.536 357.598 187.301C357 188.048 356.702 189.196 356.702 190.745L356.17 190.773L356.03 187.917H356.618C356.748 187.133 357.01 186.405 357.402 185.733C357.794 185.061 358.363 184.51 359.11 184.081C359.856 183.652 360.808 183.437 361.966 183.437C363.179 183.437 364.178 183.698 364.962 184.221C365.746 184.725 366.334 185.416 366.726 186.293C367.118 187.17 367.314 188.16 367.314 189.261H367.482V197.633ZM386.79 197.913C385.484 197.913 384.401 197.652 383.542 197.129C382.684 196.606 382.04 195.906 381.61 195.029C381.181 194.152 380.966 193.172 380.966 192.089V183.717H383.962V191.277C383.962 192.565 384.28 193.545 384.914 194.217C385.568 194.87 386.632 195.197 388.106 195.197C389.656 195.197 390.785 194.814 391.494 194.049C392.222 193.265 392.586 192.117 392.586 190.605L393.118 190.577L393.286 193.321H392.642C392.512 194.105 392.213 194.842 391.746 195.533C391.28 196.224 390.636 196.793 389.814 197.241C389.012 197.689 388.004 197.913 386.79 197.913ZM395.61 197.633H392.838V193.265L392.586 193.125V183.717H395.61V197.633ZM405.386 197.913C403.855 197.913 402.52 197.614 401.382 197.017C400.243 196.401 399.356 195.552 398.722 194.469C398.106 193.368 397.798 192.108 397.798 190.689C397.798 189.233 398.106 187.964 398.722 186.881C399.356 185.798 400.243 184.958 401.382 184.361C402.52 183.745 403.855 183.437 405.386 183.437C406.786 183.437 408.027 183.68 409.11 184.165C410.192 184.65 411.042 185.332 411.658 186.209C412.292 187.068 412.61 188.085 412.61 189.261V189.541H409.614V189.373C409.614 188.29 409.24 187.488 408.494 186.965C407.747 186.424 406.692 186.153 405.33 186.153C403.762 186.153 402.614 186.536 401.886 187.301C401.158 188.048 400.794 189.177 400.794 190.689C400.794 192.182 401.158 193.312 401.886 194.077C402.614 194.824 403.762 195.197 405.33 195.197C406.692 195.197 407.747 194.936 408.494 194.413C409.24 193.872 409.614 193.06 409.614 191.977V191.781H412.61V192.089C412.61 193.246 412.292 194.264 411.658 195.141C411.042 196.018 410.192 196.7 409.11 197.185C408.027 197.67 406.786 197.913 405.386 197.913ZM429.49 197.633H426.494V190.073C426.494 188.673 426.167 187.674 425.514 187.077C424.86 186.461 423.806 186.153 422.35 186.153C421.248 186.153 420.371 186.349 419.718 186.741C419.064 187.114 418.588 187.656 418.29 188.365C418.01 189.056 417.87 189.896 417.87 190.885L417.282 190.913L417.422 187.973H418.038C418.206 187.189 418.504 186.452 418.934 185.761C419.382 185.07 420.007 184.51 420.81 184.081C421.612 183.652 422.602 183.437 423.778 183.437C425.047 183.437 426.102 183.698 426.942 184.221C427.8 184.725 428.435 185.425 428.846 186.321C429.275 187.198 429.49 188.206 429.49 189.345V197.633ZM417.87 197.633H414.846V178.873H417.87V197.633ZM450.154 197.633H447.382V194.049L447.186 193.965V189.205C447.186 188.048 446.906 187.245 446.346 186.797C445.805 186.33 444.862 186.097 443.518 186.097C442.23 186.097 441.269 186.321 440.634 186.769C440 187.217 439.682 187.954 439.682 188.981V189.093H436.686V188.981C436.686 187.917 436.966 186.974 437.526 186.153C438.086 185.313 438.889 184.65 439.934 184.165C440.998 183.68 442.268 183.437 443.742 183.437C445.217 183.437 446.421 183.689 447.354 184.193C448.306 184.678 449.006 185.35 449.454 186.209C449.921 187.068 450.154 188.057 450.154 189.177V197.633ZM441.082 197.913C439.645 197.913 438.497 197.596 437.638 196.961C436.798 196.308 436.378 195.412 436.378 194.273C436.378 193.545 436.556 192.938 436.91 192.453C437.284 191.949 437.806 191.557 438.478 191.277C439.15 190.997 439.944 190.801 440.858 190.689L447.466 189.989V191.781L441.726 192.425C440.942 192.518 440.354 192.686 439.962 192.929C439.589 193.153 439.402 193.536 439.402 194.077C439.402 194.637 439.598 195.057 439.99 195.337C440.401 195.598 441.036 195.729 441.894 195.729C442.958 195.729 443.882 195.598 444.666 195.337C445.45 195.057 446.066 194.628 446.514 194.049C446.962 193.47 447.186 192.724 447.186 191.809L447.578 191.865V194.161H447.186C446.813 195.337 446.094 196.261 445.03 196.933C443.985 197.586 442.669 197.913 441.082 197.913ZM461.982 197.633H458.79C457.296 197.633 456.111 197.269 455.234 196.541C454.375 195.813 453.946 194.609 453.946 192.929V180.665H456.942V192.761C456.942 193.62 457.147 194.198 457.558 194.497C457.968 194.777 458.603 194.917 459.462 194.917H461.982V197.633ZM461.982 186.237H451.594V183.717H461.982V186.237ZM477.786 197.633H474.594C473.101 197.633 471.916 197.269 471.038 196.541C470.18 195.813 469.75 194.609 469.75 192.929V180.665H472.746V192.761C472.746 193.62 472.952 194.198 473.362 194.497C473.773 194.777 474.408 194.917 475.266 194.917H477.786V197.633ZM477.786 186.237H467.398V183.717H477.786V186.237ZM494.322 197.633H491.326V190.073C491.326 188.673 490.999 187.674 490.346 187.077C489.692 186.461 488.638 186.153 487.182 186.153C486.08 186.153 485.203 186.349 484.55 186.741C483.896 187.114 483.42 187.656 483.122 188.365C482.842 189.056 482.702 189.896 482.702 190.885L482.114 190.913L482.254 187.973H482.87C483.038 187.189 483.336 186.452 483.766 185.761C484.214 185.07 484.839 184.51 485.642 184.081C486.444 183.652 487.434 183.437 488.61 183.437C489.879 183.437 490.934 183.698 491.774 184.221C492.632 184.725 493.267 185.425 493.678 186.321C494.107 187.198 494.322 188.206 494.322 189.345V197.633ZM482.702 197.633H479.678V178.873H482.702V197.633ZM510.201 197.633H507.429V194.049L507.233 193.965V189.205C507.233 188.048 506.953 187.245 506.393 186.797C505.852 186.33 504.909 186.097 503.565 186.097C502.277 186.097 501.316 186.321 500.681 186.769C500.046 187.217 499.729 187.954 499.729 188.981V189.093H496.733V188.981C496.733 187.917 497.013 186.974 497.573 186.153C498.133 185.313 498.936 184.65 499.981 184.165C501.045 183.68 502.314 183.437 503.789 183.437C505.264 183.437 506.468 183.689 507.401 184.193C508.353 184.678 509.053 185.35 509.501 186.209C509.968 187.068 510.201 188.057 510.201 189.177V197.633ZM501.129 197.913C499.692 197.913 498.544 197.596 497.685 196.961C496.845 196.308 496.425 195.412 496.425 194.273C496.425 193.545 496.602 192.938 496.957 192.453C497.33 191.949 497.853 191.557 498.525 191.277C499.197 190.997 499.99 190.801 500.905 190.689L507.513 189.989V191.781L501.773 192.425C500.989 192.518 500.401 192.686 500.009 192.929C499.636 193.153 499.449 193.536 499.449 194.077C499.449 194.637 499.645 195.057 500.037 195.337C500.448 195.598 501.082 195.729 501.941 195.729C503.005 195.729 503.929 195.598 504.713 195.337C505.497 195.057 506.113 194.628 506.561 194.049C507.009 193.47 507.233 192.724 507.233 191.809L507.625 191.865V194.161H507.233C506.86 195.337 506.141 196.261 505.077 196.933C504.032 197.586 502.716 197.913 501.129 197.913ZM522.028 197.633H518.836C517.343 197.633 516.158 197.269 515.28 196.541C514.422 195.813 513.992 194.609 513.992 192.929V180.665H516.988V192.761C516.988 193.62 517.194 194.198 517.604 194.497C518.015 194.777 518.65 194.917 519.508 194.917H522.028V197.633ZM522.028 186.237H511.64V183.717H522.028V186.237ZM541.865 197.633H539.093V194.049L538.897 193.965V189.205C538.897 188.048 538.617 187.245 538.057 186.797C537.516 186.33 536.573 186.097 535.229 186.097C533.941 186.097 532.98 186.321 532.345 186.769C531.711 187.217 531.393 187.954 531.393 188.981V189.093H528.397V188.981C528.397 187.917 528.677 186.974 529.237 186.153C529.797 185.313 530.6 184.65 531.645 184.165C532.709 183.68 533.979 183.437 535.453 183.437C536.928 183.437 538.132 183.689 539.065 184.193C540.017 184.678 540.717 185.35 541.165 186.209C541.632 187.068 541.865 188.057 541.865 189.177V197.633ZM532.793 197.913C531.356 197.913 530.208 197.596 529.349 196.961C528.509 196.308 528.089 195.412 528.089 194.273C528.089 193.545 528.267 192.938 528.621 192.453C528.995 191.949 529.517 191.557 530.189 191.277C530.861 190.997 531.655 190.801 532.569 190.689L539.177 189.989V191.781L533.437 192.425C532.653 192.518 532.065 192.686 531.673 192.929C531.3 193.153 531.113 193.536 531.113 194.077C531.113 194.637 531.309 195.057 531.701 195.337C532.112 195.598 532.747 195.729 533.605 195.729C534.669 195.729 535.593 195.598 536.377 195.337C537.161 195.057 537.777 194.628 538.225 194.049C538.673 193.47 538.897 192.724 538.897 191.809L539.289 191.865V194.161H538.897C538.524 195.337 537.805 196.261 536.741 196.933C535.696 197.586 534.38 197.913 532.793 197.913ZM553.329 197.913C551.742 197.913 550.454 197.549 549.465 196.821C548.475 196.074 547.831 195.01 547.533 193.629H546.861L547.057 190.829H547.589C547.589 191.781 547.775 192.584 548.149 193.237C548.541 193.89 549.091 194.376 549.801 194.693C550.529 194.992 551.387 195.141 552.377 195.141C553.403 195.141 554.262 195.001 554.953 194.721C555.662 194.441 556.194 193.974 556.549 193.321C556.922 192.668 557.109 191.79 557.109 190.689C557.109 189.569 556.922 188.682 556.549 188.029C556.175 187.376 555.643 186.909 554.953 186.629C554.262 186.33 553.422 186.181 552.433 186.181C550.865 186.181 549.661 186.554 548.821 187.301C547.999 188.029 547.589 189.13 547.589 190.605H547.057V187.497H547.757C548.037 186.321 548.643 185.35 549.577 184.585C550.529 183.82 551.835 183.437 553.497 183.437C554.934 183.437 556.138 183.745 557.109 184.361C558.098 184.958 558.845 185.798 559.349 186.881C559.871 187.964 560.133 189.233 560.133 190.689C560.133 192.108 559.871 193.368 559.349 194.469C558.845 195.552 558.079 196.401 557.053 197.017C556.045 197.614 554.803 197.913 553.329 197.913ZM547.337 197.633H544.565V178.873H547.589V192.901L547.337 193.265V197.633ZM569.341 197.913C567.81 197.913 566.457 197.614 565.281 197.017C564.123 196.401 563.218 195.552 562.565 194.469C561.93 193.368 561.613 192.108 561.613 190.689C561.613 189.233 561.93 187.964 562.565 186.881C563.218 185.798 564.123 184.958 565.281 184.361C566.457 183.745 567.81 183.437 569.341 183.437C570.909 183.437 572.271 183.745 573.429 184.361C574.586 184.958 575.482 185.798 576.117 186.881C576.77 187.964 577.097 189.233 577.097 190.689C577.097 192.108 576.77 193.368 576.117 194.469C575.482 195.552 574.586 196.401 573.429 197.017C572.271 197.614 570.909 197.913 569.341 197.913ZM569.341 195.225C571.039 195.225 572.262 194.842 573.009 194.077C573.755 193.293 574.129 192.164 574.129 190.689C574.129 189.214 573.755 188.085 573.009 187.301C572.262 186.498 571.039 186.097 569.341 186.097C567.661 186.097 566.447 186.498 565.701 187.301C564.954 188.085 564.581 189.214 564.581 190.689C564.581 192.164 564.954 193.293 565.701 194.077C566.447 194.842 567.661 195.225 569.341 195.225ZM603.903 197.633H600.907V190.073C600.907 188.692 600.618 187.693 600.039 187.077C599.46 186.461 598.49 186.153 597.127 186.153C595.652 186.153 594.607 186.536 593.991 187.301C593.394 188.048 593.095 189.196 593.095 190.745L592.563 190.773L592.395 188.029H593.011C593.142 187.226 593.412 186.48 593.823 185.789C594.234 185.098 594.822 184.538 595.587 184.109C596.352 183.661 597.314 183.437 598.471 183.437C599.684 183.437 600.692 183.689 601.495 184.193C602.298 184.697 602.895 185.388 603.287 186.265C603.698 187.142 603.903 188.141 603.903 189.261V197.633ZM582.315 197.633H579.291V183.717H582.063V188.085L582.315 188.225V197.633ZM593.095 197.633H590.099V190.073C590.099 188.692 589.81 187.693 589.231 187.077C588.652 186.461 587.691 186.153 586.347 186.153C584.854 186.153 583.808 186.536 583.211 187.301C582.614 188.048 582.315 189.196 582.315 190.745L581.783 190.773L581.643 187.917H582.231C582.362 187.133 582.623 186.405 583.015 185.733C583.407 185.061 583.976 184.51 584.723 184.081C585.47 183.652 586.422 183.437 587.579 183.437C588.792 183.437 589.791 183.698 590.575 184.221C591.359 184.725 591.947 185.416 592.339 186.293C592.731 187.17 592.927 188.16 592.927 189.261H593.095V197.633ZM609.632 197.633H606.608V183.717H609.632V197.633ZM609.632 182.093H606.608V178.873H609.632V182.093ZM626.964 197.633H623.94V190.073C623.94 188.766 623.622 187.786 622.988 187.133C622.372 186.48 621.336 186.153 619.88 186.153C618.368 186.153 617.248 186.545 616.52 187.329C615.81 188.094 615.456 189.233 615.456 190.745L614.924 190.773L614.784 188.029H615.4C615.549 187.245 615.848 186.508 616.296 185.817C616.762 185.108 617.397 184.538 618.2 184.109C619.021 183.661 620.02 183.437 621.196 183.437C622.484 183.437 623.557 183.698 624.416 184.221C625.274 184.744 625.909 185.444 626.32 186.321C626.749 187.198 626.964 188.178 626.964 189.261V197.633ZM615.456 197.633H612.432V183.717H615.204V188.085L615.456 188.225V197.633ZM642.818 197.633H640.046V194.049L639.85 193.965V189.205C639.85 188.048 639.57 187.245 639.01 186.797C638.469 186.33 637.526 186.097 636.182 186.097C634.894 186.097 633.933 186.321 633.298 186.769C632.664 187.217 632.346 187.954 632.346 188.981V189.093H629.35V188.981C629.35 187.917 629.63 186.974 630.19 186.153C630.75 185.313 631.553 184.65 632.598 184.165C633.662 183.68 634.932 183.437 636.406 183.437C637.881 183.437 639.085 183.689 640.018 184.193C640.97 184.678 641.67 185.35 642.118 186.209C642.585 187.068 642.818 188.057 642.818 189.177V197.633ZM633.746 197.913C632.309 197.913 631.161 197.596 630.302 196.961C629.462 196.308 629.042 195.412 629.042 194.273C629.042 193.545 629.22 192.938 629.574 192.453C629.948 191.949 630.47 191.557 631.142 191.277C631.814 190.997 632.608 190.801 633.522 190.689L640.13 189.989V191.781L634.39 192.425C633.606 192.518 633.018 192.686 632.626 192.929C632.253 193.153 632.066 193.536 632.066 194.077C632.066 194.637 632.262 195.057 632.654 195.337C633.065 195.598 633.7 195.729 634.558 195.729C635.622 195.729 636.546 195.598 637.33 195.337C638.114 195.057 638.73 194.628 639.178 194.049C639.626 193.47 639.85 192.724 639.85 191.809L640.242 191.865V194.161H639.85C639.477 195.337 638.758 196.261 637.694 196.933C636.649 197.586 635.333 197.913 633.746 197.913ZM654.646 197.633H651.454C649.96 197.633 648.775 197.269 647.898 196.541C647.039 195.813 646.61 194.609 646.61 192.929V180.665H649.606V192.761C649.606 193.62 649.811 194.198 650.222 194.497C650.632 194.777 651.267 194.917 652.126 194.917H654.646V197.633ZM654.646 186.237H644.258V183.717H654.646V186.237ZM659.561 197.633H656.537V183.717H659.561V197.633ZM659.561 182.093H656.537V178.873H659.561V182.093ZM669.473 197.913C667.943 197.913 666.589 197.614 665.413 197.017C664.256 196.401 663.351 195.552 662.697 194.469C662.063 193.368 661.745 192.108 661.745 190.689C661.745 189.233 662.063 187.964 662.697 186.881C663.351 185.798 664.256 184.958 665.413 184.361C666.589 183.745 667.943 183.437 669.473 183.437C671.041 183.437 672.404 183.745 673.561 184.361C674.719 184.958 675.615 185.798 676.249 186.881C676.903 187.964 677.229 189.233 677.229 190.689C677.229 192.108 676.903 193.368 676.249 194.469C675.615 195.552 674.719 196.401 673.561 197.017C672.404 197.614 671.041 197.913 669.473 197.913ZM669.473 195.225C671.172 195.225 672.395 194.842 673.141 194.077C673.888 193.293 674.261 192.164 674.261 190.689C674.261 189.214 673.888 188.085 673.141 187.301C672.395 186.498 671.172 186.097 669.473 186.097C667.793 186.097 666.58 186.498 665.833 187.301C665.087 188.085 664.713 189.214 664.713 190.689C664.713 192.164 665.087 193.293 665.833 194.077C666.58 194.842 667.793 195.225 669.473 195.225ZM693.956 197.633H690.932V190.073C690.932 188.766 690.615 187.786 689.98 187.133C689.364 186.48 688.328 186.153 686.872 186.153C685.36 186.153 684.24 186.545 683.512 187.329C682.803 188.094 682.448 189.233 682.448 190.745L681.916 190.773L681.776 188.029H682.392C682.541 187.245 682.84 186.508 683.288 185.817C683.755 185.108 684.389 184.538 685.192 184.109C686.013 183.661 687.012 183.437 688.188 183.437C689.476 183.437 690.549 183.698 691.408 184.221C692.267 184.744 692.901 185.444 693.312 186.321C693.741 187.198 693.956 188.178 693.956 189.261V197.633ZM682.448 197.633H679.424V183.717H682.196V188.085L682.448 188.225V197.633ZM699.898 197.633H696.09V193.293H699.898V197.633ZM697.154 200.769H696.146V198.921H697.07C697.313 198.921 697.49 198.874 697.602 198.781C697.714 198.706 697.77 198.52 697.77 198.221V196.989H699.898V198.193C699.898 199.07 699.656 199.714 699.17 200.125C698.704 200.554 698.032 200.769 697.154 200.769ZM60.8403 231.913C59.2536 231.913 57.9656 231.549 56.9763 230.821C55.9869 230.074 55.3429 229.01 55.0443 227.629H54.3723L54.5683 224.829H55.1003C55.1003 225.781 55.2869 226.584 55.6603 227.237C56.0523 227.89 56.6029 228.376 57.3123 228.693C58.0403 228.992 58.8989 229.141 59.8883 229.141C60.9149 229.141 61.7736 229.001 62.4643 228.721C63.1736 228.441 63.7056 227.974 64.0603 227.321C64.4336 226.668 64.6203 225.79 64.6203 224.689C64.6203 223.569 64.4336 222.682 64.0603 222.029C63.6869 221.376 63.1549 220.909 62.4643 220.629C61.7736 220.33 60.9336 220.181 59.9443 220.181C58.3763 220.181 57.1723 220.554 56.3323 221.301C55.5109 222.029 55.1003 223.13 55.1003 224.605H54.5683V221.497H55.2683C55.5483 220.321 56.1549 219.35 57.0883 218.585C58.0403 217.82 59.3469 217.437 61.0083 217.437C62.4456 217.437 63.6496 217.745 64.6203 218.361C65.6096 218.958 66.3563 219.798 66.8603 220.881C67.3829 221.964 67.6443 223.233 67.6443 224.689C67.6443 226.108 67.3829 227.368 66.8603 228.469C66.3563 229.552 65.5909 230.401 64.5643 231.017C63.5563 231.614 62.3149 231.913 60.8403 231.913ZM54.8483 231.633H52.0763V212.873H55.1003V226.901L54.8483 227.265V231.633ZM75.5363 231.913C74.2297 231.913 73.147 231.652 72.2883 231.129C71.4297 230.606 70.7857 229.906 70.3563 229.029C69.927 228.152 69.7123 227.172 69.7123 226.089V217.717H72.7083V225.277C72.7083 226.565 73.0257 227.545 73.6603 228.217C74.3137 228.87 75.3777 229.197 76.8523 229.197C78.4017 229.197 79.531 228.814 80.2403 228.049C80.9683 227.265 81.3323 226.117 81.3323 224.605L81.8643 224.577L82.0323 227.321H81.3883C81.2577 228.105 80.959 228.842 80.4923 229.533C80.0257 230.224 79.3817 230.793 78.5603 231.241C77.7577 231.689 76.7497 231.913 75.5363 231.913ZM84.3563 231.633H81.5843V227.265L81.3323 227.125V217.717H84.3563V231.633ZM96.2316 231.633H93.0396C91.5463 231.633 90.3609 231.269 89.4836 230.541C88.6249 229.813 88.1956 228.609 88.1956 226.929V214.665H91.1916V226.761C91.1916 227.62 91.3969 228.198 91.8076 228.497C92.2183 228.777 92.8529 228.917 93.7116 228.917H96.2316V231.633ZM96.2316 220.237H85.8436V217.717H96.2316V220.237ZM105.932 231.633H102.908V212.873H105.932V231.633ZM119.65 231.913C118.175 231.913 116.924 231.614 115.898 231.017C114.89 230.401 114.124 229.552 113.602 228.469C113.079 227.368 112.818 226.108 112.818 224.689C112.818 223.233 113.079 221.964 113.602 220.881C114.124 219.798 114.88 218.958 115.87 218.361C116.859 217.745 118.054 217.437 119.454 217.437C121.096 217.437 122.394 217.82 123.346 218.585C124.298 219.35 124.914 220.321 125.194 221.497H125.894V224.605H125.362C125.362 223.13 124.942 222.029 124.102 221.301C123.262 220.554 122.067 220.181 120.518 220.181C119.566 220.181 118.735 220.33 118.026 220.629C117.316 220.909 116.775 221.376 116.402 222.029C116.047 222.682 115.87 223.569 115.87 224.689C115.87 225.79 116.047 226.668 116.402 227.321C116.775 227.974 117.316 228.441 118.026 228.721C118.735 229.001 119.584 229.141 120.574 229.141C121.563 229.141 122.412 228.992 123.122 228.693C123.85 228.376 124.4 227.89 124.774 227.237C125.166 226.584 125.362 225.781 125.362 224.829H125.894L126.09 227.629H125.418C125.138 229.01 124.494 230.074 123.486 230.821C122.496 231.549 121.218 231.913 119.65 231.913ZM128.386 231.633H125.614V227.265L125.362 226.901V212.873H128.386V231.633ZM138.294 231.913C136.763 231.913 135.41 231.614 134.234 231.017C133.076 230.401 132.171 229.552 131.518 228.469C130.883 227.368 130.566 226.108 130.566 224.689C130.566 223.233 130.883 221.964 131.518 220.881C132.171 219.798 133.076 218.958 134.234 218.361C135.41 217.745 136.763 217.437 138.294 217.437C139.862 217.437 141.224 217.745 142.382 218.361C143.539 218.958 144.435 219.798 145.07 220.881C145.723 221.964 146.05 223.233 146.05 224.689C146.05 226.108 145.723 227.368 145.07 228.469C144.435 229.552 143.539 230.401 142.382 231.017C141.224 231.614 139.862 231.913 138.294 231.913ZM138.294 229.225C139.992 229.225 141.215 228.842 141.962 228.077C142.708 227.293 143.082 226.164 143.082 224.689C143.082 223.214 142.708 222.085 141.962 221.301C141.215 220.498 139.992 220.097 138.294 220.097C136.614 220.097 135.4 220.498 134.654 221.301C133.907 222.085 133.534 223.214 133.534 224.689C133.534 226.164 133.907 227.293 134.654 228.077C135.4 228.842 136.614 229.225 138.294 229.225ZM162.776 231.633H159.752V224.073C159.752 222.766 159.435 221.786 158.8 221.133C158.184 220.48 157.148 220.153 155.692 220.153C154.18 220.153 153.06 220.545 152.332 221.329C151.623 222.094 151.268 223.233 151.268 224.745L150.736 224.773L150.596 222.029H151.212C151.362 221.245 151.66 220.508 152.108 219.817C152.575 219.108 153.21 218.538 154.012 218.109C154.834 217.661 155.832 217.437 157.008 217.437C158.296 217.437 159.37 217.698 160.228 218.221C161.087 218.744 161.722 219.444 162.132 220.321C162.562 221.198 162.776 222.178 162.776 223.261V231.633ZM151.268 231.633H148.244V217.717H151.016V222.085L151.268 222.225V231.633ZM168.719 217.213H164.911V212.873H168.719V217.213ZM165.975 220.377H164.967V218.529H165.891C166.133 218.529 166.311 218.482 166.423 218.389C166.535 218.296 166.591 218.1 166.591 217.801V216.569H168.719V217.773C168.719 218.65 168.476 219.304 167.991 219.733C167.524 220.162 166.852 220.377 165.975 220.377ZM180.095 231.633H176.903C175.41 231.633 174.224 231.269 173.347 230.541C172.488 229.813 172.059 228.609 172.059 226.929V214.665H175.055V226.761C175.055 227.62 175.26 228.198 175.671 228.497C176.082 228.777 176.716 228.917 177.575 228.917H180.095V231.633ZM180.095 220.237H169.707V217.717H180.095V220.237ZM193.436 231.633H189.684L185.512 217.717H188.648L190.972 225.613L191.616 229.197H191.84L192.876 225.333L195.788 217.717H199.652L202.592 225.333L203.628 229.197H203.852L204.496 225.613L206.82 217.717H209.9L205.672 231.633H201.92L198.868 223.625L197.804 220.209H197.58L196.516 223.625L193.436 231.633ZM224.596 231.633H221.824V228.049L221.628 227.965V223.205C221.628 222.048 221.348 221.245 220.788 220.797C220.246 220.33 219.304 220.097 217.96 220.097C216.672 220.097 215.71 220.321 215.076 220.769C214.441 221.217 214.124 221.954 214.124 222.981V223.093H211.128V222.981C211.128 221.917 211.408 220.974 211.968 220.153C212.528 219.313 213.33 218.65 214.376 218.165C215.44 217.68 216.709 217.437 218.184 217.437C219.658 217.437 220.862 217.689 221.796 218.193C222.748 218.678 223.448 219.35 223.896 220.209C224.362 221.068 224.596 222.057 224.596 223.177V231.633ZM215.524 231.913C214.086 231.913 212.938 231.596 212.08 230.961C211.24 230.308 210.82 229.412 210.82 228.273C210.82 227.545 210.997 226.938 211.352 226.453C211.725 225.949 212.248 225.557 212.92 225.277C213.592 224.997 214.385 224.801 215.3 224.689L221.908 223.989V225.781L216.168 226.425C215.384 226.518 214.796 226.686 214.404 226.929C214.03 227.153 213.844 227.536 213.844 228.077C213.844 228.637 214.04 229.057 214.432 229.337C214.842 229.598 215.477 229.729 216.336 229.729C217.4 229.729 218.324 229.598 219.108 229.337C219.892 229.057 220.508 228.628 220.956 228.049C221.404 227.47 221.628 226.724 221.628 225.809L222.02 225.865V228.161H221.628C221.254 229.337 220.536 230.261 219.472 230.933C218.426 231.586 217.11 231.913 215.524 231.913ZM241.827 231.633H238.803V224.073C238.803 222.766 238.486 221.786 237.851 221.133C237.235 220.48 236.199 220.153 234.743 220.153C233.231 220.153 232.111 220.545 231.383 221.329C230.674 222.094 230.319 223.233 230.319 224.745L229.787 224.773L229.647 222.029H230.263C230.412 221.245 230.711 220.508 231.159 219.817C231.626 219.108 232.26 218.538 233.063 218.109C233.884 217.661 234.883 217.437 236.059 217.437C237.347 217.437 238.42 217.698 239.279 218.221C240.138 218.744 240.772 219.444 241.183 220.321C241.612 221.198 241.827 222.178 241.827 223.261V231.633ZM230.319 231.633H227.295V217.717H230.067V222.085L230.319 222.225V231.633ZM253.65 231.633H250.458C248.964 231.633 247.779 231.269 246.902 230.541C246.043 229.813 245.614 228.609 245.614 226.929V214.665H248.61V226.761C248.61 227.62 248.815 228.198 249.226 228.497C249.636 228.777 250.271 228.917 251.13 228.917H253.65V231.633ZM253.65 220.237H243.262V217.717H253.65V220.237ZM269.454 231.633H266.262C264.769 231.633 263.584 231.269 262.706 230.541C261.848 229.813 261.418 228.609 261.418 226.929V214.665H264.414V226.761C264.414 227.62 264.62 228.198 265.03 228.497C265.441 228.777 266.076 228.917 266.934 228.917H269.454V231.633ZM269.454 220.237H259.066V217.717H269.454V220.237ZM278.458 231.913C276.927 231.913 275.574 231.614 274.398 231.017C273.24 230.401 272.335 229.552 271.682 228.469C271.047 227.368 270.73 226.108 270.73 224.689C270.73 223.233 271.047 221.964 271.682 220.881C272.335 219.798 273.24 218.958 274.398 218.361C275.574 217.745 276.927 217.437 278.458 217.437C280.026 217.437 281.388 217.745 282.546 218.361C283.703 218.958 284.599 219.798 285.234 220.881C285.887 221.964 286.214 223.233 286.214 224.689C286.214 226.108 285.887 227.368 285.234 228.469C284.599 229.552 283.703 230.401 282.546 231.017C281.388 231.614 280.026 231.913 278.458 231.913ZM278.458 229.225C280.156 229.225 281.379 228.842 282.126 228.077C282.872 227.293 283.246 226.164 283.246 224.689C283.246 223.214 282.872 222.085 282.126 221.301C281.379 220.498 280.156 220.097 278.458 220.097C276.778 220.097 275.564 220.498 274.818 221.301C274.071 222.085 273.698 223.214 273.698 224.689C273.698 226.164 274.071 227.293 274.818 228.077C275.564 228.842 276.778 229.225 278.458 229.225ZM291.317 236.393H290.449V234.069H291.401C291.999 234.069 292.447 233.938 292.745 233.677C293.063 233.416 293.221 232.968 293.221 232.333V217.717H296.245V231.801C296.245 232.958 296.04 233.873 295.629 234.545C295.219 235.217 294.64 235.693 293.893 235.973C293.147 236.253 292.288 236.393 291.317 236.393ZM296.245 216.093H293.221V212.873H296.245V216.093ZM304.841 231.913C303.534 231.913 302.452 231.652 301.593 231.129C300.734 230.606 300.09 229.906 299.661 229.029C299.232 228.152 299.017 227.172 299.017 226.089V217.717H302.013V225.277C302.013 226.565 302.33 227.545 302.965 228.217C303.618 228.87 304.682 229.197 306.157 229.197C307.706 229.197 308.836 228.814 309.545 228.049C310.273 227.265 310.637 226.117 310.637 224.605L311.169 224.577L311.337 227.321H310.693C310.562 228.105 310.264 228.842 309.797 229.533C309.33 230.224 308.686 230.793 307.865 231.241C307.062 231.689 306.054 231.913 304.841 231.913ZM313.661 231.633H310.889V227.265L310.637 227.125V217.717H313.661V231.633ZM322.54 231.913C321.066 231.913 319.815 231.614 318.788 231.017C317.78 230.401 317.015 229.552 316.492 228.469C315.97 227.368 315.708 226.108 315.708 224.689C315.708 223.233 315.97 221.964 316.492 220.881C317.015 219.798 317.771 218.958 318.76 218.361C319.75 217.745 320.944 217.437 322.344 217.437C323.987 217.437 325.284 217.82 326.236 218.585C327.188 219.35 327.804 220.321 328.084 221.497H328.784V224.605H328.252C328.252 223.13 327.832 222.029 326.992 221.301C326.152 220.554 324.958 220.181 323.408 220.181C322.456 220.181 321.626 220.33 320.916 220.629C320.207 220.909 319.666 221.376 319.292 222.029C318.938 222.682 318.76 223.569 318.76 224.689C318.76 225.79 318.938 226.668 319.292 227.321C319.666 227.974 320.207 228.441 320.916 228.721C321.626 229.001 322.475 229.141 323.464 229.141C324.454 229.141 325.303 228.992 326.012 228.693C326.74 228.376 327.291 227.89 327.664 227.237C328.056 226.584 328.252 225.781 328.252 224.829H328.784L328.98 227.629H328.308C328.028 229.01 327.384 230.074 326.376 230.821C325.387 231.549 324.108 231.913 322.54 231.913ZM331.276 231.633H328.504V227.265L328.252 226.901V212.873H331.276V231.633ZM341.38 236.673C339.999 236.673 338.786 236.458 337.74 236.029C336.695 235.618 335.874 235.021 335.276 234.237C334.698 233.453 334.408 232.501 334.408 231.381H337.404C337.404 232.053 337.544 232.594 337.824 233.005C338.104 233.416 338.543 233.705 339.14 233.873C339.756 234.06 340.559 234.153 341.548 234.153C342.612 234.153 343.452 234.032 344.068 233.789C344.703 233.565 345.16 233.164 345.44 232.585C345.72 232.006 345.86 231.204 345.86 230.177V222.029L346.084 221.833V217.717H348.856V230.009C348.856 231.558 348.548 232.818 347.932 233.789C347.316 234.778 346.448 235.506 345.328 235.973C344.208 236.44 342.892 236.673 341.38 236.673ZM340.12 230.373C338.739 230.373 337.554 230.102 336.564 229.561C335.594 229.02 334.838 228.264 334.296 227.293C333.774 226.322 333.512 225.193 333.512 223.905C333.512 222.617 333.783 221.488 334.324 220.517C334.884 219.546 335.668 218.79 336.676 218.249C337.703 217.708 338.916 217.437 340.316 217.437C341.772 217.437 343.004 217.764 344.012 218.417C345.039 219.052 345.674 219.976 345.916 221.189H346.56L346.392 223.625H345.86C345.86 222.841 345.674 222.188 345.3 221.665C344.927 221.124 344.395 220.722 343.704 220.461C343.014 220.2 342.174 220.069 341.184 220.069C340.232 220.069 339.402 220.19 338.692 220.433C338.002 220.676 337.47 221.077 337.096 221.637C336.742 222.178 336.564 222.934 336.564 223.905C336.564 224.857 336.742 225.613 337.096 226.173C337.451 226.733 337.964 227.144 338.636 227.405C339.327 227.648 340.148 227.769 341.1 227.769C342.631 227.769 343.807 227.452 344.628 226.817C345.45 226.182 345.86 225.249 345.86 224.017H346.392V226.761H345.664C345.422 227.825 344.834 228.693 343.9 229.365C342.967 230.037 341.707 230.373 340.12 230.373ZM358.654 231.913C357.142 231.913 355.817 231.633 354.678 231.073C353.54 230.513 352.653 229.692 352.018 228.609C351.402 227.526 351.094 226.22 351.094 224.689C351.094 223.233 351.402 221.964 352.018 220.881C352.653 219.798 353.53 218.958 354.65 218.361C355.77 217.745 357.086 217.437 358.598 217.437C360.036 217.437 361.296 217.698 362.378 218.221C363.48 218.725 364.329 219.472 364.926 220.461C365.542 221.432 365.85 222.626 365.85 224.045C365.85 224.288 365.841 224.521 365.822 224.745C365.804 224.95 365.776 225.156 365.738 225.361H353.026V223.681H363.75L362.966 224.717C362.985 224.53 362.994 224.353 362.994 224.185C362.994 223.998 362.994 223.812 362.994 223.625C362.994 222.337 362.621 221.385 361.874 220.769C361.146 220.134 360.036 219.817 358.542 219.817C356.881 219.817 355.696 220.2 354.986 220.965C354.277 221.73 353.922 222.832 353.922 224.269V224.997C353.922 226.453 354.277 227.564 354.986 228.329C355.696 229.094 356.89 229.477 358.57 229.477C360.026 229.477 361.072 229.253 361.706 228.805C362.36 228.338 362.686 227.694 362.686 226.873V226.649H365.71V226.901C365.71 227.89 365.402 228.768 364.786 229.533C364.189 230.28 363.358 230.868 362.294 231.297C361.249 231.708 360.036 231.913 358.654 231.913ZM375.14 236.393H373.152V233.649H375.868C376.484 233.649 376.942 233.546 377.24 233.341C377.558 233.154 377.819 232.828 378.024 232.361L378.892 230.485L378.556 232.025L371.5 217.717H374.888L378.444 225.109L379.816 228.441H380.04L381.356 225.081L384.632 217.717H387.964L380.712 233.145C380.339 233.966 379.9 234.61 379.396 235.077C378.892 235.562 378.295 235.898 377.604 236.085C376.914 236.29 376.092 236.393 375.14 236.393ZM396.555 231.913C395.025 231.913 393.671 231.614 392.495 231.017C391.338 230.401 390.433 229.552 389.779 228.469C389.145 227.368 388.827 226.108 388.827 224.689C388.827 223.233 389.145 221.964 389.779 220.881C390.433 219.798 391.338 218.958 392.495 218.361C393.671 217.745 395.025 217.437 396.555 217.437C398.123 217.437 399.486 217.745 400.643 218.361C401.801 218.958 402.697 219.798 403.331 220.881C403.985 221.964 404.311 223.233 404.311 224.689C404.311 226.108 403.985 227.368 403.331 228.469C402.697 229.552 401.801 230.401 400.643 231.017C399.486 231.614 398.123 231.913 396.555 231.913ZM396.555 229.225C398.254 229.225 399.477 228.842 400.223 228.077C400.97 227.293 401.343 226.164 401.343 224.689C401.343 223.214 400.97 222.085 400.223 221.301C399.477 220.498 398.254 220.097 396.555 220.097C394.875 220.097 393.662 220.498 392.915 221.301C392.169 222.085 391.795 223.214 391.795 224.689C391.795 226.164 392.169 227.293 392.915 228.077C393.662 228.842 394.875 229.225 396.555 229.225ZM412.302 231.913C410.995 231.913 409.913 231.652 409.054 231.129C408.195 230.606 407.551 229.906 407.122 229.029C406.693 228.152 406.478 227.172 406.478 226.089V217.717H409.474V225.277C409.474 226.565 409.791 227.545 410.426 228.217C411.079 228.87 412.143 229.197 413.618 229.197C415.167 229.197 416.297 228.814 417.006 228.049C417.734 227.265 418.098 226.117 418.098 224.605L418.63 224.577L418.798 227.321H418.154C418.023 228.105 417.725 228.842 417.258 229.533C416.791 230.224 416.147 230.793 415.326 231.241C414.523 231.689 413.515 231.913 412.302 231.913ZM421.122 231.633H418.35V227.265L418.098 227.125V217.717H421.122V231.633ZM431.678 231.633H428.654V217.717H431.678V231.633ZM431.678 216.093H428.654V212.873H431.678V216.093ZM438.567 231.633H435.543V218.473C435.543 217.297 435.795 216.298 436.299 215.477C436.821 214.637 437.577 213.993 438.567 213.545C439.556 213.097 440.76 212.873 442.179 212.873H443.551V215.113H441.703C440.508 215.113 439.64 215.337 439.099 215.785C438.557 216.214 438.38 217.036 438.567 218.249V218.809V231.633ZM443.551 220.237H433.443V217.717H443.551V220.237ZM452.25 236.393H450.262V233.649H452.978C453.594 233.649 454.051 233.546 454.35 233.341C454.667 233.154 454.929 232.828 455.134 232.361L456.002 230.485L455.666 232.025L448.61 217.717H451.998L455.554 225.109L456.926 228.441H457.15L458.466 225.081L461.742 217.717H465.074L457.822 233.145C457.449 233.966 457.01 234.61 456.506 235.077C456.002 235.562 455.405 235.898 454.714 236.085C454.023 236.29 453.202 236.393 452.25 236.393ZM473.665 231.913C472.134 231.913 470.781 231.614 469.605 231.017C468.447 230.401 467.542 229.552 466.889 228.469C466.254 227.368 465.937 226.108 465.937 224.689C465.937 223.233 466.254 221.964 466.889 220.881C467.542 219.798 468.447 218.958 469.605 218.361C470.781 217.745 472.134 217.437 473.665 217.437C475.233 217.437 476.595 217.745 477.753 218.361C478.91 218.958 479.806 219.798 480.441 220.881C481.094 221.964 481.421 223.233 481.421 224.689C481.421 226.108 481.094 227.368 480.441 228.469C479.806 229.552 478.91 230.401 477.753 231.017C476.595 231.614 475.233 231.913 473.665 231.913ZM473.665 229.225C475.363 229.225 476.586 228.842 477.333 228.077C478.079 227.293 478.453 226.164 478.453 224.689C478.453 223.214 478.079 222.085 477.333 221.301C476.586 220.498 475.363 220.097 473.665 220.097C471.985 220.097 470.771 220.498 470.025 221.301C469.278 222.085 468.905 223.214 468.905 224.689C468.905 226.164 469.278 227.293 470.025 228.077C470.771 228.842 471.985 229.225 473.665 229.225ZM489.411 231.913C488.105 231.913 487.022 231.652 486.163 231.129C485.305 230.606 484.661 229.906 484.231 229.029C483.802 228.152 483.587 227.172 483.587 226.089V217.717H486.583V225.277C486.583 226.565 486.901 227.545 487.535 228.217C488.189 228.87 489.253 229.197 490.727 229.197C492.277 229.197 493.406 228.814 494.115 228.049C494.843 227.265 495.207 226.117 495.207 224.605L495.739 224.577L495.907 227.321H495.263C495.133 228.105 494.834 228.842 494.367 229.533C493.901 230.224 493.257 230.793 492.435 231.241C491.633 231.689 490.625 231.913 489.411 231.913ZM498.231 231.633H495.459V227.265L495.207 227.125V217.717H498.231V231.633ZM504.003 231.633H500.979V217.717H503.751V221.665L504.003 221.805V231.633ZM504.003 223.821H503.331V221.469H503.947C504.077 220.704 504.339 220.022 504.731 219.425C505.123 218.809 505.645 218.324 506.299 217.969C506.971 217.614 507.783 217.437 508.735 217.437C509.799 217.437 510.667 217.661 511.339 218.109C512.011 218.557 512.496 219.154 512.795 219.901C513.112 220.648 513.271 221.46 513.271 222.337V224.157H510.275V222.925C510.275 221.917 510.051 221.18 509.603 220.713C509.155 220.246 508.408 220.013 507.363 220.013C506.168 220.013 505.309 220.34 504.787 220.993C504.264 221.646 504.003 222.589 504.003 223.821ZM533.115 231.633H530.343V228.049L530.147 227.965V223.205C530.147 222.048 529.867 221.245 529.307 220.797C528.766 220.33 527.823 220.097 526.479 220.097C525.191 220.097 524.23 220.321 523.595 220.769C522.961 221.217 522.643 221.954 522.643 222.981V223.093H519.647V222.981C519.647 221.917 519.927 220.974 520.487 220.153C521.047 219.313 521.85 218.65 522.895 218.165C523.959 217.68 525.229 217.437 526.703 217.437C528.178 217.437 529.382 217.689 530.315 218.193C531.267 218.678 531.967 219.35 532.415 220.209C532.882 221.068 533.115 222.057 533.115 223.177V231.633ZM524.043 231.913C522.606 231.913 521.458 231.596 520.599 230.961C519.759 230.308 519.339 229.412 519.339 228.273C519.339 227.545 519.517 226.938 519.871 226.453C520.245 225.949 520.767 225.557 521.439 225.277C522.111 224.997 522.905 224.801 523.819 224.689L530.427 223.989V225.781L524.687 226.425C523.903 226.518 523.315 226.686 522.923 226.929C522.55 227.153 522.363 227.536 522.363 228.077C522.363 228.637 522.559 229.057 522.951 229.337C523.362 229.598 523.997 229.729 524.855 229.729C525.919 229.729 526.843 229.598 527.627 229.337C528.411 229.057 529.027 228.628 529.475 228.049C529.923 227.47 530.147 226.724 530.147 225.809L530.539 225.865V228.161H530.147C529.774 229.337 529.055 230.261 527.991 230.933C526.946 231.586 525.63 231.913 524.043 231.913ZM542.395 231.913C540.155 231.913 538.419 231.484 537.187 230.625C535.973 229.766 535.367 228.534 535.367 226.929V226.845H538.391V227.069C538.391 227.984 538.689 228.618 539.287 228.973C539.903 229.309 540.939 229.477 542.395 229.477C543.757 229.477 544.681 229.337 545.167 229.057C545.671 228.758 545.923 228.301 545.923 227.685C545.923 227.106 545.727 226.696 545.335 226.453C544.961 226.21 544.271 226.024 543.263 225.893L539.455 225.389C538.129 225.221 537.093 224.848 536.347 224.269C535.6 223.672 535.227 222.785 535.227 221.609C535.227 220.788 535.469 220.069 535.955 219.453C536.44 218.818 537.168 218.324 538.139 217.969C539.109 217.614 540.304 217.437 541.723 217.437C543.141 217.437 544.355 217.624 545.363 217.997C546.389 218.37 547.173 218.93 547.715 219.677C548.275 220.424 548.555 221.348 548.555 222.449V222.533H545.559V222.365C545.559 221.824 545.447 221.366 545.223 220.993C544.999 220.62 544.597 220.34 544.019 220.153C543.459 219.948 542.665 219.845 541.639 219.845C540.351 219.845 539.455 219.994 538.951 220.293C538.447 220.592 538.195 221.068 538.195 221.721C538.195 222.262 538.381 222.654 538.755 222.897C539.128 223.14 539.828 223.336 540.855 223.485L544.075 223.933C545.717 224.138 546.931 224.54 547.715 225.137C548.499 225.734 548.891 226.612 548.891 227.769C548.891 228.628 548.62 229.374 548.079 230.009C547.537 230.625 546.781 231.101 545.811 231.437C544.84 231.754 543.701 231.913 542.395 231.913ZM559.92 231.913C558.371 231.913 557.102 231.53 556.112 230.765C555.123 230 554.488 228.982 554.208 227.713H553.564V224.913H554.096C554.096 225.846 554.292 226.64 554.684 227.293C555.076 227.928 555.627 228.404 556.336 228.721C557.064 229.02 557.914 229.169 558.884 229.169C559.892 229.169 560.742 229.029 561.432 228.749C562.142 228.45 562.683 227.974 563.056 227.321C563.43 226.668 563.616 225.79 563.616 224.689C563.616 223.569 563.43 222.682 563.056 222.029C562.683 221.376 562.142 220.909 561.432 220.629C560.742 220.349 559.911 220.209 558.94 220.209C557.391 220.209 556.196 220.582 555.356 221.329C554.516 222.057 554.096 223.168 554.096 224.661H553.564L553.368 221.581H554.096C554.376 220.293 555.002 219.285 555.972 218.557C556.962 217.81 558.268 217.437 559.892 217.437C561.33 217.437 562.552 217.745 563.56 218.361C564.568 218.958 565.334 219.798 565.856 220.881C566.379 221.964 566.64 223.233 566.64 224.689C566.64 226.108 566.379 227.368 565.856 228.469C565.352 229.552 564.596 230.401 563.588 231.017C562.599 231.614 561.376 231.913 559.92 231.913ZM554.096 236.393H551.072V217.717H553.844V222.085L554.096 222.449V236.393ZM571.76 231.633H568.736V217.717H571.76V231.633ZM571.76 216.093H568.736V212.873H571.76V216.093ZM577.585 231.633H574.561V217.717H577.333V221.665L577.585 221.805V231.633ZM577.585 223.821H576.913V221.469H577.529C577.659 220.704 577.921 220.022 578.313 219.425C578.705 218.809 579.227 218.324 579.881 217.969C580.553 217.614 581.365 217.437 582.317 217.437C583.381 217.437 584.249 217.661 584.921 218.109C585.593 218.557 586.078 219.154 586.377 219.901C586.694 220.648 586.853 221.46 586.853 222.337V224.157H583.857V222.925C583.857 221.917 583.633 221.18 583.185 220.713C582.737 220.246 581.99 220.013 580.945 220.013C579.75 220.013 578.891 220.34 578.369 220.993C577.846 221.646 577.585 222.589 577.585 223.821ZM601.912 231.633H599.14V228.049L598.944 227.965V223.205C598.944 222.048 598.664 221.245 598.104 220.797C597.563 220.33 596.62 220.097 595.276 220.097C593.988 220.097 593.027 220.321 592.392 220.769C591.757 221.217 591.44 221.954 591.44 222.981V223.093H588.444V222.981C588.444 221.917 588.724 220.974 589.284 220.153C589.844 219.313 590.647 218.65 591.692 218.165C592.756 217.68 594.025 217.437 595.5 217.437C596.975 217.437 598.179 217.689 599.112 218.193C600.064 218.678 600.764 219.35 601.212 220.209C601.679 221.068 601.912 222.057 601.912 223.177V231.633ZM592.84 231.913C591.403 231.913 590.255 231.596 589.396 230.961C588.556 230.308 588.136 229.412 588.136 228.273C588.136 227.545 588.313 226.938 588.668 226.453C589.041 225.949 589.564 225.557 590.236 225.277C590.908 224.997 591.701 224.801 592.616 224.689L599.224 223.989V225.781L593.484 226.425C592.7 226.518 592.112 226.686 591.72 226.929C591.347 227.153 591.16 227.536 591.16 228.077C591.16 228.637 591.356 229.057 591.748 229.337C592.159 229.598 592.793 229.729 593.652 229.729C594.716 229.729 595.64 229.598 596.424 229.337C597.208 229.057 597.824 228.628 598.272 228.049C598.72 227.47 598.944 226.724 598.944 225.809L599.336 225.865V228.161H598.944C598.571 229.337 597.852 230.261 596.788 230.933C595.743 231.586 594.427 231.913 592.84 231.913ZM613.739 231.633H610.547C609.054 231.633 607.869 231.269 606.991 230.541C606.133 229.813 605.703 228.609 605.703 226.929V214.665H608.699V226.761C608.699 227.62 608.905 228.198 609.315 228.497C609.726 228.777 610.361 228.917 611.219 228.917H613.739V231.633ZM613.739 220.237H603.351V217.717H613.739V220.237ZM618.655 231.633H615.631V217.717H618.655V231.633ZM618.655 216.093H615.631V212.873H618.655V216.093ZM628.567 231.913C627.037 231.913 625.683 231.614 624.507 231.017C623.35 230.401 622.445 229.552 621.791 228.469C621.157 227.368 620.839 226.108 620.839 224.689C620.839 223.233 621.157 221.964 621.791 220.881C622.445 219.798 623.35 218.958 624.507 218.361C625.683 217.745 627.037 217.437 628.567 217.437C630.135 217.437 631.498 217.745 632.655 218.361C633.813 218.958 634.709 219.798 635.343 220.881C635.997 221.964 636.323 223.233 636.323 224.689C636.323 226.108 635.997 227.368 635.343 228.469C634.709 229.552 633.813 230.401 632.655 231.017C631.498 231.614 630.135 231.913 628.567 231.913ZM628.567 229.225C630.266 229.225 631.489 228.842 632.235 228.077C632.982 227.293 633.355 226.164 633.355 224.689C633.355 223.214 632.982 222.085 632.235 221.301C631.489 220.498 630.266 220.097 628.567 220.097C626.887 220.097 625.674 220.498 624.927 221.301C624.181 222.085 623.807 223.214 623.807 224.689C623.807 226.164 624.181 227.293 624.927 228.077C625.674 228.842 626.887 229.225 628.567 229.225ZM653.05 231.633H650.026V224.073C650.026 222.766 649.708 221.786 649.074 221.133C648.458 220.48 647.422 220.153 645.966 220.153C644.454 220.153 643.334 220.545 642.606 221.329C641.896 222.094 641.542 223.233 641.542 224.745L641.01 224.773L640.87 222.029H641.486C641.635 221.245 641.934 220.508 642.382 219.817C642.848 219.108 643.483 218.538 644.286 218.109C645.107 217.661 646.106 217.437 647.282 217.437C648.57 217.437 649.643 217.698 650.502 218.221C651.36 218.744 651.995 219.444 652.406 220.321C652.835 221.198 653.05 222.178 653.05 223.261V231.633ZM641.542 231.633H638.518V217.717H641.29V222.085L641.542 222.225V231.633ZM663.553 231.633H660.529V217.717H663.553V231.633ZM663.553 216.093H660.529V212.873H663.553V216.093ZM672.934 231.913C670.694 231.913 668.958 231.484 667.726 230.625C666.512 229.766 665.906 228.534 665.906 226.929V226.845H668.93V227.069C668.93 227.984 669.228 228.618 669.826 228.973C670.442 229.309 671.478 229.477 672.934 229.477C674.296 229.477 675.22 229.337 675.706 229.057C676.21 228.758 676.462 228.301 676.462 227.685C676.462 227.106 676.266 226.696 675.874 226.453C675.5 226.21 674.81 226.024 673.802 225.893L669.994 225.389C668.668 225.221 667.632 224.848 666.886 224.269C666.139 223.672 665.766 222.785 665.766 221.609C665.766 220.788 666.008 220.069 666.494 219.453C666.979 218.818 667.707 218.324 668.678 217.969C669.648 217.614 670.843 217.437 672.262 217.437C673.68 217.437 674.894 217.624 675.902 217.997C676.928 218.37 677.712 218.93 678.254 219.677C678.814 220.424 679.094 221.348 679.094 222.449V222.533H676.098V222.365C676.098 221.824 675.986 221.366 675.762 220.993C675.538 220.62 675.136 220.34 674.558 220.153C673.998 219.948 673.204 219.845 672.178 219.845C670.89 219.845 669.994 219.994 669.49 220.293C668.986 220.592 668.734 221.068 668.734 221.721C668.734 222.262 668.92 222.654 669.294 222.897C669.667 223.14 670.367 223.336 671.394 223.485L674.614 223.933C676.256 224.138 677.47 224.54 678.254 225.137C679.038 225.734 679.43 226.612 679.43 227.769C679.43 228.628 679.159 229.374 678.618 230.009C678.076 230.625 677.32 231.101 676.35 231.437C675.379 231.754 674.24 231.913 672.934 231.913ZM61.2043 265.633H58.0123C56.5189 265.633 55.3336 265.269 54.4563 264.541C53.5976 263.813 53.1683 262.609 53.1683 260.929V248.665H56.1643V260.761C56.1643 261.62 56.3696 262.198 56.7803 262.497C57.1909 262.777 57.8256 262.917 58.6843 262.917H61.2043V265.633ZM61.2043 254.237H50.8163V251.717H61.2043V254.237ZM70.2078 265.913C68.6771 265.913 67.3238 265.614 66.1478 265.017C64.9905 264.401 64.0851 263.552 63.4318 262.469C62.7971 261.368 62.4798 260.108 62.4798 258.689C62.4798 257.233 62.7971 255.964 63.4318 254.881C64.0851 253.798 64.9905 252.958 66.1478 252.361C67.3238 251.745 68.6771 251.437 70.2078 251.437C71.7758 251.437 73.1385 251.745 74.2958 252.361C75.4531 252.958 76.3491 253.798 76.9838 254.881C77.6371 255.964 77.9638 257.233 77.9638 258.689C77.9638 260.108 77.6371 261.368 76.9838 262.469C76.3491 263.552 75.4531 264.401 74.2958 265.017C73.1385 265.614 71.7758 265.913 70.2078 265.913ZM70.2078 263.225C71.9065 263.225 73.1291 262.842 73.8758 262.077C74.6225 261.293 74.9958 260.164 74.9958 258.689C74.9958 257.214 74.6225 256.085 73.8758 255.301C73.1291 254.498 71.9065 254.097 70.2078 254.097C68.5278 254.097 67.3145 254.498 66.5678 255.301C65.8211 256.085 65.4478 257.214 65.4478 258.689C65.4478 260.164 65.8211 261.293 66.5678 262.077C67.3145 262.842 68.5278 263.225 70.2078 263.225ZM91.6075 265.633H87.8555L83.6835 251.717H86.8195L89.1435 259.613L89.7875 263.197H90.0115L91.0475 259.333L93.9595 251.717H97.8235L100.763 259.333L101.799 263.197H102.023L102.667 259.613L104.991 251.717H108.071L103.843 265.633H100.091L97.0395 257.625L95.9755 254.209H95.7515L94.6875 257.625L91.6075 265.633ZM116.72 265.913C115.189 265.913 113.836 265.614 112.66 265.017C111.502 264.401 110.597 263.552 109.944 262.469C109.309 261.368 108.992 260.108 108.992 258.689C108.992 257.233 109.309 255.964 109.944 254.881C110.597 253.798 111.502 252.958 112.66 252.361C113.836 251.745 115.189 251.437 116.72 251.437C118.288 251.437 119.65 251.745 120.808 252.361C121.965 252.958 122.861 253.798 123.496 254.881C124.149 255.964 124.476 257.233 124.476 258.689C124.476 260.108 124.149 261.368 123.496 262.469C122.861 263.552 121.965 264.401 120.808 265.017C119.65 265.614 118.288 265.913 116.72 265.913ZM116.72 263.225C118.418 263.225 119.641 262.842 120.388 262.077C121.134 261.293 121.508 260.164 121.508 258.689C121.508 257.214 121.134 256.085 120.388 255.301C119.641 254.498 118.418 254.097 116.72 254.097C115.04 254.097 113.826 254.498 113.08 255.301C112.333 256.085 111.96 257.214 111.96 258.689C111.96 260.164 112.333 261.293 113.08 262.077C113.826 262.842 115.04 263.225 116.72 263.225ZM129.694 265.633H126.67V251.717H129.442V255.665L129.694 255.805V265.633ZM129.694 257.821H129.022V255.469H129.638C129.769 254.704 130.03 254.022 130.422 253.425C130.814 252.809 131.337 252.324 131.99 251.969C132.662 251.614 133.474 251.437 134.426 251.437C135.49 251.437 136.358 251.661 137.03 252.109C137.702 252.557 138.187 253.154 138.486 253.901C138.803 254.648 138.962 255.46 138.962 256.337V258.157H135.966V256.925C135.966 255.917 135.742 255.18 135.294 254.713C134.846 254.246 134.099 254.013 133.054 254.013C131.859 254.013 131.001 254.34 130.478 254.993C129.955 255.646 129.694 256.589 129.694 257.821ZM155.533 265.633H151.977L147.861 259.949H142.541V257.233H147.861L152.033 251.717H155.561L150.325 258.409L155.533 265.633ZM143.885 265.633H140.861V246.873H143.885V265.633ZM174.994 265.633H172.222V262.049L172.026 261.965V257.205C172.026 256.048 171.746 255.245 171.186 254.797C170.645 254.33 169.702 254.097 168.358 254.097C167.07 254.097 166.109 254.321 165.474 254.769C164.839 255.217 164.522 255.954 164.522 256.981V257.093H161.526V256.981C161.526 255.917 161.806 254.974 162.366 254.153C162.926 253.313 163.729 252.65 164.774 252.165C165.838 251.68 167.107 251.437 168.582 251.437C170.057 251.437 171.261 251.689 172.194 252.193C173.146 252.678 173.846 253.35 174.294 254.209C174.761 255.068 174.994 256.057 174.994 257.177V265.633ZM165.922 265.913C164.485 265.913 163.337 265.596 162.478 264.961C161.638 264.308 161.218 263.412 161.218 262.273C161.218 261.545 161.395 260.938 161.75 260.453C162.123 259.949 162.646 259.557 163.318 259.277C163.99 258.997 164.783 258.801 165.698 258.689L172.306 257.989V259.781L166.566 260.425C165.782 260.518 165.194 260.686 164.802 260.929C164.429 261.153 164.242 261.536 164.242 262.077C164.242 262.637 164.438 263.057 164.83 263.337C165.241 263.598 165.875 263.729 166.734 263.729C167.798 263.729 168.722 263.598 169.506 263.337C170.29 263.057 170.906 262.628 171.354 262.049C171.802 261.47 172.026 260.724 172.026 259.809L172.418 259.865V262.161H172.026C171.653 263.337 170.934 264.261 169.87 264.933C168.825 265.586 167.509 265.913 165.922 265.913ZM186.821 265.633H183.629C182.136 265.633 180.951 265.269 180.073 264.541C179.215 263.813 178.785 262.609 178.785 260.929V248.665H181.781V260.761C181.781 261.62 181.987 262.198 182.397 262.497C182.808 262.777 183.443 262.917 184.301 262.917H186.821V265.633ZM186.821 254.237H176.433V251.717H186.821V254.237ZM202.206 265.633H194.646V262.917H202.206C203.662 262.917 204.847 262.702 205.762 262.273C206.695 261.825 207.386 261.116 207.834 260.145C208.282 259.156 208.506 257.858 208.506 256.253C208.506 254.629 208.282 253.332 207.834 252.361C207.386 251.39 206.695 250.69 205.762 250.261C204.847 249.813 203.662 249.589 202.206 249.589H194.646V246.873H202.206C204.166 246.873 205.846 247.256 207.246 248.021C208.665 248.768 209.757 249.841 210.522 251.241C211.306 252.641 211.698 254.312 211.698 256.253C211.698 258.194 211.306 259.865 210.522 261.265C209.757 262.665 208.665 263.748 207.246 264.513C205.846 265.26 204.166 265.633 202.206 265.633ZM196.662 265.633H193.666V246.873H196.662V265.633ZM221.063 265.913C219.533 265.913 218.179 265.614 217.003 265.017C215.846 264.401 214.941 263.552 214.287 262.469C213.653 261.368 213.335 260.108 213.335 258.689C213.335 257.233 213.653 255.964 214.287 254.881C214.941 253.798 215.846 252.958 217.003 252.361C218.179 251.745 219.533 251.437 221.063 251.437C222.631 251.437 223.994 251.745 225.151 252.361C226.309 252.958 227.205 253.798 227.839 254.881C228.493 255.964 228.819 257.233 228.819 258.689C228.819 260.108 228.493 261.368 227.839 262.469C227.205 263.552 226.309 264.401 225.151 265.017C223.994 265.614 222.631 265.913 221.063 265.913ZM221.063 263.225C222.762 263.225 223.985 262.842 224.731 262.077C225.478 261.293 225.851 260.164 225.851 258.689C225.851 257.214 225.478 256.085 224.731 255.301C223.985 254.498 222.762 254.097 221.063 254.097C219.383 254.097 218.17 254.498 217.423 255.301C216.677 256.085 216.303 257.214 216.303 258.689C216.303 260.164 216.677 261.293 217.423 262.077C218.17 262.842 219.383 263.225 221.063 263.225ZM255.626 265.633H252.63V258.073C252.63 256.692 252.34 255.693 251.762 255.077C251.183 254.461 250.212 254.153 248.85 254.153C247.375 254.153 246.33 254.536 245.714 255.301C245.116 256.048 244.818 257.196 244.818 258.745L244.286 258.773L244.118 256.029H244.734C244.864 255.226 245.135 254.48 245.546 253.789C245.956 253.098 246.544 252.538 247.31 252.109C248.075 251.661 249.036 251.437 250.194 251.437C251.407 251.437 252.415 251.689 253.218 252.193C254.02 252.697 254.618 253.388 255.01 254.265C255.42 255.142 255.626 256.141 255.626 257.261V265.633ZM234.038 265.633H231.014V251.717H233.786V256.085L234.038 256.225V265.633ZM244.818 265.633H241.822V258.073C241.822 256.692 241.532 255.693 240.954 255.077C240.375 254.461 239.414 254.153 238.07 254.153C236.576 254.153 235.531 254.536 234.934 255.301C234.336 256.048 234.038 257.196 234.038 258.745L233.506 258.773L233.366 255.917H233.954C234.084 255.133 234.346 254.405 234.738 253.733C235.13 253.061 235.699 252.51 236.446 252.081C237.192 251.652 238.144 251.437 239.302 251.437C240.515 251.437 241.514 251.698 242.298 252.221C243.082 252.725 243.67 253.416 244.062 254.293C244.454 255.17 244.65 256.16 244.65 257.261H244.818V265.633ZM261.354 265.633H258.33V251.717H261.354V265.633ZM261.354 250.093H258.33V246.873H261.354V250.093ZM278.686 265.633H275.662V258.073C275.662 256.766 275.345 255.786 274.71 255.133C274.094 254.48 273.058 254.153 271.602 254.153C270.09 254.153 268.97 254.545 268.242 255.329C267.533 256.094 267.178 257.233 267.178 258.745L266.646 258.773L266.506 256.029H267.122C267.272 255.245 267.57 254.508 268.018 253.817C268.485 253.108 269.12 252.538 269.922 252.109C270.744 251.661 271.742 251.437 272.918 251.437C274.206 251.437 275.28 251.698 276.138 252.221C276.997 252.744 277.632 253.444 278.042 254.321C278.472 255.198 278.686 256.178 278.686 257.261V265.633ZM267.178 265.633H264.154V251.717H266.926V256.085L267.178 256.225V265.633ZM288.493 265.913C286.962 265.913 285.609 265.614 284.433 265.017C283.276 264.401 282.37 263.552 281.717 262.469C281.082 261.368 280.765 260.108 280.765 258.689C280.765 257.233 281.082 255.964 281.717 254.881C282.37 253.798 283.276 252.958 284.433 252.361C285.609 251.745 286.962 251.437 288.493 251.437C290.061 251.437 291.424 251.745 292.581 252.361C293.738 252.958 294.634 253.798 295.269 254.881C295.922 255.964 296.249 257.233 296.249 258.689C296.249 260.108 295.922 261.368 295.269 262.469C294.634 263.552 293.738 264.401 292.581 265.017C291.424 265.614 290.061 265.913 288.493 265.913ZM288.493 263.225C290.192 263.225 291.414 262.842 292.161 262.077C292.908 261.293 293.281 260.164 293.281 258.689C293.281 257.214 292.908 256.085 292.161 255.301C291.414 254.498 290.192 254.097 288.493 254.097C286.813 254.097 285.6 254.498 284.853 255.301C284.106 256.085 283.733 257.214 283.733 258.689C283.733 260.164 284.106 261.293 284.853 262.077C285.6 262.842 286.813 263.225 288.493 263.225ZM301.691 251.213H297.883V246.873H301.691V251.213ZM298.947 254.377H297.939V252.529H298.863C299.106 252.529 299.283 252.482 299.395 252.389C299.507 252.296 299.563 252.1 299.563 251.801V250.569H301.691V251.773C301.691 252.65 301.449 253.304 300.963 253.733C300.497 254.162 299.825 254.377 298.947 254.377ZM310.52 265.913C308.28 265.913 306.544 265.484 305.312 264.625C304.098 263.766 303.492 262.534 303.492 260.929V260.845H306.516V261.069C306.516 261.984 306.814 262.618 307.412 262.973C308.028 263.309 309.064 263.477 310.52 263.477C311.882 263.477 312.806 263.337 313.292 263.057C313.796 262.758 314.048 262.301 314.048 261.685C314.048 261.106 313.852 260.696 313.46 260.453C313.086 260.21 312.396 260.024 311.388 259.893L307.58 259.389C306.254 259.221 305.218 258.848 304.472 258.269C303.725 257.672 303.352 256.785 303.352 255.609C303.352 254.788 303.594 254.069 304.08 253.453C304.565 252.818 305.293 252.324 306.264 251.969C307.234 251.614 308.429 251.437 309.848 251.437C311.266 251.437 312.48 251.624 313.488 251.997C314.514 252.37 315.298 252.93 315.84 253.677C316.4 254.424 316.68 255.348 316.68 256.449V256.533H313.684V256.365C313.684 255.824 313.572 255.366 313.348 254.993C313.124 254.62 312.722 254.34 312.144 254.153C311.584 253.948 310.79 253.845 309.764 253.845C308.476 253.845 307.58 253.994 307.076 254.293C306.572 254.592 306.32 255.068 306.32 255.721C306.32 256.262 306.506 256.654 306.88 256.897C307.253 257.14 307.953 257.336 308.98 257.485L312.2 257.933C313.842 258.138 315.056 258.54 315.84 259.137C316.624 259.734 317.016 260.612 317.016 261.769C317.016 262.628 316.745 263.374 316.204 264.009C315.662 264.625 314.906 265.101 313.936 265.437C312.965 265.754 311.826 265.913 310.52 265.913ZM322.445 265.633H318.637V261.293H322.445V265.633Z" fill="white"/>
</svg>
