<svg width="546" height="727" viewBox="0 0 546 727" fill="none" xmlns="http://www.w3.org/2000/svg">
<rect x="1" y="1" width="544" height="725" rx="31" fill="black" stroke="white" stroke-width="2"/>
<path d="M36.9592 309.341H33.9352V290.581H36.9592V309.341ZM53.6725 309.341H50.4805C48.9872 309.341 47.8019 308.977 46.9245 308.249C46.0659 307.521 45.6365 306.317 45.6365 304.637V292.373H48.6325V304.469C48.6325 305.328 48.8379 305.906 49.2485 306.205C49.6592 306.485 50.2939 306.625 51.1525 306.625H53.6725V309.341ZM53.6725 297.945H43.2845V295.425H53.6725V297.945ZM70.2081 309.341H67.2121V301.781C67.2121 300.381 66.8854 299.382 66.2321 298.785C65.5787 298.169 64.5241 297.861 63.0681 297.861C61.9667 297.861 61.0894 298.057 60.4361 298.449C59.7827 298.822 59.3067 299.364 59.0081 300.073C58.7281 300.764 58.5881 301.604 58.5881 302.593L58.0001 302.621L58.1401 299.681H58.7561C58.9241 298.897 59.2227 298.16 59.6521 297.469C60.1001 296.778 60.7254 296.218 61.5281 295.789C62.3307 295.36 63.3201 295.145 64.4961 295.145C65.7654 295.145 66.8201 295.406 67.6601 295.929C68.5187 296.433 69.1534 297.133 69.5641 298.029C69.9934 298.906 70.2081 299.914 70.2081 301.053V309.341ZM58.5881 309.341H55.5641V290.581H58.5881V309.341ZM75.9513 309.341H72.9273V295.425H75.9513V309.341ZM75.9513 293.801H72.9273V290.581H75.9513V293.801ZM93.2836 309.341H90.2596V301.781C90.2596 300.474 89.9422 299.494 89.3076 298.841C88.6916 298.188 87.6556 297.861 86.1996 297.861C84.6876 297.861 83.5676 298.253 82.8396 299.037C82.1302 299.802 81.7756 300.941 81.7756 302.453L81.2436 302.481L81.1036 299.737H81.7196C81.8689 298.953 82.1676 298.216 82.6156 297.525C83.0822 296.816 83.7169 296.246 84.5196 295.817C85.3409 295.369 86.3396 295.145 87.5156 295.145C88.8036 295.145 89.8769 295.406 90.7356 295.929C91.5942 296.452 92.2289 297.152 92.6396 298.029C93.0689 298.906 93.2836 299.886 93.2836 300.969V309.341ZM81.7756 309.341H78.7516V295.425H81.5236V299.793L81.7756 299.933V309.341ZM110.65 309.341H107.094L102.978 303.657H97.6581V300.941H102.978L107.15 295.425H110.678L105.442 302.117L110.65 309.341ZM99.0021 309.341H95.9781V290.581H99.0021V309.341ZM119.191 314.101H117.203V311.357H119.919C120.535 311.357 120.992 311.254 121.291 311.049C121.608 310.862 121.869 310.536 122.075 310.069L122.943 308.193L122.607 309.733L115.551 295.425H118.939L122.495 302.817L123.867 306.149H124.091L125.407 302.789L128.683 295.425H132.015L124.763 310.853C124.389 311.674 123.951 312.318 123.447 312.785C122.943 313.27 122.345 313.606 121.655 313.793C120.964 313.998 120.143 314.101 119.191 314.101ZM140.606 309.621C139.075 309.621 137.722 309.322 136.546 308.725C135.388 308.109 134.483 307.26 133.83 306.177C133.195 305.076 132.878 303.816 132.878 302.397C132.878 300.941 133.195 299.672 133.83 298.589C134.483 297.506 135.388 296.666 136.546 296.069C137.722 295.453 139.075 295.145 140.606 295.145C142.174 295.145 143.536 295.453 144.694 296.069C145.851 296.666 146.747 297.506 147.382 298.589C148.035 299.672 148.362 300.941 148.362 302.397C148.362 303.816 148.035 305.076 147.382 306.177C146.747 307.26 145.851 308.109 144.694 308.725C143.536 309.322 142.174 309.621 140.606 309.621ZM140.606 306.933C142.304 306.933 143.527 306.55 144.274 305.785C145.02 305.001 145.394 303.872 145.394 302.397C145.394 300.922 145.02 299.793 144.274 299.009C143.527 298.206 142.304 297.805 140.606 297.805C138.926 297.805 137.712 298.206 136.966 299.009C136.219 299.793 135.846 300.922 135.846 302.397C135.846 303.872 136.219 305.001 136.966 305.785C137.712 306.55 138.926 306.933 140.606 306.933ZM156.352 309.621C155.046 309.621 153.963 309.36 153.104 308.837C152.246 308.314 151.602 307.614 151.172 306.737C150.743 305.86 150.528 304.88 150.528 303.797V295.425H153.524V302.985C153.524 304.273 153.842 305.253 154.476 305.925C155.13 306.578 156.194 306.905 157.668 306.905C159.218 306.905 160.347 306.522 161.056 305.757C161.784 304.973 162.148 303.825 162.148 302.313L162.68 302.285L162.848 305.029H162.204C162.074 305.813 161.775 306.55 161.308 307.241C160.842 307.932 160.198 308.501 159.376 308.949C158.574 309.397 157.566 309.621 156.352 309.621ZM165.172 309.341H162.4V304.973L162.148 304.833V295.425H165.172V309.341ZM175.729 309.341H172.705V290.581H175.729V309.341ZM191.689 309.341H188.917V305.757L188.721 305.673V300.913C188.721 299.756 188.441 298.953 187.881 298.505C187.34 298.038 186.397 297.805 185.053 297.805C183.765 297.805 182.804 298.029 182.169 298.477C181.534 298.925 181.217 299.662 181.217 300.689V300.801H178.221V300.689C178.221 299.625 178.501 298.682 179.061 297.861C179.621 297.021 180.424 296.358 181.469 295.873C182.533 295.388 183.802 295.145 185.277 295.145C186.752 295.145 187.956 295.397 188.889 295.901C189.841 296.386 190.541 297.058 190.989 297.917C191.456 298.776 191.689 299.765 191.689 300.885V309.341ZM182.617 309.621C181.18 309.621 180.032 309.304 179.173 308.669C178.333 308.016 177.913 307.12 177.913 305.981C177.913 305.253 178.09 304.646 178.445 304.161C178.818 303.657 179.341 303.265 180.013 302.985C180.685 302.705 181.478 302.509 182.393 302.397L189.001 301.697V303.489L183.261 304.133C182.477 304.226 181.889 304.394 181.497 304.637C181.124 304.861 180.937 305.244 180.937 305.785C180.937 306.345 181.133 306.765 181.525 307.045C181.936 307.306 182.57 307.437 183.429 307.437C184.493 307.437 185.417 307.306 186.201 307.045C186.985 306.765 187.601 306.336 188.049 305.757C188.497 305.178 188.721 304.432 188.721 303.517L189.113 303.573V305.869H188.721C188.348 307.045 187.629 307.969 186.565 308.641C185.52 309.294 184.204 309.621 182.617 309.621ZM200.184 309.621C198.878 309.621 197.795 309.36 196.936 308.837C196.078 308.314 195.434 307.614 195.004 306.737C194.575 305.86 194.36 304.88 194.36 303.797V295.425H197.356V302.985C197.356 304.273 197.674 305.253 198.308 305.925C198.962 306.578 200.026 306.905 201.5 306.905C203.05 306.905 204.179 306.522 204.888 305.757C205.616 304.973 205.98 303.825 205.98 302.313L206.512 302.285L206.68 305.029H206.036C205.906 305.813 205.607 306.55 205.14 307.241C204.674 307.932 204.03 308.501 203.208 308.949C202.406 309.397 201.398 309.621 200.184 309.621ZM209.004 309.341H206.232V304.973L205.98 304.833V295.425H209.004V309.341ZM219.06 314.381C217.678 314.381 216.465 314.166 215.42 313.737C214.374 313.326 213.553 312.729 212.956 311.945C212.377 311.161 212.088 310.209 212.088 309.089H215.084C215.084 309.761 215.224 310.302 215.504 310.713C215.784 311.124 216.222 311.413 216.82 311.581C217.436 311.768 218.238 311.861 219.228 311.861C220.292 311.861 221.132 311.74 221.748 311.497C222.382 311.273 222.84 310.872 223.12 310.293C223.4 309.714 223.54 308.912 223.54 307.885V299.737L223.764 299.541V295.425H226.536V307.717C226.536 309.266 226.228 310.526 225.612 311.497C224.996 312.486 224.128 313.214 223.008 313.681C221.888 314.148 220.572 314.381 219.06 314.381ZM217.8 308.081C216.418 308.081 215.233 307.81 214.244 307.269C213.273 306.728 212.517 305.972 211.976 305.001C211.453 304.03 211.192 302.901 211.192 301.613C211.192 300.325 211.462 299.196 212.004 298.225C212.564 297.254 213.348 296.498 214.356 295.957C215.382 295.416 216.596 295.145 217.996 295.145C219.452 295.145 220.684 295.472 221.692 296.125C222.718 296.76 223.353 297.684 223.596 298.897H224.24L224.072 301.333H223.54C223.54 300.549 223.353 299.896 222.98 299.373C222.606 298.832 222.074 298.43 221.384 298.169C220.693 297.908 219.853 297.777 218.864 297.777C217.912 297.777 217.081 297.898 216.372 298.141C215.681 298.384 215.149 298.785 214.776 299.345C214.421 299.886 214.244 300.642 214.244 301.613C214.244 302.565 214.421 303.321 214.776 303.881C215.13 304.441 215.644 304.852 216.316 305.113C217.006 305.356 217.828 305.477 218.78 305.477C220.31 305.477 221.486 305.16 222.308 304.525C223.129 303.89 223.54 302.957 223.54 301.725H224.072V304.469H223.344C223.101 305.533 222.513 306.401 221.58 307.073C220.646 307.745 219.386 308.081 217.8 308.081ZM243.978 309.341H240.982V301.781C240.982 300.381 240.655 299.382 240.002 298.785C239.348 298.169 238.294 297.861 236.838 297.861C235.736 297.861 234.859 298.057 234.206 298.449C233.552 298.822 233.076 299.364 232.778 300.073C232.498 300.764 232.358 301.604 232.358 302.593L231.77 302.621L231.91 299.681H232.526C232.694 298.897 232.992 298.16 233.422 297.469C233.87 296.778 234.495 296.218 235.298 295.789C236.1 295.36 237.09 295.145 238.266 295.145C239.535 295.145 240.59 295.406 241.43 295.929C242.288 296.433 242.923 297.133 243.334 298.029C243.763 298.906 243.978 299.914 243.978 301.053V309.341ZM232.358 309.341H229.334V290.581H232.358V309.341ZM253.697 309.621C252.185 309.621 250.86 309.341 249.721 308.781C248.582 308.221 247.696 307.4 247.061 306.317C246.445 305.234 246.137 303.928 246.137 302.397C246.137 300.941 246.445 299.672 247.061 298.589C247.696 297.506 248.573 296.666 249.693 296.069C250.813 295.453 252.129 295.145 253.641 295.145C255.078 295.145 256.338 295.406 257.421 295.929C258.522 296.433 259.372 297.18 259.969 298.169C260.585 299.14 260.893 300.334 260.893 301.753C260.893 301.996 260.884 302.229 260.865 302.453C260.846 302.658 260.818 302.864 260.781 303.069H248.069V301.389H258.793L258.009 302.425C258.028 302.238 258.037 302.061 258.037 301.893C258.037 301.706 258.037 301.52 258.037 301.333C258.037 300.045 257.664 299.093 256.917 298.477C256.189 297.842 255.078 297.525 253.585 297.525C251.924 297.525 250.738 297.908 250.029 298.673C249.32 299.438 248.965 300.54 248.965 301.977V302.705C248.965 304.161 249.32 305.272 250.029 306.037C250.738 306.802 251.933 307.185 253.613 307.185C255.069 307.185 256.114 306.961 256.749 306.513C257.402 306.046 257.729 305.402 257.729 304.581V304.357H260.753V304.609C260.753 305.598 260.445 306.476 259.829 307.241C259.232 307.988 258.401 308.576 257.337 309.005C256.292 309.416 255.078 309.621 253.697 309.621ZM269.29 309.621C267.815 309.621 266.564 309.322 265.538 308.725C264.53 308.109 263.764 307.26 263.242 306.177C262.719 305.076 262.458 303.816 262.458 302.397C262.458 300.941 262.719 299.672 263.242 298.589C263.764 297.506 264.52 296.666 265.51 296.069C266.499 295.453 267.694 295.145 269.094 295.145C270.736 295.145 272.034 295.528 272.986 296.293C273.938 297.058 274.554 298.029 274.834 299.205H275.534V302.313H275.002C275.002 300.838 274.582 299.737 273.742 299.009C272.902 298.262 271.707 297.889 270.158 297.889C269.206 297.889 268.375 298.038 267.666 298.337C266.956 298.617 266.415 299.084 266.042 299.737C265.687 300.39 265.51 301.277 265.51 302.397C265.51 303.498 265.687 304.376 266.042 305.029C266.415 305.682 266.956 306.149 267.666 306.429C268.375 306.709 269.224 306.849 270.214 306.849C271.203 306.849 272.052 306.7 272.762 306.401C273.49 306.084 274.04 305.598 274.414 304.945C274.806 304.292 275.002 303.489 275.002 302.537H275.534L275.73 305.337H275.058C274.778 306.718 274.134 307.782 273.126 308.529C272.136 309.257 270.858 309.621 269.29 309.621ZM278.026 309.341H275.254V304.973L275.002 304.609V290.581H278.026V309.341ZM294.735 309.341H291.543C290.05 309.341 288.864 308.977 287.987 308.249C287.128 307.521 286.699 306.317 286.699 304.637V292.373H289.695V304.469C289.695 305.328 289.9 305.906 290.311 306.205C290.722 306.485 291.356 306.625 292.215 306.625H294.735V309.341ZM294.735 297.945H284.347V295.425H294.735V297.945ZM303.739 309.621C302.208 309.621 300.855 309.322 299.679 308.725C298.521 308.109 297.616 307.26 296.963 306.177C296.328 305.076 296.011 303.816 296.011 302.397C296.011 300.941 296.328 299.672 296.963 298.589C297.616 297.506 298.521 296.666 299.679 296.069C300.855 295.453 302.208 295.145 303.739 295.145C305.307 295.145 306.669 295.453 307.827 296.069C308.984 296.666 309.88 297.506 310.515 298.589C311.168 299.672 311.495 300.941 311.495 302.397C311.495 303.816 311.168 305.076 310.515 306.177C309.88 307.26 308.984 308.109 307.827 308.725C306.669 309.322 305.307 309.621 303.739 309.621ZM303.739 306.933C305.437 306.933 306.66 306.55 307.407 305.785C308.153 305.001 308.527 303.872 308.527 302.397C308.527 300.922 308.153 299.793 307.407 299.009C306.66 298.206 305.437 297.805 303.739 297.805C302.059 297.805 300.845 298.206 300.099 299.009C299.352 299.793 298.979 300.922 298.979 302.397C298.979 303.872 299.352 305.001 300.099 305.785C300.845 306.55 302.059 306.933 303.739 306.933ZM320.801 309.621C319.27 309.621 317.917 309.322 316.741 308.725C315.584 308.109 314.678 307.26 314.025 306.177C313.39 305.076 313.073 303.816 313.073 302.397C313.073 300.941 313.39 299.672 314.025 298.589C314.678 297.506 315.584 296.666 316.741 296.069C317.917 295.453 319.27 295.145 320.801 295.145C322.369 295.145 323.732 295.453 324.889 296.069C326.046 296.666 326.942 297.506 327.577 298.589C328.23 299.672 328.557 300.941 328.557 302.397C328.557 303.816 328.23 305.076 327.577 306.177C326.942 307.26 326.046 308.109 324.889 308.725C323.732 309.322 322.369 309.621 320.801 309.621ZM320.801 306.933C322.5 306.933 323.722 306.55 324.469 305.785C325.216 305.001 325.589 303.872 325.589 302.397C325.589 300.922 325.216 299.793 324.469 299.009C323.722 298.206 322.5 297.805 320.801 297.805C319.121 297.805 317.908 298.206 317.161 299.009C316.414 299.793 316.041 300.922 316.041 302.397C316.041 303.872 316.414 305.001 317.161 305.785C317.908 306.55 319.121 306.933 320.801 306.933ZM360.149 309.341H357.153V301.781C357.153 300.4 356.863 299.401 356.285 298.785C355.706 298.169 354.735 297.861 353.373 297.861C351.898 297.861 350.853 298.244 350.237 299.009C349.639 299.756 349.341 300.904 349.341 302.453L348.809 302.481L348.641 299.737H349.257C349.387 298.934 349.658 298.188 350.069 297.497C350.479 296.806 351.067 296.246 351.833 295.817C352.598 295.369 353.559 295.145 354.717 295.145C355.93 295.145 356.938 295.397 357.741 295.901C358.543 296.405 359.141 297.096 359.533 297.973C359.943 298.85 360.149 299.849 360.149 300.969V309.341ZM338.561 309.341H335.537V295.425H338.309V299.793L338.561 299.933V309.341ZM349.341 309.341H346.345V301.781C346.345 300.4 346.055 299.401 345.477 298.785C344.898 298.169 343.937 297.861 342.593 297.861C341.099 297.861 340.054 298.244 339.457 299.009C338.859 299.756 338.561 300.904 338.561 302.453L338.029 302.481L337.889 299.625H338.477C338.607 298.841 338.869 298.113 339.261 297.441C339.653 296.769 340.222 296.218 340.969 295.789C341.715 295.36 342.667 295.145 343.825 295.145C345.038 295.145 346.037 295.406 346.821 295.929C347.605 296.433 348.193 297.124 348.585 298.001C348.977 298.878 349.173 299.868 349.173 300.969H349.341V309.341ZM368.649 309.621C367.342 309.621 366.26 309.36 365.401 308.837C364.542 308.314 363.898 307.614 363.469 306.737C363.04 305.86 362.825 304.88 362.825 303.797V295.425H365.821V302.985C365.821 304.273 366.138 305.253 366.773 305.925C367.426 306.578 368.49 306.905 369.965 306.905C371.514 306.905 372.644 306.522 373.353 305.757C374.081 304.973 374.445 303.825 374.445 302.313L374.977 302.285L375.145 305.029H374.501C374.37 305.813 374.072 306.55 373.605 307.241C373.138 307.932 372.494 308.501 371.673 308.949C370.87 309.397 369.862 309.621 368.649 309.621ZM377.469 309.341H374.697V304.973L374.445 304.833V295.425H377.469V309.341ZM387.244 309.621C385.714 309.621 384.379 309.322 383.24 308.725C382.102 308.109 381.215 307.26 380.58 306.177C379.964 305.076 379.656 303.816 379.656 302.397C379.656 300.941 379.964 299.672 380.58 298.589C381.215 297.506 382.102 296.666 383.24 296.069C384.379 295.453 385.714 295.145 387.244 295.145C388.644 295.145 389.886 295.388 390.968 295.873C392.051 296.358 392.9 297.04 393.516 297.917C394.151 298.776 394.468 299.793 394.468 300.969V301.249H391.472V301.081C391.472 299.998 391.099 299.196 390.352 298.673C389.606 298.132 388.551 297.861 387.188 297.861C385.62 297.861 384.472 298.244 383.744 299.009C383.016 299.756 382.652 300.885 382.652 302.397C382.652 303.89 383.016 305.02 383.744 305.785C384.472 306.532 385.62 306.905 387.188 306.905C388.551 306.905 389.606 306.644 390.352 306.121C391.099 305.58 391.472 304.768 391.472 303.685V303.489H394.468V303.797C394.468 304.954 394.151 305.972 393.516 306.849C392.9 307.726 392.051 308.408 390.968 308.893C389.886 309.378 388.644 309.621 387.244 309.621ZM411.349 309.341H408.353V301.781C408.353 300.381 408.026 299.382 407.373 298.785C406.719 298.169 405.665 297.861 404.209 297.861C403.107 297.861 402.23 298.057 401.577 298.449C400.923 298.822 400.447 299.364 400.149 300.073C399.869 300.764 399.729 301.604 399.729 302.593L399.141 302.621L399.281 299.681H399.897C400.065 298.897 400.363 298.16 400.793 297.469C401.241 296.778 401.866 296.218 402.669 295.789C403.471 295.36 404.461 295.145 405.637 295.145C406.906 295.145 407.961 295.406 408.801 295.929C409.659 296.433 410.294 297.133 410.705 298.029C411.134 298.906 411.349 299.914 411.349 301.053V309.341ZM399.729 309.341H396.705V290.581H399.729V309.341ZM432.013 309.341H429.241V305.757L429.045 305.673V300.913C429.045 299.756 428.765 298.953 428.205 298.505C427.664 298.038 426.721 297.805 425.377 297.805C424.089 297.805 423.128 298.029 422.493 298.477C421.858 298.925 421.541 299.662 421.541 300.689V300.801H418.545V300.689C418.545 299.625 418.825 298.682 419.385 297.861C419.945 297.021 420.748 296.358 421.793 295.873C422.857 295.388 424.126 295.145 425.601 295.145C427.076 295.145 428.28 295.397 429.213 295.901C430.165 296.386 430.865 297.058 431.313 297.917C431.78 298.776 432.013 299.765 432.013 300.885V309.341ZM422.941 309.621C421.504 309.621 420.356 309.304 419.497 308.669C418.657 308.016 418.237 307.12 418.237 305.981C418.237 305.253 418.414 304.646 418.769 304.161C419.142 303.657 419.665 303.265 420.337 302.985C421.009 302.705 421.802 302.509 422.717 302.397L429.325 301.697V303.489L423.585 304.133C422.801 304.226 422.213 304.394 421.821 304.637C421.448 304.861 421.261 305.244 421.261 305.785C421.261 306.345 421.457 306.765 421.849 307.045C422.26 307.306 422.894 307.437 423.753 307.437C424.817 307.437 425.741 307.306 426.525 307.045C427.309 306.765 427.925 306.336 428.373 305.757C428.821 305.178 429.045 304.432 429.045 303.517L429.437 303.573V305.869H429.045C428.672 307.045 427.953 307.969 426.889 308.641C425.844 309.294 424.528 309.621 422.941 309.621ZM443.841 309.341H440.649C439.155 309.341 437.97 308.977 437.093 308.249C436.234 307.521 435.805 306.317 435.805 304.637V292.373H438.801V304.469C438.801 305.328 439.006 305.906 439.417 306.205C439.827 306.485 440.462 306.625 441.321 306.625H443.841V309.341ZM443.841 297.945H433.453V295.425H443.841V297.945ZM43.0632 343.341H39.8712C38.3778 343.341 37.1925 342.977 36.3152 342.249C35.4565 341.521 35.0272 340.317 35.0272 338.637V326.373H38.0232V338.469C38.0232 339.328 38.2285 339.906 38.6392 340.205C39.0498 340.485 39.6845 340.625 40.5432 340.625H43.0632V343.341ZM43.0632 331.945H32.6752V329.425H43.0632V331.945ZM59.5987 343.341H56.6027V335.781C56.6027 334.381 56.276 333.382 55.6227 332.785C54.9694 332.169 53.9147 331.861 52.4587 331.861C51.3574 331.861 50.48 332.057 49.8267 332.449C49.1734 332.822 48.6974 333.364 48.3987 334.073C48.1187 334.764 47.9787 335.604 47.9787 336.593L47.3907 336.621L47.5307 333.681H48.1467C48.3147 332.897 48.6134 332.16 49.0427 331.469C49.4907 330.778 50.116 330.218 50.9187 329.789C51.7214 329.36 52.7107 329.145 53.8867 329.145C55.156 329.145 56.2107 329.406 57.0507 329.929C57.9094 330.433 58.544 331.133 58.9547 332.029C59.384 332.906 59.5987 333.914 59.5987 335.053V343.341ZM47.9787 343.341H44.9547V324.581H47.9787V343.341ZM75.478 343.341H72.706V339.757L72.51 339.673V334.913C72.51 333.756 72.23 332.953 71.67 332.505C71.1286 332.038 70.186 331.805 68.842 331.805C67.554 331.805 66.5926 332.029 65.958 332.477C65.3233 332.925 65.006 333.662 65.006 334.689V334.801H62.01V334.689C62.01 333.625 62.29 332.682 62.85 331.861C63.41 331.021 64.2126 330.358 65.258 329.873C66.322 329.388 67.5913 329.145 69.066 329.145C70.5406 329.145 71.7446 329.397 72.678 329.901C73.63 330.386 74.33 331.058 74.778 331.917C75.2446 332.776 75.478 333.765 75.478 334.885V343.341ZM66.406 343.621C64.9686 343.621 63.8206 343.304 62.962 342.669C62.122 342.016 61.702 341.12 61.702 339.981C61.702 339.253 61.8793 338.646 62.234 338.161C62.6073 337.657 63.13 337.265 63.802 336.985C64.474 336.705 65.2673 336.509 66.182 336.397L72.79 335.697V337.489L67.05 338.133C66.266 338.226 65.678 338.394 65.286 338.637C64.9126 338.861 64.726 339.244 64.726 339.785C64.726 340.345 64.922 340.765 65.314 341.045C65.7246 341.306 66.3593 341.437 67.218 341.437C68.282 341.437 69.206 341.306 69.99 341.045C70.774 340.765 71.39 340.336 71.838 339.757C72.286 339.178 72.51 338.432 72.51 337.517L72.902 337.573V339.869H72.51C72.1366 341.045 71.418 341.969 70.354 342.641C69.3086 343.294 67.9926 343.621 66.406 343.621ZM87.3053 343.341H84.1133C82.62 343.341 81.4347 342.977 80.5573 342.249C79.6987 341.521 79.2693 340.317 79.2693 338.637V326.373H82.2653V338.469C82.2653 339.328 82.4707 339.906 82.8813 340.205C83.292 340.485 83.9267 340.625 84.7853 340.625H87.3053V343.341ZM87.3053 331.945H76.9173V329.425H87.3053V331.945ZM107.142 343.341H104.37V339.757L104.174 339.673V334.913C104.174 333.756 103.894 332.953 103.334 332.505C102.793 332.038 101.85 331.805 100.506 331.805C99.218 331.805 98.2567 332.029 97.622 332.477C96.9874 332.925 96.67 333.662 96.67 334.689V334.801H93.674V334.689C93.674 333.625 93.954 332.682 94.514 331.861C95.074 331.021 95.8767 330.358 96.922 329.873C97.986 329.388 99.2554 329.145 100.73 329.145C102.205 329.145 103.409 329.397 104.342 329.901C105.294 330.386 105.994 331.058 106.442 331.917C106.909 332.776 107.142 333.765 107.142 334.885V343.341ZM98.07 343.621C96.6327 343.621 95.4847 343.304 94.626 342.669C93.786 342.016 93.366 341.12 93.366 339.981C93.366 339.253 93.5434 338.646 93.898 338.161C94.2714 337.657 94.794 337.265 95.466 336.985C96.138 336.705 96.9314 336.509 97.846 336.397L104.454 335.697V337.489L98.714 338.133C97.93 338.226 97.342 338.394 96.95 338.637C96.5767 338.861 96.39 339.244 96.39 339.785C96.39 340.345 96.586 340.765 96.978 341.045C97.3887 341.306 98.0234 341.437 98.882 341.437C99.946 341.437 100.87 341.306 101.654 341.045C102.438 340.765 103.054 340.336 103.502 339.757C103.95 339.178 104.174 338.432 104.174 337.517L104.566 337.573V339.869H104.174C103.801 341.045 103.082 341.969 102.018 342.641C100.973 343.294 99.6567 343.621 98.07 343.621ZM118.605 343.621C117.019 343.621 115.731 343.257 114.741 342.529C113.752 341.782 113.108 340.718 112.809 339.337H112.137L112.333 336.537H112.865C112.865 337.489 113.052 338.292 113.425 338.945C113.817 339.598 114.368 340.084 115.077 340.401C115.805 340.7 116.664 340.849 117.653 340.849C118.68 340.849 119.539 340.709 120.229 340.429C120.939 340.149 121.471 339.682 121.825 339.029C122.199 338.376 122.385 337.498 122.385 336.397C122.385 335.277 122.199 334.39 121.825 333.737C121.452 333.084 120.92 332.617 120.229 332.337C119.539 332.038 118.699 331.889 117.709 331.889C116.141 331.889 114.937 332.262 114.097 333.009C113.276 333.737 112.865 334.838 112.865 336.313H112.333V333.205H113.033C113.313 332.029 113.92 331.058 114.853 330.293C115.805 329.528 117.112 329.145 118.773 329.145C120.211 329.145 121.415 329.453 122.385 330.069C123.375 330.666 124.121 331.506 124.625 332.589C125.148 333.672 125.409 334.941 125.409 336.397C125.409 337.816 125.148 339.076 124.625 340.177C124.121 341.26 123.356 342.109 122.329 342.725C121.321 343.322 120.08 343.621 118.605 343.621ZM112.613 343.341H109.841V324.581H112.865V338.609L112.613 338.973V343.341ZM134.617 343.621C133.087 343.621 131.733 343.322 130.557 342.725C129.4 342.109 128.495 341.26 127.841 340.177C127.207 339.076 126.889 337.816 126.889 336.397C126.889 334.941 127.207 333.672 127.841 332.589C128.495 331.506 129.4 330.666 130.557 330.069C131.733 329.453 133.087 329.145 134.617 329.145C136.185 329.145 137.548 329.453 138.705 330.069C139.863 330.666 140.759 331.506 141.393 332.589C142.047 333.672 142.373 334.941 142.373 336.397C142.373 337.816 142.047 339.076 141.393 340.177C140.759 341.26 139.863 342.109 138.705 342.725C137.548 343.322 136.185 343.621 134.617 343.621ZM134.617 340.933C136.316 340.933 137.539 340.55 138.285 339.785C139.032 339.001 139.405 337.872 139.405 336.397C139.405 334.922 139.032 333.793 138.285 333.009C137.539 332.206 136.316 331.805 134.617 331.805C132.937 331.805 131.724 332.206 130.977 333.009C130.231 333.793 129.857 334.922 129.857 336.397C129.857 337.872 130.231 339.001 130.977 339.785C131.724 340.55 132.937 340.933 134.617 340.933ZM169.18 343.341H166.184V335.781C166.184 334.4 165.895 333.401 165.316 332.785C164.737 332.169 163.767 331.861 162.404 331.861C160.929 331.861 159.884 332.244 159.268 333.009C158.671 333.756 158.372 334.904 158.372 336.453L157.84 336.481L157.672 333.737H158.288C158.419 332.934 158.689 332.188 159.1 331.497C159.511 330.806 160.099 330.246 160.864 329.817C161.629 329.369 162.591 329.145 163.748 329.145C164.961 329.145 165.969 329.397 166.772 329.901C167.575 330.405 168.172 331.096 168.564 331.973C168.975 332.85 169.18 333.849 169.18 334.969V343.341ZM147.592 343.341H144.568V329.425H147.34V333.793L147.592 333.933V343.341ZM158.372 343.341H155.376V335.781C155.376 334.4 155.087 333.401 154.508 332.785C153.929 332.169 152.968 331.861 151.624 331.861C150.131 331.861 149.085 332.244 148.488 333.009C147.891 333.756 147.592 334.904 147.592 336.453L147.06 336.481L146.92 333.625H147.508C147.639 332.841 147.9 332.113 148.292 331.441C148.684 330.769 149.253 330.218 150 329.789C150.747 329.36 151.699 329.145 152.856 329.145C154.069 329.145 155.068 329.406 155.852 329.929C156.636 330.433 157.224 331.124 157.616 332.001C158.008 332.878 158.204 333.868 158.204 334.969H158.372V343.341ZM174.908 343.341H171.884V329.425H174.908V343.341ZM174.908 327.801H171.884V324.581H174.908V327.801ZM192.241 343.341H189.217V335.781C189.217 334.474 188.899 333.494 188.265 332.841C187.649 332.188 186.613 331.861 185.157 331.861C183.645 331.861 182.525 332.253 181.797 333.037C181.087 333.802 180.733 334.941 180.733 336.453L180.201 336.481L180.061 333.737H180.677C180.826 332.953 181.125 332.216 181.573 331.525C182.039 330.816 182.674 330.246 183.477 329.817C184.298 329.369 185.297 329.145 186.473 329.145C187.761 329.145 188.834 329.406 189.693 329.929C190.551 330.452 191.186 331.152 191.597 332.029C192.026 332.906 192.241 333.886 192.241 334.969V343.341ZM180.733 343.341H177.709V329.425H180.481V333.793L180.733 333.933V343.341ZM208.095 343.341H205.323V339.757L205.127 339.673V334.913C205.127 333.756 204.847 332.953 204.287 332.505C203.746 332.038 202.803 331.805 201.459 331.805C200.171 331.805 199.21 332.029 198.575 332.477C197.94 332.925 197.623 333.662 197.623 334.689V334.801H194.627V334.689C194.627 333.625 194.907 332.682 195.467 331.861C196.027 331.021 196.83 330.358 197.875 329.873C198.939 329.388 200.208 329.145 201.683 329.145C203.158 329.145 204.362 329.397 205.295 329.901C206.247 330.386 206.947 331.058 207.395 331.917C207.862 332.776 208.095 333.765 208.095 334.885V343.341ZM199.023 343.621C197.586 343.621 196.438 343.304 195.579 342.669C194.739 342.016 194.319 341.12 194.319 339.981C194.319 339.253 194.496 338.646 194.851 338.161C195.224 337.657 195.747 337.265 196.419 336.985C197.091 336.705 197.884 336.509 198.799 336.397L205.407 335.697V337.489L199.667 338.133C198.883 338.226 198.295 338.394 197.903 338.637C197.53 338.861 197.343 339.244 197.343 339.785C197.343 340.345 197.539 340.765 197.931 341.045C198.342 341.306 198.976 341.437 199.835 341.437C200.899 341.437 201.823 341.306 202.607 341.045C203.391 340.765 204.007 340.336 204.455 339.757C204.903 339.178 205.127 338.432 205.127 337.517L205.519 337.573V339.869H205.127C204.754 341.045 204.035 341.969 202.971 342.641C201.926 343.294 200.61 343.621 199.023 343.621ZM219.923 343.341H216.731C215.237 343.341 214.052 342.977 213.175 342.249C212.316 341.521 211.887 340.317 211.887 338.637V326.373H214.883V338.469C214.883 339.328 215.088 339.906 215.499 340.205C215.909 340.485 216.544 340.625 217.403 340.625H219.923V343.341ZM219.923 331.945H209.535V329.425H219.923V331.945ZM224.838 343.341H221.814V329.425H224.838V343.341ZM224.838 327.801H221.814V324.581H224.838V327.801ZM234.75 343.621C233.22 343.621 231.866 343.322 230.69 342.725C229.533 342.109 228.628 341.26 227.974 340.177C227.34 339.076 227.022 337.816 227.022 336.397C227.022 334.941 227.34 333.672 227.974 332.589C228.628 331.506 229.533 330.666 230.69 330.069C231.866 329.453 233.22 329.145 234.75 329.145C236.318 329.145 237.681 329.453 238.838 330.069C239.996 330.666 240.892 331.506 241.526 332.589C242.18 333.672 242.506 334.941 242.506 336.397C242.506 337.816 242.18 339.076 241.526 340.177C240.892 341.26 239.996 342.109 238.838 342.725C237.681 343.322 236.318 343.621 234.75 343.621ZM234.75 340.933C236.449 340.933 237.672 340.55 238.418 339.785C239.165 339.001 239.538 337.872 239.538 336.397C239.538 334.922 239.165 333.793 238.418 333.009C237.672 332.206 236.449 331.805 234.75 331.805C233.07 331.805 231.857 332.206 231.11 333.009C230.364 333.793 229.99 334.922 229.99 336.397C229.99 337.872 230.364 339.001 231.11 339.785C231.857 340.55 233.07 340.933 234.75 340.933ZM259.233 343.341H256.209V335.781C256.209 334.474 255.891 333.494 255.257 332.841C254.641 332.188 253.605 331.861 252.149 331.861C250.637 331.861 249.517 332.253 248.789 333.037C248.079 333.802 247.725 334.941 247.725 336.453L247.193 336.481L247.053 333.737H247.669C247.818 332.953 248.117 332.216 248.565 331.525C249.031 330.816 249.666 330.246 250.469 329.817C251.29 329.369 252.289 329.145 253.465 329.145C254.753 329.145 255.826 329.406 256.685 329.929C257.543 330.452 258.178 331.152 258.589 332.029C259.018 332.906 259.233 333.886 259.233 334.969V343.341ZM247.725 343.341H244.701V329.425H247.473V333.793L247.725 333.933V343.341ZM265.175 343.341H261.367V339.001H265.175V343.341ZM262.431 346.477H261.423V344.629H262.347C262.59 344.629 262.767 344.582 262.879 344.489C262.991 344.414 263.047 344.228 263.047 343.929V342.697H265.175V343.901C265.175 344.778 264.933 345.422 264.447 345.833C263.981 346.262 263.309 346.477 262.431 346.477ZM42.6992 377.621C41.1125 377.621 39.8245 377.257 38.8352 376.529C37.8458 375.782 37.2018 374.718 36.9032 373.337H36.2312L36.4272 370.537H36.9592C36.9592 371.489 37.1458 372.292 37.5192 372.945C37.9112 373.598 38.4618 374.084 39.1712 374.401C39.8992 374.7 40.7578 374.849 41.7472 374.849C42.7738 374.849 43.6325 374.709 44.3232 374.429C45.0325 374.149 45.5645 373.682 45.9192 373.029C46.2925 372.376 46.4792 371.498 46.4792 370.397C46.4792 369.277 46.2925 368.39 45.9192 367.737C45.5458 367.084 45.0138 366.617 44.3232 366.337C43.6325 366.038 42.7925 365.889 41.8032 365.889C40.2352 365.889 39.0312 366.262 38.1912 367.009C37.3698 367.737 36.9592 368.838 36.9592 370.313H36.4272V367.205H37.1272C37.4072 366.029 38.0138 365.058 38.9472 364.293C39.8992 363.528 41.2058 363.145 42.8672 363.145C44.3045 363.145 45.5085 363.453 46.4792 364.069C47.4685 364.666 48.2152 365.506 48.7192 366.589C49.2418 367.672 49.5032 368.941 49.5032 370.397C49.5032 371.816 49.2418 373.076 48.7192 374.177C48.2152 375.26 47.4498 376.109 46.4232 376.725C45.4152 377.322 44.1738 377.621 42.6992 377.621ZM36.7072 377.341H33.9352V358.581H36.9592V372.609L36.7072 372.973V377.341ZM57.3952 377.621C56.0886 377.621 55.0059 377.36 54.1472 376.837C53.2886 376.314 52.6446 375.614 52.2152 374.737C51.7859 373.86 51.5712 372.88 51.5712 371.797V363.425H54.5672V370.985C54.5672 372.273 54.8846 373.253 55.5192 373.925C56.1726 374.578 57.2366 374.905 58.7112 374.905C60.2606 374.905 61.3899 374.522 62.0992 373.757C62.8272 372.973 63.1912 371.825 63.1912 370.313L63.7232 370.285L63.8912 373.029H63.2472C63.1166 373.813 62.8179 374.55 62.3512 375.241C61.8846 375.932 61.2406 376.501 60.4192 376.949C59.6166 377.397 58.6086 377.621 57.3952 377.621ZM66.2152 377.341H63.4432V372.973L63.1912 372.833V363.425H66.2152V377.341ZM78.0905 377.341H74.8985C73.4052 377.341 72.2198 376.977 71.3425 376.249C70.4838 375.521 70.0545 374.317 70.0545 372.637V360.373H73.0505V372.469C73.0505 373.328 73.2558 373.906 73.6665 374.205C74.0772 374.485 74.7118 374.625 75.5705 374.625H78.0905V377.341ZM78.0905 365.945H67.7025V363.425H78.0905V365.945ZM87.7912 377.341H84.7672V358.581H87.7912V377.341ZM101.509 377.621C100.034 377.621 98.7832 377.322 97.7566 376.725C96.7486 376.109 95.9832 375.26 95.4606 374.177C94.9379 373.076 94.6766 371.816 94.6766 370.397C94.6766 368.941 94.9379 367.672 95.4606 366.589C95.9832 365.506 96.7392 364.666 97.7286 364.069C98.7179 363.453 99.9126 363.145 101.313 363.145C102.955 363.145 104.253 363.528 105.205 364.293C106.157 365.058 106.773 366.029 107.053 367.205H107.753V370.313H107.221C107.221 368.838 106.801 367.737 105.961 367.009C105.121 366.262 103.926 365.889 102.377 365.889C101.425 365.889 100.594 366.038 99.8846 366.337C99.1752 366.617 98.6339 367.084 98.2606 367.737C97.9059 368.39 97.7286 369.277 97.7286 370.397C97.7286 371.498 97.9059 372.376 98.2606 373.029C98.6339 373.682 99.1752 374.149 99.8846 374.429C100.594 374.709 101.443 374.849 102.433 374.849C103.422 374.849 104.271 374.7 104.981 374.401C105.709 374.084 106.259 373.598 106.633 372.945C107.025 372.292 107.221 371.489 107.221 370.537H107.753L107.949 373.337H107.277C106.997 374.718 106.353 375.782 105.345 376.529C104.355 377.257 103.077 377.621 101.509 377.621ZM110.245 377.341H107.473V372.973L107.221 372.609V358.581H110.245V377.341ZM120.153 377.621C118.622 377.621 117.269 377.322 116.093 376.725C114.935 376.109 114.03 375.26 113.377 374.177C112.742 373.076 112.425 371.816 112.425 370.397C112.425 368.941 112.742 367.672 113.377 366.589C114.03 365.506 114.935 364.666 116.093 364.069C117.269 363.453 118.622 363.145 120.153 363.145C121.721 363.145 123.083 363.453 124.241 364.069C125.398 364.666 126.294 365.506 126.929 366.589C127.582 367.672 127.909 368.941 127.909 370.397C127.909 371.816 127.582 373.076 126.929 374.177C126.294 375.26 125.398 376.109 124.241 376.725C123.083 377.322 121.721 377.621 120.153 377.621ZM120.153 374.933C121.851 374.933 123.074 374.55 123.821 373.785C124.567 373.001 124.941 371.872 124.941 370.397C124.941 368.922 124.567 367.793 123.821 367.009C123.074 366.206 121.851 365.805 120.153 365.805C118.473 365.805 117.259 366.206 116.513 367.009C115.766 367.793 115.393 368.922 115.393 370.397C115.393 371.872 115.766 373.001 116.513 373.785C117.259 374.55 118.473 374.933 120.153 374.933ZM144.635 377.341H141.611V369.781C141.611 368.474 141.294 367.494 140.659 366.841C140.043 366.188 139.007 365.861 137.551 365.861C136.039 365.861 134.919 366.253 134.191 367.037C133.482 367.802 133.127 368.941 133.127 370.453L132.595 370.481L132.455 367.737H133.071C133.22 366.953 133.519 366.216 133.967 365.525C134.434 364.816 135.068 364.246 135.871 363.817C136.692 363.369 137.691 363.145 138.867 363.145C140.155 363.145 141.228 363.406 142.087 363.929C142.946 364.452 143.58 365.152 143.991 366.029C144.42 366.906 144.635 367.886 144.635 368.969V377.341ZM133.127 377.341H130.103V363.425H132.875V367.793L133.127 367.933V377.341ZM150.578 362.921H146.77V358.581H150.578V362.921ZM147.834 366.085H146.826V364.237H147.75C147.992 364.237 148.17 364.19 148.282 364.097C148.394 364.004 148.45 363.808 148.45 363.509V362.277H150.578V363.481C150.578 364.358 150.335 365.012 149.85 365.441C149.383 365.87 148.711 366.085 147.834 366.085ZM161.954 377.341H158.762C157.268 377.341 156.083 376.977 155.206 376.249C154.347 375.521 153.918 374.317 153.918 372.637V360.373H156.914V372.469C156.914 373.328 157.119 373.906 157.53 374.205C157.94 374.485 158.575 374.625 159.434 374.625H161.954V377.341ZM161.954 365.945H151.566V363.425H161.954V365.945ZM175.294 377.341H171.542L167.37 363.425H170.506L172.83 371.321L173.474 374.905H173.698L174.734 371.041L177.646 363.425H181.51L184.45 371.041L185.486 374.905H185.71L186.354 371.321L188.678 363.425H191.758L187.53 377.341H183.778L180.726 369.333L179.662 365.917H179.438L178.374 369.333L175.294 377.341ZM206.455 377.341H203.683V373.757L203.487 373.673V368.913C203.487 367.756 203.207 366.953 202.647 366.505C202.105 366.038 201.163 365.805 199.819 365.805C198.531 365.805 197.569 366.029 196.935 366.477C196.3 366.925 195.983 367.662 195.983 368.689V368.801H192.987V368.689C192.987 367.625 193.267 366.682 193.827 365.861C194.387 365.021 195.189 364.358 196.235 363.873C197.299 363.388 198.568 363.145 200.043 363.145C201.517 363.145 202.721 363.397 203.655 363.901C204.607 364.386 205.307 365.058 205.755 365.917C206.221 366.776 206.455 367.765 206.455 368.885V377.341ZM197.383 377.621C195.945 377.621 194.797 377.304 193.939 376.669C193.099 376.016 192.679 375.12 192.679 373.981C192.679 373.253 192.856 372.646 193.211 372.161C193.584 371.657 194.107 371.265 194.779 370.985C195.451 370.705 196.244 370.509 197.159 370.397L203.767 369.697V371.489L198.027 372.133C197.243 372.226 196.655 372.394 196.263 372.637C195.889 372.861 195.703 373.244 195.703 373.785C195.703 374.345 195.899 374.765 196.291 375.045C196.701 375.306 197.336 375.437 198.195 375.437C199.259 375.437 200.183 375.306 200.967 375.045C201.751 374.765 202.367 374.336 202.815 373.757C203.263 373.178 203.487 372.432 203.487 371.517L203.879 371.573V373.869H203.487C203.113 375.045 202.395 375.969 201.331 376.641C200.285 377.294 198.969 377.621 197.383 377.621ZM223.686 377.341H220.662V369.781C220.662 368.474 220.345 367.494 219.71 366.841C219.094 366.188 218.058 365.861 216.602 365.861C215.09 365.861 213.97 366.253 213.242 367.037C212.533 367.802 212.178 368.941 212.178 370.453L211.646 370.481L211.506 367.737H212.122C212.271 366.953 212.57 366.216 213.018 365.525C213.485 364.816 214.119 364.246 214.922 363.817C215.743 363.369 216.742 363.145 217.918 363.145C219.206 363.145 220.279 363.406 221.138 363.929C221.997 364.452 222.631 365.152 223.042 366.029C223.471 366.906 223.686 367.886 223.686 368.969V377.341ZM212.178 377.341H209.154V363.425H211.926V367.793L212.178 367.933V377.341ZM235.508 377.341H232.316C230.823 377.341 229.638 376.977 228.76 376.249C227.902 375.521 227.472 374.317 227.472 372.637V360.373H230.468V372.469C230.468 373.328 230.674 373.906 231.084 374.205C231.495 374.485 232.13 374.625 232.988 374.625H235.508V377.341ZM235.508 365.945H225.12V363.425H235.508V365.945ZM251.313 377.341H248.121C246.628 377.341 245.442 376.977 244.565 376.249C243.706 375.521 243.277 374.317 243.277 372.637V360.373H246.273V372.469C246.273 373.328 246.478 373.906 246.889 374.205C247.3 374.485 247.934 374.625 248.793 374.625H251.313V377.341ZM251.313 365.945H240.925V363.425H251.313V365.945ZM260.317 377.621C258.786 377.621 257.433 377.322 256.257 376.725C255.099 376.109 254.194 375.26 253.541 374.177C252.906 373.076 252.589 371.816 252.589 370.397C252.589 368.941 252.906 367.672 253.541 366.589C254.194 365.506 255.099 364.666 256.257 364.069C257.433 363.453 258.786 363.145 260.317 363.145C261.885 363.145 263.247 363.453 264.405 364.069C265.562 364.666 266.458 365.506 267.093 366.589C267.746 367.672 268.073 368.941 268.073 370.397C268.073 371.816 267.746 373.076 267.093 374.177C266.458 375.26 265.562 376.109 264.405 376.725C263.247 377.322 261.885 377.621 260.317 377.621ZM260.317 374.933C262.015 374.933 263.238 374.55 263.985 373.785C264.731 373.001 265.105 371.872 265.105 370.397C265.105 368.922 264.731 367.793 263.985 367.009C263.238 366.206 262.015 365.805 260.317 365.805C258.637 365.805 257.423 366.206 256.677 367.009C255.93 367.793 255.557 368.922 255.557 370.397C255.557 371.872 255.93 373.001 256.677 373.785C257.423 374.55 258.637 374.933 260.317 374.933ZM273.176 382.101H272.308V379.777H273.26C273.858 379.777 274.306 379.646 274.604 379.385C274.922 379.124 275.08 378.676 275.08 378.041V363.425H278.104V377.509C278.104 378.666 277.899 379.581 277.488 380.253C277.078 380.925 276.499 381.401 275.752 381.681C275.006 381.961 274.147 382.101 273.176 382.101ZM278.104 361.801H275.08V358.581H278.104V361.801ZM286.7 377.621C285.393 377.621 284.311 377.36 283.452 376.837C282.593 376.314 281.949 375.614 281.52 374.737C281.091 373.86 280.876 372.88 280.876 371.797V363.425H283.872V370.985C283.872 372.273 284.189 373.253 284.824 373.925C285.477 374.578 286.541 374.905 288.016 374.905C289.565 374.905 290.695 374.522 291.404 373.757C292.132 372.973 292.496 371.825 292.496 370.313L293.028 370.285L293.196 373.029H292.552C292.421 373.813 292.123 374.55 291.656 375.241C291.189 375.932 290.545 376.501 289.724 376.949C288.921 377.397 287.913 377.621 286.7 377.621ZM295.52 377.341H292.748V372.973L292.496 372.833V363.425H295.52V377.341ZM304.399 377.621C302.925 377.621 301.674 377.322 300.647 376.725C299.639 376.109 298.874 375.26 298.351 374.177C297.829 373.076 297.567 371.816 297.567 370.397C297.567 368.941 297.829 367.672 298.351 366.589C298.874 365.506 299.63 364.666 300.619 364.069C301.609 363.453 302.803 363.145 304.203 363.145C305.846 363.145 307.143 363.528 308.095 364.293C309.047 365.058 309.663 366.029 309.943 367.205H310.643V370.313H310.111C310.111 368.838 309.691 367.737 308.851 367.009C308.011 366.262 306.817 365.889 305.267 365.889C304.315 365.889 303.485 366.038 302.775 366.337C302.066 366.617 301.525 367.084 301.151 367.737C300.797 368.39 300.619 369.277 300.619 370.397C300.619 371.498 300.797 372.376 301.151 373.029C301.525 373.682 302.066 374.149 302.775 374.429C303.485 374.709 304.334 374.849 305.323 374.849C306.313 374.849 307.162 374.7 307.871 374.401C308.599 374.084 309.15 373.598 309.523 372.945C309.915 372.292 310.111 371.489 310.111 370.537H310.643L310.839 373.337H310.167C309.887 374.718 309.243 375.782 308.235 376.529C307.246 377.257 305.967 377.621 304.399 377.621ZM313.135 377.341H310.363V372.973L310.111 372.609V358.581H313.135V377.341ZM323.239 382.381C321.858 382.381 320.645 382.166 319.599 381.737C318.554 381.326 317.733 380.729 317.135 379.945C316.557 379.161 316.267 378.209 316.267 377.089H319.263C319.263 377.761 319.403 378.302 319.683 378.713C319.963 379.124 320.402 379.413 320.999 379.581C321.615 379.768 322.418 379.861 323.407 379.861C324.471 379.861 325.311 379.74 325.927 379.497C326.562 379.273 327.019 378.872 327.299 378.293C327.579 377.714 327.719 376.912 327.719 375.885V367.737L327.943 367.541V363.425H330.715V375.717C330.715 377.266 330.407 378.526 329.791 379.497C329.175 380.486 328.307 381.214 327.187 381.681C326.067 382.148 324.751 382.381 323.239 382.381ZM321.979 376.081C320.598 376.081 319.413 375.81 318.423 375.269C317.453 374.728 316.697 373.972 316.155 373.001C315.633 372.03 315.371 370.901 315.371 369.613C315.371 368.325 315.642 367.196 316.183 366.225C316.743 365.254 317.527 364.498 318.535 363.957C319.562 363.416 320.775 363.145 322.175 363.145C323.631 363.145 324.863 363.472 325.871 364.125C326.898 364.76 327.533 365.684 327.775 366.897H328.419L328.251 369.333H327.719C327.719 368.549 327.533 367.896 327.159 367.373C326.786 366.832 326.254 366.43 325.563 366.169C324.873 365.908 324.033 365.777 323.043 365.777C322.091 365.777 321.261 365.898 320.551 366.141C319.861 366.384 319.329 366.785 318.955 367.345C318.601 367.886 318.423 368.642 318.423 369.613C318.423 370.565 318.601 371.321 318.955 371.881C319.31 372.441 319.823 372.852 320.495 373.113C321.186 373.356 322.007 373.477 322.959 373.477C324.49 373.477 325.666 373.16 326.487 372.525C327.309 371.89 327.719 370.957 327.719 369.725H328.251V372.469H327.523C327.281 373.533 326.693 374.401 325.759 375.073C324.826 375.745 323.566 376.081 321.979 376.081ZM340.513 377.621C339.001 377.621 337.676 377.341 336.537 376.781C335.399 376.221 334.512 375.4 333.877 374.317C333.261 373.234 332.953 371.928 332.953 370.397C332.953 368.941 333.261 367.672 333.877 366.589C334.512 365.506 335.389 364.666 336.509 364.069C337.629 363.453 338.945 363.145 340.457 363.145C341.895 363.145 343.155 363.406 344.237 363.929C345.339 364.433 346.188 365.18 346.785 366.169C347.401 367.14 347.709 368.334 347.709 369.753C347.709 369.996 347.7 370.229 347.681 370.453C347.663 370.658 347.635 370.864 347.597 371.069H334.885V369.389H345.609L344.825 370.425C344.844 370.238 344.853 370.061 344.853 369.893C344.853 369.706 344.853 369.52 344.853 369.333C344.853 368.045 344.48 367.093 343.733 366.477C343.005 365.842 341.895 365.525 340.401 365.525C338.74 365.525 337.555 365.908 336.845 366.673C336.136 367.438 335.781 368.54 335.781 369.977V370.705C335.781 372.161 336.136 373.272 336.845 374.037C337.555 374.802 338.749 375.185 340.429 375.185C341.885 375.185 342.931 374.961 343.565 374.513C344.219 374.046 344.545 373.402 344.545 372.581V372.357H347.569V372.609C347.569 373.598 347.261 374.476 346.645 375.241C346.048 375.988 345.217 376.576 344.153 377.005C343.108 377.416 341.895 377.621 340.513 377.621ZM356.999 382.101H355.011V379.357H357.727C358.343 379.357 358.801 379.254 359.099 379.049C359.417 378.862 359.678 378.536 359.883 378.069L360.751 376.193L360.415 377.733L353.359 363.425H356.747L360.303 370.817L361.675 374.149H361.899L363.215 370.789L366.491 363.425H369.823L362.571 378.853C362.198 379.674 361.759 380.318 361.255 380.785C360.751 381.27 360.154 381.606 359.463 381.793C358.773 381.998 357.951 382.101 356.999 382.101ZM378.414 377.621C376.884 377.621 375.53 377.322 374.354 376.725C373.197 376.109 372.292 375.26 371.638 374.177C371.004 373.076 370.686 371.816 370.686 370.397C370.686 368.941 371.004 367.672 371.638 366.589C372.292 365.506 373.197 364.666 374.354 364.069C375.53 363.453 376.884 363.145 378.414 363.145C379.982 363.145 381.345 363.453 382.502 364.069C383.66 364.666 384.556 365.506 385.19 366.589C385.844 367.672 386.17 368.941 386.17 370.397C386.17 371.816 385.844 373.076 385.19 374.177C384.556 375.26 383.66 376.109 382.502 376.725C381.345 377.322 379.982 377.621 378.414 377.621ZM378.414 374.933C380.113 374.933 381.336 374.55 382.082 373.785C382.829 373.001 383.202 371.872 383.202 370.397C383.202 368.922 382.829 367.793 382.082 367.009C381.336 366.206 380.113 365.805 378.414 365.805C376.734 365.805 375.521 366.206 374.774 367.009C374.028 367.793 373.654 368.922 373.654 370.397C373.654 371.872 374.028 373.001 374.774 373.785C375.521 374.55 376.734 374.933 378.414 374.933ZM394.161 377.621C392.854 377.621 391.772 377.36 390.913 376.837C390.054 376.314 389.41 375.614 388.981 374.737C388.552 373.86 388.337 372.88 388.337 371.797V363.425H391.333V370.985C391.333 372.273 391.65 373.253 392.285 373.925C392.938 374.578 394.002 374.905 395.477 374.905C397.026 374.905 398.156 374.522 398.865 373.757C399.593 372.973 399.957 371.825 399.957 370.313L400.489 370.285L400.657 373.029H400.013C399.882 373.813 399.584 374.55 399.117 375.241C398.65 375.932 398.006 376.501 397.185 376.949C396.382 377.397 395.374 377.621 394.161 377.621ZM402.981 377.341H400.209V372.973L399.957 372.833V363.425H402.981V377.341ZM36.9592 411.341H33.9352V397.425H36.9592V411.341ZM36.9592 395.801H33.9352V392.581H36.9592V395.801ZM43.8474 411.341H40.8234V398.181C40.8234 397.005 41.0754 396.006 41.5794 395.185C42.102 394.345 42.858 393.701 43.8474 393.253C44.8367 392.805 46.0407 392.581 47.4594 392.581H48.8314V394.821H46.9834C45.7887 394.821 44.9207 395.045 44.3794 395.493C43.838 395.922 43.6607 396.744 43.8474 397.957V398.517V411.341ZM48.8314 399.945H38.7234V397.425H48.8314V399.945ZM57.5306 416.101H55.5426V413.357H58.2586C58.8746 413.357 59.332 413.254 59.6306 413.049C59.948 412.862 60.2093 412.536 60.4146 412.069L61.2826 410.193L60.9466 411.733L53.8906 397.425H57.2786L60.8346 404.817L62.2066 408.149H62.4306L63.7466 404.789L67.0226 397.425H70.3546L63.1026 412.853C62.7293 413.674 62.2906 414.318 61.7866 414.785C61.2826 415.27 60.6853 415.606 59.9946 415.793C59.304 415.998 58.4826 416.101 57.5306 416.101ZM78.9456 411.621C77.4149 411.621 76.0616 411.322 74.8856 410.725C73.7283 410.109 72.8229 409.26 72.1696 408.177C71.5349 407.076 71.2176 405.816 71.2176 404.397C71.2176 402.941 71.5349 401.672 72.1696 400.589C72.8229 399.506 73.7283 398.666 74.8856 398.069C76.0616 397.453 77.4149 397.145 78.9456 397.145C80.5136 397.145 81.8763 397.453 83.0336 398.069C84.1909 398.666 85.0869 399.506 85.7216 400.589C86.3749 401.672 86.7016 402.941 86.7016 404.397C86.7016 405.816 86.3749 407.076 85.7216 408.177C85.0869 409.26 84.1909 410.109 83.0336 410.725C81.8763 411.322 80.5136 411.621 78.9456 411.621ZM78.9456 408.933C80.6443 408.933 81.8669 408.55 82.6136 407.785C83.3603 407.001 83.7336 405.872 83.7336 404.397C83.7336 402.922 83.3603 401.793 82.6136 401.009C81.8669 400.206 80.6443 399.805 78.9456 399.805C77.2656 399.805 76.0523 400.206 75.3056 401.009C74.5589 401.793 74.1856 402.922 74.1856 404.397C74.1856 405.872 74.5589 407.001 75.3056 407.785C76.0523 408.55 77.2656 408.933 78.9456 408.933ZM94.6921 411.621C93.3854 411.621 92.3028 411.36 91.4441 410.837C90.5854 410.314 89.9414 409.614 89.5121 408.737C89.0828 407.86 88.8681 406.88 88.8681 405.797V397.425H91.8641V404.985C91.8641 406.273 92.1814 407.253 92.8161 407.925C93.4694 408.578 94.5334 408.905 96.0081 408.905C97.5574 408.905 98.6868 408.522 99.3961 407.757C100.124 406.973 100.488 405.825 100.488 404.313L101.02 404.285L101.188 407.029H100.544C100.413 407.813 100.115 408.55 99.6481 409.241C99.1814 409.932 98.5374 410.501 97.7161 410.949C96.9134 411.397 95.9054 411.621 94.6921 411.621ZM103.512 411.341H100.74V406.973L100.488 406.833V397.425H103.512V411.341ZM109.283 411.341H106.259V397.425H109.031V401.373L109.283 401.513V411.341ZM109.283 403.529H108.611V401.177H109.227C109.358 400.412 109.619 399.73 110.011 399.133C110.403 398.517 110.926 398.032 111.579 397.677C112.251 397.322 113.063 397.145 114.015 397.145C115.079 397.145 115.947 397.369 116.619 397.817C117.291 398.265 117.777 398.862 118.075 399.609C118.393 400.356 118.551 401.168 118.551 402.045V403.865H115.555V402.633C115.555 401.625 115.331 400.888 114.883 400.421C114.435 399.954 113.689 399.721 112.643 399.721C111.449 399.721 110.59 400.048 110.067 400.701C109.545 401.354 109.283 402.297 109.283 403.529ZM138.396 411.341H135.624V407.757L135.428 407.673V402.913C135.428 401.756 135.148 400.953 134.588 400.505C134.047 400.038 133.104 399.805 131.76 399.805C130.472 399.805 129.511 400.029 128.876 400.477C128.241 400.925 127.924 401.662 127.924 402.689V402.801H124.928V402.689C124.928 401.625 125.208 400.682 125.768 399.861C126.328 399.021 127.131 398.358 128.176 397.873C129.24 397.388 130.509 397.145 131.984 397.145C133.459 397.145 134.663 397.397 135.596 397.901C136.548 398.386 137.248 399.058 137.696 399.917C138.163 400.776 138.396 401.765 138.396 402.885V411.341ZM129.324 411.621C127.887 411.621 126.739 411.304 125.88 410.669C125.04 410.016 124.62 409.12 124.62 407.981C124.62 407.253 124.797 406.646 125.152 406.161C125.525 405.657 126.048 405.265 126.72 404.985C127.392 404.705 128.185 404.509 129.1 404.397L135.708 403.697V405.489L129.968 406.133C129.184 406.226 128.596 406.394 128.204 406.637C127.831 406.861 127.644 407.244 127.644 407.785C127.644 408.345 127.84 408.765 128.232 409.045C128.643 409.306 129.277 409.437 130.136 409.437C131.2 409.437 132.124 409.306 132.908 409.045C133.692 408.765 134.308 408.336 134.756 407.757C135.204 407.178 135.428 406.432 135.428 405.517L135.82 405.573V407.869H135.428C135.055 409.045 134.336 409.969 133.272 410.641C132.227 411.294 130.911 411.621 129.324 411.621ZM147.675 411.621C145.435 411.621 143.699 411.192 142.467 410.333C141.254 409.474 140.647 408.242 140.647 406.637V406.553H143.671V406.777C143.671 407.692 143.97 408.326 144.567 408.681C145.183 409.017 146.219 409.185 147.675 409.185C149.038 409.185 149.962 409.045 150.447 408.765C150.951 408.466 151.203 408.009 151.203 407.393C151.203 406.814 151.007 406.404 150.615 406.161C150.242 405.918 149.551 405.732 148.543 405.601L144.735 405.097C143.41 404.929 142.374 404.556 141.627 403.977C140.881 403.38 140.507 402.493 140.507 401.317C140.507 400.496 140.75 399.777 141.235 399.161C141.721 398.526 142.449 398.032 143.419 397.677C144.39 397.322 145.585 397.145 147.003 397.145C148.422 397.145 149.635 397.332 150.643 397.705C151.67 398.078 152.454 398.638 152.995 399.385C153.555 400.132 153.835 401.056 153.835 402.157V402.241H150.839V402.073C150.839 401.532 150.727 401.074 150.503 400.701C150.279 400.328 149.878 400.048 149.299 399.861C148.739 399.656 147.946 399.553 146.919 399.553C145.631 399.553 144.735 399.702 144.231 400.001C143.727 400.3 143.475 400.776 143.475 401.429C143.475 401.97 143.662 402.362 144.035 402.605C144.409 402.848 145.109 403.044 146.135 403.193L149.355 403.641C150.998 403.846 152.211 404.248 152.995 404.845C153.779 405.442 154.171 406.32 154.171 407.477C154.171 408.336 153.901 409.082 153.359 409.717C152.818 410.333 152.062 410.809 151.091 411.145C150.121 411.462 148.982 411.621 147.675 411.621ZM165.201 411.621C163.652 411.621 162.382 411.238 161.393 410.473C160.404 409.708 159.769 408.69 159.489 407.421H158.845V404.621H159.377C159.377 405.554 159.573 406.348 159.965 407.001C160.357 407.636 160.908 408.112 161.617 408.429C162.345 408.728 163.194 408.877 164.165 408.877C165.173 408.877 166.022 408.737 166.713 408.457C167.422 408.158 167.964 407.682 168.337 407.029C168.71 406.376 168.897 405.498 168.897 404.397C168.897 403.277 168.71 402.39 168.337 401.737C167.964 401.084 167.422 400.617 166.713 400.337C166.022 400.057 165.192 399.917 164.221 399.917C162.672 399.917 161.477 400.29 160.637 401.037C159.797 401.765 159.377 402.876 159.377 404.369H158.845L158.649 401.289H159.377C159.657 400.001 160.282 398.993 161.253 398.265C162.242 397.518 163.549 397.145 165.173 397.145C166.61 397.145 167.833 397.453 168.841 398.069C169.849 398.666 170.614 399.506 171.137 400.589C171.66 401.672 171.921 402.941 171.921 404.397C171.921 405.816 171.66 407.076 171.137 408.177C170.633 409.26 169.877 410.109 168.869 410.725C167.88 411.322 166.657 411.621 165.201 411.621ZM159.377 416.101H156.353V397.425H159.125V401.793L159.377 402.157V416.101ZM177.041 411.341H174.017V397.425H177.041V411.341ZM177.041 395.801H174.017V392.581H177.041V395.801ZM182.865 411.341H179.841V397.425H182.613V401.373L182.865 401.513V411.341ZM182.865 403.529H182.193V401.177H182.809C182.94 400.412 183.201 399.73 183.593 399.133C183.985 398.517 184.508 398.032 185.161 397.677C185.833 397.322 186.645 397.145 187.597 397.145C188.661 397.145 189.529 397.369 190.201 397.817C190.873 398.265 191.359 398.862 191.657 399.609C191.975 400.356 192.133 401.168 192.133 402.045V403.865H189.137V402.633C189.137 401.625 188.913 400.888 188.465 400.421C188.017 399.954 187.271 399.721 186.225 399.721C185.031 399.721 184.172 400.048 183.649 400.701C183.127 401.354 182.865 402.297 182.865 403.529ZM207.193 411.341H204.421V407.757L204.225 407.673V402.913C204.225 401.756 203.945 400.953 203.385 400.505C202.843 400.038 201.901 399.805 200.557 399.805C199.269 399.805 198.307 400.029 197.673 400.477C197.038 400.925 196.721 401.662 196.721 402.689V402.801H193.725V402.689C193.725 401.625 194.005 400.682 194.565 399.861C195.125 399.021 195.927 398.358 196.973 397.873C198.037 397.388 199.306 397.145 200.781 397.145C202.255 397.145 203.459 397.397 204.393 397.901C205.345 398.386 206.045 399.058 206.493 399.917C206.959 400.776 207.193 401.765 207.193 402.885V411.341ZM198.121 411.621C196.683 411.621 195.535 411.304 194.677 410.669C193.837 410.016 193.417 409.12 193.417 407.981C193.417 407.253 193.594 406.646 193.949 406.161C194.322 405.657 194.845 405.265 195.517 404.985C196.189 404.705 196.982 404.509 197.897 404.397L204.505 403.697V405.489L198.765 406.133C197.981 406.226 197.393 406.394 197.001 406.637C196.627 406.861 196.441 407.244 196.441 407.785C196.441 408.345 196.637 408.765 197.029 409.045C197.439 409.306 198.074 409.437 198.933 409.437C199.997 409.437 200.921 409.306 201.705 409.045C202.489 408.765 203.105 408.336 203.553 407.757C204.001 407.178 204.225 406.432 204.225 405.517L204.617 405.573V407.869H204.225C203.851 409.045 203.133 409.969 202.069 410.641C201.023 411.294 199.707 411.621 198.121 411.621ZM219.02 411.341H215.828C214.335 411.341 213.15 410.977 212.272 410.249C211.414 409.521 210.984 408.317 210.984 406.637V394.373H213.98V406.469C213.98 407.328 214.186 407.906 214.596 408.205C215.007 408.485 215.642 408.625 216.5 408.625H219.02V411.341ZM219.02 399.945H208.632V397.425H219.02V399.945ZM223.936 411.341H220.912V397.425H223.936V411.341ZM223.936 395.801H220.912V392.581H223.936V395.801ZM233.848 411.621C232.317 411.621 230.964 411.322 229.788 410.725C228.631 410.109 227.725 409.26 227.072 408.177C226.437 407.076 226.12 405.816 226.12 404.397C226.12 402.941 226.437 401.672 227.072 400.589C227.725 399.506 228.631 398.666 229.788 398.069C230.964 397.453 232.317 397.145 233.848 397.145C235.416 397.145 236.779 397.453 237.936 398.069C239.093 398.666 239.989 399.506 240.624 400.589C241.277 401.672 241.604 402.941 241.604 404.397C241.604 405.816 241.277 407.076 240.624 408.177C239.989 409.26 239.093 410.109 237.936 410.725C236.779 411.322 235.416 411.621 233.848 411.621ZM233.848 408.933C235.547 408.933 236.769 408.55 237.516 407.785C238.263 407.001 238.636 405.872 238.636 404.397C238.636 402.922 238.263 401.793 237.516 401.009C236.769 400.206 235.547 399.805 233.848 399.805C232.168 399.805 230.955 400.206 230.208 401.009C229.461 401.793 229.088 402.922 229.088 404.397C229.088 405.872 229.461 407.001 230.208 407.785C230.955 408.55 232.168 408.933 233.848 408.933ZM258.33 411.341H255.306V403.781C255.306 402.474 254.989 401.494 254.354 400.841C253.738 400.188 252.702 399.861 251.246 399.861C249.734 399.861 248.614 400.253 247.886 401.037C247.177 401.802 246.822 402.941 246.822 404.453L246.29 404.481L246.15 401.737H246.766C246.916 400.953 247.214 400.216 247.662 399.525C248.129 398.816 248.764 398.246 249.566 397.817C250.388 397.369 251.386 397.145 252.562 397.145C253.85 397.145 254.924 397.406 255.782 397.929C256.641 398.452 257.276 399.152 257.686 400.029C258.116 400.906 258.33 401.886 258.33 402.969V411.341ZM246.822 411.341H243.798V397.425H246.57V401.793L246.822 401.933V411.341ZM268.834 411.341H265.81V397.425H268.834V411.341ZM268.834 395.801H265.81V392.581H268.834V395.801ZM278.214 411.621C275.974 411.621 274.238 411.192 273.006 410.333C271.793 409.474 271.186 408.242 271.186 406.637V406.553H274.21V406.777C274.21 407.692 274.509 408.326 275.106 408.681C275.722 409.017 276.758 409.185 278.214 409.185C279.577 409.185 280.501 409.045 280.986 408.765C281.49 408.466 281.742 408.009 281.742 407.393C281.742 406.814 281.546 406.404 281.154 406.161C280.781 405.918 280.09 405.732 279.082 405.601L275.274 405.097C273.949 404.929 272.913 404.556 272.166 403.977C271.42 403.38 271.046 402.493 271.046 401.317C271.046 400.496 271.289 399.777 271.774 399.161C272.26 398.526 272.988 398.032 273.958 397.677C274.929 397.322 276.124 397.145 277.542 397.145C278.961 397.145 280.174 397.332 281.182 397.705C282.209 398.078 282.993 398.638 283.534 399.385C284.094 400.132 284.374 401.056 284.374 402.157V402.241H281.378V402.073C281.378 401.532 281.266 401.074 281.042 400.701C280.818 400.328 280.417 400.048 279.838 399.861C279.278 399.656 278.485 399.553 277.458 399.553C276.17 399.553 275.274 399.702 274.77 400.001C274.266 400.3 274.014 400.776 274.014 401.429C274.014 401.97 274.201 402.362 274.574 402.605C274.948 402.848 275.648 403.044 276.674 403.193L279.894 403.641C281.537 403.846 282.75 404.248 283.534 404.845C284.318 405.442 284.71 406.32 284.71 407.477C284.71 408.336 284.44 409.082 283.898 409.717C283.357 410.333 282.601 410.809 281.63 411.145C280.66 411.462 279.521 411.621 278.214 411.621ZM43.0632 445.341H39.8712C38.3778 445.341 37.1925 444.977 36.3152 444.249C35.4565 443.521 35.0272 442.317 35.0272 440.637V428.373H38.0232V440.469C38.0232 441.328 38.2285 441.906 38.6392 442.205C39.0498 442.485 39.6845 442.625 40.5432 442.625H43.0632V445.341ZM43.0632 433.945H32.6752V431.425H43.0632V433.945ZM52.0667 445.621C50.536 445.621 49.1827 445.322 48.0067 444.725C46.8494 444.109 45.944 443.26 45.2907 442.177C44.656 441.076 44.3387 439.816 44.3387 438.397C44.3387 436.941 44.656 435.672 45.2907 434.589C45.944 433.506 46.8494 432.666 48.0067 432.069C49.1827 431.453 50.536 431.145 52.0667 431.145C53.6347 431.145 54.9974 431.453 56.1547 432.069C57.312 432.666 58.208 433.506 58.8427 434.589C59.496 435.672 59.8227 436.941 59.8227 438.397C59.8227 439.816 59.496 441.076 58.8427 442.177C58.208 443.26 57.312 444.109 56.1547 444.725C54.9974 445.322 53.6347 445.621 52.0667 445.621ZM52.0667 442.933C53.7654 442.933 54.988 442.55 55.7347 441.785C56.4814 441.001 56.8547 439.872 56.8547 438.397C56.8547 436.922 56.4814 435.793 55.7347 435.009C54.988 434.206 53.7654 433.805 52.0667 433.805C50.3867 433.805 49.1734 434.206 48.4267 435.009C47.68 435.793 47.3067 436.922 47.3067 438.397C47.3067 439.872 47.68 441.001 48.4267 441.785C49.1734 442.55 50.3867 442.933 52.0667 442.933ZM73.4663 445.341H69.7143L65.5423 431.425H68.6783L71.0023 439.321L71.6463 442.905H71.8703L72.9063 439.041L75.8183 431.425H79.6823L82.6223 439.041L83.6583 442.905H83.8823L84.5263 439.321L86.8503 431.425H89.9303L85.7023 445.341H81.9503L78.8983 437.333L77.8343 433.917H77.6103L76.5463 437.333L73.4663 445.341ZM98.5784 445.621C97.0477 445.621 95.6944 445.322 94.5184 444.725C93.3611 444.109 92.4557 443.26 91.8024 442.177C91.1677 441.076 90.8504 439.816 90.8504 438.397C90.8504 436.941 91.1677 435.672 91.8024 434.589C92.4557 433.506 93.3611 432.666 94.5184 432.069C95.6944 431.453 97.0477 431.145 98.5784 431.145C100.146 431.145 101.509 431.453 102.666 432.069C103.824 432.666 104.72 433.506 105.354 434.589C106.008 435.672 106.334 436.941 106.334 438.397C106.334 439.816 106.008 441.076 105.354 442.177C104.72 443.26 103.824 444.109 102.666 444.725C101.509 445.322 100.146 445.621 98.5784 445.621ZM98.5784 442.933C100.277 442.933 101.5 442.55 102.246 441.785C102.993 441.001 103.366 439.872 103.366 438.397C103.366 436.922 102.993 435.793 102.246 435.009C101.5 434.206 100.277 433.805 98.5784 433.805C96.8984 433.805 95.6851 434.206 94.9384 435.009C94.1917 435.793 93.8184 436.922 93.8184 438.397C93.8184 439.872 94.1917 441.001 94.9384 441.785C95.6851 442.55 96.8984 442.933 98.5784 442.933ZM111.553 445.341H108.529V431.425H111.301V435.373L111.553 435.513V445.341ZM111.553 437.529H110.881V435.177H111.497C111.628 434.412 111.889 433.73 112.281 433.133C112.673 432.517 113.196 432.032 113.849 431.677C114.521 431.322 115.333 431.145 116.285 431.145C117.349 431.145 118.217 431.369 118.889 431.817C119.561 432.265 120.046 432.862 120.345 433.609C120.662 434.356 120.821 435.168 120.821 436.045V437.865H117.825V436.633C117.825 435.625 117.601 434.888 117.153 434.421C116.705 433.954 115.958 433.721 114.913 433.721C113.718 433.721 112.86 434.048 112.337 434.701C111.814 435.354 111.553 436.297 111.553 437.529ZM137.392 445.341H133.836L129.72 439.657H124.4V436.941H129.72L133.892 431.425H137.42L132.184 438.117L137.392 445.341ZM125.744 445.341H122.72V426.581H125.744V445.341ZM156.853 445.341H154.081V441.757L153.885 441.673V436.913C153.885 435.756 153.605 434.953 153.045 434.505C152.504 434.038 151.561 433.805 150.217 433.805C148.929 433.805 147.968 434.029 147.333 434.477C146.698 434.925 146.381 435.662 146.381 436.689V436.801H143.385V436.689C143.385 435.625 143.665 434.682 144.225 433.861C144.785 433.021 145.588 432.358 146.633 431.873C147.697 431.388 148.966 431.145 150.441 431.145C151.916 431.145 153.12 431.397 154.053 431.901C155.005 432.386 155.705 433.058 156.153 433.917C156.62 434.776 156.853 435.765 156.853 436.885V445.341ZM147.781 445.621C146.344 445.621 145.196 445.304 144.337 444.669C143.497 444.016 143.077 443.12 143.077 441.981C143.077 441.253 143.254 440.646 143.609 440.161C143.982 439.657 144.505 439.265 145.177 438.985C145.849 438.705 146.642 438.509 147.557 438.397L154.165 437.697V439.489L148.425 440.133C147.641 440.226 147.053 440.394 146.661 440.637C146.288 440.861 146.101 441.244 146.101 441.785C146.101 442.345 146.297 442.765 146.689 443.045C147.1 443.306 147.734 443.437 148.593 443.437C149.657 443.437 150.581 443.306 151.365 443.045C152.149 442.765 152.765 442.336 153.213 441.757C153.661 441.178 153.885 440.432 153.885 439.517L154.277 439.573V441.869H153.885C153.512 443.045 152.793 443.969 151.729 444.641C150.684 445.294 149.368 445.621 147.781 445.621ZM168.68 445.341H165.488C163.995 445.341 162.81 444.977 161.932 444.249C161.074 443.521 160.644 442.317 160.644 440.637V428.373H163.64V440.469C163.64 441.328 163.846 441.906 164.256 442.205C164.667 442.485 165.302 442.625 166.16 442.625H168.68V445.341ZM168.68 433.945H158.292V431.425H168.68V433.945ZM184.065 445.341H176.505V442.625H184.065C185.521 442.625 186.706 442.41 187.621 441.981C188.554 441.533 189.245 440.824 189.693 439.853C190.141 438.864 190.365 437.566 190.365 435.961C190.365 434.337 190.141 433.04 189.693 432.069C189.245 431.098 188.554 430.398 187.621 429.969C186.706 429.521 185.521 429.297 184.065 429.297H176.505V426.581H184.065C186.025 426.581 187.705 426.964 189.105 427.729C190.524 428.476 191.616 429.549 192.381 430.949C193.165 432.349 193.557 434.02 193.557 435.961C193.557 437.902 193.165 439.573 192.381 440.973C191.616 442.373 190.524 443.456 189.105 444.221C187.705 444.968 186.025 445.341 184.065 445.341ZM178.521 445.341H175.525V426.581H178.521V445.341ZM202.922 445.621C201.391 445.621 200.038 445.322 198.862 444.725C197.705 444.109 196.799 443.26 196.146 442.177C195.511 441.076 195.194 439.816 195.194 438.397C195.194 436.941 195.511 435.672 196.146 434.589C196.799 433.506 197.705 432.666 198.862 432.069C200.038 431.453 201.391 431.145 202.922 431.145C204.49 431.145 205.853 431.453 207.01 432.069C208.167 432.666 209.063 433.506 209.698 434.589C210.351 435.672 210.678 436.941 210.678 438.397C210.678 439.816 210.351 441.076 209.698 442.177C209.063 443.26 208.167 444.109 207.01 444.725C205.853 445.322 204.49 445.621 202.922 445.621ZM202.922 442.933C204.621 442.933 205.843 442.55 206.59 441.785C207.337 441.001 207.71 439.872 207.71 438.397C207.71 436.922 207.337 435.793 206.59 435.009C205.843 434.206 204.621 433.805 202.922 433.805C201.242 433.805 200.029 434.206 199.282 435.009C198.535 435.793 198.162 436.922 198.162 438.397C198.162 439.872 198.535 441.001 199.282 441.785C200.029 442.55 201.242 442.933 202.922 442.933ZM237.485 445.341H234.489V437.781C234.489 436.4 234.199 435.401 233.621 434.785C233.042 434.169 232.071 433.861 230.709 433.861C229.234 433.861 228.189 434.244 227.573 435.009C226.975 435.756 226.677 436.904 226.677 438.453L226.145 438.481L225.977 435.737H226.593C226.723 434.934 226.994 434.188 227.405 433.497C227.815 432.806 228.403 432.246 229.169 431.817C229.934 431.369 230.895 431.145 232.053 431.145C233.266 431.145 234.274 431.397 235.077 431.901C235.879 432.405 236.477 433.096 236.869 433.973C237.279 434.85 237.485 435.849 237.485 436.969V445.341ZM215.897 445.341H212.873V431.425H215.645V435.793L215.897 435.933V445.341ZM226.677 445.341H223.681V437.781C223.681 436.4 223.391 435.401 222.813 434.785C222.234 434.169 221.273 433.861 219.929 433.861C218.435 433.861 217.39 434.244 216.793 435.009C216.195 435.756 215.897 436.904 215.897 438.453L215.365 438.481L215.225 435.625H215.813C215.943 434.841 216.205 434.113 216.597 433.441C216.989 432.769 217.558 432.218 218.305 431.789C219.051 431.36 220.003 431.145 221.161 431.145C222.374 431.145 223.373 431.406 224.157 431.929C224.941 432.433 225.529 433.124 225.921 434.001C226.313 434.878 226.509 435.868 226.509 436.969H226.677V445.341ZM243.213 445.341H240.189V431.425H243.213V445.341ZM243.213 429.801H240.189V426.581H243.213V429.801ZM260.545 445.341H257.521V437.781C257.521 436.474 257.204 435.494 256.569 434.841C255.953 434.188 254.917 433.861 253.461 433.861C251.949 433.861 250.829 434.253 250.101 435.037C249.392 435.802 249.037 436.941 249.037 438.453L248.505 438.481L248.365 435.737H248.981C249.131 434.953 249.429 434.216 249.877 433.525C250.344 432.816 250.979 432.246 251.781 431.817C252.603 431.369 253.601 431.145 254.777 431.145C256.065 431.145 257.139 431.406 257.997 431.929C258.856 432.452 259.491 433.152 259.901 434.029C260.331 434.906 260.545 435.886 260.545 436.969V445.341ZM249.037 445.341H246.013V431.425H248.785V435.793L249.037 435.933V445.341ZM270.352 445.621C268.821 445.621 267.468 445.322 266.292 444.725C265.135 444.109 264.229 443.26 263.576 442.177C262.941 441.076 262.624 439.816 262.624 438.397C262.624 436.941 262.941 435.672 263.576 434.589C264.229 433.506 265.135 432.666 266.292 432.069C267.468 431.453 268.821 431.145 270.352 431.145C271.92 431.145 273.283 431.453 274.44 432.069C275.597 432.666 276.493 433.506 277.128 434.589C277.781 435.672 278.108 436.941 278.108 438.397C278.108 439.816 277.781 441.076 277.128 442.177C276.493 443.26 275.597 444.109 274.44 444.725C273.283 445.322 271.92 445.621 270.352 445.621ZM270.352 442.933C272.051 442.933 273.273 442.55 274.02 441.785C274.767 441.001 275.14 439.872 275.14 438.397C275.14 436.922 274.767 435.793 274.02 435.009C273.273 434.206 272.051 433.805 270.352 433.805C268.672 433.805 267.459 434.206 266.712 435.009C265.965 435.793 265.592 436.922 265.592 438.397C265.592 439.872 265.965 441.001 266.712 441.785C267.459 442.55 268.672 442.933 270.352 442.933ZM283.55 430.921H279.742V426.581H283.55V430.921ZM280.806 434.085H279.798V432.237H280.722C280.965 432.237 281.142 432.19 281.254 432.097C281.366 432.004 281.422 431.808 281.422 431.509V430.277H283.55V431.481C283.55 432.358 283.308 433.012 282.822 433.441C282.356 433.87 281.684 434.085 280.806 434.085ZM292.378 445.621C290.138 445.621 288.402 445.192 287.17 444.333C285.957 443.474 285.35 442.242 285.35 440.637V440.553H288.374V440.777C288.374 441.692 288.673 442.326 289.27 442.681C289.886 443.017 290.922 443.185 292.378 443.185C293.741 443.185 294.665 443.045 295.15 442.765C295.654 442.466 295.906 442.009 295.906 441.393C295.906 440.814 295.71 440.404 295.318 440.161C294.945 439.918 294.254 439.732 293.246 439.601L289.438 439.097C288.113 438.929 287.077 438.556 286.33 437.977C285.584 437.38 285.21 436.493 285.21 435.317C285.21 434.496 285.453 433.777 285.938 433.161C286.424 432.526 287.152 432.032 288.122 431.677C289.093 431.322 290.288 431.145 291.706 431.145C293.125 431.145 294.338 431.332 295.346 431.705C296.373 432.078 297.157 432.638 297.698 433.385C298.258 434.132 298.538 435.056 298.538 436.157V436.241H295.542V436.073C295.542 435.532 295.43 435.074 295.206 434.701C294.982 434.328 294.581 434.048 294.002 433.861C293.442 433.656 292.649 433.553 291.622 433.553C290.334 433.553 289.438 433.702 288.934 434.001C288.43 434.3 288.178 434.776 288.178 435.429C288.178 435.97 288.365 436.362 288.738 436.605C289.112 436.848 289.812 437.044 290.838 437.193L294.058 437.641C295.701 437.846 296.914 438.248 297.698 438.845C298.482 439.442 298.874 440.32 298.874 441.477C298.874 442.336 298.604 443.082 298.062 443.717C297.521 444.333 296.765 444.809 295.794 445.145C294.824 445.462 293.685 445.621 292.378 445.621ZM304.304 445.341H300.496V441.001H304.304V445.341Z" fill="white"/>
</svg>
