<svg width="856" height="391" viewBox="0 0 856 391" fill="none" xmlns="http://www.w3.org/2000/svg">
<rect x="1" y="1" width="854" height="389" rx="31" fill="black" stroke="white" stroke-width="2"/>
<path d="M54.424 173H51.4V154.24H54.424V173ZM71.1374 173H67.9454C66.452 173 65.2667 172.636 64.3894 171.908C63.5307 171.18 63.1014 169.976 63.1014 168.296V156.032H66.0974V168.128C66.0974 168.987 66.3027 169.565 66.7134 169.864C67.124 170.144 67.7587 170.284 68.6174 170.284H71.1374V173ZM71.1374 161.604H60.7494V159.084H71.1374V161.604ZM87.6729 173H84.6769V165.44C84.6769 164.04 84.3502 163.041 83.6969 162.444C83.0436 161.828 81.9889 161.52 80.5329 161.52C79.4316 161.52 78.5542 161.716 77.9009 162.108C77.2476 162.481 76.7716 163.023 76.4729 163.732C76.1929 164.423 76.0529 165.263 76.0529 166.252L75.4649 166.28L75.6049 163.34H76.2209C76.3889 162.556 76.6876 161.819 77.1169 161.128C77.5649 160.437 78.1902 159.877 78.9929 159.448C79.7956 159.019 80.7849 158.804 81.9609 158.804C83.2302 158.804 84.2849 159.065 85.1249 159.588C85.9836 160.092 86.6182 160.792 87.0289 161.688C87.4582 162.565 87.6729 163.573 87.6729 164.712V173ZM76.0529 173H73.0289V154.24H76.0529V173ZM93.4162 173H90.3922V159.084H93.4162V173ZM93.4162 157.46H90.3922V154.24H93.4162V157.46ZM110.748 173H107.724V165.44C107.724 164.133 107.407 163.153 106.772 162.5C106.156 161.847 105.12 161.52 103.664 161.52C102.152 161.52 101.032 161.912 100.304 162.696C99.5951 163.461 99.2404 164.6 99.2404 166.112L98.7084 166.14L98.5684 163.396H99.1844C99.3337 162.612 99.6324 161.875 100.08 161.184C100.547 160.475 101.182 159.905 101.984 159.476C102.806 159.028 103.804 158.804 104.98 158.804C106.268 158.804 107.342 159.065 108.2 159.588C109.059 160.111 109.694 160.811 110.104 161.688C110.534 162.565 110.748 163.545 110.748 164.628V173ZM99.2404 173H96.2164V159.084H98.9884V163.452L99.2404 163.592V173ZM128.115 173H124.559L120.443 167.316H115.123V164.6H120.443L124.615 159.084H128.143L122.907 165.776L128.115 173ZM116.467 173H113.443V154.24H116.467V173ZM136.656 177.76H134.668V175.016H137.384C138 175.016 138.457 174.913 138.756 174.708C139.073 174.521 139.334 174.195 139.54 173.728L140.408 171.852L140.072 173.392L133.016 159.084H136.404L139.96 166.476L141.332 169.808H141.556L142.872 166.448L146.148 159.084H149.48L142.228 174.512C141.854 175.333 141.416 175.977 140.912 176.444C140.408 176.929 139.81 177.265 139.12 177.452C138.429 177.657 137.608 177.76 136.656 177.76ZM158.071 173.28C156.54 173.28 155.187 172.981 154.011 172.384C152.853 171.768 151.948 170.919 151.295 169.836C150.66 168.735 150.343 167.475 150.343 166.056C150.343 164.6 150.66 163.331 151.295 162.248C151.948 161.165 152.853 160.325 154.011 159.728C155.187 159.112 156.54 158.804 158.071 158.804C159.639 158.804 161.001 159.112 162.159 159.728C163.316 160.325 164.212 161.165 164.847 162.248C165.5 163.331 165.827 164.6 165.827 166.056C165.827 167.475 165.5 168.735 164.847 169.836C164.212 170.919 163.316 171.768 162.159 172.384C161.001 172.981 159.639 173.28 158.071 173.28ZM158.071 170.592C159.769 170.592 160.992 170.209 161.739 169.444C162.485 168.66 162.859 167.531 162.859 166.056C162.859 164.581 162.485 163.452 161.739 162.668C160.992 161.865 159.769 161.464 158.071 161.464C156.391 161.464 155.177 161.865 154.431 162.668C153.684 163.452 153.311 164.581 153.311 166.056C153.311 167.531 153.684 168.66 154.431 169.444C155.177 170.209 156.391 170.592 158.071 170.592ZM173.817 173.28C172.51 173.28 171.428 173.019 170.569 172.496C169.71 171.973 169.066 171.273 168.637 170.396C168.208 169.519 167.993 168.539 167.993 167.456V159.084H170.989V166.644C170.989 167.932 171.306 168.912 171.941 169.584C172.594 170.237 173.658 170.564 175.133 170.564C176.682 170.564 177.812 170.181 178.521 169.416C179.249 168.632 179.613 167.484 179.613 165.972L180.145 165.944L180.313 168.688H179.669C179.538 169.472 179.24 170.209 178.773 170.9C178.306 171.591 177.662 172.16 176.841 172.608C176.038 173.056 175.03 173.28 173.817 173.28ZM182.637 173H179.865V168.632L179.613 168.492V159.084H182.637V173ZM193.194 173H190.17V154.24H193.194V173ZM209.154 173H206.382V169.416L206.186 169.332V164.572C206.186 163.415 205.906 162.612 205.346 162.164C204.804 161.697 203.862 161.464 202.518 161.464C201.23 161.464 200.268 161.688 199.634 162.136C198.999 162.584 198.682 163.321 198.682 164.348V164.46H195.686V164.348C195.686 163.284 195.966 162.341 196.526 161.52C197.086 160.68 197.888 160.017 198.934 159.532C199.998 159.047 201.267 158.804 202.742 158.804C204.216 158.804 205.42 159.056 206.354 159.56C207.306 160.045 208.006 160.717 208.454 161.576C208.92 162.435 209.154 163.424 209.154 164.544V173ZM200.082 173.28C198.644 173.28 197.496 172.963 196.638 172.328C195.798 171.675 195.378 170.779 195.378 169.64C195.378 168.912 195.555 168.305 195.91 167.82C196.283 167.316 196.806 166.924 197.478 166.644C198.15 166.364 198.943 166.168 199.858 166.056L206.466 165.356V167.148L200.726 167.792C199.942 167.885 199.354 168.053 198.962 168.296C198.588 168.52 198.402 168.903 198.402 169.444C198.402 170.004 198.598 170.424 198.99 170.704C199.4 170.965 200.035 171.096 200.894 171.096C201.958 171.096 202.882 170.965 203.666 170.704C204.45 170.424 205.066 169.995 205.514 169.416C205.962 168.837 206.186 168.091 206.186 167.176L206.578 167.232V169.528H206.186C205.812 170.704 205.094 171.628 204.03 172.3C202.984 172.953 201.668 173.28 200.082 173.28ZM217.649 173.28C216.342 173.28 215.26 173.019 214.401 172.496C213.542 171.973 212.898 171.273 212.469 170.396C212.04 169.519 211.825 168.539 211.825 167.456V159.084H214.821V166.644C214.821 167.932 215.138 168.912 215.773 169.584C216.426 170.237 217.49 170.564 218.965 170.564C220.514 170.564 221.644 170.181 222.353 169.416C223.081 168.632 223.445 167.484 223.445 165.972L223.977 165.944L224.145 168.688H223.501C223.37 169.472 223.072 170.209 222.605 170.9C222.138 171.591 221.494 172.16 220.673 172.608C219.87 173.056 218.862 173.28 217.649 173.28ZM226.469 173H223.697V168.632L223.445 168.492V159.084H226.469V173ZM236.524 178.04C235.143 178.04 233.93 177.825 232.884 177.396C231.839 176.985 231.018 176.388 230.42 175.604C229.842 174.82 229.552 173.868 229.552 172.748H232.548C232.548 173.42 232.688 173.961 232.968 174.372C233.248 174.783 233.687 175.072 234.284 175.24C234.9 175.427 235.703 175.52 236.692 175.52C237.756 175.52 238.596 175.399 239.212 175.156C239.847 174.932 240.304 174.531 240.584 173.952C240.864 173.373 241.004 172.571 241.004 171.544V163.396L241.228 163.2V159.084H244V171.376C244 172.925 243.692 174.185 243.076 175.156C242.46 176.145 241.592 176.873 240.472 177.34C239.352 177.807 238.036 178.04 236.524 178.04ZM235.264 171.74C233.883 171.74 232.698 171.469 231.708 170.928C230.738 170.387 229.982 169.631 229.44 168.66C228.918 167.689 228.656 166.56 228.656 165.272C228.656 163.984 228.927 162.855 229.468 161.884C230.028 160.913 230.812 160.157 231.82 159.616C232.847 159.075 234.06 158.804 235.46 158.804C236.916 158.804 238.148 159.131 239.156 159.784C240.183 160.419 240.818 161.343 241.06 162.556H241.704L241.536 164.992H241.004C241.004 164.208 240.818 163.555 240.444 163.032C240.071 162.491 239.539 162.089 238.848 161.828C238.158 161.567 237.318 161.436 236.328 161.436C235.376 161.436 234.546 161.557 233.836 161.8C233.146 162.043 232.614 162.444 232.24 163.004C231.886 163.545 231.708 164.301 231.708 165.272C231.708 166.224 231.886 166.98 232.24 167.54C232.595 168.1 233.108 168.511 233.78 168.772C234.471 169.015 235.292 169.136 236.244 169.136C237.775 169.136 238.951 168.819 239.772 168.184C240.594 167.549 241.004 166.616 241.004 165.384H241.536V168.128H240.808C240.566 169.192 239.978 170.06 239.044 170.732C238.111 171.404 236.851 171.74 235.264 171.74ZM261.442 173H258.446V165.44C258.446 164.04 258.12 163.041 257.466 162.444C256.813 161.828 255.758 161.52 254.302 161.52C253.201 161.52 252.324 161.716 251.67 162.108C251.017 162.481 250.541 163.023 250.242 163.732C249.962 164.423 249.822 165.263 249.822 166.252L249.234 166.28L249.374 163.34H249.99C250.158 162.556 250.457 161.819 250.886 161.128C251.334 160.437 251.96 159.877 252.762 159.448C253.565 159.019 254.554 158.804 255.73 158.804C257 158.804 258.054 159.065 258.894 159.588C259.753 160.092 260.388 160.792 260.798 161.688C261.228 162.565 261.442 163.573 261.442 164.712V173ZM249.822 173H246.798V154.24H249.822V173ZM271.162 173.28C269.65 173.28 268.324 173 267.186 172.44C266.047 171.88 265.16 171.059 264.526 169.976C263.91 168.893 263.602 167.587 263.602 166.056C263.602 164.6 263.91 163.331 264.526 162.248C265.16 161.165 266.038 160.325 267.158 159.728C268.278 159.112 269.594 158.804 271.106 158.804C272.543 158.804 273.803 159.065 274.886 159.588C275.987 160.092 276.836 160.839 277.434 161.828C278.05 162.799 278.358 163.993 278.358 165.412C278.358 165.655 278.348 165.888 278.33 166.112C278.311 166.317 278.283 166.523 278.246 166.728H265.534V165.048H276.258L275.474 166.084C275.492 165.897 275.502 165.72 275.502 165.552C275.502 165.365 275.502 165.179 275.502 164.992C275.502 163.704 275.128 162.752 274.382 162.136C273.654 161.501 272.543 161.184 271.05 161.184C269.388 161.184 268.203 161.567 267.494 162.332C266.784 163.097 266.43 164.199 266.43 165.636V166.364C266.43 167.82 266.784 168.931 267.494 169.696C268.203 170.461 269.398 170.844 271.078 170.844C272.534 170.844 273.579 170.62 274.214 170.172C274.867 169.705 275.194 169.061 275.194 168.24V168.016H278.218V168.268C278.218 169.257 277.91 170.135 277.294 170.9C276.696 171.647 275.866 172.235 274.802 172.664C273.756 173.075 272.543 173.28 271.162 173.28ZM286.755 173.28C285.28 173.28 284.029 172.981 283.003 172.384C281.995 171.768 281.229 170.919 280.707 169.836C280.184 168.735 279.923 167.475 279.923 166.056C279.923 164.6 280.184 163.331 280.707 162.248C281.229 161.165 281.985 160.325 282.975 159.728C283.964 159.112 285.159 158.804 286.559 158.804C288.201 158.804 289.499 159.187 290.451 159.952C291.403 160.717 292.019 161.688 292.299 162.864H292.999V165.972H292.467C292.467 164.497 292.047 163.396 291.207 162.668C290.367 161.921 289.172 161.548 287.623 161.548C286.671 161.548 285.84 161.697 285.131 161.996C284.421 162.276 283.88 162.743 283.507 163.396C283.152 164.049 282.975 164.936 282.975 166.056C282.975 167.157 283.152 168.035 283.507 168.688C283.88 169.341 284.421 169.808 285.131 170.088C285.84 170.368 286.689 170.508 287.679 170.508C288.668 170.508 289.517 170.359 290.227 170.06C290.955 169.743 291.505 169.257 291.879 168.604C292.271 167.951 292.467 167.148 292.467 166.196H292.999L293.195 168.996H292.523C292.243 170.377 291.599 171.441 290.591 172.188C289.601 172.916 288.323 173.28 286.755 173.28ZM295.491 173H292.719V168.632L292.467 168.268V154.24H295.491V173ZM312.2 173H309.008C307.515 173 306.329 172.636 305.452 171.908C304.593 171.18 304.164 169.976 304.164 168.296V156.032H307.16V168.128C307.16 168.987 307.365 169.565 307.776 169.864C308.187 170.144 308.821 170.284 309.68 170.284H312.2V173ZM312.2 161.604H301.812V159.084H312.2V161.604ZM321.203 173.28C319.673 173.28 318.319 172.981 317.143 172.384C315.986 171.768 315.081 170.919 314.427 169.836C313.793 168.735 313.475 167.475 313.475 166.056C313.475 164.6 313.793 163.331 314.427 162.248C315.081 161.165 315.986 160.325 317.143 159.728C318.319 159.112 319.673 158.804 321.203 158.804C322.771 158.804 324.134 159.112 325.291 159.728C326.449 160.325 327.345 161.165 327.979 162.248C328.633 163.331 328.959 164.6 328.959 166.056C328.959 167.475 328.633 168.735 327.979 169.836C327.345 170.919 326.449 171.768 325.291 172.384C324.134 172.981 322.771 173.28 321.203 173.28ZM321.203 170.592C322.902 170.592 324.125 170.209 324.871 169.444C325.618 168.66 325.991 167.531 325.991 166.056C325.991 164.581 325.618 163.452 324.871 162.668C324.125 161.865 322.902 161.464 321.203 161.464C319.523 161.464 318.31 161.865 317.563 162.668C316.817 163.452 316.443 164.581 316.443 166.056C316.443 167.531 316.817 168.66 317.563 169.444C318.31 170.209 319.523 170.592 321.203 170.592ZM338.266 173.28C336.735 173.28 335.382 172.981 334.206 172.384C333.049 171.768 332.143 170.919 331.49 169.836C330.855 168.735 330.538 167.475 330.538 166.056C330.538 164.6 330.855 163.331 331.49 162.248C332.143 161.165 333.049 160.325 334.206 159.728C335.382 159.112 336.735 158.804 338.266 158.804C339.834 158.804 341.197 159.112 342.354 159.728C343.511 160.325 344.407 161.165 345.042 162.248C345.695 163.331 346.022 164.6 346.022 166.056C346.022 167.475 345.695 168.735 345.042 169.836C344.407 170.919 343.511 171.768 342.354 172.384C341.197 172.981 339.834 173.28 338.266 173.28ZM338.266 170.592C339.965 170.592 341.187 170.209 341.934 169.444C342.681 168.66 343.054 167.531 343.054 166.056C343.054 164.581 342.681 163.452 341.934 162.668C341.187 161.865 339.965 161.464 338.266 161.464C336.586 161.464 335.373 161.865 334.626 162.668C333.879 163.452 333.506 164.581 333.506 166.056C333.506 167.531 333.879 168.66 334.626 169.444C335.373 170.209 336.586 170.592 338.266 170.592ZM377.614 173H374.618V165.44C374.618 164.059 374.328 163.06 373.75 162.444C373.171 161.828 372.2 161.52 370.838 161.52C369.363 161.52 368.318 161.903 367.702 162.668C367.104 163.415 366.806 164.563 366.806 166.112L366.274 166.14L366.106 163.396H366.722C366.852 162.593 367.123 161.847 367.534 161.156C367.944 160.465 368.532 159.905 369.298 159.476C370.063 159.028 371.024 158.804 372.182 158.804C373.395 158.804 374.403 159.056 375.206 159.56C376.008 160.064 376.606 160.755 376.998 161.632C377.408 162.509 377.614 163.508 377.614 164.628V173ZM356.026 173H353.002V159.084H355.774V163.452L356.026 163.592V173ZM366.806 173H363.81V165.44C363.81 164.059 363.52 163.06 362.942 162.444C362.363 161.828 361.402 161.52 360.058 161.52C358.564 161.52 357.519 161.903 356.922 162.668C356.324 163.415 356.026 164.563 356.026 166.112L355.494 166.14L355.354 163.284H355.942C356.072 162.5 356.334 161.772 356.726 161.1C357.118 160.428 357.687 159.877 358.434 159.448C359.18 159.019 360.132 158.804 361.29 158.804C362.503 158.804 363.502 159.065 364.286 159.588C365.07 160.092 365.658 160.783 366.05 161.66C366.442 162.537 366.638 163.527 366.638 164.628H366.806V173ZM386.114 173.28C384.807 173.28 383.725 173.019 382.866 172.496C382.007 171.973 381.363 171.273 380.934 170.396C380.505 169.519 380.29 168.539 380.29 167.456V159.084H383.286V166.644C383.286 167.932 383.603 168.912 384.238 169.584C384.891 170.237 385.955 170.564 387.43 170.564C388.979 170.564 390.109 170.181 390.818 169.416C391.546 168.632 391.91 167.484 391.91 165.972L392.442 165.944L392.61 168.688H391.966C391.835 169.472 391.537 170.209 391.07 170.9C390.603 171.591 389.959 172.16 389.138 172.608C388.335 173.056 387.327 173.28 386.114 173.28ZM394.934 173H392.162V168.632L391.91 168.492V159.084H394.934V173ZM404.709 173.28C403.179 173.28 401.844 172.981 400.705 172.384C399.567 171.768 398.68 170.919 398.045 169.836C397.429 168.735 397.121 167.475 397.121 166.056C397.121 164.6 397.429 163.331 398.045 162.248C398.68 161.165 399.567 160.325 400.705 159.728C401.844 159.112 403.179 158.804 404.709 158.804C406.109 158.804 407.351 159.047 408.433 159.532C409.516 160.017 410.365 160.699 410.981 161.576C411.616 162.435 411.933 163.452 411.933 164.628V164.908H408.937V164.74C408.937 163.657 408.564 162.855 407.817 162.332C407.071 161.791 406.016 161.52 404.653 161.52C403.085 161.52 401.937 161.903 401.209 162.668C400.481 163.415 400.117 164.544 400.117 166.056C400.117 167.549 400.481 168.679 401.209 169.444C401.937 170.191 403.085 170.564 404.653 170.564C406.016 170.564 407.071 170.303 407.817 169.78C408.564 169.239 408.937 168.427 408.937 167.344V167.148H411.933V167.456C411.933 168.613 411.616 169.631 410.981 170.508C410.365 171.385 409.516 172.067 408.433 172.552C407.351 173.037 406.109 173.28 404.709 173.28ZM428.814 173H425.818V165.44C425.818 164.04 425.491 163.041 424.838 162.444C424.184 161.828 423.13 161.52 421.674 161.52C420.572 161.52 419.695 161.716 419.042 162.108C418.388 162.481 417.912 163.023 417.614 163.732C417.334 164.423 417.194 165.263 417.194 166.252L416.606 166.28L416.746 163.34H417.362C417.53 162.556 417.828 161.819 418.258 161.128C418.706 160.437 419.331 159.877 420.134 159.448C420.936 159.019 421.926 158.804 423.102 158.804C424.371 158.804 425.426 159.065 426.266 159.588C427.124 160.092 427.759 160.792 428.17 161.688C428.599 162.565 428.814 163.573 428.814 164.712V173ZM417.194 173H414.17V154.24H417.194V173ZM449.478 173H446.706V169.416L446.51 169.332V164.572C446.51 163.415 446.23 162.612 445.67 162.164C445.129 161.697 444.186 161.464 442.842 161.464C441.554 161.464 440.593 161.688 439.958 162.136C439.323 162.584 439.006 163.321 439.006 164.348V164.46H436.01V164.348C436.01 163.284 436.29 162.341 436.85 161.52C437.41 160.68 438.213 160.017 439.258 159.532C440.322 159.047 441.591 158.804 443.066 158.804C444.541 158.804 445.745 159.056 446.678 159.56C447.63 160.045 448.33 160.717 448.778 161.576C449.245 162.435 449.478 163.424 449.478 164.544V173ZM440.406 173.28C438.969 173.28 437.821 172.963 436.962 172.328C436.122 171.675 435.702 170.779 435.702 169.64C435.702 168.912 435.879 168.305 436.234 167.82C436.607 167.316 437.13 166.924 437.802 166.644C438.474 166.364 439.267 166.168 440.182 166.056L446.79 165.356V167.148L441.05 167.792C440.266 167.885 439.678 168.053 439.286 168.296C438.913 168.52 438.726 168.903 438.726 169.444C438.726 170.004 438.922 170.424 439.314 170.704C439.725 170.965 440.359 171.096 441.218 171.096C442.282 171.096 443.206 170.965 443.99 170.704C444.774 170.424 445.39 169.995 445.838 169.416C446.286 168.837 446.51 168.091 446.51 167.176L446.902 167.232V169.528H446.51C446.137 170.704 445.418 171.628 444.354 172.3C443.309 172.953 441.993 173.28 440.406 173.28ZM461.305 173H458.113C456.62 173 455.435 172.636 454.557 171.908C453.699 171.18 453.269 169.976 453.269 168.296V156.032H456.265V168.128C456.265 168.987 456.471 169.565 456.881 169.864C457.292 170.144 457.927 170.284 458.785 170.284H461.305V173ZM461.305 161.604H450.917V159.084H461.305V161.604ZM477.11 173H473.918C472.425 173 471.239 172.636 470.362 171.908C469.503 171.18 469.074 169.976 469.074 168.296V156.032H472.07V168.128C472.07 168.987 472.275 169.565 472.686 169.864C473.097 170.144 473.731 170.284 474.59 170.284H477.11V173ZM477.11 161.604H466.722V159.084H477.11V161.604ZM493.646 173H490.65V165.44C490.65 164.04 490.323 163.041 489.67 162.444C489.016 161.828 487.962 161.52 486.506 161.52C485.404 161.52 484.527 161.716 483.874 162.108C483.22 162.481 482.744 163.023 482.446 163.732C482.166 164.423 482.026 165.263 482.026 166.252L481.438 166.28L481.578 163.34H482.194C482.362 162.556 482.66 161.819 483.09 161.128C483.538 160.437 484.163 159.877 484.966 159.448C485.768 159.019 486.758 158.804 487.934 158.804C489.203 158.804 490.258 159.065 491.098 159.588C491.956 160.092 492.591 160.792 493.002 161.688C493.431 162.565 493.646 163.573 493.646 164.712V173ZM482.026 173H479.002V154.24H482.026V173ZM509.525 173H506.753V169.416L506.557 169.332V164.572C506.557 163.415 506.277 162.612 505.717 162.164C505.176 161.697 504.233 161.464 502.889 161.464C501.601 161.464 500.64 161.688 500.005 162.136C499.37 162.584 499.053 163.321 499.053 164.348V164.46H496.057V164.348C496.057 163.284 496.337 162.341 496.897 161.52C497.457 160.68 498.26 160.017 499.305 159.532C500.369 159.047 501.638 158.804 503.113 158.804C504.588 158.804 505.792 159.056 506.725 159.56C507.677 160.045 508.377 160.717 508.825 161.576C509.292 162.435 509.525 163.424 509.525 164.544V173ZM500.453 173.28C499.016 173.28 497.868 172.963 497.009 172.328C496.169 171.675 495.749 170.779 495.749 169.64C495.749 168.912 495.926 168.305 496.281 167.82C496.654 167.316 497.177 166.924 497.849 166.644C498.521 166.364 499.314 166.168 500.229 166.056L506.837 165.356V167.148L501.097 167.792C500.313 167.885 499.725 168.053 499.333 168.296C498.96 168.52 498.773 168.903 498.773 169.444C498.773 170.004 498.969 170.424 499.361 170.704C499.772 170.965 500.406 171.096 501.265 171.096C502.329 171.096 503.253 170.965 504.037 170.704C504.821 170.424 505.437 169.995 505.885 169.416C506.333 168.837 506.557 168.091 506.557 167.176L506.949 167.232V169.528H506.557C506.184 170.704 505.465 171.628 504.401 172.3C503.356 172.953 502.04 173.28 500.453 173.28ZM521.352 173H518.16C516.667 173 515.482 172.636 514.604 171.908C513.746 171.18 513.316 169.976 513.316 168.296V156.032H516.312V168.128C516.312 168.987 516.518 169.565 516.928 169.864C517.339 170.144 517.974 170.284 518.832 170.284H521.352V173ZM521.352 161.604H510.964V159.084H521.352V161.604ZM541.189 173H538.417V169.416L538.221 169.332V164.572C538.221 163.415 537.941 162.612 537.381 162.164C536.84 161.697 535.897 161.464 534.553 161.464C533.265 161.464 532.304 161.688 531.669 162.136C531.034 162.584 530.717 163.321 530.717 164.348V164.46H527.721V164.348C527.721 163.284 528.001 162.341 528.561 161.52C529.121 160.68 529.924 160.017 530.969 159.532C532.033 159.047 533.302 158.804 534.777 158.804C536.252 158.804 537.456 159.056 538.389 159.56C539.341 160.045 540.041 160.717 540.489 161.576C540.956 162.435 541.189 163.424 541.189 164.544V173ZM532.117 173.28C530.68 173.28 529.532 172.963 528.673 172.328C527.833 171.675 527.413 170.779 527.413 169.64C527.413 168.912 527.59 168.305 527.945 167.82C528.318 167.316 528.841 166.924 529.513 166.644C530.185 166.364 530.978 166.168 531.893 166.056L538.501 165.356V167.148L532.761 167.792C531.977 167.885 531.389 168.053 530.997 168.296C530.624 168.52 530.437 168.903 530.437 169.444C530.437 170.004 530.633 170.424 531.025 170.704C531.436 170.965 532.07 171.096 532.929 171.096C533.993 171.096 534.917 170.965 535.701 170.704C536.485 170.424 537.101 169.995 537.549 169.416C537.997 168.837 538.221 168.091 538.221 167.176L538.613 167.232V169.528H538.221C537.848 170.704 537.129 171.628 536.065 172.3C535.02 172.953 533.704 173.28 532.117 173.28ZM552.652 173.28C551.066 173.28 549.778 172.916 548.788 172.188C547.799 171.441 547.155 170.377 546.856 168.996H546.184L546.38 166.196H546.912C546.912 167.148 547.099 167.951 547.472 168.604C547.864 169.257 548.415 169.743 549.124 170.06C549.852 170.359 550.711 170.508 551.7 170.508C552.727 170.508 553.586 170.368 554.276 170.088C554.986 169.808 555.518 169.341 555.872 168.688C556.246 168.035 556.432 167.157 556.432 166.056C556.432 164.936 556.246 164.049 555.872 163.396C555.499 162.743 554.967 162.276 554.276 161.996C553.586 161.697 552.746 161.548 551.756 161.548C550.188 161.548 548.984 161.921 548.144 162.668C547.323 163.396 546.912 164.497 546.912 165.972H546.38V162.864H547.08C547.36 161.688 547.967 160.717 548.9 159.952C549.852 159.187 551.159 158.804 552.82 158.804C554.258 158.804 555.462 159.112 556.432 159.728C557.422 160.325 558.168 161.165 558.672 162.248C559.195 163.331 559.456 164.6 559.456 166.056C559.456 167.475 559.195 168.735 558.672 169.836C558.168 170.919 557.403 171.768 556.376 172.384C555.368 172.981 554.127 173.28 552.652 173.28ZM546.66 173H543.888V154.24H546.912V168.268L546.66 168.632V173ZM568.664 173.28C567.134 173.28 565.78 172.981 564.604 172.384C563.447 171.768 562.542 170.919 561.888 169.836C561.254 168.735 560.936 167.475 560.936 166.056C560.936 164.6 561.254 163.331 561.888 162.248C562.542 161.165 563.447 160.325 564.604 159.728C565.78 159.112 567.134 158.804 568.664 158.804C570.232 158.804 571.595 159.112 572.752 159.728C573.91 160.325 574.806 161.165 575.44 162.248C576.094 163.331 576.42 164.6 576.42 166.056C576.42 167.475 576.094 168.735 575.44 169.836C574.806 170.919 573.91 171.768 572.752 172.384C571.595 172.981 570.232 173.28 568.664 173.28ZM568.664 170.592C570.363 170.592 571.586 170.209 572.332 169.444C573.079 168.66 573.452 167.531 573.452 166.056C573.452 164.581 573.079 163.452 572.332 162.668C571.586 161.865 570.363 161.464 568.664 161.464C566.984 161.464 565.771 161.865 565.024 162.668C564.278 163.452 563.904 164.581 563.904 166.056C563.904 167.531 564.278 168.66 565.024 169.444C565.771 170.209 566.984 170.592 568.664 170.592ZM603.227 173H600.231V165.44C600.231 164.059 599.942 163.06 599.363 162.444C598.784 161.828 597.814 161.52 596.451 161.52C594.976 161.52 593.931 161.903 593.315 162.668C592.718 163.415 592.419 164.563 592.419 166.112L591.887 166.14L591.719 163.396H592.335C592.466 162.593 592.736 161.847 593.147 161.156C593.558 160.465 594.146 159.905 594.911 159.476C595.676 159.028 596.638 158.804 597.795 158.804C599.008 158.804 600.016 159.056 600.819 159.56C601.622 160.064 602.219 160.755 602.611 161.632C603.022 162.509 603.227 163.508 603.227 164.628V173ZM581.639 173H578.615V159.084H581.387V163.452L581.639 163.592V173ZM592.419 173H589.423V165.44C589.423 164.059 589.134 163.06 588.555 162.444C587.976 161.828 587.015 161.52 585.671 161.52C584.178 161.52 583.132 161.903 582.535 162.668C581.938 163.415 581.639 164.563 581.639 166.112L581.107 166.14L580.967 163.284H581.555C581.686 162.5 581.947 161.772 582.339 161.1C582.731 160.428 583.3 159.877 584.047 159.448C584.794 159.019 585.746 158.804 586.903 158.804C588.116 158.804 589.115 159.065 589.899 159.588C590.683 160.092 591.271 160.783 591.663 161.66C592.055 162.537 592.251 163.527 592.251 164.628H592.419V173ZM608.955 173H605.931V159.084H608.955V173ZM608.955 157.46H605.931V154.24H608.955V157.46ZM626.287 173H623.263V165.44C623.263 164.133 622.946 163.153 622.311 162.5C621.695 161.847 620.659 161.52 619.203 161.52C617.691 161.52 616.571 161.912 615.843 162.696C615.134 163.461 614.779 164.6 614.779 166.112L614.247 166.14L614.107 163.396H614.723C614.873 162.612 615.171 161.875 615.619 161.184C616.086 160.475 616.721 159.905 617.523 159.476C618.345 159.028 619.343 158.804 620.519 158.804C621.807 158.804 622.881 159.065 623.739 159.588C624.598 160.111 625.233 160.811 625.643 161.688C626.073 162.565 626.287 163.545 626.287 164.628V173ZM614.779 173H611.755V159.084H614.527V163.452L614.779 163.592V173ZM642.142 173H639.37V169.416L639.174 169.332V164.572C639.174 163.415 638.894 162.612 638.334 162.164C637.793 161.697 636.85 161.464 635.506 161.464C634.218 161.464 633.257 161.688 632.622 162.136C631.987 162.584 631.67 163.321 631.67 164.348V164.46H628.674V164.348C628.674 163.284 628.954 162.341 629.514 161.52C630.074 160.68 630.877 160.017 631.922 159.532C632.986 159.047 634.255 158.804 635.73 158.804C637.205 158.804 638.409 159.056 639.342 159.56C640.294 160.045 640.994 160.717 641.442 161.576C641.909 162.435 642.142 163.424 642.142 164.544V173ZM633.07 173.28C631.633 173.28 630.485 172.963 629.626 172.328C628.786 171.675 628.366 170.779 628.366 169.64C628.366 168.912 628.543 168.305 628.898 167.82C629.271 167.316 629.794 166.924 630.466 166.644C631.138 166.364 631.931 166.168 632.846 166.056L639.454 165.356V167.148L633.714 167.792C632.93 167.885 632.342 168.053 631.95 168.296C631.577 168.52 631.39 168.903 631.39 169.444C631.39 170.004 631.586 170.424 631.978 170.704C632.389 170.965 633.023 171.096 633.882 171.096C634.946 171.096 635.87 170.965 636.654 170.704C637.438 170.424 638.054 169.995 638.502 169.416C638.95 168.837 639.174 168.091 639.174 167.176L639.566 167.232V169.528H639.174C638.801 170.704 638.082 171.628 637.018 172.3C635.973 172.953 634.657 173.28 633.07 173.28ZM653.969 173H650.777C649.284 173 648.099 172.636 647.221 171.908C646.363 171.18 645.933 169.976 645.933 168.296V156.032H648.929V168.128C648.929 168.987 649.135 169.565 649.545 169.864C649.956 170.144 650.591 170.284 651.449 170.284H653.969V173ZM653.969 161.604H643.581V159.084H653.969V161.604ZM658.885 173H655.861V159.084H658.885V173ZM658.885 157.46H655.861V154.24H658.885V157.46ZM668.797 173.28C667.266 173.28 665.913 172.981 664.737 172.384C663.58 171.768 662.674 170.919 662.021 169.836C661.386 168.735 661.069 167.475 661.069 166.056C661.069 164.6 661.386 163.331 662.021 162.248C662.674 161.165 663.58 160.325 664.737 159.728C665.913 159.112 667.266 158.804 668.797 158.804C670.365 158.804 671.728 159.112 672.885 159.728C674.042 160.325 674.938 161.165 675.573 162.248C676.226 163.331 676.553 164.6 676.553 166.056C676.553 167.475 676.226 168.735 675.573 169.836C674.938 170.919 674.042 171.768 672.885 172.384C671.728 172.981 670.365 173.28 668.797 173.28ZM668.797 170.592C670.496 170.592 671.718 170.209 672.465 169.444C673.212 168.66 673.585 167.531 673.585 166.056C673.585 164.581 673.212 163.452 672.465 162.668C671.718 161.865 670.496 161.464 668.797 161.464C667.117 161.464 665.904 161.865 665.157 162.668C664.41 163.452 664.037 164.581 664.037 166.056C664.037 167.531 664.41 168.66 665.157 169.444C665.904 170.209 667.117 170.592 668.797 170.592ZM693.28 173H690.256V165.44C690.256 164.133 689.938 163.153 689.304 162.5C688.688 161.847 687.652 161.52 686.196 161.52C684.684 161.52 683.564 161.912 682.836 162.696C682.126 163.461 681.772 164.6 681.772 166.112L681.24 166.14L681.1 163.396H681.716C681.865 162.612 682.164 161.875 682.612 161.184C683.078 160.475 683.713 159.905 684.516 159.476C685.337 159.028 686.336 158.804 687.512 158.804C688.8 158.804 689.873 159.065 690.732 159.588C691.59 160.111 692.225 160.811 692.636 161.688C693.065 162.565 693.28 163.545 693.28 164.628V173ZM681.772 173H678.748V159.084H681.52V163.452L681.772 163.592V173ZM699.222 173H695.414V168.66H699.222V173ZM696.478 176.136H695.47V174.288H696.394C696.637 174.288 696.814 174.241 696.926 174.148C697.038 174.073 697.094 173.887 697.094 173.588V172.356H699.222V173.56C699.222 174.437 698.98 175.081 698.494 175.492C698.028 175.921 697.356 176.136 696.478 176.136ZM60.164 207.28C58.5773 207.28 57.2893 206.916 56.3 206.188C55.3107 205.441 54.6667 204.377 54.368 202.996H53.696L53.892 200.196H54.424C54.424 201.148 54.6107 201.951 54.984 202.604C55.376 203.257 55.9267 203.743 56.636 204.06C57.364 204.359 58.2227 204.508 59.212 204.508C60.2387 204.508 61.0973 204.368 61.788 204.088C62.4973 203.808 63.0293 203.341 63.384 202.688C63.7573 202.035 63.944 201.157 63.944 200.056C63.944 198.936 63.7573 198.049 63.384 197.396C63.0107 196.743 62.4787 196.276 61.788 195.996C61.0973 195.697 60.2573 195.548 59.268 195.548C57.7 195.548 56.496 195.921 55.656 196.668C54.8347 197.396 54.424 198.497 54.424 199.972H53.892V196.864H54.592C54.872 195.688 55.4787 194.717 56.412 193.952C57.364 193.187 58.6707 192.804 60.332 192.804C61.7693 192.804 62.9733 193.112 63.944 193.728C64.9333 194.325 65.68 195.165 66.184 196.248C66.7067 197.331 66.968 198.6 66.968 200.056C66.968 201.475 66.7067 202.735 66.184 203.836C65.68 204.919 64.9147 205.768 63.888 206.384C62.88 206.981 61.6387 207.28 60.164 207.28ZM54.172 207H51.4V188.24H54.424V202.268L54.172 202.632V207ZM74.8601 207.28C73.5534 207.28 72.4707 207.019 71.6121 206.496C70.7534 205.973 70.1094 205.273 69.6801 204.396C69.2507 203.519 69.0361 202.539 69.0361 201.456V193.084H72.0321V200.644C72.0321 201.932 72.3494 202.912 72.9841 203.584C73.6374 204.237 74.7014 204.564 76.1761 204.564C77.7254 204.564 78.8547 204.181 79.5641 203.416C80.2921 202.632 80.6561 201.484 80.6561 199.972L81.1881 199.944L81.3561 202.688H80.7121C80.5814 203.472 80.2827 204.209 79.8161 204.9C79.3494 205.591 78.7054 206.16 77.8841 206.608C77.0814 207.056 76.0734 207.28 74.8601 207.28ZM83.6801 207H80.9081V202.632L80.6561 202.492V193.084H83.6801V207ZM95.5553 207H92.3633C90.87 207 89.6847 206.636 88.8073 205.908C87.9487 205.18 87.5193 203.976 87.5193 202.296V190.032H90.5153V202.128C90.5153 202.987 90.7207 203.565 91.1313 203.864C91.542 204.144 92.1767 204.284 93.0353 204.284H95.5553V207ZM95.5553 195.604H85.1673V193.084H95.5553V195.604ZM105.256 207H102.232V188.24H105.256V207ZM118.973 207.28C117.499 207.28 116.248 206.981 115.221 206.384C114.213 205.768 113.448 204.919 112.925 203.836C112.403 202.735 112.141 201.475 112.141 200.056C112.141 198.6 112.403 197.331 112.925 196.248C113.448 195.165 114.204 194.325 115.193 193.728C116.183 193.112 117.377 192.804 118.777 192.804C120.42 192.804 121.717 193.187 122.669 193.952C123.621 194.717 124.237 195.688 124.517 196.864H125.217V199.972H124.685C124.685 198.497 124.265 197.396 123.425 196.668C122.585 195.921 121.391 195.548 119.841 195.548C118.889 195.548 118.059 195.697 117.349 195.996C116.64 196.276 116.099 196.743 115.725 197.396C115.371 198.049 115.193 198.936 115.193 200.056C115.193 201.157 115.371 202.035 115.725 202.688C116.099 203.341 116.64 203.808 117.349 204.088C118.059 204.368 118.908 204.508 119.897 204.508C120.887 204.508 121.736 204.359 122.445 204.06C123.173 203.743 123.724 203.257 124.097 202.604C124.489 201.951 124.685 201.148 124.685 200.196H125.217L125.413 202.996H124.741C124.461 204.377 123.817 205.441 122.809 206.188C121.82 206.916 120.541 207.28 118.973 207.28ZM127.709 207H124.937V202.632L124.685 202.268V188.24H127.709V207ZM137.617 207.28C136.087 207.28 134.733 206.981 133.557 206.384C132.4 205.768 131.495 204.919 130.841 203.836C130.207 202.735 129.889 201.475 129.889 200.056C129.889 198.6 130.207 197.331 130.841 196.248C131.495 195.165 132.4 194.325 133.557 193.728C134.733 193.112 136.087 192.804 137.617 192.804C139.185 192.804 140.548 193.112 141.705 193.728C142.863 194.325 143.759 195.165 144.393 196.248C145.047 197.331 145.373 198.6 145.373 200.056C145.373 201.475 145.047 202.735 144.393 203.836C143.759 204.919 142.863 205.768 141.705 206.384C140.548 206.981 139.185 207.28 137.617 207.28ZM137.617 204.592C139.316 204.592 140.539 204.209 141.285 203.444C142.032 202.66 142.405 201.531 142.405 200.056C142.405 198.581 142.032 197.452 141.285 196.668C140.539 195.865 139.316 195.464 137.617 195.464C135.937 195.464 134.724 195.865 133.977 196.668C133.231 197.452 132.857 198.581 132.857 200.056C132.857 201.531 133.231 202.66 133.977 203.444C134.724 204.209 135.937 204.592 137.617 204.592ZM162.1 207H159.076V199.44C159.076 198.133 158.759 197.153 158.124 196.5C157.508 195.847 156.472 195.52 155.016 195.52C153.504 195.52 152.384 195.912 151.656 196.696C150.947 197.461 150.592 198.6 150.592 200.112L150.06 200.14L149.92 197.396H150.536C150.685 196.612 150.984 195.875 151.432 195.184C151.899 194.475 152.533 193.905 153.336 193.476C154.157 193.028 155.156 192.804 156.332 192.804C157.62 192.804 158.693 193.065 159.552 193.588C160.411 194.111 161.045 194.811 161.456 195.688C161.885 196.565 162.1 197.545 162.1 198.628V207ZM150.592 207H147.568V193.084H150.34V197.452L150.592 197.592V207ZM168.043 192.58H164.235V188.24H168.043V192.58ZM165.299 195.744H164.291V193.896H165.215C165.457 193.896 165.635 193.849 165.747 193.756C165.859 193.663 165.915 193.467 165.915 193.168V191.936H168.043V193.14C168.043 194.017 167.8 194.671 167.315 195.1C166.848 195.529 166.176 195.744 165.299 195.744ZM179.419 207H176.227C174.733 207 173.548 206.636 172.671 205.908C171.812 205.18 171.383 203.976 171.383 202.296V190.032H174.379V202.128C174.379 202.987 174.584 203.565 174.995 203.864C175.405 204.144 176.04 204.284 176.899 204.284H179.419V207ZM179.419 195.604H169.031V193.084H179.419V195.604ZM192.759 207H189.007L184.835 193.084H187.971L190.295 200.98L190.939 204.564H191.163L192.199 200.7L195.111 193.084H198.975L201.915 200.7L202.951 204.564H203.175L203.819 200.98L206.143 193.084H209.223L204.995 207H201.243L198.191 198.992L197.127 195.576H196.903L195.839 198.992L192.759 207ZM223.919 207H221.147V203.416L220.951 203.332V198.572C220.951 197.415 220.671 196.612 220.111 196.164C219.57 195.697 218.627 195.464 217.283 195.464C215.995 195.464 215.034 195.688 214.399 196.136C213.765 196.584 213.447 197.321 213.447 198.348V198.46H210.451V198.348C210.451 197.284 210.731 196.341 211.291 195.52C211.851 194.68 212.654 194.017 213.699 193.532C214.763 193.047 216.033 192.804 217.507 192.804C218.982 192.804 220.186 193.056 221.119 193.56C222.071 194.045 222.771 194.717 223.219 195.576C223.686 196.435 223.919 197.424 223.919 198.544V207ZM214.847 207.28C213.41 207.28 212.262 206.963 211.403 206.328C210.563 205.675 210.143 204.779 210.143 203.64C210.143 202.912 210.321 202.305 210.675 201.82C211.049 201.316 211.571 200.924 212.243 200.644C212.915 200.364 213.709 200.168 214.623 200.056L221.231 199.356V201.148L215.491 201.792C214.707 201.885 214.119 202.053 213.727 202.296C213.354 202.52 213.167 202.903 213.167 203.444C213.167 204.004 213.363 204.424 213.755 204.704C214.166 204.965 214.801 205.096 215.659 205.096C216.723 205.096 217.647 204.965 218.431 204.704C219.215 204.424 219.831 203.995 220.279 203.416C220.727 202.837 220.951 202.091 220.951 201.176L221.343 201.232V203.528H220.951C220.578 204.704 219.859 205.628 218.795 206.3C217.75 206.953 216.434 207.28 214.847 207.28ZM241.151 207H238.127V199.44C238.127 198.133 237.809 197.153 237.175 196.5C236.559 195.847 235.523 195.52 234.067 195.52C232.555 195.52 231.435 195.912 230.707 196.696C229.997 197.461 229.643 198.6 229.643 200.112L229.111 200.14L228.971 197.396H229.587C229.736 196.612 230.035 195.875 230.483 195.184C230.949 194.475 231.584 193.905 232.387 193.476C233.208 193.028 234.207 192.804 235.383 192.804C236.671 192.804 237.744 193.065 238.603 193.588C239.461 194.111 240.096 194.811 240.507 195.688C240.936 196.565 241.151 197.545 241.151 198.628V207ZM229.643 207H226.619V193.084H229.391V197.452L229.643 197.592V207ZM252.973 207H249.781C248.288 207 247.103 206.636 246.225 205.908C245.367 205.18 244.937 203.976 244.937 202.296V190.032H247.933V202.128C247.933 202.987 248.139 203.565 248.549 203.864C248.96 204.144 249.595 204.284 250.453 204.284H252.973V207ZM252.973 195.604H242.585V193.084H252.973V195.604ZM268.778 207H265.586C264.093 207 262.907 206.636 262.03 205.908C261.171 205.18 260.742 203.976 260.742 202.296V190.032H263.738V202.128C263.738 202.987 263.943 203.565 264.354 203.864C264.765 204.144 265.399 204.284 266.258 204.284H268.778V207ZM268.778 195.604H258.39V193.084H268.778V195.604ZM277.782 207.28C276.251 207.28 274.898 206.981 273.722 206.384C272.564 205.768 271.659 204.919 271.006 203.836C270.371 202.735 270.054 201.475 270.054 200.056C270.054 198.6 270.371 197.331 271.006 196.248C271.659 195.165 272.564 194.325 273.722 193.728C274.898 193.112 276.251 192.804 277.782 192.804C279.35 192.804 280.712 193.112 281.87 193.728C283.027 194.325 283.923 195.165 284.558 196.248C285.211 197.331 285.538 198.6 285.538 200.056C285.538 201.475 285.211 202.735 284.558 203.836C283.923 204.919 283.027 205.768 281.87 206.384C280.712 206.981 279.35 207.28 277.782 207.28ZM277.782 204.592C279.48 204.592 280.703 204.209 281.45 203.444C282.196 202.66 282.57 201.531 282.57 200.056C282.57 198.581 282.196 197.452 281.45 196.668C280.703 195.865 279.48 195.464 277.782 195.464C276.102 195.464 274.888 195.865 274.142 196.668C273.395 197.452 273.022 198.581 273.022 200.056C273.022 201.531 273.395 202.66 274.142 203.444C274.888 204.209 276.102 204.592 277.782 204.592ZM290.641 211.76H289.773V209.436H290.725C291.323 209.436 291.771 209.305 292.069 209.044C292.387 208.783 292.545 208.335 292.545 207.7V193.084H295.569V207.168C295.569 208.325 295.364 209.24 294.953 209.912C294.543 210.584 293.964 211.06 293.217 211.34C292.471 211.62 291.612 211.76 290.641 211.76ZM295.569 191.46H292.545V188.24H295.569V191.46ZM304.165 207.28C302.858 207.28 301.775 207.019 300.917 206.496C300.058 205.973 299.414 205.273 298.985 204.396C298.555 203.519 298.341 202.539 298.341 201.456V193.084H301.337V200.644C301.337 201.932 301.654 202.912 302.289 203.584C302.942 204.237 304.006 204.564 305.481 204.564C307.03 204.564 308.159 204.181 308.869 203.416C309.597 202.632 309.961 201.484 309.961 199.972L310.493 199.944L310.661 202.688H310.017C309.886 203.472 309.587 204.209 309.121 204.9C308.654 205.591 308.01 206.16 307.189 206.608C306.386 207.056 305.378 207.28 304.165 207.28ZM312.985 207H310.213V202.632L309.961 202.492V193.084H312.985V207ZM321.864 207.28C320.389 207.28 319.139 206.981 318.112 206.384C317.104 205.768 316.339 204.919 315.816 203.836C315.293 202.735 315.032 201.475 315.032 200.056C315.032 198.6 315.293 197.331 315.816 196.248C316.339 195.165 317.095 194.325 318.084 193.728C319.073 193.112 320.268 192.804 321.668 192.804C323.311 192.804 324.608 193.187 325.56 193.952C326.512 194.717 327.128 195.688 327.408 196.864H328.108V199.972H327.576C327.576 198.497 327.156 197.396 326.316 196.668C325.476 195.921 324.281 195.548 322.732 195.548C321.78 195.548 320.949 195.697 320.24 195.996C319.531 196.276 318.989 196.743 318.616 197.396C318.261 198.049 318.084 198.936 318.084 200.056C318.084 201.157 318.261 202.035 318.616 202.688C318.989 203.341 319.531 203.808 320.24 204.088C320.949 204.368 321.799 204.508 322.788 204.508C323.777 204.508 324.627 204.359 325.336 204.06C326.064 203.743 326.615 203.257 326.988 202.604C327.38 201.951 327.576 201.148 327.576 200.196H328.108L328.304 202.996H327.632C327.352 204.377 326.708 205.441 325.7 206.188C324.711 206.916 323.432 207.28 321.864 207.28ZM330.6 207H327.828V202.632L327.576 202.268V188.24H330.6V207ZM340.704 212.04C339.323 212.04 338.109 211.825 337.064 211.396C336.019 210.985 335.197 210.388 334.6 209.604C334.021 208.82 333.732 207.868 333.732 206.748H336.728C336.728 207.42 336.868 207.961 337.148 208.372C337.428 208.783 337.867 209.072 338.464 209.24C339.08 209.427 339.883 209.52 340.872 209.52C341.936 209.52 342.776 209.399 343.392 209.156C344.027 208.932 344.484 208.531 344.764 207.952C345.044 207.373 345.184 206.571 345.184 205.544V197.396L345.408 197.2V193.084H348.18V205.376C348.18 206.925 347.872 208.185 347.256 209.156C346.64 210.145 345.772 210.873 344.652 211.34C343.532 211.807 342.216 212.04 340.704 212.04ZM339.444 205.74C338.063 205.74 336.877 205.469 335.888 204.928C334.917 204.387 334.161 203.631 333.62 202.66C333.097 201.689 332.836 200.56 332.836 199.272C332.836 197.984 333.107 196.855 333.648 195.884C334.208 194.913 334.992 194.157 336 193.616C337.027 193.075 338.24 192.804 339.64 192.804C341.096 192.804 342.328 193.131 343.336 193.784C344.363 194.419 344.997 195.343 345.24 196.556H345.884L345.716 198.992H345.184C345.184 198.208 344.997 197.555 344.624 197.032C344.251 196.491 343.719 196.089 343.028 195.828C342.337 195.567 341.497 195.436 340.508 195.436C339.556 195.436 338.725 195.557 338.016 195.8C337.325 196.043 336.793 196.444 336.42 197.004C336.065 197.545 335.888 198.301 335.888 199.272C335.888 200.224 336.065 200.98 336.42 201.54C336.775 202.1 337.288 202.511 337.96 202.772C338.651 203.015 339.472 203.136 340.424 203.136C341.955 203.136 343.131 202.819 343.952 202.184C344.773 201.549 345.184 200.616 345.184 199.384H345.716V202.128H344.988C344.745 203.192 344.157 204.06 343.224 204.732C342.291 205.404 341.031 205.74 339.444 205.74ZM357.978 207.28C356.466 207.28 355.141 207 354.002 206.44C352.863 205.88 351.977 205.059 351.342 203.976C350.726 202.893 350.418 201.587 350.418 200.056C350.418 198.6 350.726 197.331 351.342 196.248C351.977 195.165 352.854 194.325 353.974 193.728C355.094 193.112 356.41 192.804 357.922 192.804C359.359 192.804 360.619 193.065 361.702 193.588C362.803 194.092 363.653 194.839 364.25 195.828C364.866 196.799 365.174 197.993 365.174 199.412C365.174 199.655 365.165 199.888 365.146 200.112C365.127 200.317 365.099 200.523 365.062 200.728H352.35V199.048H363.074L362.29 200.084C362.309 199.897 362.318 199.72 362.318 199.552C362.318 199.365 362.318 199.179 362.318 198.992C362.318 197.704 361.945 196.752 361.198 196.136C360.47 195.501 359.359 195.184 357.866 195.184C356.205 195.184 355.019 195.567 354.31 196.332C353.601 197.097 353.246 198.199 353.246 199.636V200.364C353.246 201.82 353.601 202.931 354.31 203.696C355.019 204.461 356.214 204.844 357.894 204.844C359.35 204.844 360.395 204.62 361.03 204.172C361.683 203.705 362.01 203.061 362.01 202.24V202.016H365.034V202.268C365.034 203.257 364.726 204.135 364.11 204.9C363.513 205.647 362.682 206.235 361.618 206.664C360.573 207.075 359.359 207.28 357.978 207.28ZM374.464 211.76H372.476V209.016H375.192C375.808 209.016 376.266 208.913 376.564 208.708C376.882 208.521 377.143 208.195 377.348 207.728L378.216 205.852L377.88 207.392L370.824 193.084H374.212L377.768 200.476L379.14 203.808H379.364L380.68 200.448L383.956 193.084H387.288L380.036 208.512C379.663 209.333 379.224 209.977 378.72 210.444C378.216 210.929 377.619 211.265 376.928 211.452C376.238 211.657 375.416 211.76 374.464 211.76ZM395.879 207.28C394.349 207.28 392.995 206.981 391.819 206.384C390.662 205.768 389.757 204.919 389.103 203.836C388.469 202.735 388.151 201.475 388.151 200.056C388.151 198.6 388.469 197.331 389.103 196.248C389.757 195.165 390.662 194.325 391.819 193.728C392.995 193.112 394.349 192.804 395.879 192.804C397.447 192.804 398.81 193.112 399.967 193.728C401.125 194.325 402.021 195.165 402.655 196.248C403.309 197.331 403.635 198.6 403.635 200.056C403.635 201.475 403.309 202.735 402.655 203.836C402.021 204.919 401.125 205.768 399.967 206.384C398.81 206.981 397.447 207.28 395.879 207.28ZM395.879 204.592C397.578 204.592 398.801 204.209 399.547 203.444C400.294 202.66 400.667 201.531 400.667 200.056C400.667 198.581 400.294 197.452 399.547 196.668C398.801 195.865 397.578 195.464 395.879 195.464C394.199 195.464 392.986 195.865 392.239 196.668C391.493 197.452 391.119 198.581 391.119 200.056C391.119 201.531 391.493 202.66 392.239 203.444C392.986 204.209 394.199 204.592 395.879 204.592ZM411.626 207.28C410.319 207.28 409.236 207.019 408.378 206.496C407.519 205.973 406.875 205.273 406.446 204.396C406.016 203.519 405.802 202.539 405.802 201.456V193.084H408.798V200.644C408.798 201.932 409.115 202.912 409.75 203.584C410.403 204.237 411.467 204.564 412.942 204.564C414.491 204.564 415.62 204.181 416.33 203.416C417.058 202.632 417.422 201.484 417.422 199.972L417.954 199.944L418.122 202.688H417.478C417.347 203.472 417.048 204.209 416.582 204.9C416.115 205.591 415.471 206.16 414.65 206.608C413.847 207.056 412.839 207.28 411.626 207.28ZM420.446 207H417.674V202.632L417.422 202.492V193.084H420.446V207ZM431.002 207H427.978V193.084H431.002V207ZM431.002 191.46H427.978V188.24H431.002V191.46ZM437.89 207H434.866V193.84C434.866 192.664 435.118 191.665 435.622 190.844C436.145 190.004 436.901 189.36 437.89 188.912C438.88 188.464 440.084 188.24 441.502 188.24H442.874V190.48H441.026C439.832 190.48 438.964 190.704 438.422 191.152C437.881 191.581 437.704 192.403 437.89 193.616V194.176V207ZM442.874 195.604H432.766V193.084H442.874V195.604ZM451.574 211.76H449.586V209.016H452.302C452.918 209.016 453.375 208.913 453.674 208.708C453.991 208.521 454.252 208.195 454.458 207.728L455.326 205.852L454.99 207.392L447.934 193.084H451.322L454.878 200.476L456.25 203.808H456.474L457.79 200.448L461.066 193.084H464.398L457.146 208.512C456.772 209.333 456.334 209.977 455.83 210.444C455.326 210.929 454.728 211.265 454.038 211.452C453.347 211.657 452.526 211.76 451.574 211.76ZM472.989 207.28C471.458 207.28 470.105 206.981 468.929 206.384C467.771 205.768 466.866 204.919 466.213 203.836C465.578 202.735 465.261 201.475 465.261 200.056C465.261 198.6 465.578 197.331 466.213 196.248C466.866 195.165 467.771 194.325 468.929 193.728C470.105 193.112 471.458 192.804 472.989 192.804C474.557 192.804 475.919 193.112 477.077 193.728C478.234 194.325 479.13 195.165 479.765 196.248C480.418 197.331 480.745 198.6 480.745 200.056C480.745 201.475 480.418 202.735 479.765 203.836C479.13 204.919 478.234 205.768 477.077 206.384C475.919 206.981 474.557 207.28 472.989 207.28ZM472.989 204.592C474.687 204.592 475.91 204.209 476.657 203.444C477.403 202.66 477.777 201.531 477.777 200.056C477.777 198.581 477.403 197.452 476.657 196.668C475.91 195.865 474.687 195.464 472.989 195.464C471.309 195.464 470.095 195.865 469.349 196.668C468.602 197.452 468.229 198.581 468.229 200.056C468.229 201.531 468.602 202.66 469.349 203.444C470.095 204.209 471.309 204.592 472.989 204.592ZM488.735 207.28C487.428 207.28 486.346 207.019 485.487 206.496C484.628 205.973 483.984 205.273 483.555 204.396C483.126 203.519 482.911 202.539 482.911 201.456V193.084H485.907V200.644C485.907 201.932 486.224 202.912 486.859 203.584C487.512 204.237 488.576 204.564 490.051 204.564C491.6 204.564 492.73 204.181 493.439 203.416C494.167 202.632 494.531 201.484 494.531 199.972L495.063 199.944L495.231 202.688H494.587C494.456 203.472 494.158 204.209 493.691 204.9C493.224 205.591 492.58 206.16 491.759 206.608C490.956 207.056 489.948 207.28 488.735 207.28ZM497.555 207H494.783V202.632L494.531 202.492V193.084H497.555V207ZM503.326 207H500.302V193.084H503.074V197.032L503.326 197.172V207ZM503.326 199.188H502.654V196.836H503.27C503.401 196.071 503.662 195.389 504.054 194.792C504.446 194.176 504.969 193.691 505.622 193.336C506.294 192.981 507.106 192.804 508.058 192.804C509.122 192.804 509.99 193.028 510.662 193.476C511.334 193.924 511.82 194.521 512.118 195.268C512.436 196.015 512.594 196.827 512.594 197.704V199.524H509.598V198.292C509.598 197.284 509.374 196.547 508.926 196.08C508.478 195.613 507.732 195.38 506.686 195.38C505.492 195.38 504.633 195.707 504.11 196.36C503.588 197.013 503.326 197.956 503.326 199.188ZM532.439 207H529.667V203.416L529.471 203.332V198.572C529.471 197.415 529.191 196.612 528.631 196.164C528.09 195.697 527.147 195.464 525.803 195.464C524.515 195.464 523.554 195.688 522.919 196.136C522.284 196.584 521.967 197.321 521.967 198.348V198.46H518.971V198.348C518.971 197.284 519.251 196.341 519.811 195.52C520.371 194.68 521.174 194.017 522.219 193.532C523.283 193.047 524.552 192.804 526.027 192.804C527.502 192.804 528.706 193.056 529.639 193.56C530.591 194.045 531.291 194.717 531.739 195.576C532.206 196.435 532.439 197.424 532.439 198.544V207ZM523.367 207.28C521.93 207.28 520.782 206.963 519.923 206.328C519.083 205.675 518.663 204.779 518.663 203.64C518.663 202.912 518.84 202.305 519.195 201.82C519.568 201.316 520.091 200.924 520.763 200.644C521.435 200.364 522.228 200.168 523.143 200.056L529.751 199.356V201.148L524.011 201.792C523.227 201.885 522.639 202.053 522.247 202.296C521.874 202.52 521.687 202.903 521.687 203.444C521.687 204.004 521.883 204.424 522.275 204.704C522.686 204.965 523.32 205.096 524.179 205.096C525.243 205.096 526.167 204.965 526.951 204.704C527.735 204.424 528.351 203.995 528.799 203.416C529.247 202.837 529.471 202.091 529.471 201.176L529.863 201.232V203.528H529.471C529.098 204.704 528.379 205.628 527.315 206.3C526.27 206.953 524.954 207.28 523.367 207.28ZM541.718 207.28C539.478 207.28 537.742 206.851 536.51 205.992C535.297 205.133 534.69 203.901 534.69 202.296V202.212H537.714V202.436C537.714 203.351 538.013 203.985 538.61 204.34C539.226 204.676 540.262 204.844 541.718 204.844C543.081 204.844 544.005 204.704 544.49 204.424C544.994 204.125 545.246 203.668 545.246 203.052C545.246 202.473 545.05 202.063 544.658 201.82C544.285 201.577 543.594 201.391 542.586 201.26L538.778 200.756C537.453 200.588 536.417 200.215 535.67 199.636C534.924 199.039 534.55 198.152 534.55 196.976C534.55 196.155 534.793 195.436 535.278 194.82C535.764 194.185 536.492 193.691 537.462 193.336C538.433 192.981 539.628 192.804 541.046 192.804C542.465 192.804 543.678 192.991 544.686 193.364C545.713 193.737 546.497 194.297 547.038 195.044C547.598 195.791 547.878 196.715 547.878 197.816V197.9H544.882V197.732C544.882 197.191 544.77 196.733 544.546 196.36C544.322 195.987 543.921 195.707 543.342 195.52C542.782 195.315 541.989 195.212 540.962 195.212C539.674 195.212 538.778 195.361 538.274 195.66C537.77 195.959 537.518 196.435 537.518 197.088C537.518 197.629 537.705 198.021 538.078 198.264C538.452 198.507 539.152 198.703 540.178 198.852L543.398 199.3C545.041 199.505 546.254 199.907 547.038 200.504C547.822 201.101 548.214 201.979 548.214 203.136C548.214 203.995 547.944 204.741 547.402 205.376C546.861 205.992 546.105 206.468 545.134 206.804C544.164 207.121 543.025 207.28 541.718 207.28ZM559.244 207.28C557.695 207.28 556.425 206.897 555.436 206.132C554.447 205.367 553.812 204.349 553.532 203.08H552.888V200.28H553.42C553.42 201.213 553.616 202.007 554.008 202.66C554.4 203.295 554.951 203.771 555.66 204.088C556.388 204.387 557.237 204.536 558.208 204.536C559.216 204.536 560.065 204.396 560.756 204.116C561.465 203.817 562.007 203.341 562.38 202.688C562.753 202.035 562.94 201.157 562.94 200.056C562.94 198.936 562.753 198.049 562.38 197.396C562.007 196.743 561.465 196.276 560.756 195.996C560.065 195.716 559.235 195.576 558.264 195.576C556.715 195.576 555.52 195.949 554.68 196.696C553.84 197.424 553.42 198.535 553.42 200.028H552.888L552.692 196.948H553.42C553.7 195.66 554.325 194.652 555.296 193.924C556.285 193.177 557.592 192.804 559.216 192.804C560.653 192.804 561.876 193.112 562.884 193.728C563.892 194.325 564.657 195.165 565.18 196.248C565.703 197.331 565.964 198.6 565.964 200.056C565.964 201.475 565.703 202.735 565.18 203.836C564.676 204.919 563.92 205.768 562.912 206.384C561.923 206.981 560.7 207.28 559.244 207.28ZM553.42 211.76H550.396V193.084H553.168V197.452L553.42 197.816V211.76ZM571.084 207H568.06V193.084H571.084V207ZM571.084 191.46H568.06V188.24H571.084V191.46ZM576.908 207H573.884V193.084H576.656V197.032L576.908 197.172V207ZM576.908 199.188H576.236V196.836H576.852C576.983 196.071 577.244 195.389 577.636 194.792C578.028 194.176 578.551 193.691 579.204 193.336C579.876 192.981 580.688 192.804 581.64 192.804C582.704 192.804 583.572 193.028 584.244 193.476C584.916 193.924 585.402 194.521 585.7 195.268C586.018 196.015 586.176 196.827 586.176 197.704V199.524H583.18V198.292C583.18 197.284 582.956 196.547 582.508 196.08C582.06 195.613 581.314 195.38 580.268 195.38C579.074 195.38 578.215 195.707 577.692 196.36C577.17 197.013 576.908 197.956 576.908 199.188ZM601.236 207H598.464V203.416L598.268 203.332V198.572C598.268 197.415 597.988 196.612 597.428 196.164C596.886 195.697 595.944 195.464 594.6 195.464C593.312 195.464 592.35 195.688 591.716 196.136C591.081 196.584 590.764 197.321 590.764 198.348V198.46H587.768V198.348C587.768 197.284 588.048 196.341 588.608 195.52C589.168 194.68 589.97 194.017 591.016 193.532C592.08 193.047 593.349 192.804 594.824 192.804C596.298 192.804 597.502 193.056 598.436 193.56C599.388 194.045 600.088 194.717 600.536 195.576C601.002 196.435 601.236 197.424 601.236 198.544V207ZM592.164 207.28C590.726 207.28 589.578 206.963 588.72 206.328C587.88 205.675 587.46 204.779 587.46 203.64C587.46 202.912 587.637 202.305 587.992 201.82C588.365 201.316 588.888 200.924 589.56 200.644C590.232 200.364 591.025 200.168 591.94 200.056L598.548 199.356V201.148L592.808 201.792C592.024 201.885 591.436 202.053 591.044 202.296C590.67 202.52 590.484 202.903 590.484 203.444C590.484 204.004 590.68 204.424 591.072 204.704C591.482 204.965 592.117 205.096 592.976 205.096C594.04 205.096 594.964 204.965 595.748 204.704C596.532 204.424 597.148 203.995 597.596 203.416C598.044 202.837 598.268 202.091 598.268 201.176L598.66 201.232V203.528H598.268C597.894 204.704 597.176 205.628 596.112 206.3C595.066 206.953 593.75 207.28 592.164 207.28ZM613.063 207H609.871C608.378 207 607.192 206.636 606.315 205.908C605.456 205.18 605.027 203.976 605.027 202.296V190.032H608.023V202.128C608.023 202.987 608.228 203.565 608.639 203.864C609.05 204.144 609.684 204.284 610.543 204.284H613.063V207ZM613.063 195.604H602.675V193.084H613.063V195.604ZM617.979 207H614.955V193.084H617.979V207ZM617.979 191.46H614.955V188.24H617.979V191.46ZM627.891 207.28C626.36 207.28 625.007 206.981 623.831 206.384C622.674 205.768 621.768 204.919 621.115 203.836C620.48 202.735 620.163 201.475 620.163 200.056C620.163 198.6 620.48 197.331 621.115 196.248C621.768 195.165 622.674 194.325 623.831 193.728C625.007 193.112 626.36 192.804 627.891 192.804C629.459 192.804 630.822 193.112 631.979 193.728C633.136 194.325 634.032 195.165 634.667 196.248C635.32 197.331 635.647 198.6 635.647 200.056C635.647 201.475 635.32 202.735 634.667 203.836C634.032 204.919 633.136 205.768 631.979 206.384C630.822 206.981 629.459 207.28 627.891 207.28ZM627.891 204.592C629.59 204.592 630.812 204.209 631.559 203.444C632.306 202.66 632.679 201.531 632.679 200.056C632.679 198.581 632.306 197.452 631.559 196.668C630.812 195.865 629.59 195.464 627.891 195.464C626.211 195.464 624.998 195.865 624.251 196.668C623.504 197.452 623.131 198.581 623.131 200.056C623.131 201.531 623.504 202.66 624.251 203.444C624.998 204.209 626.211 204.592 627.891 204.592ZM652.373 207H649.349V199.44C649.349 198.133 649.032 197.153 648.397 196.5C647.781 195.847 646.745 195.52 645.289 195.52C643.777 195.52 642.657 195.912 641.929 196.696C641.22 197.461 640.865 198.6 640.865 200.112L640.333 200.14L640.193 197.396H640.809C640.959 196.612 641.257 195.875 641.705 195.184C642.172 194.475 642.807 193.905 643.609 193.476C644.431 193.028 645.429 192.804 646.605 192.804C647.893 192.804 648.967 193.065 649.825 193.588C650.684 194.111 651.319 194.811 651.729 195.688C652.159 196.565 652.373 197.545 652.373 198.628V207ZM640.865 207H637.841V193.084H640.613V197.452L640.865 197.592V207ZM662.877 207H659.853V193.084H662.877V207ZM662.877 191.46H659.853V188.24H662.877V191.46ZM672.257 207.28C670.017 207.28 668.281 206.851 667.049 205.992C665.836 205.133 665.229 203.901 665.229 202.296V202.212H668.253V202.436C668.253 203.351 668.552 203.985 669.149 204.34C669.765 204.676 670.801 204.844 672.257 204.844C673.62 204.844 674.544 204.704 675.029 204.424C675.533 204.125 675.785 203.668 675.785 203.052C675.785 202.473 675.589 202.063 675.197 201.82C674.824 201.577 674.133 201.391 673.125 201.26L669.317 200.756C667.992 200.588 666.956 200.215 666.209 199.636C665.463 199.039 665.089 198.152 665.089 196.976C665.089 196.155 665.332 195.436 665.817 194.82C666.303 194.185 667.031 193.691 668.001 193.336C668.972 192.981 670.167 192.804 671.585 192.804C673.004 192.804 674.217 192.991 675.225 193.364C676.252 193.737 677.036 194.297 677.577 195.044C678.137 195.791 678.417 196.715 678.417 197.816V197.9H675.421V197.732C675.421 197.191 675.309 196.733 675.085 196.36C674.861 195.987 674.46 195.707 673.881 195.52C673.321 195.315 672.528 195.212 671.501 195.212C670.213 195.212 669.317 195.361 668.813 195.66C668.309 195.959 668.057 196.435 668.057 197.088C668.057 197.629 668.244 198.021 668.617 198.264C668.991 198.507 669.691 198.703 670.717 198.852L673.937 199.3C675.58 199.505 676.793 199.907 677.577 200.504C678.361 201.101 678.753 201.979 678.753 203.136C678.753 203.995 678.483 204.741 677.941 205.376C677.4 205.992 676.644 206.468 675.673 206.804C674.703 207.121 673.564 207.28 672.257 207.28ZM60.528 241H57.336C55.8427 241 54.6573 240.636 53.78 239.908C52.9213 239.18 52.492 237.976 52.492 236.296V224.032H55.488V236.128C55.488 236.987 55.6933 237.565 56.104 237.864C56.5147 238.144 57.1493 238.284 58.008 238.284H60.528V241ZM60.528 229.604H50.14V227.084H60.528V229.604ZM69.5315 241.28C68.0009 241.28 66.6475 240.981 65.4715 240.384C64.3142 239.768 63.4089 238.919 62.7555 237.836C62.1209 236.735 61.8035 235.475 61.8035 234.056C61.8035 232.6 62.1209 231.331 62.7555 230.248C63.4089 229.165 64.3142 228.325 65.4715 227.728C66.6475 227.112 68.0009 226.804 69.5315 226.804C71.0995 226.804 72.4622 227.112 73.6195 227.728C74.7769 228.325 75.6729 229.165 76.3075 230.248C76.9609 231.331 77.2875 232.6 77.2875 234.056C77.2875 235.475 76.9609 236.735 76.3075 237.836C75.6729 238.919 74.7769 239.768 73.6195 240.384C72.4622 240.981 71.0995 241.28 69.5315 241.28ZM69.5315 238.592C71.2302 238.592 72.4529 238.209 73.1995 237.444C73.9462 236.66 74.3195 235.531 74.3195 234.056C74.3195 232.581 73.9462 231.452 73.1995 230.668C72.4529 229.865 71.2302 229.464 69.5315 229.464C67.8515 229.464 66.6382 229.865 65.8915 230.668C65.1449 231.452 64.7715 232.581 64.7715 234.056C64.7715 235.531 65.1449 236.66 65.8915 237.444C66.6382 238.209 67.8515 238.592 69.5315 238.592ZM90.9312 241H87.1792L83.0072 227.084H86.1432L88.4672 234.98L89.1112 238.564H89.3352L90.3712 234.7L93.2832 227.084H97.1472L100.087 234.7L101.123 238.564H101.347L101.991 234.98L104.315 227.084H107.395L103.167 241H99.4152L96.3632 232.992L95.2992 229.576H95.0752L94.0112 232.992L90.9312 241ZM116.043 241.28C114.513 241.28 113.159 240.981 111.983 240.384C110.826 239.768 109.921 238.919 109.267 237.836C108.633 236.735 108.315 235.475 108.315 234.056C108.315 232.6 108.633 231.331 109.267 230.248C109.921 229.165 110.826 228.325 111.983 227.728C113.159 227.112 114.513 226.804 116.043 226.804C117.611 226.804 118.974 227.112 120.131 227.728C121.289 228.325 122.185 229.165 122.819 230.248C123.473 231.331 123.799 232.6 123.799 234.056C123.799 235.475 123.473 236.735 122.819 237.836C122.185 238.919 121.289 239.768 120.131 240.384C118.974 240.981 117.611 241.28 116.043 241.28ZM116.043 238.592C117.742 238.592 118.965 238.209 119.711 237.444C120.458 236.66 120.831 235.531 120.831 234.056C120.831 232.581 120.458 231.452 119.711 230.668C118.965 229.865 117.742 229.464 116.043 229.464C114.363 229.464 113.15 229.865 112.403 230.668C111.657 231.452 111.283 232.581 111.283 234.056C111.283 235.531 111.657 236.66 112.403 237.444C113.15 238.209 114.363 238.592 116.043 238.592ZM129.018 241H125.994V227.084H128.766V231.032L129.018 231.172V241ZM129.018 233.188H128.346V230.836H128.962C129.092 230.071 129.354 229.389 129.746 228.792C130.138 228.176 130.66 227.691 131.314 227.336C131.986 226.981 132.798 226.804 133.75 226.804C134.814 226.804 135.682 227.028 136.354 227.476C137.026 227.924 137.511 228.521 137.81 229.268C138.127 230.015 138.286 230.827 138.286 231.704V233.524H135.29V232.292C135.29 231.284 135.066 230.547 134.618 230.08C134.17 229.613 133.423 229.38 132.378 229.38C131.183 229.38 130.324 229.707 129.802 230.36C129.279 231.013 129.018 231.956 129.018 233.188ZM154.857 241H151.301L147.185 235.316H141.865V232.6H147.185L151.357 227.084H154.885L149.649 233.776L154.857 241ZM143.209 241H140.185V222.24H143.209V241ZM174.318 241H171.546V237.416L171.35 237.332V232.572C171.35 231.415 171.07 230.612 170.51 230.164C169.968 229.697 169.026 229.464 167.682 229.464C166.394 229.464 165.432 229.688 164.798 230.136C164.163 230.584 163.846 231.321 163.846 232.348V232.46H160.85V232.348C160.85 231.284 161.13 230.341 161.69 229.52C162.25 228.68 163.052 228.017 164.098 227.532C165.162 227.047 166.431 226.804 167.906 226.804C169.38 226.804 170.584 227.056 171.518 227.56C172.47 228.045 173.17 228.717 173.618 229.576C174.084 230.435 174.318 231.424 174.318 232.544V241ZM165.246 241.28C163.808 241.28 162.66 240.963 161.802 240.328C160.962 239.675 160.542 238.779 160.542 237.64C160.542 236.912 160.719 236.305 161.074 235.82C161.447 235.316 161.97 234.924 162.642 234.644C163.314 234.364 164.107 234.168 165.022 234.056L171.63 233.356V235.148L165.89 235.792C165.106 235.885 164.518 236.053 164.126 236.296C163.752 236.52 163.566 236.903 163.566 237.444C163.566 238.004 163.762 238.424 164.154 238.704C164.564 238.965 165.199 239.096 166.058 239.096C167.122 239.096 168.046 238.965 168.83 238.704C169.614 238.424 170.23 237.995 170.678 237.416C171.126 236.837 171.35 236.091 171.35 235.176L171.742 235.232V237.528H171.35C170.976 238.704 170.258 239.628 169.194 240.3C168.148 240.953 166.832 241.28 165.246 241.28ZM186.145 241H182.953C181.46 241 180.275 240.636 179.397 239.908C178.539 239.18 178.109 237.976 178.109 236.296V224.032H181.105V236.128C181.105 236.987 181.311 237.565 181.721 237.864C182.132 238.144 182.767 238.284 183.625 238.284H186.145V241ZM186.145 229.604H175.757V227.084H186.145V229.604ZM201.53 241H193.97V238.284H201.53C202.986 238.284 204.171 238.069 205.086 237.64C206.019 237.192 206.71 236.483 207.158 235.512C207.606 234.523 207.83 233.225 207.83 231.62C207.83 229.996 207.606 228.699 207.158 227.728C206.71 226.757 206.019 226.057 205.086 225.628C204.171 225.18 202.986 224.956 201.53 224.956H193.97V222.24H201.53C203.49 222.24 205.17 222.623 206.57 223.388C207.989 224.135 209.081 225.208 209.846 226.608C210.63 228.008 211.022 229.679 211.022 231.62C211.022 233.561 210.63 235.232 209.846 236.632C209.081 238.032 207.989 239.115 206.57 239.88C205.17 240.627 203.49 241 201.53 241ZM195.986 241H192.99V222.24H195.986V241ZM220.387 241.28C218.856 241.28 217.503 240.981 216.327 240.384C215.17 239.768 214.264 238.919 213.611 237.836C212.976 236.735 212.659 235.475 212.659 234.056C212.659 232.6 212.976 231.331 213.611 230.248C214.264 229.165 215.17 228.325 216.327 227.728C217.503 227.112 218.856 226.804 220.387 226.804C221.955 226.804 223.318 227.112 224.475 227.728C225.632 228.325 226.528 229.165 227.163 230.248C227.816 231.331 228.143 232.6 228.143 234.056C228.143 235.475 227.816 236.735 227.163 237.836C226.528 238.919 225.632 239.768 224.475 240.384C223.318 240.981 221.955 241.28 220.387 241.28ZM220.387 238.592C222.086 238.592 223.308 238.209 224.055 237.444C224.802 236.66 225.175 235.531 225.175 234.056C225.175 232.581 224.802 231.452 224.055 230.668C223.308 229.865 222.086 229.464 220.387 229.464C218.707 229.464 217.494 229.865 216.747 230.668C216 231.452 215.627 232.581 215.627 234.056C215.627 235.531 216 236.66 216.747 237.444C217.494 238.209 218.707 238.592 220.387 238.592ZM254.95 241H251.954V233.44C251.954 232.059 251.664 231.06 251.086 230.444C250.507 229.828 249.536 229.52 248.174 229.52C246.699 229.52 245.654 229.903 245.038 230.668C244.44 231.415 244.142 232.563 244.142 234.112L243.61 234.14L243.442 231.396H244.058C244.188 230.593 244.459 229.847 244.87 229.156C245.28 228.465 245.868 227.905 246.634 227.476C247.399 227.028 248.36 226.804 249.518 226.804C250.731 226.804 251.739 227.056 252.542 227.56C253.344 228.064 253.942 228.755 254.334 229.632C254.744 230.509 254.95 231.508 254.95 232.628V241ZM233.362 241H230.338V227.084H233.11V231.452L233.362 231.592V241ZM244.142 241H241.146V233.44C241.146 232.059 240.856 231.06 240.278 230.444C239.699 229.828 238.738 229.52 237.394 229.52C235.9 229.52 234.855 229.903 234.258 230.668C233.66 231.415 233.362 232.563 233.362 234.112L232.83 234.14L232.69 231.284H233.278C233.408 230.5 233.67 229.772 234.062 229.1C234.454 228.428 235.023 227.877 235.77 227.448C236.516 227.019 237.468 226.804 238.626 226.804C239.839 226.804 240.838 227.065 241.622 227.588C242.406 228.092 242.994 228.783 243.386 229.66C243.778 230.537 243.974 231.527 243.974 232.628H244.142V241ZM260.678 241H257.654V227.084H260.678V241ZM260.678 225.46H257.654V222.24H260.678V225.46ZM278.01 241H274.986V233.44C274.986 232.133 274.669 231.153 274.034 230.5C273.418 229.847 272.382 229.52 270.926 229.52C269.414 229.52 268.294 229.912 267.566 230.696C266.857 231.461 266.502 232.6 266.502 234.112L265.97 234.14L265.83 231.396H266.446C266.595 230.612 266.894 229.875 267.342 229.184C267.809 228.475 268.443 227.905 269.246 227.476C270.067 227.028 271.066 226.804 272.242 226.804C273.53 226.804 274.603 227.065 275.462 227.588C276.321 228.111 276.955 228.811 277.366 229.688C277.795 230.565 278.01 231.545 278.01 232.628V241ZM266.502 241H263.478V227.084H266.25V231.452L266.502 231.592V241ZM287.817 241.28C286.286 241.28 284.933 240.981 283.757 240.384C282.599 239.768 281.694 238.919 281.041 237.836C280.406 236.735 280.089 235.475 280.089 234.056C280.089 232.6 280.406 231.331 281.041 230.248C281.694 229.165 282.599 228.325 283.757 227.728C284.933 227.112 286.286 226.804 287.817 226.804C289.385 226.804 290.747 227.112 291.905 227.728C293.062 228.325 293.958 229.165 294.593 230.248C295.246 231.331 295.573 232.6 295.573 234.056C295.573 235.475 295.246 236.735 294.593 237.836C293.958 238.919 293.062 239.768 291.905 240.384C290.747 240.981 289.385 241.28 287.817 241.28ZM287.817 238.592C289.515 238.592 290.738 238.209 291.485 237.444C292.231 236.66 292.605 235.531 292.605 234.056C292.605 232.581 292.231 231.452 291.485 230.668C290.738 229.865 289.515 229.464 287.817 229.464C286.137 229.464 284.923 229.865 284.177 230.668C283.43 231.452 283.057 232.581 283.057 234.056C283.057 235.531 283.43 236.66 284.177 237.444C284.923 238.209 286.137 238.592 287.817 238.592ZM301.015 226.58H297.207V222.24H301.015V226.58ZM298.271 229.744H297.263V227.896H298.187C298.43 227.896 298.607 227.849 298.719 227.756C298.831 227.663 298.887 227.467 298.887 227.168V225.936H301.015V227.14C301.015 228.017 300.773 228.671 300.287 229.1C299.821 229.529 299.149 229.744 298.271 229.744ZM309.843 241.28C307.603 241.28 305.867 240.851 304.635 239.992C303.422 239.133 302.815 237.901 302.815 236.296V236.212H305.839V236.436C305.839 237.351 306.138 237.985 306.735 238.34C307.351 238.676 308.387 238.844 309.843 238.844C311.206 238.844 312.13 238.704 312.615 238.424C313.119 238.125 313.371 237.668 313.371 237.052C313.371 236.473 313.175 236.063 312.783 235.82C312.41 235.577 311.719 235.391 310.711 235.26L306.903 234.756C305.578 234.588 304.542 234.215 303.795 233.636C303.049 233.039 302.675 232.152 302.675 230.976C302.675 230.155 302.918 229.436 303.403 228.82C303.889 228.185 304.617 227.691 305.587 227.336C306.558 226.981 307.753 226.804 309.171 226.804C310.59 226.804 311.803 226.991 312.811 227.364C313.838 227.737 314.622 228.297 315.163 229.044C315.723 229.791 316.003 230.715 316.003 231.816V231.9H313.007V231.732C313.007 231.191 312.895 230.733 312.671 230.36C312.447 229.987 312.046 229.707 311.467 229.52C310.907 229.315 310.114 229.212 309.087 229.212C307.799 229.212 306.903 229.361 306.399 229.66C305.895 229.959 305.643 230.435 305.643 231.088C305.643 231.629 305.83 232.021 306.203 232.264C306.577 232.507 307.277 232.703 308.303 232.852L311.523 233.3C313.166 233.505 314.379 233.907 315.163 234.504C315.947 235.101 316.339 235.979 316.339 237.136C316.339 237.995 316.069 238.741 315.527 239.376C314.986 239.992 314.23 240.468 313.259 240.804C312.289 241.121 311.15 241.28 309.843 241.28ZM321.769 241H317.961V236.66H321.769V241Z" fill="white"/>
</svg>
