<svg width="498" height="582" viewBox="0 0 498 582" fill="none" xmlns="http://www.w3.org/2000/svg">
<rect x="1" y="1" width="496" height="580" rx="43" fill="black" stroke="white" stroke-width="2"/>
<path d="M38.424 283H35.4V264.24H38.424V283ZM52.5894 283.28C50.3494 283.28 48.6134 282.851 47.3814 281.992C46.168 281.133 45.5614 279.901 45.5614 278.296V278.212H48.5854V278.436C48.5854 279.351 48.884 279.985 49.4814 280.34C50.0974 280.676 51.1334 280.844 52.5894 280.844C53.952 280.844 54.876 280.704 55.3614 280.424C55.8654 280.125 56.1174 279.668 56.1174 279.052C56.1174 278.473 55.9214 278.063 55.5294 277.82C55.156 277.577 54.4654 277.391 53.4574 277.26L49.6494 276.756C48.324 276.588 47.288 276.215 46.5414 275.636C45.7947 275.039 45.4214 274.152 45.4214 272.976C45.4214 272.155 45.664 271.436 46.1494 270.82C46.6347 270.185 47.3627 269.691 48.3334 269.336C49.304 268.981 50.4987 268.804 51.9174 268.804C53.336 268.804 54.5494 268.991 55.5574 269.364C56.584 269.737 57.368 270.297 57.9094 271.044C58.4694 271.791 58.7494 272.715 58.7494 273.816V273.9H55.7534V273.732C55.7534 273.191 55.6414 272.733 55.4174 272.36C55.1934 271.987 54.792 271.707 54.2134 271.52C53.6534 271.315 52.86 271.212 51.8334 271.212C50.5454 271.212 49.6494 271.361 49.1454 271.66C48.6414 271.959 48.3894 272.435 48.3894 273.088C48.3894 273.629 48.576 274.021 48.9494 274.264C49.3227 274.507 50.0227 274.703 51.0494 274.852L54.2694 275.3C55.912 275.505 57.1254 275.907 57.9094 276.504C58.6934 277.101 59.0854 277.979 59.0854 279.136C59.0854 279.995 58.8147 280.741 58.2734 281.376C57.732 281.992 56.976 282.468 56.0054 282.804C55.0347 283.121 53.896 283.28 52.5894 283.28ZM74.4272 283H71.6552V279.416L71.4592 279.332V274.572C71.4592 273.415 71.1792 272.612 70.6192 272.164C70.0779 271.697 69.1352 271.464 67.7912 271.464C66.5032 271.464 65.5419 271.688 64.9072 272.136C64.2725 272.584 63.9552 273.321 63.9552 274.348V274.46H60.9592V274.348C60.9592 273.284 61.2392 272.341 61.7992 271.52C62.3592 270.68 63.1619 270.017 64.2072 269.532C65.2712 269.047 66.5405 268.804 68.0152 268.804C69.4899 268.804 70.6939 269.056 71.6272 269.56C72.5792 270.045 73.2792 270.717 73.7272 271.576C74.1939 272.435 74.4272 273.424 74.4272 274.544V283ZM65.3552 283.28C63.9179 283.28 62.7699 282.963 61.9112 282.328C61.0712 281.675 60.6512 280.779 60.6512 279.64C60.6512 278.912 60.8285 278.305 61.1832 277.82C61.5565 277.316 62.0792 276.924 62.7512 276.644C63.4232 276.364 64.2165 276.168 65.1312 276.056L71.7392 275.356V277.148L65.9992 277.792C65.2152 277.885 64.6272 278.053 64.2352 278.296C63.8619 278.52 63.6752 278.903 63.6752 279.444C63.6752 280.004 63.8712 280.424 64.2632 280.704C64.6739 280.965 65.3085 281.096 66.1672 281.096C67.2312 281.096 68.1552 280.965 68.9392 280.704C69.7232 280.424 70.3392 279.995 70.7872 279.416C71.2352 278.837 71.4592 278.091 71.4592 277.176L71.8512 277.232V279.528H71.4592C71.0859 280.704 70.3672 281.628 69.3032 282.3C68.2579 282.953 66.9419 283.28 65.3552 283.28ZM83.7906 283H80.0386L75.8666 269.084H79.0026L81.3266 276.98L81.9706 280.564H82.1946L83.2306 276.7L86.1426 269.084H90.0066L92.9466 276.7L93.9826 280.564H94.2066L94.8506 276.98L97.1746 269.084H100.255L96.0266 283H92.2746L89.2226 274.992L88.1586 271.576H87.9346L86.8706 274.992L83.7906 283ZM108.816 287.76H106.828V285.016H109.544C110.16 285.016 110.617 284.913 110.916 284.708C111.233 284.521 111.494 284.195 111.7 283.728L112.568 281.852L112.232 283.392L105.176 269.084H108.564L112.12 276.476L113.492 279.808H113.716L115.032 276.448L118.308 269.084H121.64L114.388 284.512C114.014 285.333 113.576 285.977 113.072 286.444C112.568 286.929 111.97 287.265 111.28 287.452C110.589 287.657 109.768 287.76 108.816 287.76ZM130.231 283.28C128.7 283.28 127.347 282.981 126.171 282.384C125.013 281.768 124.108 280.919 123.455 279.836C122.82 278.735 122.503 277.475 122.503 276.056C122.503 274.6 122.82 273.331 123.455 272.248C124.108 271.165 125.013 270.325 126.171 269.728C127.347 269.112 128.7 268.804 130.231 268.804C131.799 268.804 133.161 269.112 134.319 269.728C135.476 270.325 136.372 271.165 137.007 272.248C137.66 273.331 137.987 274.6 137.987 276.056C137.987 277.475 137.66 278.735 137.007 279.836C136.372 280.919 135.476 281.768 134.319 282.384C133.161 282.981 131.799 283.28 130.231 283.28ZM130.231 280.592C131.929 280.592 133.152 280.209 133.899 279.444C134.645 278.66 135.019 277.531 135.019 276.056C135.019 274.581 134.645 273.452 133.899 272.668C133.152 271.865 131.929 271.464 130.231 271.464C128.551 271.464 127.337 271.865 126.591 272.668C125.844 273.452 125.471 274.581 125.471 276.056C125.471 277.531 125.844 278.66 126.591 279.444C127.337 280.209 128.551 280.592 130.231 280.592ZM145.977 283.28C144.671 283.28 143.588 283.019 142.729 282.496C141.871 281.973 141.227 281.273 140.797 280.396C140.368 279.519 140.153 278.539 140.153 277.456V269.084H143.149V276.644C143.149 277.932 143.467 278.912 144.101 279.584C144.755 280.237 145.819 280.564 147.293 280.564C148.843 280.564 149.972 280.181 150.681 279.416C151.409 278.632 151.773 277.484 151.773 275.972L152.305 275.944L152.473 278.688H151.829C151.699 279.472 151.4 280.209 150.933 280.9C150.467 281.591 149.823 282.16 149.001 282.608C148.199 283.056 147.191 283.28 145.977 283.28ZM154.797 283H152.025V278.632L151.773 278.492V269.084H154.797V283ZM176.974 283H173.978V275.44C173.978 274.04 173.651 273.041 172.998 272.444C172.344 271.828 171.29 271.52 169.834 271.52C168.732 271.52 167.855 271.716 167.202 272.108C166.548 272.481 166.072 273.023 165.774 273.732C165.494 274.423 165.354 275.263 165.354 276.252L164.766 276.28L164.906 273.34H165.522C165.69 272.556 165.988 271.819 166.418 271.128C166.866 270.437 167.491 269.877 168.294 269.448C169.096 269.019 170.086 268.804 171.262 268.804C172.531 268.804 173.586 269.065 174.426 269.588C175.284 270.092 175.919 270.792 176.33 271.688C176.759 272.565 176.974 273.573 176.974 274.712V283ZM165.354 283H162.33V264.24H165.354V283ZM192.853 283H190.081V279.416L189.885 279.332V274.572C189.885 273.415 189.605 272.612 189.045 272.164C188.504 271.697 187.561 271.464 186.217 271.464C184.929 271.464 183.968 271.688 183.333 272.136C182.698 272.584 182.381 273.321 182.381 274.348V274.46H179.385V274.348C179.385 273.284 179.665 272.341 180.225 271.52C180.785 270.68 181.588 270.017 182.633 269.532C183.697 269.047 184.966 268.804 186.441 268.804C187.916 268.804 189.12 269.056 190.053 269.56C191.005 270.045 191.705 270.717 192.153 271.576C192.62 272.435 192.853 273.424 192.853 274.544V283ZM183.781 283.28C182.344 283.28 181.196 282.963 180.337 282.328C179.497 281.675 179.077 280.779 179.077 279.64C179.077 278.912 179.254 278.305 179.609 277.82C179.982 277.316 180.505 276.924 181.177 276.644C181.849 276.364 182.642 276.168 183.557 276.056L190.165 275.356V277.148L184.425 277.792C183.641 277.885 183.053 278.053 182.661 278.296C182.288 278.52 182.101 278.903 182.101 279.444C182.101 280.004 182.297 280.424 182.689 280.704C183.1 280.965 183.734 281.096 184.593 281.096C185.657 281.096 186.581 280.965 187.365 280.704C188.149 280.424 188.765 279.995 189.213 279.416C189.661 278.837 189.885 278.091 189.885 277.176L190.277 277.232V279.528H189.885C189.512 280.704 188.793 281.628 187.729 282.3C186.684 282.953 185.368 283.28 183.781 283.28ZM204.68 283H201.488C199.995 283 198.81 282.636 197.932 281.908C197.074 281.18 196.644 279.976 196.644 278.296V266.032H199.64V278.128C199.64 278.987 199.846 279.565 200.256 279.864C200.667 280.144 201.302 280.284 202.16 280.284H204.68V283ZM204.68 271.604H194.292V269.084H204.68V271.604ZM213.572 283.28C212.06 283.28 210.735 283 209.596 282.44C208.457 281.88 207.571 281.059 206.936 279.976C206.32 278.893 206.012 277.587 206.012 276.056C206.012 274.6 206.32 273.331 206.936 272.248C207.571 271.165 208.448 270.325 209.568 269.728C210.688 269.112 212.004 268.804 213.516 268.804C214.953 268.804 216.213 269.065 217.296 269.588C218.397 270.092 219.247 270.839 219.844 271.828C220.46 272.799 220.768 273.993 220.768 275.412C220.768 275.655 220.759 275.888 220.74 276.112C220.721 276.317 220.693 276.523 220.656 276.728H207.944V275.048H218.668L217.884 276.084C217.903 275.897 217.912 275.72 217.912 275.552C217.912 275.365 217.912 275.179 217.912 274.992C217.912 273.704 217.539 272.752 216.792 272.136C216.064 271.501 214.953 271.184 213.46 271.184C211.799 271.184 210.613 271.567 209.904 272.332C209.195 273.097 208.84 274.199 208.84 275.636V276.364C208.84 277.82 209.195 278.931 209.904 279.696C210.613 280.461 211.808 280.844 213.488 280.844C214.944 280.844 215.989 280.62 216.624 280.172C217.277 279.705 217.604 279.061 217.604 278.24V278.016H220.628V278.268C220.628 279.257 220.32 280.135 219.704 280.9C219.107 281.647 218.276 282.235 217.212 282.664C216.167 283.075 214.953 283.28 213.572 283.28ZM229.165 283.28C227.69 283.28 226.439 282.981 225.413 282.384C224.405 281.768 223.639 280.919 223.117 279.836C222.594 278.735 222.333 277.475 222.333 276.056C222.333 274.6 222.594 273.331 223.117 272.248C223.639 271.165 224.395 270.325 225.385 269.728C226.374 269.112 227.569 268.804 228.969 268.804C230.611 268.804 231.909 269.187 232.861 269.952C233.813 270.717 234.429 271.688 234.709 272.864H235.409V275.972H234.877C234.877 274.497 234.457 273.396 233.617 272.668C232.777 271.921 231.582 271.548 230.033 271.548C229.081 271.548 228.25 271.697 227.541 271.996C226.831 272.276 226.29 272.743 225.917 273.396C225.562 274.049 225.385 274.936 225.385 276.056C225.385 277.157 225.562 278.035 225.917 278.688C226.29 279.341 226.831 279.808 227.541 280.088C228.25 280.368 229.099 280.508 230.089 280.508C231.078 280.508 231.927 280.359 232.637 280.06C233.365 279.743 233.915 279.257 234.289 278.604C234.681 277.951 234.877 277.148 234.877 276.196H235.409L235.605 278.996H234.933C234.653 280.377 234.009 281.441 233.001 282.188C232.011 282.916 230.733 283.28 229.165 283.28ZM237.901 283H235.129V278.632L234.877 278.268V264.24H237.901V283ZM254.61 283H251.418C249.925 283 248.739 282.636 247.862 281.908C247.003 281.18 246.574 279.976 246.574 278.296V266.032H249.57V278.128C249.57 278.987 249.775 279.565 250.186 279.864C250.597 280.144 251.231 280.284 252.09 280.284H254.61V283ZM254.61 271.604H244.222V269.084H254.61V271.604ZM271.146 283H268.15V275.44C268.15 274.04 267.823 273.041 267.17 272.444C266.516 271.828 265.462 271.52 264.006 271.52C262.904 271.52 262.027 271.716 261.374 272.108C260.72 272.481 260.244 273.023 259.946 273.732C259.666 274.423 259.526 275.263 259.526 276.252L258.938 276.28L259.078 273.34H259.694C259.862 272.556 260.16 271.819 260.59 271.128C261.038 270.437 261.663 269.877 262.466 269.448C263.268 269.019 264.258 268.804 265.434 268.804C266.703 268.804 267.758 269.065 268.598 269.588C269.456 270.092 270.091 270.792 270.502 271.688C270.931 272.565 271.146 273.573 271.146 274.712V283ZM259.526 283H256.502V264.24H259.526V283ZM280.977 283.28C279.446 283.28 278.093 282.981 276.917 282.384C275.76 281.768 274.854 280.919 274.201 279.836C273.566 278.735 273.249 277.475 273.249 276.056C273.249 274.6 273.566 273.331 274.201 272.248C274.854 271.165 275.76 270.325 276.917 269.728C278.093 269.112 279.446 268.804 280.977 268.804C282.545 268.804 283.908 269.112 285.065 269.728C286.222 270.325 287.118 271.165 287.753 272.248C288.406 273.331 288.733 274.6 288.733 276.056C288.733 277.475 288.406 278.735 287.753 279.836C287.118 280.919 286.222 281.768 285.065 282.384C283.908 282.981 282.545 283.28 280.977 283.28ZM280.977 280.592C282.676 280.592 283.898 280.209 284.645 279.444C285.392 278.66 285.765 277.531 285.765 276.056C285.765 274.581 285.392 273.452 284.645 272.668C283.898 271.865 282.676 271.464 280.977 271.464C279.297 271.464 278.084 271.865 277.337 272.668C276.59 273.452 276.217 274.581 276.217 276.056C276.217 277.531 276.59 278.66 277.337 279.444C278.084 280.209 279.297 280.592 280.977 280.592ZM297.507 283.28C295.267 283.28 293.531 282.851 292.299 281.992C291.086 281.133 290.479 279.901 290.479 278.296V278.212H293.503V278.436C293.503 279.351 293.802 279.985 294.399 280.34C295.015 280.676 296.051 280.844 297.507 280.844C298.87 280.844 299.794 280.704 300.279 280.424C300.783 280.125 301.035 279.668 301.035 279.052C301.035 278.473 300.839 278.063 300.447 277.82C300.074 277.577 299.383 277.391 298.375 277.26L294.567 276.756C293.242 276.588 292.206 276.215 291.459 275.636C290.713 275.039 290.339 274.152 290.339 272.976C290.339 272.155 290.582 271.436 291.067 270.82C291.553 270.185 292.281 269.691 293.251 269.336C294.222 268.981 295.417 268.804 296.835 268.804C298.254 268.804 299.467 268.991 300.475 269.364C301.502 269.737 302.286 270.297 302.827 271.044C303.387 271.791 303.667 272.715 303.667 273.816V273.9H300.671V273.732C300.671 273.191 300.559 272.733 300.335 272.36C300.111 271.987 299.71 271.707 299.131 271.52C298.571 271.315 297.778 271.212 296.751 271.212C295.463 271.212 294.567 271.361 294.063 271.66C293.559 271.959 293.307 272.435 293.307 273.088C293.307 273.629 293.494 274.021 293.867 274.264C294.241 274.507 294.941 274.703 295.967 274.852L299.187 275.3C300.83 275.505 302.043 275.907 302.827 276.504C303.611 277.101 304.003 277.979 304.003 279.136C304.003 279.995 303.733 280.741 303.191 281.376C302.65 281.992 301.894 282.468 300.923 282.804C299.953 283.121 298.814 283.28 297.507 283.28ZM313.185 283.28C311.673 283.28 310.348 283 309.209 282.44C308.07 281.88 307.184 281.059 306.549 279.976C305.933 278.893 305.625 277.587 305.625 276.056C305.625 274.6 305.933 273.331 306.549 272.248C307.184 271.165 308.061 270.325 309.181 269.728C310.301 269.112 311.617 268.804 313.129 268.804C314.566 268.804 315.826 269.065 316.909 269.588C318.01 270.092 318.86 270.839 319.457 271.828C320.073 272.799 320.381 273.993 320.381 275.412C320.381 275.655 320.372 275.888 320.353 276.112C320.334 276.317 320.306 276.523 320.269 276.728H307.557V275.048H318.281L317.497 276.084C317.516 275.897 317.525 275.72 317.525 275.552C317.525 275.365 317.525 275.179 317.525 274.992C317.525 273.704 317.152 272.752 316.405 272.136C315.677 271.501 314.566 271.184 313.073 271.184C311.412 271.184 310.226 271.567 309.517 272.332C308.808 273.097 308.453 274.199 308.453 275.636V276.364C308.453 277.82 308.808 278.931 309.517 279.696C310.226 280.461 311.421 280.844 313.101 280.844C314.557 280.844 315.602 280.62 316.237 280.172C316.89 279.705 317.217 279.061 317.217 278.24V278.016H320.241V278.268C320.241 279.257 319.933 280.135 319.317 280.9C318.72 281.647 317.889 282.235 316.825 282.664C315.78 283.075 314.566 283.28 313.185 283.28ZM336.279 283.28C334.73 283.28 333.461 282.897 332.471 282.132C331.482 281.367 330.847 280.349 330.567 279.08H329.923V276.28H330.455C330.455 277.213 330.651 278.007 331.043 278.66C331.435 279.295 331.986 279.771 332.695 280.088C333.423 280.387 334.273 280.536 335.243 280.536C336.251 280.536 337.101 280.396 337.791 280.116C338.501 279.817 339.042 279.341 339.415 278.688C339.789 278.035 339.975 277.157 339.975 276.056C339.975 274.936 339.789 274.049 339.415 273.396C339.042 272.743 338.501 272.276 337.791 271.996C337.101 271.716 336.27 271.576 335.299 271.576C333.75 271.576 332.555 271.949 331.715 272.696C330.875 273.424 330.455 274.535 330.455 276.028H329.923L329.727 272.948H330.455C330.735 271.66 331.361 270.652 332.331 269.924C333.321 269.177 334.627 268.804 336.251 268.804C337.689 268.804 338.911 269.112 339.919 269.728C340.927 270.325 341.693 271.165 342.215 272.248C342.738 273.331 342.999 274.6 342.999 276.056C342.999 277.475 342.738 278.735 342.215 279.836C341.711 280.919 340.955 281.768 339.947 282.384C338.958 282.981 337.735 283.28 336.279 283.28ZM330.455 287.76H327.431V269.084H330.203V273.452L330.455 273.816V287.76ZM352.207 283.28C350.677 283.28 349.323 282.981 348.147 282.384C346.99 281.768 346.085 280.919 345.431 279.836C344.797 278.735 344.479 277.475 344.479 276.056C344.479 274.6 344.797 273.331 345.431 272.248C346.085 271.165 346.99 270.325 348.147 269.728C349.323 269.112 350.677 268.804 352.207 268.804C353.775 268.804 355.138 269.112 356.295 269.728C357.453 270.325 358.349 271.165 358.983 272.248C359.637 273.331 359.963 274.6 359.963 276.056C359.963 277.475 359.637 278.735 358.983 279.836C358.349 280.919 357.453 281.768 356.295 282.384C355.138 282.981 353.775 283.28 352.207 283.28ZM352.207 280.592C353.906 280.592 355.129 280.209 355.875 279.444C356.622 278.66 356.995 277.531 356.995 276.056C356.995 274.581 356.622 273.452 355.875 272.668C355.129 271.865 353.906 271.464 352.207 271.464C350.527 271.464 349.314 271.865 348.567 272.668C347.821 273.452 347.447 274.581 347.447 276.056C347.447 277.531 347.821 278.66 348.567 279.444C349.314 280.209 350.527 280.592 352.207 280.592ZM369.27 283.28C367.739 283.28 366.386 282.981 365.21 282.384C364.052 281.768 363.147 280.919 362.494 279.836C361.859 278.735 361.542 277.475 361.542 276.056C361.542 274.6 361.859 273.331 362.494 272.248C363.147 271.165 364.052 270.325 365.21 269.728C366.386 269.112 367.739 268.804 369.27 268.804C370.838 268.804 372.2 269.112 373.358 269.728C374.515 270.325 375.411 271.165 376.046 272.248C376.699 273.331 377.026 274.6 377.026 276.056C377.026 277.475 376.699 278.735 376.046 279.836C375.411 280.919 374.515 281.768 373.358 282.384C372.2 282.981 370.838 283.28 369.27 283.28ZM369.27 280.592C370.968 280.592 372.191 280.209 372.938 279.444C373.684 278.66 374.058 277.531 374.058 276.056C374.058 274.581 373.684 273.452 372.938 272.668C372.191 271.865 370.968 271.464 369.27 271.464C367.59 271.464 366.376 271.865 365.63 272.668C364.883 273.452 364.51 274.581 364.51 276.056C364.51 277.531 364.883 278.66 365.63 279.444C366.376 280.209 367.59 280.592 369.27 280.592ZM382.244 283H379.22V269.084H381.992V273.032L382.244 273.172V283ZM382.244 275.188H381.572V272.836H382.188C382.319 272.071 382.58 271.389 382.972 270.792C383.364 270.176 383.887 269.691 384.54 269.336C385.212 268.981 386.024 268.804 386.976 268.804C388.04 268.804 388.908 269.028 389.58 269.476C390.252 269.924 390.738 270.521 391.036 271.268C391.354 272.015 391.512 272.827 391.512 273.704V275.524H388.516V274.292C388.516 273.284 388.292 272.547 387.844 272.08C387.396 271.613 386.65 271.38 385.604 271.38C384.41 271.38 383.551 271.707 383.028 272.36C382.506 273.013 382.244 273.956 382.244 275.188ZM50.072 317H46.516L42.4 311.316H37.08V308.6H42.4L46.572 303.084H50.1L44.864 309.776L50.072 317ZM38.424 317H35.4V298.24H38.424V317ZM54.6115 317H51.5875V303.084H54.6115V317ZM54.6115 301.46H51.5875V298.24H54.6115V301.46ZM66.5397 317H63.3477C61.8544 317 60.6691 316.636 59.7917 315.908C58.9331 315.18 58.5037 313.976 58.5037 312.296V300.032H61.4997V312.128C61.4997 312.987 61.7051 313.565 62.1157 313.864C62.5264 314.144 63.1611 314.284 64.0197 314.284H66.5397V317ZM66.5397 305.604H56.1517V303.084H66.5397V305.604ZM77.5593 317H74.3673C72.8739 317 71.6886 316.636 70.8113 315.908C69.9526 315.18 69.5233 313.976 69.5233 312.296V300.032H72.5193V312.128C72.5193 312.987 72.7246 313.565 73.1353 313.864C73.5459 314.144 74.1806 314.284 75.0393 314.284H77.5593V317ZM77.5593 305.604H67.1713V303.084H77.5593V305.604ZM86.4508 317.28C84.9388 317.28 83.6134 317 82.4748 316.44C81.3361 315.88 80.4494 315.059 79.8148 313.976C79.1988 312.893 78.8908 311.587 78.8908 310.056C78.8908 308.6 79.1988 307.331 79.8148 306.248C80.4494 305.165 81.3268 304.325 82.4468 303.728C83.5668 303.112 84.8828 302.804 86.3948 302.804C87.8321 302.804 89.0921 303.065 90.1748 303.588C91.2761 304.092 92.1254 304.839 92.7228 305.828C93.3388 306.799 93.6468 307.993 93.6468 309.412C93.6468 309.655 93.6374 309.888 93.6188 310.112C93.6001 310.317 93.5721 310.523 93.5348 310.728H80.8228V309.048H91.5468L90.7628 310.084C90.7814 309.897 90.7908 309.72 90.7908 309.552C90.7908 309.365 90.7908 309.179 90.7908 308.992C90.7908 307.704 90.4174 306.752 89.6708 306.136C88.9428 305.501 87.8321 305.184 86.3388 305.184C84.6774 305.184 83.4921 305.567 82.7828 306.332C82.0734 307.097 81.7188 308.199 81.7188 309.636V310.364C81.7188 311.82 82.0734 312.931 82.7828 313.696C83.4921 314.461 84.6868 314.844 86.3668 314.844C87.8228 314.844 88.8681 314.62 89.5028 314.172C90.1561 313.705 90.4828 313.061 90.4828 312.24V312.016H93.5068V312.268C93.5068 313.257 93.1988 314.135 92.5828 314.9C91.9854 315.647 91.1548 316.235 90.0908 316.664C89.0454 317.075 87.8321 317.28 86.4508 317.28ZM110.444 317H107.42V309.44C107.42 308.133 107.102 307.153 106.468 306.5C105.852 305.847 104.816 305.52 103.36 305.52C101.848 305.52 100.728 305.912 99.9997 306.696C99.2904 307.461 98.9357 308.6 98.9357 310.112L98.4037 310.14L98.2637 307.396H98.8797C99.0291 306.612 99.3277 305.875 99.7757 305.184C100.242 304.475 100.877 303.905 101.68 303.476C102.501 303.028 103.5 302.804 104.676 302.804C105.964 302.804 107.037 303.065 107.896 303.588C108.754 304.111 109.389 304.811 109.8 305.688C110.229 306.565 110.444 307.545 110.444 308.628V317ZM98.9357 317H95.9117V303.084H98.6837V307.452L98.9357 307.592V317ZM119.718 317.28C117.478 317.28 115.742 316.851 114.51 315.992C113.297 315.133 112.69 313.901 112.69 312.296V312.212H115.714V312.436C115.714 313.351 116.013 313.985 116.61 314.34C117.226 314.676 118.262 314.844 119.718 314.844C121.081 314.844 122.005 314.704 122.49 314.424C122.994 314.125 123.246 313.668 123.246 313.052C123.246 312.473 123.05 312.063 122.658 311.82C122.285 311.577 121.594 311.391 120.586 311.26L116.778 310.756C115.453 310.588 114.417 310.215 113.67 309.636C112.924 309.039 112.55 308.152 112.55 306.976C112.55 306.155 112.793 305.436 113.278 304.82C113.764 304.185 114.492 303.691 115.462 303.336C116.433 302.981 117.628 302.804 119.046 302.804C120.465 302.804 121.678 302.991 122.686 303.364C123.713 303.737 124.497 304.297 125.038 305.044C125.598 305.791 125.878 306.715 125.878 307.816V307.9H122.882V307.732C122.882 307.191 122.77 306.733 122.546 306.36C122.322 305.987 121.921 305.707 121.342 305.52C120.782 305.315 119.989 305.212 118.962 305.212C117.674 305.212 116.778 305.361 116.274 305.66C115.77 305.959 115.518 306.435 115.518 307.088C115.518 307.629 115.705 308.021 116.078 308.264C116.452 308.507 117.152 308.703 118.178 308.852L121.398 309.3C123.041 309.505 124.254 309.907 125.038 310.504C125.822 311.101 126.214 311.979 126.214 313.136C126.214 313.995 125.944 314.741 125.402 315.376C124.861 315.992 124.105 316.468 123.134 316.804C122.164 317.121 121.025 317.28 119.718 317.28ZM131.644 317H127.836V312.66H131.644V317ZM137.14 317H133.332V312.66H137.14V317ZM142.636 317H138.828V312.66H142.636V317Z" fill="white"/>
</svg>
