<svg width="528" height="723" viewBox="0 0 528 723" fill="none" xmlns="http://www.w3.org/2000/svg">
<rect x="1" y="1" width="526" height="721" rx="43" fill="black" stroke="white" stroke-width="2"/>
<path d="M40.4719 353H37.4479V334.24H40.4719V353ZM54.6372 353.28C52.3972 353.28 50.6612 352.851 49.4292 351.992C48.2159 351.133 47.6092 349.901 47.6092 348.296V348.212H50.6332V348.436C50.6332 349.351 50.9319 349.985 51.5292 350.34C52.1452 350.676 53.1812 350.844 54.6372 350.844C55.9999 350.844 56.9239 350.704 57.4092 350.424C57.9132 350.125 58.1652 349.668 58.1652 349.052C58.1652 348.473 57.9692 348.063 57.5772 347.82C57.2039 347.577 56.5132 347.391 55.5052 347.26L51.6972 346.756C50.3719 346.588 49.3359 346.215 48.5892 345.636C47.8426 345.039 47.4692 344.152 47.4692 342.976C47.4692 342.155 47.7119 341.436 48.1972 340.82C48.6826 340.185 49.4106 339.691 50.3812 339.336C51.3519 338.981 52.5466 338.804 53.9652 338.804C55.3839 338.804 56.5972 338.991 57.6052 339.364C58.6319 339.737 59.4159 340.297 59.9572 341.044C60.5172 341.791 60.7972 342.715 60.7972 343.816V343.9H57.8012V343.732C57.8012 343.191 57.6892 342.733 57.4652 342.36C57.2412 341.987 56.8399 341.707 56.2612 341.52C55.7012 341.315 54.9079 341.212 53.8812 341.212C52.5932 341.212 51.6972 341.361 51.1932 341.66C50.6892 341.959 50.4372 342.435 50.4372 343.088C50.4372 343.629 50.6239 344.021 50.9972 344.264C51.3706 344.507 52.0706 344.703 53.0972 344.852L56.3172 345.3C57.9599 345.505 59.1732 345.907 59.9572 346.504C60.7412 347.101 61.1332 347.979 61.1332 349.136C61.1332 349.995 60.8626 350.741 60.3212 351.376C59.7799 351.992 59.0239 352.468 58.0532 352.804C57.0826 353.121 55.9439 353.28 54.6372 353.28ZM76.475 353H73.703V349.416L73.507 349.332V344.572C73.507 343.415 73.227 342.612 72.667 342.164C72.1257 341.697 71.183 341.464 69.839 341.464C68.551 341.464 67.5897 341.688 66.955 342.136C66.3204 342.584 66.003 343.321 66.003 344.348V344.46H63.007V344.348C63.007 343.284 63.287 342.341 63.847 341.52C64.407 340.68 65.2097 340.017 66.255 339.532C67.319 339.047 68.5884 338.804 70.063 338.804C71.5377 338.804 72.7417 339.056 73.675 339.56C74.627 340.045 75.327 340.717 75.775 341.576C76.2417 342.435 76.475 343.424 76.475 344.544V353ZM67.403 353.28C65.9657 353.28 64.8177 352.963 63.959 352.328C63.119 351.675 62.699 350.779 62.699 349.64C62.699 348.912 62.8764 348.305 63.231 347.82C63.6044 347.316 64.127 346.924 64.799 346.644C65.471 346.364 66.2644 346.168 67.179 346.056L73.787 345.356V347.148L68.047 347.792C67.263 347.885 66.675 348.053 66.283 348.296C65.9097 348.52 65.723 348.903 65.723 349.444C65.723 350.004 65.919 350.424 66.311 350.704C66.7217 350.965 67.3564 351.096 68.215 351.096C69.279 351.096 70.203 350.965 70.987 350.704C71.771 350.424 72.387 349.995 72.835 349.416C73.283 348.837 73.507 348.091 73.507 347.176L73.899 347.232V349.528H73.507C73.1337 350.704 72.415 351.628 71.351 352.3C70.3057 352.953 68.9897 353.28 67.403 353.28ZM85.8384 353H82.0864L77.9144 339.084H81.0504L83.3744 346.98L84.0184 350.564H84.2424L85.2784 346.7L88.1904 339.084H92.0544L94.9944 346.7L96.0304 350.564H96.2544L96.8984 346.98L99.2224 339.084H102.302L98.0744 353H94.3224L91.2704 344.992L90.2064 341.576H89.9824L88.9184 344.992L85.8384 353ZM110.864 357.76H108.876V355.016H111.592C112.208 355.016 112.665 354.913 112.964 354.708C113.281 354.521 113.542 354.195 113.748 353.728L114.616 351.852L114.28 353.392L107.224 339.084H110.612L114.168 346.476L115.54 349.808H115.764L117.08 346.448L120.356 339.084H123.688L116.436 354.512C116.062 355.333 115.624 355.977 115.12 356.444C114.616 356.929 114.018 357.265 113.328 357.452C112.637 357.657 111.816 357.76 110.864 357.76ZM132.279 353.28C130.748 353.28 129.395 352.981 128.219 352.384C127.061 351.768 126.156 350.919 125.503 349.836C124.868 348.735 124.551 347.475 124.551 346.056C124.551 344.6 124.868 343.331 125.503 342.248C126.156 341.165 127.061 340.325 128.219 339.728C129.395 339.112 130.748 338.804 132.279 338.804C133.847 338.804 135.209 339.112 136.367 339.728C137.524 340.325 138.42 341.165 139.055 342.248C139.708 343.331 140.035 344.6 140.035 346.056C140.035 347.475 139.708 348.735 139.055 349.836C138.42 350.919 137.524 351.768 136.367 352.384C135.209 352.981 133.847 353.28 132.279 353.28ZM132.279 350.592C133.977 350.592 135.2 350.209 135.947 349.444C136.693 348.66 137.067 347.531 137.067 346.056C137.067 344.581 136.693 343.452 135.947 342.668C135.2 341.865 133.977 341.464 132.279 341.464C130.599 341.464 129.385 341.865 128.639 342.668C127.892 343.452 127.519 344.581 127.519 346.056C127.519 347.531 127.892 348.66 128.639 349.444C129.385 350.209 130.599 350.592 132.279 350.592ZM148.025 353.28C146.718 353.28 145.636 353.019 144.777 352.496C143.918 351.973 143.274 351.273 142.845 350.396C142.416 349.519 142.201 348.539 142.201 347.456V339.084H145.197V346.644C145.197 347.932 145.514 348.912 146.149 349.584C146.802 350.237 147.866 350.564 149.341 350.564C150.89 350.564 152.02 350.181 152.729 349.416C153.457 348.632 153.821 347.484 153.821 345.972L154.353 345.944L154.521 348.688H153.877C153.746 349.472 153.448 350.209 152.981 350.9C152.514 351.591 151.87 352.16 151.049 352.608C150.246 353.056 149.238 353.28 148.025 353.28ZM156.845 353H154.073V348.632L153.821 348.492V339.084H156.845V353ZM179.022 353H176.026V345.44C176.026 344.04 175.699 343.041 175.046 342.444C174.392 341.828 173.338 341.52 171.882 341.52C170.78 341.52 169.903 341.716 169.25 342.108C168.596 342.481 168.12 343.023 167.822 343.732C167.542 344.423 167.402 345.263 167.402 346.252L166.814 346.28L166.954 343.34H167.57C167.738 342.556 168.036 341.819 168.466 341.128C168.914 340.437 169.539 339.877 170.342 339.448C171.144 339.019 172.134 338.804 173.31 338.804C174.579 338.804 175.634 339.065 176.474 339.588C177.332 340.092 177.967 340.792 178.378 341.688C178.807 342.565 179.022 343.573 179.022 344.712V353ZM167.402 353H164.378V334.24H167.402V353ZM194.901 353H192.129V349.416L191.933 349.332V344.572C191.933 343.415 191.653 342.612 191.093 342.164C190.551 341.697 189.609 341.464 188.265 341.464C186.977 341.464 186.015 341.688 185.381 342.136C184.746 342.584 184.429 343.321 184.429 344.348V344.46H181.433V344.348C181.433 343.284 181.713 342.341 182.273 341.52C182.833 340.68 183.635 340.017 184.681 339.532C185.745 339.047 187.014 338.804 188.489 338.804C189.963 338.804 191.167 339.056 192.101 339.56C193.053 340.045 193.753 340.717 194.201 341.576C194.667 342.435 194.901 343.424 194.901 344.544V353ZM185.829 353.28C184.391 353.28 183.243 352.963 182.385 352.328C181.545 351.675 181.125 350.779 181.125 349.64C181.125 348.912 181.302 348.305 181.657 347.82C182.03 347.316 182.553 346.924 183.225 346.644C183.897 346.364 184.69 346.168 185.605 346.056L192.213 345.356V347.148L186.473 347.792C185.689 347.885 185.101 348.053 184.709 348.296C184.335 348.52 184.149 348.903 184.149 349.444C184.149 350.004 184.345 350.424 184.737 350.704C185.147 350.965 185.782 351.096 186.641 351.096C187.705 351.096 188.629 350.965 189.413 350.704C190.197 350.424 190.813 349.995 191.261 349.416C191.709 348.837 191.933 348.091 191.933 347.176L192.325 347.232V349.528H191.933C191.559 350.704 190.841 351.628 189.777 352.3C188.731 352.953 187.415 353.28 185.829 353.28ZM206.728 353H203.536C202.043 353 200.858 352.636 199.98 351.908C199.122 351.18 198.692 349.976 198.692 348.296V336.032H201.688V348.128C201.688 348.987 201.894 349.565 202.304 349.864C202.715 350.144 203.35 350.284 204.208 350.284H206.728V353ZM206.728 341.604H196.34V339.084H206.728V341.604ZM215.62 353.28C214.108 353.28 212.782 353 211.644 352.44C210.505 351.88 209.618 351.059 208.984 349.976C208.368 348.893 208.06 347.587 208.06 346.056C208.06 344.6 208.368 343.331 208.984 342.248C209.618 341.165 210.496 340.325 211.616 339.728C212.736 339.112 214.052 338.804 215.564 338.804C217.001 338.804 218.261 339.065 219.344 339.588C220.445 340.092 221.294 340.839 221.892 341.828C222.508 342.799 222.816 343.993 222.816 345.412C222.816 345.655 222.806 345.888 222.788 346.112C222.769 346.317 222.741 346.523 222.704 346.728H209.992V345.048H220.716L219.932 346.084C219.95 345.897 219.96 345.72 219.96 345.552C219.96 345.365 219.96 345.179 219.96 344.992C219.96 343.704 219.586 342.752 218.84 342.136C218.112 341.501 217.001 341.184 215.508 341.184C213.846 341.184 212.661 341.567 211.952 342.332C211.242 343.097 210.888 344.199 210.888 345.636V346.364C210.888 347.82 211.242 348.931 211.952 349.696C212.661 350.461 213.856 350.844 215.536 350.844C216.992 350.844 218.037 350.62 218.672 350.172C219.325 349.705 219.652 349.061 219.652 348.24V348.016H222.676V348.268C222.676 349.257 222.368 350.135 221.752 350.9C221.154 351.647 220.324 352.235 219.26 352.664C218.214 353.075 217.001 353.28 215.62 353.28ZM231.213 353.28C229.738 353.28 228.487 352.981 227.461 352.384C226.453 351.768 225.687 350.919 225.165 349.836C224.642 348.735 224.381 347.475 224.381 346.056C224.381 344.6 224.642 343.331 225.165 342.248C225.687 341.165 226.443 340.325 227.433 339.728C228.422 339.112 229.617 338.804 231.017 338.804C232.659 338.804 233.957 339.187 234.909 339.952C235.861 340.717 236.477 341.688 236.757 342.864H237.457V345.972H236.925C236.925 344.497 236.505 343.396 235.665 342.668C234.825 341.921 233.63 341.548 232.081 341.548C231.129 341.548 230.298 341.697 229.589 341.996C228.879 342.276 228.338 342.743 227.965 343.396C227.61 344.049 227.433 344.936 227.433 346.056C227.433 347.157 227.61 348.035 227.965 348.688C228.338 349.341 228.879 349.808 229.589 350.088C230.298 350.368 231.147 350.508 232.137 350.508C233.126 350.508 233.975 350.359 234.685 350.06C235.413 349.743 235.963 349.257 236.337 348.604C236.729 347.951 236.925 347.148 236.925 346.196H237.457L237.653 348.996H236.981C236.701 350.377 236.057 351.441 235.049 352.188C234.059 352.916 232.781 353.28 231.213 353.28ZM239.949 353H237.177V348.632L236.925 348.268V334.24H239.949V353ZM256.658 353H253.466C251.973 353 250.787 352.636 249.91 351.908C249.051 351.18 248.622 349.976 248.622 348.296V336.032H251.618V348.128C251.618 348.987 251.823 349.565 252.234 349.864C252.645 350.144 253.279 350.284 254.138 350.284H256.658V353ZM256.658 341.604H246.27V339.084H256.658V341.604ZM273.193 353H270.197V345.44C270.197 344.04 269.871 343.041 269.217 342.444C268.564 341.828 267.509 341.52 266.053 341.52C264.952 341.52 264.075 341.716 263.421 342.108C262.768 342.481 262.292 343.023 261.993 343.732C261.713 344.423 261.573 345.263 261.573 346.252L260.985 346.28L261.125 343.34H261.741C261.909 342.556 262.208 341.819 262.637 341.128C263.085 340.437 263.711 339.877 264.513 339.448C265.316 339.019 266.305 338.804 267.481 338.804C268.751 338.804 269.805 339.065 270.645 339.588C271.504 340.092 272.139 340.792 272.549 341.688C272.979 342.565 273.193 343.573 273.193 344.712V353ZM261.573 353H258.549V334.24H261.573V353ZM283.025 353.28C281.494 353.28 280.141 352.981 278.965 352.384C277.807 351.768 276.902 350.919 276.249 349.836C275.614 348.735 275.297 347.475 275.297 346.056C275.297 344.6 275.614 343.331 276.249 342.248C276.902 341.165 277.807 340.325 278.965 339.728C280.141 339.112 281.494 338.804 283.025 338.804C284.593 338.804 285.955 339.112 287.113 339.728C288.27 340.325 289.166 341.165 289.801 342.248C290.454 343.331 290.781 344.6 290.781 346.056C290.781 347.475 290.454 348.735 289.801 349.836C289.166 350.919 288.27 351.768 287.113 352.384C285.955 352.981 284.593 353.28 283.025 353.28ZM283.025 350.592C284.723 350.592 285.946 350.209 286.693 349.444C287.439 348.66 287.813 347.531 287.813 346.056C287.813 344.581 287.439 343.452 286.693 342.668C285.946 341.865 284.723 341.464 283.025 341.464C281.345 341.464 280.131 341.865 279.385 342.668C278.638 343.452 278.265 344.581 278.265 346.056C278.265 347.531 278.638 348.66 279.385 349.444C280.131 350.209 281.345 350.592 283.025 350.592ZM299.555 353.28C297.315 353.28 295.579 352.851 294.347 351.992C293.134 351.133 292.527 349.901 292.527 348.296V348.212H295.551V348.436C295.551 349.351 295.85 349.985 296.447 350.34C297.063 350.676 298.099 350.844 299.555 350.844C300.918 350.844 301.842 350.704 302.327 350.424C302.831 350.125 303.083 349.668 303.083 349.052C303.083 348.473 302.887 348.063 302.495 347.82C302.122 347.577 301.431 347.391 300.423 347.26L296.615 346.756C295.29 346.588 294.254 346.215 293.507 345.636C292.761 345.039 292.387 344.152 292.387 342.976C292.387 342.155 292.63 341.436 293.115 340.82C293.601 340.185 294.329 339.691 295.299 339.336C296.27 338.981 297.465 338.804 298.883 338.804C300.302 338.804 301.515 338.991 302.523 339.364C303.55 339.737 304.334 340.297 304.875 341.044C305.435 341.791 305.715 342.715 305.715 343.816V343.9H302.719V343.732C302.719 343.191 302.607 342.733 302.383 342.36C302.159 341.987 301.758 341.707 301.179 341.52C300.619 341.315 299.826 341.212 298.799 341.212C297.511 341.212 296.615 341.361 296.111 341.66C295.607 341.959 295.355 342.435 295.355 343.088C295.355 343.629 295.542 344.021 295.915 344.264C296.289 344.507 296.989 344.703 298.015 344.852L301.235 345.3C302.878 345.505 304.091 345.907 304.875 346.504C305.659 347.101 306.051 347.979 306.051 349.136C306.051 349.995 305.781 350.741 305.239 351.376C304.698 351.992 303.942 352.468 302.971 352.804C302.001 353.121 300.862 353.28 299.555 353.28ZM315.233 353.28C313.721 353.28 312.396 353 311.257 352.44C310.118 351.88 309.232 351.059 308.597 349.976C307.981 348.893 307.673 347.587 307.673 346.056C307.673 344.6 307.981 343.331 308.597 342.248C309.232 341.165 310.109 340.325 311.229 339.728C312.349 339.112 313.665 338.804 315.177 338.804C316.614 338.804 317.874 339.065 318.957 339.588C320.058 340.092 320.908 340.839 321.505 341.828C322.121 342.799 322.429 343.993 322.429 345.412C322.429 345.655 322.42 345.888 322.401 346.112C322.382 346.317 322.354 346.523 322.317 346.728H309.605V345.048H320.329L319.545 346.084C319.564 345.897 319.573 345.72 319.573 345.552C319.573 345.365 319.573 345.179 319.573 344.992C319.573 343.704 319.2 342.752 318.453 342.136C317.725 341.501 316.614 341.184 315.121 341.184C313.46 341.184 312.274 341.567 311.565 342.332C310.856 343.097 310.501 344.199 310.501 345.636V346.364C310.501 347.82 310.856 348.931 311.565 349.696C312.274 350.461 313.469 350.844 315.149 350.844C316.605 350.844 317.65 350.62 318.285 350.172C318.938 349.705 319.265 349.061 319.265 348.24V348.016H322.289V348.268C322.289 349.257 321.981 350.135 321.365 350.9C320.768 351.647 319.937 352.235 318.873 352.664C317.828 353.075 316.614 353.28 315.233 353.28ZM338.327 353.28C336.778 353.28 335.508 352.897 334.519 352.132C333.53 351.367 332.895 350.349 332.615 349.08H331.971V346.28H332.503C332.503 347.213 332.699 348.007 333.091 348.66C333.483 349.295 334.034 349.771 334.743 350.088C335.471 350.387 336.32 350.536 337.291 350.536C338.299 350.536 339.148 350.396 339.839 350.116C340.548 349.817 341.09 349.341 341.463 348.688C341.836 348.035 342.023 347.157 342.023 346.056C342.023 344.936 341.836 344.049 341.463 343.396C341.09 342.743 340.548 342.276 339.839 341.996C339.148 341.716 338.318 341.576 337.347 341.576C335.798 341.576 334.603 341.949 333.763 342.696C332.923 343.424 332.503 344.535 332.503 346.028H331.971L331.775 342.948H332.503C332.783 341.66 333.408 340.652 334.379 339.924C335.368 339.177 336.675 338.804 338.299 338.804C339.736 338.804 340.959 339.112 341.967 339.728C342.975 340.325 343.74 341.165 344.263 342.248C344.786 343.331 345.047 344.6 345.047 346.056C345.047 347.475 344.786 348.735 344.263 349.836C343.759 350.919 343.003 351.768 341.995 352.384C341.006 352.981 339.783 353.28 338.327 353.28ZM332.503 357.76H329.479V339.084H332.251V343.452L332.503 343.816V357.76ZM354.255 353.28C352.724 353.28 351.371 352.981 350.195 352.384C349.038 351.768 348.132 350.919 347.479 349.836C346.844 348.735 346.527 347.475 346.527 346.056C346.527 344.6 346.844 343.331 347.479 342.248C348.132 341.165 349.038 340.325 350.195 339.728C351.371 339.112 352.724 338.804 354.255 338.804C355.823 338.804 357.186 339.112 358.343 339.728C359.5 340.325 360.396 341.165 361.031 342.248C361.684 343.331 362.011 344.6 362.011 346.056C362.011 347.475 361.684 348.735 361.031 349.836C360.396 350.919 359.5 351.768 358.343 352.384C357.186 352.981 355.823 353.28 354.255 353.28ZM354.255 350.592C355.954 350.592 357.176 350.209 357.923 349.444C358.67 348.66 359.043 347.531 359.043 346.056C359.043 344.581 358.67 343.452 357.923 342.668C357.176 341.865 355.954 341.464 354.255 341.464C352.575 341.464 351.362 341.865 350.615 342.668C349.868 343.452 349.495 344.581 349.495 346.056C349.495 347.531 349.868 348.66 350.615 349.444C351.362 350.209 352.575 350.592 354.255 350.592ZM371.318 353.28C369.787 353.28 368.434 352.981 367.258 352.384C366.1 351.768 365.195 350.919 364.542 349.836C363.907 348.735 363.59 347.475 363.59 346.056C363.59 344.6 363.907 343.331 364.542 342.248C365.195 341.165 366.1 340.325 367.258 339.728C368.434 339.112 369.787 338.804 371.318 338.804C372.886 338.804 374.248 339.112 375.406 339.728C376.563 340.325 377.459 341.165 378.094 342.248C378.747 343.331 379.074 344.6 379.074 346.056C379.074 347.475 378.747 348.735 378.094 349.836C377.459 350.919 376.563 351.768 375.406 352.384C374.248 352.981 372.886 353.28 371.318 353.28ZM371.318 350.592C373.016 350.592 374.239 350.209 374.986 349.444C375.732 348.66 376.106 347.531 376.106 346.056C376.106 344.581 375.732 343.452 374.986 342.668C374.239 341.865 373.016 341.464 371.318 341.464C369.638 341.464 368.424 341.865 367.678 342.668C366.931 343.452 366.558 344.581 366.558 346.056C366.558 347.531 366.931 348.66 367.678 349.444C368.424 350.209 369.638 350.592 371.318 350.592ZM384.292 353H381.268V339.084H384.04V343.032L384.292 343.172V353ZM384.292 345.188H383.62V342.836H384.236C384.367 342.071 384.628 341.389 385.02 340.792C385.412 340.176 385.935 339.691 386.588 339.336C387.26 338.981 388.072 338.804 389.024 338.804C390.088 338.804 390.956 339.028 391.628 339.476C392.3 339.924 392.785 340.521 393.084 341.268C393.401 342.015 393.56 342.827 393.56 343.704V345.524H390.564V344.292C390.564 343.284 390.34 342.547 389.892 342.08C389.444 341.613 388.697 341.38 387.652 341.38C386.457 341.38 385.599 341.707 385.076 342.36C384.553 343.013 384.292 343.956 384.292 345.188ZM52.1199 387H48.5639L44.4479 381.316H39.1279V378.6H44.4479L48.6199 373.084H52.1479L46.9119 379.776L52.1199 387ZM40.4719 387H37.4479V368.24H40.4719V387ZM56.6594 387H53.6354V373.084H56.6594V387ZM56.6594 371.46H53.6354V368.24H56.6594V371.46ZM68.5876 387H65.3956C63.9022 387 62.7169 386.636 61.8396 385.908C60.9809 385.18 60.5516 383.976 60.5516 382.296V370.032H63.5476V382.128C63.5476 382.987 63.7529 383.565 64.1636 383.864C64.5742 384.144 65.2089 384.284 66.0676 384.284H68.5876V387ZM68.5876 375.604H58.1996V373.084H68.5876V375.604ZM79.6071 387H76.4151C74.9218 387 73.7364 386.636 72.8591 385.908C72.0004 385.18 71.5711 383.976 71.5711 382.296V370.032H74.5671V382.128C74.5671 382.987 74.7724 383.565 75.1831 383.864C75.5938 384.144 76.2284 384.284 77.0871 384.284H79.6071V387ZM79.6071 375.604H69.2191V373.084H79.6071V375.604ZM88.4986 387.28C86.9866 387.28 85.6613 387 84.5226 386.44C83.384 385.88 82.4973 385.059 81.8626 383.976C81.2466 382.893 80.9386 381.587 80.9386 380.056C80.9386 378.6 81.2466 377.331 81.8626 376.248C82.4973 375.165 83.3746 374.325 84.4946 373.728C85.6146 373.112 86.9306 372.804 88.4426 372.804C89.88 372.804 91.14 373.065 92.2226 373.588C93.324 374.092 94.1733 374.839 94.7706 375.828C95.3866 376.799 95.6946 377.993 95.6946 379.412C95.6946 379.655 95.6853 379.888 95.6666 380.112C95.648 380.317 95.62 380.523 95.5826 380.728H82.8706V379.048H93.5946L92.8106 380.084C92.8293 379.897 92.8386 379.72 92.8386 379.552C92.8386 379.365 92.8386 379.179 92.8386 378.992C92.8386 377.704 92.4653 376.752 91.7186 376.136C90.9906 375.501 89.88 375.184 88.3866 375.184C86.7253 375.184 85.54 375.567 84.8306 376.332C84.1213 377.097 83.7666 378.199 83.7666 379.636V380.364C83.7666 381.82 84.1213 382.931 84.8306 383.696C85.54 384.461 86.7346 384.844 88.4146 384.844C89.8706 384.844 90.916 384.62 91.5506 384.172C92.204 383.705 92.5306 383.061 92.5306 382.24V382.016H95.5546V382.268C95.5546 383.257 95.2466 384.135 94.6306 384.9C94.0333 385.647 93.2026 386.235 92.1386 386.664C91.0933 387.075 89.88 387.28 88.4986 387.28ZM112.492 387H109.468V379.44C109.468 378.133 109.15 377.153 108.516 376.5C107.9 375.847 106.864 375.52 105.408 375.52C103.896 375.52 102.776 375.912 102.048 376.696C101.338 377.461 100.984 378.6 100.984 380.112L100.452 380.14L100.312 377.396H100.928C101.077 376.612 101.376 375.875 101.824 375.184C102.29 374.475 102.925 373.905 103.728 373.476C104.549 373.028 105.548 372.804 106.724 372.804C108.012 372.804 109.085 373.065 109.944 373.588C110.802 374.111 111.437 374.811 111.848 375.688C112.277 376.565 112.492 377.545 112.492 378.628V387ZM100.984 387H97.9596V373.084H100.732V377.452L100.984 377.592V387ZM121.766 387.28C119.526 387.28 117.79 386.851 116.558 385.992C115.345 385.133 114.738 383.901 114.738 382.296V382.212H117.762V382.436C117.762 383.351 118.061 383.985 118.658 384.34C119.274 384.676 120.31 384.844 121.766 384.844C123.129 384.844 124.053 384.704 124.538 384.424C125.042 384.125 125.294 383.668 125.294 383.052C125.294 382.473 125.098 382.063 124.706 381.82C124.333 381.577 123.642 381.391 122.634 381.26L118.826 380.756C117.501 380.588 116.465 380.215 115.718 379.636C114.971 379.039 114.598 378.152 114.598 376.976C114.598 376.155 114.841 375.436 115.326 374.82C115.811 374.185 116.539 373.691 117.51 373.336C118.481 372.981 119.675 372.804 121.094 372.804C122.513 372.804 123.726 372.991 124.734 373.364C125.761 373.737 126.545 374.297 127.086 375.044C127.646 375.791 127.926 376.715 127.926 377.816V377.9H124.93V377.732C124.93 377.191 124.818 376.733 124.594 376.36C124.37 375.987 123.969 375.707 123.39 375.52C122.83 375.315 122.037 375.212 121.01 375.212C119.722 375.212 118.826 375.361 118.322 375.66C117.818 375.959 117.566 376.435 117.566 377.088C117.566 377.629 117.753 378.021 118.126 378.264C118.499 378.507 119.199 378.703 120.226 378.852L123.446 379.3C125.089 379.505 126.302 379.907 127.086 380.504C127.87 381.101 128.262 381.979 128.262 383.136C128.262 383.995 127.991 384.741 127.45 385.376C126.909 385.992 126.153 386.468 125.182 386.804C124.211 387.121 123.073 387.28 121.766 387.28ZM133.692 387H129.884V382.66H133.692V387ZM139.188 387H135.38V382.66H139.188V387ZM144.684 387H140.876V382.66H144.684V387Z" fill="white"/>
</svg>
