<svg width="466" height="309" viewBox="0 0 466 309" fill="none" xmlns="http://www.w3.org/2000/svg">
<rect x="1" y="1" width="464" height="307" rx="31" fill="black" stroke="white" stroke-width="2"/>
<path d="M47.424 129H44.4V115.084H47.424V129ZM47.424 113.46H44.4V110.24H47.424V113.46ZM54.3122 129H51.2882V115.84C51.2882 114.664 51.5402 113.665 52.0442 112.844C52.5669 112.004 53.3229 111.36 54.3122 110.912C55.3016 110.464 56.5056 110.24 57.9242 110.24H59.2962V112.48H57.4482C56.2536 112.48 55.3856 112.704 54.8442 113.152C54.3029 113.581 54.1256 114.403 54.3122 115.616V116.176V129ZM59.2962 117.604H49.1882V115.084H59.2962V117.604ZM67.9955 133.76H66.0075V131.016H68.7235C69.3395 131.016 69.7968 130.913 70.0955 130.708C70.4128 130.521 70.6741 130.195 70.8795 129.728L71.7475 127.852L71.4115 129.392L64.3555 115.084H67.7435L71.2995 122.476L72.6715 125.808H72.8955L74.2115 122.448L77.4875 115.084H80.8195L73.5675 130.512C73.1941 131.333 72.7555 131.977 72.2515 132.444C71.7475 132.929 71.1501 133.265 70.4595 133.452C69.7688 133.657 68.9475 133.76 67.9955 133.76ZM89.4104 129.28C87.8798 129.28 86.5264 128.981 85.3504 128.384C84.1931 127.768 83.2878 126.919 82.6344 125.836C81.9998 124.735 81.6824 123.475 81.6824 122.056C81.6824 120.6 81.9998 119.331 82.6344 118.248C83.2878 117.165 84.1931 116.325 85.3504 115.728C86.5264 115.112 87.8798 114.804 89.4104 114.804C90.9784 114.804 92.3411 115.112 93.4984 115.728C94.6558 116.325 95.5518 117.165 96.1864 118.248C96.8398 119.331 97.1664 120.6 97.1664 122.056C97.1664 123.475 96.8398 124.735 96.1864 125.836C95.5518 126.919 94.6558 127.768 93.4984 128.384C92.3411 128.981 90.9784 129.28 89.4104 129.28ZM89.4104 126.592C91.1091 126.592 92.3318 126.209 93.0784 125.444C93.8251 124.66 94.1984 123.531 94.1984 122.056C94.1984 120.581 93.8251 119.452 93.0784 118.668C92.3318 117.865 91.1091 117.464 89.4104 117.464C87.7304 117.464 86.5171 117.865 85.7704 118.668C85.0238 119.452 84.6504 120.581 84.6504 122.056C84.6504 123.531 85.0238 124.66 85.7704 125.444C86.5171 126.209 87.7304 126.592 89.4104 126.592ZM105.157 129.28C103.85 129.28 102.768 129.019 101.909 128.496C101.05 127.973 100.406 127.273 99.9769 126.396C99.5476 125.519 99.3329 124.539 99.3329 123.456V115.084H102.329V122.644C102.329 123.932 102.646 124.912 103.281 125.584C103.934 126.237 104.998 126.564 106.473 126.564C108.022 126.564 109.152 126.181 109.861 125.416C110.589 124.632 110.953 123.484 110.953 121.972L111.485 121.944L111.653 124.688H111.009C110.878 125.472 110.58 126.209 110.113 126.9C109.646 127.591 109.002 128.16 108.181 128.608C107.378 129.056 106.37 129.28 105.157 129.28ZM113.977 129H111.205V124.632L110.953 124.492V115.084H113.977V129ZM134.669 129H131.897V125.416L131.701 125.332V120.572C131.701 119.415 131.421 118.612 130.861 118.164C130.32 117.697 129.377 117.464 128.033 117.464C126.745 117.464 125.784 117.688 125.149 118.136C124.515 118.584 124.197 119.321 124.197 120.348V120.46H121.201V120.348C121.201 119.284 121.481 118.341 122.041 117.52C122.601 116.68 123.404 116.017 124.449 115.532C125.513 115.047 126.783 114.804 128.257 114.804C129.732 114.804 130.936 115.056 131.869 115.56C132.821 116.045 133.521 116.717 133.969 117.576C134.436 118.435 134.669 119.424 134.669 120.544V129ZM125.597 129.28C124.16 129.28 123.012 128.963 122.153 128.328C121.313 127.675 120.893 126.779 120.893 125.64C120.893 124.912 121.071 124.305 121.425 123.82C121.799 123.316 122.321 122.924 122.993 122.644C123.665 122.364 124.459 122.168 125.373 122.056L131.981 121.356V123.148L126.241 123.792C125.457 123.885 124.869 124.053 124.477 124.296C124.104 124.52 123.917 124.903 123.917 125.444C123.917 126.004 124.113 126.424 124.505 126.704C124.916 126.965 125.551 127.096 126.409 127.096C127.473 127.096 128.397 126.965 129.181 126.704C129.965 126.424 130.581 125.995 131.029 125.416C131.477 124.837 131.701 124.091 131.701 123.176L132.093 123.232V125.528H131.701C131.328 126.704 130.609 127.628 129.545 128.3C128.5 128.953 127.184 129.28 125.597 129.28ZM140.393 129H137.369V115.084H140.141V119.032L140.393 119.172V129ZM140.393 121.188H139.721V118.836H140.337C140.467 118.071 140.729 117.389 141.121 116.792C141.513 116.176 142.035 115.691 142.689 115.336C143.361 114.981 144.173 114.804 145.125 114.804C146.189 114.804 147.057 115.028 147.729 115.476C148.401 115.924 148.886 116.521 149.185 117.268C149.502 118.015 149.661 118.827 149.661 119.704V121.524H146.665V120.292C146.665 119.284 146.441 118.547 145.993 118.08C145.545 117.613 144.798 117.38 143.753 117.38C142.558 117.38 141.699 117.707 141.177 118.36C140.654 119.013 140.393 119.956 140.393 121.188ZM158.56 129.28C157.048 129.28 155.723 129 154.584 128.44C153.445 127.88 152.559 127.059 151.924 125.976C151.308 124.893 151 123.587 151 122.056C151 120.6 151.308 119.331 151.924 118.248C152.559 117.165 153.436 116.325 154.556 115.728C155.676 115.112 156.992 114.804 158.504 114.804C159.941 114.804 161.201 115.065 162.284 115.588C163.385 116.092 164.235 116.839 164.832 117.828C165.448 118.799 165.756 119.993 165.756 121.412C165.756 121.655 165.747 121.888 165.728 122.112C165.709 122.317 165.681 122.523 165.644 122.728H152.932V121.048H163.656L162.872 122.084C162.891 121.897 162.9 121.72 162.9 121.552C162.9 121.365 162.9 121.179 162.9 120.992C162.9 119.704 162.527 118.752 161.78 118.136C161.052 117.501 159.941 117.184 158.448 117.184C156.787 117.184 155.601 117.567 154.892 118.332C154.183 119.097 153.828 120.199 153.828 121.636V122.364C153.828 123.82 154.183 124.931 154.892 125.696C155.601 126.461 156.796 126.844 158.476 126.844C159.932 126.844 160.977 126.62 161.612 126.172C162.265 125.705 162.592 125.061 162.592 124.24V124.016H165.616V124.268C165.616 125.257 165.308 126.135 164.692 126.9C164.095 127.647 163.264 128.235 162.2 128.664C161.155 129.075 159.941 129.28 158.56 129.28ZM179.386 129.28C177.146 129.28 175.41 128.851 174.178 127.992C172.965 127.133 172.358 125.901 172.358 124.296V124.212H175.382V124.436C175.382 125.351 175.681 125.985 176.278 126.34C176.894 126.676 177.93 126.844 179.386 126.844C180.749 126.844 181.673 126.704 182.158 126.424C182.662 126.125 182.914 125.668 182.914 125.052C182.914 124.473 182.718 124.063 182.326 123.82C181.953 123.577 181.262 123.391 180.254 123.26L176.446 122.756C175.121 122.588 174.085 122.215 173.338 121.636C172.592 121.039 172.218 120.152 172.218 118.976C172.218 118.155 172.461 117.436 172.946 116.82C173.432 116.185 174.16 115.691 175.13 115.336C176.101 114.981 177.296 114.804 178.714 114.804C180.133 114.804 181.346 114.991 182.354 115.364C183.381 115.737 184.165 116.297 184.706 117.044C185.266 117.791 185.546 118.715 185.546 119.816V119.9H182.55V119.732C182.55 119.191 182.438 118.733 182.214 118.36C181.99 117.987 181.589 117.707 181.01 117.52C180.45 117.315 179.657 117.212 178.63 117.212C177.342 117.212 176.446 117.361 175.942 117.66C175.438 117.959 175.186 118.435 175.186 119.088C175.186 119.629 175.373 120.021 175.746 120.264C176.12 120.507 176.82 120.703 177.846 120.852L181.066 121.3C182.709 121.505 183.922 121.907 184.706 122.504C185.49 123.101 185.882 123.979 185.882 125.136C185.882 125.995 185.612 126.741 185.07 127.376C184.529 127.992 183.773 128.468 182.802 128.804C181.832 129.121 180.693 129.28 179.386 129.28ZM195.176 129.28C193.645 129.28 192.292 128.981 191.116 128.384C189.959 127.768 189.053 126.919 188.4 125.836C187.765 124.735 187.448 123.475 187.448 122.056C187.448 120.6 187.765 119.331 188.4 118.248C189.053 117.165 189.959 116.325 191.116 115.728C192.292 115.112 193.645 114.804 195.176 114.804C196.744 114.804 198.107 115.112 199.264 115.728C200.421 116.325 201.317 117.165 201.952 118.248C202.605 119.331 202.932 120.6 202.932 122.056C202.932 123.475 202.605 124.735 201.952 125.836C201.317 126.919 200.421 127.768 199.264 128.384C198.107 128.981 196.744 129.28 195.176 129.28ZM195.176 126.592C196.875 126.592 198.097 126.209 198.844 125.444C199.591 124.66 199.964 123.531 199.964 122.056C199.964 120.581 199.591 119.452 198.844 118.668C198.097 117.865 196.875 117.464 195.176 117.464C193.496 117.464 192.283 117.865 191.536 118.668C190.789 119.452 190.416 120.581 190.416 122.056C190.416 123.531 190.789 124.66 191.536 125.444C192.283 126.209 193.496 126.592 195.176 126.592ZM216.044 129.28C214.569 129.28 213.318 128.981 212.292 128.384C211.284 127.768 210.518 126.919 209.996 125.836C209.473 124.735 209.212 123.475 209.212 122.056C209.212 120.6 209.473 119.331 209.996 118.248C210.518 117.165 211.274 116.325 212.264 115.728C213.253 115.112 214.448 114.804 215.848 114.804C217.49 114.804 218.788 115.187 219.74 115.952C220.692 116.717 221.308 117.688 221.588 118.864H222.288V121.972H221.756C221.756 120.497 221.336 119.396 220.496 118.668C219.656 117.921 218.461 117.548 216.912 117.548C215.96 117.548 215.129 117.697 214.42 117.996C213.71 118.276 213.169 118.743 212.796 119.396C212.441 120.049 212.264 120.936 212.264 122.056C212.264 123.157 212.441 124.035 212.796 124.688C213.169 125.341 213.71 125.808 214.42 126.088C215.129 126.368 215.978 126.508 216.968 126.508C217.957 126.508 218.806 126.359 219.516 126.06C220.244 125.743 220.794 125.257 221.168 124.604C221.56 123.951 221.756 123.148 221.756 122.196H222.288L222.484 124.996H221.812C221.532 126.377 220.888 127.441 219.88 128.188C218.89 128.916 217.612 129.28 216.044 129.28ZM224.78 129H222.008V124.632L221.756 124.268V110.24H224.78V129ZM230.6 129H227.576V115.084H230.6V129ZM230.6 113.46H227.576V110.24H230.6V113.46ZM239.98 129.28C237.74 129.28 236.004 128.851 234.772 127.992C233.559 127.133 232.952 125.901 232.952 124.296V124.212H235.976V124.436C235.976 125.351 236.275 125.985 236.872 126.34C237.488 126.676 238.524 126.844 239.98 126.844C241.343 126.844 242.267 126.704 242.752 126.424C243.256 126.125 243.508 125.668 243.508 125.052C243.508 124.473 243.312 124.063 242.92 123.82C242.547 123.577 241.856 123.391 240.848 123.26L237.04 122.756C235.715 122.588 234.679 122.215 233.932 121.636C233.185 121.039 232.812 120.152 232.812 118.976C232.812 118.155 233.055 117.436 233.54 116.82C234.025 116.185 234.753 115.691 235.724 115.336C236.695 114.981 237.889 114.804 239.308 114.804C240.727 114.804 241.94 114.991 242.948 115.364C243.975 115.737 244.759 116.297 245.3 117.044C245.86 117.791 246.14 118.715 246.14 119.816V119.9H243.144V119.732C243.144 119.191 243.032 118.733 242.808 118.36C242.584 117.987 242.183 117.707 241.604 117.52C241.044 117.315 240.251 117.212 239.224 117.212C237.936 117.212 237.04 117.361 236.536 117.66C236.032 117.959 235.78 118.435 235.78 119.088C235.78 119.629 235.967 120.021 236.34 120.264C236.713 120.507 237.413 120.703 238.44 120.852L241.66 121.3C243.303 121.505 244.516 121.907 245.3 122.504C246.084 123.101 246.476 123.979 246.476 125.136C246.476 125.995 246.205 126.741 245.664 127.376C245.123 127.992 244.367 128.468 243.396 128.804C242.425 129.121 241.287 129.28 239.98 129.28ZM255.966 134.04C254.584 134.04 253.371 133.825 252.326 133.396C251.28 132.985 250.459 132.388 249.862 131.604C249.283 130.82 248.994 129.868 248.994 128.748H251.99C251.99 129.42 252.13 129.961 252.41 130.372C252.69 130.783 253.128 131.072 253.726 131.24C254.342 131.427 255.144 131.52 256.134 131.52C257.198 131.52 258.038 131.399 258.654 131.156C259.288 130.932 259.746 130.531 260.026 129.952C260.306 129.373 260.446 128.571 260.446 127.544V119.396L260.67 119.2V115.084H263.442V127.376C263.442 128.925 263.134 130.185 262.518 131.156C261.902 132.145 261.034 132.873 259.914 133.34C258.794 133.807 257.478 134.04 255.966 134.04ZM254.706 127.74C253.324 127.74 252.139 127.469 251.15 126.928C250.179 126.387 249.423 125.631 248.882 124.66C248.359 123.689 248.098 122.56 248.098 121.272C248.098 119.984 248.368 118.855 248.91 117.884C249.47 116.913 250.254 116.157 251.262 115.616C252.288 115.075 253.502 114.804 254.902 114.804C256.358 114.804 257.59 115.131 258.598 115.784C259.624 116.419 260.259 117.343 260.502 118.556H261.146L260.978 120.992H260.446C260.446 120.208 260.259 119.555 259.886 119.032C259.512 118.491 258.98 118.089 258.29 117.828C257.599 117.567 256.759 117.436 255.77 117.436C254.818 117.436 253.987 117.557 253.278 117.8C252.587 118.043 252.055 118.444 251.682 119.004C251.327 119.545 251.15 120.301 251.15 121.272C251.15 122.224 251.327 122.98 251.682 123.54C252.036 124.1 252.55 124.511 253.222 124.772C253.912 125.015 254.734 125.136 255.686 125.136C257.216 125.136 258.392 124.819 259.214 124.184C260.035 123.549 260.446 122.616 260.446 121.384H260.978V124.128H260.25C260.007 125.192 259.419 126.06 258.486 126.732C257.552 127.404 256.292 127.74 254.706 127.74ZM272.036 129.28C270.729 129.28 269.647 129.019 268.788 128.496C267.929 127.973 267.285 127.273 266.856 126.396C266.427 125.519 266.212 124.539 266.212 123.456V115.084H269.208V122.644C269.208 123.932 269.525 124.912 270.16 125.584C270.813 126.237 271.877 126.564 273.352 126.564C274.901 126.564 276.031 126.181 276.74 125.416C277.468 124.632 277.832 123.484 277.832 121.972L278.364 121.944L278.532 124.688H277.888C277.757 125.472 277.459 126.209 276.992 126.9C276.525 127.591 275.881 128.16 275.06 128.608C274.257 129.056 273.249 129.28 272.036 129.28ZM280.856 129H278.084V124.632L277.832 124.492V115.084H280.856V129ZM290.183 129.28C287.943 129.28 286.207 128.851 284.975 127.992C283.762 127.133 283.155 125.901 283.155 124.296V124.212H286.179V124.436C286.179 125.351 286.478 125.985 287.075 126.34C287.691 126.676 288.727 126.844 290.183 126.844C291.546 126.844 292.47 126.704 292.955 126.424C293.459 126.125 293.711 125.668 293.711 125.052C293.711 124.473 293.515 124.063 293.123 123.82C292.75 123.577 292.059 123.391 291.051 123.26L287.243 122.756C285.918 122.588 284.882 122.215 284.135 121.636C283.388 121.039 283.015 120.152 283.015 118.976C283.015 118.155 283.258 117.436 283.743 116.82C284.228 116.185 284.956 115.691 285.927 115.336C286.898 114.981 288.092 114.804 289.511 114.804C290.93 114.804 292.143 114.991 293.151 115.364C294.178 115.737 294.962 116.297 295.503 117.044C296.063 117.791 296.343 118.715 296.343 119.816V119.9H293.347V119.732C293.347 119.191 293.235 118.733 293.011 118.36C292.787 117.987 292.386 117.707 291.807 117.52C291.247 117.315 290.454 117.212 289.427 117.212C288.139 117.212 287.243 117.361 286.739 117.66C286.235 117.959 285.983 118.435 285.983 119.088C285.983 119.629 286.17 120.021 286.543 120.264C286.916 120.507 287.616 120.703 288.643 120.852L291.863 121.3C293.506 121.505 294.719 121.907 295.503 122.504C296.287 123.101 296.679 123.979 296.679 125.136C296.679 125.995 296.408 126.741 295.867 127.376C295.326 127.992 294.57 128.468 293.599 128.804C292.628 129.121 291.49 129.28 290.183 129.28ZM307.989 129H304.797C303.304 129 302.118 128.636 301.241 127.908C300.382 127.18 299.953 125.976 299.953 124.296V112.032H302.949V124.128C302.949 124.987 303.154 125.565 303.565 125.864C303.976 126.144 304.61 126.284 305.469 126.284H307.989V129ZM307.989 117.604H297.601V115.084H307.989V117.604ZM316.88 129.28C315.368 129.28 314.043 129 312.904 128.44C311.766 127.88 310.879 127.059 310.244 125.976C309.628 124.893 309.32 123.587 309.32 122.056C309.32 120.6 309.628 119.331 310.244 118.248C310.879 117.165 311.756 116.325 312.876 115.728C313.996 115.112 315.312 114.804 316.824 114.804C318.262 114.804 319.522 115.065 320.604 115.588C321.706 116.092 322.555 116.839 323.152 117.828C323.768 118.799 324.076 119.993 324.076 121.412C324.076 121.655 324.067 121.888 324.048 122.112C324.03 122.317 324.002 122.523 323.964 122.728H311.252V121.048H321.976L321.192 122.084C321.211 121.897 321.22 121.72 321.22 121.552C321.22 121.365 321.22 121.179 321.22 120.992C321.22 119.704 320.847 118.752 320.1 118.136C319.372 117.501 318.262 117.184 316.768 117.184C315.107 117.184 313.922 117.567 313.212 118.332C312.503 119.097 312.148 120.199 312.148 121.636V122.364C312.148 123.82 312.503 124.931 313.212 125.696C313.922 126.461 315.116 126.844 316.796 126.844C318.252 126.844 319.298 126.62 319.932 126.172C320.586 125.705 320.912 125.061 320.912 124.24V124.016H323.936V124.268C323.936 125.257 323.628 126.135 323.012 126.9C322.415 127.647 321.584 128.235 320.52 128.664C319.475 129.075 318.262 129.28 316.88 129.28ZM332.473 129.28C330.999 129.28 329.748 128.981 328.721 128.384C327.713 127.768 326.948 126.919 326.425 125.836C325.903 124.735 325.641 123.475 325.641 122.056C325.641 120.6 325.903 119.331 326.425 118.248C326.948 117.165 327.704 116.325 328.693 115.728C329.683 115.112 330.877 114.804 332.277 114.804C333.92 114.804 335.217 115.187 336.169 115.952C337.121 116.717 337.737 117.688 338.017 118.864H338.717V121.972H338.185C338.185 120.497 337.765 119.396 336.925 118.668C336.085 117.921 334.891 117.548 333.341 117.548C332.389 117.548 331.559 117.697 330.849 117.996C330.14 118.276 329.599 118.743 329.225 119.396C328.871 120.049 328.693 120.936 328.693 122.056C328.693 123.157 328.871 124.035 329.225 124.688C329.599 125.341 330.14 125.808 330.849 126.088C331.559 126.368 332.408 126.508 333.397 126.508C334.387 126.508 335.236 126.359 335.945 126.06C336.673 125.743 337.224 125.257 337.597 124.604C337.989 123.951 338.185 123.148 338.185 122.196H338.717L338.913 124.996H338.241C337.961 126.377 337.317 127.441 336.309 128.188C335.32 128.916 334.041 129.28 332.473 129.28ZM341.209 129H338.437V124.632L338.185 124.268V110.24H341.209V129ZM347.253 129H343.445V124.66H347.253V129ZM344.509 132.136H343.501V130.288H344.425C344.668 130.288 344.845 130.241 344.957 130.148C345.069 130.073 345.125 129.887 345.125 129.588V128.356H347.253V129.56C347.253 130.437 347.011 131.081 346.525 131.492C346.059 131.921 345.387 132.136 344.509 132.136ZM360.951 129H357.199L353.027 115.084H356.163L358.487 122.98L359.131 126.564H359.355L360.391 122.7L363.303 115.084H367.167L370.107 122.7L371.143 126.564H371.367L372.011 122.98L374.335 115.084H377.415L373.187 129H369.435L366.383 120.992L365.319 117.576H365.095L364.031 120.992L360.951 129ZM393.595 129H390.599V121.44C390.599 120.04 390.272 119.041 389.619 118.444C388.965 117.828 387.911 117.52 386.455 117.52C385.353 117.52 384.476 117.716 383.823 118.108C383.169 118.481 382.693 119.023 382.395 119.732C382.115 120.423 381.975 121.263 381.975 122.252L381.387 122.28L381.527 119.34H382.143C382.311 118.556 382.609 117.819 383.039 117.128C383.487 116.437 384.112 115.877 384.915 115.448C385.717 115.019 386.707 114.804 387.883 114.804C389.152 114.804 390.207 115.065 391.047 115.588C391.905 116.092 392.54 116.792 392.951 117.688C393.38 118.565 393.595 119.573 393.595 120.712V129ZM381.975 129H378.951V110.24H381.975V129ZM398.554 133.76H396.566V131.016H399.282C399.898 131.016 400.355 130.913 400.654 130.708C400.971 130.521 401.233 130.195 401.438 129.728L402.306 127.852L401.97 129.392L394.914 115.084H398.302L401.858 122.476L403.23 125.808H403.454L404.77 122.448L408.046 115.084H411.378L404.126 130.512C403.753 131.333 403.314 131.977 402.81 132.444C402.306 132.929 401.709 133.265 401.018 133.452C400.327 133.657 399.506 133.76 398.554 133.76ZM50.532 163.28C49.0573 163.28 47.8067 162.981 46.78 162.384C45.772 161.768 45.0067 160.919 44.484 159.836C43.9613 158.735 43.7 157.475 43.7 156.056C43.7 154.6 43.9613 153.331 44.484 152.248C45.0067 151.165 45.7627 150.325 46.752 149.728C47.7413 149.112 48.936 148.804 50.336 148.804C51.9787 148.804 53.276 149.187 54.228 149.952C55.18 150.717 55.796 151.688 56.076 152.864H56.776V155.972H56.244C56.244 154.497 55.824 153.396 54.984 152.668C54.144 151.921 52.9493 151.548 51.4 151.548C50.448 151.548 49.6173 151.697 48.908 151.996C48.1987 152.276 47.6573 152.743 47.284 153.396C46.9293 154.049 46.752 154.936 46.752 156.056C46.752 157.157 46.9293 158.035 47.284 158.688C47.6573 159.341 48.1987 159.808 48.908 160.088C49.6173 160.368 50.4667 160.508 51.456 160.508C52.4453 160.508 53.2947 160.359 54.004 160.06C54.732 159.743 55.2827 159.257 55.656 158.604C56.048 157.951 56.244 157.148 56.244 156.196H56.776L56.972 158.996H56.3C56.02 160.377 55.376 161.441 54.368 162.188C53.3787 162.916 52.1 163.28 50.532 163.28ZM59.268 163H56.496V158.632L56.244 158.268V144.24H59.268V163ZM69.1761 163.28C67.6454 163.28 66.2921 162.981 65.1161 162.384C63.9587 161.768 63.0534 160.919 62.4001 159.836C61.7654 158.735 61.4481 157.475 61.4481 156.056C61.4481 154.6 61.7654 153.331 62.4001 152.248C63.0534 151.165 63.9587 150.325 65.1161 149.728C66.2921 149.112 67.6454 148.804 69.1761 148.804C70.7441 148.804 72.1067 149.112 73.2641 149.728C74.4214 150.325 75.3174 151.165 75.9521 152.248C76.6054 153.331 76.9321 154.6 76.9321 156.056C76.9321 157.475 76.6054 158.735 75.9521 159.836C75.3174 160.919 74.4214 161.768 73.2641 162.384C72.1067 162.981 70.7441 163.28 69.1761 163.28ZM69.1761 160.592C70.8747 160.592 72.0974 160.209 72.8441 159.444C73.5907 158.66 73.9641 157.531 73.9641 156.056C73.9641 154.581 73.5907 153.452 72.8441 152.668C72.0974 151.865 70.8747 151.464 69.1761 151.464C67.4961 151.464 66.2827 151.865 65.5361 152.668C64.7894 153.452 64.4161 154.581 64.4161 156.056C64.4161 157.531 64.7894 158.66 65.5361 159.444C66.2827 160.209 67.4961 160.592 69.1761 160.592ZM93.6586 163H90.6346V155.44C90.6346 154.133 90.3172 153.153 89.6826 152.5C89.0666 151.847 88.0306 151.52 86.5746 151.52C85.0626 151.52 83.9426 151.912 83.2146 152.696C82.5052 153.461 82.1506 154.6 82.1506 156.112L81.6186 156.14L81.4786 153.396H82.0946C82.2439 152.612 82.5426 151.875 82.9906 151.184C83.4572 150.475 84.0919 149.905 84.8946 149.476C85.7159 149.028 86.7146 148.804 87.8906 148.804C89.1786 148.804 90.2519 149.065 91.1106 149.588C91.9692 150.111 92.6039 150.811 93.0146 151.688C93.4439 152.565 93.6586 153.545 93.6586 154.628V163ZM82.1506 163H79.1266V149.084H81.8986V153.452L82.1506 153.592V163ZM99.6011 148.58H95.7931V144.24H99.6011V148.58ZM96.8571 151.744H95.8491V149.896H96.7731C97.0158 149.896 97.1931 149.849 97.3051 149.756C97.4171 149.663 97.4731 149.467 97.4731 149.168V147.936H99.6011V149.14C99.6011 150.017 99.3585 150.671 98.8731 151.1C98.4065 151.529 97.7345 151.744 96.8571 151.744ZM110.977 163H107.785C106.292 163 105.107 162.636 104.229 161.908C103.371 161.18 102.941 159.976 102.941 158.296V146.032H105.937V158.128C105.937 158.987 106.143 159.565 106.553 159.864C106.964 160.144 107.599 160.284 108.457 160.284H110.977V163ZM110.977 151.604H100.589V149.084H110.977V151.604ZM119.894 167.76H117.906V165.016H120.622C121.238 165.016 121.695 164.913 121.994 164.708C122.311 164.521 122.573 164.195 122.778 163.728L123.646 161.852L123.31 163.392L116.254 149.084H119.642L123.198 156.476L124.57 159.808H124.794L126.11 156.448L129.386 149.084H132.718L125.466 164.512C125.093 165.333 124.654 165.977 124.15 166.444C123.646 166.929 123.049 167.265 122.358 167.452C121.667 167.657 120.846 167.76 119.894 167.76ZM141.309 163.28C139.778 163.28 138.425 162.981 137.249 162.384C136.092 161.768 135.186 160.919 134.533 159.836C133.898 158.735 133.581 157.475 133.581 156.056C133.581 154.6 133.898 153.331 134.533 152.248C135.186 151.165 136.092 150.325 137.249 149.728C138.425 149.112 139.778 148.804 141.309 148.804C142.877 148.804 144.24 149.112 145.397 149.728C146.554 150.325 147.45 151.165 148.085 152.248C148.738 153.331 149.065 154.6 149.065 156.056C149.065 157.475 148.738 158.735 148.085 159.836C147.45 160.919 146.554 161.768 145.397 162.384C144.24 162.981 142.877 163.28 141.309 163.28ZM141.309 160.592C143.008 160.592 144.23 160.209 144.977 159.444C145.724 158.66 146.097 157.531 146.097 156.056C146.097 154.581 145.724 153.452 144.977 152.668C144.23 151.865 143.008 151.464 141.309 151.464C139.629 151.464 138.416 151.865 137.669 152.668C136.922 153.452 136.549 154.581 136.549 156.056C136.549 157.531 136.922 158.66 137.669 159.444C138.416 160.209 139.629 160.592 141.309 160.592ZM157.055 163.28C155.749 163.28 154.666 163.019 153.807 162.496C152.949 161.973 152.305 161.273 151.875 160.396C151.446 159.519 151.231 158.539 151.231 157.456V149.084H154.227V156.644C154.227 157.932 154.545 158.912 155.179 159.584C155.833 160.237 156.897 160.564 158.371 160.564C159.921 160.564 161.05 160.181 161.759 159.416C162.487 158.632 162.851 157.484 162.851 155.972L163.383 155.944L163.551 158.688H162.907C162.777 159.472 162.478 160.209 162.011 160.9C161.545 161.591 160.901 162.16 160.079 162.608C159.277 163.056 158.269 163.28 157.055 163.28ZM165.875 163H163.103V158.632L162.851 158.492V149.084H165.875V163ZM182.536 163H179.344C177.85 163 176.665 162.636 175.788 161.908C174.929 161.18 174.5 159.976 174.5 158.296V146.032H177.496V158.128C177.496 158.987 177.701 159.565 178.112 159.864C178.522 160.144 179.157 160.284 180.016 160.284H182.536V163ZM182.536 151.604H172.148V149.084H182.536V151.604ZM199.071 163H196.075V155.44C196.075 154.04 195.749 153.041 195.095 152.444C194.442 151.828 193.387 151.52 191.931 151.52C190.83 151.52 189.953 151.716 189.299 152.108C188.646 152.481 188.17 153.023 187.871 153.732C187.591 154.423 187.451 155.263 187.451 156.252L186.863 156.28L187.003 153.34H187.619C187.787 152.556 188.086 151.819 188.515 151.128C188.963 150.437 189.589 149.877 190.391 149.448C191.194 149.019 192.183 148.804 193.359 148.804C194.629 148.804 195.683 149.065 196.523 149.588C197.382 150.092 198.017 150.792 198.427 151.688C198.857 152.565 199.071 153.573 199.071 154.712V163ZM187.451 163H184.427V144.24H187.451V163ZM204.815 163H201.791V149.084H204.815V163ZM204.815 147.46H201.791V144.24H204.815V147.46ZM222.147 163H219.123V155.44C219.123 154.133 218.806 153.153 218.171 152.5C217.555 151.847 216.519 151.52 215.063 151.52C213.551 151.52 212.431 151.912 211.703 152.696C210.994 153.461 210.639 154.6 210.639 156.112L210.107 156.14L209.967 153.396H210.583C210.732 152.612 211.031 151.875 211.479 151.184C211.946 150.475 212.58 149.905 213.383 149.476C214.204 149.028 215.203 148.804 216.379 148.804C217.667 148.804 218.74 149.065 219.599 149.588C220.458 150.111 221.092 150.811 221.503 151.688C221.932 152.565 222.147 153.545 222.147 154.628V163ZM210.639 163H207.615V149.084H210.387V153.452L210.639 153.592V163ZM239.513 163H235.957L231.841 157.316H226.521V154.6H231.841L236.013 149.084H239.541L234.305 155.776L239.513 163ZM227.865 163H224.841V144.24H227.865V163ZM258.974 163H256.202V159.416L256.006 159.332V154.572C256.006 153.415 255.726 152.612 255.166 152.164C254.625 151.697 253.682 151.464 252.338 151.464C251.05 151.464 250.089 151.688 249.454 152.136C248.819 152.584 248.502 153.321 248.502 154.348V154.46H245.506V154.348C245.506 153.284 245.786 152.341 246.346 151.52C246.906 150.68 247.709 150.017 248.754 149.532C249.818 149.047 251.087 148.804 252.562 148.804C254.037 148.804 255.241 149.056 256.174 149.56C257.126 150.045 257.826 150.717 258.274 151.576C258.741 152.435 258.974 153.424 258.974 154.544V163ZM249.902 163.28C248.465 163.28 247.317 162.963 246.458 162.328C245.618 161.675 245.198 160.779 245.198 159.64C245.198 158.912 245.375 158.305 245.73 157.82C246.103 157.316 246.626 156.924 247.298 156.644C247.97 156.364 248.763 156.168 249.678 156.056L256.286 155.356V157.148L250.546 157.792C249.762 157.885 249.174 158.053 248.782 158.296C248.409 158.52 248.222 158.903 248.222 159.444C248.222 160.004 248.418 160.424 248.81 160.704C249.221 160.965 249.855 161.096 250.714 161.096C251.778 161.096 252.702 160.965 253.486 160.704C254.27 160.424 254.886 159.995 255.334 159.416C255.782 158.837 256.006 158.091 256.006 157.176L256.398 157.232V159.528H256.006C255.633 160.704 254.914 161.628 253.85 162.3C252.805 162.953 251.489 163.28 249.902 163.28ZM270.437 163.28C268.851 163.28 267.563 162.916 266.573 162.188C265.584 161.441 264.94 160.377 264.641 158.996H263.969L264.165 156.196H264.697C264.697 157.148 264.884 157.951 265.257 158.604C265.649 159.257 266.2 159.743 266.909 160.06C267.637 160.359 268.496 160.508 269.485 160.508C270.512 160.508 271.371 160.368 272.061 160.088C272.771 159.808 273.303 159.341 273.657 158.688C274.031 158.035 274.217 157.157 274.217 156.056C274.217 154.936 274.031 154.049 273.657 153.396C273.284 152.743 272.752 152.276 272.061 151.996C271.371 151.697 270.531 151.548 269.541 151.548C267.973 151.548 266.769 151.921 265.929 152.668C265.108 153.396 264.697 154.497 264.697 155.972H264.165V152.864H264.865C265.145 151.688 265.752 150.717 266.685 149.952C267.637 149.187 268.944 148.804 270.605 148.804C272.043 148.804 273.247 149.112 274.217 149.728C275.207 150.325 275.953 151.165 276.457 152.248C276.98 153.331 277.241 154.6 277.241 156.056C277.241 157.475 276.98 158.735 276.457 159.836C275.953 160.919 275.188 161.768 274.161 162.384C273.153 162.981 271.912 163.28 270.437 163.28ZM264.445 163H261.673V144.24H264.697V158.268L264.445 158.632V163ZM286.45 163.28C284.919 163.28 283.566 162.981 282.39 162.384C281.232 161.768 280.327 160.919 279.674 159.836C279.039 158.735 278.722 157.475 278.722 156.056C278.722 154.6 279.039 153.331 279.674 152.248C280.327 151.165 281.232 150.325 282.39 149.728C283.566 149.112 284.919 148.804 286.45 148.804C288.018 148.804 289.38 149.112 290.538 149.728C291.695 150.325 292.591 151.165 293.226 152.248C293.879 153.331 294.206 154.6 294.206 156.056C294.206 157.475 293.879 158.735 293.226 159.836C292.591 160.919 291.695 161.768 290.538 162.384C289.38 162.981 288.018 163.28 286.45 163.28ZM286.45 160.592C288.148 160.592 289.371 160.209 290.118 159.444C290.864 158.66 291.238 157.531 291.238 156.056C291.238 154.581 290.864 153.452 290.118 152.668C289.371 151.865 288.148 151.464 286.45 151.464C284.77 151.464 283.556 151.865 282.81 152.668C282.063 153.452 281.69 154.581 281.69 156.056C281.69 157.531 282.063 158.66 282.81 159.444C283.556 160.209 284.77 160.592 286.45 160.592ZM302.196 163.28C300.889 163.28 299.807 163.019 298.948 162.496C298.089 161.973 297.445 161.273 297.016 160.396C296.587 159.519 296.372 158.539 296.372 157.456V149.084H299.368V156.644C299.368 157.932 299.685 158.912 300.32 159.584C300.973 160.237 302.037 160.564 303.512 160.564C305.061 160.564 306.191 160.181 306.9 159.416C307.628 158.632 307.992 157.484 307.992 155.972L308.524 155.944L308.692 158.688H308.048C307.917 159.472 307.619 160.209 307.152 160.9C306.685 161.591 306.041 162.16 305.22 162.608C304.417 163.056 303.409 163.28 302.196 163.28ZM311.016 163H308.244V158.632L307.992 158.492V149.084H311.016V163ZM322.891 163H319.699C318.206 163 317.021 162.636 316.143 161.908C315.285 161.18 314.855 159.976 314.855 158.296V146.032H317.851V158.128C317.851 158.987 318.057 159.565 318.467 159.864C318.878 160.144 319.513 160.284 320.371 160.284H322.891V163ZM322.891 151.604H312.503V149.084H322.891V151.604ZM338.696 163H335.504C334.011 163 332.825 162.636 331.948 161.908C331.089 161.18 330.66 159.976 330.66 158.296V146.032H333.656V158.128C333.656 158.987 333.861 159.565 334.272 159.864C334.683 160.144 335.317 160.284 336.176 160.284H338.696V163ZM338.696 151.604H328.308V149.084H338.696V151.604ZM355.232 163H352.236V155.44C352.236 154.04 351.909 153.041 351.256 152.444C350.602 151.828 349.548 151.52 348.092 151.52C346.99 151.52 346.113 151.716 345.46 152.108C344.806 152.481 344.33 153.023 344.032 153.732C343.752 154.423 343.612 155.263 343.612 156.252L343.024 156.28L343.164 153.34H343.78C343.948 152.556 344.246 151.819 344.676 151.128C345.124 150.437 345.749 149.877 346.552 149.448C347.354 149.019 348.344 148.804 349.52 148.804C350.789 148.804 351.844 149.065 352.684 149.588C353.542 150.092 354.177 150.792 354.588 151.688C355.017 152.565 355.232 153.573 355.232 154.712V163ZM343.612 163H340.588V144.24H343.612V163ZM360.975 163H357.951V149.084H360.975V163ZM360.975 147.46H357.951V144.24H360.975V147.46ZM370.355 163.28C368.115 163.28 366.379 162.851 365.147 161.992C363.934 161.133 363.327 159.901 363.327 158.296V158.212H366.351V158.436C366.351 159.351 366.65 159.985 367.247 160.34C367.863 160.676 368.899 160.844 370.355 160.844C371.718 160.844 372.642 160.704 373.127 160.424C373.631 160.125 373.883 159.668 373.883 159.052C373.883 158.473 373.687 158.063 373.295 157.82C372.922 157.577 372.231 157.391 371.223 157.26L367.415 156.756C366.09 156.588 365.054 156.215 364.307 155.636C363.56 155.039 363.187 154.152 363.187 152.976C363.187 152.155 363.43 151.436 363.915 150.82C364.4 150.185 365.128 149.691 366.099 149.336C367.07 148.981 368.264 148.804 369.683 148.804C371.102 148.804 372.315 148.991 373.323 149.364C374.35 149.737 375.134 150.297 375.675 151.044C376.235 151.791 376.515 152.715 376.515 153.816V153.9H373.519V153.732C373.519 153.191 373.407 152.733 373.183 152.36C372.959 151.987 372.558 151.707 371.979 151.52C371.419 151.315 370.626 151.212 369.599 151.212C368.311 151.212 367.415 151.361 366.911 151.66C366.407 151.959 366.155 152.435 366.155 153.088C366.155 153.629 366.342 154.021 366.715 154.264C367.088 154.507 367.788 154.703 368.815 154.852L372.035 155.3C373.678 155.505 374.891 155.907 375.675 156.504C376.459 157.101 376.851 157.979 376.851 159.136C376.851 159.995 376.58 160.741 376.039 161.376C375.498 161.992 374.742 162.468 373.771 162.804C372.8 163.121 371.662 163.28 370.355 163.28ZM47.424 197H44.4V183.084H47.172V187.032L47.424 187.172V197ZM47.424 189.188H46.752V186.836H47.368C47.4987 186.071 47.76 185.389 48.152 184.792C48.544 184.176 49.0667 183.691 49.72 183.336C50.392 182.981 51.204 182.804 52.156 182.804C53.22 182.804 54.088 183.028 54.76 183.476C55.432 183.924 55.9173 184.521 56.216 185.268C56.5333 186.015 56.692 186.827 56.692 187.704V189.524H53.696V188.292C53.696 187.284 53.472 186.547 53.024 186.08C52.576 185.613 51.8293 185.38 50.784 185.38C49.5893 185.38 48.7307 185.707 48.208 186.36C47.6853 187.013 47.424 187.956 47.424 189.188ZM65.5914 197.28C64.0794 197.28 62.7541 197 61.6154 196.44C60.4767 195.88 59.5901 195.059 58.9554 193.976C58.3394 192.893 58.0314 191.587 58.0314 190.056C58.0314 188.6 58.3394 187.331 58.9554 186.248C59.5901 185.165 60.4674 184.325 61.5874 183.728C62.7074 183.112 64.0234 182.804 65.5354 182.804C66.9727 182.804 68.2327 183.065 69.3154 183.588C70.4167 184.092 71.2661 184.839 71.8634 185.828C72.4794 186.799 72.7874 187.993 72.7874 189.412C72.7874 189.655 72.7781 189.888 72.7594 190.112C72.7407 190.317 72.7127 190.523 72.6754 190.728H59.9634V189.048H70.6874L69.9034 190.084C69.9221 189.897 69.9314 189.72 69.9314 189.552C69.9314 189.365 69.9314 189.179 69.9314 188.992C69.9314 187.704 69.5581 186.752 68.8114 186.136C68.0834 185.501 66.9727 185.184 65.4794 185.184C63.8181 185.184 62.6327 185.567 61.9234 186.332C61.2141 187.097 60.8594 188.199 60.8594 189.636V190.364C60.8594 191.82 61.2141 192.931 61.9234 193.696C62.6327 194.461 63.8274 194.844 65.5074 194.844C66.9634 194.844 68.0087 194.62 68.6434 194.172C69.2967 193.705 69.6234 193.061 69.6234 192.24V192.016H72.6474V192.268C72.6474 193.257 72.3394 194.135 71.7234 194.9C71.1261 195.647 70.2954 196.235 69.2314 196.664C68.1861 197.075 66.9727 197.28 65.5914 197.28ZM81.6323 197.28C79.3923 197.28 77.6563 196.851 76.4243 195.992C75.211 195.133 74.6043 193.901 74.6043 192.296V192.212H77.6283V192.436C77.6283 193.351 77.927 193.985 78.5243 194.34C79.1403 194.676 80.1763 194.844 81.6323 194.844C82.995 194.844 83.919 194.704 84.4043 194.424C84.9083 194.125 85.1603 193.668 85.1603 193.052C85.1603 192.473 84.9643 192.063 84.5723 191.82C84.199 191.577 83.5083 191.391 82.5003 191.26L78.6923 190.756C77.367 190.588 76.331 190.215 75.5843 189.636C74.8377 189.039 74.4643 188.152 74.4643 186.976C74.4643 186.155 74.707 185.436 75.1923 184.82C75.6777 184.185 76.4057 183.691 77.3763 183.336C78.347 182.981 79.5417 182.804 80.9603 182.804C82.379 182.804 83.5923 182.991 84.6003 183.364C85.627 183.737 86.411 184.297 86.9523 185.044C87.5123 185.791 87.7923 186.715 87.7923 187.816V187.9H84.7963V187.732C84.7963 187.191 84.6843 186.733 84.4603 186.36C84.2363 185.987 83.835 185.707 83.2563 185.52C82.6963 185.315 81.903 185.212 80.8763 185.212C79.5883 185.212 78.6923 185.361 78.1883 185.66C77.6843 185.959 77.4323 186.435 77.4323 187.088C77.4323 187.629 77.619 188.021 77.9923 188.264C78.3657 188.507 79.0657 188.703 80.0923 188.852L83.3123 189.3C84.955 189.505 86.1683 189.907 86.9523 190.504C87.7363 191.101 88.1283 191.979 88.1283 193.136C88.1283 193.995 87.8577 194.741 87.3163 195.376C86.775 195.992 86.019 196.468 85.0483 196.804C84.0777 197.121 82.939 197.28 81.6323 197.28ZM97.4222 197.28C95.8915 197.28 94.5382 196.981 93.3622 196.384C92.2048 195.768 91.2995 194.919 90.6462 193.836C90.0115 192.735 89.6942 191.475 89.6942 190.056C89.6942 188.6 90.0115 187.331 90.6462 186.248C91.2995 185.165 92.2048 184.325 93.3622 183.728C94.5382 183.112 95.8915 182.804 97.4222 182.804C98.9902 182.804 100.353 183.112 101.51 183.728C102.667 184.325 103.563 185.165 104.198 186.248C104.851 187.331 105.178 188.6 105.178 190.056C105.178 191.475 104.851 192.735 104.198 193.836C103.563 194.919 102.667 195.768 101.51 196.384C100.353 196.981 98.9902 197.28 97.4222 197.28ZM97.4222 194.592C99.1208 194.592 100.343 194.209 101.09 193.444C101.837 192.66 102.21 191.531 102.21 190.056C102.21 188.581 101.837 187.452 101.09 186.668C100.343 185.865 99.1208 185.464 97.4222 185.464C95.7422 185.464 94.5288 185.865 93.7822 186.668C93.0355 187.452 92.6622 188.581 92.6622 190.056C92.6622 191.531 93.0355 192.66 93.7822 193.444C94.5288 194.209 95.7422 194.592 97.4222 194.592ZM110.397 197H107.373V178.24H110.397V197ZM118.993 197.28C117.686 197.28 116.604 197.019 115.745 196.496C114.886 195.973 114.242 195.273 113.813 194.396C113.384 193.519 113.169 192.539 113.169 191.456V183.084H116.165V190.644C116.165 191.932 116.482 192.912 117.117 193.584C117.77 194.237 118.834 194.564 120.309 194.564C121.858 194.564 122.988 194.181 123.697 193.416C124.425 192.632 124.789 191.484 124.789 189.972L125.321 189.944L125.489 192.688H124.845C124.714 193.472 124.416 194.209 123.949 194.9C123.482 195.591 122.838 196.16 122.017 196.608C121.214 197.056 120.206 197.28 118.993 197.28ZM127.813 197H125.041V192.632L124.789 192.492V183.084H127.813V197ZM139.688 197H136.496C135.003 197 133.817 196.636 132.94 195.908C132.081 195.18 131.652 193.976 131.652 192.296V180.032H134.648V192.128C134.648 192.987 134.853 193.565 135.264 193.864C135.675 194.144 136.309 194.284 137.168 194.284H139.688V197ZM139.688 185.604H129.3V183.084H139.688V185.604ZM144.604 197H141.58V183.084H144.604V197ZM144.604 181.46H141.58V178.24H144.604V181.46ZM154.516 197.28C152.985 197.28 151.632 196.981 150.456 196.384C149.299 195.768 148.393 194.919 147.74 193.836C147.105 192.735 146.788 191.475 146.788 190.056C146.788 188.6 147.105 187.331 147.74 186.248C148.393 185.165 149.299 184.325 150.456 183.728C151.632 183.112 152.985 182.804 154.516 182.804C156.084 182.804 157.447 183.112 158.604 183.728C159.761 184.325 160.657 185.165 161.292 186.248C161.945 187.331 162.272 188.6 162.272 190.056C162.272 191.475 161.945 192.735 161.292 193.836C160.657 194.919 159.761 195.768 158.604 196.384C157.447 196.981 156.084 197.28 154.516 197.28ZM154.516 194.592C156.215 194.592 157.437 194.209 158.184 193.444C158.931 192.66 159.304 191.531 159.304 190.056C159.304 188.581 158.931 187.452 158.184 186.668C157.437 185.865 156.215 185.464 154.516 185.464C152.836 185.464 151.623 185.865 150.876 186.668C150.129 187.452 149.756 188.581 149.756 190.056C149.756 191.531 150.129 192.66 150.876 193.444C151.623 194.209 152.836 194.592 154.516 194.592ZM178.998 197H175.974V189.44C175.974 188.133 175.657 187.153 175.022 186.5C174.406 185.847 173.37 185.52 171.914 185.52C170.402 185.52 169.282 185.912 168.554 186.696C167.845 187.461 167.49 188.6 167.49 190.112L166.958 190.14L166.818 187.396H167.434C167.584 186.612 167.882 185.875 168.33 185.184C168.797 184.475 169.432 183.905 170.234 183.476C171.056 183.028 172.054 182.804 173.23 182.804C174.518 182.804 175.592 183.065 176.45 183.588C177.309 184.111 177.944 184.811 178.354 185.688C178.784 186.565 178.998 187.545 178.998 188.628V197ZM167.49 197H164.466V183.084H167.238V187.452L167.49 187.592V197ZM189.085 190.896H186.061V189.944C186.061 189.384 186.164 188.899 186.369 188.488C186.593 188.077 186.91 187.723 187.321 187.424C187.732 187.125 188.217 186.855 188.777 186.612L190.793 185.744C191.577 185.389 192.174 185.035 192.585 184.68C193.014 184.307 193.229 183.803 193.229 183.168C193.229 182.683 193.108 182.263 192.865 181.908C192.622 181.535 192.184 181.245 191.549 181.04C190.914 180.816 189.99 180.704 188.777 180.704C186.817 180.704 185.454 181.003 184.689 181.6C183.924 182.197 183.541 183.084 183.541 184.26V185.072H180.573V184.428C180.573 183.271 180.853 182.197 181.413 181.208C181.992 180.219 182.897 179.435 184.129 178.856C185.38 178.259 186.994 177.96 188.973 177.96C190.709 177.96 192.109 178.193 193.173 178.66C194.237 179.108 195.012 179.724 195.497 180.508C196.001 181.273 196.253 182.123 196.253 183.056C196.253 183.952 196.057 184.708 195.665 185.324C195.292 185.921 194.816 186.416 194.237 186.808C193.658 187.2 193.042 187.536 192.389 187.816L190.373 188.656C189.85 188.861 189.505 189.085 189.337 189.328C189.169 189.571 189.085 189.897 189.085 190.308V190.896ZM189.309 197H185.893V192.856H189.309V197Z" fill="white"/>
</svg>
