<svg width="1518" height="383" viewBox="0 0 1518 383" fill="none" xmlns="http://www.w3.org/2000/svg">
<rect x="29" y="136" width="360" height="71" rx="35.5" fill="black" stroke="white" stroke-width="2"/>
<path d="M75.3039 183H72.7479V158.88H75.3039V183ZM90.6039 183H73.5399V180.66H90.6039V183ZM96.0461 183H93.4901V158.88H96.0461V183ZM111.814 183H94.3541V180.66H111.814V183ZM111.274 172.02H94.3541V169.716H111.274V172.02ZM111.814 161.22H94.3541V158.88H111.814V161.22ZM126.12 183H123.564V158.88H126.12V183ZM136.02 161.22H113.628V158.88H136.02V161.22ZM140.648 163.884H137.48V158.88H140.648V163.884ZM138.2 167.052H137.444V165.504H138.164C138.404 165.504 138.584 165.456 138.704 165.36C138.824 165.24 138.884 165.024 138.884 164.712V163.056H140.648V164.676C140.648 165.492 140.432 166.092 140 166.476C139.568 166.86 138.968 167.052 138.2 167.052ZM153.264 183.36C150.912 183.36 148.956 183.012 147.396 182.316C145.86 181.62 144.72 180.672 143.976 179.472C143.232 178.248 142.86 176.88 142.86 175.368V175.152H145.452V175.62C145.452 176.772 145.704 177.744 146.208 178.536C146.736 179.328 147.576 179.928 148.728 180.336C149.88 180.744 151.392 180.948 153.264 180.948C154.896 180.948 156.216 180.804 157.224 180.516C158.256 180.228 159.024 179.784 159.528 179.184C160.032 178.56 160.284 177.792 160.284 176.88C160.284 175.536 159.864 174.564 159.024 173.964C158.208 173.34 156.912 172.848 155.136 172.488L150.024 171.516C148.728 171.252 147.54 170.88 146.46 170.4C145.404 169.92 144.552 169.26 143.904 168.42C143.28 167.556 142.968 166.452 142.968 165.108C142.968 164.292 143.148 163.5 143.508 162.732C143.892 161.94 144.468 161.232 145.236 160.608C146.004 159.96 147 159.456 148.224 159.096C149.472 158.712 150.96 158.52 152.688 158.52C154.968 158.52 156.828 158.88 158.268 159.6C159.708 160.32 160.776 161.292 161.472 162.516C162.168 163.716 162.516 165.048 162.516 166.512V166.728H159.924V166.296C159.924 165.144 159.672 164.172 159.168 163.38C158.664 162.564 157.872 161.952 156.792 161.544C155.712 161.136 154.284 160.932 152.508 160.932C150.924 160.932 149.616 161.088 148.584 161.4C147.552 161.688 146.784 162.132 146.28 162.732C145.8 163.308 145.56 164.04 145.56 164.928C145.56 165.816 145.74 166.536 146.1 167.088C146.484 167.64 147.048 168.072 147.792 168.384C148.56 168.696 149.532 168.984 150.708 169.248L155.784 170.256C157.224 170.52 158.472 170.916 159.528 171.444C160.584 171.972 161.4 172.668 161.976 173.532C162.576 174.372 162.876 175.416 162.876 176.664C162.876 177.792 162.54 178.872 161.868 179.904C161.196 180.936 160.152 181.776 158.736 182.424C157.32 183.048 155.496 183.36 153.264 183.36ZM183.603 183.36C181.323 183.36 179.295 182.856 177.519 181.848C175.767 180.816 174.387 179.376 173.379 177.528C172.395 175.656 171.903 173.46 171.903 170.94C171.903 168.42 172.419 166.236 173.451 164.388C174.483 162.516 175.911 161.076 177.735 160.068C179.583 159.036 181.707 158.52 184.107 158.52C186.195 158.52 188.067 158.88 189.723 159.6C191.379 160.32 192.675 161.34 193.611 162.66C194.571 163.956 195.051 165.504 195.051 167.304V167.628H192.279V167.304C192.279 165.312 191.571 163.764 190.155 162.66C188.763 161.556 186.735 161.004 184.071 161.004C182.031 161.004 180.303 161.388 178.887 162.156C177.495 162.9 176.427 164.004 175.683 165.468C174.963 166.932 174.603 168.756 174.603 170.94C174.603 173.1 174.963 174.924 175.683 176.412C176.403 177.876 177.459 178.992 178.851 179.76C180.267 180.504 181.971 180.876 183.963 180.876C185.883 180.876 187.467 180.636 188.715 180.156C189.987 179.652 190.935 178.896 191.559 177.888C192.183 176.88 192.495 175.596 192.495 174.036V173.496L195.051 173.748V174.324L193.071 177.744H192.603C192.195 179.04 191.559 180.108 190.695 180.948C189.831 181.764 188.787 182.376 187.563 182.784C186.363 183.168 185.043 183.36 183.603 183.36ZM195.051 183H192.783V177.24L192.495 176.844V171.588H195.051V183ZM195.051 173.136H182.919V171.12H195.051V173.136ZM210.192 183.36C207.816 183.36 205.704 182.856 203.856 181.848C202.032 180.816 200.604 179.376 199.572 177.528C198.54 175.656 198.024 173.46 198.024 170.94C198.024 168.42 198.54 166.236 199.572 164.388C200.604 162.516 202.032 161.076 203.856 160.068C205.704 159.036 207.816 158.52 210.192 158.52C212.616 158.52 214.74 159.036 216.564 160.068C218.388 161.076 219.816 162.516 220.848 164.388C221.904 166.236 222.432 168.42 222.432 170.94C222.432 173.46 221.904 175.656 220.848 177.528C219.816 179.376 218.388 180.816 216.564 181.848C214.74 182.856 212.616 183.36 210.192 183.36ZM210.192 180.876C212.232 180.876 213.96 180.504 215.376 179.76C216.792 178.992 217.872 177.876 218.616 176.412C219.36 174.924 219.732 173.1 219.732 170.94C219.732 168.756 219.36 166.932 218.616 165.468C217.872 164.004 216.792 162.9 215.376 162.156C213.96 161.388 212.232 161.004 210.192 161.004C208.176 161.004 206.46 161.388 205.044 162.156C203.628 162.9 202.548 164.004 201.804 165.468C201.084 166.932 200.724 168.756 200.724 170.94C200.724 173.1 201.084 174.924 201.804 176.412C202.548 177.876 203.628 178.992 205.044 179.76C206.46 180.504 208.176 180.876 210.192 180.876Z" fill="white"/>
<path d="M356.539 172C356.539 172 341.062 170.667 341.062 157" stroke="white" stroke-width="2" stroke-miterlimit="10"/>
<path d="M249.055 172L356.539 172.22" stroke="white" stroke-width="2" stroke-miterlimit="10"/>
<path d="M356.539 172C356.539 172 341.062 173.244 341.062 186" stroke="white" stroke-width="2" stroke-miterlimit="10"/>
<rect x="34" y="48" width="355" height="71" rx="35.5" fill="white" stroke="black" stroke-width="2"/>
<path d="M79.716 95H77.16V70.88H79.716V95ZM95.016 95H77.952V92.66H95.016V95ZM100.458 95H97.9022V70.88H100.458V95ZM116.226 95H98.7662V92.66H116.226V95ZM115.686 84.02H98.7662V81.716H115.686V84.02ZM116.226 73.22H98.7662V70.88H116.226V73.22ZM130.533 95H127.977V70.88H130.533V95ZM140.433 73.22H118.041V70.88H140.433V73.22ZM145.061 75.884H141.893V70.88H145.061V75.884ZM142.613 79.052H141.857V77.504H142.577C142.817 77.504 142.997 77.456 143.117 77.36C143.237 77.24 143.297 77.024 143.297 76.712V75.056H145.061V76.676C145.061 77.492 144.845 78.092 144.413 78.476C143.981 78.86 143.381 79.052 142.613 79.052ZM157.676 95.36C155.324 95.36 153.368 95.012 151.808 94.316C150.272 93.62 149.132 92.672 148.388 91.472C147.644 90.248 147.272 88.88 147.272 87.368V87.152H149.864V87.62C149.864 88.772 150.116 89.744 150.62 90.536C151.148 91.328 151.988 91.928 153.14 92.336C154.292 92.744 155.804 92.948 157.676 92.948C159.308 92.948 160.628 92.804 161.636 92.516C162.668 92.228 163.436 91.784 163.94 91.184C164.444 90.56 164.696 89.792 164.696 88.88C164.696 87.536 164.276 86.564 163.436 85.964C162.62 85.34 161.324 84.848 159.548 84.488L154.436 83.516C153.14 83.252 151.952 82.88 150.872 82.4C149.816 81.92 148.964 81.26 148.316 80.42C147.692 79.556 147.38 78.452 147.38 77.108C147.38 76.292 147.56 75.5 147.92 74.732C148.304 73.94 148.88 73.232 149.648 72.608C150.416 71.96 151.412 71.456 152.636 71.096C153.884 70.712 155.372 70.52 157.1 70.52C159.38 70.52 161.24 70.88 162.68 71.6C164.12 72.32 165.188 73.292 165.884 74.516C166.58 75.716 166.928 77.048 166.928 78.512V78.728H164.336V78.296C164.336 77.144 164.084 76.172 163.58 75.38C163.076 74.564 162.284 73.952 161.204 73.544C160.124 73.136 158.696 72.932 156.92 72.932C155.336 72.932 154.028 73.088 152.996 73.4C151.964 73.688 151.196 74.132 150.692 74.732C150.212 75.308 149.972 76.04 149.972 76.928C149.972 77.816 150.152 78.536 150.512 79.088C150.896 79.64 151.46 80.072 152.204 80.384C152.972 80.696 153.944 80.984 155.12 81.248L160.196 82.256C161.636 82.52 162.884 82.916 163.94 83.444C164.996 83.972 165.812 84.668 166.388 85.532C166.988 86.372 167.288 87.416 167.288 88.664C167.288 89.792 166.952 90.872 166.28 91.904C165.608 92.936 164.564 93.776 163.148 94.424C161.732 95.048 159.908 95.36 157.676 95.36ZM188.015 95.36C185.735 95.36 183.707 94.856 181.931 93.848C180.179 92.816 178.799 91.376 177.791 89.528C176.807 87.656 176.315 85.46 176.315 82.94C176.315 80.42 176.831 78.236 177.863 76.388C178.895 74.516 180.323 73.076 182.147 72.068C183.995 71.036 186.119 70.52 188.519 70.52C190.607 70.52 192.479 70.88 194.135 71.6C195.791 72.32 197.087 73.34 198.023 74.66C198.983 75.956 199.463 77.504 199.463 79.304V79.628H196.691V79.304C196.691 77.312 195.983 75.764 194.567 74.66C193.175 73.556 191.147 73.004 188.483 73.004C186.443 73.004 184.715 73.388 183.299 74.156C181.907 74.9 180.839 76.004 180.095 77.468C179.375 78.932 179.015 80.756 179.015 82.94C179.015 85.1 179.375 86.924 180.095 88.412C180.815 89.876 181.871 90.992 183.263 91.76C184.679 92.504 186.383 92.876 188.375 92.876C190.295 92.876 191.879 92.636 193.127 92.156C194.399 91.652 195.347 90.896 195.971 89.888C196.595 88.88 196.907 87.596 196.907 86.036V85.496L199.463 85.748V86.324L197.483 89.744H197.015C196.607 91.04 195.971 92.108 195.107 92.948C194.243 93.764 193.199 94.376 191.975 94.784C190.775 95.168 189.455 95.36 188.015 95.36ZM199.463 95H197.195V89.24L196.907 88.844V83.588H199.463V95ZM199.463 85.136H187.331V83.12H199.463V85.136ZM214.604 95.36C212.228 95.36 210.116 94.856 208.268 93.848C206.444 92.816 205.016 91.376 203.984 89.528C202.952 87.656 202.436 85.46 202.436 82.94C202.436 80.42 202.952 78.236 203.984 76.388C205.016 74.516 206.444 73.076 208.268 72.068C210.116 71.036 212.228 70.52 214.604 70.52C217.028 70.52 219.152 71.036 220.976 72.068C222.8 73.076 224.228 74.516 225.26 76.388C226.316 78.236 226.844 80.42 226.844 82.94C226.844 85.46 226.316 87.656 225.26 89.528C224.228 91.376 222.8 92.816 220.976 93.848C219.152 94.856 217.028 95.36 214.604 95.36ZM214.604 92.876C216.644 92.876 218.372 92.504 219.788 91.76C221.204 90.992 222.284 89.876 223.028 88.412C223.772 86.924 224.144 85.1 224.144 82.94C224.144 80.756 223.772 78.932 223.028 77.468C222.284 76.004 221.204 74.9 219.788 74.156C218.372 73.388 216.644 73.004 214.604 73.004C212.588 73.004 210.872 73.388 209.456 74.156C208.04 74.9 206.96 76.004 206.216 77.468C205.496 78.932 205.136 80.756 205.136 82.94C205.136 85.1 205.496 86.924 206.216 88.412C206.96 89.876 208.04 90.992 209.456 91.76C210.872 92.504 212.588 92.876 214.604 92.876Z" fill="black"/>
<path d="M357 84C357 84 341.736 82.6672 341.736 69" stroke="black" stroke-width="2" stroke-miterlimit="10"/>
<path d="M251 84L357 84.2204" stroke="black" stroke-width="2" stroke-miterlimit="10"/>
<path d="M357 84C357 84 341.736 85.244 341.736 98" stroke="black" stroke-width="2" stroke-miterlimit="10"/>
<rect x="34" y="248" width="71" height="71" rx="35.5" fill="white" stroke="black" stroke-width="2"/>
<line x1="85.7071" y1="268.316" x2="55.3162" y2="298.707" stroke="black" stroke-width="2"/>
<line x1="84.2929" y1="298.707" x2="53.9019" y2="268.316" stroke="black" stroke-width="2"/>
<rect x="192" y="318" width="71" height="71" rx="35.5" transform="rotate(-180 192 318)" fill="black" stroke="white" stroke-width="2"/>
<path d="M135 282C135 282 150.264 283.333 150.264 297" stroke="white" stroke-width="2" stroke-miterlimit="10"/>
<path d="M177 282L135 282" stroke="white" stroke-width="2" stroke-miterlimit="10"/>
<path d="M135 282C135 282 150.264 280.756 150.264 268" stroke="white" stroke-width="2" stroke-miterlimit="10"/>
<rect x="208" y="247" width="71" height="71" rx="35.5" fill="black" stroke="white" stroke-width="2"/>
<path d="M265 283C265 283 249.736 281.667 249.736 268" stroke="white" stroke-width="2" stroke-miterlimit="10"/>
<path d="M223 283L265 283" stroke="white" stroke-width="2" stroke-miterlimit="10"/>
<path d="M265 283C265 283 249.736 284.244 249.736 297" stroke="white" stroke-width="2" stroke-miterlimit="10"/>
<path d="M405.034 326.472L405.147 325.602H406.026H895.58C917.348 325.602 935 308.008 935 286.301C935 264.604 917.359 247 895.58 247H363.42C341.652 247 324 264.593 324 286.301C324 307.997 341.652 325.602 363.431 325.602H370.976H371.917L371.974 326.541L370.976 326.602C371.974 326.541 371.974 326.542 371.974 326.543L371.974 326.544L371.974 326.549L371.975 326.564L371.977 326.615C371.979 326.658 371.982 326.719 371.984 326.799C371.988 326.959 371.992 327.19 371.989 327.489C371.984 328.085 371.954 328.95 371.858 330.043C371.666 332.228 371.207 335.326 370.142 339.017C368.136 345.973 363.981 355.021 355.424 364C356.694 363.997 358.439 363.95 360.521 363.786C365.005 363.432 371.025 362.535 377.199 360.368C389.518 356.044 402.395 346.705 405.034 326.472Z" fill="white" stroke="black" stroke-width="2"/>
<path d="M373.592 295H363.456V276.24H373.312C374.451 276.24 375.431 276.417 376.252 276.772C377.092 277.127 377.736 277.659 378.184 278.368C378.651 279.059 378.884 279.899 378.884 280.888C378.884 281.952 378.576 282.867 377.96 283.632C377.344 284.379 376.392 284.855 375.104 285.06V285.228C376.56 285.471 377.652 286.003 378.38 286.824C379.108 287.627 379.472 288.625 379.472 289.82C379.472 290.903 379.229 291.836 378.744 292.62C378.259 293.385 377.577 293.973 376.7 294.384C375.823 294.795 374.787 295 373.592 295ZM365.444 286.124V293.18H373.424C374.749 293.18 375.748 292.891 376.42 292.312C377.111 291.733 377.456 290.837 377.456 289.624C377.456 288.411 377.111 287.524 376.42 286.964C375.729 286.404 374.731 286.124 373.424 286.124H365.444ZM365.444 278.06V284.416H372.976C374.264 284.416 375.235 284.155 375.888 283.632C376.56 283.109 376.896 282.316 376.896 281.252C376.896 280.151 376.588 279.348 375.972 278.844C375.356 278.321 374.413 278.06 373.144 278.06H365.444ZM387.66 295.28C386.353 295.28 385.261 295.009 384.384 294.468C383.525 293.908 382.872 293.171 382.424 292.256C381.994 291.341 381.78 290.343 381.78 289.26V281.168H383.768V288.952C383.768 290.371 384.132 291.481 384.86 292.284C385.588 293.087 386.754 293.488 388.36 293.488C390.058 293.488 391.337 293.003 392.196 292.032C393.073 291.043 393.512 289.661 393.512 287.888L394.044 287.86V290.688H393.568C393.418 291.472 393.092 292.209 392.588 292.9C392.102 293.591 391.449 294.16 390.628 294.608C389.806 295.056 388.817 295.28 387.66 295.28ZM395.5 295H393.708V290.632L393.512 290.492V281.168H395.5V295ZM407.328 295H404.332C402.951 295 401.849 294.673 401.028 294.02C400.225 293.367 399.824 292.228 399.824 290.604V277.864H401.84V290.716C401.84 291.687 402.083 292.34 402.568 292.676C403.053 293.012 403.8 293.18 404.808 293.18H407.328V295ZM407.328 282.876H397.36V281.168H407.328V282.876ZM417.617 295H415.629V281.784C415.629 280.552 415.862 279.525 416.329 278.704C416.814 277.883 417.505 277.267 418.401 276.856C419.315 276.445 420.407 276.24 421.677 276.24H423.189V277.808H421.397C420.09 277.808 419.11 278.069 418.457 278.592C417.803 279.115 417.523 280.057 417.617 281.42V281.84V295ZM423.189 282.876H413.417V281.168H423.189V282.876ZM427.109 295H425.121V281.168H427.109V295ZM427.109 279.404H425.121V276.24H427.109V279.404ZM432.469 295H430.481V281.168H432.273V285.06L432.469 285.2V295ZM432.469 287.496H431.909V284.948H432.413C432.543 284.201 432.805 283.52 433.197 282.904C433.607 282.288 434.149 281.803 434.821 281.448C435.493 281.075 436.314 280.888 437.285 280.888C438.349 280.888 439.217 281.121 439.889 281.588C440.579 282.055 441.083 282.661 441.401 283.408C441.718 284.155 441.877 284.957 441.877 285.816V287.188H439.889V286.124C439.889 284.948 439.627 284.071 439.105 283.492C438.582 282.913 437.714 282.624 436.501 282.624C435.101 282.624 434.074 283.044 433.421 283.884C432.786 284.724 432.469 285.928 432.469 287.496ZM450.256 295.28C448.147 295.28 446.495 294.869 445.3 294.048C444.124 293.208 443.536 291.985 443.536 290.38V290.324H445.524V290.492C445.524 291.649 445.888 292.461 446.616 292.928C447.363 293.395 448.585 293.628 450.284 293.628C451.833 293.628 452.916 293.441 453.532 293.068C454.148 292.676 454.456 292.088 454.456 291.304C454.456 290.576 454.213 290.063 453.728 289.764C453.261 289.447 452.449 289.195 451.292 289.008L447.596 288.476C446.327 288.308 445.319 287.953 444.572 287.412C443.844 286.871 443.48 286.021 443.48 284.864C443.48 284.043 443.723 283.343 444.208 282.764C444.712 282.167 445.421 281.709 446.336 281.392C447.251 281.056 448.343 280.888 449.612 280.888C450.937 280.888 452.085 281.075 453.056 281.448C454.045 281.803 454.811 282.344 455.352 283.072C455.893 283.8 456.164 284.715 456.164 285.816V285.872H454.176V285.732C454.176 285.023 454.036 284.435 453.756 283.968C453.476 283.501 453 283.147 452.328 282.904C451.656 282.661 450.732 282.54 449.556 282.54C448.1 282.54 447.045 282.727 446.392 283.1C445.757 283.473 445.44 284.071 445.44 284.892C445.44 285.601 445.655 286.115 446.084 286.432C446.532 286.731 447.325 286.973 448.464 287.16L451.852 287.636C453.327 287.841 454.456 288.224 455.24 288.784C456.024 289.344 456.416 290.184 456.416 291.304C456.416 292.163 456.145 292.891 455.604 293.488C455.081 294.085 454.353 294.533 453.42 294.832C452.505 295.131 451.451 295.28 450.256 295.28ZM467.512 295H464.516C463.134 295 462.033 294.673 461.212 294.02C460.409 293.367 460.008 292.228 460.008 290.604V277.864H462.024V290.716C462.024 291.687 462.266 292.34 462.752 292.676C463.237 293.012 463.984 293.18 464.992 293.18H467.512V295ZM467.512 282.876H457.544V281.168H467.512V282.876ZM471.316 295H468.852V291.108H471.316V295ZM469.412 297.464H468.824V296.26H469.384C469.57 296.26 469.71 296.223 469.804 296.148C469.897 296.073 469.944 295.915 469.944 295.672V294.356H471.316V295.644C471.316 296.26 471.148 296.717 470.812 297.016C470.476 297.315 470.009 297.464 469.412 297.464ZM480.977 295H478.989V276.24H480.977V295ZM503.097 295H501.109V287.216C501.109 285.779 500.745 284.668 500.017 283.884C499.308 283.1 498.16 282.708 496.573 282.708C494.875 282.708 493.596 283.193 492.737 284.164C491.879 285.135 491.449 286.516 491.449 288.308H490.917L490.889 285.508H491.393C491.561 284.724 491.888 283.977 492.373 283.268C492.859 282.559 493.503 281.989 494.305 281.56C495.127 281.112 496.116 280.888 497.273 280.888C498.58 280.888 499.663 281.168 500.521 281.728C501.38 282.269 502.024 282.997 502.453 283.912C502.883 284.827 503.097 285.835 503.097 286.936V295ZM491.449 295H489.461V281.168H491.253V285.564L491.449 285.704V295ZM512.912 295.28C511.438 295.28 510.15 294.991 509.048 294.412C507.947 293.815 507.098 292.975 506.5 291.892C505.922 290.809 505.632 289.54 505.632 288.084C505.632 286.684 505.922 285.443 506.5 284.36C507.098 283.277 507.938 282.428 509.02 281.812C510.122 281.196 511.41 280.888 512.884 280.888C514.247 280.888 515.442 281.14 516.468 281.644C517.514 282.148 518.335 282.885 518.932 283.856C519.53 284.808 519.828 285.975 519.828 287.356C519.828 287.599 519.81 287.832 519.772 288.056C519.754 288.261 519.726 288.457 519.688 288.644H506.864V287.412H518.484L517.896 288.14C517.915 287.953 517.924 287.767 517.924 287.58C517.943 287.393 517.952 287.197 517.952 286.992C517.952 285.536 517.514 284.435 516.636 283.688C515.759 282.923 514.499 282.54 512.856 282.54C510.971 282.54 509.608 283.016 508.768 283.968C507.928 284.901 507.508 286.189 507.508 287.832V288.28C507.508 289.941 507.928 291.248 508.768 292.2C509.608 293.152 510.98 293.628 512.884 293.628C514.508 293.628 515.703 293.348 516.468 292.788C517.252 292.209 517.644 291.416 517.644 290.408V290.212H519.632V290.408C519.632 291.379 519.343 292.228 518.764 292.956C518.186 293.684 517.383 294.253 516.356 294.664C515.348 295.075 514.2 295.28 512.912 295.28ZM529.045 295.28C527.57 295.28 526.282 294.991 525.181 294.412C524.08 293.815 523.23 292.975 522.633 291.892C522.054 290.809 521.765 289.54 521.765 288.084C521.765 286.684 522.054 285.443 522.633 284.36C523.23 283.277 524.07 282.428 525.153 281.812C526.254 281.196 527.542 280.888 529.017 280.888C530.38 280.888 531.574 281.14 532.601 281.644C533.646 282.148 534.468 282.885 535.065 283.856C535.662 284.808 535.961 285.975 535.961 287.356C535.961 287.599 535.942 287.832 535.905 288.056C535.886 288.261 535.858 288.457 535.821 288.644H522.997V287.412H534.617L534.029 288.14C534.048 287.953 534.057 287.767 534.057 287.58C534.076 287.393 534.085 287.197 534.085 286.992C534.085 285.536 533.646 284.435 532.769 283.688C531.892 282.923 530.632 282.54 528.989 282.54C527.104 282.54 525.741 283.016 524.901 283.968C524.061 284.901 523.641 286.189 523.641 287.832V288.28C523.641 289.941 524.061 291.248 524.901 292.2C525.741 293.152 527.113 293.628 529.017 293.628C530.641 293.628 531.836 293.348 532.601 292.788C533.385 292.209 533.777 291.416 533.777 290.408V290.212H535.765V290.408C535.765 291.379 535.476 292.228 534.897 292.956C534.318 293.684 533.516 294.253 532.489 294.664C531.481 295.075 530.333 295.28 529.045 295.28ZM544.562 295.28C543.087 295.28 541.837 294.972 540.81 294.356C539.783 293.74 538.999 292.891 538.458 291.808C537.935 290.725 537.674 289.484 537.674 288.084C537.674 286.684 537.935 285.443 538.458 284.36C538.999 283.277 539.765 282.428 540.754 281.812C541.762 281.196 542.975 280.888 544.394 280.888C546.037 280.888 547.362 281.28 548.37 282.064C549.378 282.848 550.031 283.837 550.33 285.032H551.002V288.056H550.47C550.47 286.357 549.985 285.051 549.014 284.136C548.043 283.203 546.709 282.736 545.01 282.736C543.965 282.736 543.041 282.904 542.238 283.24C541.435 283.576 540.81 284.136 540.362 284.92C539.914 285.685 539.69 286.74 539.69 288.084C539.69 289.428 539.905 290.492 540.334 291.276C540.782 292.041 541.407 292.601 542.21 292.956C543.031 293.292 543.983 293.46 545.066 293.46C546.149 293.46 547.091 293.264 547.894 292.872C548.697 292.461 549.322 291.873 549.77 291.108C550.237 290.324 550.47 289.391 550.47 288.308H551.002L551.086 290.912H550.526C550.19 292.293 549.49 293.367 548.426 294.132C547.381 294.897 546.093 295.28 544.562 295.28ZM552.458 295H550.638V290.464L550.47 290.1V276.24H552.458V295ZM567.014 295.28C564.904 295.28 563.252 294.869 562.058 294.048C560.882 293.208 560.294 291.985 560.294 290.38V290.324H562.282V290.492C562.282 291.649 562.646 292.461 563.374 292.928C564.12 293.395 565.343 293.628 567.042 293.628C568.591 293.628 569.674 293.441 570.29 293.068C570.906 292.676 571.214 292.088 571.214 291.304C571.214 290.576 570.971 290.063 570.486 289.764C570.019 289.447 569.207 289.195 568.05 289.008L564.354 288.476C563.084 288.308 562.076 287.953 561.33 287.412C560.602 286.871 560.238 286.021 560.238 284.864C560.238 284.043 560.48 283.343 560.966 282.764C561.47 282.167 562.179 281.709 563.094 281.392C564.008 281.056 565.1 280.888 566.37 280.888C567.695 280.888 568.843 281.075 569.814 281.448C570.803 281.803 571.568 282.344 572.11 283.072C572.651 283.8 572.922 284.715 572.922 285.816V285.872H570.934V285.732C570.934 285.023 570.794 284.435 570.514 283.968C570.234 283.501 569.758 283.147 569.086 282.904C568.414 282.661 567.49 282.54 566.314 282.54C564.858 282.54 563.803 282.727 563.15 283.1C562.515 283.473 562.198 284.071 562.198 284.892C562.198 285.601 562.412 286.115 562.842 286.432C563.29 286.731 564.083 286.973 565.222 287.16L568.61 287.636C570.084 287.841 571.214 288.224 571.998 288.784C572.782 289.344 573.174 290.184 573.174 291.304C573.174 292.163 572.903 292.891 572.362 293.488C571.839 294.085 571.111 294.533 570.178 294.832C569.263 295.131 568.208 295.28 567.014 295.28ZM582.561 295.28C581.068 295.28 579.752 294.972 578.613 294.356C577.493 293.74 576.616 292.891 575.981 291.808C575.365 290.725 575.057 289.484 575.057 288.084C575.057 286.684 575.365 285.443 575.981 284.36C576.616 283.277 577.493 282.428 578.613 281.812C579.752 281.196 581.068 280.888 582.561 280.888C584.092 280.888 585.417 281.196 586.537 281.812C587.657 282.428 588.525 283.277 589.141 284.36C589.776 285.443 590.093 286.684 590.093 288.084C590.093 289.484 589.776 290.725 589.141 291.808C588.525 292.891 587.657 293.74 586.537 294.356C585.417 294.972 584.092 295.28 582.561 295.28ZM582.561 293.488C584.484 293.488 585.893 293.012 586.789 292.06C587.685 291.089 588.133 289.764 588.133 288.084C588.133 286.404 587.685 285.088 586.789 284.136C585.893 283.165 584.484 282.68 582.561 282.68C580.676 282.68 579.276 283.165 578.361 284.136C577.465 285.088 577.017 286.404 577.017 288.084C577.017 289.764 577.465 291.089 578.361 292.06C579.276 293.012 580.676 293.488 582.561 293.488ZM616.483 295H614.495V287.216C614.495 285.685 614.159 284.556 613.487 283.828C612.815 283.081 611.741 282.708 610.267 282.708C608.605 282.708 607.411 283.184 606.683 284.136C605.955 285.069 605.591 286.46 605.591 288.308H605.059L605.003 285.48H605.479C605.628 284.677 605.908 283.931 606.319 283.24C606.748 282.549 607.345 281.989 608.111 281.56C608.895 281.112 609.856 280.888 610.995 280.888C612.208 280.888 613.216 281.149 614.019 281.672C614.84 282.195 615.456 282.913 615.867 283.828C616.277 284.724 616.483 285.76 616.483 286.936V295ZM594.727 295H592.739V281.168H594.531V285.564L594.727 285.704V295ZM605.591 295H603.603V287.216C603.603 285.685 603.267 284.556 602.595 283.828C601.923 283.081 600.859 282.708 599.403 282.708C597.723 282.708 596.519 283.184 595.791 284.136C595.081 285.069 594.727 286.46 594.727 288.308H594.195L594.167 285.34H594.643C594.773 284.556 595.044 283.828 595.455 283.156C595.865 282.484 596.453 281.943 597.219 281.532C597.984 281.103 598.936 280.888 600.075 280.888C601.288 280.888 602.287 281.159 603.071 281.7C603.873 282.223 604.471 282.941 604.863 283.856C605.255 284.752 605.451 285.779 605.451 286.936H605.591V295ZM626.307 295.28C624.832 295.28 623.544 294.991 622.443 294.412C621.342 293.815 620.492 292.975 619.895 291.892C619.316 290.809 619.027 289.54 619.027 288.084C619.027 286.684 619.316 285.443 619.895 284.36C620.492 283.277 621.332 282.428 622.415 281.812C623.516 281.196 624.804 280.888 626.279 280.888C627.642 280.888 628.836 281.14 629.863 281.644C630.908 282.148 631.73 282.885 632.327 283.856C632.924 284.808 633.223 285.975 633.223 287.356C633.223 287.599 633.204 287.832 633.167 288.056C633.148 288.261 633.12 288.457 633.083 288.644H620.259V287.412H631.879L631.291 288.14C631.31 287.953 631.319 287.767 631.319 287.58C631.338 287.393 631.347 287.197 631.347 286.992C631.347 285.536 630.908 284.435 630.031 283.688C629.154 282.923 627.894 282.54 626.251 282.54C624.366 282.54 623.003 283.016 622.163 283.968C621.323 284.901 620.903 286.189 620.903 287.832V288.28C620.903 289.941 621.323 291.248 622.163 292.2C623.003 293.152 624.375 293.628 626.279 293.628C627.903 293.628 629.098 293.348 629.863 292.788C630.647 292.209 631.039 291.416 631.039 290.408V290.212H633.027V290.408C633.027 291.379 632.738 292.228 632.159 292.956C631.58 293.684 630.778 294.253 629.751 294.664C628.743 295.075 627.595 295.28 626.307 295.28ZM648.868 295.28C647.319 295.28 646.022 294.897 644.976 294.132C643.95 293.367 643.268 292.293 642.932 290.912H642.344L642.456 288.308H642.988C642.988 289.391 643.203 290.324 643.632 291.108C644.08 291.873 644.706 292.461 645.508 292.872C646.311 293.264 647.263 293.46 648.364 293.46C649.484 293.46 650.446 293.292 651.248 292.956C652.051 292.601 652.667 292.041 653.096 291.276C653.526 290.492 653.74 289.428 653.74 288.084C653.74 286.74 653.516 285.685 653.068 284.92C652.639 284.136 652.023 283.576 651.22 283.24C650.436 282.904 649.512 282.736 648.448 282.736C646.694 282.736 645.34 283.203 644.388 284.136C643.455 285.051 642.988 286.357 642.988 288.056H642.456V285.032H643.1C643.418 283.837 644.071 282.848 645.06 282.064C646.05 281.28 647.375 280.888 649.036 280.888C650.492 280.888 651.715 281.196 652.704 281.812C653.694 282.428 654.45 283.277 654.972 284.36C655.495 285.443 655.756 286.684 655.756 288.084C655.756 289.484 655.495 290.725 654.972 291.808C654.45 292.891 653.675 293.74 652.648 294.356C651.64 294.972 650.38 295.28 648.868 295.28ZM642.792 295H641V276.24H642.988V290.1L642.792 290.464V295ZM670.436 295H668.644V291.22L668.504 291.108V286.432C668.504 285.088 668.186 284.127 667.552 283.548C666.917 282.969 665.834 282.68 664.304 282.68C662.829 282.68 661.7 282.96 660.916 283.52C660.15 284.061 659.768 284.948 659.768 286.18V286.292H657.78V286.18C657.78 285.191 658.041 284.304 658.564 283.52C659.086 282.717 659.842 282.083 660.832 281.616C661.821 281.131 663.025 280.888 664.444 280.888C665.844 280.888 666.982 281.131 667.86 281.616C668.756 282.101 669.409 282.755 669.82 283.576C670.23 284.397 670.436 285.321 670.436 286.348V295ZM662.036 295.28C660.673 295.28 659.572 294.972 658.732 294.356C657.892 293.721 657.472 292.853 657.472 291.752C657.472 290.987 657.658 290.371 658.032 289.904C658.424 289.419 658.956 289.045 659.628 288.784C660.3 288.523 661.065 288.336 661.924 288.224L668.784 287.468V288.784L662.54 289.484C661.494 289.577 660.72 289.773 660.216 290.072C659.712 290.371 659.46 290.884 659.46 291.612C659.46 292.303 659.702 292.835 660.188 293.208C660.673 293.563 661.438 293.74 662.484 293.74C663.622 293.74 664.64 293.572 665.536 293.236C666.432 292.881 667.15 292.349 667.692 291.64C668.233 290.931 668.504 290.025 668.504 288.924L668.896 289.064V291.276H668.504C668.093 292.545 667.318 293.535 666.18 294.244C665.041 294.935 663.66 295.28 662.036 295.28ZM679.779 295.28C677.67 295.28 676.018 294.869 674.823 294.048C673.647 293.208 673.059 291.985 673.059 290.38V290.324H675.047V290.492C675.047 291.649 675.411 292.461 676.139 292.928C676.886 293.395 678.109 293.628 679.807 293.628C681.357 293.628 682.439 293.441 683.055 293.068C683.671 292.676 683.979 292.088 683.979 291.304C683.979 290.576 683.737 290.063 683.251 289.764C682.785 289.447 681.973 289.195 680.815 289.008L677.119 288.476C675.85 288.308 674.842 287.953 674.095 287.412C673.367 286.871 673.003 286.021 673.003 284.864C673.003 284.043 673.246 283.343 673.731 282.764C674.235 282.167 674.945 281.709 675.859 281.392C676.774 281.056 677.866 280.888 679.135 280.888C680.461 280.888 681.609 281.075 682.579 281.448C683.569 281.803 684.334 282.344 684.875 283.072C685.417 283.8 685.687 284.715 685.687 285.816V285.872H683.699V285.732C683.699 285.023 683.559 284.435 683.279 283.968C682.999 283.501 682.523 283.147 681.851 282.904C681.179 282.661 680.255 282.54 679.079 282.54C677.623 282.54 676.569 282.727 675.915 283.1C675.281 283.473 674.963 284.071 674.963 284.892C674.963 285.601 675.178 286.115 675.607 286.432C676.055 286.731 676.849 286.973 677.987 287.16L681.375 287.636C682.85 287.841 683.979 288.224 684.763 288.784C685.547 289.344 685.939 290.184 685.939 291.304C685.939 292.163 685.669 292.891 685.127 293.488C684.605 294.085 683.877 294.533 682.943 294.832C682.029 295.131 680.974 295.28 679.779 295.28ZM690.539 295H688.551V281.168H690.539V295ZM690.539 279.404H688.551V276.24H690.539V279.404ZM700.491 295.28C699.016 295.28 697.728 294.972 696.627 294.356C695.526 293.74 694.676 292.891 694.079 291.808C693.482 290.725 693.183 289.484 693.183 288.084C693.183 286.684 693.482 285.443 694.079 284.36C694.676 283.277 695.526 282.428 696.627 281.812C697.728 281.196 699.016 280.888 700.491 280.888C701.779 280.888 702.936 281.131 703.963 281.616C705.008 282.083 705.839 282.736 706.455 283.576C707.071 284.416 707.379 285.396 707.379 286.516V286.74H705.419V286.572C705.419 285.34 704.98 284.388 704.103 283.716C703.244 283.044 702.031 282.708 700.463 282.708C698.615 282.708 697.271 283.184 696.431 284.136C695.591 285.069 695.171 286.385 695.171 288.084C695.171 289.783 695.591 291.108 696.431 292.06C697.271 292.993 698.615 293.46 700.463 293.46C702.031 293.46 703.244 293.133 704.103 292.48C704.98 291.808 705.419 290.847 705.419 289.596V289.428H707.379V289.652C707.379 290.753 707.071 291.733 706.455 292.592C705.839 293.432 705.008 294.095 703.963 294.58C702.936 295.047 701.779 295.28 700.491 295.28ZM717.172 295H715.184V281.168H717.172V295ZM717.172 279.404H715.184V276.24H717.172V279.404ZM734.152 295H732.164V287.216C732.164 285.779 731.8 284.668 731.072 283.884C730.363 283.1 729.215 282.708 727.628 282.708C725.929 282.708 724.651 283.193 723.792 284.164C722.933 285.135 722.504 286.516 722.504 288.308H721.972L721.944 285.508H722.448C722.616 284.724 722.943 283.977 723.428 283.268C723.913 282.559 724.557 281.989 725.36 281.56C726.181 281.112 727.171 280.888 728.328 280.888C729.635 280.888 730.717 281.168 731.576 281.728C732.435 282.269 733.079 282.997 733.508 283.912C733.937 284.827 734.152 285.835 734.152 286.936V295ZM722.504 295H720.516V281.168H722.308V285.564L722.504 285.704V295ZM740.355 295H738.367V281.784C738.367 280.552 738.6 279.525 739.067 278.704C739.552 277.883 740.243 277.267 741.139 276.856C742.054 276.445 743.146 276.24 744.415 276.24H745.927V277.808H744.135C742.828 277.808 741.848 278.069 741.195 278.592C740.542 279.115 740.262 280.057 740.355 281.42V281.84V295ZM745.927 282.876H736.155V281.168H745.927V282.876ZM754.663 295.28C753.17 295.28 751.854 294.972 750.715 294.356C749.595 293.74 748.718 292.891 748.083 291.808C747.467 290.725 747.159 289.484 747.159 288.084C747.159 286.684 747.467 285.443 748.083 284.36C748.718 283.277 749.595 282.428 750.715 281.812C751.854 281.196 753.17 280.888 754.663 280.888C756.194 280.888 757.519 281.196 758.639 281.812C759.759 282.428 760.627 283.277 761.243 284.36C761.878 285.443 762.195 286.684 762.195 288.084C762.195 289.484 761.878 290.725 761.243 291.808C760.627 292.891 759.759 293.74 758.639 294.356C757.519 294.972 756.194 295.28 754.663 295.28ZM754.663 293.488C756.586 293.488 757.995 293.012 758.891 292.06C759.787 291.089 760.235 289.764 760.235 288.084C760.235 286.404 759.787 285.088 758.891 284.136C757.995 283.165 756.586 282.68 754.663 282.68C752.778 282.68 751.378 283.165 750.463 284.136C749.567 285.088 749.119 286.404 749.119 288.084C749.119 289.764 749.567 291.089 750.463 292.06C751.378 293.012 752.778 293.488 754.663 293.488ZM766.828 295H764.84V281.168H766.632V285.06L766.828 285.2V295ZM766.828 287.496H766.268V284.948H766.772C766.903 284.201 767.164 283.52 767.556 282.904C767.967 282.288 768.508 281.803 769.18 281.448C769.852 281.075 770.673 280.888 771.644 280.888C772.708 280.888 773.576 281.121 774.248 281.588C774.939 282.055 775.443 282.661 775.76 283.408C776.077 284.155 776.236 284.957 776.236 285.816V287.188H774.248V286.124C774.248 284.948 773.987 284.071 773.464 283.492C772.941 282.913 772.073 282.624 770.86 282.624C769.46 282.624 768.433 283.044 767.78 283.884C767.145 284.724 766.828 285.928 766.828 287.496ZM802.283 295H800.295V287.216C800.295 285.685 799.959 284.556 799.287 283.828C798.615 283.081 797.542 282.708 796.067 282.708C794.406 282.708 793.211 283.184 792.483 284.136C791.755 285.069 791.391 286.46 791.391 288.308H790.859L790.803 285.48H791.279C791.429 284.677 791.709 283.931 792.119 283.24C792.549 282.549 793.146 281.989 793.911 281.56C794.695 281.112 795.657 280.888 796.795 280.888C798.009 280.888 799.017 281.149 799.819 281.672C800.641 282.195 801.257 282.913 801.667 283.828C802.078 284.724 802.283 285.76 802.283 286.936V295ZM780.527 295H778.539V281.168H780.331V285.564L780.527 285.704V295ZM791.391 295H789.403V287.216C789.403 285.685 789.067 284.556 788.395 283.828C787.723 283.081 786.659 282.708 785.203 282.708C783.523 282.708 782.319 283.184 781.591 284.136C780.882 285.069 780.527 286.46 780.527 288.308H779.995L779.967 285.34H780.443C780.574 284.556 780.845 283.828 781.255 283.156C781.666 282.484 782.254 281.943 783.019 281.532C783.785 281.103 784.737 280.888 785.875 280.888C787.089 280.888 788.087 281.159 788.871 281.7C789.674 282.223 790.271 282.941 790.663 283.856C791.055 284.752 791.251 285.779 791.251 286.936H791.391V295ZM817.764 295H815.972V291.22L815.832 291.108V286.432C815.832 285.088 815.514 284.127 814.88 283.548C814.245 282.969 813.162 282.68 811.632 282.68C810.157 282.68 809.028 282.96 808.244 283.52C807.478 284.061 807.096 284.948 807.096 286.18V286.292H805.108V286.18C805.108 285.191 805.369 284.304 805.892 283.52C806.414 282.717 807.17 282.083 808.16 281.616C809.149 281.131 810.353 280.888 811.772 280.888C813.172 280.888 814.31 281.131 815.188 281.616C816.084 282.101 816.737 282.755 817.148 283.576C817.558 284.397 817.764 285.321 817.764 286.348V295ZM809.364 295.28C808.001 295.28 806.9 294.972 806.06 294.356C805.22 293.721 804.8 292.853 804.8 291.752C804.8 290.987 804.986 290.371 805.36 289.904C805.752 289.419 806.284 289.045 806.956 288.784C807.628 288.523 808.393 288.336 809.252 288.224L816.112 287.468V288.784L809.868 289.484C808.822 289.577 808.048 289.773 807.544 290.072C807.04 290.371 806.788 290.884 806.788 291.612C806.788 292.303 807.03 292.835 807.516 293.208C808.001 293.563 808.766 293.74 809.812 293.74C810.95 293.74 811.968 293.572 812.864 293.236C813.76 292.881 814.478 292.349 815.02 291.64C815.561 290.931 815.832 290.025 815.832 288.924L816.224 289.064V291.276H815.832C815.421 292.545 814.646 293.535 813.508 294.244C812.369 294.935 810.988 295.28 809.364 295.28ZM829.516 295H826.52C825.138 295 824.037 294.673 823.216 294.02C822.413 293.367 822.012 292.228 822.012 290.604V277.864H824.028V290.716C824.028 291.687 824.27 292.34 824.756 292.676C825.241 293.012 825.988 293.18 826.996 293.18H829.516V295ZM829.516 282.876H819.548V281.168H829.516V282.876ZM833.684 295H831.696V281.168H833.684V295ZM833.684 279.404H831.696V276.24H833.684V279.404ZM843.804 295.28C842.31 295.28 840.994 294.972 839.856 294.356C838.736 293.74 837.858 292.891 837.224 291.808C836.608 290.725 836.3 289.484 836.3 288.084C836.3 286.684 836.608 285.443 837.224 284.36C837.858 283.277 838.736 282.428 839.856 281.812C840.994 281.196 842.31 280.888 843.804 280.888C845.334 280.888 846.66 281.196 847.78 281.812C848.9 282.428 849.768 283.277 850.384 284.36C851.018 285.443 851.336 286.684 851.336 288.084C851.336 289.484 851.018 290.725 850.384 291.808C849.768 292.891 848.9 293.74 847.78 294.356C846.66 294.972 845.334 295.28 843.804 295.28ZM843.804 293.488C845.726 293.488 847.136 293.012 848.032 292.06C848.928 291.089 849.376 289.764 849.376 288.084C849.376 286.404 848.928 285.088 848.032 284.136C847.136 283.165 845.726 282.68 843.804 282.68C841.918 282.68 840.518 283.165 839.604 284.136C838.708 285.088 838.26 286.404 838.26 288.084C838.26 289.764 838.708 291.089 839.604 292.06C840.518 293.012 841.918 293.488 843.804 293.488ZM867.617 295H865.629V287.216C865.629 285.779 865.265 284.668 864.537 283.884C863.827 283.1 862.679 282.708 861.093 282.708C859.394 282.708 858.115 283.193 857.257 284.164C856.398 285.135 855.969 286.516 855.969 288.308H855.437L855.409 285.508H855.913C856.081 284.724 856.407 283.977 856.893 283.268C857.378 282.559 858.022 281.989 858.825 281.56C859.646 281.112 860.635 280.888 861.793 280.888C863.099 280.888 864.182 281.168 865.041 281.728C865.899 282.269 866.543 282.997 866.973 283.912C867.402 284.827 867.617 285.835 867.617 286.936V295ZM855.969 295H853.981V281.168H855.773V285.564L855.969 285.704V295ZM872.476 295H870.012V291.108H872.476V295ZM876.632 295H874.168V291.108H876.632V295ZM880.788 295H878.324V291.108H880.788V295Z" fill="black"/>
</svg>
