<svg width="1518" height="383" viewBox="0 0 1518 383" fill="none" xmlns="http://www.w3.org/2000/svg">
<rect width="1518" height="383" fill="white"/>
<rect x="29" y="132" width="360" height="71" rx="35.5" fill="black" stroke="white" stroke-width="2"/>
<path d="M75.3039 179H72.7479V154.88H75.3039V179ZM90.6039 179H73.5399V176.66H90.6039V179ZM96.0461 179H93.4901V154.88H96.0461V179ZM111.814 179H94.3541V176.66H111.814V179ZM111.274 168.02H94.3541V165.716H111.274V168.02ZM111.814 157.22H94.3541V154.88H111.814V157.22ZM126.12 179H123.564V154.88H126.12V179ZM136.02 157.22H113.628V154.88H136.02V157.22ZM140.648 159.884H137.48V154.88H140.648V159.884ZM138.2 163.052H137.444V161.504H138.164C138.404 161.504 138.584 161.456 138.704 161.36C138.824 161.24 138.884 161.024 138.884 160.712V159.056H140.648V160.676C140.648 161.492 140.432 162.092 140 162.476C139.568 162.86 138.968 163.052 138.2 163.052ZM153.264 179.36C150.912 179.36 148.956 179.012 147.396 178.316C145.86 177.62 144.72 176.672 143.976 175.472C143.232 174.248 142.86 172.88 142.86 171.368V171.152H145.452V171.62C145.452 172.772 145.704 173.744 146.208 174.536C146.736 175.328 147.576 175.928 148.728 176.336C149.88 176.744 151.392 176.948 153.264 176.948C154.896 176.948 156.216 176.804 157.224 176.516C158.256 176.228 159.024 175.784 159.528 175.184C160.032 174.56 160.284 173.792 160.284 172.88C160.284 171.536 159.864 170.564 159.024 169.964C158.208 169.34 156.912 168.848 155.136 168.488L150.024 167.516C148.728 167.252 147.54 166.88 146.46 166.4C145.404 165.92 144.552 165.26 143.904 164.42C143.28 163.556 142.968 162.452 142.968 161.108C142.968 160.292 143.148 159.5 143.508 158.732C143.892 157.94 144.468 157.232 145.236 156.608C146.004 155.96 147 155.456 148.224 155.096C149.472 154.712 150.96 154.52 152.688 154.52C154.968 154.52 156.828 154.88 158.268 155.6C159.708 156.32 160.776 157.292 161.472 158.516C162.168 159.716 162.516 161.048 162.516 162.512V162.728H159.924V162.296C159.924 161.144 159.672 160.172 159.168 159.38C158.664 158.564 157.872 157.952 156.792 157.544C155.712 157.136 154.284 156.932 152.508 156.932C150.924 156.932 149.616 157.088 148.584 157.4C147.552 157.688 146.784 158.132 146.28 158.732C145.8 159.308 145.56 160.04 145.56 160.928C145.56 161.816 145.74 162.536 146.1 163.088C146.484 163.64 147.048 164.072 147.792 164.384C148.56 164.696 149.532 164.984 150.708 165.248L155.784 166.256C157.224 166.52 158.472 166.916 159.528 167.444C160.584 167.972 161.4 168.668 161.976 169.532C162.576 170.372 162.876 171.416 162.876 172.664C162.876 173.792 162.54 174.872 161.868 175.904C161.196 176.936 160.152 177.776 158.736 178.424C157.32 179.048 155.496 179.36 153.264 179.36ZM183.603 179.36C181.323 179.36 179.295 178.856 177.519 177.848C175.767 176.816 174.387 175.376 173.379 173.528C172.395 171.656 171.903 169.46 171.903 166.94C171.903 164.42 172.419 162.236 173.451 160.388C174.483 158.516 175.911 157.076 177.735 156.068C179.583 155.036 181.707 154.52 184.107 154.52C186.195 154.52 188.067 154.88 189.723 155.6C191.379 156.32 192.675 157.34 193.611 158.66C194.571 159.956 195.051 161.504 195.051 163.304V163.628H192.279V163.304C192.279 161.312 191.571 159.764 190.155 158.66C188.763 157.556 186.735 157.004 184.071 157.004C182.031 157.004 180.303 157.388 178.887 158.156C177.495 158.9 176.427 160.004 175.683 161.468C174.963 162.932 174.603 164.756 174.603 166.94C174.603 169.1 174.963 170.924 175.683 172.412C176.403 173.876 177.459 174.992 178.851 175.76C180.267 176.504 181.971 176.876 183.963 176.876C185.883 176.876 187.467 176.636 188.715 176.156C189.987 175.652 190.935 174.896 191.559 173.888C192.183 172.88 192.495 171.596 192.495 170.036V169.496L195.051 169.748V170.324L193.071 173.744H192.603C192.195 175.04 191.559 176.108 190.695 176.948C189.831 177.764 188.787 178.376 187.563 178.784C186.363 179.168 185.043 179.36 183.603 179.36ZM195.051 179H192.783V173.24L192.495 172.844V167.588H195.051V179ZM195.051 169.136H182.919V167.12H195.051V169.136ZM210.192 179.36C207.816 179.36 205.704 178.856 203.856 177.848C202.032 176.816 200.604 175.376 199.572 173.528C198.54 171.656 198.024 169.46 198.024 166.94C198.024 164.42 198.54 162.236 199.572 160.388C200.604 158.516 202.032 157.076 203.856 156.068C205.704 155.036 207.816 154.52 210.192 154.52C212.616 154.52 214.74 155.036 216.564 156.068C218.388 157.076 219.816 158.516 220.848 160.388C221.904 162.236 222.432 164.42 222.432 166.94C222.432 169.46 221.904 171.656 220.848 173.528C219.816 175.376 218.388 176.816 216.564 177.848C214.74 178.856 212.616 179.36 210.192 179.36ZM210.192 176.876C212.232 176.876 213.96 176.504 215.376 175.76C216.792 174.992 217.872 173.876 218.616 172.412C219.36 170.924 219.732 169.1 219.732 166.94C219.732 164.756 219.36 162.932 218.616 161.468C217.872 160.004 216.792 158.9 215.376 158.156C213.96 157.388 212.232 157.004 210.192 157.004C208.176 157.004 206.46 157.388 205.044 158.156C203.628 158.9 202.548 160.004 201.804 161.468C201.084 162.932 200.724 164.756 200.724 166.94C200.724 169.1 201.084 170.924 201.804 172.412C202.548 173.876 203.628 174.992 205.044 175.76C206.46 176.504 208.176 176.876 210.192 176.876Z" fill="white"/>
<path d="M356.539 168C356.539 168 341.062 166.667 341.062 153" stroke="white" stroke-width="2" stroke-miterlimit="10"/>
<path d="M249.055 168L356.539 168.22" stroke="white" stroke-width="2" stroke-miterlimit="10"/>
<path d="M356.539 168C356.539 168 341.062 169.244 341.062 182" stroke="white" stroke-width="2" stroke-miterlimit="10"/>
<rect x="34" y="44" width="355" height="71" rx="35.5" fill="white" stroke="black" stroke-width="2"/>
<path d="M79.716 91H77.16V66.88H79.716V91ZM95.016 91H77.952V88.66H95.016V91ZM100.458 91H97.9022V66.88H100.458V91ZM116.226 91H98.7662V88.66H116.226V91ZM115.686 80.02H98.7662V77.716H115.686V80.02ZM116.226 69.22H98.7662V66.88H116.226V69.22ZM130.533 91H127.977V66.88H130.533V91ZM140.433 69.22H118.041V66.88H140.433V69.22ZM145.061 71.884H141.893V66.88H145.061V71.884ZM142.613 75.052H141.857V73.504H142.577C142.817 73.504 142.997 73.456 143.117 73.36C143.237 73.24 143.297 73.024 143.297 72.712V71.056H145.061V72.676C145.061 73.492 144.845 74.092 144.413 74.476C143.981 74.86 143.381 75.052 142.613 75.052ZM157.676 91.36C155.324 91.36 153.368 91.012 151.808 90.316C150.272 89.62 149.132 88.672 148.388 87.472C147.644 86.248 147.272 84.88 147.272 83.368V83.152H149.864V83.62C149.864 84.772 150.116 85.744 150.62 86.536C151.148 87.328 151.988 87.928 153.14 88.336C154.292 88.744 155.804 88.948 157.676 88.948C159.308 88.948 160.628 88.804 161.636 88.516C162.668 88.228 163.436 87.784 163.94 87.184C164.444 86.56 164.696 85.792 164.696 84.88C164.696 83.536 164.276 82.564 163.436 81.964C162.62 81.34 161.324 80.848 159.548 80.488L154.436 79.516C153.14 79.252 151.952 78.88 150.872 78.4C149.816 77.92 148.964 77.26 148.316 76.42C147.692 75.556 147.38 74.452 147.38 73.108C147.38 72.292 147.56 71.5 147.92 70.732C148.304 69.94 148.88 69.232 149.648 68.608C150.416 67.96 151.412 67.456 152.636 67.096C153.884 66.712 155.372 66.52 157.1 66.52C159.38 66.52 161.24 66.88 162.68 67.6C164.12 68.32 165.188 69.292 165.884 70.516C166.58 71.716 166.928 73.048 166.928 74.512V74.728H164.336V74.296C164.336 73.144 164.084 72.172 163.58 71.38C163.076 70.564 162.284 69.952 161.204 69.544C160.124 69.136 158.696 68.932 156.92 68.932C155.336 68.932 154.028 69.088 152.996 69.4C151.964 69.688 151.196 70.132 150.692 70.732C150.212 71.308 149.972 72.04 149.972 72.928C149.972 73.816 150.152 74.536 150.512 75.088C150.896 75.64 151.46 76.072 152.204 76.384C152.972 76.696 153.944 76.984 155.12 77.248L160.196 78.256C161.636 78.52 162.884 78.916 163.94 79.444C164.996 79.972 165.812 80.668 166.388 81.532C166.988 82.372 167.288 83.416 167.288 84.664C167.288 85.792 166.952 86.872 166.28 87.904C165.608 88.936 164.564 89.776 163.148 90.424C161.732 91.048 159.908 91.36 157.676 91.36ZM188.015 91.36C185.735 91.36 183.707 90.856 181.931 89.848C180.179 88.816 178.799 87.376 177.791 85.528C176.807 83.656 176.315 81.46 176.315 78.94C176.315 76.42 176.831 74.236 177.863 72.388C178.895 70.516 180.323 69.076 182.147 68.068C183.995 67.036 186.119 66.52 188.519 66.52C190.607 66.52 192.479 66.88 194.135 67.6C195.791 68.32 197.087 69.34 198.023 70.66C198.983 71.956 199.463 73.504 199.463 75.304V75.628H196.691V75.304C196.691 73.312 195.983 71.764 194.567 70.66C193.175 69.556 191.147 69.004 188.483 69.004C186.443 69.004 184.715 69.388 183.299 70.156C181.907 70.9 180.839 72.004 180.095 73.468C179.375 74.932 179.015 76.756 179.015 78.94C179.015 81.1 179.375 82.924 180.095 84.412C180.815 85.876 181.871 86.992 183.263 87.76C184.679 88.504 186.383 88.876 188.375 88.876C190.295 88.876 191.879 88.636 193.127 88.156C194.399 87.652 195.347 86.896 195.971 85.888C196.595 84.88 196.907 83.596 196.907 82.036V81.496L199.463 81.748V82.324L197.483 85.744H197.015C196.607 87.04 195.971 88.108 195.107 88.948C194.243 89.764 193.199 90.376 191.975 90.784C190.775 91.168 189.455 91.36 188.015 91.36ZM199.463 91H197.195V85.24L196.907 84.844V79.588H199.463V91ZM199.463 81.136H187.331V79.12H199.463V81.136ZM214.604 91.36C212.228 91.36 210.116 90.856 208.268 89.848C206.444 88.816 205.016 87.376 203.984 85.528C202.952 83.656 202.436 81.46 202.436 78.94C202.436 76.42 202.952 74.236 203.984 72.388C205.016 70.516 206.444 69.076 208.268 68.068C210.116 67.036 212.228 66.52 214.604 66.52C217.028 66.52 219.152 67.036 220.976 68.068C222.8 69.076 224.228 70.516 225.26 72.388C226.316 74.236 226.844 76.42 226.844 78.94C226.844 81.46 226.316 83.656 225.26 85.528C224.228 87.376 222.8 88.816 220.976 89.848C219.152 90.856 217.028 91.36 214.604 91.36ZM214.604 88.876C216.644 88.876 218.372 88.504 219.788 87.76C221.204 86.992 222.284 85.876 223.028 84.412C223.772 82.924 224.144 81.1 224.144 78.94C224.144 76.756 223.772 74.932 223.028 73.468C222.284 72.004 221.204 70.9 219.788 70.156C218.372 69.388 216.644 69.004 214.604 69.004C212.588 69.004 210.872 69.388 209.456 70.156C208.04 70.9 206.96 72.004 206.216 73.468C205.496 74.932 205.136 76.756 205.136 78.94C205.136 81.1 205.496 82.924 206.216 84.412C206.96 85.876 208.04 86.992 209.456 87.76C210.872 88.504 212.588 88.876 214.604 88.876Z" fill="black"/>
<path d="M357 80C357 80 341.736 78.6672 341.736 65" stroke="black" stroke-width="2" stroke-miterlimit="10"/>
<path d="M251 80L357 80.2204" stroke="black" stroke-width="2" stroke-miterlimit="10"/>
<path d="M357 80C357 80 341.736 81.244 341.736 94" stroke="black" stroke-width="2" stroke-miterlimit="10"/>
<rect x="34" y="244" width="71" height="71" rx="35.5" fill="white" stroke="black" stroke-width="2"/>
<line x1="85.7071" y1="264.316" x2="55.3162" y2="294.707" stroke="black" stroke-width="2"/>
<line x1="84.2929" y1="294.707" x2="53.9019" y2="264.316" stroke="black" stroke-width="2"/>
<rect x="192" y="314" width="71" height="71" rx="35.5" transform="rotate(-180 192 314)" fill="black" stroke="white" stroke-width="2"/>
<path d="M135 278C135 278 150.264 279.333 150.264 293" stroke="white" stroke-width="2" stroke-miterlimit="10"/>
<path d="M177 278L135 278" stroke="white" stroke-width="2" stroke-miterlimit="10"/>
<path d="M135 278C135 278 150.264 276.756 150.264 264" stroke="white" stroke-width="2" stroke-miterlimit="10"/>
<rect x="208" y="243" width="71" height="71" rx="35.5" fill="black" stroke="white" stroke-width="2"/>
<path d="M265 279C265 279 249.736 277.667 249.736 264" stroke="white" stroke-width="2" stroke-miterlimit="10"/>
<path d="M223 279L265 279" stroke="white" stroke-width="2" stroke-miterlimit="10"/>
<path d="M265 279C265 279 249.736 280.244 249.736 293" stroke="white" stroke-width="2" stroke-miterlimit="10"/>
<path d="M405.034 322.472L405.147 321.602H406.026H895.58C917.348 321.602 935 304.008 935 282.301C935 260.604 917.359 243 895.58 243H363.42C341.652 243 324 260.593 324 282.301C324 303.997 341.652 321.602 363.431 321.602H370.976H371.917L371.974 322.541L370.976 322.602C371.974 322.541 371.974 322.542 371.974 322.543L371.974 322.544L371.974 322.549L371.975 322.564L371.977 322.615C371.979 322.658 371.982 322.719 371.984 322.799C371.988 322.959 371.992 323.19 371.989 323.489C371.984 324.085 371.954 324.95 371.858 326.043C371.666 328.228 371.207 331.326 370.142 335.017C368.136 341.973 363.981 351.021 355.424 360C356.694 359.997 358.439 359.95 360.521 359.786C365.005 359.432 371.025 358.535 377.199 356.368C389.518 352.044 402.395 342.705 405.034 322.472Z" fill="white" stroke="black" stroke-width="2"/>
<path d="M373.592 291H363.456V272.24H373.312C374.451 272.24 375.431 272.417 376.252 272.772C377.092 273.127 377.736 273.659 378.184 274.368C378.651 275.059 378.884 275.899 378.884 276.888C378.884 277.952 378.576 278.867 377.96 279.632C377.344 280.379 376.392 280.855 375.104 281.06V281.228C376.56 281.471 377.652 282.003 378.38 282.824C379.108 283.627 379.472 284.625 379.472 285.82C379.472 286.903 379.229 287.836 378.744 288.62C378.259 289.385 377.577 289.973 376.7 290.384C375.823 290.795 374.787 291 373.592 291ZM365.444 282.124V289.18H373.424C374.749 289.18 375.748 288.891 376.42 288.312C377.111 287.733 377.456 286.837 377.456 285.624C377.456 284.411 377.111 283.524 376.42 282.964C375.729 282.404 374.731 282.124 373.424 282.124H365.444ZM365.444 274.06V280.416H372.976C374.264 280.416 375.235 280.155 375.888 279.632C376.56 279.109 376.896 278.316 376.896 277.252C376.896 276.151 376.588 275.348 375.972 274.844C375.356 274.321 374.413 274.06 373.144 274.06H365.444ZM387.66 291.28C386.353 291.28 385.261 291.009 384.384 290.468C383.525 289.908 382.872 289.171 382.424 288.256C381.994 287.341 381.78 286.343 381.78 285.26V277.168H383.768V284.952C383.768 286.371 384.132 287.481 384.86 288.284C385.588 289.087 386.754 289.488 388.36 289.488C390.058 289.488 391.337 289.003 392.196 288.032C393.073 287.043 393.512 285.661 393.512 283.888L394.044 283.86V286.688H393.568C393.418 287.472 393.092 288.209 392.588 288.9C392.102 289.591 391.449 290.16 390.628 290.608C389.806 291.056 388.817 291.28 387.66 291.28ZM395.5 291H393.708V286.632L393.512 286.492V277.168H395.5V291ZM407.328 291H404.332C402.951 291 401.849 290.673 401.028 290.02C400.225 289.367 399.824 288.228 399.824 286.604V273.864H401.84V286.716C401.84 287.687 402.083 288.34 402.568 288.676C403.053 289.012 403.8 289.18 404.808 289.18H407.328V291ZM407.328 278.876H397.36V277.168H407.328V278.876ZM417.617 291H415.629V277.784C415.629 276.552 415.862 275.525 416.329 274.704C416.814 273.883 417.505 273.267 418.401 272.856C419.315 272.445 420.407 272.24 421.677 272.24H423.189V273.808H421.397C420.09 273.808 419.11 274.069 418.457 274.592C417.803 275.115 417.523 276.057 417.617 277.42V277.84V291ZM423.189 278.876H413.417V277.168H423.189V278.876ZM427.109 291H425.121V277.168H427.109V291ZM427.109 275.404H425.121V272.24H427.109V275.404ZM432.469 291H430.481V277.168H432.273V281.06L432.469 281.2V291ZM432.469 283.496H431.909V280.948H432.413C432.543 280.201 432.805 279.52 433.197 278.904C433.607 278.288 434.149 277.803 434.821 277.448C435.493 277.075 436.314 276.888 437.285 276.888C438.349 276.888 439.217 277.121 439.889 277.588C440.579 278.055 441.083 278.661 441.401 279.408C441.718 280.155 441.877 280.957 441.877 281.816V283.188H439.889V282.124C439.889 280.948 439.627 280.071 439.105 279.492C438.582 278.913 437.714 278.624 436.501 278.624C435.101 278.624 434.074 279.044 433.421 279.884C432.786 280.724 432.469 281.928 432.469 283.496ZM450.256 291.28C448.147 291.28 446.495 290.869 445.3 290.048C444.124 289.208 443.536 287.985 443.536 286.38V286.324H445.524V286.492C445.524 287.649 445.888 288.461 446.616 288.928C447.363 289.395 448.585 289.628 450.284 289.628C451.833 289.628 452.916 289.441 453.532 289.068C454.148 288.676 454.456 288.088 454.456 287.304C454.456 286.576 454.213 286.063 453.728 285.764C453.261 285.447 452.449 285.195 451.292 285.008L447.596 284.476C446.327 284.308 445.319 283.953 444.572 283.412C443.844 282.871 443.48 282.021 443.48 280.864C443.48 280.043 443.723 279.343 444.208 278.764C444.712 278.167 445.421 277.709 446.336 277.392C447.251 277.056 448.343 276.888 449.612 276.888C450.937 276.888 452.085 277.075 453.056 277.448C454.045 277.803 454.811 278.344 455.352 279.072C455.893 279.8 456.164 280.715 456.164 281.816V281.872H454.176V281.732C454.176 281.023 454.036 280.435 453.756 279.968C453.476 279.501 453 279.147 452.328 278.904C451.656 278.661 450.732 278.54 449.556 278.54C448.1 278.54 447.045 278.727 446.392 279.1C445.757 279.473 445.44 280.071 445.44 280.892C445.44 281.601 445.655 282.115 446.084 282.432C446.532 282.731 447.325 282.973 448.464 283.16L451.852 283.636C453.327 283.841 454.456 284.224 455.24 284.784C456.024 285.344 456.416 286.184 456.416 287.304C456.416 288.163 456.145 288.891 455.604 289.488C455.081 290.085 454.353 290.533 453.42 290.832C452.505 291.131 451.451 291.28 450.256 291.28ZM467.512 291H464.516C463.134 291 462.033 290.673 461.212 290.02C460.409 289.367 460.008 288.228 460.008 286.604V273.864H462.024V286.716C462.024 287.687 462.266 288.34 462.752 288.676C463.237 289.012 463.984 289.18 464.992 289.18H467.512V291ZM467.512 278.876H457.544V277.168H467.512V278.876ZM471.316 291H468.852V287.108H471.316V291ZM469.412 293.464H468.824V292.26H469.384C469.57 292.26 469.71 292.223 469.804 292.148C469.897 292.073 469.944 291.915 469.944 291.672V290.356H471.316V291.644C471.316 292.26 471.148 292.717 470.812 293.016C470.476 293.315 470.009 293.464 469.412 293.464ZM480.977 291H478.989V272.24H480.977V291ZM503.097 291H501.109V283.216C501.109 281.779 500.745 280.668 500.017 279.884C499.308 279.1 498.16 278.708 496.573 278.708C494.875 278.708 493.596 279.193 492.737 280.164C491.879 281.135 491.449 282.516 491.449 284.308H490.917L490.889 281.508H491.393C491.561 280.724 491.888 279.977 492.373 279.268C492.859 278.559 493.503 277.989 494.305 277.56C495.127 277.112 496.116 276.888 497.273 276.888C498.58 276.888 499.663 277.168 500.521 277.728C501.38 278.269 502.024 278.997 502.453 279.912C502.883 280.827 503.097 281.835 503.097 282.936V291ZM491.449 291H489.461V277.168H491.253V281.564L491.449 281.704V291ZM512.912 291.28C511.438 291.28 510.15 290.991 509.048 290.412C507.947 289.815 507.098 288.975 506.5 287.892C505.922 286.809 505.632 285.54 505.632 284.084C505.632 282.684 505.922 281.443 506.5 280.36C507.098 279.277 507.938 278.428 509.02 277.812C510.122 277.196 511.41 276.888 512.884 276.888C514.247 276.888 515.442 277.14 516.468 277.644C517.514 278.148 518.335 278.885 518.932 279.856C519.53 280.808 519.828 281.975 519.828 283.356C519.828 283.599 519.81 283.832 519.772 284.056C519.754 284.261 519.726 284.457 519.688 284.644H506.864V283.412H518.484L517.896 284.14C517.915 283.953 517.924 283.767 517.924 283.58C517.943 283.393 517.952 283.197 517.952 282.992C517.952 281.536 517.514 280.435 516.636 279.688C515.759 278.923 514.499 278.54 512.856 278.54C510.971 278.54 509.608 279.016 508.768 279.968C507.928 280.901 507.508 282.189 507.508 283.832V284.28C507.508 285.941 507.928 287.248 508.768 288.2C509.608 289.152 510.98 289.628 512.884 289.628C514.508 289.628 515.703 289.348 516.468 288.788C517.252 288.209 517.644 287.416 517.644 286.408V286.212H519.632V286.408C519.632 287.379 519.343 288.228 518.764 288.956C518.186 289.684 517.383 290.253 516.356 290.664C515.348 291.075 514.2 291.28 512.912 291.28ZM529.045 291.28C527.57 291.28 526.282 290.991 525.181 290.412C524.08 289.815 523.23 288.975 522.633 287.892C522.054 286.809 521.765 285.54 521.765 284.084C521.765 282.684 522.054 281.443 522.633 280.36C523.23 279.277 524.07 278.428 525.153 277.812C526.254 277.196 527.542 276.888 529.017 276.888C530.38 276.888 531.574 277.14 532.601 277.644C533.646 278.148 534.468 278.885 535.065 279.856C535.662 280.808 535.961 281.975 535.961 283.356C535.961 283.599 535.942 283.832 535.905 284.056C535.886 284.261 535.858 284.457 535.821 284.644H522.997V283.412H534.617L534.029 284.14C534.048 283.953 534.057 283.767 534.057 283.58C534.076 283.393 534.085 283.197 534.085 282.992C534.085 281.536 533.646 280.435 532.769 279.688C531.892 278.923 530.632 278.54 528.989 278.54C527.104 278.54 525.741 279.016 524.901 279.968C524.061 280.901 523.641 282.189 523.641 283.832V284.28C523.641 285.941 524.061 287.248 524.901 288.2C525.741 289.152 527.113 289.628 529.017 289.628C530.641 289.628 531.836 289.348 532.601 288.788C533.385 288.209 533.777 287.416 533.777 286.408V286.212H535.765V286.408C535.765 287.379 535.476 288.228 534.897 288.956C534.318 289.684 533.516 290.253 532.489 290.664C531.481 291.075 530.333 291.28 529.045 291.28ZM544.562 291.28C543.087 291.28 541.837 290.972 540.81 290.356C539.783 289.74 538.999 288.891 538.458 287.808C537.935 286.725 537.674 285.484 537.674 284.084C537.674 282.684 537.935 281.443 538.458 280.36C538.999 279.277 539.765 278.428 540.754 277.812C541.762 277.196 542.975 276.888 544.394 276.888C546.037 276.888 547.362 277.28 548.37 278.064C549.378 278.848 550.031 279.837 550.33 281.032H551.002V284.056H550.47C550.47 282.357 549.985 281.051 549.014 280.136C548.043 279.203 546.709 278.736 545.01 278.736C543.965 278.736 543.041 278.904 542.238 279.24C541.435 279.576 540.81 280.136 540.362 280.92C539.914 281.685 539.69 282.74 539.69 284.084C539.69 285.428 539.905 286.492 540.334 287.276C540.782 288.041 541.407 288.601 542.21 288.956C543.031 289.292 543.983 289.46 545.066 289.46C546.149 289.46 547.091 289.264 547.894 288.872C548.697 288.461 549.322 287.873 549.77 287.108C550.237 286.324 550.47 285.391 550.47 284.308H551.002L551.086 286.912H550.526C550.19 288.293 549.49 289.367 548.426 290.132C547.381 290.897 546.093 291.28 544.562 291.28ZM552.458 291H550.638V286.464L550.47 286.1V272.24H552.458V291ZM567.014 291.28C564.904 291.28 563.252 290.869 562.058 290.048C560.882 289.208 560.294 287.985 560.294 286.38V286.324H562.282V286.492C562.282 287.649 562.646 288.461 563.374 288.928C564.12 289.395 565.343 289.628 567.042 289.628C568.591 289.628 569.674 289.441 570.29 289.068C570.906 288.676 571.214 288.088 571.214 287.304C571.214 286.576 570.971 286.063 570.486 285.764C570.019 285.447 569.207 285.195 568.05 285.008L564.354 284.476C563.084 284.308 562.076 283.953 561.33 283.412C560.602 282.871 560.238 282.021 560.238 280.864C560.238 280.043 560.48 279.343 560.966 278.764C561.47 278.167 562.179 277.709 563.094 277.392C564.008 277.056 565.1 276.888 566.37 276.888C567.695 276.888 568.843 277.075 569.814 277.448C570.803 277.803 571.568 278.344 572.11 279.072C572.651 279.8 572.922 280.715 572.922 281.816V281.872H570.934V281.732C570.934 281.023 570.794 280.435 570.514 279.968C570.234 279.501 569.758 279.147 569.086 278.904C568.414 278.661 567.49 278.54 566.314 278.54C564.858 278.54 563.803 278.727 563.15 279.1C562.515 279.473 562.198 280.071 562.198 280.892C562.198 281.601 562.412 282.115 562.842 282.432C563.29 282.731 564.083 282.973 565.222 283.16L568.61 283.636C570.084 283.841 571.214 284.224 571.998 284.784C572.782 285.344 573.174 286.184 573.174 287.304C573.174 288.163 572.903 288.891 572.362 289.488C571.839 290.085 571.111 290.533 570.178 290.832C569.263 291.131 568.208 291.28 567.014 291.28ZM582.561 291.28C581.068 291.28 579.752 290.972 578.613 290.356C577.493 289.74 576.616 288.891 575.981 287.808C575.365 286.725 575.057 285.484 575.057 284.084C575.057 282.684 575.365 281.443 575.981 280.36C576.616 279.277 577.493 278.428 578.613 277.812C579.752 277.196 581.068 276.888 582.561 276.888C584.092 276.888 585.417 277.196 586.537 277.812C587.657 278.428 588.525 279.277 589.141 280.36C589.776 281.443 590.093 282.684 590.093 284.084C590.093 285.484 589.776 286.725 589.141 287.808C588.525 288.891 587.657 289.74 586.537 290.356C585.417 290.972 584.092 291.28 582.561 291.28ZM582.561 289.488C584.484 289.488 585.893 289.012 586.789 288.06C587.685 287.089 588.133 285.764 588.133 284.084C588.133 282.404 587.685 281.088 586.789 280.136C585.893 279.165 584.484 278.68 582.561 278.68C580.676 278.68 579.276 279.165 578.361 280.136C577.465 281.088 577.017 282.404 577.017 284.084C577.017 285.764 577.465 287.089 578.361 288.06C579.276 289.012 580.676 289.488 582.561 289.488ZM616.483 291H614.495V283.216C614.495 281.685 614.159 280.556 613.487 279.828C612.815 279.081 611.741 278.708 610.267 278.708C608.605 278.708 607.411 279.184 606.683 280.136C605.955 281.069 605.591 282.46 605.591 284.308H605.059L605.003 281.48H605.479C605.628 280.677 605.908 279.931 606.319 279.24C606.748 278.549 607.345 277.989 608.111 277.56C608.895 277.112 609.856 276.888 610.995 276.888C612.208 276.888 613.216 277.149 614.019 277.672C614.84 278.195 615.456 278.913 615.867 279.828C616.277 280.724 616.483 281.76 616.483 282.936V291ZM594.727 291H592.739V277.168H594.531V281.564L594.727 281.704V291ZM605.591 291H603.603V283.216C603.603 281.685 603.267 280.556 602.595 279.828C601.923 279.081 600.859 278.708 599.403 278.708C597.723 278.708 596.519 279.184 595.791 280.136C595.081 281.069 594.727 282.46 594.727 284.308H594.195L594.167 281.34H594.643C594.773 280.556 595.044 279.828 595.455 279.156C595.865 278.484 596.453 277.943 597.219 277.532C597.984 277.103 598.936 276.888 600.075 276.888C601.288 276.888 602.287 277.159 603.071 277.7C603.873 278.223 604.471 278.941 604.863 279.856C605.255 280.752 605.451 281.779 605.451 282.936H605.591V291ZM626.307 291.28C624.832 291.28 623.544 290.991 622.443 290.412C621.342 289.815 620.492 288.975 619.895 287.892C619.316 286.809 619.027 285.54 619.027 284.084C619.027 282.684 619.316 281.443 619.895 280.36C620.492 279.277 621.332 278.428 622.415 277.812C623.516 277.196 624.804 276.888 626.279 276.888C627.642 276.888 628.836 277.14 629.863 277.644C630.908 278.148 631.73 278.885 632.327 279.856C632.924 280.808 633.223 281.975 633.223 283.356C633.223 283.599 633.204 283.832 633.167 284.056C633.148 284.261 633.12 284.457 633.083 284.644H620.259V283.412H631.879L631.291 284.14C631.31 283.953 631.319 283.767 631.319 283.58C631.338 283.393 631.347 283.197 631.347 282.992C631.347 281.536 630.908 280.435 630.031 279.688C629.154 278.923 627.894 278.54 626.251 278.54C624.366 278.54 623.003 279.016 622.163 279.968C621.323 280.901 620.903 282.189 620.903 283.832V284.28C620.903 285.941 621.323 287.248 622.163 288.2C623.003 289.152 624.375 289.628 626.279 289.628C627.903 289.628 629.098 289.348 629.863 288.788C630.647 288.209 631.039 287.416 631.039 286.408V286.212H633.027V286.408C633.027 287.379 632.738 288.228 632.159 288.956C631.58 289.684 630.778 290.253 629.751 290.664C628.743 291.075 627.595 291.28 626.307 291.28ZM648.868 291.28C647.319 291.28 646.022 290.897 644.976 290.132C643.95 289.367 643.268 288.293 642.932 286.912H642.344L642.456 284.308H642.988C642.988 285.391 643.203 286.324 643.632 287.108C644.08 287.873 644.706 288.461 645.508 288.872C646.311 289.264 647.263 289.46 648.364 289.46C649.484 289.46 650.446 289.292 651.248 288.956C652.051 288.601 652.667 288.041 653.096 287.276C653.526 286.492 653.74 285.428 653.74 284.084C653.74 282.74 653.516 281.685 653.068 280.92C652.639 280.136 652.023 279.576 651.22 279.24C650.436 278.904 649.512 278.736 648.448 278.736C646.694 278.736 645.34 279.203 644.388 280.136C643.455 281.051 642.988 282.357 642.988 284.056H642.456V281.032H643.1C643.418 279.837 644.071 278.848 645.06 278.064C646.05 277.28 647.375 276.888 649.036 276.888C650.492 276.888 651.715 277.196 652.704 277.812C653.694 278.428 654.45 279.277 654.972 280.36C655.495 281.443 655.756 282.684 655.756 284.084C655.756 285.484 655.495 286.725 654.972 287.808C654.45 288.891 653.675 289.74 652.648 290.356C651.64 290.972 650.38 291.28 648.868 291.28ZM642.792 291H641V272.24H642.988V286.1L642.792 286.464V291ZM670.436 291H668.644V287.22L668.504 287.108V282.432C668.504 281.088 668.186 280.127 667.552 279.548C666.917 278.969 665.834 278.68 664.304 278.68C662.829 278.68 661.7 278.96 660.916 279.52C660.15 280.061 659.768 280.948 659.768 282.18V282.292H657.78V282.18C657.78 281.191 658.041 280.304 658.564 279.52C659.086 278.717 659.842 278.083 660.832 277.616C661.821 277.131 663.025 276.888 664.444 276.888C665.844 276.888 666.982 277.131 667.86 277.616C668.756 278.101 669.409 278.755 669.82 279.576C670.23 280.397 670.436 281.321 670.436 282.348V291ZM662.036 291.28C660.673 291.28 659.572 290.972 658.732 290.356C657.892 289.721 657.472 288.853 657.472 287.752C657.472 286.987 657.658 286.371 658.032 285.904C658.424 285.419 658.956 285.045 659.628 284.784C660.3 284.523 661.065 284.336 661.924 284.224L668.784 283.468V284.784L662.54 285.484C661.494 285.577 660.72 285.773 660.216 286.072C659.712 286.371 659.46 286.884 659.46 287.612C659.46 288.303 659.702 288.835 660.188 289.208C660.673 289.563 661.438 289.74 662.484 289.74C663.622 289.74 664.64 289.572 665.536 289.236C666.432 288.881 667.15 288.349 667.692 287.64C668.233 286.931 668.504 286.025 668.504 284.924L668.896 285.064V287.276H668.504C668.093 288.545 667.318 289.535 666.18 290.244C665.041 290.935 663.66 291.28 662.036 291.28ZM679.779 291.28C677.67 291.28 676.018 290.869 674.823 290.048C673.647 289.208 673.059 287.985 673.059 286.38V286.324H675.047V286.492C675.047 287.649 675.411 288.461 676.139 288.928C676.886 289.395 678.109 289.628 679.807 289.628C681.357 289.628 682.439 289.441 683.055 289.068C683.671 288.676 683.979 288.088 683.979 287.304C683.979 286.576 683.737 286.063 683.251 285.764C682.785 285.447 681.973 285.195 680.815 285.008L677.119 284.476C675.85 284.308 674.842 283.953 674.095 283.412C673.367 282.871 673.003 282.021 673.003 280.864C673.003 280.043 673.246 279.343 673.731 278.764C674.235 278.167 674.945 277.709 675.859 277.392C676.774 277.056 677.866 276.888 679.135 276.888C680.461 276.888 681.609 277.075 682.579 277.448C683.569 277.803 684.334 278.344 684.875 279.072C685.417 279.8 685.687 280.715 685.687 281.816V281.872H683.699V281.732C683.699 281.023 683.559 280.435 683.279 279.968C682.999 279.501 682.523 279.147 681.851 278.904C681.179 278.661 680.255 278.54 679.079 278.54C677.623 278.54 676.569 278.727 675.915 279.1C675.281 279.473 674.963 280.071 674.963 280.892C674.963 281.601 675.178 282.115 675.607 282.432C676.055 282.731 676.849 282.973 677.987 283.16L681.375 283.636C682.85 283.841 683.979 284.224 684.763 284.784C685.547 285.344 685.939 286.184 685.939 287.304C685.939 288.163 685.669 288.891 685.127 289.488C684.605 290.085 683.877 290.533 682.943 290.832C682.029 291.131 680.974 291.28 679.779 291.28ZM690.539 291H688.551V277.168H690.539V291ZM690.539 275.404H688.551V272.24H690.539V275.404ZM700.491 291.28C699.016 291.28 697.728 290.972 696.627 290.356C695.526 289.74 694.676 288.891 694.079 287.808C693.482 286.725 693.183 285.484 693.183 284.084C693.183 282.684 693.482 281.443 694.079 280.36C694.676 279.277 695.526 278.428 696.627 277.812C697.728 277.196 699.016 276.888 700.491 276.888C701.779 276.888 702.936 277.131 703.963 277.616C705.008 278.083 705.839 278.736 706.455 279.576C707.071 280.416 707.379 281.396 707.379 282.516V282.74H705.419V282.572C705.419 281.34 704.98 280.388 704.103 279.716C703.244 279.044 702.031 278.708 700.463 278.708C698.615 278.708 697.271 279.184 696.431 280.136C695.591 281.069 695.171 282.385 695.171 284.084C695.171 285.783 695.591 287.108 696.431 288.06C697.271 288.993 698.615 289.46 700.463 289.46C702.031 289.46 703.244 289.133 704.103 288.48C704.98 287.808 705.419 286.847 705.419 285.596V285.428H707.379V285.652C707.379 286.753 707.071 287.733 706.455 288.592C705.839 289.432 705.008 290.095 703.963 290.58C702.936 291.047 701.779 291.28 700.491 291.28ZM717.172 291H715.184V277.168H717.172V291ZM717.172 275.404H715.184V272.24H717.172V275.404ZM734.152 291H732.164V283.216C732.164 281.779 731.8 280.668 731.072 279.884C730.363 279.1 729.215 278.708 727.628 278.708C725.929 278.708 724.651 279.193 723.792 280.164C722.933 281.135 722.504 282.516 722.504 284.308H721.972L721.944 281.508H722.448C722.616 280.724 722.943 279.977 723.428 279.268C723.913 278.559 724.557 277.989 725.36 277.56C726.181 277.112 727.171 276.888 728.328 276.888C729.635 276.888 730.717 277.168 731.576 277.728C732.435 278.269 733.079 278.997 733.508 279.912C733.937 280.827 734.152 281.835 734.152 282.936V291ZM722.504 291H720.516V277.168H722.308V281.564L722.504 281.704V291ZM740.355 291H738.367V277.784C738.367 276.552 738.6 275.525 739.067 274.704C739.552 273.883 740.243 273.267 741.139 272.856C742.054 272.445 743.146 272.24 744.415 272.24H745.927V273.808H744.135C742.828 273.808 741.848 274.069 741.195 274.592C740.542 275.115 740.262 276.057 740.355 277.42V277.84V291ZM745.927 278.876H736.155V277.168H745.927V278.876ZM754.663 291.28C753.17 291.28 751.854 290.972 750.715 290.356C749.595 289.74 748.718 288.891 748.083 287.808C747.467 286.725 747.159 285.484 747.159 284.084C747.159 282.684 747.467 281.443 748.083 280.36C748.718 279.277 749.595 278.428 750.715 277.812C751.854 277.196 753.17 276.888 754.663 276.888C756.194 276.888 757.519 277.196 758.639 277.812C759.759 278.428 760.627 279.277 761.243 280.36C761.878 281.443 762.195 282.684 762.195 284.084C762.195 285.484 761.878 286.725 761.243 287.808C760.627 288.891 759.759 289.74 758.639 290.356C757.519 290.972 756.194 291.28 754.663 291.28ZM754.663 289.488C756.586 289.488 757.995 289.012 758.891 288.06C759.787 287.089 760.235 285.764 760.235 284.084C760.235 282.404 759.787 281.088 758.891 280.136C757.995 279.165 756.586 278.68 754.663 278.68C752.778 278.68 751.378 279.165 750.463 280.136C749.567 281.088 749.119 282.404 749.119 284.084C749.119 285.764 749.567 287.089 750.463 288.06C751.378 289.012 752.778 289.488 754.663 289.488ZM766.828 291H764.84V277.168H766.632V281.06L766.828 281.2V291ZM766.828 283.496H766.268V280.948H766.772C766.903 280.201 767.164 279.52 767.556 278.904C767.967 278.288 768.508 277.803 769.18 277.448C769.852 277.075 770.673 276.888 771.644 276.888C772.708 276.888 773.576 277.121 774.248 277.588C774.939 278.055 775.443 278.661 775.76 279.408C776.077 280.155 776.236 280.957 776.236 281.816V283.188H774.248V282.124C774.248 280.948 773.987 280.071 773.464 279.492C772.941 278.913 772.073 278.624 770.86 278.624C769.46 278.624 768.433 279.044 767.78 279.884C767.145 280.724 766.828 281.928 766.828 283.496ZM802.283 291H800.295V283.216C800.295 281.685 799.959 280.556 799.287 279.828C798.615 279.081 797.542 278.708 796.067 278.708C794.406 278.708 793.211 279.184 792.483 280.136C791.755 281.069 791.391 282.46 791.391 284.308H790.859L790.803 281.48H791.279C791.429 280.677 791.709 279.931 792.119 279.24C792.549 278.549 793.146 277.989 793.911 277.56C794.695 277.112 795.657 276.888 796.795 276.888C798.009 276.888 799.017 277.149 799.819 277.672C800.641 278.195 801.257 278.913 801.667 279.828C802.078 280.724 802.283 281.76 802.283 282.936V291ZM780.527 291H778.539V277.168H780.331V281.564L780.527 281.704V291ZM791.391 291H789.403V283.216C789.403 281.685 789.067 280.556 788.395 279.828C787.723 279.081 786.659 278.708 785.203 278.708C783.523 278.708 782.319 279.184 781.591 280.136C780.882 281.069 780.527 282.46 780.527 284.308H779.995L779.967 281.34H780.443C780.574 280.556 780.845 279.828 781.255 279.156C781.666 278.484 782.254 277.943 783.019 277.532C783.785 277.103 784.737 276.888 785.875 276.888C787.089 276.888 788.087 277.159 788.871 277.7C789.674 278.223 790.271 278.941 790.663 279.856C791.055 280.752 791.251 281.779 791.251 282.936H791.391V291ZM817.764 291H815.972V287.22L815.832 287.108V282.432C815.832 281.088 815.514 280.127 814.88 279.548C814.245 278.969 813.162 278.68 811.632 278.68C810.157 278.68 809.028 278.96 808.244 279.52C807.478 280.061 807.096 280.948 807.096 282.18V282.292H805.108V282.18C805.108 281.191 805.369 280.304 805.892 279.52C806.414 278.717 807.17 278.083 808.16 277.616C809.149 277.131 810.353 276.888 811.772 276.888C813.172 276.888 814.31 277.131 815.188 277.616C816.084 278.101 816.737 278.755 817.148 279.576C817.558 280.397 817.764 281.321 817.764 282.348V291ZM809.364 291.28C808.001 291.28 806.9 290.972 806.06 290.356C805.22 289.721 804.8 288.853 804.8 287.752C804.8 286.987 804.986 286.371 805.36 285.904C805.752 285.419 806.284 285.045 806.956 284.784C807.628 284.523 808.393 284.336 809.252 284.224L816.112 283.468V284.784L809.868 285.484C808.822 285.577 808.048 285.773 807.544 286.072C807.04 286.371 806.788 286.884 806.788 287.612C806.788 288.303 807.03 288.835 807.516 289.208C808.001 289.563 808.766 289.74 809.812 289.74C810.95 289.74 811.968 289.572 812.864 289.236C813.76 288.881 814.478 288.349 815.02 287.64C815.561 286.931 815.832 286.025 815.832 284.924L816.224 285.064V287.276H815.832C815.421 288.545 814.646 289.535 813.508 290.244C812.369 290.935 810.988 291.28 809.364 291.28ZM829.516 291H826.52C825.138 291 824.037 290.673 823.216 290.02C822.413 289.367 822.012 288.228 822.012 286.604V273.864H824.028V286.716C824.028 287.687 824.27 288.34 824.756 288.676C825.241 289.012 825.988 289.18 826.996 289.18H829.516V291ZM829.516 278.876H819.548V277.168H829.516V278.876ZM833.684 291H831.696V277.168H833.684V291ZM833.684 275.404H831.696V272.24H833.684V275.404ZM843.804 291.28C842.31 291.28 840.994 290.972 839.856 290.356C838.736 289.74 837.858 288.891 837.224 287.808C836.608 286.725 836.3 285.484 836.3 284.084C836.3 282.684 836.608 281.443 837.224 280.36C837.858 279.277 838.736 278.428 839.856 277.812C840.994 277.196 842.31 276.888 843.804 276.888C845.334 276.888 846.66 277.196 847.78 277.812C848.9 278.428 849.768 279.277 850.384 280.36C851.018 281.443 851.336 282.684 851.336 284.084C851.336 285.484 851.018 286.725 850.384 287.808C849.768 288.891 848.9 289.74 847.78 290.356C846.66 290.972 845.334 291.28 843.804 291.28ZM843.804 289.488C845.726 289.488 847.136 289.012 848.032 288.06C848.928 287.089 849.376 285.764 849.376 284.084C849.376 282.404 848.928 281.088 848.032 280.136C847.136 279.165 845.726 278.68 843.804 278.68C841.918 278.68 840.518 279.165 839.604 280.136C838.708 281.088 838.26 282.404 838.26 284.084C838.26 285.764 838.708 287.089 839.604 288.06C840.518 289.012 841.918 289.488 843.804 289.488ZM867.617 291H865.629V283.216C865.629 281.779 865.265 280.668 864.537 279.884C863.827 279.1 862.679 278.708 861.093 278.708C859.394 278.708 858.115 279.193 857.257 280.164C856.398 281.135 855.969 282.516 855.969 284.308H855.437L855.409 281.508H855.913C856.081 280.724 856.407 279.977 856.893 279.268C857.378 278.559 858.022 277.989 858.825 277.56C859.646 277.112 860.635 276.888 861.793 276.888C863.099 276.888 864.182 277.168 865.041 277.728C865.899 278.269 866.543 278.997 866.973 279.912C867.402 280.827 867.617 281.835 867.617 282.936V291ZM855.969 291H853.981V277.168H855.773V281.564L855.969 281.704V291ZM872.476 291H870.012V287.108H872.476V291ZM876.632 291H874.168V287.108H876.632V291ZM880.788 291H878.324V287.108H880.788V291Z" fill="black"/>
</svg>
