<svg width="1518" height="383" viewBox="0 0 1518 383" fill="none" xmlns="http://www.w3.org/2000/svg">
<g clip-path="url(#clip0_954_268)">
<path d="M145.44 207H128.32V99.8H145.44V207ZM65.28 207H48V99.8H65.28V207ZM136.8 160.76H53.6V145.24H136.8V160.76ZM236.794 207H220.954V186.52L219.834 186.04V158.84C219.834 152.227 218.234 147.64 215.034 145.08C211.94 142.413 206.554 141.08 198.874 141.08C191.514 141.08 186.02 142.36 182.394 144.92C178.767 147.48 176.954 151.693 176.954 157.56V158.2H159.834V157.56C159.834 151.48 161.434 146.093 164.634 141.4C167.834 136.6 172.42 132.813 178.394 130.04C184.474 127.267 191.727 125.88 200.154 125.88C208.58 125.88 215.46 127.32 220.794 130.2C226.234 132.973 230.234 136.813 232.794 141.72C235.46 146.627 236.794 152.28 236.794 158.68V207ZM184.954 208.6C176.74 208.6 170.18 206.787 165.274 203.16C160.474 199.427 158.074 194.307 158.074 187.8C158.074 183.64 159.087 180.173 161.114 177.4C163.247 174.52 166.234 172.28 170.074 170.68C173.914 169.08 178.447 167.96 183.674 167.32L221.434 163.32V173.56L188.634 177.24C184.154 177.773 180.794 178.733 178.554 180.12C176.42 181.4 175.354 183.587 175.354 186.68C175.354 189.88 176.474 192.28 178.714 193.88C181.06 195.373 184.687 196.12 189.594 196.12C195.674 196.12 200.954 195.373 205.434 193.88C209.914 192.28 213.434 189.827 215.994 186.52C218.554 183.213 219.834 178.947 219.834 173.72L222.074 174.04V187.16H219.834C217.7 193.88 213.594 199.16 207.514 203C201.54 206.733 194.02 208.6 184.954 208.6ZM392.859 207H375.739V163.8C375.739 155.907 374.085 150.2 370.779 146.68C367.472 143.16 361.925 141.4 354.139 141.4C345.712 141.4 339.739 143.587 336.219 147.96C332.805 152.227 331.099 158.787 331.099 167.64L328.059 167.8L327.099 152.12H330.619C331.365 147.533 332.912 143.267 335.259 139.32C337.605 135.373 340.965 132.173 345.339 129.72C349.712 127.16 355.205 125.88 361.819 125.88C368.752 125.88 374.512 127.32 379.099 130.2C383.685 133.08 387.099 137.027 389.339 142.04C391.685 147.053 392.859 152.76 392.859 159.16V207ZM269.499 207H252.219V127.48H268.059V152.44L269.499 153.24V207ZM331.099 207H313.979V163.8C313.979 155.907 312.325 150.2 309.019 146.68C305.712 143.16 300.219 141.4 292.539 141.4C284.005 141.4 278.032 143.587 274.619 147.96C271.205 152.227 269.499 158.787 269.499 167.64L266.459 167.8L265.659 151.48H269.019C269.765 147 271.259 142.84 273.499 139C275.739 135.16 278.992 132.013 283.259 129.56C287.525 127.107 292.965 125.88 299.579 125.88C306.512 125.88 312.219 127.373 316.699 130.36C321.179 133.24 324.539 137.187 326.779 142.2C329.019 147.213 330.139 152.867 330.139 159.16H331.099V207ZM458.393 208.6C449.326 208.6 441.966 206.52 436.313 202.36C430.659 198.093 426.979 192.013 425.273 184.12H421.432L422.553 168.12H425.593C425.593 173.56 426.659 178.147 428.793 181.88C431.033 185.613 434.179 188.387 438.233 190.2C442.393 191.907 447.299 192.76 452.953 192.76C458.819 192.76 463.726 191.96 467.673 190.36C471.726 188.76 474.766 186.093 476.793 182.36C478.926 178.627 479.993 173.613 479.993 167.32C479.993 160.92 478.926 155.853 476.793 152.12C474.659 148.387 471.619 145.72 467.673 144.12C463.726 142.413 458.926 141.56 453.273 141.56C444.313 141.56 437.433 143.693 432.633 147.96C427.939 152.12 425.593 158.413 425.593 166.84H422.553V149.08H426.553C428.153 142.36 431.619 136.813 436.953 132.44C442.393 128.067 449.859 125.88 459.353 125.88C467.566 125.88 474.446 127.64 479.993 131.16C485.646 134.573 489.913 139.373 492.793 145.56C495.779 151.747 497.273 159 497.273 167.32C497.273 175.427 495.779 182.627 492.793 188.92C489.913 195.107 485.539 199.96 479.673 203.48C473.913 206.893 466.819 208.6 458.393 208.6ZM424.153 207H408.313V99.8H425.593V179.96L424.153 182.04V207ZM542.37 208.6C534.903 208.6 528.717 207.107 523.81 204.12C518.903 201.133 515.223 197.133 512.77 192.12C510.317 187.107 509.09 181.507 509.09 175.32V127.48H526.21V170.68C526.21 178.04 528.023 183.64 531.65 187.48C535.383 191.213 541.463 193.08 549.89 193.08C558.743 193.08 565.197 190.893 569.25 186.52C573.41 182.04 575.49 175.48 575.49 166.84L578.53 166.68L579.49 182.36H575.81C575.063 186.84 573.357 191.053 570.69 195C568.023 198.947 564.343 202.2 559.65 204.76C555.063 207.32 549.303 208.6 542.37 208.6ZM592.77 207H576.93V182.04L575.49 181.24V127.48H592.77V207ZM625.749 207H608.469V127.48H624.309V150.04L625.749 150.84V207ZM625.749 162.36H621.909V148.92H625.429C626.175 144.547 627.669 140.653 629.909 137.24C632.149 133.72 635.135 130.947 638.869 128.92C642.709 126.893 647.349 125.88 652.789 125.88C658.869 125.88 663.829 127.16 667.669 129.72C671.509 132.28 674.282 135.693 675.989 139.96C677.802 144.227 678.709 148.867 678.709 153.88V164.28H661.589V157.24C661.589 151.48 660.309 147.267 657.749 144.6C655.189 141.933 650.922 140.6 644.949 140.6C638.122 140.6 633.215 142.467 630.229 146.2C627.242 149.933 625.749 155.32 625.749 162.36ZM731.323 235.8C723.429 235.8 716.496 234.573 710.523 232.12C704.549 229.773 699.856 226.36 696.443 221.88C693.136 217.4 691.483 211.96 691.483 205.56H708.603C708.603 209.4 709.403 212.493 711.003 214.84C712.603 217.187 715.109 218.84 718.523 219.8C722.043 220.867 726.629 221.4 732.283 221.4C738.363 221.4 743.163 220.707 746.683 219.32C750.309 218.04 752.923 215.747 754.523 212.44C756.123 209.133 756.923 204.547 756.923 198.68V152.12L758.203 151V127.48H774.043V197.72C774.043 206.573 772.283 213.773 768.763 219.32C765.243 224.973 760.283 229.133 753.883 231.8C747.483 234.467 739.963 235.8 731.323 235.8ZM724.123 199.8C716.229 199.8 709.456 198.253 703.803 195.16C698.256 192.067 693.936 187.747 690.843 182.2C687.856 176.653 686.363 170.2 686.363 162.84C686.363 155.48 687.909 149.027 691.003 143.48C694.203 137.933 698.683 133.613 704.443 130.52C710.309 127.427 717.243 125.88 725.243 125.88C733.563 125.88 740.603 127.747 746.363 131.48C752.229 135.107 755.856 140.387 757.243 147.32H760.923L759.963 161.24H756.923C756.923 156.76 755.856 153.027 753.723 150.04C751.589 146.947 748.549 144.653 744.603 143.16C740.656 141.667 735.856 140.92 730.203 140.92C724.763 140.92 720.016 141.613 715.963 143C712.016 144.387 708.976 146.68 706.843 149.88C704.816 152.973 703.803 157.293 703.803 162.84C703.803 168.28 704.816 172.6 706.843 175.8C708.869 179 711.803 181.347 715.643 182.84C719.589 184.227 724.283 184.92 729.723 184.92C738.469 184.92 745.189 183.107 749.883 179.48C754.576 175.853 756.923 170.52 756.923 163.48H759.963V179.16H755.803C754.416 185.24 751.056 190.2 745.723 194.04C740.389 197.88 733.189 199.8 724.123 199.8ZM830.031 208.6C821.391 208.6 813.818 207 807.311 203.8C800.805 200.6 795.738 195.907 792.111 189.72C788.591 183.533 786.831 176.067 786.831 167.32C786.831 159 788.591 151.747 792.111 145.56C795.738 139.373 800.751 134.573 807.151 131.16C813.551 127.64 821.071 125.88 829.711 125.88C837.925 125.88 845.125 127.373 851.311 130.36C857.605 133.24 862.458 137.507 865.871 143.16C869.391 148.707 871.151 155.533 871.151 163.64C871.151 165.027 871.098 166.36 870.991 167.64C870.885 168.813 870.725 169.987 870.511 171.16H797.871V161.56H859.151L854.671 167.48C854.778 166.413 854.831 165.4 854.831 164.44C854.831 163.373 854.831 162.307 854.831 161.24C854.831 153.88 852.698 148.44 848.431 144.92C844.271 141.293 837.925 139.48 829.391 139.48C819.898 139.48 813.125 141.667 809.071 146.04C805.018 150.413 802.991 156.707 802.991 164.92V169.08C802.991 177.4 805.018 183.747 809.071 188.12C813.125 192.493 819.951 194.68 829.551 194.68C837.871 194.68 843.845 193.4 847.471 190.84C851.205 188.173 853.071 184.493 853.071 179.8V178.52H870.351V179.96C870.351 185.613 868.591 190.627 865.071 195C861.658 199.267 856.911 202.627 850.831 205.08C844.858 207.427 837.925 208.6 830.031 208.6ZM907.454 207H890.174V131.8C890.174 125.08 891.614 119.373 894.494 114.68C897.48 109.88 901.8 106.2 907.454 103.64C913.107 101.08 919.987 99.8 928.094 99.8H935.934V112.6H925.374C918.547 112.6 913.587 113.88 910.494 116.44C907.4 118.893 906.387 123.587 907.454 130.52V133.72V207ZM935.934 141.88H878.174V127.48H935.934V141.88ZM986.14 208.6C977.393 208.6 969.66 206.893 962.94 203.48C956.327 199.96 951.153 195.107 947.42 188.92C943.793 182.627 941.98 175.427 941.98 167.32C941.98 159 943.793 151.747 947.42 145.56C951.153 139.373 956.327 134.573 962.94 131.16C969.66 127.64 977.393 125.88 986.14 125.88C995.1 125.88 1002.89 127.64 1009.5 131.16C1016.11 134.573 1021.23 139.373 1024.86 145.56C1028.59 151.747 1030.46 159 1030.46 167.32C1030.46 175.427 1028.59 182.627 1024.86 188.92C1021.23 195.107 1016.11 199.96 1009.5 203.48C1002.89 206.893 995.1 208.6 986.14 208.6ZM986.14 193.24C995.847 193.24 1002.83 191.053 1007.1 186.68C1011.37 182.2 1013.5 175.747 1013.5 167.32C1013.5 158.893 1011.37 152.44 1007.1 147.96C1002.83 143.373 995.847 141.08 986.14 141.08C976.54 141.08 969.607 143.373 965.34 147.96C961.073 152.44 958.94 158.893 958.94 167.32C958.94 175.747 961.073 182.2 965.34 186.68C969.607 191.053 976.54 193.24 986.14 193.24ZM1126.04 207H1108.76V163.8C1108.76 156.333 1106.95 150.733 1103.32 147C1099.8 143.267 1093.88 141.4 1085.56 141.4C1076.92 141.4 1070.52 143.64 1066.36 148.12C1062.31 152.493 1060.28 159 1060.28 167.64L1057.24 167.8L1056.44 152.12H1059.96C1060.81 147.64 1062.52 143.427 1065.08 139.48C1067.75 135.427 1071.37 132.173 1075.96 129.72C1080.65 127.16 1086.36 125.88 1093.08 125.88C1100.44 125.88 1106.57 127.373 1111.48 130.36C1116.39 133.347 1120.01 137.347 1122.36 142.36C1124.81 147.373 1126.04 152.973 1126.04 159.16V207ZM1060.28 207H1043V127.48H1058.84V152.44L1060.28 153.24V207ZM1179.04 208.6C1166.24 208.6 1156.32 206.147 1149.28 201.24C1142.34 196.333 1138.88 189.293 1138.88 180.12V179.64H1156.16V180.92C1156.16 186.147 1157.86 189.773 1161.28 191.8C1164.8 193.72 1170.72 194.68 1179.04 194.68C1186.82 194.68 1192.1 193.88 1194.88 192.28C1197.76 190.573 1199.2 187.96 1199.2 184.44C1199.2 181.133 1198.08 178.787 1195.84 177.4C1193.7 176.013 1189.76 174.947 1184 174.2L1162.24 171.32C1154.66 170.36 1148.74 168.227 1144.48 164.92C1140.21 161.507 1138.08 156.44 1138.08 149.72C1138.08 145.027 1139.46 140.92 1142.24 137.4C1145.01 133.773 1149.17 130.947 1154.72 128.92C1160.26 126.893 1167.09 125.88 1175.2 125.88C1183.3 125.88 1190.24 126.947 1196 129.08C1201.86 131.213 1206.34 134.413 1209.44 138.68C1212.64 142.947 1214.24 148.227 1214.24 154.52V155H1197.12V154.04C1197.12 150.947 1196.48 148.333 1195.2 146.2C1193.92 144.067 1191.62 142.467 1188.32 141.4C1185.12 140.227 1180.58 139.64 1174.72 139.64C1167.36 139.64 1162.24 140.493 1159.36 142.2C1156.48 143.907 1155.04 146.627 1155.04 150.36C1155.04 153.453 1156.1 155.693 1158.24 157.08C1160.37 158.467 1164.37 159.587 1170.24 160.44L1188.64 163C1198.02 164.173 1204.96 166.467 1209.44 169.88C1213.92 173.293 1216.16 178.307 1216.16 184.92C1216.16 189.827 1214.61 194.093 1211.52 197.72C1208.42 201.24 1204.1 203.96 1198.56 205.88C1193.01 207.693 1186.5 208.6 1179.04 208.6ZM1280.79 207H1262.55C1254.01 207 1247.24 204.92 1242.23 200.76C1237.32 196.6 1234.87 189.72 1234.87 180.12V110.04H1251.99V179.16C1251.99 184.067 1253.16 187.373 1255.51 189.08C1257.85 190.68 1261.48 191.48 1266.39 191.48H1280.79V207ZM1280.79 141.88H1221.43V127.48H1280.79V141.88ZM1308.87 207H1291.59V127.48H1308.87V207ZM1308.87 118.2H1291.59V99.8H1308.87V118.2ZM1375.92 207H1354.8L1317.68 127.48H1336.72L1365.04 190.2H1366.32L1394.64 127.48H1413.36L1375.92 207Z" fill="black"/>
<path d="M57.07 278.3C55.11 278.3 53.37 277.88 51.85 277.04C50.35 276.18 49.17 274.98 48.31 273.44C47.47 271.88 47.05 270.05 47.05 267.95C47.05 265.85 47.47 264.03 48.31 262.49C49.17 260.93 50.35 259.73 51.85 258.89C53.37 258.03 55.11 257.6 57.07 257.6C58.81 257.6 60.37 257.91 61.75 258.53C63.13 259.13 64.21 259.99 64.99 261.11C65.79 262.21 66.19 263.53 66.19 265.07V265.43H63.88V265.07C63.88 263.35 63.3 262.02 62.14 261.08C60.98 260.14 59.3 259.67 57.1 259.67C55.44 259.67 54.02 259.99 52.84 260.63C51.68 261.25 50.8 262.17 50.2 263.39C49.6 264.61 49.3 266.13 49.3 267.95C49.3 269.75 49.6 271.27 50.2 272.51C50.8 273.73 51.68 274.66 52.84 275.3C54.02 275.92 55.44 276.23 57.1 276.23C59.3 276.23 60.98 275.76 62.14 274.82C63.3 273.88 63.88 272.55 63.88 270.83V270.47H66.19V270.83C66.19 272.35 65.79 273.67 64.99 274.79C64.21 275.91 63.13 276.78 61.75 277.4C60.37 278 58.81 278.3 57.07 278.3ZM71.1702 278H69.0402V257.9H71.1702V278ZM87.8631 278H85.9431V273.95L85.7931 273.83V268.82C85.7931 267.38 85.4531 266.35 84.7731 265.73C84.0931 265.11 82.9331 264.8 81.2931 264.8C79.7131 264.8 78.5031 265.1 77.6631 265.7C76.8431 266.28 76.4331 267.23 76.4331 268.55V268.67H74.3031V268.55C74.3031 267.49 74.5831 266.54 75.1431 265.7C75.7031 264.84 76.5131 264.16 77.5731 263.66C78.6331 263.14 79.9231 262.88 81.4431 262.88C82.9431 262.88 84.1631 263.14 85.1031 263.66C86.0631 264.18 86.7631 264.88 87.2031 265.76C87.6431 266.64 87.8631 267.63 87.8631 268.73V278ZM78.8631 278.3C77.4031 278.3 76.2231 277.97 75.3231 277.31C74.4231 276.63 73.9731 275.7 73.9731 274.52C73.9731 273.7 74.1731 273.04 74.5731 272.54C74.9931 272.02 75.5631 271.62 76.2831 271.34C77.0031 271.06 77.8231 270.86 78.7431 270.74L86.0931 269.93V271.34L79.4031 272.09C78.2831 272.19 77.4531 272.4 76.9131 272.72C76.3731 273.04 76.1031 273.59 76.1031 274.37C76.1031 275.11 76.3631 275.68 76.8831 276.08C77.4031 276.46 78.2231 276.65 79.3431 276.65C80.5631 276.65 81.6531 276.47 82.6131 276.11C83.5731 275.73 84.3431 275.16 84.9231 274.4C85.5031 273.64 85.7931 272.67 85.7931 271.49L86.2131 271.64V274.01H85.7931C85.3531 275.37 84.5231 276.43 83.3031 277.19C82.0831 277.93 80.6031 278.3 78.8631 278.3ZM97.8745 278.3C95.6145 278.3 93.8445 277.86 92.5645 276.98C91.3045 276.08 90.6745 274.77 90.6745 273.05V272.99H92.8045V273.17C92.8045 274.41 93.1945 275.28 93.9745 275.78C94.7745 276.28 96.0845 276.53 97.9045 276.53C99.5645 276.53 100.724 276.33 101.384 275.93C102.044 275.51 102.374 274.88 102.374 274.04C102.374 273.26 102.114 272.71 101.594 272.39C101.094 272.05 100.224 271.78 98.9845 271.58L95.0245 271.01C93.6645 270.83 92.5845 270.45 91.7845 269.87C91.0045 269.29 90.6145 268.38 90.6145 267.14C90.6145 266.26 90.8745 265.51 91.3945 264.89C91.9345 264.25 92.6945 263.76 93.6745 263.42C94.6545 263.06 95.8245 262.88 97.1845 262.88C98.6045 262.88 99.8345 263.08 100.874 263.48C101.934 263.86 102.754 264.44 103.334 265.22C103.914 266 104.204 266.98 104.204 268.16V268.22H102.074V268.07C102.074 267.31 101.924 266.68 101.624 266.18C101.324 265.68 100.814 265.3 100.094 265.04C99.3745 264.78 98.3845 264.65 97.1245 264.65C95.5645 264.65 94.4345 264.85 93.7345 265.25C93.0545 265.65 92.7145 266.29 92.7145 267.17C92.7145 267.93 92.9445 268.48 93.4045 268.82C93.8845 269.14 94.7345 269.4 95.9545 269.6L99.5845 270.11C101.164 270.33 102.374 270.74 103.214 271.34C104.054 271.94 104.474 272.84 104.474 274.04C104.474 274.96 104.184 275.74 103.604 276.38C103.044 277.02 102.264 277.5 101.264 277.82C100.284 278.14 99.1545 278.3 97.8745 278.3ZM121.943 278H119.813V269.66C119.813 267.96 119.413 266.73 118.613 265.97C117.813 265.21 116.573 264.83 114.893 264.83C113.573 264.83 112.503 265.09 111.683 265.61C110.883 266.13 110.303 266.86 109.943 267.8C109.583 268.72 109.403 269.8 109.403 271.04L108.803 271.07L109.013 267.71H109.523C109.703 266.89 110.033 266.11 110.513 265.37C111.013 264.63 111.693 264.03 112.553 263.57C113.413 263.11 114.473 262.88 115.733 262.88C117.113 262.88 118.263 263.17 119.183 263.75C120.103 264.31 120.793 265.08 121.253 266.06C121.713 267.04 121.943 268.15 121.943 269.39V278ZM109.403 278H107.273V257.9H109.403V278ZM139.764 278H131.934V276.05H139.764C141.484 276.05 142.904 275.76 144.024 275.18C145.144 274.58 145.984 273.68 146.544 272.48C147.104 271.28 147.384 269.77 147.384 267.95C147.384 266.11 147.104 264.6 146.544 263.42C145.984 262.22 145.144 261.33 144.024 260.75C142.904 260.15 141.484 259.85 139.764 259.85H131.934V257.9H139.764C141.784 257.9 143.524 258.31 144.984 259.13C146.464 259.95 147.604 261.11 148.404 262.61C149.224 264.11 149.634 265.89 149.634 267.95C149.634 270.01 149.224 271.79 148.404 273.29C147.604 274.79 146.464 275.95 144.984 276.77C143.524 277.59 141.784 278 139.764 278ZM133.194 278H131.034V257.9H133.194V278ZM154.608 278H152.478V263.18H154.608V278ZM154.608 261.29H152.478V257.9H154.608V261.29ZM164.701 278.3C162.441 278.3 160.671 277.86 159.391 276.98C158.131 276.08 157.501 274.77 157.501 273.05V272.99H159.631V273.17C159.631 274.41 160.021 275.28 160.801 275.78C161.601 276.28 162.911 276.53 164.731 276.53C166.391 276.53 167.551 276.33 168.211 275.93C168.871 275.51 169.201 274.88 169.201 274.04C169.201 273.26 168.941 272.71 168.421 272.39C167.921 272.05 167.051 271.78 165.811 271.58L161.851 271.01C160.491 270.83 159.411 270.45 158.611 269.87C157.831 269.29 157.441 268.38 157.441 267.14C157.441 266.26 157.701 265.51 158.221 264.89C158.761 264.25 159.521 263.76 160.501 263.42C161.481 263.06 162.651 262.88 164.011 262.88C165.431 262.88 166.661 263.08 167.701 263.48C168.761 263.86 169.581 264.44 170.161 265.22C170.741 266 171.031 266.98 171.031 268.16V268.22H168.901V268.07C168.901 267.31 168.751 266.68 168.451 266.18C168.151 265.68 167.641 265.3 166.921 265.04C166.201 264.78 165.211 264.65 163.951 264.65C162.391 264.65 161.261 264.85 160.561 265.25C159.881 265.65 159.541 266.29 159.541 267.17C159.541 267.93 159.771 268.48 160.231 268.82C160.711 269.14 161.561 269.4 162.781 269.6L166.411 270.11C167.991 270.33 169.201 270.74 170.041 271.34C170.881 271.94 171.301 272.84 171.301 274.04C171.301 274.96 171.011 275.74 170.431 276.38C169.871 277.02 169.091 277.5 168.091 277.82C167.111 278.14 165.981 278.3 164.701 278.3ZM182.589 278.3C180.969 278.3 179.589 277.88 178.449 277.04C177.329 276.2 176.599 275.07 176.259 273.65H175.659V270.86H176.229C176.229 272.02 176.469 273.01 176.949 273.83C177.429 274.65 178.099 275.28 178.959 275.72C179.839 276.14 180.849 276.35 181.989 276.35C183.169 276.35 184.189 276.17 185.049 275.81C185.909 275.43 186.569 274.83 187.029 274.01C187.509 273.17 187.749 272.03 187.749 270.59C187.749 269.15 187.509 268.02 187.029 267.2C186.549 266.36 185.879 265.76 185.019 265.4C184.179 265.04 183.199 264.86 182.079 264.86C180.239 264.86 178.799 265.36 177.759 266.36C176.739 267.36 176.229 268.77 176.229 270.59H175.659L175.539 267.35H176.259C176.599 266.01 177.309 264.93 178.389 264.11C179.489 263.29 180.909 262.88 182.649 262.88C184.189 262.88 185.499 263.21 186.579 263.87C187.659 264.53 188.479 265.44 189.039 266.6C189.619 267.76 189.909 269.09 189.909 270.59C189.909 272.09 189.629 273.42 189.069 274.58C188.509 275.74 187.679 276.65 186.579 277.31C185.499 277.97 184.169 278.3 182.589 278.3ZM176.229 283.1H174.099V263.18H176.019V268.04L176.229 268.43V283.1ZM194.657 278H192.527V257.9H194.657V278ZM211.349 278H209.429V273.95L209.279 273.83V268.82C209.279 267.38 208.939 266.35 208.259 265.73C207.579 265.11 206.419 264.8 204.779 264.8C203.199 264.8 201.989 265.1 201.149 265.7C200.329 266.28 199.919 267.23 199.919 268.55V268.67H197.789V268.55C197.789 267.49 198.069 266.54 198.629 265.7C199.189 264.84 199.999 264.16 201.059 263.66C202.119 263.14 203.409 262.88 204.929 262.88C206.429 262.88 207.649 263.14 208.589 263.66C209.549 264.18 210.249 264.88 210.689 265.76C211.129 266.64 211.349 267.63 211.349 268.73V278ZM202.349 278.3C200.889 278.3 199.709 277.97 198.809 277.31C197.909 276.63 197.459 275.7 197.459 274.52C197.459 273.7 197.659 273.04 198.059 272.54C198.479 272.02 199.049 271.62 199.769 271.34C200.489 271.06 201.309 270.86 202.229 270.74L209.579 269.93V271.34L202.889 272.09C201.769 272.19 200.939 272.4 200.399 272.72C199.859 273.04 199.589 273.59 199.589 274.37C199.589 275.11 199.849 275.68 200.369 276.08C200.889 276.46 201.709 276.65 202.829 276.65C204.049 276.65 205.139 276.47 206.099 276.11C207.059 275.73 207.829 275.16 208.409 274.4C208.989 273.64 209.279 272.67 209.279 271.49L209.699 271.64V274.01H209.279C208.839 275.37 208.009 276.43 206.789 277.19C205.569 277.93 204.089 278.3 202.349 278.3ZM216.801 283.1H214.941V281.15H217.191C217.931 281.15 218.481 281.02 218.841 280.76C219.221 280.52 219.551 280.09 219.831 279.47L220.971 277.07L220.701 278.3L213.201 263.18H215.541L219.891 272L221.541 275.63H221.721L223.311 271.97L227.421 263.18H229.761L221.721 280.07C221.361 280.81 220.951 281.4 220.491 281.84C220.051 282.3 219.531 282.62 218.931 282.8C218.331 283 217.621 283.1 216.801 283.1ZM247.251 278H244.281L235.431 257.9H237.951L245.721 275.84H245.871L253.611 257.9H256.101L247.251 278ZM270.91 278H268.99V273.95L268.84 273.83V268.82C268.84 267.38 268.5 266.35 267.82 265.73C267.14 265.11 265.98 264.8 264.34 264.8C262.76 264.8 261.55 265.1 260.71 265.7C259.89 266.28 259.48 267.23 259.48 268.55V268.67H257.35V268.55C257.35 267.49 257.63 266.54 258.19 265.7C258.75 264.84 259.56 264.16 260.62 263.66C261.68 263.14 262.97 262.88 264.49 262.88C265.99 262.88 267.21 263.14 268.15 263.66C269.11 264.18 269.81 264.88 270.25 265.76C270.69 266.64 270.91 267.63 270.91 268.73V278ZM261.91 278.3C260.45 278.3 259.27 277.97 258.37 277.31C257.47 276.63 257.02 275.7 257.02 274.52C257.02 273.7 257.22 273.04 257.62 272.54C258.04 272.02 258.61 271.62 259.33 271.34C260.05 271.06 260.87 270.86 261.79 270.74L269.14 269.93V271.34L262.45 272.09C261.33 272.19 260.5 272.4 259.96 272.72C259.42 273.04 259.15 273.59 259.15 274.37C259.15 275.11 259.41 275.68 259.93 276.08C260.45 276.46 261.27 276.65 262.39 276.65C263.61 276.65 264.7 276.47 265.66 276.11C266.62 275.73 267.39 275.16 267.97 274.4C268.55 273.64 268.84 272.67 268.84 271.49L269.26 271.64V274.01H268.84C268.4 275.37 267.57 276.43 266.35 277.19C265.13 277.93 263.65 278.3 261.91 278.3ZM276.541 278H274.411V263.18H276.331V267.35L276.541 267.5V278ZM276.541 269.96H275.941V267.23H276.481C276.621 266.43 276.901 265.7 277.321 265.04C277.761 264.38 278.341 263.86 279.061 263.48C279.781 263.08 280.661 262.88 281.701 262.88C282.841 262.88 283.771 263.13 284.491 263.63C285.231 264.13 285.771 264.78 286.111 265.58C286.451 266.38 286.621 267.24 286.621 268.16V269.63H284.491V268.49C284.491 267.23 284.211 266.29 283.651 265.67C283.091 265.05 282.161 264.74 280.861 264.74C279.361 264.74 278.261 265.19 277.561 266.09C276.881 266.99 276.541 268.28 276.541 269.96ZM291.219 278H289.089V263.18H291.219V278ZM291.219 261.29H289.089V257.9H291.219V261.29ZM307.912 278H305.992V273.95L305.842 273.83V268.82C305.842 267.38 305.502 266.35 304.822 265.73C304.142 265.11 302.982 264.8 301.342 264.8C299.762 264.8 298.552 265.1 297.712 265.7C296.892 266.28 296.482 267.23 296.482 268.55V268.67H294.352V268.55C294.352 267.49 294.632 266.54 295.192 265.7C295.752 264.84 296.562 264.16 297.622 263.66C298.682 263.14 299.972 262.88 301.492 262.88C302.992 262.88 304.212 263.14 305.152 263.66C306.112 264.18 306.812 264.88 307.252 265.76C307.692 266.64 307.912 267.63 307.912 268.73V278ZM298.912 278.3C297.452 278.3 296.272 277.97 295.372 277.31C294.472 276.63 294.022 275.7 294.022 274.52C294.022 273.7 294.222 273.04 294.622 272.54C295.042 272.02 295.612 271.62 296.332 271.34C297.052 271.06 297.872 270.86 298.792 270.74L306.142 269.93V271.34L299.452 272.09C298.332 272.19 297.502 272.4 296.962 272.72C296.422 273.04 296.152 273.59 296.152 274.37C296.152 275.11 296.412 275.68 296.932 276.08C297.452 276.46 298.272 276.65 299.392 276.65C300.612 276.65 301.702 276.47 302.662 276.11C303.622 275.73 304.392 275.16 304.972 274.4C305.552 273.64 305.842 272.67 305.842 271.49L306.262 271.64V274.01H305.842C305.402 275.37 304.572 276.43 303.352 277.19C302.132 277.93 300.652 278.3 298.912 278.3ZM319.843 278.3C318.183 278.3 316.793 277.89 315.673 277.07C314.573 276.25 313.843 275.1 313.483 273.62H312.853L312.973 270.83H313.543C313.543 271.99 313.773 272.99 314.233 273.83C314.713 274.65 315.383 275.28 316.243 275.72C317.103 276.14 318.123 276.35 319.303 276.35C320.503 276.35 321.533 276.17 322.393 275.81C323.253 275.43 323.913 274.83 324.373 274.01C324.833 273.17 325.063 272.03 325.063 270.59C325.063 269.15 324.823 268.02 324.343 267.2C323.883 266.36 323.223 265.76 322.363 265.4C321.523 265.04 320.533 264.86 319.393 264.86C317.513 264.86 316.063 265.36 315.043 266.36C314.043 267.34 313.543 268.74 313.543 270.56H312.973V267.32H313.663C314.003 266.04 314.703 264.98 315.763 264.14C316.823 263.3 318.243 262.88 320.023 262.88C321.583 262.88 322.893 263.21 323.953 263.87C325.013 264.53 325.823 265.44 326.383 266.6C326.943 267.76 327.223 269.09 327.223 270.59C327.223 272.09 326.943 273.42 326.383 274.58C325.823 275.74 324.993 276.65 323.893 277.31C322.813 277.97 321.463 278.3 319.843 278.3ZM313.333 278H311.413V257.9H313.543V272.75L313.333 273.14V278ZM331.971 278H329.841V257.9H331.971V278ZM342.604 278.3C341.024 278.3 339.644 277.99 338.464 277.37C337.284 276.73 336.374 275.83 335.734 274.67C335.114 273.51 334.804 272.15 334.804 270.59C334.804 269.09 335.114 267.76 335.734 266.6C336.374 265.44 337.274 264.53 338.434 263.87C339.614 263.21 340.994 262.88 342.574 262.88C344.034 262.88 345.314 263.15 346.414 263.69C347.534 264.23 348.414 265.02 349.054 266.06C349.694 267.08 350.014 268.33 350.014 269.81C350.014 270.07 349.994 270.32 349.954 270.56C349.934 270.78 349.904 270.99 349.864 271.19H336.124V269.87H348.574L347.944 270.65C347.964 270.45 347.974 270.25 347.974 270.05C347.994 269.85 348.004 269.64 348.004 269.42C348.004 267.86 347.534 266.68 346.594 265.88C345.654 265.06 344.304 264.65 342.544 264.65C340.524 264.65 339.064 265.16 338.164 266.18C337.264 267.18 336.814 268.56 336.814 270.32V270.8C336.814 272.58 337.264 273.98 338.164 275C339.064 276.02 340.534 276.53 342.574 276.53C344.314 276.53 345.594 276.23 346.414 275.63C347.254 275.01 347.674 274.16 347.674 273.08V272.87H349.804V273.08C349.804 274.12 349.494 275.03 348.874 275.81C348.254 276.59 347.394 277.2 346.294 277.64C345.214 278.08 343.984 278.3 342.604 278.3Z" fill="black"/>
</g>
<defs>
<clipPath id="clip0_954_268">
<rect width="1518" height="383" fill="white"/>
</clipPath>
</defs>
</svg>
