<svg width="1586" height="303" viewBox="0 0 1586 303" fill="none" xmlns="http://www.w3.org/2000/svg">
<rect width="1586" height="303" fill="white"/>
<path d="M42.332 222.28C40.5027 222.28 38.8787 221.888 37.46 221.104C36.06 220.301 34.9587 219.181 34.156 217.744C33.372 216.288 32.98 214.58 32.98 212.62C32.98 210.66 33.372 208.961 34.156 207.524C34.9587 206.068 36.06 204.948 37.46 204.164C38.8787 203.361 40.5027 202.96 42.332 202.96C43.956 202.96 45.412 203.249 46.7 203.828C47.988 204.388 48.996 205.191 49.724 206.236C50.4707 207.263 50.844 208.495 50.844 209.932V210.268H48.688V209.932C48.688 208.327 48.1467 207.085 47.064 206.208C45.9813 205.331 44.4133 204.892 42.36 204.892C40.8107 204.892 39.4853 205.191 38.384 205.788C37.3013 206.367 36.48 207.225 35.92 208.364C35.36 209.503 35.08 210.921 35.08 212.62C35.08 214.3 35.36 215.719 35.92 216.876C36.48 218.015 37.3013 218.883 38.384 219.48C39.4853 220.059 40.8107 220.348 42.36 220.348C44.4133 220.348 45.9813 219.909 47.064 219.032C48.1467 218.155 48.688 216.913 48.688 215.308V214.972H50.844V215.308C50.844 216.727 50.4707 217.959 49.724 219.004C48.996 220.049 47.988 220.861 46.7 221.44C45.412 222 43.956 222.28 42.332 222.28ZM55.4922 222H53.5042V203.24H55.4922V222ZM71.0723 222H69.2803V218.22L69.1403 218.108V213.432C69.1403 212.088 68.8229 211.127 68.1883 210.548C67.5536 209.969 66.4709 209.68 64.9403 209.68C63.4656 209.68 62.3363 209.96 61.5523 210.52C60.7869 211.061 60.4043 211.948 60.4043 213.18V213.292H58.4163V213.18C58.4163 212.191 58.6776 211.304 59.2003 210.52C59.7229 209.717 60.4789 209.083 61.4683 208.616C62.4576 208.131 63.6616 207.888 65.0803 207.888C66.4803 207.888 67.6189 208.131 68.4963 208.616C69.3923 209.101 70.0456 209.755 70.4563 210.576C70.8669 211.397 71.0723 212.321 71.0723 213.348V222ZM62.6723 222.28C61.3096 222.28 60.2083 221.972 59.3683 221.356C58.5283 220.721 58.1083 219.853 58.1083 218.752C58.1083 217.987 58.2949 217.371 58.6683 216.904C59.0603 216.419 59.5923 216.045 60.2643 215.784C60.9363 215.523 61.7016 215.336 62.5603 215.224L69.4203 214.468V215.784L63.1763 216.484C62.1309 216.577 61.3563 216.773 60.8522 217.072C60.3483 217.371 60.0963 217.884 60.0963 218.612C60.0963 219.303 60.3389 219.835 60.8243 220.208C61.3096 220.563 62.0749 220.74 63.1203 220.74C64.2589 220.74 65.2763 220.572 66.1723 220.236C67.0683 219.881 67.7869 219.349 68.3283 218.64C68.8696 217.931 69.1403 217.025 69.1403 215.924L69.5323 216.064V218.276H69.1403C68.7296 219.545 67.9549 220.535 66.8163 221.244C65.6776 221.935 64.2963 222.28 62.6723 222.28ZM80.4162 222.28C78.3068 222.28 76.6548 221.869 75.4602 221.048C74.2842 220.208 73.6962 218.985 73.6962 217.38V217.324H75.6842V217.492C75.6842 218.649 76.0482 219.461 76.7762 219.928C77.5228 220.395 78.7455 220.628 80.4442 220.628C81.9935 220.628 83.0762 220.441 83.6922 220.068C84.3082 219.676 84.6162 219.088 84.6162 218.304C84.6162 217.576 84.3735 217.063 83.8882 216.764C83.4215 216.447 82.6095 216.195 81.4522 216.008L77.7562 215.476C76.4868 215.308 75.4788 214.953 74.7322 214.412C74.0042 213.871 73.6402 213.021 73.6402 211.864C73.6402 211.043 73.8828 210.343 74.3682 209.764C74.8722 209.167 75.5815 208.709 76.4962 208.392C77.4108 208.056 78.5028 207.888 79.7722 207.888C81.0975 207.888 82.2455 208.075 83.2162 208.448C84.2055 208.803 84.9708 209.344 85.5122 210.072C86.0535 210.8 86.3242 211.715 86.3242 212.816V212.872H84.3362V212.732C84.3362 212.023 84.1962 211.435 83.9162 210.968C83.6362 210.501 83.1602 210.147 82.4882 209.904C81.8162 209.661 80.8922 209.54 79.7162 209.54C78.2602 209.54 77.2055 209.727 76.5522 210.1C75.9175 210.473 75.6002 211.071 75.6002 211.892C75.6002 212.601 75.8148 213.115 76.2442 213.432C76.6922 213.731 77.4855 213.973 78.6242 214.16L82.0122 214.636C83.4868 214.841 84.6162 215.224 85.4002 215.784C86.1842 216.344 86.5762 217.184 86.5762 218.304C86.5762 219.163 86.3055 219.891 85.7642 220.488C85.2415 221.085 84.5135 221.533 83.5802 221.832C82.6655 222.131 81.6108 222.28 80.4162 222.28ZM102.88 222H100.892V214.216C100.892 212.629 100.518 211.481 99.7718 210.772C99.0251 210.063 97.8678 209.708 96.2998 209.708C95.0678 209.708 94.0691 209.951 93.3038 210.436C92.5571 210.921 92.0158 211.603 91.6798 212.48C91.3438 213.339 91.1758 214.347 91.1758 215.504L90.6158 215.532L90.8118 212.396H91.2878C91.4558 211.631 91.7638 210.903 92.2118 210.212C92.6785 209.521 93.3131 208.961 94.1158 208.532C94.9185 208.103 95.9078 207.888 97.0838 207.888C98.3718 207.888 99.4451 208.159 100.304 208.7C101.162 209.223 101.806 209.941 102.236 210.856C102.665 211.771 102.88 212.807 102.88 213.964V222ZM91.1758 222H89.1878V203.24H91.1758V222ZM119.513 222H112.205V220.18H119.513C121.118 220.18 122.444 219.909 123.489 219.368C124.534 218.808 125.318 217.968 125.841 216.848C126.364 215.728 126.625 214.319 126.625 212.62C126.625 210.903 126.364 209.493 125.841 208.392C125.318 207.272 124.534 206.441 123.489 205.9C122.444 205.34 121.118 205.06 119.513 205.06H112.205V203.24H119.513C121.398 203.24 123.022 203.623 124.385 204.388C125.766 205.153 126.83 206.236 127.577 207.636C128.342 209.036 128.725 210.697 128.725 212.62C128.725 214.543 128.342 216.204 127.577 217.604C126.83 219.004 125.766 220.087 124.385 220.852C123.022 221.617 121.398 222 119.513 222ZM113.381 222H111.365V203.24H113.381V222ZM133.367 222H131.379V208.168H133.367V222ZM133.367 206.404H131.379V203.24H133.367V206.404ZM142.787 222.28C140.678 222.28 139.026 221.869 137.831 221.048C136.655 220.208 136.067 218.985 136.067 217.38V217.324H138.055V217.492C138.055 218.649 138.419 219.461 139.147 219.928C139.894 220.395 141.117 220.628 142.815 220.628C144.365 220.628 145.447 220.441 146.063 220.068C146.679 219.676 146.987 219.088 146.987 218.304C146.987 217.576 146.745 217.063 146.259 216.764C145.793 216.447 144.981 216.195 143.823 216.008L140.127 215.476C138.858 215.308 137.85 214.953 137.103 214.412C136.375 213.871 136.011 213.021 136.011 211.864C136.011 211.043 136.254 210.343 136.739 209.764C137.243 209.167 137.953 208.709 138.867 208.392C139.782 208.056 140.874 207.888 142.143 207.888C143.469 207.888 144.617 208.075 145.587 208.448C146.577 208.803 147.342 209.344 147.883 210.072C148.425 210.8 148.695 211.715 148.695 212.816V212.872H146.707V212.732C146.707 212.023 146.567 211.435 146.287 210.968C146.007 210.501 145.531 210.147 144.859 209.904C144.187 209.661 143.263 209.54 142.087 209.54C140.631 209.54 139.577 209.727 138.923 210.1C138.289 210.473 137.971 211.071 137.971 211.892C137.971 212.601 138.186 213.115 138.615 213.432C139.063 213.731 139.857 213.973 140.995 214.16L144.383 214.636C145.858 214.841 146.987 215.224 147.771 215.784C148.555 216.344 148.947 217.184 148.947 218.304C148.947 219.163 148.677 219.891 148.135 220.488C147.613 221.085 146.885 221.533 145.951 221.832C145.037 222.131 143.982 222.28 142.787 222.28ZM159.483 222.28C157.971 222.28 156.683 221.888 155.619 221.104C154.574 220.32 153.892 219.265 153.575 217.94H153.015V215.336H153.547C153.547 216.419 153.771 217.343 154.219 218.108C154.667 218.873 155.292 219.461 156.095 219.872C156.916 220.264 157.859 220.46 158.923 220.46C160.024 220.46 160.976 220.292 161.779 219.956C162.582 219.601 163.198 219.041 163.627 218.276C164.075 217.492 164.299 216.428 164.299 215.084C164.299 213.74 164.075 212.685 163.627 211.92C163.179 211.136 162.554 210.576 161.751 210.24C160.967 209.904 160.052 209.736 159.007 209.736C157.29 209.736 155.946 210.203 154.975 211.136C154.023 212.069 153.547 213.385 153.547 215.084H153.015L152.903 212.06H153.575C153.892 210.809 154.555 209.801 155.563 209.036C156.59 208.271 157.915 207.888 159.539 207.888C160.976 207.888 162.199 208.196 163.207 208.812C164.215 209.428 164.98 210.277 165.503 211.36C166.044 212.443 166.315 213.684 166.315 215.084C166.315 216.484 166.054 217.725 165.531 218.808C165.008 219.891 164.234 220.74 163.207 221.356C162.199 221.972 160.958 222.28 159.483 222.28ZM153.547 226.76H151.559V208.168H153.351V212.704L153.547 213.068V226.76ZM170.746 222H168.758V203.24H170.746V222ZM186.326 222H184.534V218.22L184.394 218.108V213.432C184.394 212.088 184.077 211.127 183.442 210.548C182.807 209.969 181.725 209.68 180.194 209.68C178.719 209.68 177.59 209.96 176.806 210.52C176.041 211.061 175.658 211.948 175.658 213.18V213.292H173.67V213.18C173.67 212.191 173.931 211.304 174.454 210.52C174.977 209.717 175.733 209.083 176.722 208.616C177.711 208.131 178.915 207.888 180.334 207.888C181.734 207.888 182.873 208.131 183.75 208.616C184.646 209.101 185.299 209.755 185.71 210.576C186.121 211.397 186.326 212.321 186.326 213.348V222ZM177.926 222.28C176.563 222.28 175.462 221.972 174.622 221.356C173.782 220.721 173.362 219.853 173.362 218.752C173.362 217.987 173.549 217.371 173.922 216.904C174.314 216.419 174.846 216.045 175.518 215.784C176.19 215.523 176.955 215.336 177.814 215.224L184.674 214.468V215.784L178.43 216.484C177.385 216.577 176.61 216.773 176.106 217.072C175.602 217.371 175.35 217.884 175.35 218.612C175.35 219.303 175.593 219.835 176.078 220.208C176.563 220.563 177.329 220.74 178.374 220.74C179.513 220.74 180.53 220.572 181.426 220.236C182.322 219.881 183.041 219.349 183.582 218.64C184.123 217.931 184.394 217.025 184.394 215.924L184.786 216.064V218.276H184.394C183.983 219.545 183.209 220.535 182.07 221.244C180.931 221.935 179.55 222.28 177.926 222.28ZM191.414 226.76H189.678V224.94H191.778C192.469 224.94 192.982 224.819 193.318 224.576C193.673 224.352 193.981 223.951 194.242 223.372L195.306 221.132L195.054 222.28L188.054 208.168H190.238L194.298 216.4L195.838 219.788H196.006L197.49 216.372L201.326 208.168H203.51L196.006 223.932C195.67 224.623 195.287 225.173 194.858 225.584C194.447 226.013 193.962 226.312 193.402 226.48C192.842 226.667 192.179 226.76 191.414 226.76ZM219.835 222H217.063L208.803 203.24H211.155L218.407 219.984H218.547L225.771 203.24H228.095L219.835 222ZM241.916 222H240.124V218.22L239.984 218.108V213.432C239.984 212.088 239.667 211.127 239.032 210.548C238.397 209.969 237.315 209.68 235.784 209.68C234.309 209.68 233.18 209.96 232.396 210.52C231.631 211.061 231.248 211.948 231.248 213.18V213.292H229.26V213.18C229.26 212.191 229.521 211.304 230.044 210.52C230.567 209.717 231.323 209.083 232.312 208.616C233.301 208.131 234.505 207.888 235.924 207.888C237.324 207.888 238.463 208.131 239.34 208.616C240.236 209.101 240.889 209.755 241.3 210.576C241.711 211.397 241.916 212.321 241.916 213.348V222ZM233.516 222.28C232.153 222.28 231.052 221.972 230.212 221.356C229.372 220.721 228.952 219.853 228.952 218.752C228.952 217.987 229.139 217.371 229.512 216.904C229.904 216.419 230.436 216.045 231.108 215.784C231.78 215.523 232.545 215.336 233.404 215.224L240.264 214.468V215.784L234.02 216.484C232.975 216.577 232.2 216.773 231.696 217.072C231.192 217.371 230.94 217.884 230.94 218.612C230.94 219.303 231.183 219.835 231.668 220.208C232.153 220.563 232.919 220.74 233.964 220.74C235.103 220.74 236.12 220.572 237.016 220.236C237.912 219.881 238.631 219.349 239.172 218.64C239.713 217.931 239.984 217.025 239.984 215.924L240.376 216.064V218.276H239.984C239.573 219.545 238.799 220.535 237.66 221.244C236.521 221.935 235.14 222.28 233.516 222.28ZM247.172 222H245.184V208.168H246.976V212.06L247.172 212.2V222ZM247.172 214.496H246.612V211.948H247.116C247.247 211.201 247.508 210.52 247.9 209.904C248.311 209.288 248.852 208.803 249.524 208.448C250.196 208.075 251.017 207.888 251.988 207.888C253.052 207.888 253.92 208.121 254.592 208.588C255.283 209.055 255.787 209.661 256.104 210.408C256.421 211.155 256.58 211.957 256.58 212.816V214.188H254.592V213.124C254.592 211.948 254.331 211.071 253.808 210.492C253.285 209.913 252.417 209.624 251.204 209.624C249.804 209.624 248.777 210.044 248.124 210.884C247.489 211.724 247.172 212.928 247.172 214.496ZM260.871 222H258.883V208.168H260.871V222ZM260.871 206.404H258.883V203.24H260.871V206.404ZM276.451 222H274.659V218.22L274.519 218.108V213.432C274.519 212.088 274.202 211.127 273.567 210.548C272.932 209.969 271.85 209.68 270.319 209.68C268.844 209.68 267.715 209.96 266.931 210.52C266.166 211.061 265.783 211.948 265.783 213.18V213.292H263.795V213.18C263.795 212.191 264.056 211.304 264.579 210.52C265.102 209.717 265.858 209.083 266.847 208.616C267.836 208.131 269.04 207.888 270.459 207.888C271.859 207.888 272.998 208.131 273.875 208.616C274.771 209.101 275.424 209.755 275.835 210.576C276.246 211.397 276.451 212.321 276.451 213.348V222ZM268.051 222.28C266.688 222.28 265.587 221.972 264.747 221.356C263.907 220.721 263.487 219.853 263.487 218.752C263.487 217.987 263.674 217.371 264.047 216.904C264.439 216.419 264.971 216.045 265.643 215.784C266.315 215.523 267.08 215.336 267.939 215.224L274.799 214.468V215.784L268.555 216.484C267.51 216.577 266.735 216.773 266.231 217.072C265.727 217.371 265.475 217.884 265.475 218.612C265.475 219.303 265.718 219.835 266.203 220.208C266.688 220.563 267.454 220.74 268.499 220.74C269.638 220.74 270.655 220.572 271.551 220.236C272.447 219.881 273.166 219.349 273.707 218.64C274.248 217.931 274.519 217.025 274.519 215.924L274.911 216.064V218.276H274.519C274.108 219.545 273.334 220.535 272.195 221.244C271.056 221.935 269.675 222.28 268.051 222.28ZM287.587 222.28C286.038 222.28 284.74 221.897 283.695 221.132C282.668 220.367 281.987 219.293 281.651 217.912H281.063L281.175 215.308H281.707C281.707 216.391 281.922 217.324 282.351 218.108C282.799 218.873 283.424 219.461 284.227 219.872C285.03 220.264 285.982 220.46 287.083 220.46C288.203 220.46 289.164 220.292 289.967 219.956C290.77 219.601 291.386 219.041 291.815 218.276C292.244 217.492 292.459 216.428 292.459 215.084C292.459 213.74 292.235 212.685 291.787 211.92C291.358 211.136 290.742 210.576 289.939 210.24C289.155 209.904 288.231 209.736 287.167 209.736C285.412 209.736 284.059 210.203 283.107 211.136C282.174 212.051 281.707 213.357 281.707 215.056H281.175V212.032H281.819C282.136 210.837 282.79 209.848 283.779 209.064C284.768 208.28 286.094 207.888 287.755 207.888C289.211 207.888 290.434 208.196 291.423 208.812C292.412 209.428 293.168 210.277 293.691 211.36C294.214 212.443 294.475 213.684 294.475 215.084C294.475 216.484 294.214 217.725 293.691 218.808C293.168 219.891 292.394 220.74 291.367 221.356C290.359 221.972 289.099 222.28 287.587 222.28ZM281.511 222H279.719V203.24H281.707V217.1L281.511 217.464V222ZM298.906 222H296.918V203.24H298.906V222ZM308.83 222.28C307.356 222.28 306.068 221.991 304.966 221.412C303.865 220.815 303.016 219.975 302.418 218.892C301.84 217.809 301.55 216.54 301.55 215.084C301.55 213.684 301.84 212.443 302.418 211.36C303.016 210.277 303.856 209.428 304.938 208.812C306.04 208.196 307.328 207.888 308.802 207.888C310.165 207.888 311.36 208.14 312.386 208.644C313.432 209.148 314.253 209.885 314.85 210.856C315.448 211.808 315.746 212.975 315.746 214.356C315.746 214.599 315.728 214.832 315.69 215.056C315.672 215.261 315.644 215.457 315.606 215.644H302.782V214.412H314.402L313.814 215.14C313.833 214.953 313.842 214.767 313.842 214.58C313.861 214.393 313.87 214.197 313.87 213.992C313.87 212.536 313.432 211.435 312.554 210.688C311.677 209.923 310.417 209.54 308.774 209.54C306.889 209.54 305.526 210.016 304.686 210.968C303.846 211.901 303.426 213.189 303.426 214.832V215.28C303.426 216.941 303.846 218.248 304.686 219.2C305.526 220.152 306.898 220.628 308.802 220.628C310.426 220.628 311.621 220.348 312.386 219.788C313.17 219.209 313.562 218.416 313.562 217.408V217.212H315.55V217.408C315.55 218.379 315.261 219.228 314.682 219.956C314.104 220.684 313.301 221.253 312.274 221.664C311.266 222.075 310.118 222.28 308.83 222.28ZM329.376 223.064L328.34 224.016C327.761 223.437 327.154 222.765 326.52 222C325.885 221.253 325.306 220.413 324.784 219.48C324.261 218.528 323.832 217.483 323.496 216.344C323.178 215.205 323.02 213.964 323.02 212.62C323.02 211.276 323.178 210.035 323.496 208.896C323.832 207.757 324.261 206.721 324.784 205.788C325.306 204.836 325.885 203.987 326.52 203.24C327.154 202.475 327.761 201.803 328.34 201.224L329.376 202.176C328.834 202.848 328.312 203.539 327.808 204.248C327.304 204.939 326.846 205.695 326.436 206.516C326.044 207.319 325.726 208.215 325.484 209.204C325.26 210.193 325.148 211.332 325.148 212.62C325.148 213.908 325.26 215.047 325.484 216.036C325.726 217.025 326.044 217.931 326.436 218.752C326.846 219.555 327.304 220.311 327.808 221.02C328.312 221.711 328.834 222.392 329.376 223.064ZM355.088 222H353.1V214.216C353.1 212.685 352.764 211.556 352.092 210.828C351.42 210.081 350.347 209.708 348.872 209.708C347.211 209.708 346.016 210.184 345.288 211.136C344.56 212.069 344.196 213.46 344.196 215.308H343.664L343.608 212.48H344.084C344.233 211.677 344.513 210.931 344.924 210.24C345.353 209.549 345.951 208.989 346.716 208.56C347.5 208.112 348.461 207.888 349.6 207.888C350.813 207.888 351.821 208.149 352.624 208.672C353.445 209.195 354.061 209.913 354.472 210.828C354.883 211.724 355.088 212.76 355.088 213.936V222ZM333.332 222H331.344V208.168H333.136V212.564L333.332 212.704V222ZM344.196 222H342.208V214.216C342.208 212.685 341.872 211.556 341.2 210.828C340.528 210.081 339.464 209.708 338.008 209.708C336.328 209.708 335.124 210.184 334.396 211.136C333.687 212.069 333.332 213.46 333.332 215.308H332.8L332.772 212.34H333.248C333.379 211.556 333.649 210.828 334.06 210.156C334.471 209.484 335.059 208.943 335.824 208.532C336.589 208.103 337.541 207.888 338.68 207.888C339.893 207.888 340.892 208.159 341.676 208.7C342.479 209.223 343.076 209.941 343.468 210.856C343.86 211.752 344.056 212.779 344.056 213.936H344.196V222ZM364.912 222.28C363.438 222.28 362.15 221.991 361.048 221.412C359.947 220.815 359.098 219.975 358.5 218.892C357.922 217.809 357.632 216.54 357.632 215.084C357.632 213.684 357.922 212.443 358.5 211.36C359.098 210.277 359.938 209.428 361.02 208.812C362.122 208.196 363.41 207.888 364.884 207.888C366.247 207.888 367.442 208.14 368.468 208.644C369.514 209.148 370.335 209.885 370.932 210.856C371.53 211.808 371.828 212.975 371.828 214.356C371.828 214.599 371.81 214.832 371.772 215.056C371.754 215.261 371.726 215.457 371.688 215.644H358.864V214.412H370.484L369.896 215.14C369.915 214.953 369.924 214.767 369.924 214.58C369.943 214.393 369.952 214.197 369.952 213.992C369.952 212.536 369.514 211.435 368.636 210.688C367.759 209.923 366.499 209.54 364.856 209.54C362.971 209.54 361.608 210.016 360.768 210.968C359.928 211.901 359.508 213.189 359.508 214.832V215.28C359.508 216.941 359.928 218.248 360.768 219.2C361.608 220.152 362.98 220.628 364.884 220.628C366.508 220.628 367.703 220.348 368.468 219.788C369.252 219.209 369.644 218.416 369.644 217.408V217.212H371.632V217.408C371.632 218.379 371.343 219.228 370.764 219.956C370.186 220.684 369.383 221.253 368.356 221.664C367.348 222.075 366.2 222.28 364.912 222.28ZM380.429 222.28C378.954 222.28 377.704 221.972 376.677 221.356C375.65 220.74 374.866 219.891 374.325 218.808C373.802 217.725 373.541 216.484 373.541 215.084C373.541 213.684 373.802 212.443 374.325 211.36C374.866 210.277 375.632 209.428 376.621 208.812C377.629 208.196 378.842 207.888 380.261 207.888C381.904 207.888 383.229 208.28 384.237 209.064C385.245 209.848 385.898 210.837 386.197 212.032H386.869V215.056H386.337C386.337 213.357 385.852 212.051 384.881 211.136C383.91 210.203 382.576 209.736 380.877 209.736C379.832 209.736 378.908 209.904 378.105 210.24C377.302 210.576 376.677 211.136 376.229 211.92C375.781 212.685 375.557 213.74 375.557 215.084C375.557 216.428 375.772 217.492 376.201 218.276C376.649 219.041 377.274 219.601 378.077 219.956C378.898 220.292 379.85 220.46 380.933 220.46C382.016 220.46 382.958 220.264 383.761 219.872C384.564 219.461 385.189 218.873 385.637 218.108C386.104 217.324 386.337 216.391 386.337 215.308H386.869L386.953 217.912H386.393C386.057 219.293 385.357 220.367 384.293 221.132C383.248 221.897 381.96 222.28 380.429 222.28ZM388.325 222H386.505V217.464L386.337 217.1V203.24H388.325V222ZM393.652 222H391.664V208.168H393.652V222ZM393.652 206.404H391.664V203.24H393.652V206.404ZM402.792 222.28C401.486 222.28 400.394 222.009 399.516 221.468C398.658 220.908 398.004 220.171 397.556 219.256C397.127 218.341 396.912 217.343 396.912 216.26V208.168H398.9V215.952C398.9 217.371 399.264 218.481 399.992 219.284C400.72 220.087 401.887 220.488 403.492 220.488C405.191 220.488 406.47 220.003 407.328 219.032C408.206 218.043 408.644 216.661 408.644 214.888L409.176 214.86V217.688H408.7C408.551 218.472 408.224 219.209 407.72 219.9C407.235 220.591 406.582 221.16 405.76 221.608C404.939 222.056 403.95 222.28 402.792 222.28ZM410.632 222H408.84V217.632L408.644 217.492V208.168H410.632V222ZM437.721 222H435.733V214.216C435.733 212.685 435.397 211.556 434.725 210.828C434.053 210.081 432.98 209.708 431.505 209.708C429.844 209.708 428.649 210.184 427.921 211.136C427.193 212.069 426.829 213.46 426.829 215.308H426.297L426.241 212.48H426.717C426.866 211.677 427.146 210.931 427.557 210.24C427.986 209.549 428.584 208.989 429.349 208.56C430.133 208.112 431.094 207.888 432.233 207.888C433.446 207.888 434.454 208.149 435.257 208.672C436.078 209.195 436.694 209.913 437.105 210.828C437.516 211.724 437.721 212.76 437.721 213.936V222ZM415.965 222H413.977V208.168H415.769V212.564L415.965 212.704V222ZM426.829 222H424.841V214.216C424.841 212.685 424.505 211.556 423.833 210.828C423.161 210.081 422.097 209.708 420.641 209.708C418.961 209.708 417.757 210.184 417.029 211.136C416.32 212.069 415.965 213.46 415.965 215.308H415.433L415.405 212.34H415.881C416.012 211.556 416.282 210.828 416.693 210.156C417.104 209.484 417.692 208.943 418.457 208.532C419.222 208.103 420.174 207.888 421.313 207.888C422.526 207.888 423.525 208.159 424.309 208.7C425.112 209.223 425.709 209.941 426.101 210.856C426.493 211.752 426.689 212.779 426.689 213.936H426.829V222ZM442.589 222H440.125V218.108H442.589V222ZM440.685 224.464H440.097V223.26H440.657C440.844 223.26 440.984 223.223 441.077 223.148C441.17 223.073 441.217 222.915 441.217 222.672V221.356H442.589V222.644C442.589 223.26 442.421 223.717 442.085 224.016C441.749 224.315 441.282 224.464 440.685 224.464ZM452.25 222H450.262V208.168H452.054V212.06L452.25 212.2V222ZM452.25 214.496H451.69V211.948H452.194C452.325 211.201 452.586 210.52 452.978 209.904C453.389 209.288 453.93 208.803 454.602 208.448C455.274 208.075 456.095 207.888 457.066 207.888C458.13 207.888 458.998 208.121 459.67 208.588C460.361 209.055 460.865 209.661 461.182 210.408C461.499 211.155 461.658 211.957 461.658 212.816V214.188H459.67V213.124C459.67 211.948 459.409 211.071 458.886 210.492C458.363 209.913 457.495 209.624 456.282 209.624C454.882 209.624 453.855 210.044 453.202 210.884C452.567 211.724 452.25 212.928 452.25 214.496ZM470.541 222.28C469.067 222.28 467.779 221.991 466.677 221.412C465.576 220.815 464.727 219.975 464.129 218.892C463.551 217.809 463.261 216.54 463.261 215.084C463.261 213.684 463.551 212.443 464.129 211.36C464.727 210.277 465.567 209.428 466.649 208.812C467.751 208.196 469.039 207.888 470.513 207.888C471.876 207.888 473.071 208.14 474.097 208.644C475.143 209.148 475.964 209.885 476.561 210.856C477.159 211.808 477.457 212.975 477.457 214.356C477.457 214.599 477.439 214.832 477.401 215.056C477.383 215.261 477.355 215.457 477.317 215.644H464.493V214.412H476.113L475.525 215.14C475.544 214.953 475.553 214.767 475.553 214.58C475.572 214.393 475.581 214.197 475.581 213.992C475.581 212.536 475.143 211.435 474.265 210.688C473.388 209.923 472.128 209.54 470.485 209.54C468.6 209.54 467.237 210.016 466.397 210.968C465.557 211.901 465.137 213.189 465.137 214.832V215.28C465.137 216.941 465.557 218.248 466.397 219.2C467.237 220.152 468.609 220.628 470.513 220.628C472.137 220.628 473.332 220.348 474.097 219.788C474.881 219.209 475.273 218.416 475.273 217.408V217.212H477.261V217.408C477.261 218.379 476.972 219.228 476.393 219.956C475.815 220.684 475.012 221.253 473.985 221.664C472.977 222.075 471.829 222.28 470.541 222.28ZM486.898 227.04C485.647 227.04 484.518 226.835 483.51 226.424C482.521 226.013 481.737 225.435 481.158 224.688C480.579 223.941 480.29 223.027 480.29 221.944H482.278C482.278 222.747 482.455 223.4 482.81 223.904C483.165 224.408 483.687 224.772 484.378 224.996C485.087 225.22 485.955 225.332 486.982 225.332C488.177 225.332 489.138 225.192 489.866 224.912C490.613 224.632 491.145 224.156 491.462 223.484C491.798 222.831 491.966 221.935 491.966 220.796V212.844L492.162 212.592V208.168H493.954V220.684C493.954 222.215 493.655 223.437 493.058 224.352C492.461 225.285 491.63 225.967 490.566 226.396C489.521 226.825 488.298 227.04 486.898 227.04ZM486.03 220.88C484.649 220.88 483.463 220.6 482.474 220.04C481.485 219.48 480.719 218.715 480.178 217.744C479.655 216.773 479.394 215.653 479.394 214.384C479.394 213.115 479.665 211.995 480.206 211.024C480.766 210.053 481.559 209.288 482.586 208.728C483.613 208.168 484.835 207.888 486.254 207.888C487.71 207.888 488.961 208.224 490.006 208.896C491.07 209.568 491.742 210.511 492.022 211.724H492.61L492.498 213.992H491.966C491.966 213.077 491.742 212.303 491.294 211.668C490.865 211.015 490.258 210.52 489.474 210.184C488.709 209.829 487.785 209.652 486.702 209.652C485.675 209.652 484.761 209.801 483.958 210.1C483.155 210.399 482.521 210.893 482.054 211.584C481.606 212.275 481.382 213.208 481.382 214.384C481.382 215.56 481.606 216.493 482.054 217.184C482.502 217.875 483.109 218.369 483.874 218.668C484.658 218.967 485.554 219.116 486.562 219.116C488.261 219.116 489.586 218.715 490.538 217.912C491.49 217.091 491.966 215.943 491.966 214.468H492.498V217.184H491.826C491.546 218.248 490.902 219.135 489.894 219.844C488.905 220.535 487.617 220.88 486.03 220.88ZM503.117 222.28C501.81 222.28 500.718 222.009 499.841 221.468C498.982 220.908 498.329 220.171 497.881 219.256C497.451 218.341 497.237 217.343 497.237 216.26V208.168H499.225V215.952C499.225 217.371 499.589 218.481 500.317 219.284C501.045 220.087 502.211 220.488 503.817 220.488C505.515 220.488 506.794 220.003 507.653 219.032C508.53 218.043 508.969 216.661 508.969 214.888L509.501 214.86V217.688H509.025C508.875 218.472 508.549 219.209 508.045 219.9C507.559 220.591 506.906 221.16 506.085 221.608C505.263 222.056 504.274 222.28 503.117 222.28ZM510.957 222H509.165V217.632L508.969 217.492V208.168H510.957V222ZM516.289 222H514.301V203.24H516.289V222ZM531.869 222H530.077V218.22L529.937 218.108V213.432C529.937 212.088 529.62 211.127 528.985 210.548C528.35 209.969 527.268 209.68 525.737 209.68C524.262 209.68 523.133 209.96 522.349 210.52C521.584 211.061 521.201 211.948 521.201 213.18V213.292H519.213V213.18C519.213 212.191 519.474 211.304 519.997 210.52C520.52 209.717 521.276 209.083 522.265 208.616C523.254 208.131 524.458 207.888 525.877 207.888C527.277 207.888 528.416 208.131 529.293 208.616C530.189 209.101 530.842 209.755 531.253 210.576C531.664 211.397 531.869 212.321 531.869 213.348V222ZM523.469 222.28C522.106 222.28 521.005 221.972 520.165 221.356C519.325 220.721 518.905 219.853 518.905 218.752C518.905 217.987 519.092 217.371 519.465 216.904C519.857 216.419 520.389 216.045 521.061 215.784C521.733 215.523 522.498 215.336 523.357 215.224L530.217 214.468V215.784L523.973 216.484C522.928 216.577 522.153 216.773 521.649 217.072C521.145 217.371 520.893 217.884 520.893 218.612C520.893 219.303 521.136 219.835 521.621 220.208C522.106 220.563 522.872 220.74 523.917 220.74C525.056 220.74 526.073 220.572 526.969 220.236C527.865 219.881 528.584 219.349 529.125 218.64C529.666 217.931 529.937 217.025 529.937 215.924L530.329 216.064V218.276H529.937C529.526 219.545 528.752 220.535 527.613 221.244C526.474 221.935 525.093 222.28 523.469 222.28ZM537.125 222H535.137V208.168H536.929V212.06L537.125 212.2V222ZM537.125 214.496H536.565V211.948H537.069C537.2 211.201 537.461 210.52 537.853 209.904C538.264 209.288 538.805 208.803 539.477 208.448C540.149 208.075 540.97 207.888 541.941 207.888C543.005 207.888 543.873 208.121 544.545 208.588C545.236 209.055 545.74 209.661 546.057 210.408C546.374 211.155 546.533 211.957 546.533 212.816V214.188H544.545V213.124C544.545 211.948 544.284 211.071 543.761 210.492C543.238 209.913 542.37 209.624 541.157 209.624C539.757 209.624 538.73 210.044 538.077 210.884C537.442 211.724 537.125 212.928 537.125 214.496ZM547.66 202.176L548.668 201.224C549.266 201.803 549.872 202.475 550.488 203.24C551.123 203.987 551.702 204.836 552.224 205.788C552.747 206.721 553.167 207.757 553.484 208.896C553.82 210.035 553.988 211.276 553.988 212.62C553.988 213.964 553.82 215.205 553.484 216.344C553.167 217.483 552.747 218.528 552.224 219.48C551.702 220.413 551.123 221.253 550.488 222C549.872 222.765 549.266 223.437 548.668 224.016L547.66 223.064C548.183 222.392 548.696 221.711 549.2 221.02C549.704 220.311 550.152 219.555 550.544 218.752C550.955 217.931 551.272 217.025 551.496 216.036C551.739 215.047 551.86 213.908 551.86 212.62C551.86 211.332 551.739 210.193 551.496 209.204C551.272 208.215 550.955 207.319 550.544 206.516C550.152 205.695 549.704 204.939 549.2 204.248C548.696 203.539 548.183 202.848 547.66 202.176Z" fill="black"/>
<path d="M113.107 175H99.1965V87.9H113.107V175ZM47.9765 175H33.9365V87.9H47.9765V175ZM106.087 137.43H38.4865V124.82H106.087V137.43ZM187.331 175H174.461V158.36L173.551 157.97V135.87C173.551 130.497 172.251 126.77 169.651 124.69C167.138 122.523 162.761 121.44 156.521 121.44C150.541 121.44 146.078 122.48 143.131 124.56C140.185 126.64 138.711 130.063 138.711 134.83V135.35H124.801V134.83C124.801 129.89 126.101 125.513 128.701 121.7C131.301 117.8 135.028 114.723 139.881 112.47C144.821 110.217 150.715 109.09 157.561 109.09C164.408 109.09 169.998 110.26 174.331 112.6C178.751 114.853 182.001 117.973 184.081 121.96C186.248 125.947 187.331 130.54 187.331 135.74V175ZM145.211 176.3C138.538 176.3 133.208 174.827 129.221 171.88C125.321 168.847 123.371 164.687 123.371 159.4C123.371 156.02 124.195 153.203 125.841 150.95C127.575 148.61 130.001 146.79 133.121 145.49C136.241 144.19 139.925 143.28 144.171 142.76L174.851 139.51V147.83L148.201 150.82C144.561 151.253 141.831 152.033 140.011 153.16C138.278 154.2 137.411 155.977 137.411 158.49C137.411 161.09 138.321 163.04 140.141 164.34C142.048 165.553 144.995 166.16 148.981 166.16C153.921 166.16 158.211 165.553 161.851 164.34C165.491 163.04 168.351 161.047 170.431 158.36C172.511 155.673 173.551 152.207 173.551 147.96L175.371 148.22V158.88H173.551C171.818 164.34 168.481 168.63 163.541 171.75C158.688 174.783 152.578 176.3 145.211 176.3ZM314.134 175H300.224V139.9C300.224 133.487 298.881 128.85 296.194 125.99C293.508 123.13 289.001 121.7 282.674 121.7C275.828 121.7 270.974 123.477 268.114 127.03C265.341 130.497 263.954 135.827 263.954 143.02L261.484 143.15L260.704 130.41H263.564C264.171 126.683 265.428 123.217 267.334 120.01C269.241 116.803 271.971 114.203 275.524 112.21C279.078 110.13 283.541 109.09 288.914 109.09C294.548 109.09 299.228 110.26 302.954 112.6C306.681 114.94 309.454 118.147 311.274 122.22C313.181 126.293 314.134 130.93 314.134 136.13V175ZM213.904 175H199.864V110.39H212.734V130.67L213.904 131.32V175ZM263.954 175H250.044V139.9C250.044 133.487 248.701 128.85 246.014 125.99C243.328 123.13 238.864 121.7 232.624 121.7C225.691 121.7 220.838 123.477 218.064 127.03C215.291 130.497 213.904 135.827 213.904 143.02L211.434 143.15L210.784 129.89H213.514C214.121 126.25 215.334 122.87 217.154 119.75C218.974 116.63 221.618 114.073 225.084 112.08C228.551 110.087 232.971 109.09 238.344 109.09C243.978 109.09 248.614 110.303 252.254 112.73C255.894 115.07 258.624 118.277 260.444 122.35C262.264 126.423 263.174 131.017 263.174 136.13H263.954V175ZM367.38 176.3C360.014 176.3 354.034 174.61 349.44 171.23C344.847 167.763 341.857 162.823 340.47 156.41H337.35L338.26 143.41H340.73C340.73 147.83 341.597 151.557 343.33 154.59C345.15 157.623 347.707 159.877 351 161.35C354.38 162.737 358.367 163.43 362.96 163.43C367.727 163.43 371.714 162.78 374.92 161.48C378.214 160.18 380.684 158.013 382.33 154.98C384.064 151.947 384.93 147.873 384.93 142.76C384.93 137.56 384.064 133.443 382.33 130.41C380.597 127.377 378.127 125.21 374.92 123.91C371.714 122.523 367.814 121.83 363.22 121.83C355.94 121.83 350.35 123.563 346.45 127.03C342.637 130.41 340.73 135.523 340.73 142.37H338.26V127.94H341.51C342.81 122.48 345.627 117.973 349.96 114.42C354.38 110.867 360.447 109.09 368.16 109.09C374.834 109.09 380.424 110.52 384.93 113.38C389.524 116.153 392.99 120.053 395.33 125.08C397.757 130.107 398.97 136 398.97 142.76C398.97 149.347 397.757 155.197 395.33 160.31C392.99 165.337 389.437 169.28 384.67 172.14C379.99 174.913 374.227 176.3 367.38 176.3ZM339.56 175H326.69V87.9H340.73V153.03L339.56 154.72V175ZM435.612 176.3C429.545 176.3 424.519 175.087 420.532 172.66C416.545 170.233 413.555 166.983 411.562 162.91C409.569 158.837 408.572 154.287 408.572 149.26V110.39H422.482V145.49C422.482 151.47 423.955 156.02 426.902 159.14C429.935 162.173 434.875 163.69 441.722 163.69C448.915 163.69 454.159 161.913 457.452 158.36C460.832 154.72 462.522 149.39 462.522 142.37L464.992 142.24L465.772 154.98H462.782C462.175 158.62 460.789 162.043 458.622 165.25C456.455 168.457 453.465 171.1 449.652 173.18C445.925 175.26 441.245 176.3 435.612 176.3ZM476.562 175H463.692V154.72L462.522 154.07V110.39H476.562V175ZM503.357 175H489.317V110.39H502.187V128.72L503.357 129.37V175ZM503.357 138.73H500.237V127.81H503.097C503.704 124.257 504.917 121.093 506.737 118.32C508.557 115.46 510.984 113.207 514.017 111.56C517.137 109.913 520.907 109.09 525.327 109.09C530.267 109.09 534.297 110.13 537.417 112.21C540.537 114.29 542.791 117.063 544.177 120.53C545.651 123.997 546.387 127.767 546.387 131.84V140.29H532.477V134.57C532.477 129.89 531.437 126.467 529.357 124.3C527.277 122.133 523.811 121.05 518.957 121.05C513.411 121.05 509.424 122.567 506.997 125.6C504.571 128.633 503.357 133.01 503.357 138.73ZM589.136 198.4C582.723 198.4 577.089 197.403 572.236 195.41C567.383 193.503 563.569 190.73 560.796 187.09C558.109 183.45 556.766 179.03 556.766 173.83H570.676C570.676 176.95 571.326 179.463 572.626 181.37C573.926 183.277 575.963 184.62 578.736 185.4C581.596 186.267 585.323 186.7 589.916 186.7C594.856 186.7 598.756 186.137 601.616 185.01C604.563 183.97 606.686 182.107 607.986 179.42C609.286 176.733 609.936 173.007 609.936 168.24V130.41L610.976 129.5V110.39H623.846V167.46C623.846 174.653 622.416 180.503 619.556 185.01C616.696 189.603 612.666 192.983 607.466 195.15C602.266 197.317 596.156 198.4 589.136 198.4ZM583.286 169.15C576.873 169.15 571.369 167.893 566.776 165.38C562.269 162.867 558.759 159.357 556.246 154.85C553.819 150.343 552.606 145.1 552.606 139.12C552.606 133.14 553.863 127.897 556.376 123.39C558.976 118.883 562.616 115.373 567.296 112.86C572.063 110.347 577.696 109.09 584.196 109.09C590.956 109.09 596.676 110.607 601.356 113.64C606.123 116.587 609.069 120.877 610.196 126.51H613.186L612.406 137.82H609.936C609.936 134.18 609.069 131.147 607.336 128.72C605.603 126.207 603.133 124.343 599.926 123.13C596.719 121.917 592.819 121.31 588.226 121.31C583.806 121.31 579.949 121.873 576.656 123C573.449 124.127 570.979 125.99 569.246 128.59C567.599 131.103 566.776 134.613 566.776 139.12C566.776 143.54 567.599 147.05 569.246 149.65C570.893 152.25 573.276 154.157 576.396 155.37C579.603 156.497 583.416 157.06 587.836 157.06C594.943 157.06 600.403 155.587 604.216 152.64C608.029 149.693 609.936 145.36 609.936 139.64H612.406V152.38H609.026C607.899 157.32 605.169 161.35 600.836 164.47C596.503 167.59 590.653 169.15 583.286 169.15ZM655.817 175H641.777V113.9C641.777 108.44 642.947 103.803 645.287 99.99C647.714 96.09 651.224 93.1 655.817 91.02C660.41 88.94 666 87.9 672.587 87.9H678.957V98.3H670.377C664.83 98.3 660.8 99.34 658.287 101.42C655.774 103.413 654.95 107.227 655.817 112.86V115.46V175ZM678.957 122.09H632.027V110.39H678.957V122.09ZM719.749 176.3C712.643 176.3 706.359 174.913 700.899 172.14C695.526 169.28 691.323 165.337 688.289 160.31C685.343 155.197 683.869 149.347 683.869 142.76C683.869 136 685.343 130.107 688.289 125.08C691.323 120.053 695.526 116.153 700.899 113.38C706.359 110.52 712.643 109.09 719.749 109.09C727.029 109.09 733.356 110.52 738.729 113.38C744.103 116.153 748.263 120.053 751.209 125.08C754.243 130.107 755.759 136 755.759 142.76C755.759 149.347 754.243 155.197 751.209 160.31C748.263 165.337 744.103 169.28 738.729 172.14C733.356 174.913 727.029 176.3 719.749 176.3ZM719.749 163.82C727.636 163.82 733.313 162.043 736.779 158.49C740.246 154.85 741.979 149.607 741.979 142.76C741.979 135.913 740.246 130.67 736.779 127.03C733.313 123.303 727.636 121.44 719.749 121.44C711.949 121.44 706.316 123.303 702.849 127.03C699.383 130.67 697.649 135.913 697.649 142.76C697.649 149.607 699.383 154.85 702.849 158.49C706.316 162.043 711.949 163.82 719.749 163.82ZM833.418 175H819.378V139.9C819.378 133.833 817.905 129.283 814.958 126.25C812.098 123.217 807.288 121.7 800.528 121.7C793.508 121.7 788.308 123.52 784.928 127.16C781.635 130.713 779.988 136 779.988 143.02L777.518 143.15L776.868 130.41H779.728C780.422 126.77 781.808 123.347 783.888 120.14C786.055 116.847 789.002 114.203 792.728 112.21C796.542 110.13 801.178 109.09 806.638 109.09C812.618 109.09 817.602 110.303 821.588 112.73C825.575 115.157 828.522 118.407 830.428 122.48C832.422 126.553 833.418 131.103 833.418 136.13V175ZM779.988 175H765.948V110.39H778.818V130.67L779.988 131.32V175ZM876.479 176.3C866.079 176.3 858.019 174.307 852.299 170.32C846.665 166.333 843.849 160.613 843.849 153.16V152.77H857.889V153.81C857.889 158.057 859.275 161.003 862.049 162.65C864.909 164.21 869.719 164.99 876.479 164.99C882.805 164.99 887.095 164.34 889.349 163.04C891.689 161.653 892.859 159.53 892.859 156.67C892.859 153.983 891.949 152.077 890.129 150.95C888.395 149.823 885.189 148.957 880.509 148.35L862.829 146.01C856.675 145.23 851.865 143.497 848.399 140.81C844.932 138.037 843.199 133.92 843.199 128.46C843.199 124.647 844.325 121.31 846.579 118.45C848.832 115.503 852.212 113.207 856.719 111.56C861.225 109.913 866.772 109.09 873.359 109.09C879.945 109.09 885.579 109.957 890.259 111.69C895.025 113.423 898.665 116.023 901.179 119.49C903.779 122.957 905.079 127.247 905.079 132.36V132.75H891.169V131.97C891.169 129.457 890.649 127.333 889.609 125.6C888.569 123.867 886.705 122.567 884.019 121.7C881.419 120.747 877.735 120.27 872.969 120.27C866.989 120.27 862.829 120.963 860.489 122.35C858.149 123.737 856.979 125.947 856.979 128.98C856.979 131.493 857.845 133.313 859.579 134.44C861.312 135.567 864.562 136.477 869.329 137.17L884.279 139.25C891.905 140.203 897.539 142.067 901.179 144.84C904.819 147.613 906.639 151.687 906.639 157.06C906.639 161.047 905.382 164.513 902.869 167.46C900.355 170.32 896.845 172.53 892.339 174.09C887.832 175.563 882.545 176.3 876.479 176.3ZM959.149 175H944.329C937.395 175 931.892 173.31 927.819 169.93C923.832 166.55 921.839 160.96 921.839 153.16V96.22H935.749V152.38C935.749 156.367 936.702 159.053 938.609 160.44C940.515 161.74 943.462 162.39 947.449 162.39H959.149V175ZM959.149 122.09H910.919V110.39H959.149V122.09ZM981.971 175H967.931V110.39H981.971V175ZM981.971 102.85H967.931V87.9H981.971V102.85ZM1036.44 175H1019.28L989.122 110.39H1004.59L1027.6 161.35H1028.64L1051.65 110.39H1066.86L1036.44 175Z" fill="black"/>
</svg>
