<svg width="1518" height="383" viewBox="0 0 1518 383" fill="none" xmlns="http://www.w3.org/2000/svg">
<circle cx="112" cy="142" r="110.5" fill="#FFF44F" stroke="black" stroke-width="3"/>
<circle cx="395" cy="142" r="110.5" fill="#FF2C54" stroke="black" stroke-width="3"/>
<circle cx="678" cy="142" r="110.5" fill="#8261FF" stroke="black" stroke-width="3"/>
<circle cx="961" cy="142" r="110.5" fill="#CF82FE" stroke="black" stroke-width="3"/>
<circle cx="1244" cy="142" r="110.5" fill="#68F6FF" stroke="black" stroke-width="3"/>
<circle cx="1466" cy="81" r="49.5" fill="black" stroke="black" stroke-width="3"/>
<circle cx="1466" cy="203" r="49.5" fill="white" stroke="black" stroke-width="3"/>
<path d="M53.0563 320H51.0403L52.8043 315.464H48.5483V313.672H53.5043L55.7163 307.82H50.9563V306.028H56.4443L58.2643 301.24H60.2523L58.4323 306.028H64.4243L66.2443 301.24H68.2323L66.4123 306.028H70.7803V307.82H65.6843L63.4723 313.672H68.3723V315.464H62.7723L61.0363 320H59.0203L60.7563 315.464H54.7923L53.0563 320ZM57.6763 307.792L55.4083 313.7H61.5403L63.7803 307.792H57.6763ZM75.0078 320H73.0198V301.24H75.0078V320ZM86.6558 312.02H73.6918V310.228H86.6558V312.02ZM87.0758 303.06H73.6918V301.24H87.0758V303.06ZM91.7149 320H89.7269V301.24H91.7149V320ZM103.363 312.02H90.3989V310.228H103.363V312.02ZM103.783 303.06H90.3989V301.24H103.783V303.06ZM108.422 320H106.434V301.24H108.422V320ZM120.07 312.02H107.106V310.228H120.07V312.02ZM120.49 303.06H107.106V301.24H120.49V303.06ZM139.689 316.024H122.161V314.568L133.837 301.24H135.461L134.481 303.648H134.033L124.905 314.036V314.204H139.689V316.024ZM136.189 320H134.173V301.24H136.189V320ZM158.611 316.024H141.083V314.568L152.759 301.24H154.383L153.403 303.648H152.955L143.827 314.036V314.204H158.611V316.024ZM155.111 320H153.095V301.24H155.111V320ZM162.973 320H160.985V301.24H162.973V320ZM174.621 312.02H161.657V310.228H174.621V312.02ZM175.041 303.06H161.657V301.24H175.041V303.06Z" fill="black"/>
<path d="M334.867 320H332.851L334.615 315.464H330.359V313.672H335.315L337.527 307.82H332.767V306.028H338.255L340.075 301.24H342.063L340.243 306.028H346.235L348.055 301.24H350.043L348.223 306.028H352.591V307.82H347.495L345.283 313.672H350.183V315.464H344.583L342.847 320H340.831L342.567 315.464H336.603L334.867 320ZM339.487 307.792L337.219 313.7H343.351L345.591 307.792H339.487ZM356.818 320H354.83V301.24H356.818V320ZM368.466 312.02H355.502V310.228H368.466V312.02ZM368.886 303.06H355.502V301.24H368.886V303.06ZM373.525 320H371.537V301.24H373.525V320ZM385.173 312.02H372.209V310.228H385.173V312.02ZM385.593 303.06H372.209V301.24H385.593V303.06ZM402.664 320H387.796V318.628C387.796 317.415 387.955 316.397 388.272 315.576C388.59 314.736 389.122 314.027 389.868 313.448C390.634 312.851 391.642 312.328 392.892 311.88L397.092 310.396C398.007 310.06 398.726 309.724 399.248 309.388C399.771 309.033 400.144 308.623 400.368 308.156C400.592 307.689 400.704 307.129 400.704 306.476C400.704 305.655 400.508 304.973 400.116 304.432C399.743 303.891 399.164 303.489 398.38 303.228C397.615 302.967 396.635 302.836 395.44 302.836C394.096 302.836 393.004 303.004 392.164 303.34C391.324 303.676 390.699 304.171 390.288 304.824C389.896 305.477 389.7 306.271 389.7 307.204V307.54H387.712V307.288C387.712 306.168 387.974 305.132 388.496 304.18C389.038 303.209 389.878 302.435 391.016 301.856C392.174 301.259 393.667 300.96 395.496 300.96C397.176 300.96 398.548 301.212 399.612 301.716C400.676 302.22 401.46 302.883 401.964 303.704C402.468 304.525 402.72 305.449 402.72 306.476C402.72 307.447 402.524 308.287 402.132 308.996C401.74 309.687 401.171 310.284 400.424 310.788C399.678 311.273 398.744 311.712 397.624 312.104L393.788 313.392C392.762 313.747 391.959 314.139 391.38 314.568C390.82 314.997 390.419 315.52 390.176 316.136C389.952 316.733 389.84 317.471 389.84 318.348L394.04 318.18H402.664V320ZM414.041 320.28C412.212 320.28 410.588 319.888 409.169 319.104C407.769 318.301 406.668 317.181 405.865 315.744C405.081 314.288 404.689 312.58 404.689 310.62C404.689 308.66 405.081 306.961 405.865 305.524C406.668 304.068 407.769 302.948 409.169 302.164C410.588 301.361 412.212 300.96 414.041 300.96C415.665 300.96 417.121 301.249 418.409 301.828C419.697 302.388 420.705 303.191 421.433 304.236C422.18 305.263 422.553 306.495 422.553 307.932V308.268H420.397V307.932C420.397 306.327 419.856 305.085 418.773 304.208C417.69 303.331 416.122 302.892 414.069 302.892C412.52 302.892 411.194 303.191 410.093 303.788C409.01 304.367 408.189 305.225 407.629 306.364C407.069 307.503 406.789 308.921 406.789 310.62C406.789 312.3 407.069 313.719 407.629 314.876C408.189 316.015 409.01 316.883 410.093 317.48C411.194 318.059 412.52 318.348 414.069 318.348C416.122 318.348 417.69 317.909 418.773 317.032C419.856 316.155 420.397 314.913 420.397 313.308V312.972H422.553V313.308C422.553 314.727 422.18 315.959 421.433 317.004C420.705 318.049 419.697 318.861 418.409 319.44C417.121 320 415.665 320.28 414.041 320.28ZM432.633 320.28C430.916 320.28 429.451 320.047 428.237 319.58C427.043 319.095 426.128 318.423 425.493 317.564C424.877 316.687 424.569 315.669 424.569 314.512V314.12H426.613V314.512C426.613 315.408 426.847 316.155 427.313 316.752C427.78 317.331 428.461 317.76 429.357 318.04C430.253 318.32 431.355 318.46 432.661 318.46C433.837 318.46 434.827 318.32 435.629 318.04C436.451 317.741 437.076 317.275 437.505 316.64C437.935 316.005 438.149 315.175 438.149 314.148C438.149 313.121 437.935 312.3 437.505 311.684C437.095 311.068 436.479 310.62 435.657 310.34C434.855 310.06 433.865 309.92 432.689 309.92C431.271 309.92 430.095 310.06 429.161 310.34C428.247 310.601 427.444 310.965 426.753 311.432L426.025 311.068V310.004L426.921 310.256C427.332 309.92 427.855 309.603 428.489 309.304C429.124 308.987 429.843 308.735 430.645 308.548C431.467 308.361 432.344 308.268 433.277 308.268C434.659 308.268 435.872 308.492 436.917 308.94C437.963 309.388 438.775 310.051 439.353 310.928C439.951 311.787 440.249 312.86 440.249 314.148C440.249 315.399 439.941 316.491 439.325 317.424C438.709 318.339 437.832 319.048 436.693 319.552C435.555 320.037 434.201 320.28 432.633 320.28ZM425.773 301.24H439.437V303.06H427.509L426.669 311.432L424.821 311.152L425.773 301.24ZM459.507 316.024H441.979V314.568L453.655 301.24H455.279L454.299 303.648H453.851L444.723 314.036V314.204H459.507V316.024ZM456.007 320H453.991V301.24H456.007V320Z" fill="black"/>
<path d="M623.5 320H621.484L623.248 315.464H618.992V313.672H623.948L626.16 307.82H621.4V306.028H626.888L628.708 301.24H630.696L628.876 306.028H634.868L636.688 301.24H638.676L636.856 306.028H641.224V307.82H636.128L633.916 313.672H638.816V315.464H633.216L631.48 320H629.464L631.2 315.464H625.236L623.5 320ZM628.12 307.792L625.852 313.7H631.984L634.224 307.792H628.12ZM650.799 320.28C649.101 320.28 647.626 320.084 646.375 319.692C645.143 319.3 644.191 318.703 643.519 317.9C642.847 317.097 642.511 316.099 642.511 314.904C642.511 314.12 642.689 313.411 643.043 312.776C643.398 312.141 643.921 311.6 644.611 311.152C645.321 310.685 646.189 310.359 647.215 310.172V309.976C645.853 309.789 644.807 309.313 644.079 308.548C643.37 307.783 643.015 306.877 643.015 305.832C643.015 304.395 643.669 303.228 644.975 302.332C646.301 301.417 648.242 300.96 650.799 300.96C653.375 300.96 655.317 301.417 656.623 302.332C657.93 303.228 658.583 304.395 658.583 305.832C658.583 306.877 658.219 307.783 657.491 308.548C656.782 309.313 655.746 309.789 654.383 309.976V310.172C655.429 310.359 656.297 310.685 656.987 311.152C657.697 311.6 658.219 312.141 658.555 312.776C658.91 313.411 659.087 314.12 659.087 314.904C659.087 316.099 658.751 317.097 658.079 317.9C657.407 318.703 656.446 319.3 655.195 319.692C653.963 320.084 652.498 320.28 650.799 320.28ZM650.799 318.376C652.293 318.376 653.497 318.245 654.411 317.984C655.326 317.723 655.998 317.321 656.427 316.78C656.857 316.22 657.071 315.492 657.071 314.596C657.071 313.775 656.857 313.093 656.427 312.552C655.998 312.011 655.317 311.609 654.383 311.348C653.469 311.068 652.274 310.928 650.799 310.928C649.343 310.928 648.149 311.068 647.215 311.348C646.282 311.609 645.601 312.011 645.171 312.552C644.742 313.093 644.527 313.775 644.527 314.596C644.527 315.492 644.742 316.22 645.171 316.78C645.601 317.321 646.273 317.723 647.187 317.984C648.121 318.245 649.325 318.376 650.799 318.376ZM650.799 309.5C652.125 309.5 653.217 309.379 654.075 309.136C654.934 308.893 655.569 308.529 655.979 308.044C656.39 307.559 656.595 306.943 656.595 306.196C656.595 305.505 656.418 304.908 656.063 304.404C655.709 303.9 655.102 303.517 654.243 303.256C653.403 302.995 652.255 302.864 650.799 302.864C649.343 302.864 648.195 302.995 647.355 303.256C646.515 303.517 645.909 303.9 645.535 304.404C645.181 304.908 645.003 305.505 645.003 306.196C645.003 306.943 645.209 307.559 645.619 308.044C646.049 308.529 646.683 308.893 647.523 309.136C648.382 309.379 649.474 309.5 650.799 309.5ZM675.903 320H661.035V318.628C661.035 317.415 661.193 316.397 661.511 315.576C661.828 314.736 662.36 314.027 663.107 313.448C663.872 312.851 664.88 312.328 666.131 311.88L670.331 310.396C671.245 310.06 671.964 309.724 672.487 309.388C673.009 309.033 673.383 308.623 673.607 308.156C673.831 307.689 673.943 307.129 673.943 306.476C673.943 305.655 673.747 304.973 673.355 304.432C672.981 303.891 672.403 303.489 671.619 303.228C670.853 302.967 669.873 302.836 668.679 302.836C667.335 302.836 666.243 303.004 665.403 303.34C664.563 303.676 663.937 304.171 663.527 304.824C663.135 305.477 662.939 306.271 662.939 307.204V307.54H660.951V307.288C660.951 306.168 661.212 305.132 661.735 304.18C662.276 303.209 663.116 302.435 664.255 301.856C665.412 301.259 666.905 300.96 668.735 300.96C670.415 300.96 671.787 301.212 672.851 301.716C673.915 302.22 674.699 302.883 675.203 303.704C675.707 304.525 675.959 305.449 675.959 306.476C675.959 307.447 675.763 308.287 675.371 308.996C674.979 309.687 674.409 310.284 673.663 310.788C672.916 311.273 671.983 311.712 670.863 312.104L667.027 313.392C666 313.747 665.197 314.139 664.619 314.568C664.059 314.997 663.657 315.52 663.415 316.136C663.191 316.733 663.079 317.471 663.079 318.348L667.279 318.18H675.903V320ZM686.747 320.28C684.75 320.28 683.117 319.944 681.847 319.272C680.578 318.6 679.635 317.545 679.019 316.108C678.422 314.671 678.123 312.785 678.123 310.452C678.123 309.052 678.291 307.773 678.627 306.616C678.982 305.459 679.505 304.46 680.195 303.62C680.905 302.761 681.791 302.108 682.855 301.66C683.938 301.193 685.217 300.96 686.691 300.96C688.11 300.96 689.379 301.203 690.499 301.688C691.638 302.155 692.525 302.836 693.159 303.732C693.794 304.609 694.111 305.683 694.111 306.952V307.148H691.955V306.952C691.955 306.187 691.787 305.496 691.451 304.88C691.115 304.245 690.565 303.751 689.799 303.396C689.034 303.041 687.998 302.864 686.691 302.864C685.105 302.864 683.835 303.144 682.883 303.704C681.95 304.245 681.269 305.076 680.839 306.196C680.41 307.297 680.195 308.688 680.195 310.368V312.048H680.391C680.615 311.357 681.035 310.732 681.651 310.172C682.267 309.612 683.061 309.173 684.031 308.856C685.002 308.539 686.103 308.38 687.335 308.38C688.866 308.38 690.173 308.623 691.255 309.108C692.338 309.575 693.169 310.247 693.747 311.124C694.326 312.001 694.615 313.047 694.615 314.26C694.615 316.089 693.925 317.555 692.543 318.656C691.181 319.739 689.249 320.28 686.747 320.28ZM686.691 318.376C688.035 318.376 689.137 318.227 689.995 317.928C690.873 317.611 691.517 317.135 691.927 316.5C692.357 315.865 692.571 315.072 692.571 314.12C692.571 313.187 692.366 312.412 691.955 311.796C691.545 311.161 690.91 310.685 690.051 310.368C689.193 310.051 688.082 309.892 686.719 309.892C685.45 309.892 684.358 310.06 683.443 310.396C682.529 310.713 681.819 311.171 681.315 311.768C680.83 312.365 680.587 313.093 680.587 313.952C680.587 314.923 680.821 315.744 681.287 316.416C681.773 317.069 682.463 317.564 683.359 317.9C684.274 318.217 685.385 318.376 686.691 318.376ZM702.506 320H700.518V305.076H696.094V303.564H697.074C698.12 303.564 698.922 303.396 699.482 303.06C700.042 302.724 700.509 302.117 700.882 301.24H702.506V320ZM707.822 320H705.834V301.24H707.822V320ZM719.47 312.02H706.506V310.228H719.47V312.02ZM719.89 303.06H706.506V301.24H719.89V303.06ZM724.529 320H722.541V301.24H724.529V320ZM736.177 312.02H723.213V310.228H736.177V312.02ZM736.597 303.06H723.213V301.24H736.597V303.06Z" fill="black"/>
<path d="M901.673 320H899.657L901.421 315.464H897.165V313.672H902.121L904.333 307.82H899.573V306.028H905.061L906.881 301.24H908.869L907.049 306.028H913.041L914.861 301.24H916.849L915.029 306.028H919.397V307.82H914.301L912.089 313.672H916.989V315.464H911.389L909.653 320H907.637L909.373 315.464H903.409L901.673 320ZM906.293 307.792L904.025 313.7H910.157L912.397 307.792H906.293ZM930.289 320.28C928.46 320.28 926.836 319.888 925.417 319.104C924.017 318.301 922.916 317.181 922.113 315.744C921.329 314.288 920.937 312.58 920.937 310.62C920.937 308.66 921.329 306.961 922.113 305.524C922.916 304.068 924.017 302.948 925.417 302.164C926.836 301.361 928.46 300.96 930.289 300.96C931.913 300.96 933.369 301.249 934.657 301.828C935.945 302.388 936.953 303.191 937.681 304.236C938.428 305.263 938.801 306.495 938.801 307.932V308.268H936.645V307.932C936.645 306.327 936.104 305.085 935.021 304.208C933.938 303.331 932.37 302.892 930.317 302.892C928.768 302.892 927.442 303.191 926.341 303.788C925.258 304.367 924.437 305.225 923.877 306.364C923.317 307.503 923.037 308.921 923.037 310.62C923.037 312.3 923.317 313.719 923.877 314.876C924.437 316.015 925.258 316.883 926.341 317.48C927.442 318.059 928.768 318.348 930.317 318.348C932.37 318.348 933.938 317.909 935.021 317.032C936.104 316.155 936.645 314.913 936.645 313.308V312.972H938.801V313.308C938.801 314.727 938.428 315.959 937.681 317.004C936.953 318.049 935.945 318.861 934.657 319.44C933.369 320 931.913 320.28 930.289 320.28ZM943.449 320H941.461V301.24H943.449V320ZM955.097 312.02H942.133V310.228H955.097V312.02ZM955.517 303.06H942.133V301.24H955.517V303.06ZM965.504 320.28C963.806 320.28 962.331 320.084 961.08 319.692C959.848 319.3 958.896 318.703 958.224 317.9C957.552 317.097 957.216 316.099 957.216 314.904C957.216 314.12 957.394 313.411 957.748 312.776C958.103 312.141 958.626 311.6 959.316 311.152C960.026 310.685 960.894 310.359 961.92 310.172V309.976C960.558 309.789 959.512 309.313 958.784 308.548C958.075 307.783 957.72 306.877 957.72 305.832C957.72 304.395 958.374 303.228 959.68 302.332C961.006 301.417 962.947 300.96 965.504 300.96C968.08 300.96 970.022 301.417 971.328 302.332C972.635 303.228 973.288 304.395 973.288 305.832C973.288 306.877 972.924 307.783 972.196 308.548C971.487 309.313 970.451 309.789 969.088 309.976V310.172C970.134 310.359 971.002 310.685 971.692 311.152C972.402 311.6 972.924 312.141 973.26 312.776C973.615 313.411 973.792 314.12 973.792 314.904C973.792 316.099 973.456 317.097 972.784 317.9C972.112 318.703 971.151 319.3 969.9 319.692C968.668 320.084 967.203 320.28 965.504 320.28ZM965.504 318.376C966.998 318.376 968.202 318.245 969.116 317.984C970.031 317.723 970.703 317.321 971.132 316.78C971.562 316.22 971.776 315.492 971.776 314.596C971.776 313.775 971.562 313.093 971.132 312.552C970.703 312.011 970.022 311.609 969.088 311.348C968.174 311.068 966.979 310.928 965.504 310.928C964.048 310.928 962.854 311.068 961.92 311.348C960.987 311.609 960.306 312.011 959.876 312.552C959.447 313.093 959.232 313.775 959.232 314.596C959.232 315.492 959.447 316.22 959.876 316.78C960.306 317.321 960.978 317.723 961.892 317.984C962.826 318.245 964.03 318.376 965.504 318.376ZM965.504 309.5C966.83 309.5 967.922 309.379 968.78 309.136C969.639 308.893 970.274 308.529 970.684 308.044C971.095 307.559 971.3 306.943 971.3 306.196C971.3 305.505 971.123 304.908 970.768 304.404C970.414 303.9 969.807 303.517 968.948 303.256C968.108 302.995 966.96 302.864 965.504 302.864C964.048 302.864 962.9 302.995 962.06 303.256C961.22 303.517 960.614 303.9 960.24 304.404C959.886 304.908 959.708 305.505 959.708 306.196C959.708 306.943 959.914 307.559 960.324 308.044C960.754 308.529 961.388 308.893 962.228 309.136C963.087 309.379 964.179 309.5 965.504 309.5ZM990.608 320H975.74V318.628C975.74 317.415 975.898 316.397 976.216 315.576C976.533 314.736 977.065 314.027 977.812 313.448C978.577 312.851 979.585 312.328 980.836 311.88L985.036 310.396C985.95 310.06 986.669 309.724 987.192 309.388C987.714 309.033 988.088 308.623 988.312 308.156C988.536 307.689 988.648 307.129 988.648 306.476C988.648 305.655 988.452 304.973 988.06 304.432C987.686 303.891 987.108 303.489 986.324 303.228C985.558 302.967 984.578 302.836 983.384 302.836C982.04 302.836 980.948 303.004 980.108 303.34C979.268 303.676 978.642 304.171 978.232 304.824C977.84 305.477 977.644 306.271 977.644 307.204V307.54H975.656V307.288C975.656 306.168 975.917 305.132 976.44 304.18C976.981 303.209 977.821 302.435 978.96 301.856C980.117 301.259 981.61 300.96 983.44 300.96C985.12 300.96 986.492 301.212 987.556 301.716C988.62 302.22 989.404 302.883 989.908 303.704C990.412 304.525 990.664 305.449 990.664 306.476C990.664 307.447 990.468 308.287 990.076 308.996C989.684 309.687 989.114 310.284 988.368 310.788C987.621 311.273 986.688 311.712 985.568 312.104L981.732 313.392C980.705 313.747 979.902 314.139 979.324 314.568C978.764 314.997 978.362 315.52 978.12 316.136C977.896 316.733 977.784 317.471 977.784 318.348L981.984 318.18H990.608V320ZM995.32 320H993.332V301.24H995.32V320ZM1006.97 312.02H994.004V310.228H1006.97V312.02ZM1007.39 303.06H994.004V301.24H1007.39V303.06ZM1012.03 320H1010.04V301.24H1012.03V320ZM1024.29 320H1010.71V318.18H1024.29V320ZM1023.87 311.46H1010.71V309.668H1023.87V311.46ZM1024.29 303.06H1010.71V301.24H1024.29V303.06Z" fill="black"/>
<path d="M1184.45 320H1182.44L1184.2 315.464H1179.95V313.672H1184.9L1187.11 307.82H1182.35V306.028H1187.84L1189.66 301.24H1191.65L1189.83 306.028H1195.82L1197.64 301.24H1199.63L1197.81 306.028H1202.18V307.82H1197.08L1194.87 313.672H1199.77V315.464H1194.17L1192.43 320H1190.42L1192.15 315.464H1186.19L1184.45 320ZM1189.07 307.792L1186.81 313.7H1192.94L1195.18 307.792H1189.07ZM1212.54 320.28C1210.54 320.28 1208.91 319.944 1207.64 319.272C1206.37 318.6 1205.43 317.545 1204.81 316.108C1204.21 314.671 1203.91 312.785 1203.91 310.452C1203.91 309.052 1204.08 307.773 1204.42 306.616C1204.77 305.459 1205.3 304.46 1205.99 303.62C1206.7 302.761 1207.58 302.108 1208.65 301.66C1209.73 301.193 1211.01 300.96 1212.48 300.96C1213.9 300.96 1215.17 301.203 1216.29 301.688C1217.43 302.155 1218.32 302.836 1218.95 303.732C1219.58 304.609 1219.9 305.683 1219.9 306.952V307.148H1217.75V306.952C1217.75 306.187 1217.58 305.496 1217.24 304.88C1216.91 304.245 1216.36 303.751 1215.59 303.396C1214.82 303.041 1213.79 302.864 1212.48 302.864C1210.9 302.864 1209.63 303.144 1208.67 303.704C1207.74 304.245 1207.06 305.076 1206.63 306.196C1206.2 307.297 1205.99 308.688 1205.99 310.368V312.048H1206.18C1206.41 311.357 1206.83 310.732 1207.44 310.172C1208.06 309.612 1208.85 309.173 1209.82 308.856C1210.79 308.539 1211.89 308.38 1213.13 308.38C1214.66 308.38 1215.96 308.623 1217.05 309.108C1218.13 309.575 1218.96 310.247 1219.54 311.124C1220.12 312.001 1220.41 313.047 1220.41 314.26C1220.41 316.089 1219.72 317.555 1218.33 318.656C1216.97 319.739 1215.04 320.28 1212.54 320.28ZM1212.48 318.376C1213.83 318.376 1214.93 318.227 1215.79 317.928C1216.66 317.611 1217.31 317.135 1217.72 316.5C1218.15 315.865 1218.36 315.072 1218.36 314.12C1218.36 313.187 1218.16 312.412 1217.75 311.796C1217.34 311.161 1216.7 310.685 1215.84 310.368C1214.98 310.051 1213.87 309.892 1212.51 309.892C1211.24 309.892 1210.15 310.06 1209.23 310.396C1208.32 310.713 1207.61 311.171 1207.11 311.768C1206.62 312.365 1206.38 313.093 1206.38 313.952C1206.38 314.923 1206.61 315.744 1207.08 316.416C1207.56 317.069 1208.25 317.564 1209.15 317.9C1210.06 318.217 1211.18 318.376 1212.48 318.376ZM1230.62 320.28C1228.92 320.28 1227.45 320.084 1226.2 319.692C1224.97 319.3 1224.01 318.703 1223.34 317.9C1222.67 317.097 1222.33 316.099 1222.33 314.904C1222.33 314.12 1222.51 313.411 1222.87 312.776C1223.22 312.141 1223.74 311.6 1224.43 311.152C1225.14 310.685 1226.01 310.359 1227.04 310.172V309.976C1225.67 309.789 1224.63 309.313 1223.9 308.548C1223.19 307.783 1222.84 306.877 1222.84 305.832C1222.84 304.395 1223.49 303.228 1224.8 302.332C1226.12 301.417 1228.06 300.96 1230.62 300.96C1233.2 300.96 1235.14 301.417 1236.45 302.332C1237.75 303.228 1238.41 304.395 1238.41 305.832C1238.41 306.877 1238.04 307.783 1237.31 308.548C1236.6 309.313 1235.57 309.789 1234.21 309.976V310.172C1235.25 310.359 1236.12 310.685 1236.81 311.152C1237.52 311.6 1238.04 312.141 1238.38 312.776C1238.73 313.411 1238.91 314.12 1238.91 314.904C1238.91 316.099 1238.57 317.097 1237.9 317.9C1237.23 318.703 1236.27 319.3 1235.02 319.692C1233.79 320.084 1232.32 320.28 1230.62 320.28ZM1230.62 318.376C1232.11 318.376 1233.32 318.245 1234.23 317.984C1235.15 317.723 1235.82 317.321 1236.25 316.78C1236.68 316.22 1236.89 315.492 1236.89 314.596C1236.89 313.775 1236.68 313.093 1236.25 312.552C1235.82 312.011 1235.14 311.609 1234.21 311.348C1233.29 311.068 1232.1 310.928 1230.62 310.928C1229.17 310.928 1227.97 311.068 1227.04 311.348C1226.1 311.609 1225.42 312.011 1224.99 312.552C1224.56 313.093 1224.35 313.775 1224.35 314.596C1224.35 315.492 1224.56 316.22 1224.99 316.78C1225.42 317.321 1226.09 317.723 1227.01 317.984C1227.94 318.245 1229.15 318.376 1230.62 318.376ZM1230.62 309.5C1231.95 309.5 1233.04 309.379 1233.9 309.136C1234.76 308.893 1235.39 308.529 1235.8 308.044C1236.21 307.559 1236.42 306.943 1236.42 306.196C1236.42 305.505 1236.24 304.908 1235.89 304.404C1235.53 303.9 1234.92 303.517 1234.07 303.256C1233.23 302.995 1232.08 302.864 1230.62 302.864C1229.17 302.864 1228.02 302.995 1227.18 303.256C1226.34 303.517 1225.73 303.9 1225.36 304.404C1225 304.908 1224.83 305.505 1224.83 306.196C1224.83 306.943 1225.03 307.559 1225.44 308.044C1225.87 308.529 1226.51 308.893 1227.35 309.136C1228.2 309.379 1229.3 309.5 1230.62 309.5ZM1243.29 320H1241.31V301.24H1243.29V320ZM1254.94 312.02H1241.98V310.228H1254.94V312.02ZM1255.36 303.06H1241.98V301.24H1255.36V303.06ZM1266.13 320.28C1264.13 320.28 1262.5 319.944 1261.23 319.272C1259.96 318.6 1259.02 317.545 1258.4 316.108C1257.81 314.671 1257.51 312.785 1257.51 310.452C1257.51 309.052 1257.68 307.773 1258.01 306.616C1258.37 305.459 1258.89 304.46 1259.58 303.62C1260.29 302.761 1261.18 302.108 1262.24 301.66C1263.32 301.193 1264.6 300.96 1266.08 300.96C1267.49 300.96 1268.76 301.203 1269.88 301.688C1271.02 302.155 1271.91 302.836 1272.54 303.732C1273.18 304.609 1273.5 305.683 1273.5 306.952V307.148H1271.34V306.952C1271.34 306.187 1271.17 305.496 1270.84 304.88C1270.5 304.245 1269.95 303.751 1269.18 303.396C1268.42 303.041 1267.38 302.864 1266.08 302.864C1264.49 302.864 1263.22 303.144 1262.27 303.704C1261.33 304.245 1260.65 305.076 1260.22 306.196C1259.79 307.297 1259.58 308.688 1259.58 310.368V312.048H1259.78C1260 311.357 1260.42 310.732 1261.04 310.172C1261.65 309.612 1262.45 309.173 1263.42 308.856C1264.39 308.539 1265.49 308.38 1266.72 308.38C1268.25 308.38 1269.56 308.623 1270.64 309.108C1271.72 309.575 1272.55 310.247 1273.13 311.124C1273.71 312.001 1274 313.047 1274 314.26C1274 316.089 1273.31 317.555 1271.93 318.656C1270.57 319.739 1268.63 320.28 1266.13 320.28ZM1266.08 318.376C1267.42 318.376 1268.52 318.227 1269.38 317.928C1270.26 317.611 1270.9 317.135 1271.31 316.5C1271.74 315.865 1271.96 315.072 1271.96 314.12C1271.96 313.187 1271.75 312.412 1271.34 311.796C1270.93 311.161 1270.29 310.685 1269.44 310.368C1268.58 310.051 1267.47 309.892 1266.1 309.892C1264.83 309.892 1263.74 310.06 1262.83 310.396C1261.91 310.713 1261.2 311.171 1260.7 311.768C1260.21 312.365 1259.97 313.093 1259.97 313.952C1259.97 314.923 1260.21 315.744 1260.67 316.416C1261.16 317.069 1261.85 317.564 1262.74 317.9C1263.66 318.217 1264.77 318.376 1266.08 318.376ZM1278.87 320H1276.88V301.24H1278.87V320ZM1290.52 312.02H1277.55V310.228H1290.52V312.02ZM1290.94 303.06H1277.55V301.24H1290.94V303.06ZM1295.57 320H1293.59V301.24H1295.57V320ZM1307.22 312.02H1294.26V310.228H1307.22V312.02ZM1307.64 303.06H1294.26V301.24H1307.64V303.06Z" fill="black"/>
</svg>
