<svg width="1586" height="383" viewBox="0 0 1586 383" fill="none" xmlns="http://www.w3.org/2000/svg">
<rect width="1586" height="383" fill="white"/>
<circle cx="144" cy="156" r="110.5" fill="#FFF44F" stroke="black" stroke-width="3"/>
<circle cx="427" cy="156" r="110.5" fill="#FF2C54" stroke="black" stroke-width="3"/>
<circle cx="710" cy="156" r="110.5" fill="#8261FF" stroke="black" stroke-width="3"/>
<circle cx="993" cy="156" r="110.5" fill="#CF82FE" stroke="black" stroke-width="3"/>
<circle cx="1276" cy="156" r="110.5" fill="#68F6FF" stroke="black" stroke-width="3"/>
<circle cx="1498" cy="95" r="49.5" fill="black" stroke="black" stroke-width="3"/>
<circle cx="1498" cy="217" r="49.5" fill="white" stroke="black" stroke-width="3"/>
<path d="M85.0563 334H83.0403L84.8043 329.464H80.5483V327.672H85.5043L87.7163 321.82H82.9563V320.028H88.4443L90.2643 315.24H92.2523L90.4323 320.028H96.4243L98.2443 315.24H100.232L98.4123 320.028H102.78V321.82H97.6843L95.4723 327.672H100.372V329.464H94.7723L93.0363 334H91.0203L92.7563 329.464H86.7923L85.0563 334ZM89.6763 321.792L87.4083 327.7H93.5403L95.7803 321.792H89.6763ZM107.008 334H105.02V315.24H107.008V334ZM118.656 326.02H105.692V324.228H118.656V326.02ZM119.076 317.06H105.692V315.24H119.076V317.06ZM123.715 334H121.727V315.24H123.715V334ZM135.363 326.02H122.399V324.228H135.363V326.02ZM135.783 317.06H122.399V315.24H135.783V317.06ZM140.422 334H138.434V315.24H140.422V334ZM152.07 326.02H139.106V324.228H152.07V326.02ZM152.49 317.06H139.106V315.24H152.49V317.06ZM171.689 330.024H154.161V328.568L165.837 315.24H167.461L166.481 317.648H166.033L156.905 328.036V328.204H171.689V330.024ZM168.189 334H166.173V315.24H168.189V334ZM190.611 330.024H173.083V328.568L184.759 315.24H186.383L185.403 317.648H184.955L175.827 328.036V328.204H190.611V330.024ZM187.111 334H185.095V315.24H187.111V334ZM194.973 334H192.985V315.24H194.973V334ZM206.621 326.02H193.657V324.228H206.621V326.02ZM207.041 317.06H193.657V315.24H207.041V317.06Z" fill="black"/>
<path d="M366.867 334H364.851L366.615 329.464H362.359V327.672H367.315L369.527 321.82H364.767V320.028H370.255L372.075 315.24H374.063L372.243 320.028H378.235L380.055 315.24H382.043L380.223 320.028H384.591V321.82H379.495L377.283 327.672H382.183V329.464H376.583L374.847 334H372.831L374.567 329.464H368.603L366.867 334ZM371.487 321.792L369.219 327.7H375.351L377.591 321.792H371.487ZM388.818 334H386.83V315.24H388.818V334ZM400.466 326.02H387.502V324.228H400.466V326.02ZM400.886 317.06H387.502V315.24H400.886V317.06ZM405.525 334H403.537V315.24H405.525V334ZM417.173 326.02H404.209V324.228H417.173V326.02ZM417.593 317.06H404.209V315.24H417.593V317.06ZM434.664 334H419.796V332.628C419.796 331.415 419.955 330.397 420.272 329.576C420.59 328.736 421.122 328.027 421.868 327.448C422.634 326.851 423.642 326.328 424.892 325.88L429.092 324.396C430.007 324.06 430.726 323.724 431.248 323.388C431.771 323.033 432.144 322.623 432.368 322.156C432.592 321.689 432.704 321.129 432.704 320.476C432.704 319.655 432.508 318.973 432.116 318.432C431.743 317.891 431.164 317.489 430.38 317.228C429.615 316.967 428.635 316.836 427.44 316.836C426.096 316.836 425.004 317.004 424.164 317.34C423.324 317.676 422.699 318.171 422.288 318.824C421.896 319.477 421.7 320.271 421.7 321.204V321.54H419.712V321.288C419.712 320.168 419.974 319.132 420.496 318.18C421.038 317.209 421.878 316.435 423.016 315.856C424.174 315.259 425.667 314.96 427.496 314.96C429.176 314.96 430.548 315.212 431.612 315.716C432.676 316.22 433.46 316.883 433.964 317.704C434.468 318.525 434.72 319.449 434.72 320.476C434.72 321.447 434.524 322.287 434.132 322.996C433.74 323.687 433.171 324.284 432.424 324.788C431.678 325.273 430.744 325.712 429.624 326.104L425.788 327.392C424.762 327.747 423.959 328.139 423.38 328.568C422.82 328.997 422.419 329.52 422.176 330.136C421.952 330.733 421.84 331.471 421.84 332.348L426.04 332.18H434.664V334ZM446.041 334.28C444.212 334.28 442.588 333.888 441.169 333.104C439.769 332.301 438.668 331.181 437.865 329.744C437.081 328.288 436.689 326.58 436.689 324.62C436.689 322.66 437.081 320.961 437.865 319.524C438.668 318.068 439.769 316.948 441.169 316.164C442.588 315.361 444.212 314.96 446.041 314.96C447.665 314.96 449.121 315.249 450.409 315.828C451.697 316.388 452.705 317.191 453.433 318.236C454.18 319.263 454.553 320.495 454.553 321.932V322.268H452.397V321.932C452.397 320.327 451.856 319.085 450.773 318.208C449.69 317.331 448.122 316.892 446.069 316.892C444.52 316.892 443.194 317.191 442.093 317.788C441.01 318.367 440.189 319.225 439.629 320.364C439.069 321.503 438.789 322.921 438.789 324.62C438.789 326.3 439.069 327.719 439.629 328.876C440.189 330.015 441.01 330.883 442.093 331.48C443.194 332.059 444.52 332.348 446.069 332.348C448.122 332.348 449.69 331.909 450.773 331.032C451.856 330.155 452.397 328.913 452.397 327.308V326.972H454.553V327.308C454.553 328.727 454.18 329.959 453.433 331.004C452.705 332.049 451.697 332.861 450.409 333.44C449.121 334 447.665 334.28 446.041 334.28ZM464.633 334.28C462.916 334.28 461.451 334.047 460.237 333.58C459.043 333.095 458.128 332.423 457.493 331.564C456.877 330.687 456.569 329.669 456.569 328.512V328.12H458.613V328.512C458.613 329.408 458.847 330.155 459.313 330.752C459.78 331.331 460.461 331.76 461.357 332.04C462.253 332.32 463.355 332.46 464.661 332.46C465.837 332.46 466.827 332.32 467.629 332.04C468.451 331.741 469.076 331.275 469.505 330.64C469.935 330.005 470.149 329.175 470.149 328.148C470.149 327.121 469.935 326.3 469.505 325.684C469.095 325.068 468.479 324.62 467.657 324.34C466.855 324.06 465.865 323.92 464.689 323.92C463.271 323.92 462.095 324.06 461.161 324.34C460.247 324.601 459.444 324.965 458.753 325.432L458.025 325.068V324.004L458.921 324.256C459.332 323.92 459.855 323.603 460.489 323.304C461.124 322.987 461.843 322.735 462.645 322.548C463.467 322.361 464.344 322.268 465.277 322.268C466.659 322.268 467.872 322.492 468.917 322.94C469.963 323.388 470.775 324.051 471.353 324.928C471.951 325.787 472.249 326.86 472.249 328.148C472.249 329.399 471.941 330.491 471.325 331.424C470.709 332.339 469.832 333.048 468.693 333.552C467.555 334.037 466.201 334.28 464.633 334.28ZM457.773 315.24H471.437V317.06H459.509L458.669 325.432L456.821 325.152L457.773 315.24ZM491.507 330.024H473.979V328.568L485.655 315.24H487.279L486.299 317.648H485.851L476.723 328.036V328.204H491.507V330.024ZM488.007 334H485.991V315.24H488.007V334Z" fill="black"/>
<path d="M655.5 334H653.484L655.248 329.464H650.992V327.672H655.948L658.16 321.82H653.4V320.028H658.888L660.708 315.24H662.696L660.876 320.028H666.868L668.688 315.24H670.676L668.856 320.028H673.224V321.82H668.128L665.916 327.672H670.816V329.464H665.216L663.48 334H661.464L663.2 329.464H657.236L655.5 334ZM660.12 321.792L657.852 327.7H663.984L666.224 321.792H660.12ZM682.799 334.28C681.101 334.28 679.626 334.084 678.375 333.692C677.143 333.3 676.191 332.703 675.519 331.9C674.847 331.097 674.511 330.099 674.511 328.904C674.511 328.12 674.689 327.411 675.043 326.776C675.398 326.141 675.921 325.6 676.611 325.152C677.321 324.685 678.189 324.359 679.215 324.172V323.976C677.853 323.789 676.807 323.313 676.079 322.548C675.37 321.783 675.015 320.877 675.015 319.832C675.015 318.395 675.669 317.228 676.975 316.332C678.301 315.417 680.242 314.96 682.799 314.96C685.375 314.96 687.317 315.417 688.623 316.332C689.93 317.228 690.583 318.395 690.583 319.832C690.583 320.877 690.219 321.783 689.491 322.548C688.782 323.313 687.746 323.789 686.383 323.976V324.172C687.429 324.359 688.297 324.685 688.987 325.152C689.697 325.6 690.219 326.141 690.555 326.776C690.91 327.411 691.087 328.12 691.087 328.904C691.087 330.099 690.751 331.097 690.079 331.9C689.407 332.703 688.446 333.3 687.195 333.692C685.963 334.084 684.498 334.28 682.799 334.28ZM682.799 332.376C684.293 332.376 685.497 332.245 686.411 331.984C687.326 331.723 687.998 331.321 688.427 330.78C688.857 330.22 689.071 329.492 689.071 328.596C689.071 327.775 688.857 327.093 688.427 326.552C687.998 326.011 687.317 325.609 686.383 325.348C685.469 325.068 684.274 324.928 682.799 324.928C681.343 324.928 680.149 325.068 679.215 325.348C678.282 325.609 677.601 326.011 677.171 326.552C676.742 327.093 676.527 327.775 676.527 328.596C676.527 329.492 676.742 330.22 677.171 330.78C677.601 331.321 678.273 331.723 679.187 331.984C680.121 332.245 681.325 332.376 682.799 332.376ZM682.799 323.5C684.125 323.5 685.217 323.379 686.075 323.136C686.934 322.893 687.569 322.529 687.979 322.044C688.39 321.559 688.595 320.943 688.595 320.196C688.595 319.505 688.418 318.908 688.063 318.404C687.709 317.9 687.102 317.517 686.243 317.256C685.403 316.995 684.255 316.864 682.799 316.864C681.343 316.864 680.195 316.995 679.355 317.256C678.515 317.517 677.909 317.9 677.535 318.404C677.181 318.908 677.003 319.505 677.003 320.196C677.003 320.943 677.209 321.559 677.619 322.044C678.049 322.529 678.683 322.893 679.523 323.136C680.382 323.379 681.474 323.5 682.799 323.5ZM707.903 334H693.035V332.628C693.035 331.415 693.193 330.397 693.511 329.576C693.828 328.736 694.36 328.027 695.107 327.448C695.872 326.851 696.88 326.328 698.131 325.88L702.331 324.396C703.245 324.06 703.964 323.724 704.487 323.388C705.009 323.033 705.383 322.623 705.607 322.156C705.831 321.689 705.943 321.129 705.943 320.476C705.943 319.655 705.747 318.973 705.355 318.432C704.981 317.891 704.403 317.489 703.619 317.228C702.853 316.967 701.873 316.836 700.679 316.836C699.335 316.836 698.243 317.004 697.403 317.34C696.563 317.676 695.937 318.171 695.527 318.824C695.135 319.477 694.939 320.271 694.939 321.204V321.54H692.951V321.288C692.951 320.168 693.212 319.132 693.735 318.18C694.276 317.209 695.116 316.435 696.255 315.856C697.412 315.259 698.905 314.96 700.735 314.96C702.415 314.96 703.787 315.212 704.851 315.716C705.915 316.22 706.699 316.883 707.203 317.704C707.707 318.525 707.959 319.449 707.959 320.476C707.959 321.447 707.763 322.287 707.371 322.996C706.979 323.687 706.409 324.284 705.663 324.788C704.916 325.273 703.983 325.712 702.863 326.104L699.027 327.392C698 327.747 697.197 328.139 696.619 328.568C696.059 328.997 695.657 329.52 695.415 330.136C695.191 330.733 695.079 331.471 695.079 332.348L699.279 332.18H707.903V334ZM718.747 334.28C716.75 334.28 715.117 333.944 713.847 333.272C712.578 332.6 711.635 331.545 711.019 330.108C710.422 328.671 710.123 326.785 710.123 324.452C710.123 323.052 710.291 321.773 710.627 320.616C710.982 319.459 711.505 318.46 712.195 317.62C712.905 316.761 713.791 316.108 714.855 315.66C715.938 315.193 717.217 314.96 718.691 314.96C720.11 314.96 721.379 315.203 722.499 315.688C723.638 316.155 724.525 316.836 725.159 317.732C725.794 318.609 726.111 319.683 726.111 320.952V321.148H723.955V320.952C723.955 320.187 723.787 319.496 723.451 318.88C723.115 318.245 722.565 317.751 721.799 317.396C721.034 317.041 719.998 316.864 718.691 316.864C717.105 316.864 715.835 317.144 714.883 317.704C713.95 318.245 713.269 319.076 712.839 320.196C712.41 321.297 712.195 322.688 712.195 324.368V326.048H712.391C712.615 325.357 713.035 324.732 713.651 324.172C714.267 323.612 715.061 323.173 716.031 322.856C717.002 322.539 718.103 322.38 719.335 322.38C720.866 322.38 722.173 322.623 723.255 323.108C724.338 323.575 725.169 324.247 725.747 325.124C726.326 326.001 726.615 327.047 726.615 328.26C726.615 330.089 725.925 331.555 724.543 332.656C723.181 333.739 721.249 334.28 718.747 334.28ZM718.691 332.376C720.035 332.376 721.137 332.227 721.995 331.928C722.873 331.611 723.517 331.135 723.927 330.5C724.357 329.865 724.571 329.072 724.571 328.12C724.571 327.187 724.366 326.412 723.955 325.796C723.545 325.161 722.91 324.685 722.051 324.368C721.193 324.051 720.082 323.892 718.719 323.892C717.45 323.892 716.358 324.06 715.443 324.396C714.529 324.713 713.819 325.171 713.315 325.768C712.83 326.365 712.587 327.093 712.587 327.952C712.587 328.923 712.821 329.744 713.287 330.416C713.773 331.069 714.463 331.564 715.359 331.9C716.274 332.217 717.385 332.376 718.691 332.376ZM734.506 334H732.518V319.076H728.094V317.564H729.074C730.12 317.564 730.922 317.396 731.482 317.06C732.042 316.724 732.509 316.117 732.882 315.24H734.506V334ZM739.822 334H737.834V315.24H739.822V334ZM751.47 326.02H738.506V324.228H751.47V326.02ZM751.89 317.06H738.506V315.24H751.89V317.06ZM756.529 334H754.541V315.24H756.529V334ZM768.177 326.02H755.213V324.228H768.177V326.02ZM768.597 317.06H755.213V315.24H768.597V317.06Z" fill="black"/>
<path d="M933.673 334H931.657L933.421 329.464H929.165V327.672H934.121L936.333 321.82H931.573V320.028H937.061L938.881 315.24H940.869L939.049 320.028H945.041L946.861 315.24H948.849L947.029 320.028H951.397V321.82H946.301L944.089 327.672H948.989V329.464H943.389L941.653 334H939.637L941.373 329.464H935.409L933.673 334ZM938.293 321.792L936.025 327.7H942.157L944.397 321.792H938.293ZM962.289 334.28C960.46 334.28 958.836 333.888 957.417 333.104C956.017 332.301 954.916 331.181 954.113 329.744C953.329 328.288 952.937 326.58 952.937 324.62C952.937 322.66 953.329 320.961 954.113 319.524C954.916 318.068 956.017 316.948 957.417 316.164C958.836 315.361 960.46 314.96 962.289 314.96C963.913 314.96 965.369 315.249 966.657 315.828C967.945 316.388 968.953 317.191 969.681 318.236C970.428 319.263 970.801 320.495 970.801 321.932V322.268H968.645V321.932C968.645 320.327 968.104 319.085 967.021 318.208C965.938 317.331 964.37 316.892 962.317 316.892C960.768 316.892 959.442 317.191 958.341 317.788C957.258 318.367 956.437 319.225 955.877 320.364C955.317 321.503 955.037 322.921 955.037 324.62C955.037 326.3 955.317 327.719 955.877 328.876C956.437 330.015 957.258 330.883 958.341 331.48C959.442 332.059 960.768 332.348 962.317 332.348C964.37 332.348 965.938 331.909 967.021 331.032C968.104 330.155 968.645 328.913 968.645 327.308V326.972H970.801V327.308C970.801 328.727 970.428 329.959 969.681 331.004C968.953 332.049 967.945 332.861 966.657 333.44C965.369 334 963.913 334.28 962.289 334.28ZM975.449 334H973.461V315.24H975.449V334ZM987.097 326.02H974.133V324.228H987.097V326.02ZM987.517 317.06H974.133V315.24H987.517V317.06ZM997.504 334.28C995.806 334.28 994.331 334.084 993.08 333.692C991.848 333.3 990.896 332.703 990.224 331.9C989.552 331.097 989.216 330.099 989.216 328.904C989.216 328.12 989.394 327.411 989.748 326.776C990.103 326.141 990.626 325.6 991.316 325.152C992.026 324.685 992.894 324.359 993.92 324.172V323.976C992.558 323.789 991.512 323.313 990.784 322.548C990.075 321.783 989.72 320.877 989.72 319.832C989.72 318.395 990.374 317.228 991.68 316.332C993.006 315.417 994.947 314.96 997.504 314.96C1000.08 314.96 1002.02 315.417 1003.33 316.332C1004.63 317.228 1005.29 318.395 1005.29 319.832C1005.29 320.877 1004.92 321.783 1004.2 322.548C1003.49 323.313 1002.45 323.789 1001.09 323.976V324.172C1002.13 324.359 1003 324.685 1003.69 325.152C1004.4 325.6 1004.92 326.141 1005.26 326.776C1005.61 327.411 1005.79 328.12 1005.79 328.904C1005.79 330.099 1005.46 331.097 1004.78 331.9C1004.11 332.703 1003.15 333.3 1001.9 333.692C1000.67 334.084 999.203 334.28 997.504 334.28ZM997.504 332.376C998.998 332.376 1000.2 332.245 1001.12 331.984C1002.03 331.723 1002.7 331.321 1003.13 330.78C1003.56 330.22 1003.78 329.492 1003.78 328.596C1003.78 327.775 1003.56 327.093 1003.13 326.552C1002.7 326.011 1002.02 325.609 1001.09 325.348C1000.17 325.068 998.979 324.928 997.504 324.928C996.048 324.928 994.854 325.068 993.92 325.348C992.987 325.609 992.306 326.011 991.876 326.552C991.447 327.093 991.232 327.775 991.232 328.596C991.232 329.492 991.447 330.22 991.876 330.78C992.306 331.321 992.978 331.723 993.892 331.984C994.826 332.245 996.03 332.376 997.504 332.376ZM997.504 323.5C998.83 323.5 999.922 323.379 1000.78 323.136C1001.64 322.893 1002.27 322.529 1002.68 322.044C1003.09 321.559 1003.3 320.943 1003.3 320.196C1003.3 319.505 1003.12 318.908 1002.77 318.404C1002.41 317.9 1001.81 317.517 1000.95 317.256C1000.11 316.995 998.96 316.864 997.504 316.864C996.048 316.864 994.9 316.995 994.06 317.256C993.22 317.517 992.614 317.9 992.24 318.404C991.886 318.908 991.708 319.505 991.708 320.196C991.708 320.943 991.914 321.559 992.324 322.044C992.754 322.529 993.388 322.893 994.228 323.136C995.087 323.379 996.179 323.5 997.504 323.5ZM1022.61 334H1007.74V332.628C1007.74 331.415 1007.9 330.397 1008.22 329.576C1008.53 328.736 1009.07 328.027 1009.81 327.448C1010.58 326.851 1011.59 326.328 1012.84 325.88L1017.04 324.396C1017.95 324.06 1018.67 323.724 1019.19 323.388C1019.71 323.033 1020.09 322.623 1020.31 322.156C1020.54 321.689 1020.65 321.129 1020.65 320.476C1020.65 319.655 1020.45 318.973 1020.06 318.432C1019.69 317.891 1019.11 317.489 1018.32 317.228C1017.56 316.967 1016.58 316.836 1015.38 316.836C1014.04 316.836 1012.95 317.004 1012.11 317.34C1011.27 317.676 1010.64 318.171 1010.23 318.824C1009.84 319.477 1009.64 320.271 1009.64 321.204V321.54H1007.66V321.288C1007.66 320.168 1007.92 319.132 1008.44 318.18C1008.98 317.209 1009.82 316.435 1010.96 315.856C1012.12 315.259 1013.61 314.96 1015.44 314.96C1017.12 314.96 1018.49 315.212 1019.56 315.716C1020.62 316.22 1021.4 316.883 1021.91 317.704C1022.41 318.525 1022.66 319.449 1022.66 320.476C1022.66 321.447 1022.47 322.287 1022.08 322.996C1021.68 323.687 1021.11 324.284 1020.37 324.788C1019.62 325.273 1018.69 325.712 1017.57 326.104L1013.73 327.392C1012.71 327.747 1011.9 328.139 1011.32 328.568C1010.76 328.997 1010.36 329.52 1010.12 330.136C1009.9 330.733 1009.78 331.471 1009.78 332.348L1013.98 332.18H1022.61V334ZM1027.32 334H1025.33V315.24H1027.32V334ZM1038.97 326.02H1026V324.228H1038.97V326.02ZM1039.39 317.06H1026V315.24H1039.39V317.06ZM1044.03 334H1042.04V315.24H1044.03V334ZM1056.29 334H1042.71V332.18H1056.29V334ZM1055.87 325.46H1042.71V323.668H1055.87V325.46ZM1056.29 317.06H1042.71V315.24H1056.29V317.06Z" fill="black"/>
<path d="M1216.45 334H1214.44L1216.2 329.464H1211.95V327.672H1216.9L1219.11 321.82H1214.35V320.028H1219.84L1221.66 315.24H1223.65L1221.83 320.028H1227.82L1229.64 315.24H1231.63L1229.81 320.028H1234.18V321.82H1229.08L1226.87 327.672H1231.77V329.464H1226.17L1224.43 334H1222.42L1224.15 329.464H1218.19L1216.45 334ZM1221.07 321.792L1218.81 327.7H1224.94L1227.18 321.792H1221.07ZM1244.54 334.28C1242.54 334.28 1240.91 333.944 1239.64 333.272C1238.37 332.6 1237.43 331.545 1236.81 330.108C1236.21 328.671 1235.91 326.785 1235.91 324.452C1235.91 323.052 1236.08 321.773 1236.42 320.616C1236.77 319.459 1237.3 318.46 1237.99 317.62C1238.7 316.761 1239.58 316.108 1240.65 315.66C1241.73 315.193 1243.01 314.96 1244.48 314.96C1245.9 314.96 1247.17 315.203 1248.29 315.688C1249.43 316.155 1250.32 316.836 1250.95 317.732C1251.58 318.609 1251.9 319.683 1251.9 320.952V321.148H1249.75V320.952C1249.75 320.187 1249.58 319.496 1249.24 318.88C1248.91 318.245 1248.36 317.751 1247.59 317.396C1246.82 317.041 1245.79 316.864 1244.48 316.864C1242.9 316.864 1241.63 317.144 1240.67 317.704C1239.74 318.245 1239.06 319.076 1238.63 320.196C1238.2 321.297 1237.99 322.688 1237.99 324.368V326.048H1238.18C1238.41 325.357 1238.83 324.732 1239.44 324.172C1240.06 323.612 1240.85 323.173 1241.82 322.856C1242.79 322.539 1243.89 322.38 1245.13 322.38C1246.66 322.38 1247.96 322.623 1249.05 323.108C1250.13 323.575 1250.96 324.247 1251.54 325.124C1252.12 326.001 1252.41 327.047 1252.41 328.26C1252.41 330.089 1251.72 331.555 1250.33 332.656C1248.97 333.739 1247.04 334.28 1244.54 334.28ZM1244.48 332.376C1245.83 332.376 1246.93 332.227 1247.79 331.928C1248.66 331.611 1249.31 331.135 1249.72 330.5C1250.15 329.865 1250.36 329.072 1250.36 328.12C1250.36 327.187 1250.16 326.412 1249.75 325.796C1249.34 325.161 1248.7 324.685 1247.84 324.368C1246.98 324.051 1245.87 323.892 1244.51 323.892C1243.24 323.892 1242.15 324.06 1241.23 324.396C1240.32 324.713 1239.61 325.171 1239.11 325.768C1238.62 326.365 1238.38 327.093 1238.38 327.952C1238.38 328.923 1238.61 329.744 1239.08 330.416C1239.56 331.069 1240.25 331.564 1241.15 331.9C1242.06 332.217 1243.18 332.376 1244.48 332.376ZM1262.62 334.28C1260.92 334.28 1259.45 334.084 1258.2 333.692C1256.97 333.3 1256.01 332.703 1255.34 331.9C1254.67 331.097 1254.33 330.099 1254.33 328.904C1254.33 328.12 1254.51 327.411 1254.87 326.776C1255.22 326.141 1255.74 325.6 1256.43 325.152C1257.14 324.685 1258.01 324.359 1259.04 324.172V323.976C1257.67 323.789 1256.63 323.313 1255.9 322.548C1255.19 321.783 1254.84 320.877 1254.84 319.832C1254.84 318.395 1255.49 317.228 1256.8 316.332C1258.12 315.417 1260.06 314.96 1262.62 314.96C1265.2 314.96 1267.14 315.417 1268.45 316.332C1269.75 317.228 1270.41 318.395 1270.41 319.832C1270.41 320.877 1270.04 321.783 1269.31 322.548C1268.6 323.313 1267.57 323.789 1266.21 323.976V324.172C1267.25 324.359 1268.12 324.685 1268.81 325.152C1269.52 325.6 1270.04 326.141 1270.38 326.776C1270.73 327.411 1270.91 328.12 1270.91 328.904C1270.91 330.099 1270.57 331.097 1269.9 331.9C1269.23 332.703 1268.27 333.3 1267.02 333.692C1265.79 334.084 1264.32 334.28 1262.62 334.28ZM1262.62 332.376C1264.11 332.376 1265.32 332.245 1266.23 331.984C1267.15 331.723 1267.82 331.321 1268.25 330.78C1268.68 330.22 1268.89 329.492 1268.89 328.596C1268.89 327.775 1268.68 327.093 1268.25 326.552C1267.82 326.011 1267.14 325.609 1266.21 325.348C1265.29 325.068 1264.1 324.928 1262.62 324.928C1261.17 324.928 1259.97 325.068 1259.04 325.348C1258.1 325.609 1257.42 326.011 1256.99 326.552C1256.56 327.093 1256.35 327.775 1256.35 328.596C1256.35 329.492 1256.56 330.22 1256.99 330.78C1257.42 331.321 1258.09 331.723 1259.01 331.984C1259.94 332.245 1261.15 332.376 1262.62 332.376ZM1262.62 323.5C1263.95 323.5 1265.04 323.379 1265.9 323.136C1266.76 322.893 1267.39 322.529 1267.8 322.044C1268.21 321.559 1268.42 320.943 1268.42 320.196C1268.42 319.505 1268.24 318.908 1267.89 318.404C1267.53 317.9 1266.92 317.517 1266.07 317.256C1265.23 316.995 1264.08 316.864 1262.62 316.864C1261.17 316.864 1260.02 316.995 1259.18 317.256C1258.34 317.517 1257.73 317.9 1257.36 318.404C1257 318.908 1256.83 319.505 1256.83 320.196C1256.83 320.943 1257.03 321.559 1257.44 322.044C1257.87 322.529 1258.51 322.893 1259.35 323.136C1260.2 323.379 1261.3 323.5 1262.62 323.5ZM1275.29 334H1273.31V315.24H1275.29V334ZM1286.94 326.02H1273.98V324.228H1286.94V326.02ZM1287.36 317.06H1273.98V315.24H1287.36V317.06ZM1298.13 334.28C1296.13 334.28 1294.5 333.944 1293.23 333.272C1291.96 332.6 1291.02 331.545 1290.4 330.108C1289.81 328.671 1289.51 326.785 1289.51 324.452C1289.51 323.052 1289.68 321.773 1290.01 320.616C1290.37 319.459 1290.89 318.46 1291.58 317.62C1292.29 316.761 1293.18 316.108 1294.24 315.66C1295.32 315.193 1296.6 314.96 1298.08 314.96C1299.49 314.96 1300.76 315.203 1301.88 315.688C1303.02 316.155 1303.91 316.836 1304.54 317.732C1305.18 318.609 1305.5 319.683 1305.5 320.952V321.148H1303.34V320.952C1303.34 320.187 1303.17 319.496 1302.84 318.88C1302.5 318.245 1301.95 317.751 1301.18 317.396C1300.42 317.041 1299.38 316.864 1298.08 316.864C1296.49 316.864 1295.22 317.144 1294.27 317.704C1293.33 318.245 1292.65 319.076 1292.22 320.196C1291.79 321.297 1291.58 322.688 1291.58 324.368V326.048H1291.78C1292 325.357 1292.42 324.732 1293.04 324.172C1293.65 323.612 1294.45 323.173 1295.42 322.856C1296.39 322.539 1297.49 322.38 1298.72 322.38C1300.25 322.38 1301.56 322.623 1302.64 323.108C1303.72 323.575 1304.55 324.247 1305.13 325.124C1305.71 326.001 1306 327.047 1306 328.26C1306 330.089 1305.31 331.555 1303.93 332.656C1302.57 333.739 1300.63 334.28 1298.13 334.28ZM1298.08 332.376C1299.42 332.376 1300.52 332.227 1301.38 331.928C1302.26 331.611 1302.9 331.135 1303.31 330.5C1303.74 329.865 1303.96 329.072 1303.96 328.12C1303.96 327.187 1303.75 326.412 1303.34 325.796C1302.93 325.161 1302.29 324.685 1301.44 324.368C1300.58 324.051 1299.47 323.892 1298.1 323.892C1296.83 323.892 1295.74 324.06 1294.83 324.396C1293.91 324.713 1293.2 325.171 1292.7 325.768C1292.21 326.365 1291.97 327.093 1291.97 327.952C1291.97 328.923 1292.21 329.744 1292.67 330.416C1293.16 331.069 1293.85 331.564 1294.74 331.9C1295.66 332.217 1296.77 332.376 1298.08 332.376ZM1310.87 334H1308.88V315.24H1310.87V334ZM1322.52 326.02H1309.55V324.228H1322.52V326.02ZM1322.94 317.06H1309.55V315.24H1322.94V317.06ZM1327.57 334H1325.59V315.24H1327.57V334ZM1339.22 326.02H1326.26V324.228H1339.22V326.02ZM1339.64 317.06H1326.26V315.24H1339.64V317.06Z" fill="black"/>
</svg>
